<?xml version="1.0" encoding="utf-8"?>
<!-- Generator: Adobe Illustrator 18.1.1, SVG Export Plug-In . SVG Version: 6.00 Build 0)  -->
<svg version="1.1" id="Layer_1" xmlns="http://www.w3.org/2000/svg" xmlns:xlink="http://www.w3.org/1999/xlink" x="0px" y="0px"
	 viewBox="0 0 128 128" enable-background="new 0 0 128 128" xml:space="preserve">
<g>
	<circle fill="#FFC717" cx="64" cy="64" r="63.5"/>
	<g>
		<path fill="#FAF4A6" d="M64,103.7L64,103.7c-3.4,0-6.1-2.7-6.1-6.1V83.8h12.2v13.8C70.1,100.9,67.4,103.7,64,103.7z"/>
		<path fill="#753A29" d="M80.2,52.9c-0.2-0.7-0.2-1.5-0.5-2.1c-0.7-1.4-2.5-2-3.2-3.5c-0.9-1.9,0.8-4.6-0.6-6.1
			c-0.9-1-2.7-1-3.5-2.1c-0.9-1.3,0.1-3.1-0.5-4.6c-0.4-0.9-1.3-1.5-2.1-2c-2.6-1.9-4.3-4.9-4.8-8.1c-0.4,0-0.8-0.1-1.2-0.1
			c-9.9,0-18,8.1-18,18v41.4h36V55.9C81.1,55.1,80.5,54.1,80.2,52.9z"/>
	</g>
</g>
</svg>
