<?xml version="1.0" encoding="utf-8"?>
<!-- Generator: Adobe Illustrator 18.1.1, SVG Export Plug-In . SVG Version: 6.00 Build 0)  -->
<svg version="1.1" id="Layer_1" xmlns="http://www.w3.org/2000/svg" xmlns:xlink="http://www.w3.org/1999/xlink" x="0px" y="0px"
	 viewBox="0 0 128 128" enable-background="new 0 0 128 128" xml:space="preserve">
<g>
	<circle fill="#EF4538" cx="64" cy="64" r="63.5"/>
	<g>
		<path fill="#E3E6E8" d="M91.3,77.9C92.1,93.6,74.4,102,64,102c-15.1,0-27.3-9.1-27.3-24.1C36.7,56.9,48.9,26,64,26
			S90.1,56.9,91.3,77.9z"/>
		<path fill="#AAB8BF" d="M64,93.4c-12.5,0-22.7-4.9-27.1-12.9c0.3,2.7,0.9,5.1,1.9,7.3c5.9,5.4,14.9,8.6,25.2,8.6
			c8.3,0,18.9-3.7,25.7-9.9c0.9-2,1.4-4.2,1.6-6.6C85.7,89.1,71.9,93.4,64,93.4z"/>
		<path fill="#AAB8BF" d="M89.2,63.4c-0.3-1.2-0.5-2.3-0.8-3.5C82.2,66.6,71.3,70.2,64,70.2c-10.7,0-19.9-3.8-24.9-10.2
			c-0.3,1.2-0.6,2.5-0.8,3.7c5.8,6.1,15,9.5,25.7,9.5C71.6,73.2,82.3,69.8,89.2,63.4z"/>
		<path fill="#AAB8BF" d="M80.7,39.9c-0.2-0.4-0.5-0.9-0.7-1.3l-1-1.1c-3.6,3.2-9.1,5.1-15,5.1c-6,0-11.6-2-15.2-5.3l-1,1.1
			c-0.3,0.4-0.5,0.9-0.8,1.3c4.1,3.7,10.3,5.9,17,5.9C70.5,45.5,76.6,43.4,80.7,39.9z"/>
		<ellipse fill="#FCD83A" cx="50" cy="53" rx="2.7" ry="3.3"/>
		<ellipse fill="#FCD83A" cx="78" cy="53" rx="2.7" ry="3.3"/>
		<ellipse fill="#FCD83A" cx="64" cy="59" rx="2.7" ry="3.3"/>
		<ellipse fill="#41B655" cx="48.4" cy="79.2" rx="2.9" ry="3.3"/>
		<ellipse fill="#41B655" cx="79.6" cy="79.2" rx="2.9" ry="3.3"/>
		<ellipse fill="#41B655" cx="64" cy="85.2" rx="2.9" ry="3.3"/>
	</g>
</g>
</svg>
