<?xml version="1.0" encoding="utf-8"?>
<!-- Generator: Adobe Illustrator 18.1.1, SVG Export Plug-In . SVG Version: 6.00 Build 0)  -->
<svg version="1.1" id="Layer_1" xmlns="http://www.w3.org/2000/svg" xmlns:xlink="http://www.w3.org/1999/xlink" x="0px" y="0px"
	 viewBox="0 0 128 128" enable-background="new 0 0 128 128" xml:space="preserve">
<g>
	<circle fill="#EF4538" cx="64" cy="64" r="63.5"/>
	<g>
		<rect x="42.4" y="24.3" fill="none" width="44.3" height="79.4"/>
		<rect x="42.4" y="60.1" fill="#FAF4A6" width="44.3" height="43.6"/>
		<rect x="42.4" y="24.3" fill="#753A29" width="44.3" height="35.8"/>
		<polygon fill="#915037" points="66.1,40.7 66.1,24.3 66.1,24.3 63.1,24.3 63.1,24.3 63.1,40.7 42.4,40.7 42.4,43.7 63.1,43.7 
			63.1,60.1 66.1,60.1 66.1,43.7 86.7,43.7 86.7,40.7 		"/>
		<polygon fill="#FFC717" points="42.4,60.1 38.3,74.5 45.2,67.3 55.6,77.4 62.5,67.6 73.5,77.4 76.6,67.4 89.7,73.1 86.7,60.1 		
			"/>
	</g>
</g>
</svg>
