<?xml version="1.0" encoding="utf-8"?>
<!-- Generator: Adobe Illustrator 18.1.1, SVG Export Plug-In . SVG Version: 6.00 Build 0)  -->
<svg version="1.1" id="Layer_1" xmlns="http://www.w3.org/2000/svg" xmlns:xlink="http://www.w3.org/1999/xlink" x="0px" y="0px"
	 viewBox="0 0 128 128" enable-background="new 0 0 128 128" xml:space="preserve">
<g>
	<circle fill="#388CCB" cx="64" cy="64" r="63.5"/>
	<g>
		<path fill="#D5D7D8" d="M103.7,69.9c0,20.4-11.1,30.8-24.9,30.8S53.9,90.3,53.9,69.9s11.1-43,24.9-43S103.7,49.5,103.7,69.9z"/>
		<path fill="#FFFFFF" d="M52.5,53.9c0.6,1.6,1,3.2,1,4.9c-1.9,0.2-3.9-0.1-5.6-0.8c0.3,0.8,0.5,1.7,0.4,2.5c-1,0.1-1.9,0.1-2.9,0.2
			c0.1,1-0.4,2-1.3,2.4c-0.7,0.4-1.6,0.4-2.3,0.8c-0.7,0.4-1.1,1.5-0.5,2c-0.5,0-1,0-1.4,0c0,0.7-0.1,1.5-0.4,2.2
			c-1-0.7-2.5,0.1-2.9,1.3c-0.4,1.2,0.1,2.4,0.5,3.6c-1.6,0.1-3.2,0.1-4.8,0.2c0.4,1.2,0.7,2.3,1.1,3.5c-0.9-0.6-2.1,0.1-2.6,1.1
			c-0.5,0.9-0.5,2-0.8,3c-0.7,2.4-3.4,4-5.8,3.5c0.4,1.3,0.5,2.6,0.5,3.9c0.4,0.4,0.8,0.9,1.3,1.3c14.4,14.4,29.7,13.9,39.4,4.2
			c9.7-9.7,10.2-25-4.2-39.4c-1.3-1.3-2.6-2.5-4-3.7C56.2,52.4,54.5,53.7,52.5,53.9z"/>
	</g>
</g>
</svg>
