<?xml version="1.0" encoding="utf-8"?>
<!-- Generator: Adobe Illustrator 18.1.1, SVG Export Plug-In . SVG Version: 6.00 Build 0)  -->
<svg version="1.1" id="Layer_1" xmlns="http://www.w3.org/2000/svg" xmlns:xlink="http://www.w3.org/1999/xlink" x="0px" y="0px"
	 viewBox="0 0 128 128" enable-background="new 0 0 128 128" xml:space="preserve">
<g>
	<circle fill="#41B655" cx="64" cy="64" r="63.5"/>
	<g>
		<path fill="#FFC717" d="M41.7,30.1c-15.5,15.5-15.5,40.6,0,56.1c15.5,15.5,40.6,15.5,56.1,0L41.7,30.1z"/>
		<g>
			<path fill="#FAF4A6" d="M72.8,89.6c6.7-0.6,13.2-3.4,18.4-8.2c0.5-0.5,0.5-1.3,0-1.7L73.5,61.9c-0.8-0.8-2.1-0.2-2.1,0.9v25.6
				C71.5,89.1,72.1,89.7,72.8,89.6z"/>
			<path fill="#FAF4A6" d="M62.9,59.8l-23.3,0c-0.7,0-1.3,0.6-1.2,1.3c0.6,6.1,2.9,12.1,7.1,17.1c0.4,0.5,1.3,0.6,1.8,0.1l16.4-16.4
				C64.5,61.2,64,59.8,62.9,59.8z"/>
			<path fill="#FAF4A6" d="M49.7,82.5c5,4.2,11,6.5,17.1,7.1c0.7,0.1,1.3-0.5,1.3-1.2l0-23.3c0-1.1-1.3-1.6-2.1-0.9L49.6,80.7
				C49.1,81.2,49.2,82,49.7,82.5z"/>
			<path fill="#FAF4A6" d="M66.1,54.5L48.4,36.8c-0.5-0.5-1.3-0.5-1.7,0C41.8,42,39,48.6,38.4,55.2c-0.1,0.7,0.5,1.3,1.2,1.3l25.6,0
				C66.3,56.5,66.8,55.2,66.1,54.5z"/>
		</g>
	</g>
</g>
</svg>
