<?xml version="1.0" encoding="utf-8"?>
<!-- Generator: Adobe Illustrator 18.1.1, SVG Export Plug-In . SVG Version: 6.00 Build 0)  -->
<svg version="1.1" id="Layer_1" xmlns="http://www.w3.org/2000/svg" xmlns:xlink="http://www.w3.org/1999/xlink" x="0px" y="0px"
	 viewBox="0 0 128 128" enable-background="new 0 0 128 128" xml:space="preserve">
<g>
	<circle fill="#388CCB" cx="64" cy="64" r="63.5"/>
	<g>
		<path fill="#FCD83A" d="M80.4,66.8c-2.5-2.7-4.6-7.9-4.6-11.6v0c0-8.3-5.3-15.1-11.8-15.1c-6.5,0-11.8,6.7-11.8,15.1v0
			c0,3.7-2.1,8.9-4.6,11.6c-3.4,3.6-5.4,6.9-5.4,12.9c0,13.2,9.8,23.9,21.8,23.9c1.5,0,3-0.2,4.4-0.5c10-2.2,17.5-11.9,17.5-23.4
			C85.8,73.7,83.8,70.4,80.4,66.8z"/>
		<path fill="#915037" d="M64,40.2c1,0,1.9,0.2,2.8,0.4c0.1-0.1,0.1-0.3,0.2-0.4c0.2-0.6,0.5-1.2,0.8-1.8c0.3-0.6,0.7-1.2,1-1.8
			c0.4-0.6,0.8-1.2,1.2-1.7c0.5-0.5,0.9-1.1,1.4-1.5c0.5-0.5,1-0.9,1.5-1.2c0.3-0.2,0.5-0.4,0.7-0.5c0.3-0.1,0.5-0.3,0.8-0.4
			c0.5-0.3,1-0.5,1.4-0.6c0.5-0.1,0.9-0.3,1.2-0.4c0.4-0.1,0.7-0.1,1-0.2c0.6-0.1,0.9-0.2,0.9-0.2l0.4-0.1c0.1,0,0.2,0,0.3-0.1
			c1.5-0.4,2.3-2,1.9-3.5c-0.4-1.5-2-2.3-3.5-1.9c0,0-0.4,0.1-1.2,0.4c-0.4,0.1-0.8,0.3-1.4,0.4c-0.5,0.2-1.1,0.5-1.7,0.8
			c-0.6,0.3-1.3,0.7-1.9,1.1c-0.3,0.2-0.7,0.4-1,0.7c-0.3,0.3-0.6,0.5-0.9,0.8c-0.7,0.5-1.2,1.2-1.8,1.8c-0.6,0.6-1,1.4-1.5,2.1
			c-0.5,0.7-0.9,1.5-1.2,2.2c-0.3,0.8-0.7,1.5-1,2.2c-0.3,0.7-0.5,1.5-0.7,2.1c-0.1,0.4-0.2,0.8-0.3,1.2
			C63.6,40.3,63.8,40.2,64,40.2z"/>
		<path fill="#22A79C" d="M66.9,40c-7.8-2.9-16.4,1-19.4,8.7l0,0l0,0C55.3,51.7,63.9,47.8,66.9,40L66.9,40z"/>
	</g>
</g>
</svg>
