<?xml version="1.0" encoding="utf-8"?>
<!-- Generator: Adobe Illustrator 18.1.1, SVG Export Plug-In . SVG Version: 6.00 Build 0)  -->
<svg version="1.1" id="Layer_1" xmlns="http://www.w3.org/2000/svg" xmlns:xlink="http://www.w3.org/1999/xlink" x="0px" y="0px"
	 viewBox="0 0 128 128" enable-background="new 0 0 128 128" xml:space="preserve">
<g>
	<circle fill="#EF4538" cx="64" cy="64" r="63.5"/>
	<g>
		<path fill="#FFC717" d="M84,46.6C65.5,51.9,50.9,66.5,45.6,85c-1.5,4.9-5.7,8.9-10.6,8.5l0,0c-4.8-0.4-8.2-6.6-6.2-13.4
			c7-24.3,26.1-43.3,50.4-50.4c6.8-2,13,1.4,13.4,6.2l0,0C92.9,40.8,88.9,45.1,84,46.6z"/>
		<path fill="#FAF4A6" d="M97.9,24.3L89.3,31c1.8,1.2,3.1,3,3.2,5l0,0c0,0.5,0,1,0,1.5l10.3-1.3l0-0.1L98,34.6l2.3-4.4l-4.8-1.4
			L97.9,24.3L97.9,24.3z"/>
		<path fill="#FAF4A6" d="M35,93.5L35,93.5c-2-0.2-3.8-1.4-5-3.2l-6.5,8.5l0.1,0l4.4-2.3l1.4,4.8l4.4-2.3l1.4,4.8l0.1,0l1.3-10.2
			C36.1,93.5,35.6,93.5,35,93.5z"/>
	</g>
</g>
</svg>
