<?xml version="1.0" encoding="utf-8"?>
<!-- Generator: Adobe Illustrator 18.1.1, SVG Export Plug-In . SVG Version: 6.00 Build 0)  -->
<svg version="1.1" id="Layer_1" xmlns="http://www.w3.org/2000/svg" xmlns:xlink="http://www.w3.org/1999/xlink" x="0px" y="0px"
	 viewBox="0 0 128 128" enable-background="new 0 0 128 128" xml:space="preserve">
<g>
	<circle fill="#FFC717" cx="64" cy="64" r="63.5"/>
	<g>
		<path fill="#D62E2F" d="M82.2,39.3c-5.1-0.4-10.3,1.8-14.7,5.8c-2,1.9-5.1,1.9-7.1,0c-4.4-4-9.5-6.3-14.7-5.8
			c-12.1,1-19.7,16.3-17.1,34s14.6,31.3,26.7,30.3c2.3-0.2,4.4-0.9,6.3-2c1.4-0.8,3-0.8,4.4,0c1.9,1.1,4.1,1.8,6.3,2
			c12.1,1,24.1-12.5,26.7-30.3C102,55.6,94.3,40.3,82.2,39.3z"/>
		<path fill="#5D5E61" d="M64.2,48.5c-1,0-1.9-0.8-2-1.8c0-0.2-1.1-19.7,15.7-24.2c1.1-0.3,2.1,0.3,2.4,1.4c0.3,1.1-0.3,2.1-1.4,2.4
			c-13.7,3.7-12.8,20-12.8,20.1c0.1,1.1-0.8,2-1.8,2.1C64.3,48.5,64.2,48.5,64.2,48.5z"/>
		<path fill="#22A79C" d="M66.3,35.6L66.3,35.6L66.3,35.6c-14.7-1.9-25,8.4-23.1,23.1C57.9,60.6,68.2,50.3,66.3,35.6z"/>
	</g>
</g>
</svg>
