<?xml version="1.0" encoding="utf-8"?>
<!-- Generator: Adobe Illustrator 18.1.1, SVG Export Plug-In . SVG Version: 6.00 Build 0)  -->
<svg version="1.1" id="Layer_1" xmlns="http://www.w3.org/2000/svg" xmlns:xlink="http://www.w3.org/1999/xlink" x="0px" y="0px"
	 viewBox="0 0 128 128" enable-background="new 0 0 128 128" xml:space="preserve">
<g>
	<circle fill="#388CCB" cx="64" cy="64" r="63.5"/>
	<g>
		<ellipse transform="matrix(0.7071 -0.7071 0.7071 0.7071 -26.76 63.3957)" fill="#D62E2F" cx="63.1" cy="64" rx="27.5" ry="20"/>
		<path fill="#F7EC5C" d="M49.3,87c-2.1-0.8-4-1.9-5.6-3.5c-1.6-1.6-2.8-3.5-3.5-5.6l-16.7,8.2l8.5,0.3l0.3,8.5l8.5,0.3l0.3,8.5
			L49.3,87z"/>
		<path fill="#F7EC5C" d="M85.5,32.8l-0.3-8.5L77,41c2.1,0.8,4,1.9,5.6,3.5s2.8,3.5,3.5,5.6l16.7-8.2l-8.5-0.3L94,33.1L85.5,32.8z"
			/>
	</g>
</g>
</svg>
