<?xml version="1.0" encoding="utf-8"?>
<!-- Generator: Adobe Illustrator 18.1.1, SVG Export Plug-In . SVG Version: 6.00 Build 0)  -->
<svg version="1.1" id="Layer_1" xmlns="http://www.w3.org/2000/svg" xmlns:xlink="http://www.w3.org/1999/xlink" x="0px" y="0px"
	 viewBox="0 0 128 128" enable-background="new 0 0 128 128" xml:space="preserve">
<g>
	<circle fill="#EF4538" cx="64" cy="64" r="63.5"/>
	<g>
		<polygon fill="#E3E6E8" points="102.8,24.3 75.2,24.3 27.3,24.3 27.3,52.5 75.2,52.5 75.2,103.7 102.8,103.7 102.8,24.3 		"/>
		<ellipse fill="#5D5E61" cx="84.2" cy="38.8" rx="8.8" ry="8.9"/>
		<rect x="41.8" y="52.5" fill="#E3E6E8" width="14.8" height="3.9"/>
		<rect x="41.8" y="56.4" fill="#915037" width="14.8" height="4.2"/>
		<polygon fill="#753A29" points="41.8,59.5 23.5,60.3 23.5,56.6 41.8,57.4 		"/>
		<g>
			<path fill="#5D5E61" d="M65.4,90.4c-1.5,0-3-0.5-4.2-1.4c-0.7-0.5-0.8-1.4-0.3-2.1c0.5-0.7,1.4-0.8,2.1-0.3
				c0.7,0.5,1.5,0.8,2.4,0.8c2.2,0,4-1.8,4-4.1c0-2.2-1.8-4-3.9-4.1c-0.1,0-0.1,0-0.1,0c-0.8,0-1.5-0.7-1.5-1.5
				c0-0.8,0.6-1.4,1.4-1.5c0.1,0,0.1,0,0.2,0c3.8,0,7,3.2,7,7S69.2,90.4,65.4,90.4z"/>
		</g>
		<rect x="47.9" y="60.5" fill="#FFC717" width="2.6" height="15.4"/>
		<rect x="27.3" y="96.3" fill="#C1C4C5" width="75.6" height="7.4"/>
		<path fill="#E3E6E8" d="M36.7,75.9c0,10.3,6.4,18.6,14.3,18.6c7.9,0,14.3-8.3,14.3-18.6H36.7z"/>
	</g>
</g>
</svg>
