<?xml version="1.0" encoding="utf-8"?>
<!-- Generator: Adobe Illustrator 18.1.1, SVG Export Plug-In . SVG Version: 6.00 Build 0)  -->
<svg version="1.1" id="Layer_1" xmlns="http://www.w3.org/2000/svg" xmlns:xlink="http://www.w3.org/1999/xlink" x="0px" y="0px"
	 viewBox="0 0 128 128" enable-background="new 0 0 128 128" xml:space="preserve">
<g>
	<circle fill="#FFC717" cx="64" cy="64" r="63.5"/>
	<g>
		<path fill="#E67375" d="M103.7,59.2H24.3c0,16.9,10.5,31.2,25.4,37v4.6h28.6v-4.6C93.1,90.5,103.7,76.1,103.7,59.2z"/>
		<path fill="#E3E6E8" d="M100.5,59.2c0-3.1-1.9-5.6-4.6-6.7c0.3-0.9,0.5-1.8,0.5-2.8c0-4.5-3.6-8.1-8.1-8.1c-1.2,0-2.3,0.3-3.3,0.7
			c-0.1-3.9-3.3-7-7.2-7c-0.3,0-0.6,0.1-1,0.1c-0.4-4.1-3.8-7.4-8-7.4c-2.2,0-4.2,0.9-5.6,2.3c-1.3-1.9-3.5-3.1-6-3.1
			c-4,0-7.2,3.2-7.2,7.2c0,0.1,0,0.2,0,0.3c-1.2-0.7-2.7-1.2-4.2-1.2c-4.5,0-8.1,3.6-8.1,8.1c0,1,0.2,2,0.6,2.9
			c-3.1,0.8-5.4,3.6-5.4,7c0,0.1,0,0.2,0,0.3c-3.1,0.8-5.4,3.6-5.4,7c0,0.2,0,0.3,0,0.5H100.5z"/>
	</g>
</g>
</svg>
