<?xml version="1.0" encoding="utf-8"?>
<!-- Generator: Adobe Illustrator 18.1.1, SVG Export Plug-In . SVG Version: 6.00 Build 0)  -->
<svg version="1.1" id="Layer_1" xmlns="http://www.w3.org/2000/svg" xmlns:xlink="http://www.w3.org/1999/xlink" x="0px" y="0px"
	 viewBox="0 0 128 128" enable-background="new 0 0 128 128" xml:space="preserve">
<g>
	<circle fill="#388CCB" cx="64" cy="64" r="63.5"/>
	<g>
		<path fill="#F7BE2A" d="M28.2,77c-0.6-0.8-1.1-1.6-1.5-2.5c-7.4-14.2,3.4-34,24-44.2s43.3-7,50.7,7.2c7,13.5-2.4,32.1-21.1,42.6"
			/>
		<path fill="#F89A20" d="M94.8,40.7c1.1,2.1-0.3,4.9-3.1,6.3c-2.8,1.4-6,0.8-7.1-1.3s0.3-4.9,3.1-6.3
			C90.5,38.1,93.7,38.6,94.8,40.7z"/>
		<ellipse fill="#FAF4A6" cx="54.4" cy="78.3" rx="26" ry="25.4"/>
		<ellipse fill="#FCD83A" cx="54.4" cy="78.3" rx="14" ry="8.9"/>
		<path fill="#FCD83A" d="M55.4,69.5v-3.1c0-0.6-0.5-1-1-1s-1,0.5-1,1v3.1c0.3,0,0.7,0,1,0S55.1,69.5,55.4,69.5z"/>
		<path fill="#FCD83A" d="M53.4,87.2v3c0,0.6,0.5,1,1,1s1-0.5,1-1v-3c-0.3,0-0.7,0-1,0S53.7,87.2,53.4,87.2z"/>
		<path fill="#FCD83A" d="M61,67.5c0.2-0.5,0-1.1-0.5-1.3c-0.5-0.2-1.1,0-1.4,0.5l-1.4,3.1c0,0,0,0,0,0c0.7,0.1,1.4,0.2,2.1,0.4
			L61,67.5z"/>
		<path fill="#FCD83A" d="M47.6,89.4c-0.2,0.5,0,1.1,0.5,1.3c0.1,0.1,0.3,0.1,0.4,0.1c0.4,0,0.8-0.2,0.9-0.6l1.4-3.1
			c0-0.1,0-0.1,0.1-0.2c-0.7-0.1-1.4-0.3-2-0.4L47.6,89.4z"/>
		<path fill="#FCD83A" d="M51.1,69.7l-1.4-3.1c-0.2-0.5-0.8-0.7-1.4-0.5c-0.5,0.2-0.7,0.8-0.5,1.3l1.2,2.7
			C49.7,70,50.4,69.8,51.1,69.7C51.1,69.7,51.1,69.7,51.1,69.7z"/>
		<path fill="#FCD83A" d="M58,87.1l1.4,3.1c0.2,0.4,0.5,0.6,0.9,0.6c0.1,0,0.3,0,0.4-0.1c0.5-0.2,0.7-0.8,0.5-1.3L60,86.5
			c-0.7,0.2-1.3,0.3-2,0.4C58,87,58,87.1,58,87.1z"/>
		<path fill="#FCD83A" d="M71.1,77.2h-2.8c0.1,0.4,0.1,0.7,0.1,1.1c0,0.3,0,0.6-0.1,0.9h2.8c0.6,0,1-0.5,1-1
			C72.1,77.7,71.7,77.2,71.1,77.2z"/>
		<path fill="#FCD83A" d="M40.5,77.2h-2.8c-0.6,0-1,0.5-1,1c0,0.6,0.5,1,1,1h2.8c-0.1-0.3-0.1-0.6-0.1-0.9
			C40.4,78,40.4,77.6,40.5,77.2z"/>
		<path fill="#FCD83A" d="M67.2,74.7l2.5-0.7c0.5-0.2,0.9-0.7,0.7-1.3c-0.2-0.5-0.7-0.8-1.3-0.7l-3.3,1c0,0-0.1,0-0.1,0
			C66.2,73.6,66.7,74.1,67.2,74.7z"/>
		<path fill="#FCD83A" d="M41.6,81.9l-2.4,0.7c-0.5,0.2-0.9,0.7-0.7,1.3c0.1,0.4,0.5,0.7,1,0.7c0.1,0,0.2,0,0.3,0l3.3-1c0,0,0,0,0,0
			C42.5,83,42,82.5,41.6,81.9z"/>
		<path fill="#FCD83A" d="M65.7,83.6l2.8,0.9c0.1,0,0.2,0.1,0.3,0.1c0.4,0,0.8-0.3,1-0.7c0.2-0.5-0.1-1.1-0.6-1.3l-2-0.7
			C66.8,82.5,66.2,83.1,65.7,83.6z"/>
		<path fill="#FCD83A" d="M43,73.2c-0.1,0-0.1-0.1-0.2-0.1L39.6,72c-0.5-0.2-1.1,0.1-1.3,0.6c-0.2,0.5,0.1,1.1,0.6,1.3l2.6,0.9
			C42,74.2,42.5,73.7,43,73.2z"/>
		<path fill="#FCD83A" d="M64.3,87.9c0.2,0.2,0.4,0.3,0.7,0.3c0.3,0,0.6-0.1,0.8-0.3c0.4-0.4,0.3-1.1-0.1-1.4l-1.8-1.5
			c-0.6,0.4-1.3,0.7-2,1L64.3,87.9z"/>
		<path fill="#FCD83A" d="M47.1,70.5l-2.6-2.3c-0.4-0.4-1.1-0.3-1.5,0.1c-0.4,0.4-0.3,1.1,0.1,1.4l2.1,1.9c0.6-0.3,1.3-0.6,2-0.9
			C47.2,70.6,47.1,70.6,47.1,70.5z"/>
		<path fill="#FCD83A" d="M65.7,70.2c0.4-0.4,0.5-1,0.1-1.4c-0.4-0.4-1-0.5-1.5-0.1l-2.6,2.2c0,0,0,0,0,0c0.7,0.3,1.4,0.6,2,1
			L65.7,70.2z"/>
		<path fill="#FCD83A" d="M42.8,86.6c-0.4,0.4-0.5,1-0.1,1.4c0.2,0.2,0.5,0.4,0.8,0.4c0.2,0,0.5-0.1,0.7-0.2l2.6-2.2
			c0.1,0,0.1-0.1,0.1-0.2c-0.7-0.3-1.4-0.6-2-1L42.8,86.6z"/>
	</g>
</g>
</svg>
