<?xml version="1.0" encoding="utf-8"?>
<!-- Generator: Adobe Illustrator 18.1.1, SVG Export Plug-In . SVG Version: 6.00 Build 0)  -->
<svg version="1.1" id="Layer_1" xmlns="http://www.w3.org/2000/svg" xmlns:xlink="http://www.w3.org/1999/xlink" x="0px" y="0px"
	 viewBox="0 0 128 128" enable-background="new 0 0 128 128" xml:space="preserve">
<g>
	<circle fill="#FFC717" cx="64" cy="64" r="63.5"/>
	<g>
		<circle fill="#22A79C" cx="64" cy="63.8" r="39.7"/>
		<ellipse fill="#FEEDEF" cx="64" cy="64" rx="21.3" ry="13.9"/>
		<path fill="#FEEDEF" d="M65.6,50.2v-4.9c0-0.9-0.7-1.6-1.6-1.6s-1.6,0.7-1.6,1.6v4.9c0.5,0,1-0.1,1.6-0.1S65.1,50.1,65.6,50.2z"/>
		<path fill="#FEEDEF" d="M62.4,77.8v4.6c0,0.9,0.7,1.6,1.6,1.6s1.6-0.7,1.6-1.6v-4.6c-0.5,0-1,0.1-1.6,0.1S62.9,77.8,62.4,77.8z"/>
		<path fill="#FEEDEF" d="M74.1,47c0.4-0.8,0-1.7-0.8-2.1c-0.8-0.4-1.7,0-2.1,0.8L69,50.5c0,0,0,0,0,0c1.1,0.2,2.1,0.4,3.2,0.7
			L74.1,47z"/>
		<path fill="#FEEDEF" d="M53.6,81.2c-0.4,0.8,0,1.7,0.8,2.1c0.2,0.1,0.4,0.1,0.6,0.1c0.6,0,1.2-0.3,1.4-0.9l2.2-4.8
			c0-0.1,0.1-0.2,0.1-0.3c-1.1-0.2-2.1-0.4-3.1-0.7L53.6,81.2z"/>
		<path fill="#FEEDEF" d="M59,50.5l-2.2-4.8c-0.4-0.8-1.3-1.2-2.1-0.8c-0.8,0.4-1.1,1.3-0.8,2.1l1.9,4.2
			C56.8,50.9,57.9,50.7,59,50.5C59,50.5,59,50.5,59,50.5z"/>
		<path fill="#FEEDEF" d="M69.6,77.7l2.2,4.8c0.3,0.6,0.8,0.9,1.4,0.9c0.2,0,0.4,0,0.6-0.1c0.8-0.4,1.1-1.3,0.8-2.1l-2-4.5
			c-1,0.3-2,0.5-3.1,0.7C69.5,77.5,69.5,77.6,69.6,77.7z"/>
		<path fill="#FEEDEF" d="M89.5,62.2h-4.3c0.1,0.6,0.2,1.1,0.2,1.7c0,0.5,0,1-0.1,1.5h4.3c0.9,0,1.6-0.7,1.6-1.6
			S90.4,62.2,89.5,62.2z"/>
		<path fill="#FEEDEF" d="M42.8,62.2h-4.3c-0.9,0-1.6,0.7-1.6,1.6s0.7,1.6,1.6,1.6h4.3c-0.1-0.5-0.1-1-0.1-1.5
			C42.7,63.4,42.7,62.8,42.8,62.2z"/>
		<path fill="#FEEDEF" d="M83.5,58.3l3.8-1.1c0.8-0.3,1.3-1.1,1.1-2c-0.3-0.8-1.1-1.3-2-1.1l-5,1.5c-0.1,0-0.1,0-0.2,0.1
			C82,56.5,82.8,57.4,83.5,58.3z"/>
		<path fill="#FEEDEF" d="M44.5,69.5l-3.7,1.1c-0.8,0.3-1.3,1.1-1.1,2c0.2,0.7,0.8,1.1,1.5,1.1c0.2,0,0.3,0,0.5-0.1l5-1.5
			c0,0,0,0,0.1,0C45.9,71.3,45.1,70.4,44.5,69.5z"/>
		<path fill="#FEEDEF" d="M81.2,72.2l4.3,1.5c0.2,0.1,0.3,0.1,0.5,0.1c0.7,0,1.3-0.4,1.5-1.1c0.3-0.8-0.2-1.7-1-2l-3-1
			C82.8,70.5,82.1,71.4,81.2,72.2z"/>
		<path fill="#FEEDEF" d="M46.7,55.9c-0.1-0.1-0.2-0.1-0.3-0.1l-5-1.7c-0.8-0.3-1.7,0.2-2,1c-0.3,0.8,0.2,1.7,1,2l4,1.4
			C45.1,57.5,45.8,56.7,46.7,55.9z"/>
		<path fill="#FEEDEF" d="M79.1,78.9c0.3,0.3,0.7,0.4,1,0.4c0.4,0,0.9-0.2,1.2-0.5c0.6-0.7,0.5-1.7-0.1-2.2l-2.7-2.4
			c-0.9,0.6-2,1.1-3,1.5L79.1,78.9z"/>
		<path fill="#FEEDEF" d="M52.8,51.7l-3.9-3.5c-0.7-0.6-1.6-0.5-2.2,0.1c-0.6,0.7-0.5,1.7,0.1,2.2l3.2,2.9c0.9-0.5,2-1,3-1.4
			C53,51.9,52.9,51.8,52.8,51.7z"/>
		<path fill="#FEEDEF" d="M81.2,51.2c0.7-0.6,0.8-1.6,0.2-2.2c-0.6-0.7-1.5-0.8-2.2-0.2l-4,3.4c0,0,0,0,0,0c1.1,0.4,2.2,1,3.1,1.5
			L81.2,51.2z"/>
		<path fill="#FEEDEF" d="M46.3,76.8c-0.7,0.6-0.8,1.6-0.2,2.2c0.3,0.4,0.8,0.6,1.2,0.6c0.4,0,0.7-0.1,1-0.4l4-3.4
			c0.1-0.1,0.2-0.2,0.2-0.2c-1.1-0.5-2.1-1-3-1.5L46.3,76.8z"/>
	</g>
</g>
</svg>
