<?xml version="1.0" encoding="utf-8"?>
<!-- Generator: Adobe Illustrator 18.1.1, SVG Export Plug-In . SVG Version: 6.00 Build 0)  -->
<svg version="1.1" id="Layer_1" xmlns="http://www.w3.org/2000/svg" xmlns:xlink="http://www.w3.org/1999/xlink" x="0px" y="0px"
	 viewBox="0 0 128 128" enable-background="new 0 0 128 128" xml:space="preserve">
<g>
	<circle fill="#EF4538" cx="64" cy="64" r="63.5"/>
	<g>
		<rect x="35.9" y="24.3" fill="#E3E6E8" width="58" height="7.9"/>
		<path fill="#FFFFFF" d="M93.8,32.2c-19.3,0-38.7,0-58,0c-4.3,21-4.3,42.5,0,63.5c19.3,0,38.7,0,58,0
			C98.2,74.8,98.2,53.2,93.8,32.2z"/>
		<rect x="35.9" y="95.8" fill="#E3E6E8" width="58" height="7.9"/>
		<path fill="#FBD839" d="M44.3,43.5c0,5.2,4.2,9.4,9.4,9.4h0l0,0C53.8,47.7,49.6,43.5,44.3,43.5L44.3,43.5L44.3,43.5z"/>
		<path fill="#FBD839" d="M57.8,43.1c-3.7,3.7-3.7,9.7,0,13.3l0,0l0,0C61.5,52.7,61.5,46.8,57.8,43.1L57.8,43.1L57.8,43.1z"/>
		<path fill="#FBD839" d="M43.9,56.9c3.7-3.7,9.7-3.7,13.3,0l0,0l0,0C53.6,60.6,47.6,60.6,43.9,56.9L43.9,56.9L43.9,56.9z"/>
		<path fill="#FBD839" d="M63.6,48.9c-3.7,3.7-3.7,9.7,0,13.3l0,0l0,0C67.3,58.6,67.3,52.6,63.6,48.9L63.6,48.9L63.6,48.9z"/>
		<path fill="#FBD839" d="M49.8,62.8c3.7-3.7,9.7-3.7,13.3,0l0,0l0,0C59.4,66.4,53.4,66.4,49.8,62.8L49.8,62.8L49.8,62.8z"/>
		<path fill="#FBD839" d="M69.4,54.7c-3.7,3.7-3.7,9.7,0,13.3l0,0l0,0C73.1,64.4,73.1,58.4,69.4,54.7L69.4,54.7L69.4,54.7z"/>
		<path fill="#FBD839" d="M55.6,68.6c3.7-3.7,9.7-3.7,13.3,0l0,0l0,0C65.2,72.3,59.3,72.3,55.6,68.6L55.6,68.6L55.6,68.6z"/>
		<path fill="#FBD839" d="M75.3,60.5c-3.7,3.7-3.7,9.7,0,13.3v0l0,0C78.9,70.2,78.9,64.2,75.3,60.5L75.3,60.5L75.3,60.5z"/>
		<path fill="#FBD839" d="M61.4,74.4c3.7-3.7,9.7-3.7,13.3,0v0l0,0C71.1,78.1,65.1,78.1,61.4,74.4L61.4,74.4L61.4,74.4z"/>
		<path fill="#FBD839" d="M84.8,84.9c-0.3,0-0.5-0.1-0.7-0.3l-8.2-8.2c-0.4-0.4-0.4-1,0-1.4c0.4-0.4,1-0.4,1.4,0l8.2,8.2
			c0.4,0.4,0.4,1,0,1.4C85.3,84.8,85,84.9,84.8,84.9z"/>
	</g>
</g>
</svg>
