<?xml version="1.0" encoding="utf-8"?>
<!-- Generator: Adobe Illustrator 18.1.1, SVG Export Plug-In . SVG Version: 6.00 Build 0)  -->
<svg version="1.1" id="Layer_1" xmlns="http://www.w3.org/2000/svg" xmlns:xlink="http://www.w3.org/1999/xlink" x="0px" y="0px"
	 viewBox="0 0 128 128" enable-background="new 0 0 128 128" xml:space="preserve">
<g>
	<circle fill="#FFC717" cx="64" cy="64" r="63.5"/>
	<g>
		<path fill="#915037" d="M29.6,41.6c-0.2,0-0.3,0-0.4,0v62.1h4.1V39.6C32.5,40.8,31.1,41.6,29.6,41.6z"/>
		<path fill="#915037" d="M100.1,41.6c-1.6,0-3-0.8-3.7-2.1v64.2h4.1V41.6C100.4,41.6,100.3,41.6,100.1,41.6z"/>
		<path fill="#168B7D" d="M104.5,103.7H25.2V75.2c0-1.7,1.4-3.1,3.1-3.1h73.2c1.7,0,3.1,1.4,3.1,3.1V103.7z"/>
		<rect x="25.2" y="24.3" fill="#915037" width="79.3" height="8.4"/>
		<path fill="#D62E2F" d="M29.6,41.6L29.6,41.6c-2.4,0-4.4-2-4.4-4.4v-4.5H34v4.5C34,39.6,32,41.6,29.6,41.6z"/>
		<path fill="#FFFFFF" d="M38.4,41.6L38.4,41.6c-2.4,0-4.4-2-4.4-4.4v-4.5h8.8v4.5C42.8,39.6,40.8,41.6,38.4,41.6z"/>
		<path fill="#D62E2F" d="M47.2,41.6L47.2,41.6c-2.4,0-4.4-2-4.4-4.4v-4.5h8.8v4.5C51.6,39.6,49.7,41.6,47.2,41.6z"/>
		<path fill="#FFFFFF" d="M56,41.6L56,41.6c-2.4,0-4.4-2-4.4-4.4v-4.5h8.8v4.5C60.4,39.6,58.5,41.6,56,41.6z"/>
		<path fill="#D62E2F" d="M64.9,41.6L64.9,41.6c-2.4,0-4.4-2-4.4-4.4v-4.5h8.8v4.5C69.3,39.6,67.3,41.6,64.9,41.6z"/>
		<path fill="#FFFFFF" d="M73.7,41.6L73.7,41.6c-2.4,0-4.4-2-4.4-4.4v-4.5h8.8v4.5C78.1,39.6,76.1,41.6,73.7,41.6z"/>
		<path fill="#D62E2F" d="M82.5,41.6L82.5,41.6c-2.4,0-4.4-2-4.4-4.4v-4.5h8.8v4.5C86.9,39.6,84.9,41.6,82.5,41.6z"/>
		<path fill="#FFFFFF" d="M91.3,41.6L91.3,41.6c-2.4,0-4.4-2-4.4-4.4v-4.5h8.8v4.5C95.7,39.6,93.7,41.6,91.3,41.6z"/>
		<path fill="#D62E2F" d="M100.1,41.6L100.1,41.6c-2.4,0-4.4-2-4.4-4.4v-4.5h8.8v4.5C104.5,39.6,102.6,41.6,100.1,41.6z"/>
		<path fill="#FCD83A" d="M65.7,76.1H64c-7.5,0-13.6,5.1-13.6,11.3v0h28.8v0C79.2,81.2,73.2,76.1,65.7,76.1z"/>
		<path fill="#FEEDEF" d="M79,93.1H50.6c-1.1,0-2-0.9-2-2l0,0c0-1.1,0.9-2,2-2H79c1.1,0,2,0.9,2,2l0,0C81,92.2,80.1,93.1,79,93.1z"
			/>
		<path fill="#FCD83A" d="M77.8,99.7H51.9c-0.8,0-1.4-0.6-1.4-1.4v-3.1h28.8v3.1C79.2,99.1,78.6,99.7,77.8,99.7z"/>
	</g>
</g>
</svg>
