<?xml version="1.0" encoding="utf-8"?>
<!-- Generator: Adobe Illustrator 18.1.1, SVG Export Plug-In . SVG Version: 6.00 Build 0)  -->
<svg version="1.1" id="Layer_1" xmlns="http://www.w3.org/2000/svg" xmlns:xlink="http://www.w3.org/1999/xlink" x="0px" y="0px"
	 viewBox="0 0 128 128" enable-background="new 0 0 128 128" xml:space="preserve">
<g>
	<circle fill="#41B655" cx="64" cy="64" r="63.5"/>
	<g>
		<ellipse fill="#F4B1A8" cx="44.2" cy="36.9" rx="19" ry="7.3"/>
		<ellipse fill="#F4B1A8" cx="85.6" cy="36.9" rx="19" ry="7.3"/>
		<ellipse fill="#E67375" cx="44.2" cy="36.9" rx="9.1" ry="2.9"/>
		<path fill="#D5D9DB" d="M44.2,44.2c-10.5,0-19-3.3-19-7.3V62c0,4.1,8.5,7.3,19,7.3s19-3.3,19-7.3V36.9
			C63.1,40.9,54.6,44.2,44.2,44.2z"/>
		<ellipse fill="#E67375" cx="85.6" cy="36.9" rx="9.1" ry="2.9"/>
		<path fill="#D5D9DB" d="M85.6,44.2c-10.5,0-19-3.3-19-7.3V62c0,4.1,8.5,7.3,19,7.3s19-3.3,19-7.3V36.9
			C104.5,40.9,96,44.2,85.6,44.2z"/>
		<ellipse fill="#F4B1A8" cx="62.3" cy="66" rx="19" ry="7.3"/>
		<path fill="#E3E6E8" d="M62.3,73.3c-10.5,0-19-3.3-19-7.3v25.2c0,4.1,8.5,7.3,19,7.3s19-3.3,19-7.3V66
			C81.3,70,72.8,73.3,62.3,73.3z"/>
		<ellipse fill="#E67375" cx="62.3" cy="66" rx="9.1" ry="2.9"/>
	</g>
</g>
</svg>
