<?xml version="1.0" encoding="utf-8"?>
<!-- Generator: Adobe Illustrator 18.1.1, SVG Export Plug-In . SVG Version: 6.00 Build 0)  -->
<svg version="1.1" id="Layer_1" xmlns="http://www.w3.org/2000/svg" xmlns:xlink="http://www.w3.org/1999/xlink" x="0px" y="0px"
	 viewBox="0 0 128 128" enable-background="new 0 0 128 128" xml:space="preserve">
<g>
	<circle fill="#EF4538" cx="64" cy="64" r="63.5"/>
	<g>
		<path fill="#FFFFFF" d="M67.7,41.2l0-13.9c0-1.4-1-2.7-2.3-2.9c-1.8-0.3-3.3,1.1-3.3,2.8v14.1c0,5.6-3.7,10.6-9.1,12.1
			c-13.2,3.7-22.7,13.2-22.7,24.4c0,14.4,15.5,26,34.6,26s34.6-11.6,34.6-26c0-11.2-9.4-20.8-22.7-24.4
			C71.4,51.8,67.7,46.8,67.7,41.2z"/>
		<path fill="#D5D9DB" d="M50.7,62c0.6-0.6,0.5-1.5-0.1-2.1c-0.6-0.6-1.5-0.5-2.1,0.1c-0.2,0.2-18,19.6-0.1,40.6
			c1.8,0.7,3.7,1.4,5.7,1.8c-0.1-0.2-0.2-0.3-0.3-0.4C32.7,81.7,50,62.8,50.7,62z"/>
		<path fill="#D5D9DB" d="M89.5,74.4c-0.1-0.8-0.9-1.4-1.7-1.3c-0.8,0.1-1.4,0.9-1.3,1.7c0,0.2,2.3,17.7-12.1,27.5
			c-0.2,0.1-0.4,0.3-0.5,0.5c2.4-0.5,4.7-1.2,6.9-2C91.4,89.9,89.6,75.1,89.5,74.4z"/>
		<path fill="#D5D9DB" d="M66.3,72.3c-0.1-0.8-0.9-1.4-1.7-1.3c-0.8,0.1-1.4,0.9-1.3,1.7c1,6.5,2.8,24.5,0.3,30.9c0.4,0,0.8,0,1.2,0
			c0.7,0,1.3,0,2,0C69.5,94.4,66.5,73.2,66.3,72.3z"/>
	</g>
</g>
</svg>
