<?xml version="1.0" encoding="utf-8"?>
<!-- Generator: Adobe Illustrator 18.1.1, SVG Export Plug-In . SVG Version: 6.00 Build 0)  -->
<svg version="1.1" id="Layer_1" xmlns="http://www.w3.org/2000/svg" xmlns:xlink="http://www.w3.org/1999/xlink" x="0px" y="0px"
	 viewBox="0 0 128 128" enable-background="new 0 0 128 128" xml:space="preserve">
<g>
	<circle fill="#FFC717" cx="64" cy="64" r="63.5"/>
	<g>
		<path fill="#D62E2F" d="M50.1,43.8v56.5c0,1.8,6.6,3.3,14.8,3.3s14.8-1.5,14.8-3.3V43.8"/>
		<path fill="#92513B" d="M73.1,41.1c3.9,0.7,6.5,1.9,6.5,3.2c0,2.1-6.6,3.8-14.8,3.8S50,46.3,50,44.2c0-1.3,2.6-2.5,6.5-3.2"/>
		<polygon fill="#753A29" points="73.1,36.2 56.5,36.2 64.8,24.3 		"/>
		<path fill="#753A29" d="M73.1,42.1v-5.9H56.5v6h0c0,0,0,0,0,0c0,0.9,3.7,1.6,8.3,1.6c4.6,0,8.3-0.7,8.3-1.6
			C73.1,42.2,73.1,42.1,73.1,42.1z"/>
		<ellipse fill="#E67374" cx="64.9" cy="74" rx="8" ry="15.4"/>
	</g>
</g>
</svg>
