<?xml version="1.0" encoding="utf-8"?>
<!-- Generator: Adobe Illustrator 18.1.1, SVG Export Plug-In . SVG Version: 6.00 Build 0)  -->
<svg version="1.1" id="Layer_1" xmlns="http://www.w3.org/2000/svg" xmlns:xlink="http://www.w3.org/1999/xlink" x="0px" y="0px"
	 viewBox="0 0 128 128" enable-background="new 0 0 128 128" xml:space="preserve">
<g>
	<circle fill="#EF4538" cx="64" cy="64" r="63.5"/>
	<g>
		<path fill="#FBD839" d="M92.4,54.5c-0.1,0-0.2,0-0.3,0c-2.8-10.3-14.7-18.1-28.9-18.1c-14.2,0-26.1,7.8-28.9,18.1
			c-0.1,0-0.2,0-0.3,0c-5.8,0-10.5,3-10.5,6.7c0,3.7,4.7,6.7,10.5,6.7c4.4,0,8.2-1.7,9.7-4.2c1.5,2.5,5.3,4.2,9.7,4.2
			s8.2-1.7,9.7-4.2c1.5,2.5,5.3,4.2,9.7,4.2c4.4,0,8.2-1.7,9.7-4.2c1.5,2.5,5.3,4.2,9.7,4.2c5.8,0,10.5-3,10.5-6.7
			C102.8,57.5,98.1,54.5,92.4,54.5z"/>
		<path fill="#FFFFFF" d="M92.4,67.9c-3.8,0-7.2-1.3-9-3.3h-1.4c-1.8,2-5.2,3.3-9,3.3c-3.8,0-7.2-1.3-9-3.3h-1.4
			c-1.8,2-5.2,3.3-9,3.3s-7.2-1.3-9-3.3H43c-1.8,2-5.2,3.3-9,3.3c-0.2,0-0.4,0-0.6,0l5.4,22.4c0.2,0.7,0.8,1.2,1.6,1.2H86
			c0.7,0,1.4-0.5,1.6-1.2l5.4-22.4C92.7,67.8,92.5,67.9,92.4,67.9z"/>
		<ellipse fill="#92513B" cx="63.1" cy="49.9" rx="2.9" ry="6.7"/>
		
			<ellipse transform="matrix(0.8464 0.5326 -0.5326 0.8464 34.9054 -18.3172)" fill="#92513B" cx="49.2" cy="51.4" rx="2.9" ry="6.7"/>
		
			<ellipse transform="matrix(-0.8464 0.5326 -0.5326 -0.8464 169.6755 53.7619)" fill="#92513B" cx="77.1" cy="51.4" rx="2.9" ry="6.7"/>
	</g>
</g>
</svg>
