<?xml version="1.0" encoding="utf-8"?>
<!-- Generator: Adobe Illustrator 18.1.1, SVG Export Plug-In . SVG Version: 6.00 Build 0)  -->
<svg version="1.1" id="Layer_1" xmlns="http://www.w3.org/2000/svg" xmlns:xlink="http://www.w3.org/1999/xlink" x="0px" y="0px"
	 viewBox="0 0 128 128" enable-background="new 0 0 128 128" xml:space="preserve">
<g>
	<circle fill="#FFC717" cx="64" cy="64" r="63.5"/>
	<g>
		<polygon fill="#915037" points="95.9,98.9 32.1,98.9 24.3,88.2 103.7,88.2 		"/>
		<path fill="#FAF4A6" d="M94.1,65.8c-0.8-1.1-0.7-2.7-1.5-3.8c-0.5-0.6-1.2-0.9-1.8-1.2c-1.2-0.5-2.7-0.8-3.8-0.2
			c-0.9,0.5-1.4,1.4-1.9,2.2c-0.9,1.3-2.1,2.5-3.5,3.4c-0.8,0.5-1.6,0.9-2.5,0.8c-1.5-0.3-2.2-2.1-2.5-3.6s-0.6-3.3-2-4
			c-1-0.5-2.3-0.2-3.2,0.4c-0.9,0.6-1.6,1.6-2.2,2.5c-1.7,2.5-3.2,5.2-4.7,7.9c-0.9,1.8-1.8,3.6-3.3,4.9s-3.9,1.8-5.5,0.6
			c-1.3-1-1.7-2.7-2-4.3c-0.4-2.2-0.8-4.3-1.2-6.5c-0.4-2.3-1.4-5-3.7-5.2c-1.4-0.1-2.6,0.9-3.4,2c-0.8,1.1-1.2,2.5-1.9,3.6
			c-0.4,0.7-1,1.3-1.7,1.6c-1.5,0.5-3-0.7-3.6-2.1s-0.7-3-1.2-4.4c-1-2.8-3.8-4.8-6.7-5.2v33.1h67.6v-21c-0.3-0.1-0.6-0.1-0.9-0.1
			C95.9,66.9,94.8,66.6,94.1,65.8z"/>
		<path fill="#D62E2F" d="M30.2,45.6v9.5c2.9,0.3,5.8,2.3,6.7,5.2c0.5,1.4,0.5,3,1.2,4.4c0.6,1.4,2.2,2.6,3.6,2.1
			c0.7-0.3,1.3-0.9,1.7-1.6c0.7-1.2,1.2-2.5,1.9-3.6c0.8-1.1,2-2.1,3.4-2c2.3,0.2,3.3,3,3.7,5.2s0.8,4.3,1.2,6.5
			c0.3,1.6,0.7,3.3,2,4.3c1.6,1.2,3.9,0.7,5.5-0.6c1.5-1.3,2.4-3.1,3.3-4.9c1.4-2.7,3-5.3,4.7-7.9c0.6-0.9,1.3-1.9,2.2-2.5
			c0.9-0.6,2.2-0.9,3.2-0.4c1.4,0.7,1.7,2.5,2,4s1,3.3,2.5,3.6c0.9,0.2,1.8-0.3,2.5-0.8c1.4-0.9,2.5-2,3.5-3.4
			c0.6-0.8,1.1-1.7,1.9-2.2c1.2-0.6,2.6-0.3,3.8,0.2c0.7,0.3,1.4,0.6,1.8,1.2c0.8,1.1,0.6,2.7,1.5,3.8c0.6,0.8,1.8,1.1,2.8,1.3
			c0.3,0.1,0.6,0.1,0.9,0.1V45.6H30.2z"/>
		<circle fill="#753A29" cx="57" cy="39" r="6.6"/>
		<g>
			<path fill="#915037" d="M56.9,37.2c-0.1,0-0.2,0-0.2,0c-0.8-0.1-1.4-0.9-1.2-1.7c0-0.2,1-6.1,5.8-7.8c0.8-0.3,1.6,0.1,1.9,0.9
				c0.3,0.8-0.1,1.6-0.9,1.9c-3.1,1.1-3.9,5.4-3.9,5.4C58.3,36.7,57.6,37.2,56.9,37.2z"/>
		</g>
	</g>
</g>
</svg>
