<?xml version="1.0" encoding="utf-8"?>
<!-- Generator: Adobe Illustrator 18.1.1, SVG Export Plug-In . SVG Version: 6.00 Build 0)  -->
<svg version="1.1" id="Layer_1" xmlns="http://www.w3.org/2000/svg" xmlns:xlink="http://www.w3.org/1999/xlink" x="0px" y="0px"
	 viewBox="0 0 128 128" enable-background="new 0 0 128 128" xml:space="preserve">
<g>
	<circle fill="#EF4538" cx="64" cy="64" r="63.5"/>
	<g>
		<path fill="#FACDD4" d="M75.1,103.7c4.6,0.1,9.4,0,13.8-1.4c4.4-1.4,8.6-4.2,10.8-8.3c3.2-6,1.7-13.3-0.3-19.7
			c-1.8-5.5-4-11.1-7.9-15.3c-3.1-3.3-7-5.6-11.1-7.5c-3.1-1.4-6.4-2.7-8.9-5.1c-3.4-3.2-4.7-8-7-12c-2.2-3.9-5.6-7.4-9.9-9
			c-5.5-2-11.7-0.8-17,1.7c-1.6,0.8-6.9,5.9-7.7,7.6c-3.9,8.1-4.2,17.7-2.3,26.5s5.8,17.1,10.1,25c1.9,3.5,13.7,13.8,17.5,14.8
			C61.6,102.8,68.4,103.5,75.1,103.7z"/>
		<path fill="#F4B1A8" d="M70.4,98.7c-0.1,0-0.1,0-0.2,0c-1.8-0.2-3.5-0.6-5.2-1.1c-0.8-0.2-1.2-1.1-1-1.9c0.2-0.8,1.1-1.2,1.9-1
			c1.5,0.5,3.1,0.8,4.7,1c0.8,0.1,1.4,0.8,1.3,1.7C71.8,98.2,71.1,98.7,70.4,98.7z"/>
		<path fill="#F4B1A8" d="M85.2,87.1c-0.5,0-0.9-0.2-1.2-0.6c-0.5-0.7-0.4-1.6,0.3-2.1l3.2-2.4c0.7-0.5,1.6-0.4,2.1,0.3
			c0.5,0.7,0.4,1.6-0.3,2.1l-3.2,2.4C85.8,87,85.5,87.1,85.2,87.1z"/>
		<path fill="#F4B1A8" d="M80.5,67.8c-0.8,0-1.5-0.7-1.5-1.5v-3.7c0-0.8,0.7-1.5,1.5-1.5s1.5,0.7,1.5,1.5v3.7
			C82,67.2,81.3,67.8,80.5,67.8z"/>
		<path fill="#F4B1A8" d="M33.6,43.9c-0.3,0-0.6-0.1-0.8-0.2c-0.7-0.5-0.9-1.4-0.4-2.1c1.4-2.2,4-3.4,6.6-3.2
			c0.8,0.1,1.4,0.8,1.3,1.6c-0.1,0.8-0.8,1.4-1.6,1.3c-1.5-0.1-3,0.6-3.8,1.8C34.6,43.6,34.1,43.9,33.6,43.9z"/>
		<path fill="#F4B1A8" d="M49.4,35.7c-0.7,0-1.3-0.4-1.4-1.1c-0.2-0.8,0.3-1.6,1.1-1.8c1.6-0.4,3.3-0.5,4.9-0.1
			c0.8,0.2,1.3,1,1.2,1.8c-0.2,0.8-1,1.3-1.8,1.2c-1.2-0.2-2.4-0.2-3.5,0.1C49.7,35.7,49.5,35.7,49.4,35.7z"/>
		<path fill="#F4B1A8" d="M37.9,65.9c-0.3,0-0.6-0.1-0.8-0.2c-0.7-0.5-0.9-1.4-0.4-2.1c0.5-0.8,1-1.7,1.4-2.6c0.3-0.7,1.2-1.1,2-0.7
			c0.7,0.3,1.1,1.2,0.7,2c-0.5,1-1,2.1-1.7,3C38.9,65.7,38.4,65.9,37.9,65.9z"/>
	</g>
</g>
</svg>
