<?xml version="1.0" encoding="utf-8"?>
<!-- Generator: Adobe Illustrator 18.1.1, SVG Export Plug-In . SVG Version: 6.00 Build 0)  -->
<svg version="1.1" id="Layer_1" xmlns="http://www.w3.org/2000/svg" xmlns:xlink="http://www.w3.org/1999/xlink" x="0px" y="0px"
	 viewBox="0 0 128 128" enable-background="new 0 0 128 128" xml:space="preserve">
<g>
	<circle fill="#41B655" cx="64" cy="64" r="63.5"/>
	<g>
		<path fill="#FFC717" d="M49.9,103.5c-0.2,0-0.4-0.1-0.6-0.2l-12.2-7.1c-0.4-0.2-0.6-0.6-0.6-1V81.1c0-0.4,0.2-0.8,0.6-1L49.4,73
			c0.4-0.2,0.8-0.2,1.2,0l12.2,7.1c0.4,0.2,0.6,0.6,0.6,1v14.1c0,0.4-0.2,0.8-0.6,1l-12.2,7.1C50.3,103.4,50.1,103.5,49.9,103.5z"/>
		<path fill="#FFC717" d="M37.7,82.3c-0.2,0-0.4-0.1-0.6-0.2l-12.2-7.1c-0.4-0.2-0.6-0.6-0.6-1l0-14.1c0-0.4,0.2-0.8,0.6-1l12.2-7.1
			c0.4-0.2,0.8-0.2,1.2,0l12.2,7.1c0.4,0.2,0.6,0.6,0.6,1v14.1c0,0.4-0.2,0.8-0.6,1l-12.2,7.1C38.1,82.2,37.9,82.3,37.7,82.3z"/>
		<polygon fill="#FAF4A6" points="50,101 61,94.6 61,81.8 49.9,75.4 38.9,81.8 38.9,94.6 		"/>
		<path fill="#FFC717" d="M62.2,82.3c-0.2,0-0.4-0.1-0.6-0.2l-12.2-7.1c-0.4-0.2-0.6-0.6-0.6-1V59.9c0-0.4,0.2-0.8,0.6-1l2.3-1.4
			c0.6-0.3,1.3-0.1,1.6,0.4c0.3,0.6,0.1,1.3-0.4,1.6l-1.8,1v12.8l11.1,6.4l4.8-2.7c0.6-0.3,1.3-0.1,1.6,0.4c0.3,0.6,0.1,1.3-0.4,1.6
			l-5.3,3.1C62.6,82.2,62.4,82.3,62.2,82.3z"/>
		
			<rect x="49.2" y="31.1" transform="matrix(0.7532 0.6578 -0.6578 0.7532 38.0551 -31.5593)" fill="#FFC717" width="23.8" height="7.7"/>
		<path fill="#915037" d="M64.8,48.8l10.5-12c0.6-0.7,1.6-1.1,2.6-1c5.4,0.8,22.7,4.6,25.8,22.5c0.2,0.9-0.1,1.8-0.7,2.4L92.3,72.9
			c-0.6,0.7-1.6,1.1-2.5,1c-5.1-0.6-21.3-4-25.7-22.4C63.9,50.5,64.2,49.5,64.8,48.8z"/>
		<path fill="#753A29" d="M85.2,37.6l-18.4,21c0.4,0.7,0.8,1.4,1.2,2.1l19.4-22.3C86.7,38.2,85.9,37.9,85.2,37.6z"/>
		<path fill="#753A29" d="M93.5,41.9L72.5,66.1c0.6,0.5,1.2,1,1.8,1.5l21.1-24.2C94.8,42.9,94.2,42.4,93.5,41.9z"/>
		<path fill="#753A29" d="M99.9,48.6L80.2,71.1c0.8,0.3,1.5,0.7,2.3,0.9l18.7-21.4C100.8,49.9,100.3,49.2,99.9,48.6z"/>
		<path fill="#FFC717" d="M95.9,100.9c7.8-4.8-0.1-13.2-0.7-14.2c-2.3-3.8-2.9-7.1-4.8-10.4c-1,2.9-2.6,5.5-4,8.2
			c-1.4,2.7-2.6,5.7-2.5,8.7c0.1,3.1,1.8,5.9,4.4,7.5C89.7,101.5,93.4,102.4,95.9,100.9z"/>
		<polygon fill="#FAF4A6" points="37.7,79.8 48.8,73.4 48.8,60.6 37.7,54.2 26.6,60.6 26.6,73.4 		"/>
	</g>
</g>
</svg>
