<?xml version="1.0" encoding="utf-8"?>
<!-- Generator: Adobe Illustrator 18.1.1, SVG Export Plug-In . SVG Version: 6.00 Build 0)  -->
<svg version="1.1" id="Layer_1" xmlns="http://www.w3.org/2000/svg" xmlns:xlink="http://www.w3.org/1999/xlink" x="0px" y="0px"
	 viewBox="0 0 128 128" enable-background="new 0 0 128 128" xml:space="preserve">
<g>
	<circle fill="#FFC717" cx="64" cy="64" r="63.5"/>
	<g>
		<path fill="#5D5E61" d="M33.2,93.5c-0.1,0.1-0.3,0.2-0.4,0.3l-7,7c-0.6,0.6-0.6,1.6,0,2.3c0.3,0.3,0.7,0.5,1.1,0.5
			s0.8-0.2,1.1-0.5l7-7c0.1-0.1,0.2-0.3,0.3-0.4l-1.2-1.2L33.2,93.5z"/>
		<path fill="#5D5E61" d="M40.2,86.4l-3,3l2.3,2.3l3-3c0.1-0.1,0.1-0.1,0.2-0.2l-2.2-2.2C40.4,86.2,40.3,86.3,40.2,86.4z"/>
		<polygon fill="#5D5E61" points="47.7,78.9 44.5,82.1 46.8,84.3 50,81.2 50,81.2 		"/>
		<polygon fill="#5D5E61" points="55,71.6 55,71.6 51.8,74.8 51.8,74.8 52.9,75.9 54.1,77.1 54.1,77.1 57.2,73.9 57.2,73.9 56.4,73 
					"/>
		<path fill="#5D5E61" d="M62.3,64.3c-0.1,0-0.1,0.1-0.2,0.1l-3,3l0,0l1.1,1.1l1.1,1.1l0,0l3-3c0,0,0.1-0.1,0.1-0.2l-1.3-1.3
			L62.3,64.3z"/>
		
			<rect x="67.5" y="57.5" transform="matrix(0.7071 0.7071 -0.7071 0.7071 62.4942 -31.3255)" fill="#5D5E61" width="3.2" height="4.5"/>
		<path fill="#5D5E61" d="M100.7,28.1c-5.1-5.1-13.4-5.1-18.5,0c-0.6,0.6-0.6,1.6,0,2.3c0.6,0.6,1.6,0.6,2.3,0
			c3.9-3.9,10.1-3.9,14,0s3.9,10.1,0,14s-10.1,3.9-14,0c-0.6-0.6-1.6-0.6-2.3,0L73.6,53l2.3,2.3l7.5-7.5c5.1,4,12.6,3.7,17.3-1.1
			C105.8,41.6,105.8,33.2,100.7,28.1z"/>
		
			<rect x="50.2" y="53.2" transform="matrix(-0.7071 -0.7071 0.7071 -0.7071 84.5287 147.262)" fill="#E67375" width="45.1" height="5.8"/>
		<polygon fill="#E67375" points="77.7,79.7 63.3,65.3 49.1,51.2 53.2,47.1 81.7,75.6 		"/>
		<polygon fill="#E67375" points="68.9,85.5 56.4,73 43.4,60 47.5,55.9 60.2,68.6 73,81.4 		"/>
		<polygon fill="#E67375" points="60.2,91.4 37.4,68.6 41.5,64.5 52.9,75.9 64.3,87.3 		"/>
		
			<rect x="29.2" y="82.4" transform="matrix(-0.7071 -0.7071 0.7071 -0.7071 14.0696 176.4048)" fill="#E67375" width="28.8" height="5.8"/>
		<polygon fill="#E67375" points="43.4,103.7 34.1,94.5 25.2,85.5 29.3,81.4 47.5,99.6 		"/>
	</g>
</g>
</svg>
