<?xml version="1.0" encoding="utf-8"?>
<!-- Generator: Adobe Illustrator 18.1.1, SVG Export Plug-In . SVG Version: 6.00 Build 0)  -->
<svg version="1.1" id="Layer_1" xmlns="http://www.w3.org/2000/svg" xmlns:xlink="http://www.w3.org/1999/xlink" x="0px" y="0px"
	 viewBox="0 0 128 128" enable-background="new 0 0 128 128" xml:space="preserve">
<g>
	<circle fill="#388CCB" cx="64" cy="64" r="63.5"/>
	<g>
		<path fill="#FFFFFF" d="M71.5,65c-2.3,2.1-5.7,2.9-8.7,2.2c-0.6-0.1-1.1-0.3-1.7-0.3c-1,0-1.9,0.5-2.8,0.9c-1.9,0.9-4,1.2-6.1,1.1
			c-0.7-0.1-1.5-0.2-1.8-0.8c-0.2-0.4-0.3-0.8-0.5-1.2c-0.5-0.9-1.7-1.1-2.7-1.1c-1.5,0-3,0.3-4.5,0.1c-1.5-0.1-3.1-0.7-3.8-2
			c-0.3-0.4-0.4-0.9-0.7-1.4c-0.8-1.2-2.4-1.5-3.4-2.5c-1.5-1.4-1.6-3.8-1.5-5.9c0-1.1,0.1-2.2,0.9-3c0.6-0.6,1.5-0.8,2-1.5
			c0.8-1,0.4-2.5,0.1-3.7c-0.8-4,0.7-8.4,3.7-11.1c0.4-0.4,0.9-0.8,1.5-1c0.5-0.1,1-0.2,1.5-0.3c3.1-0.6,4.4-4.8,7.5-5.8
			c1.9-0.6,3.9,0.2,5.9,0c2.2-0.2,4.1-1.7,6.2-2.7c2.1-0.9,4.9-1.1,6.2,0.7c0.3,0.3,0.5,0.8,0.8,1c0.3,0.2,0.7,0.2,1.1,0.1
			c2-0.2,4-0.9,6-1.1c1.9-0.3,3.8-0.2,5.6,0.2c1.4,0.3,3.1,1.3,3.1,2.7c0,0.2-0.1,0.5,0,0.7c0.1,0.3,0.5,0.4,0.9,0.5
			c1.5,0.3,3.1,0.4,4.7,0.4c1.8-0.1,3.9-0.2,5.1,1.1c1,1.2,0.9,3,0.3,4.5c-0.5,1.5-1.4,2.9-1.5,4.5c-0.2,2.6,1.6,5.2,1.4,7.8
			c-0.1,1.8-1.1,3.4-1.1,5.1c0,2,1.3,4.2,0.2,5.9c-1,1.5-3.5,1.6-4.3,3.2c-0.3,0.6-0.3,1.3-0.5,2c-0.6,2.1-2.9,3.3-5,3.2
			c-2.1-0.1-4.1-1.3-5.7-2.7"/>
		<path fill="#E3E6E8" d="M45,58.1c-0.1,0-0.2,0-0.3,0c-0.7-0.2-1.1-0.8-0.9-1.5c0.6-2.2,1.4-5.5,4.1-7.3c1.7-1.2,3.8-1.4,5.7-1.5
			c1.7-0.1,3.4-0.1,5.1,0.4c2.1,0.7,3.6,2.3,4,4.1c0.1,0.7-0.3,1.3-0.9,1.5c-0.7,0.2-1.3-0.3-1.5-0.9c-0.2-1-1.2-1.9-2.4-2.3
			c-1.3-0.4-2.7-0.4-4.2-0.3c-1.6,0.1-3.3,0.2-4.5,1c-1.7,1.1-2.4,3.4-3,5.9C46.1,57.7,45.6,58.1,45,58.1z"/>
		<path fill="#E3E6E8" d="M87.8,54.4c0,0-0.1,0-0.1,0c-0.7-0.1-1.2-0.7-1.1-1.3c0.1-1.7,0-3-0.5-4.2c-0.5-1.3-1.5-2.3-2.5-2.7
			c-0.9-0.3-2-0.3-3.1-0.2c-1.1,0.1-2.3,0.1-3.5-0.2c-0.5-0.1-0.9-0.6-0.9-1.2c0-1.5-0.4-3-1.1-4.4c-0.1-0.3-0.3-0.6-0.6-0.7
			c-0.2-0.1-0.6-0.1-0.8-0.2c-2-0.2-4.3-0.3-6.3,0.4c-1.6,0.5-3.4,1.7-4,3.6c-0.2,0.7-0.9,1-1.5,0.8c-0.7-0.2-1-0.9-0.8-1.5
			c0.7-2.4,2.8-4.4,5.6-5.3c2.4-0.8,5-0.6,7.2-0.5c0.5,0,1.2,0.1,1.8,0.4c0.8,0.4,1.2,1.1,1.6,1.7c0.7,1.4,1.2,2.9,1.3,4.5
			c0.6,0,1.3,0,1.9,0c1.3-0.1,2.7-0.1,4.1,0.4c1.8,0.6,3.2,2.1,4,4.1c0.6,1.5,0.8,3.3,0.6,5.3C89,53.9,88.4,54.4,87.8,54.4z"/>
		<path fill="#FCD83A" d="M80.9,66c-0.5-0.3-1-0.7-1.4-1.1l-6.2,0c0.3,0,0.6,0.1,0.8,0.3c-1,2.5-3.1,4.5-4.3,7c-0.7,1.4-1,3-1.4,4.6
			c-0.8-2.7-1.2-5.4-1.2-8.2c0-0.2,0-0.4-0.1-0.6c0-0.1-0.1-0.1-0.2-0.1l-0.3,0.1c0-0.1,0.2-0.1,0.3-0.1l5.5-2.7
			C72.7,65,73,65,73.2,65l-1.8,0c-2.3,2.1-5.7,2.9-8.7,2.2c-0.6-0.1-1.1-0.3-1.7-0.3c-1,0-1.9,0.5-2.8,0.9c-1.9,0.9-4,1.2-6.1,1.1
			c-0.6-0.1-1.3-0.2-1.7-0.7v0.2c2.6,11.6,4.2,23.4,4.9,35.2c4.4,0.1,8.9,0.1,13.3-0.1c0.4-10,2.3-20,5.6-29.4
			c1.2-3.4,3.1-7.2,6.7-7.8L80.9,66z M59.8,77.7c-1.6-2.8-2.7-5.8-3.1-9l5.8-1.3C61.1,70.6,60.2,74.1,59.8,77.7z"/>
	</g>
</g>
</svg>
