<?xml version="1.0" encoding="utf-8"?>
<!-- Generator: Adobe Illustrator 18.1.1, SVG Export Plug-In . SVG Version: 6.00 Build 0)  -->
<svg version="1.1" id="Layer_1" xmlns="http://www.w3.org/2000/svg" xmlns:xlink="http://www.w3.org/1999/xlink" x="0px" y="0px"
	 viewBox="0 0 128 128" enable-background="new 0 0 128 128" xml:space="preserve">
<g>
	<circle fill="#41B655" cx="64" cy="64" r="63.5"/>
	<g>
		<path fill="#FFC717" d="M70.9,55.6c1.7-1.4,4.1-1.4,6.3-1.3c2.5,0.1,5.2,0.3,7.2,1.8c2.2,1.6,3.1,4.4,3.7,7
			c0.4,1.7,0.7,3.4,0.9,5.2c0.5,6.1-1.2,12.2-3.4,17.9c-0.3,0.9-0.7,1.8-1.3,2.5c-0.6,0.7-1.6,1.2-2.5,0.9c-1-0.2-1.7-1.2-1.9-2.2
			c-0.2-1,0.1-2,0.3-3c1.1-4.1,2.7-8.2,2.1-12.4c-0.2-1.4-0.7-2.8-1.2-4.2c-0.5-1.4-1-2.8-1.9-3.9c-1.1-1.4-2.7-2.2-4.3-3.1
			c-0.9-0.5-1.8-0.6-2.8-0.3c-0.9,6.7,0.1,13.6,0.7,20.3c0.7,6.8,1,13.8-1.2,20.2c-0.2,0.6-0.4,1.1-0.8,1.6
			c-0.9,1.2-2.7,1.4-4.2,1.1c-2-0.5-3.7-1.8-4.9-3.5c-1.2-1.7-1.9-3.6-2.6-5.5c-1.7-5.5-2.5-11.3-2.2-17.1l0.2-13.5"/>
		<path fill="#FFC717" d="M72.3,60.4c0.1-0.2-0.2-0.4-0.4-0.5c-0.2,0-0.5,0.1-0.7,0.2c-1,0.6-2,1.4-3,2.1c0-0.9-0.3-1.9-1-2.4
			c-0.7-0.6-1.9-0.6-2.5,0c-0.3,0.3-0.5,0.8-0.7,1.2c-1.8,4.7-2,10.1-0.5,14.9C64.1,78,65,80,66,82c0.6,1.2,1.2,2.9,0.2,3.8
			c-1.4,0.3-2.8-0.4-3.9-1.2c-3.7-2.9-5.3-7.6-6.7-12c-0.4-1.3-0.8-2.5-1-3.8c-0.5-3.1-0.1-6.3,0.8-9.3c0.1-0.2,0.1-0.5-0.1-0.7
			c-0.1-0.1-0.1-0.1-0.2-0.1c-3.2-0.8-6.8,0.5-9,3c-2.7,3.3-2.8,8.1-1.9,12.3c0.8,4.2,2.4,8.3,2.3,12.6c0,0.8-0.1,1.7-0.6,2.3
			c-2.1-2.9-3.4-6.2-4.6-9.5c-1.4-4-2.5-8.1-2.4-12.3c0.1-4.2,1.4-8.5,4.4-11.4c0.8-0.8,1.8-1.5,2.9-2c3.7-1.6,8.1,0,11.4,2.3
			c-0.7-2.3-0.4-4.5-0.2-6.9c0.3-3.7,0.5-7.5,1.3-11.2c0.7-3.3,1.9-6.4,3.1-9.5c0.5-1.2,1-2.4,1.9-3.2c0.7-0.6,1.7-0.9,2.7-0.9
			c2-0.1,4,1,5.1,2.7c0.8,1.3,1.1,2.8,1.3,4.3c0.2,1.9,0.4,3.8,0.1,5.6c-0.2,1.1-0.5,2.1-0.8,3.2c-1.4,5-1.6,10.1-1.5,15.3"/>
		<path fill="#FAF4A6" d="M67.7,60.4c-0.1-0.2-0.3-0.4-0.5-0.6c-0.4-0.3-0.9-0.4-1.3-0.4h0l-3.7-1.3l-3.8-2.3l-1-1.2
			c-0.3-1.8,0-3.6,0.1-5.5c0.3-3.7,0.5-7.5,1.3-11.2c0.7-3.3,1.9-6.4,3.1-9.5c0.5-1.2,1-2.4,1.9-3.2c0.7-0.6,1.7-0.9,2.7-0.9
			c2-0.1,4,1,5.1,2.7c0.8,1.3,1.1,2.8,1.3,4.3c0.2,1.9,0.4,3.8,0.1,5.6c-0.2,1.1-0.5,2.1-0.8,3.2c-1.4,5-1.6,10.1-1.5,15.3l0.1,0.4
			L67.7,60.4L67.7,60.4z"/>
	</g>
</g>
</svg>
