<?xml version="1.0" encoding="utf-8"?>
<!-- Generator: Adobe Illustrator 18.1.1, SVG Export Plug-In . SVG Version: 6.00 Build 0)  -->
<svg version="1.1" id="Layer_1" xmlns="http://www.w3.org/2000/svg" xmlns:xlink="http://www.w3.org/1999/xlink" x="0px" y="0px"
	 viewBox="0 0 128 128" enable-background="new 0 0 128 128" xml:space="preserve">
<g>
	<circle fill="#EF4538" cx="64" cy="64" r="63.5"/>
	<g>
		<path fill="#22A79C" d="M24.3,24.3c0,0,96.9,12.9,76.6,69.6c-1.1,3.2-3.8,5.8-7,7C37.2,121.3,24.3,24.3,24.3,24.3z"/>
		<path fill="#168B7D" d="M84.8,86.9c-2.9,0.7-5.8,1-8.7,1c-7.1,0-13.9-2.1-19.3-6c-0.7-0.5-0.8-1.4-0.3-2.1
			c0.5-0.7,1.4-0.8,2.1-0.3c6.4,4.7,15.1,6.4,23.7,4.9L68.6,70.7c-3.2,0.8-6.4,1.2-9.6,1.2c-7.1,0-13.9-2.1-19.3-6
			c-0.7-0.5-0.8-1.4-0.3-2.1c0.5-0.7,1.4-0.8,2.1-0.3c6.6,4.9,15.7,6.6,24.6,4.7L53.9,56c-1.7,0.4-3.3,0.6-5,0.6
			c-4.4,0-8.6-1.3-11.9-3.7c-0.7-0.5-0.8-1.4-0.3-2.1c0.5-0.7,1.4-0.8,2.1-0.3c3.4,2.5,8,3.5,12.6,3l-9.6-9.6
			c-1,0.2-2.1,0.3-3.1,0.3c-3,0-5.9-0.9-8.2-2.6c-0.7-0.5-0.8-1.4-0.3-2.1c0.5-0.7,1.4-0.8,2.1-0.3c1.9,1.4,4.3,2.1,6.9,2l-6.4-6.4
			c-0.6-0.6-0.6-1.5,0-2.1s1.5-0.6,2.1,0l8.2,8.2c0.3,0.1,0.6,0.4,0.7,0.7l4.3,4.3c0.1-2.7-0.6-5.4-2.1-7.4
			c-0.5-0.7-0.4-1.6,0.3-2.1c0.7-0.5,1.6-0.4,2.1,0.3c2.4,3.2,3.2,7.6,2.4,11.8l4.6,4.6c0.3,0.1,0.6,0.4,0.7,0.7l4.8,4.8
			c0.6-4.8-0.5-9.6-3.2-13.3c-0.5-0.7-0.4-1.6,0.3-2.1c0.7-0.5,1.6-0.4,2.1,0.3c3.5,4.8,4.8,11.3,3.4,17.6l12.7,12.7
			c1.9-9.1,0-18.6-5.1-25.5c-0.5-0.7-0.4-1.6,0.3-2.1c0.7-0.5,1.6-0.4,2.1,0.3c5.9,8,7.9,19,5.3,29.4c0,0.1-0.1,0.2-0.1,0.2l7.8,7.8
			c0.3,0.1,0.6,0.4,0.7,0.7l5.8,5.8c1.6-8.8-0.3-17.9-5.3-24.5c-0.5-0.7-0.4-1.6,0.3-2.1c0.7-0.5,1.6-0.4,2.1,0.3
			c5.8,7.8,7.8,18.6,5.4,28.8l4,4c0,0,0,0.1,0.1,0.1c-0.6,0.8-1.3,1.5-2.1,2.1c0,0-0.1,0-0.1-0.1L84.8,86.9z"/>
	</g>
</g>
</svg>
