<?xml version="1.0" encoding="utf-8"?>
<!-- Generator: Adobe Illustrator 18.1.1, SVG Export Plug-In . SVG Version: 6.00 Build 0)  -->
<svg version="1.1" id="Layer_1" xmlns="http://www.w3.org/2000/svg" xmlns:xlink="http://www.w3.org/1999/xlink" x="0px" y="0px"
	 viewBox="0 0 128 128" enable-background="new 0 0 128 128" xml:space="preserve">
<g>
	<circle fill="#41B655" cx="64" cy="64" r="63.5"/>
	<g>
		<rect x="37.5" y="24.3" fill="#915037" width="26.5" height="26.5"/>
		<path fill="#753A29" d="M51.8,45.8h-7.8c-0.8,0-1.5-0.7-1.5-1.5V30.8c0-0.8,0.7-1.5,1.5-1.5h13.4c0.8,0,1.5,0.7,1.5,1.5v7.3
			c0,0.8-0.7,1.5-1.5,1.5S56,39,56,38.2v-5.9H45.5v10.5h6.3c0.8,0,1.5,0.7,1.5,1.5S52.7,45.8,51.8,45.8z"/>
		<rect x="37.5" y="50.8" fill="#915037" width="26.5" height="26.5"/>
		<path fill="#753A29" d="M51.8,72.2h-7.8c-0.8,0-1.5-0.7-1.5-1.5V57.3c0-0.8,0.7-1.5,1.5-1.5h13.4c0.8,0,1.5,0.7,1.5,1.5v7.3
			c0,0.8-0.7,1.5-1.5,1.5S56,65.4,56,64.6v-5.9H45.5v10.5h6.3c0.8,0,1.5,0.7,1.5,1.5S52.7,72.2,51.8,72.2z"/>
		<rect x="64" y="50.8" fill="#915037" width="26.5" height="26.5"/>
		<path fill="#753A29" d="M78.3,72.2h-7.8c-0.8,0-1.5-0.7-1.5-1.5V57.3c0-0.8,0.7-1.5,1.5-1.5h13.4c0.8,0,1.5,0.7,1.5,1.5v7.3
			c0,0.8-0.7,1.5-1.5,1.5s-1.5-0.7-1.5-1.5v-5.9H72v10.5h6.3c0.8,0,1.5,0.7,1.5,1.5S79.1,72.2,78.3,72.2z"/>
		<rect x="37.5" y="77.2" fill="#915037" width="26.5" height="26.5"/>
		<path fill="#753A29" d="M51.8,98.7h-7.8c-0.8,0-1.5-0.7-1.5-1.5V83.7c0-0.8,0.7-1.5,1.5-1.5h13.4c0.8,0,1.5,0.7,1.5,1.5v7.3
			c0,0.8-0.7,1.5-1.5,1.5S56,91.9,56,91.1v-5.9H45.5v10.5h6.3c0.8,0,1.5,0.7,1.5,1.5S52.7,98.7,51.8,98.7z"/>
		<rect x="64" y="77.2" fill="#915037" width="26.5" height="26.5"/>
		<path fill="#753A29" d="M78.3,98.7h-7.8c-0.8,0-1.5-0.7-1.5-1.5V83.7c0-0.8,0.7-1.5,1.5-1.5h13.4c0.8,0,1.5,0.7,1.5,1.5v7.3
			c0,0.8-0.7,1.5-1.5,1.5s-1.5-0.7-1.5-1.5v-5.9H72v10.5h6.3c0.8,0,1.5,0.7,1.5,1.5S79.1,98.7,78.3,98.7z"/>
		<path fill="#915037" d="M86.6,43.2c-1.2-0.8-1.7-2.2-2.3-3.5c-0.1,0-0.2,0-0.3,0c-0.8,0-1.5-0.7-1.5-1.5v-0.8
			c-1.1-0.8-2.6-1.4-3-2.7c-0.2-0.7,0-1.6,0-2.3H72v10.5h6.3c0.8,0,1.5,0.7,1.5,1.5s-0.7,1.5-1.5,1.5h-7.8c-0.8,0-1.5-0.7-1.5-1.5
			V30.8c0-0.8,0.7-1.5,1.5-1.5h7.1c-0.1,0-0.1-0.1-0.2-0.1c-1.6-1.1-2.4-3-2.4-4.9H64v26.5h26.5v-5.6c-0.6-0.4-1.3-0.8-2-1.2
			C87.9,43.8,87.2,43.6,86.6,43.2z"/>
		<path fill="#753A29" d="M69,30.8v13.4c0,0.8,0.7,1.5,1.5,1.5h7.8c0.8,0,1.5-0.7,1.5-1.5s-0.7-1.5-1.5-1.5H72V32.3h7.5
			c0-0.6,0-1.1-0.2-1.6c-0.3-0.6-1-1-1.6-1.4h-7.1C69.7,29.3,69,30,69,30.8z"/>
	</g>
</g>
</svg>
