<?xml version="1.0" encoding="utf-8"?>
<!-- Generator: Adobe Illustrator 18.1.1, SVG Export Plug-In . SVG Version: 6.00 Build 0)  -->
<svg version="1.1" id="Layer_1" xmlns="http://www.w3.org/2000/svg" xmlns:xlink="http://www.w3.org/1999/xlink" x="0px" y="0px"
	 viewBox="0 0 128 128" enable-background="new 0 0 128 128" xml:space="preserve">
<g>
	<circle fill="#388CCB" cx="64" cy="64" r="63.5"/>
	<g>
		<path fill="#FCD83A" d="M86.9,53l15.1-6c2.9-1.9,3.2-5.9,0.9-8.2c-1.4-1.4-3.3-1.8-5.1-1.4c0.5-1.8,0-3.7-1.4-5.1
			c-1.4-1.4-3.3-1.8-5.1-1.4c0.5-2.1-0.2-4.4-2.2-5.8c-1.7-1.1-4-1.2-5.8,0l-9.7,16.4"/>
		<path fill="#FCD83A" d="M42.8,75l-15.1,6c-2.9,1.9-3.2,5.9-0.9,8.2c1.4,1.4,3.3,1.8,5.1,1.4c-0.5,1.8,0,3.7,1.4,5.1
			c1.4,1.4,3.3,1.8,5.1,1.4c-0.5,2.1,0.2,4.4,2.2,5.8c1.7,1.1,4,1.2,5.8,0L56,86.5"/>
		<g>
			<path fill="#FFC717" d="M82.8,46.6c-0.4,0-0.8-0.1-1.1-0.4c-0.6-0.6-0.6-1.5,0-2.1l5.9-5.9c0.6-0.6,1.5-0.6,2.1,0s0.6,1.5,0,2.1
				l-5.9,5.9C83.6,46.4,83.2,46.6,82.8,46.6z"/>
		</g>
		<g>
			<path fill="#FFC717" d="M82.1,45.8c-0.1,0-0.2,0-0.3,0c-0.8-0.2-1.3-1-1.1-1.8l1.9-8c0.2-0.8,1-1.3,1.8-1.1
				c0.8,0.2,1.3,1,1.1,1.8l-1.9,8C83.4,45.4,82.8,45.8,82.1,45.8z"/>
		</g>
		<g>
			<path fill="#FFC717" d="M83.6,47.3c-0.7,0-1.3-0.5-1.4-1.1c-0.2-0.8,0.3-1.6,1.1-1.8l8-1.9c0.8-0.2,1.6,0.3,1.8,1.1
				c0.2,0.8-0.3,1.6-1.1,1.8l-8,1.9C83.8,47.3,83.7,47.3,83.6,47.3z"/>
		</g>
		<g>
			<path fill="#FFC717" d="M40.4,89c-0.4,0-0.8-0.1-1.1-0.4c-0.6-0.6-0.6-1.5,0-2.1l5.9-5.9c0.6-0.6,1.5-0.6,2.1,0s0.6,1.5,0,2.1
				l-5.9,5.9C41.2,88.8,40.8,89,40.4,89z"/>
		</g>
		<g>
			<path fill="#FFC717" d="M37.6,84.2c-0.7,0-1.3-0.5-1.4-1.1c-0.2-0.8,0.3-1.6,1.1-1.8l8-1.9c0.8-0.2,1.6,0.3,1.8,1.1
				c0.2,0.8-0.3,1.6-1.1,1.8l-8,1.9C37.8,84.2,37.7,84.2,37.6,84.2z"/>
		</g>
		<g>
			<path fill="#FFC717" d="M45.2,91.8c-0.1,0-0.2,0-0.3,0c-0.8-0.2-1.3-1-1.1-1.8l1.9-8c0.2-0.8,1-1.3,1.8-1.1
				c0.8,0.2,1.3,1,1.1,1.8l-1.9,8C46.5,91.4,45.9,91.8,45.2,91.8z"/>
		</g>
		
			<ellipse transform="matrix(0.7071 -0.7071 0.7071 0.7071 -26.1959 64.6307)" fill="#FAA51D" cx="64.9" cy="63.9" rx="25.7" ry="18.6"/>
	</g>
</g>
</svg>
