<?xml version="1.0" encoding="utf-8"?>
<!-- Generator: Adobe Illustrator 18.1.1, SVG Export Plug-In . SVG Version: 6.00 Build 0)  -->
<svg version="1.1" id="Layer_1" xmlns="http://www.w3.org/2000/svg" xmlns:xlink="http://www.w3.org/1999/xlink" x="0px" y="0px"
	 viewBox="0 0 128 128" enable-background="new 0 0 128 128" xml:space="preserve">
<g>
	<circle fill="#41B655" cx="64" cy="64" r="63.5"/>
	<g>
		<path fill="#FACDD4" d="M82.1,41.6c0-9.5-7.7-17.2-17.2-17.2c-9.5,0-17.2,7.7-17.2,17.2v40.7h25.1v8c0,1.1,0.9,1.9,1.9,1.9
			c1.1,0,1.9-0.9,1.9-1.9v-8h5.6V41.6z"/>
		<path fill="#F4B1A8" d="M56.9,72.3h-1c-0.8,0-1.4-0.6-1.4-1.4V42.9c0-0.8,0.6-1.4,1.4-1.4h1c0.8,0,1.4,0.6,1.4,1.4v27.9
			C58.3,71.6,57.7,72.3,56.9,72.3z"/>
		<path fill="#F4B1A8" d="M73.8,72.3h-1c-0.8,0-1.4-0.6-1.4-1.4V42.9c0-0.8,0.6-1.4,1.4-1.4h1c0.8,0,1.4,0.6,1.4,1.4v27.9
			C75.2,71.6,74.6,72.3,73.8,72.3z"/>
		<path fill="#FCD83A" d="M64.9,103.7L64.9,103.7c-2.8,0-5-2.2-5-5V82.2h10v16.5C69.9,101.4,67.6,103.7,64.9,103.7z"/>
	</g>
</g>
</svg>
