<?xml version="1.0" encoding="utf-8"?>
<!-- Generator: Adobe Illustrator 18.1.1, SVG Export Plug-In . SVG Version: 6.00 Build 0)  -->
<svg version="1.1" id="Layer_1" xmlns="http://www.w3.org/2000/svg" xmlns:xlink="http://www.w3.org/1999/xlink" x="0px" y="0px"
	 viewBox="0 0 90 90" enable-background="new 0 0 90 90" xml:space="preserve">
<g>
	<circle fill="#EF4538" cx="45" cy="45" r="44.6"/>
	<g>
		<path fill="#FFC717" d="M36.4,27.1c0,0-0.1,0.3-0.5,0.8c-0.1,0.1-0.1,0.3-0.3,0.4c-0.1,0.1-0.2,0.4-0.2,0.4c0,0.3-0.1,0.6-0.1,0.8
			c-0.1,0.4-0.2,0.8-0.3,1.2c-0.1,0.5-0.1,1-0.3,1.5c-0.1,1.1-0.3,2.3-0.2,3.7c0,1.3,0.1,2.9,0.4,4.4s0.6,3.2,1.1,4.7
			c0.4,1.5,1.1,3,1.8,4.4c0.8,1.3,1.5,2.5,2.4,3.4c0.8,0.9,1.8,1.5,2.9,2.1c1.1,0.6,2.3,0.9,3.7,1.3c1.5,0.2,3,0.4,4.6,0.3
			c1.6,0,3.2-0.2,4.9-0.4c1.5-0.3,3.1-0.4,4.4-0.7c1.3-0.3,2.6-0.4,3.6-0.7c2-0.4,3.2-0.6,3.2-0.6l0.3-0.1c2.1-0.3,4,1.2,4.3,3.2
			c0.1,1.1-0.2,2.2-0.9,3c0,0-0.8,1-2.5,2.6c-0.8,0.8-1.9,1.7-3.2,2.7c-1.3,1.1-2.9,2-4.7,3.1c-1.9,1-3.9,2-6.4,2.7
			c-2.4,0.8-5.2,1.3-8.3,1.4c-0.8,0-1.5,0-2.4-0.1c-0.8-0.1-1.6-0.1-2.5-0.3c-0.8-0.1-1.7-0.3-2.5-0.5c-0.8-0.3-1.7-0.6-2.5-0.8
			c-3.3-1.3-6.4-3.3-8.9-5.8c-2.5-2.5-4.4-5.5-5.6-8.4c-1.3-3-2-6-2.3-8.9s-0.3-5.6,0.1-8.2s1.1-5,1.9-7.1c0.8-2.1,2-4,3.1-5.6
			c0.6-0.8,1.2-1.5,1.8-2c0.6-0.6,1.2-1.1,1.8-1.6c0.6-0.5,1.3-0.9,1.8-1.3c0.3-0.2,0.4-0.2,0.6-0.3c0.1-0.1,0.4-0.1,0.5-0.2
			c0.6-0.2,0.8-0.3,0.8-0.3c2-0.7,4.2,0.4,4.9,2.3C37.1,24.9,36.9,26.1,36.4,27.1L36.4,27.1z"/>
		<path fill="#FCD83A" d="M35,21.8c0.7,0.4,1.3,0.9,1.6,1.8c0.1,0.1,0.1,0.3,0.1,0.4c0.1,0.3,0.1,0.6,0.1,0.9l4.4-4.4L38,17.2
			l-4.2,4.2C34.2,21.4,34.7,21.6,35,21.8z"/>
		<path fill="#FCB01B" d="M47.4,65.7c-5.6,0-10.4-1.8-14.1-5.5c-7.5-7.3-8.4-19.3-6.1-27.2c0.1-0.5,0.6-0.8,1.1-0.8
			c0.1,0,0.2,0,0.3,0.1c0.6,0.1,0.9,0.8,0.8,1.4c-2.3,7.6-1.1,18.6,5.5,25c3.3,3.2,7.5,4.9,12.6,4.9c3,0,6.2-0.6,9.6-1.7
			c0.1-0.1,0.2-0.1,0.4-0.1c0.5,0,0.9,0.3,1.1,0.8c0.1,0.3,0.1,0.6-0.1,0.8c-0.1,0.3-0.4,0.5-0.6,0.6C54,65.1,50.6,65.7,47.4,65.7
			L47.4,65.7z"/>
	</g>
</g>
</svg>
