<?xml version="1.0" encoding="utf-8"?>
<!-- Generator: Adobe Illustrator 18.1.1, SVG Export Plug-In . SVG Version: 6.00 Build 0)  -->
<svg version="1.1" id="Layer_1" xmlns="http://www.w3.org/2000/svg" xmlns:xlink="http://www.w3.org/1999/xlink" x="0px" y="0px"
	 viewBox="0 0 128 128" enable-background="new 0 0 128 128" xml:space="preserve">
<g>
	<circle fill="#FFC717" cx="64" cy="64" r="63.5"/>
	<g>
		<path fill="#E3E6E8" d="M104.5,62.6c-0.6,0.6-1.1,1.4-1.5,2.1c-1.1,1.7-2.2,3.5-3.3,5.2c-1,1.6-2.3,3.3-4.1,3.4
			c-1.1,0.1-2.2-0.5-3.2-1.1c-3.5-2.3-6.5-5.5-10.6-6.3c-1.3-0.2-2.7-0.2-3.8,0.5c-0.4,2.4-1.5,4.5-2.9,6.3c-0.7,4.6,0.1,9.6-1,14.1
			c-0.6,2.4-2,4.8-4.4,5.5c-2.9,0.8-5.9-1.7-7-4.6c-1-2.9-0.7-6-0.6-9.1c0-0.5,0-1,0-1.5c-2-0.4-3.8-1.3-5.3-2.5
			c-1.3,1.5-2.7,2.9-4.3,4c-0.6,0.5-1.3,0.9-2.1,1c-1.2,0.2-2.5-0.3-3.5-0.9c-3.2-2-5.6-5.1-7.3-8.4c-1-1.9-1.8-3.8-3.1-5.4
			c-1.3-1.6-3.3-2.9-5.4-2.8c-1.6,0.1-3,1-4.2,2c-0.6,0.4-1.1,0.9-1.6,1.4c0.8,21.2,18.2,38.2,39.7,38.2c21.9,0,39.7-17.8,39.7-39.7
			C104.5,63.5,104.5,63.1,104.5,62.6z"/>
		<path fill="#92513B" d="M64.9,77.4c-1,0-1.9-0.1-2.8-0.3c0,0.5,0,1,0,1.5c-0.1,3.1-0.4,6.2,0.6,9.1c1,2.9,4,5.4,7,4.6
			c2.4-0.6,3.8-3.1,4.4-5.5c1.2-4.6,0.3-9.5,1-14.1C72.6,75.5,69,77.4,64.9,77.4z"/>
		<path fill="#92513B" d="M64.9,24.3c-21.9,0-39.7,17.8-39.7,39.7c0,0.5,0,1,0,1.5c0.5-0.5,1-1,1.6-1.4c1.2-1,2.7-1.9,4.2-2
			c2.1-0.1,4,1.1,5.4,2.8c1.3,1.6,2.1,3.6,3.1,5.4c1.7,3.3,4.1,6.5,7.3,8.4c1.1,0.6,2.3,1.2,3.5,0.9c0.8-0.1,1.4-0.6,2.1-1
			c1.6-1.1,3.1-2.5,4.3-4c-3.2-2.4-5.2-6.3-5.2-10.6c0-7.4,6-13.4,13.4-13.4c7.4,0,13.4,6,13.4,13.4c0,0.8-0.1,1.6-0.2,2.4
			c1.1-0.6,2.5-0.7,3.8-0.5c4.1,0.8,7.1,4,10.6,6.3c1,0.6,2,1.2,3.2,1.1c1.8-0.1,3.1-1.9,4.1-3.4c1.1-1.7,2.2-3.5,3.3-5.2
			c0.4-0.7,1-1.4,1.5-2.1C103.8,41.3,86.3,24.3,64.9,24.3z"/>
		<path fill="#FAF4A6" d="M36.4,55.2c-0.7,0-1.3-0.5-1.4-1.1c-0.2-1-0.1-2.1,0.4-2.9c0.4-0.7,1.3-1,2-0.6c0.7,0.4,1,1.3,0.6,2
			c-0.1,0.2-0.2,0.6-0.1,0.8c0.2,0.8-0.3,1.6-1.1,1.8C36.7,55.2,36.5,55.2,36.4,55.2z"/>
		<path fill="#FAF4A6" d="M50.2,41.8c-0.1,0-0.3,0-0.4-0.1c-0.8-0.2-1.2-1-1-1.8l0.6-2c0.2-0.8,1.1-1.2,1.8-1c0.8,0.2,1.2,1,1,1.8
			l-0.6,2C51.5,41.4,50.9,41.8,50.2,41.8z"/>
		<path fill="#FAF4A6" d="M62.7,36.8C62.7,36.8,62.7,36.8,62.7,36.8c-0.6,0-1-0.3-1.3-0.7c-0.4-0.2-0.8-0.5-0.9-1
			c-0.2-0.8,0.2-1.6,1-1.8c0.6-0.2,1.3,0,1.9,0.4c0.5,0.4,0.8,1.1,0.8,1.7C64.2,36.2,63.5,36.8,62.7,36.8z"/>
		<path fill="#FAF4A6" d="M59,46.4c-0.3,0-0.7-0.1-0.9-0.3l-0.8-0.6c-0.6-0.5-0.7-1.5-0.2-2.1c0.5-0.6,1.5-0.7,2.1-0.2l0.8,0.6
			c0.6,0.5,0.7,1.5,0.2,2.1C59.9,46.2,59.4,46.4,59,46.4z"/>
		<path fill="#FAF4A6" d="M40.8,44.4c-0.5,0-1-0.3-1.3-0.8l-0.9-1.6c-0.4-0.7-0.1-1.6,0.6-2c0.7-0.4,1.6-0.1,2,0.6l0.9,1.6
			c0.4,0.7,0.1,1.6-0.6,2C41.3,44.4,41.1,44.4,40.8,44.4z"/>
		<path fill="#FAF4A6" d="M46.7,71.7c-0.3,0-0.6-0.1-0.8-0.3c-0.4-0.2-0.8-0.4-1.2-0.4c-0.8,0-1.5-0.7-1.5-1.5
			c0-0.8,0.7-1.5,1.5-1.5c0,0,0,0,0,0c1,0,2,0.3,2.8,0.9c0.7,0.5,0.9,1.4,0.4,2.1C47.6,71.5,47.2,71.7,46.7,71.7z"/>
		<path fill="#FAF4A6" d="M96.7,61.1c-0.8,0-1.5-0.7-1.5-1.5v-1.9c0-0.8,0.7-1.5,1.5-1.5s1.5,0.7,1.5,1.5v1.9
			C98.2,60.5,97.5,61.1,96.7,61.1z"/>
		<path fill="#FAF4A6" d="M79.4,35.7c-0.5,0-0.9-0.2-1.2-0.6c-0.6-0.8-0.9-1.7-1.1-2.7c-0.1-0.8,0.5-1.6,1.3-1.7
			c0.8-0.1,1.6,0.5,1.7,1.3c0.1,0.5,0.2,0.9,0.5,1.3c0.5,0.7,0.3,1.6-0.3,2.1C80,35.6,79.7,35.7,79.4,35.7z"/>
		<path fill="#FAF4A6" d="M68.5,46.7c-0.7,0-1.3-0.5-1.5-1.3c-0.1-0.8,0.4-1.6,1.2-1.7l3-0.5c0.8-0.1,1.6,0.4,1.7,1.2
			c0.1,0.8-0.4,1.6-1.2,1.7l-3,0.5C68.7,46.7,68.6,46.7,68.5,46.7z"/>
		<path fill="#FAF4A6" d="M84.1,63c-0.6,0-1.2-0.4-1.4-1c-0.3-0.8,0.1-1.6,0.9-1.9c0.4-0.1,0.7-0.4,1-0.7c0.5-0.7,1.4-0.8,2.1-0.4
			c0.7,0.5,0.8,1.4,0.4,2.1c-0.6,0.8-1.4,1.5-2.4,1.8C84.5,63,84.3,63,84.1,63z"/>
		<path fill="#FAF4A6" d="M88,44.6c-0.2,0-0.3,0-0.5-0.1c-0.8-0.3-1.2-1.1-0.9-1.9l0.1-0.5c0.3-0.8,1.1-1.2,1.9-1
			c0.8,0.3,1.2,1.1,1,1.9l-0.2,0.5C89.2,44.2,88.6,44.6,88,44.6z"/>
		<path fill="#FAF4A6" d="M81.1,51.9c-0.6,0-1.2-0.4-1.4-1c-0.3-0.8,0.2-1.6,1-1.9l2.5-0.8c0.8-0.3,1.6,0.2,1.9,1
			c0.3,0.8-0.2,1.6-1,1.9l-2.5,0.8C81.4,51.9,81.3,51.9,81.1,51.9z"/>
		<path fill="#FAF4A6" d="M46,59.3c-0.7,0-1.3-0.4-1.4-1.1c-0.2-0.8-0.3-1.6-0.1-2.3c0.1-0.8,0.9-1.4,1.7-1.3
			c0.8,0.1,1.4,0.9,1.3,1.7c-0.1,0.4,0,0.8,0.1,1.1c0.2,0.8-0.3,1.6-1,1.8C46.3,59.3,46.2,59.3,46,59.3z"/>
	</g>
</g>
</svg>
