<?xml version="1.0" encoding="utf-8"?>
<!-- Generator: Adobe Illustrator 18.1.1, SVG Export Plug-In . SVG Version: 6.00 Build 0)  -->
<svg version="1.1" id="Layer_1" xmlns="http://www.w3.org/2000/svg" xmlns:xlink="http://www.w3.org/1999/xlink" x="0px" y="0px"
	 viewBox="0 0 128 128" enable-background="new 0 0 128 128" xml:space="preserve">
<g>
	<circle fill="#EF4538" cx="64" cy="64" r="63.5"/>
	<g>
		<path fill="#FFC717" d="M95.4,26.8c7.4,4.6,9.6,14.4,5,21.8c-4.6,7.4-14.4,9.6-21.8,5L95.4,26.8z"/>
		<path fill="#FAF4A6" d="M88.7,52.6c-2.6,0.3-5.4-0.1-7.9-1.6c-0.2-0.1-0.3-0.4-0.2-0.7l5.3-8.4c0.2-0.4,0.8-0.3,0.9,0.1l2.3,9.9
			C89.1,52.3,88.9,52.6,88.7,52.6z"/>
		<path fill="#FAF4A6" d="M89.9,40.2l9-2.1c0.3-0.1,0.5,0.1,0.6,0.4c0.3,2.4-0.1,5-1.2,7.3c-0.1,0.3-0.4,0.3-0.7,0.2l-7.8-4.9
			C89.4,40.9,89.5,40.3,89.9,40.2z"/>
		<path fill="#FAF4A6" d="M97,47.8c-1.6,2.1-3.7,3.5-6,4.3c-0.3,0.1-0.6-0.1-0.6-0.4l-2.1-9c-0.1-0.4,0.4-0.7,0.7-0.5l7.8,4.9
			C97.1,47.3,97.2,47.6,97,47.8z"/>
		<path fill="#FAF4A6" d="M88.1,38.4l5.3-8.4c0.1-0.2,0.5-0.3,0.7-0.1c2.4,1.6,4,3.9,4.8,6.4c0.1,0.3-0.1,0.5-0.4,0.6l-9.9,2.3
			C88.2,39.2,87.9,38.8,88.1,38.4z"/>
		<path fill="#FFC717" d="M90.5,74.3c1.3,2.1,2,4,2,5.4c0,1.3-0.7,3.2-2.1,5.3l12.4,7.4V66.9L90.5,74.3z"/>
		<path fill="#FCD83A" d="M61.4,58.1c-16.5,0-34.5,17.8-37.7,21c-0.3,0.3-0.3,0.7,0,1c0.7,0.8,2.3,2.3,4.4,4.2
			c1.3-0.7,2.6-1.3,4-1.9c1-0.4,2.1-0.2,2.8,0.5c0.2,0.2,0.4,0.5,0.5,0.8c0.6,1.3,0,2.7-1.3,3.3c-0.6,0.3-1.3,0.6-1.9,0.9
			c7.5,6.1,18.7,13.3,29.2,13.3c18.1,0,31.1-15.9,31.1-21.5C92.4,73.6,79.5,58.1,61.4,58.1z"/>
		<path fill="#FFC717" d="M50.6,60.3c-1.6,0.6-3.1,1.3-4.6,2c2.1,5.4,5.2,17.9-0.3,34.6c1.5,0.8,3,1.4,4.6,2
			C56.7,80.2,53.1,66.4,50.6,60.3z"/>
		<circle fill="#5D5E61" cx="37.1" cy="77.1" r="3.3"/>
		<path fill="#E3E6E8" d="M49.1,50.3c-0.1,0-0.2,0-0.3,0c-0.8-0.2-1.3-0.9-1.2-1.8c0.3-1.4-0.2-3-1.2-4.1c-0.1-0.1-0.3-0.3-0.5-0.4
			c-0.5-0.5-1.2-1.1-1.6-1.9c-0.3-0.6-0.4-1.3-0.4-1.9c0-0.8,0-1.8,0.5-2.8c0.4-0.7,1.3-0.9,2-0.5c0.7,0.4,0.9,1.3,0.5,2
			c-0.1,0.2-0.1,0.7-0.1,1.1c0,0.3,0,0.6,0.1,0.8c0.1,0.3,0.5,0.6,0.8,0.9c0.2,0.2,0.4,0.4,0.6,0.6c1.7,1.8,2.5,4.3,2,6.8
			C50.4,49.8,49.8,50.3,49.1,50.3z"/>
		<path fill="#E3E6E8" d="M59.1,50.3c-0.1,0-0.2,0-0.3,0c-0.8-0.2-1.3-0.9-1.2-1.8c0.3-1.4-0.2-3-1.2-4.1c-0.1-0.2-0.3-0.3-0.5-0.4
			c-0.5-0.5-1.2-1.1-1.6-1.9c-0.3-0.6-0.4-1.3-0.4-1.9c0-0.8,0-1.8,0.5-2.8c0.4-0.7,1.3-0.9,2-0.5c0.7,0.4,0.9,1.3,0.5,2
			c-0.1,0.2-0.1,0.7-0.1,1.1c0,0.3,0,0.6,0.1,0.8c0.1,0.3,0.5,0.6,0.8,0.9c0.2,0.2,0.4,0.4,0.6,0.6c1.7,1.8,2.5,4.3,2,6.8
			C60.4,49.8,59.8,50.3,59.1,50.3z"/>
		<path fill="#E3E6E8" d="M69.1,50.3c-0.1,0-0.2,0-0.3,0c-0.8-0.2-1.3-0.9-1.2-1.8c0.3-1.4-0.2-3-1.2-4.1c-0.1-0.2-0.3-0.3-0.5-0.4
			c-0.5-0.5-1.2-1.1-1.6-1.9c-0.3-0.6-0.4-1.3-0.4-1.9c0-0.8,0-1.8,0.5-2.8c0.4-0.7,1.3-0.9,2-0.5c0.7,0.4,0.9,1.3,0.5,2
			c-0.1,0.2-0.1,0.7-0.1,1.1c0,0.3,0,0.6,0.1,0.8c0.1,0.3,0.5,0.6,0.8,0.9c0.2,0.2,0.4,0.4,0.6,0.6c1.7,1.8,2.5,4.3,2,6.8
			C70.4,49.8,69.8,50.3,69.1,50.3z"/>
	</g>
</g>
</svg>
