<?xml version="1.0" encoding="utf-8"?>
<!-- Generator: Adobe Illustrator 18.1.1, SVG Export Plug-In . SVG Version: 6.00 Build 0)  -->
<svg version="1.1" id="Layer_1" xmlns="http://www.w3.org/2000/svg" xmlns:xlink="http://www.w3.org/1999/xlink" x="0px" y="0px"
	 viewBox="0 0 128 128" enable-background="new 0 0 128 128" xml:space="preserve">
<g>
	<circle fill="#41B655" cx="64" cy="64" r="63.5"/>
	<g>
		<polygon fill="#E3E6E8" points="64.6,103.4 97.2,103.4 97.8,96.7 64.1,96.7 		"/>
		<polygon fill="#E3E6E8" points="58.2,24.6 64.1,96.7 97.8,96.7 103.7,24.6 		"/>
		<path fill="#FFC717" d="M97.7,45.8c-3.3-1.8-7-2.9-10.7-2.6c-2.2,0.2-4.2,0.9-6.3,1.4c-6.5,1.6-13.4,1.7-19.9,0.1L65,95.7h31.9
			l3.9-47.9C99.8,47.1,98.8,46.4,97.7,45.8z"/>
		<path fill="#FAA51D" d="M61.9,57.9c10.4,10.4,10.4,27.2,0,37.6c-10.4,10.4-27.2,10.4-37.6,0L61.9,57.9z"/>
		<path fill="#FAF4A6" d="M41.1,97.7c-4.5-0.4-8.8-2.3-12.4-5.5c-0.3-0.3-0.3-0.8,0-1.2l11.9-11.9c0.5-0.5,1.4-0.1,1.4,0.6v17.1
			C42,97.3,41.6,97.7,41.1,97.7z"/>
		<path fill="#FAF4A6" d="M47.7,77.8l15.6,0c0.5,0,0.9,0.4,0.8,0.9c-0.4,4.1-2,8.1-4.8,11.5c-0.3,0.4-0.9,0.4-1.2,0l-11-11
			C46.7,78.6,47,77.8,47.7,77.8z"/>
		<path fill="#FAF4A6" d="M56.6,92.9c-3.4,2.8-7.4,4.4-11.5,4.8c-0.5,0-0.9-0.3-0.9-0.8l0-15.6c0-0.7,0.9-1.1,1.4-0.6l11,11
			C56.9,92.1,56.9,92.6,56.6,92.9z"/>
		<path fill="#FAF4A6" d="M45.6,74.2l11.9-11.9c0.3-0.3,0.9-0.3,1.2,0c3.3,3.5,5.1,7.9,5.5,12.4c0,0.5-0.3,0.9-0.8,0.9l-17.1,0
			C45.4,75.5,45.1,74.7,45.6,74.2z"/>
	</g>
</g>
</svg>
