<?xml version="1.0" encoding="utf-8"?>
<!-- Generator: Adobe Illustrator 18.1.1, SVG Export Plug-In . SVG Version: 6.00 Build 0)  -->
<svg version="1.1" id="Layer_1" xmlns="http://www.w3.org/2000/svg" xmlns:xlink="http://www.w3.org/1999/xlink" x="0px" y="0px"
	 viewBox="0 0 128 128" enable-background="new 0 0 128 128" xml:space="preserve">
<g>
	<circle fill="#FFC717" cx="64" cy="64" r="63.5"/>
	<g>
		<ellipse fill="#E3E6E8" cx="64" cy="37" rx="39.7" ry="12.2"/>
		<path fill="#FFFFFF" d="M46.3,70.1h35.5c13-6.1,21.9-18.6,21.9-33.2c0,6.7-17.8,12.2-39.7,12.2c-21.9,0-39.7-5.5-39.7-12.2
			C24.3,51.5,33.3,64,46.3,70.1z"/>
		<ellipse fill="#FACDD4" cx="64" cy="37" rx="35.4" ry="8.7"/>
		<ellipse fill="#E3E6E8" cx="86.7" cy="91.8" rx="16.7" ry="11.4"/>
		<path fill="#E67375" d="M70,91.8c0-1.2,0.3-2.3,0.7-3.3l-40.4-2.2c-3.1-0.2-5.7,2.3-5.7,5.4c0,3.1,2.6,5.6,5.7,5.4l40.3-2.2
			C70.2,93.9,70,92.9,70,91.8z"/>
	</g>
</g>
</svg>
