<?xml version="1.0" encoding="utf-8"?>
<!-- Generator: Adobe Illustrator 18.1.1, SVG Export Plug-In . SVG Version: 6.00 Build 0)  -->
<svg version="1.1" id="Layer_1" xmlns="http://www.w3.org/2000/svg" xmlns:xlink="http://www.w3.org/1999/xlink" x="0px" y="0px"
	 viewBox="0 0 128 128" enable-background="new 0 0 128 128" xml:space="preserve">
<g>
	<circle fill="#EF4538" cx="64" cy="64" r="63.5"/>
	<g>
		<path fill="#FAF4A6" d="M68.1,42.7L24.3,64h79.4C103.7,55.1,89.6,47.3,68.1,42.7z"/>
		<rect x="24.3" y="64" fill="#FCD83A" width="79.4" height="34.8"/>
		<circle fill="#915037" cx="54.4" cy="48.4" r="7.9"/>
		<g>
			<path fill="#753A29" d="M54.5,42.9c-0.7,0-1.3-0.4-1.4-1.1c-0.1-0.3-1.7-7.3,8-12.9c0.7-0.4,1.6-0.2,2,0.6c0.4,0.7,0.2,1.6-0.6,2
				c-7.8,4.5-6.6,9.6-6.6,9.6c0.2,0.8-0.3,1.6-1.1,1.8C54.7,42.9,54.6,42.9,54.5,42.9z"/>
		</g>
		<rect x="24.3" y="76" fill="#753A29" width="79.4" height="10.8"/>
	</g>
</g>
</svg>
