<?xml version="1.0" encoding="utf-8"?>
<!-- Generator: Adobe Illustrator 18.1.1, SVG Export Plug-In . SVG Version: 6.00 Build 0)  -->
<svg version="1.1" id="Layer_1" xmlns="http://www.w3.org/2000/svg" xmlns:xlink="http://www.w3.org/1999/xlink" x="0px" y="0px"
	 viewBox="0 0 128 128" enable-background="new 0 0 128 128" xml:space="preserve">
<g>
	<circle fill="#FFC717" cx="64" cy="64" r="63.5"/>
	<g>
		<path fill="#C1CBD1" d="M91.3,67c1.3,2.1,2,4,2,5.4c0,1.3-0.7,3.2-2.1,5.3l12.4,7.4V59.7L91.3,67z"/>
		<path fill="#E3E6E8" d="M62.2,50.8c-16.5,0-34.5,17.8-37.7,21c-0.3,0.3-0.3,0.7,0,1c0.7,0.8,2.3,2.3,4.4,4.2
			c1.3-0.7,2.6-1.3,4-1.9c1-0.4,2.1-0.2,2.8,0.5c0.2,0.2,0.4,0.5,0.5,0.8c0.6,1.3,0,2.7-1.3,3.3c-0.6,0.3-1.3,0.6-1.9,0.9
			c7.5,6.1,18.7,13.3,29.2,13.3c18.1,0,31.1-15.9,31.1-21.5C93.3,66.3,80.4,50.8,62.2,50.8z"/>
		<path fill="#C1CBD1" d="M51.5,53c-1.6,0.6-3.1,1.3-4.6,2c2.1,5.4,5.2,17.9-0.3,34.6c1.5,0.8,3,1.4,4.6,2
			C57.5,73,53.9,59.2,51.5,53z"/>
		<circle fill="#753A29" cx="38" cy="69" r="3"/>
		<path fill="#5D5E61" d="M49.9,47.7c-0.1,0-0.2,0-0.3,0c-0.8-0.2-1.3-0.9-1.2-1.8c0.3-1.4-0.2-3-1.2-4.1c-0.1-0.1-0.3-0.3-0.5-0.4
			c-0.5-0.5-1.2-1.1-1.6-1.9c-0.3-0.6-0.4-1.3-0.4-1.9c0-0.8,0-1.8,0.5-2.8c0.4-0.7,1.3-0.9,2-0.5c0.7,0.4,0.9,1.3,0.5,2
			c-0.1,0.2-0.1,0.7-0.1,1.1c0,0.3,0,0.6,0.1,0.8c0.1,0.3,0.5,0.6,0.8,0.9c0.2,0.2,0.4,0.4,0.6,0.6c1.7,1.8,2.5,4.3,2,6.8
			C51.3,47.2,50.6,47.7,49.9,47.7z"/>
		<path fill="#5D5E61" d="M59.9,47.7c-0.1,0-0.2,0-0.3,0c-0.8-0.2-1.3-0.9-1.2-1.8c0.3-1.4-0.2-3-1.2-4.1c-0.1-0.2-0.3-0.3-0.5-0.4
			c-0.5-0.5-1.2-1.1-1.6-1.9c-0.3-0.6-0.4-1.3-0.4-1.9c0-0.8,0-1.8,0.5-2.8c0.4-0.7,1.3-0.9,2-0.5c0.7,0.4,0.9,1.3,0.5,2
			c-0.1,0.2-0.1,0.7-0.1,1.1c0,0.3,0,0.6,0.1,0.8c0.1,0.3,0.5,0.6,0.8,0.9c0.2,0.2,0.4,0.4,0.6,0.6c1.7,1.8,2.5,4.3,2,6.8
			C61.3,47.2,60.6,47.7,59.9,47.7z"/>
		<path fill="#5D5E61" d="M69.9,47.7c-0.1,0-0.2,0-0.3,0c-0.8-0.2-1.3-0.9-1.2-1.8c0.3-1.4-0.2-3-1.2-4.1c-0.1-0.2-0.3-0.3-0.5-0.4
			c-0.5-0.5-1.2-1.1-1.6-1.9c-0.3-0.6-0.4-1.3-0.4-1.9c0-0.8,0-1.8,0.5-2.8c0.4-0.7,1.3-0.9,2-0.5c0.7,0.4,0.9,1.3,0.5,2
			c-0.1,0.2-0.1,0.7-0.1,1.1c0,0.3,0,0.6,0.1,0.8c0.1,0.3,0.5,0.6,0.8,0.9c0.2,0.2,0.4,0.4,0.6,0.6c1.7,1.8,2.5,4.3,2,6.8
			C71.3,47.2,70.6,47.7,69.9,47.7z"/>
	</g>
</g>
</svg>
