<?xml version="1.0" encoding="utf-8"?>
<!-- Generator: Adobe Illustrator 18.1.1, SVG Export Plug-In . SVG Version: 6.00 Build 0)  -->
<svg version="1.1" id="Layer_1" xmlns="http://www.w3.org/2000/svg" xmlns:xlink="http://www.w3.org/1999/xlink" x="0px" y="0px"
	 viewBox="0 0 128 128" enable-background="new 0 0 128 128" xml:space="preserve">
<g>
	<circle fill="#EF4538" cx="64" cy="64" r="63.5"/>
	<g>
		<polygon fill="#FFC717" points="64,103.5 50.2,55.9 77.8,55.9 		"/>
		<path fill="#FAF4A6" d="M77.4,55.9H50.6c-2.6,0-4.7-2.1-4.7-4.7v0c0-2.6,2.1-4.7,4.7-4.7h26.8c2.6,0,4.7,2.1,4.7,4.7v0
			C82.1,53.8,80,55.9,77.4,55.9z"/>
		<path fill="#FBD839" d="M71.4,46.4H56.6c-2.6,0-4.7-2.1-4.7-4.7v0c0-2.6,2.1-4.7,4.7-4.7h14.7c2.6,0,4.7,2.1,4.7,4.7v0
			C76.1,44.3,74,46.4,71.4,46.4z"/>
		<path fill="#FAF4A6" d="M69.9,37c-0.8-1.9-1.8-3.7-2.8-5.5c-0.6-1.1-1.1-4.5-1.1-7.3c-2.3,1-4,3-5.4,5c-1,1.4-1.8,3-2.2,4.7
			c-0.2,1-0.3,2.1-0.1,3.1H69.9z"/>
	</g>
</g>
</svg>
