<?xml version="1.0" encoding="utf-8"?>
<!-- Generator: Adobe Illustrator 18.1.1, SVG Export Plug-In . SVG Version: 6.00 Build 0)  -->
<svg version="1.1" id="Layer_1" xmlns="http://www.w3.org/2000/svg" xmlns:xlink="http://www.w3.org/1999/xlink" x="0px" y="0px"
	 viewBox="0 0 128 128" enable-background="new 0 0 128 128" xml:space="preserve">
<g>
	<circle fill="#388CCB" cx="64" cy="64" r="63.5"/>
	<g>
		<path fill="#915037" d="M102.8,60.5c0,23.8-17.3,43.1-38.7,43.1S25.3,84.4,25.3,60.5"/>
		<ellipse fill="#E3E6E8" cx="64.1" cy="60.6" rx="38.7" ry="16.7"/>
		<ellipse fill="#FFFFFF" cx="64.1" cy="60.6" rx="31.5" ry="11.5"/>
		<path fill="#FCD83A" d="M104.3,25.5c-0.2-0.9-1.1-1.4-1.9-1.2l-20.8,5.1c-0.5,0.1-1,0.5-1.1,1.1L67.7,72.1l3.4-0.3l12.1-39.5
			l19.9-4.9C104,27.3,104.5,26.4,104.3,25.5z"/>
		<path fill="#753A29" d="M33.8,77.8c-0.3,0-0.5-0.1-0.8-0.3c-0.5-0.4-0.9-1-1-1.6c-0.1-0.6,0.3-1.3,0.9-1.4
			c0.6-0.1,1.3,0.3,1.4,0.9c0,0.1,0.1,0.3,0.2,0.3c0.5,0.4,0.6,1.2,0.1,1.7C34.5,77.6,34.1,77.8,33.8,77.8z"/>
		<path fill="#753A29" d="M36.3,84.6c-0.4,0-0.8-0.2-1-0.6c-0.6,0-1-0.5-1.1-1c-0.1-0.7,0.4-1.3,1-1.3c1-0.1,2,0.5,2.3,1.4
			c0.2,0.6-0.2,1.3-0.8,1.5C36.6,84.6,36.5,84.6,36.3,84.6z"/>
		<path fill="#753A29" d="M41.7,91.1c-0.3,0-0.6-0.1-0.8-0.4L40,89.9c-0.5-0.5-0.5-1.2,0-1.7c0.5-0.5,1.2-0.5,1.7,0l0.8,0.8
			c0.5,0.5,0.5,1.2,0,1.7C42.3,90.9,42,91.1,41.7,91.1z"/>
		<path fill="#753A29" d="M41,80.3c-0.4,0-0.7-0.2-1-0.5c-0.3-0.4-0.6-0.7-0.9-1c-0.5-0.4-0.5-1.2-0.1-1.7c0.4-0.5,1.2-0.5,1.7-0.1
			c0.5,0.4,0.9,0.9,1.3,1.4c0.4,0.5,0.3,1.3-0.3,1.7C41.5,80.2,41.2,80.3,41,80.3z"/>
		<path fill="#753A29" d="M45.8,87.1c-0.3,0-0.7-0.1-0.9-0.4c-0.2-0.3-0.6-0.5-1-0.6c-0.6-0.2-1-0.8-0.9-1.5c0.2-0.6,0.8-1,1.5-0.9
			c0.9,0.2,1.6,0.7,2.2,1.4c0.4,0.5,0.3,1.3-0.2,1.7C46.3,87,46,87.1,45.8,87.1z"/>
		<path fill="#753A29" d="M51.8,81.7c-0.3,0-0.6-0.1-0.8-0.3c-0.6-0.6-1.5-1-2.3-1.2c-0.6-0.1-1.1-0.8-0.9-1.4
			c0.1-0.6,0.8-1.1,1.4-0.9c1.3,0.3,2.5,0.9,3.5,1.8c0.5,0.4,0.5,1.2,0.1,1.7C52.5,81.5,52.2,81.7,51.8,81.7z"/>
		<path fill="#753A29" d="M53.7,92.4c-0.4,0-0.8-0.2-1-0.5l-1.1-1.6c-0.4-0.5-0.2-1.3,0.3-1.7c0.5-0.4,1.3-0.2,1.7,0.3l1.1,1.6
			c0.4,0.5,0.2,1.3-0.3,1.7C54.2,92.4,54,92.4,53.7,92.4z"/>
		<path fill="#753A29" d="M48.9,91.6c-0.2,0-0.5-0.1-0.7-0.2l-1.6-1.2c-0.5-0.4-0.6-1.1-0.2-1.7c0.4-0.5,1.1-0.6,1.7-0.2l1.6,1.2
			c0.5,0.4,0.6,1.1,0.2,1.7C49.7,91.4,49.3,91.6,48.9,91.6z"/>
		<path fill="#753A29" d="M51.2,99.2c-0.2,0-0.5-0.1-0.7-0.2l-1.6-1.2c-0.5-0.4-0.6-1.1-0.2-1.7s1.1-0.6,1.7-0.2l1.6,1.2
			c0.5,0.4,0.6,1.1,0.2,1.7C51.9,99.1,51.6,99.2,51.2,99.2z"/>
		<path fill="#753A29" d="M60.8,85.6c-0.3,0-0.6-0.1-0.9-0.4l-2.3-2.5c-0.4-0.5-0.4-1.2,0.1-1.7c0.5-0.4,1.2-0.4,1.7,0.1l2.3,2.5
			c0.4,0.5,0.4,1.2-0.1,1.7C61.4,85.5,61.1,85.6,60.8,85.6z"/>
		<path fill="#753A29" d="M59.5,93.5c-0.5,0-1-0.4-1.2-0.9l-0.2-0.9c-0.1-0.6,0.3-1.3,0.9-1.4c0.6-0.1,1.3,0.3,1.4,0.9l0.2,0.9
			c0.1,0.6-0.3,1.3-0.9,1.4C59.7,93.5,59.6,93.5,59.5,93.5z"/>
		<path fill="#753A29" d="M61.7,99.5c-0.5,0-1-0.4-1.2-0.9l-0.2-0.9c-0.1-0.6,0.3-1.3,0.9-1.4c0.6-0.1,1.3,0.3,1.4,0.9l0.2,0.9
			c0.1,0.6-0.3,1.3-0.9,1.4C61.9,99.5,61.8,99.5,61.7,99.5z"/>
		<path fill="#753A29" d="M67.8,89.3c-0.2,0-0.4,0-0.6-0.1c-0.5-0.3-1.1-0.4-1.7-0.4c-0.7,0-1.2-0.5-1.3-1.1c0-0.7,0.5-1.2,1.1-1.3
			c1-0.1,2,0.2,2.9,0.7c0.6,0.3,0.8,1,0.5,1.6C68.6,89,68.2,89.3,67.8,89.3z"/>
		<path fill="#753A29" d="M70.1,83.5c-0.4,0-0.8-0.2-1-0.6c-0.2-0.3-0.5-0.5-0.8-0.7c-0.6-0.2-1-0.9-0.8-1.5c0.2-0.6,0.9-1,1.5-0.8
			c0.9,0.3,1.6,0.9,2.1,1.7c0.4,0.6,0.2,1.3-0.4,1.6C70.5,83.4,70.3,83.5,70.1,83.5z"/>
		<path fill="#753A29" d="M76.4,84.1c-0.5,0-1-0.4-1.2-0.9c-0.1-0.3-0.3-0.6-0.5-0.9c-0.5-0.4-0.6-1.2-0.1-1.7
			c0.4-0.5,1.2-0.6,1.7-0.1c0.6,0.5,1.1,1.3,1.3,2.1c0.2,0.6-0.2,1.3-0.9,1.5C76.6,84.1,76.5,84.1,76.4,84.1z"/>
		<path fill="#753A29" d="M84,83.6c-0.5,0-1-0.3-1.1-0.8c-0.1-0.3-0.3-0.6-0.6-0.8c-0.6-0.4-0.7-1.1-0.3-1.7
			c0.4-0.6,1.1-0.7,1.7-0.3c0.7,0.5,1.3,1.2,1.6,2c0.2,0.6-0.1,1.3-0.7,1.5C84.2,83.5,84.1,83.6,84,83.6z"/>
		<path fill="#753A29" d="M90.2,80.8c-0.4,0-0.8-0.2-1-0.6c-0.2-0.3-0.4-0.6-0.7-0.8c-0.5-0.4-0.6-1.2-0.2-1.7
			c0.4-0.5,1.2-0.6,1.7-0.2c0.5,0.4,0.9,0.9,1.2,1.4c0.3,0.6,0.2,1.3-0.4,1.6C90.7,80.7,90.4,80.8,90.2,80.8z"/>
		<path fill="#753A29" d="M96.9,77.4c0,0-0.1,0-0.1,0c-0.7-0.1-1.1-0.7-1.1-1.3c0-0.2,0-0.3,0-0.5c-0.2-0.2-0.3-0.6-0.3-0.9
			c0-0.5,0.3-0.9,0.8-1.1c0.4-0.2,1-0.1,1.3,0.1c0.2,0.2,0.4,0.4,0.4,0.7c0.2,0.6,0.2,1.3,0.1,1.9C98,76.9,97.5,77.4,96.9,77.4z"/>
		<path fill="#753A29" d="M89,87.5c-0.2,0-0.4-0.1-0.6-0.2c-0.6-0.3-0.7-1.1-0.4-1.6c0.1-0.1,0.1-0.3,0.1-0.5c0-0.7,0.5-1.2,1.1-1.2
			c0.7,0,1.2,0.5,1.2,1.1c0,0.7-0.1,1.3-0.5,1.9C89.8,87.3,89.4,87.5,89,87.5z"/>
		<path fill="#753A29" d="M80.5,89.5c-0.1,0-0.3,0-0.4-0.1c-0.6-0.2-1-0.9-0.7-1.5c0.2-0.7,0.6-1.3,1.2-1.8c0.5-0.5,1.2-0.4,1.7,0
			c0.5,0.5,0.4,1.2,0,1.7c-0.2,0.2-0.4,0.5-0.6,0.9C81.4,89.2,81,89.5,80.5,89.5z"/>
		<path fill="#753A29" d="M75.3,91.7c-0.5,0-1-0.3-1.1-0.8c-0.6-0.4-0.7-1.1-0.4-1.6c0.4-0.6,1.1-0.7,1.7-0.4c0.5,0.3,0.8,0.7,1,1.2
			c0.2,0.6-0.1,1.3-0.8,1.5C75.5,91.6,75.4,91.7,75.3,91.7z"/>
		<path fill="#753A29" d="M68.9,95c-0.5,0-1-0.3-1.1-0.8c-0.6-0.4-0.7-1.1-0.4-1.6c0.4-0.6,1.1-0.7,1.7-0.4c0.5,0.3,0.8,0.7,1,1.2
			c0.2,0.6-0.1,1.3-0.8,1.5C69.1,95,69,95,68.9,95z"/>
		<path fill="#753A29" d="M70.6,100.1c-0.5,0-1-0.3-1.1-0.8c-0.6-0.4-0.7-1.1-0.4-1.6c0.4-0.6,1.1-0.7,1.7-0.4
			c0.5,0.3,0.8,0.7,1,1.2c0.2,0.6-0.1,1.3-0.8,1.5C70.8,100.1,70.7,100.1,70.6,100.1z"/>
		<path fill="#753A29" d="M83,95.3c-0.4,0-0.8-0.2-1-0.6c-0.3-0.6-0.1-1.3,0.4-1.6c0.1-0.1,0.2-0.2,0.2-0.3c0.1-0.7,0.7-1.1,1.4-1
			c0.7,0.1,1.1,0.7,1,1.4c-0.1,0.8-0.7,1.6-1.4,2C83.5,95.3,83.3,95.3,83,95.3z"/>
		<path fill="#753A29" d="M54.5,86c-0.3,0-0.5-0.1-0.7-0.3l-0.5-0.4c-0.5-0.4-0.6-1.2-0.2-1.7c0.4-0.5,1.2-0.6,1.7-0.2l0.5,0.4
			c0.5,0.4,0.6,1.2,0.2,1.7C55.2,85.8,54.9,86,54.5,86z"/>
	</g>
</g>
</svg>
