<?xml version="1.0" encoding="utf-8"?>
<!-- Generator: Adobe Illustrator 18.1.1, SVG Export Plug-In . SVG Version: 6.00 Build 0)  -->
<svg version="1.1" id="Layer_1" xmlns="http://www.w3.org/2000/svg" xmlns:xlink="http://www.w3.org/1999/xlink" x="0px" y="0px"
	 viewBox="0 0 128 128" enable-background="new 0 0 128 128" xml:space="preserve">
<g>
	<circle fill="#EF4538" cx="64" cy="64" r="63.5"/>
	<g>
		<path fill="#FBD839" d="M38.9,38.1C21.1,55.9,20.6,84.6,37.5,103c0.8,0.8,2.1,0.9,2.9,0.1L104,39.5c0.8-0.8,0.8-2.1-0.1-2.9
			C85.4,19.7,56.8,20.2,38.9,38.1z"/>
		<path fill="#FFC717" d="M42.8,44c0.3-0.4,0.7-0.7,1-1.1c0.3-0.3,0.6-0.6,1-0.9c0,0,0,0,0,0l-4.9-4.9c-0.3,0.3-0.7,0.6-1,0.9
			c-0.3,0.3-0.7,0.7-1,1.1L42.8,44C42.8,44,42.8,44,42.8,44z"/>
		<path fill="#FFC717" d="M71.7,31.3c0.9,0,1.9,0,2.8,0.1c0,0,0,0,0,0v-6.9v0c-0.9,0-1.9-0.1-2.8,0c0,0,0,0,0,0V31.3z"/>
		<path fill="#FFC717" d="M32.2,73.7c-0.1-0.9-0.1-1.9-0.1-2.8c0,0,0,0,0,0h-6.9c0,0.9,0,1.9,0.1,2.8L32.2,73.7
			C32.1,73.7,32.1,73.7,32.2,73.7z"/>
		<path fill="#FFC717" d="M48.3,39.1C48.3,39.1,48.3,39.1,48.3,39.1c0.8-0.6,1.5-1.1,2.3-1.6c0,0,0,0,0,0l-3.9-5.7
			c-0.8,0.5-1.6,1-2.3,1.6c0,0,0,0,0,0L48.3,39.1z"/>
		<path fill="#FFC717" d="M40.9,96.4c-0.6-0.7-1.1-1.5-1.7-2.2c0,0,0,0,0,0l-5.7,3.9c0.5,0.8,1.1,1.5,1.7,2.3L40.9,96.4
			C40.8,96.4,40.9,96.4,40.9,96.4z"/>
		<path fill="#FFC717" d="M79,31.8c0.9,0.2,1.8,0.3,2.8,0.6l0,0l1.2-6.8c-0.9-0.2-1.8-0.4-2.8-0.6c0,0,0,0,0,0L79,31.8z"/>
		<path fill="#FFC717" d="M32.4,66.4c0.1-0.9,0.3-1.9,0.4-2.8c0,0,0,0,0,0L26,62.4c-0.2,0.9-0.3,1.8-0.4,2.8L32.4,66.4
			C32.3,66.4,32.4,66.4,32.4,66.4z"/>
		<path fill="#FFC717" d="M53.9,35.6c0.8-0.4,1.7-0.8,2.5-1.2c0,0,0,0,0,0l-3-6.2c-0.9,0.4-1.7,0.8-2.5,1.2v0L53.9,35.6z"/>
		<path fill="#FFC717" d="M37.3,91.1c-0.5-0.8-0.9-1.6-1.3-2.5c0,0,0,0,0,0l-6.2,3c0.4,0.8,0.8,1.7,1.3,2.5l6.1-3
			C37.2,91.1,37.3,91.1,37.3,91.1z"/>
		<path fill="#FFC717" d="M85.3,33.4c0.9,0.3,1.8,0.6,2.6,1c0,0,0,0,0,0l2.3-6.5c-0.9-0.4-1.7-0.7-2.6-1c0,0,0,0,0,0.1L85.3,33.4z"
			/>
		<path fill="#FFC717" d="M33.7,60c0.3-0.9,0.6-1.8,0.9-2.7c0,0,0,0,0,0L28.1,55c-0.3,0.9-0.6,1.8-0.9,2.7L33.7,60
			C33.7,60,33.7,60,33.7,60z"/>
		<path fill="#FFC717" d="M59.9,33.2c0.9-0.3,1.8-0.6,2.7-0.8c0,0,0,0,0,0l-2-6.6c-0.9,0.2-1.8,0.5-2.7,0.8c0,0,0,0,0,0L59.9,33.2z"
			/>
		<path fill="#FFC717" d="M34.6,85.3c-0.3-0.9-0.6-1.8-0.9-2.7c0,0,0,0,0,0l-6.6,2c0.3,0.9,0.6,1.8,0.9,2.7l6.6-2
			C34.5,85.3,34.6,85.3,34.6,85.3z"/>
		<path fill="#FFC717" d="M91.1,36c0.8,0.4,1.6,0.9,2.4,1.4c0,0,0,0,0,0l3.3-6.1c-0.8-0.5-1.6-1-2.4-1.4c0,0,0,0,0,0.1L91.1,36z"/>
		<path fill="#FFC717" d="M36.1,53.9c0.4-0.8,0.8-1.7,1.3-2.5c0,0,0,0,0,0l-6.1-3.3c-0.5,0.8-0.9,1.6-1.3,2.5L36.1,53.9
			C36,53.9,36,53.9,36.1,53.9z"/>
		<path fill="#FFC717" d="M65.1,31.9c0.9-0.2,1.9-0.3,2.8-0.4c0,0,0,0,0,0l-1.1-6.8c-0.9,0.1-1.9,0.2-2.8,0.4c0,0,0,0,0,0L65.1,31.9
			z"/>
		<path fill="#FFC717" d="M33.1,80.2c-0.2-0.9-0.4-1.8-0.5-2.7c0,0,0,0,0,0l-6.8,1.1c0.1,0.9,0.3,1.8,0.5,2.8l6.7-1.1
			C33,80.3,33.1,80.3,33.1,80.2z"/>
		<path fill="#FFC717" d="M95.5,38.8c0.8,0.5,1.5,1.1,2.2,1.7c0,0,0,0,0,0l4.1-5.6c0,0,0,0,0,0c-0.7-0.6-1.5-1.2-2.2-1.7
			c0,0,0,0-0.1,0.1L95.5,38.8z"/>
		<path fill="#FFC717" d="M38.7,49.3c0.5-0.8,1.1-1.5,1.6-2.3c0,0,0,0,0,0l-5.6-4c-0.6,0.8-1.1,1.5-1.6,2.3L38.7,49.3
			C38.7,49.3,38.7,49.3,38.7,49.3z"/>
	</g>
</g>
</svg>
