<?xml version="1.0" encoding="utf-8"?>
<!-- Generator: Adobe Illustrator 18.1.1, SVG Export Plug-In . SVG Version: 6.00 Build 0)  -->
<svg version="1.1" id="Layer_1" xmlns="http://www.w3.org/2000/svg" xmlns:xlink="http://www.w3.org/1999/xlink" x="0px" y="0px"
	 viewBox="0 0 128 128" enable-background="new 0 0 128 128" xml:space="preserve">
<g>
	<circle fill="#388CCB" cx="64" cy="64" r="63.5"/>
	<g>
		<path fill="#FFC717" d="M104.3,57.3c0-8.6-17.7-15.7-39.4-15.7c-21.8,0-39.4,7-39.4,15.7C25.4,58.8,104.3,58.8,104.3,57.3z"/>
		<path fill="#FFC717" d="M102.7,86.4H27c-0.9,0-1.6-0.7-1.6-1.6V79h78.9v5.8C104.3,85.7,103.6,86.4,102.7,86.4z"/>
		<path fill="#915037" d="M102.2,76.3H27.5c-1.3,0-2.4-1.1-2.4-2.4v0c0-1.3,1.1-2.4,2.4-2.4h74.8c1.3,0,2.4,1.1,2.4,2.4v0
			C104.7,75.2,103.6,76.3,102.2,76.3z"/>
		<path fill="#E3E6E8" d="M30.4,67.6c-1.5,0-2.8-0.2-4.1-0.7c-1-0.4-1.4-1.5-1.1-2.5c0.4-1,1.5-1.4,2.5-1.1c1.6,0.6,3.5,0.6,6.1,0
			c0.8-0.2,1.5-0.4,2.3-0.6c1.6-0.5,3.3-0.9,5.1-1.1c0.9-0.1,2.2-0.2,3.5,0.3c0.7,0.2,1.2,0.5,1.7,0.8c0.2,0.1,0.5,0.3,0.7,0.4
			c1.5,0.7,3.5,0.5,5.8,0.1l5.9-1c1-0.2,2.3-0.4,3.6-0.1c0.7,0.2,1.4,0.5,1.9,0.8c0.2,0.1,0.4,0.2,0.7,0.3c1.9,0.9,4.3,0.3,6.8-0.3
			c1.4-0.3,2.9-0.7,4.3-0.8c0.7-0.1,1.4-0.1,2.3,0.2c0.6,0.2,1,0.5,1.4,0.7c0.1,0.1,0.2,0.2,0.4,0.2c1.3,0.7,3.4,0.2,4.8-0.3
			l0.6-0.2c2-0.7,4.3-1.5,6.8-1c1,0.2,1.9,0.6,2.7,1c1,0.4,1.8,0.8,2.5,0.8c0.4,0,0.8-0.2,1.3-0.3c1.3-0.4,3.2-1,4.9,0.3
			c0.8,0.6,1,1.8,0.4,2.7c-0.6,0.8-1.8,1-2.7,0.4c-0.2-0.1-1,0.2-1.4,0.3c-0.6,0.2-1.3,0.4-2.1,0.5c-1.7,0.2-3.2-0.5-4.5-1.1
			c-0.7-0.3-1.3-0.6-1.9-0.7c-1.4-0.3-3,0.3-4.7,0.9l-0.6,0.2c-2.1,0.7-5.2,1.5-7.9,0c-0.2-0.1-0.4-0.2-0.6-0.4
			c-0.2-0.1-0.4-0.3-0.5-0.3c-0.2-0.1-0.6,0-0.7,0c-1.2,0.1-2.5,0.4-3.8,0.7c-2.9,0.7-6.1,1.4-9.2,0c-0.3-0.1-0.6-0.3-0.9-0.5
			c-0.4-0.2-0.7-0.4-1-0.5c-0.5-0.1-1.3,0-2,0.1l-5.9,1c-2.2,0.4-5.3,0.9-8.1-0.4c-0.4-0.2-0.7-0.4-1-0.6c-0.4-0.2-0.7-0.4-1-0.5
			c-0.6-0.2-1.3-0.1-1.8-0.1c-1.5,0.2-2.9,0.6-4.5,1c-0.8,0.2-1.6,0.5-2.5,0.6C33.2,67.4,31.7,67.6,30.4,67.6z"/>
		<path fill="#915037" d="M38.2,53.2c-0.4,0-0.8-0.2-1.1-0.5c-0.7-0.2-1.2-0.9-1.1-1.6c0.1-0.8,0.9-1.4,1.7-1.3
			c0.7,0.1,1.3,0.5,1.8,1.1c0.5,0.7,0.3,1.6-0.4,2.1C38.8,53.1,38.5,53.2,38.2,53.2z"/>
		<path fill="#915037" d="M48.4,52c-0.6,0-1.2-0.4-1.4-0.9c-0.8-0.2-1.3-1.1-1-1.9c0.2-0.8,1-1.3,1.8-1c0.9,0.3,1.6,0.9,2,1.8
			c0.3,0.8-0.1,1.6-0.8,1.9C48.8,51.9,48.6,52,48.4,52z"/>
		<path fill="#915037" d="M59.7,54.9c-0.3,0-0.6-0.1-0.9-0.3c-0.1-0.1-0.3-0.1-0.4-0.1c-0.8,0-1.5-0.7-1.5-1.5s0.7-1.5,1.5-1.5
			c0.8,0,1.6,0.3,2.2,0.8c0.6,0.5,0.8,1.4,0.2,2.1C60.6,54.7,60.2,54.9,59.7,54.9z"/>
		<path fill="#915037" d="M64,47.9c-0.4,0-0.9-0.2-1.2-0.6c-0.2-0.3-0.5-0.5-0.8-0.6c-0.7-0.4-1-1.3-0.7-2c0.4-0.7,1.3-1,2-0.7
			c0.7,0.3,1.3,0.9,1.8,1.5c0.5,0.6,0.4,1.6-0.3,2.1C64.7,47.8,64.3,47.9,64,47.9z"/>
		<path fill="#915037" d="M82.3,51c-0.4,0-0.8-0.2-1.1-0.5c-0.7-0.1-1.3-0.7-1.3-1.4c0-0.8,0.6-1.5,1.4-1.6c0.8,0,1.7,0.4,2.2,1.1
			c0.5,0.7,0.3,1.6-0.4,2.1C82.8,50.9,82.5,51,82.3,51z"/>
		<path fill="#915037" d="M73.1,54.1c-0.3,0-0.6-0.1-0.9-0.3c-0.6-0.5-1.1-1.1-1.5-1.8c-0.4-0.7-0.1-1.6,0.6-2
			c0.7-0.4,1.6-0.1,2,0.6c0.2,0.3,0.4,0.6,0.7,0.8c0.6,0.5,0.8,1.4,0.2,2.1C73.9,53.9,73.5,54.1,73.1,54.1z"/>
		<path fill="#915037" d="M91.9,53.6c-0.4,0-0.7-0.1-1-0.4c-0.3-0.3-0.7-0.5-1.2-0.6c-0.8-0.1-1.3-0.9-1.2-1.7
			c0.1-0.8,0.9-1.3,1.7-1.2c1,0.2,1.9,0.6,2.6,1.3c0.6,0.5,0.7,1.5,0.1,2.1C92.7,53.4,92.3,53.6,91.9,53.6z"/>
	</g>
</g>
</svg>
