<?xml version="1.0" encoding="utf-8"?>
<!-- Generator: Adobe Illustrator 18.1.1, SVG Export Plug-In . SVG Version: 6.00 Build 0)  -->
<svg version="1.1" id="Layer_1" xmlns="http://www.w3.org/2000/svg" xmlns:xlink="http://www.w3.org/1999/xlink" x="0px" y="0px"
	 viewBox="0 0 128 128" enable-background="new 0 0 128 128" xml:space="preserve">
<g>
	<circle fill="#EF4538" cx="64" cy="64" r="63.5"/>
	<g>
		<polygon fill="#565756" points="104.5,88.4 25.2,88.4 30.8,62.4 98.9,62.4 		"/>
		<path fill="#FFC717" d="M95.7,62.4c0-0.1,0-0.1,0-0.2c0-7.9-6.4-14.4-14.4-14.4c-0.5,0-0.9,0-1.4,0.1c-2.3-4.9-7.3-8.3-13-8.3
			c-6.7,0-12.3,4.6-13.9,10.8c-1.5-0.5-3-0.8-4.6-0.8c-7.4,0-13.5,5.6-14.3,12.8H95.7z"/>
		<path fill="#FAF4A6" d="M88.3,75.4c0.8-0.8,1.4-1.9,1.4-3.2c0-2.4-2-4.4-4.4-4.4c-2.1,0-3.8,1.5-4.3,3.4H48.6
			c-0.4-1.9-2.2-3.4-4.3-3.4c-2.4,0-4.4,2-4.4,4.4c0,1.2,0.5,2.4,1.4,3.2c-0.8,0.8-1.4,1.9-1.4,3.2c0,2.4,2,4.4,4.4,4.4
			c2.1,0,3.8-1.5,4.3-3.4h32.4c0.4,1.9,2.2,3.4,4.3,3.4c2.4,0,4.4-2,4.4-4.4C89.7,77.3,89.2,76.2,88.3,75.4z"/>
	</g>
</g>
</svg>
