<?xml version="1.0" encoding="utf-8"?>
<!-- Generator: Adobe Illustrator 18.1.1, SVG Export Plug-In . SVG Version: 6.00 Build 0)  -->
<svg version="1.1" id="Layer_1" xmlns="http://www.w3.org/2000/svg" xmlns:xlink="http://www.w3.org/1999/xlink" x="0px" y="0px"
	 viewBox="0 0 128 128" enable-background="new 0 0 128 128" xml:space="preserve">
<g>
	<circle fill="#FFC717" cx="64" cy="64" r="63.5"/>
	<g>
		<path fill="#E3E6E8" d="M64,95.8c-8,0-14.6,3.5-14.6,7.9h29.1C78.6,99.3,72,95.8,64,95.8z"/>
		<path fill="#5D5E61" d="M64,58.1L64,58.1L64,58.1c-1.1,0-2.2-0.1-3.3-0.2v38c1-0.1,2.1-0.2,3.3-0.2c1.1,0,2.2,0.1,3.3,0.2V58
			C66.2,58.1,65.1,58.1,64,58.1L64,58.1z"/>
		<path fill="#FAF4A6" d="M97.8,24.3H30.2c0,6.3,1.7,12.2,4.7,17.2h58.2C96.1,36.5,97.8,30.6,97.8,24.3z"/>
		<path fill="#E67375" d="M34.9,41.5c5.9,9.9,16.7,16.6,29.1,16.6c12.4,0,23.2-6.7,29.1-16.6H34.9z"/>
	</g>
</g>
</svg>
