<?xml version="1.0" encoding="utf-8"?>
<!-- Generator: Adobe Illustrator 18.1.1, SVG Export Plug-In . SVG Version: 6.00 Build 0)  -->
<svg version="1.1" id="Layer_1" xmlns="http://www.w3.org/2000/svg" xmlns:xlink="http://www.w3.org/1999/xlink" x="0px" y="0px"
	 viewBox="0 0 128 128" enable-background="new 0 0 128 128" xml:space="preserve">
<g>
	<circle fill="#EF4538" cx="64" cy="64" r="63.5"/>
	<g>
		<polygon fill="#E3E6E8" points="39.4,45.8 40.6,59.1 44.5,103.7 75,103.7 78.8,60.4 80.1,45.8 		"/>
		<path fill="#22A79C" d="M59,94.2c-0.1,0-0.2,0-0.3,0c-0.9-0.2-1.4-1-1.2-1.9l13.1-59.8c0.1-0.5,0.4-0.9,0.8-1.1l13.1-6.8
			c0.8-0.4,1.8-0.1,2.2,0.7c0.4,0.8,0.1,1.8-0.7,2.2l-12.5,6.5l-13,59.1C60.4,93.7,59.8,94.2,59,94.2z"/>
		<path fill="#22A79C" d="M45.4,102.7l-3.7-42.5c1.7,0.1,3.5,0.2,5.2,0.2c3,0,6-0.2,9-0.6l0.2,0c0.7-0.1,1.3-0.2,1.9-0.2
			c0.4,0,0.7,0,1,0.1c0.5,0.1,1,0.3,1.5,0.5c0.2,0.1,0.5,0.2,0.7,0.3c1.7,0.6,3.7,0.9,6.1,0.9c1.2,0,2.5-0.1,3.7-0.1
			c0.7,0,1.3-0.1,1.9-0.1c0.5,0,1.1,0,1.6,0c1.2,0,2.2,0.1,3.2,0.2l-3.6,41.5H45.4z"/>
		<rect x="46.1" y="67.5" fill="#E3E6E8" width="8.5" height="8.5"/>
		
			<rect x="54.6" y="79.3" transform="matrix(0.9935 -0.1134 0.1134 0.9935 -9.0978 7.2163)" fill="#E3E6E8" width="8.5" height="8.5"/>
		<rect x="66" y="66" transform="matrix(0.9935 -0.1134 0.1134 0.9935 -7.5174 8.4221)" fill="#E3E6E8" width="8.5" height="8.5"/>
		
			<rect x="62.1" y="91.1" transform="matrix(0.9636 -0.2674 0.2674 0.9636 -23.0831 21.2295)" fill="#E3E6E8" width="8.5" height="8.5"/>
	</g>
</g>
</svg>
