<?xml version="1.0" encoding="utf-8"?>
<!-- Generator: Adobe Illustrator 18.1.1, SVG Export Plug-In . SVG Version: 6.00 Build 0)  -->
<svg version="1.1" id="Layer_1" xmlns="http://www.w3.org/2000/svg" xmlns:xlink="http://www.w3.org/1999/xlink" x="0px" y="0px"
	 viewBox="0 0 128 128" enable-background="new 0 0 128 128" xml:space="preserve">
<g>
	<circle fill="#FFC717" cx="64" cy="64" r="63.5"/>
	<g>
		<path fill="#753A29" d="M40.6,101.9c4.4,4.5,11.9,0,9.8-6c-1.2-3.6-1.9-7.4-1.9-11.4c0-0.3,0-0.6,0-1H29.8
			C31.8,90.5,35.6,96.8,40.6,101.9z"/>
		<path fill="#915037" d="M87,50.3V27.5c-5.4-2.1-11.3-3.1-17.6-2.8c-3.9,0.2-9.5,0.8-13.1,2L71.7,53C76.3,51,86.6,50.3,87,50.3z"/>
		<path fill="#753A29" d="M95.8,49.5c5.9,1.6,9.8-5.9,5.4-10.1c-4.1-3.8-8.9-6.8-14.2-8.9v17.7C90,48.4,93,48.8,95.8,49.5z"/>
		<path fill="#753A29" d="M30.7,56.4C30.7,56.4,30.7,56.5,30.7,56.4l25.6,13.4c3.9-7.4,8.6-11.5,16.4-14.9l-14.5-25l0,0L55,24.3
			C41.5,29.1,30.8,40.1,26.1,54L30.7,56.4z"/>
		<path fill="#915037" d="M24.9,70.5c-0.1,4.5,0.5,8.9,1.7,13h24.1c0.1-5.6,0.8-10.3,3.2-14.9L27.8,54.9
			C26.2,59.3,25,65.6,24.9,70.5z"/>
	</g>
</g>
</svg>
