<?xml version="1.0" encoding="utf-8"?>
<!-- Generator: Adobe Illustrator 18.1.1, SVG Export Plug-In . SVG Version: 6.00 Build 0)  -->
<svg version="1.1" id="Layer_1" xmlns="http://www.w3.org/2000/svg" xmlns:xlink="http://www.w3.org/1999/xlink" x="0px" y="0px"
	 viewBox="0 0 128 128" enable-background="new 0 0 128 128" xml:space="preserve">
<g>
	<circle fill="#EF4538" cx="64" cy="64" r="63.5"/>
	<g>
		<polygon fill="#72B2E1" points="86.4,103.7 42.2,103.7 33.6,65 95,65 		"/>
		<path fill="#FAD839" d="M95.6,63.6c0.8-5.2,0-9-0.9-11.4c0-0.1-0.1-0.2-0.1-0.3c0-0.1-0.1-0.2-0.1-0.4c-0.4-0.9-0.7-1.5-1-1.8
			c0-0.2,0-0.5-0.1-0.7c0,0,0-0.1,0-0.1c0-0.2-0.1-0.5-0.1-0.7c0,0,0,0,0,0c-0.1-1.3-0.5-2.4-1.2-3.2c-0.9-1.1-2.4-1.9-4.1-2.1
			c-0.5-0.1-1-0.1-1.6-0.1c0,0,0,0,0-0.1c0-0.2-0.1-0.4-0.1-0.6c0-0.1,0-0.1,0-0.2c0-0.2-0.1-0.3-0.1-0.5c0-0.1,0-0.2-0.1-0.2
			c0-0.2-0.1-0.3-0.1-0.5c0-0.1,0-0.2-0.1-0.3c0-0.2-0.1-0.3-0.1-0.5c0-0.1-0.1-0.2-0.1-0.3c0-0.2-0.1-0.3-0.1-0.5
			c0-0.1-0.1-0.2-0.1-0.3c0-0.2-0.1-0.3-0.1-0.5c0-0.1-0.1-0.2-0.1-0.3c0-0.1-0.1-0.3-0.1-0.4c0-0.1-0.1-0.2-0.1-0.3
			c-0.1-0.1-0.1-0.3-0.2-0.4c0-0.1-0.1-0.2-0.1-0.3c-0.1-0.1-0.1-0.3-0.2-0.4c0-0.1-0.1-0.2-0.1-0.3c-0.1-0.1-0.1-0.3-0.2-0.4
			c-0.1-0.1-0.1-0.2-0.2-0.3c-0.1-0.1-0.1-0.3-0.2-0.4c-0.1-0.1-0.1-0.2-0.2-0.3c-0.1-0.1-0.1-0.3-0.2-0.4c-0.1-0.1-0.1-0.2-0.2-0.3
			c-0.1-0.1-0.2-0.3-0.3-0.4c-0.1-0.1-0.1-0.2-0.2-0.2c-0.1-0.1-0.2-0.3-0.3-0.4c0-0.1-0.1-0.1-0.1-0.2c-0.3-0.4-0.6-0.7-1-1
			c-1.5-1.4-3.2-2.2-4.9-3.1c-0.3-0.2-0.7-0.3-1-0.5c-0.1,0-0.1-0.1-0.2-0.1c-0.3-0.2-0.6-0.3-0.9-0.4c0,0,0,0-0.1,0
			c-2.5-1.2-4.9-2.2-7.4-2.8c0,0-0.1,0-0.1,0c-0.3-0.1-0.6-0.1-0.9-0.2c-0.2,0-0.3-0.1-0.5-0.1c-0.2,0-0.3-0.1-0.5-0.1
			c-0.2,0-0.4-0.1-0.6-0.1c-0.1,0-0.2,0-0.3,0c-0.2,0-0.4,0-0.7-0.1c-0.1,0-0.1,0-0.2,0c-0.7,0-1.4,0-2.2,0.1c-0.1,0-0.2,0-0.3,0
			c-0.5,0.1-0.9,0.1-1.4,0.2c-0.4,0.1-0.8,0.4-0.9,0.9c-0.1,0.4,0,0.9,0.4,1.2c1.5,1.3,1.8,3.9,0.6,5.5c-0.6,0.7-1.4,1.3-2.3,1.8
			c0,0,0,0,0,0c0,0,0,0-0.1,0c-0.5,0.3-1.1,0.6-1.7,0.8c0,0-0.1,0-0.1,0c-0.2,0.1-0.4,0.2-0.6,0.3c-0.1,0-0.1,0.1-0.2,0.1
			c-0.2,0.1-0.5,0.2-0.7,0.3c0,0-0.1,0-0.1,0.1c-0.2,0.1-0.5,0.2-0.7,0.4c0,0-0.1,0-0.1,0.1c-0.2,0.1-0.5,0.3-0.7,0.4c0,0,0,0,0,0
			c-0.2,0.2-0.4,0.3-0.6,0.5c0,0-0.1,0-0.1,0.1c-0.2,0.2-0.4,0.3-0.5,0.5c0,0-0.1,0.1-0.1,0.1c-0.2,0.2-0.3,0.4-0.4,0.6
			c0,0,0,0.1-0.1,0.1c-0.1,0.2-0.3,0.5-0.4,0.7c0,0,0,0,0,0c-2.2,0-8.3,0.6-12.2,5.4c-0.3,0.3-0.5,0.5-0.7,0.7
			c-0.9,1.1-1.5,2.5-1.8,4.2c-0.3,0.8-0.5,1.6-0.6,2.5c0,0,0,0,0,0c0,0-0.1,0.1-0.1,0.1c-0.2,0.1-0.3,0.2-0.4,0.4
			c-0.1,0.1-0.1,0.1-0.2,0.2c-0.1,0.1-0.2,0.2-0.3,0.4c-0.1,0.1-0.1,0.2-0.2,0.2c-0.1,0.1-0.2,0.3-0.3,0.4c-0.1,0.1-0.1,0.2-0.2,0.3
			c-0.1,0.1-0.1,0.3-0.2,0.5c0,0.1-0.1,0.2-0.1,0.3c-0.1,0.2-0.1,0.3-0.2,0.5c0,0.1-0.1,0.2-0.1,0.3c0,0.2-0.1,0.4-0.1,0.6
			c0,0.1,0,0.2-0.1,0.3c0,0.3-0.1,0.7-0.1,1c-0.1,2.6,0.4,5.3,1.3,7.8c0.2,0.5,0.6,0.8,1.1,0.8h59.6c0.6,0,1.1-0.4,1.2-1
			C95.4,64.7,95.5,64.2,95.6,63.6C95.6,63.6,95.6,63.6,95.6,63.6z M52,40.7C52,40.7,52,40.7,52,40.7c0-0.2,0.1-0.3,0.1-0.4
			c0-0.1,0-0.2,0.1-0.3c0-0.1,0.1-0.2,0.2-0.3c0-0.1,0.1-0.2,0.1-0.2c0.1-0.1,0.1-0.2,0.2-0.3c0.1-0.1,0.1-0.2,0.2-0.2
			c0.1-0.1,0.2-0.1,0.3-0.2c0.1-0.1,0.2-0.1,0.3-0.2c0.1-0.1,0.2-0.1,0.3-0.2c0.1-0.1,0.2-0.1,0.3-0.2c0.1,0,0.1-0.1,0.2-0.1
			c0.6-0.3,1.3-0.7,2-1c1.8-0.9,3.7-1.8,5-3.4c1.2-1.5,1.5-3.4,1.1-5.2c0-0.2-0.1-0.3-0.1-0.5c0-0.1-0.1-0.3-0.1-0.4c0,0,0,0,0,0
			c-0.1-0.3-0.2-0.5-0.4-0.8c4.4-0.2,8.9,1.8,13.5,4.1c1.6,0.8,3.2,1.6,4.4,2.7c0.3,0.3,0.6,0.6,0.9,1c0.1,0.1,0.2,0.2,0.2,0.3
			c0.2,0.2,0.4,0.5,0.5,0.7c0.1,0.1,0.2,0.3,0.3,0.4c0.1,0.2,0.3,0.5,0.4,0.7c0.1,0.2,0.2,0.3,0.2,0.5c0.1,0.2,0.2,0.5,0.3,0.7
			c0.1,0.2,0.1,0.4,0.2,0.6c0.1,0.3,0.2,0.5,0.3,0.8c0.1,0.2,0.1,0.4,0.2,0.6c0.1,0.3,0.2,0.5,0.2,0.8c0.1,0.2,0.1,0.4,0.2,0.7
			c0.1,0.3,0.1,0.6,0.2,0.8c0.1,0.2,0.1,0.5,0.2,0.7c0,0.1,0.1,0.2,0.1,0.4c-1.4,0.4-2.7,1-4,1.6c-0.7,0.3-1.4,0.7-2.1,0.9
			c-5.7,2.3-12.3,1.3-19,0c-1.7-0.3-3.5-0.7-5-1.6C52.9,43.6,51.8,42.1,52,40.7z M37.5,50.2c0-0.1,0-0.1,0-0.2
			c0.2-1.3,0.7-2.3,1.3-3.1c0.1-0.2,0.3-0.4,0.6-0.6c0.1,0,0.1-0.1,0.1-0.2c3.1-3.8,7.9-4.5,10-4.6c0.2,1.9,1.6,3.7,3,4.6
			c1.8,1.2,4.1,1.6,5.8,2c7.1,1.4,14,2.4,20.4-0.1c0.8-0.3,1.5-0.6,2.3-1c2.7-1.2,5.2-2.4,7.4-1.4c1.3,0.6,2.1,1.8,2.4,3.2
			c0,0,0,0,0,0c0,0.1,0.1,0.3,0.1,0.4c-0.1,0.2-0.1,0.3-0.2,0.5l0,0.2c-0.1,0.9-0.2,1.9-0.5,2.8c-1.1,2-3.2,3.5-5.9,4.3
			c-2.9,0.8-6,0.7-9.1,0.7l-9.1-0.3c-2.1-0.1-4.1-0.2-6.1-0.3c-2-0.1-4.1-0.3-6.2-0.3c-3.4-0.1-6.5-1.1-9.4-3.1
			c-1.7-1.2-4.6-2.8-7.4-2.7C37.3,50.9,37.4,50.5,37.5,50.2z M35.3,63.8c-0.6-1.9-0.9-4-0.9-6.1c0-0.2,0-0.4,0.1-0.7
			c0,0,0-0.1,0-0.1c0-0.1,0-0.1,0-0.2c0-0.1,0-0.2,0.1-0.3c0-0.1,0-0.1,0-0.2c0-0.1,0.1-0.3,0.1-0.4c0,0,0-0.1,0.1-0.1
			c0-0.1,0.1-0.3,0.2-0.4c0,0,0.1-0.1,0.1-0.1c0.1-0.1,0.1-0.3,0.2-0.4c0,0,0.1-0.1,0.1-0.1c0.1-0.1,0.2-0.2,0.3-0.3
			c0,0,0.1-0.1,0.1-0.1c0.1-0.1,0.2-0.2,0.4-0.2c2.4-1,5.7,1,7.1,2c3.3,2.3,6.8,3.4,10.7,3.6c2.1,0.1,4.1,0.2,6.1,0.3
			c2,0.1,4.1,0.3,6.2,0.3l9.2,0.3c3.2,0.1,6.5,0.2,9.7-0.7c3.4-1,6.2-3.1,7.5-5.8c0.7,2.2,1.3,5.5,0.5,10H35.3z"/>
		<path fill="#FAF4A6" d="M56.2,37.1c-0.7,0.3-1.4,0.7-2,1c-0.1,0-0.1,0.1-0.2,0.1c-0.1,0.1-0.2,0.1-0.3,0.2
			c-0.1,0.1-0.2,0.1-0.3,0.2c-0.1,0.1-0.2,0.1-0.3,0.2C53.1,38.9,53,39,52.9,39c-0.1,0.1-0.1,0.1-0.2,0.2c-0.1,0.1-0.2,0.2-0.2,0.3
			c-0.1,0.1-0.1,0.2-0.1,0.2c-0.1,0.1-0.1,0.2-0.2,0.3c0,0.1-0.1,0.2-0.1,0.3c0,0.1-0.1,0.2-0.1,0.3c0,0,0,0,0,0
			c-0.2,1.4,0.8,2.8,1.9,3.6c1.4,0.9,3.3,1.3,5,1.6c6.8,1.3,13.3,2.3,19,0c0.7-0.3,1.4-0.6,2.1-0.9c1.3-0.6,2.6-1.2,4-1.6
			c0-0.1-0.1-0.3-0.1-0.4c-0.1-0.2-0.1-0.5-0.2-0.7c-0.1-0.3-0.1-0.6-0.2-0.8c-0.1-0.2-0.1-0.4-0.2-0.7c-0.1-0.3-0.2-0.5-0.2-0.8
			c-0.1-0.2-0.1-0.4-0.2-0.6c-0.1-0.3-0.2-0.5-0.3-0.8c-0.1-0.2-0.1-0.4-0.2-0.6c-0.1-0.3-0.2-0.5-0.3-0.7c-0.1-0.2-0.2-0.4-0.2-0.5
			c-0.1-0.2-0.3-0.5-0.4-0.7c-0.1-0.1-0.2-0.3-0.3-0.4c-0.2-0.3-0.3-0.5-0.5-0.7c-0.1-0.1-0.2-0.2-0.2-0.3c-0.3-0.3-0.6-0.7-0.9-1
			c-1.2-1.1-2.8-1.9-4.4-2.7c-4.6-2.3-9.1-4.3-13.5-4.1c0.1,0.3,0.3,0.5,0.4,0.8c0,0,0,0,0,0c0,0.1,0.1,0.3,0.1,0.4
			c0,0.2,0.1,0.3,0.1,0.5c0.4,1.8,0,3.7-1.1,5.2C59.9,35.3,58,36.2,56.2,37.1z"/>
		<path fill="#FAF4A6" d="M49.6,41.7c-2.1,0.1-7,0.7-10,4.6c0,0.1-0.1,0.1-0.1,0.2c-0.2,0.2-0.4,0.4-0.6,0.6
			c-0.6,0.8-1.1,1.8-1.3,3.1c0,0.1,0,0.1,0,0.2c-0.1,0.4-0.2,0.7-0.3,1.1c2.8-0.1,5.7,1.5,7.4,2.7c2.9,2,6,3,9.4,3.1
			c2.1,0.1,4.2,0.2,6.2,0.3c2,0.1,4.1,0.2,6.1,0.3l9.1,0.3c3.1,0.1,6.2,0.2,9.1-0.7c2.7-0.8,4.8-2.3,5.9-4.3
			c0.2-0.9,0.4-1.9,0.5-2.8l0-0.2c0-0.2,0.1-0.4,0.2-0.5c0-0.1,0-0.3-0.1-0.4c0,0,0,0,0,0c-0.3-1.4-1.1-2.7-2.4-3.2
			c-2.2-1-4.8,0.2-7.4,1.4c-0.7,0.3-1.5,0.7-2.3,1c-6.3,2.5-13.3,1.5-20.4,0.1c-1.8-0.3-4-0.8-5.8-2C51.2,45.3,49.8,43.6,49.6,41.7z
			"/>
		<path fill="#FAF4A6" d="M35.8,54.2c0,0-0.1,0.1-0.1,0.1c-0.1,0.1-0.2,0.2-0.3,0.3c0,0-0.1,0.1-0.1,0.1c-0.1,0.1-0.2,0.3-0.2,0.4
			c0,0-0.1,0.1-0.1,0.1c-0.1,0.1-0.1,0.3-0.2,0.4c0,0,0,0.1-0.1,0.1c0,0.1-0.1,0.3-0.1,0.4c0,0.1,0,0.1,0,0.2c0,0.1,0,0.2-0.1,0.3
			c0,0.1,0,0.1,0,0.2c0,0,0,0.1,0,0.1c0,0.3,0,0.5-0.1,0.7c-0.1,2,0.2,4.1,0.9,6.1h57.8c0.8-4.5,0.2-7.8-0.5-10
			c-1.3,2.7-4.1,4.8-7.5,5.8c-3.2,0.9-6.5,0.8-9.7,0.7l-9.2-0.3c-2.1-0.1-4.2-0.2-6.2-0.3c-2-0.1-4.1-0.2-6.1-0.3
			c-3.9-0.1-7.4-1.3-10.7-3.6c-1.3-0.9-4.7-3-7.1-2C36,54,35.9,54.1,35.8,54.2z"/>
		<path fill="#BAC6CC" d="M49.9,95.8c-0.9,0-1.6-0.7-1.6-1.6V72.5c0-0.9,0.7-1.6,1.6-1.6s1.6,0.7,1.6,1.6v21.7
			C51.5,95.1,50.8,95.8,49.9,95.8z"/>
		<path fill="#BAC6CC" d="M59.5,95.8c-0.9,0-1.6-0.7-1.6-1.6V72.5c0-0.9,0.7-1.6,1.6-1.6c0.9,0,1.6,0.7,1.6,1.6v21.7
			C61.1,95.1,60.4,95.8,59.5,95.8z"/>
		<path fill="#BAC6CC" d="M69.1,95.8c-0.9,0-1.6-0.7-1.6-1.6V72.5c0-0.9,0.7-1.6,1.6-1.6s1.6,0.7,1.6,1.6v21.7
			C70.7,95.1,70,95.8,69.1,95.8z"/>
		<path fill="#BAC6CC" d="M78.7,95.8c-0.9,0-1.6-0.7-1.6-1.6V72.5c0-0.9,0.7-1.6,1.6-1.6c0.9,0,1.6,0.7,1.6,1.6v21.7
			C80.3,95.1,79.6,95.8,78.7,95.8z"/>
	</g>
</g>
</svg>
