<?xml version="1.0" encoding="utf-8"?>
<!-- Generator: Adobe Illustrator 18.1.1, SVG Export Plug-In . SVG Version: 6.00 Build 0)  -->
<svg version="1.1" id="Layer_1" xmlns="http://www.w3.org/2000/svg" xmlns:xlink="http://www.w3.org/1999/xlink" x="0px" y="0px"
	 viewBox="0 0 128 128" enable-background="new 0 0 128 128" xml:space="preserve">
<g>
	<circle fill="#FFC717" cx="64" cy="64" r="63.5"/>
	<g>
		<path fill="#D62E2F" d="M43.6,58L70,84.4l-4.8,4.8c-2.3,2.3-6.1,2.3-8.4,0L38.8,71.2c-2.3-2.3-2.3-6.1,0-8.4L43.6,58z"/>
		<path fill="#E3E6E8" d="M76.8,25.7l25.5,25.5c2,2,1.8,5.3-0.4,7.1L70,84.4L43.6,58l26.1-31.9C71.5,23.9,74.8,23.7,76.8,25.7z"/>
		<path fill="#FFFFFF" d="M41.2,103.7c-0.4,0-0.7-0.1-1-0.4c-0.6-0.6-0.6-1.5,0-2.1l1.6-1.6c0.6-0.6,1.5-0.6,2.1,0
			c0.6,0.6,0.6,1.5,0,2.1l-1.6,1.6C42,103.5,41.6,103.7,41.2,103.7z"/>
		<path fill="#FFFFFF" d="M33.5,96c-0.4,0-0.7-0.1-1-0.4c-0.6-0.6-0.6-1.5,0-2.1l1.6-1.6c0.6-0.6,1.5-0.6,2.1,0
			c0.6,0.6,0.6,1.5,0,2.1l-1.6,1.6C34.3,95.8,33.9,96,33.5,96z"/>
		<path fill="#FFFFFF" d="M25.8,88.2c-0.4,0-0.7-0.1-1-0.4c-0.6-0.6-0.6-1.5,0-2.1l1.6-1.6c0.6-0.6,1.5-0.6,2.1,0
			c0.6,0.6,0.6,1.5,0,2.1l-1.6,1.6C26.5,88.1,26.1,88.2,25.8,88.2z"/>
		<path fill="#FFFFFF" d="M37.4,99.8c-0.4,0-0.7-0.1-1-0.4c-0.6-0.6-0.6-1.5,0-2.1l1.6-1.6c0.6-0.6,1.5-0.6,2.1,0
			c0.6,0.6,0.6,1.5,0,2.1l-1.6,1.6C38.1,99.7,37.8,99.8,37.4,99.8z"/>
		<path fill="#FFFFFF" d="M29.6,92.1c-0.4,0-0.7-0.1-1-0.4c-0.6-0.6-0.6-1.5,0-2.1l1.6-1.6c0.6-0.6,1.5-0.6,2.1,0
			c0.6,0.6,0.6,1.5,0,2.1l-1.6,1.6C30.4,91.9,30,92.1,29.6,92.1z"/>
		<path fill="#FFFFFF" d="M44.1,97c-0.4,0-0.7-0.1-1-0.4c-0.6-0.6-0.6-1.5,0-2.1l1.6-1.6c0.6-0.6,1.5-0.6,2.1,0
			c0.6,0.6,0.6,1.5,0,2.1l-1.6,1.6C44.8,96.8,44.5,97,44.1,97z"/>
		<path fill="#FFFFFF" d="M36.4,89.2c-0.4,0-0.7-0.1-1-0.4c-0.6-0.6-0.6-1.5,0-2.1l1.6-1.6c0.6-0.6,1.5-0.6,2.1,0
			c0.6,0.6,0.6,1.5,0,2.1l-1.6,1.6C37.1,89.1,36.7,89.2,36.4,89.2z"/>
		<path fill="#FFFFFF" d="M40.2,93.1c-0.4,0-0.7-0.1-1-0.4c-0.6-0.6-0.6-1.5,0-2.1l1.6-1.6c0.6-0.6,1.5-0.6,2.1,0
			c0.6,0.6,0.6,1.5,0,2.1l-1.6,1.6C41,93,40.6,93.1,40.2,93.1z"/>
		<path fill="#FFFFFF" d="M32.5,85.4c-0.4,0-0.7-0.1-1-0.4c-0.6-0.6-0.6-1.5,0-2.1l1.6-1.6c0.6-0.6,1.5-0.6,2.1,0
			c0.6,0.6,0.6,1.5,0,2.1l-1.6,1.6C33.2,85.2,32.9,85.4,32.5,85.4z"/>
		<path fill="#FFFFFF" d="M50.8,94.1c-0.4,0-0.7-0.1-1-0.4c-0.6-0.6-0.6-1.5,0-2.1l1.6-1.6c0.6-0.6,1.5-0.6,2.1,0
			c0.6,0.6,0.6,1.5,0,2.1l-1.6,1.6C51.5,94,51.2,94.1,50.8,94.1z"/>
		<path fill="#FFFFFF" d="M43.1,86.4c-0.4,0-0.7-0.1-1-0.4c-0.6-0.6-0.6-1.5,0-2.1l1.6-1.6c0.6-0.6,1.5-0.6,2.1,0
			c0.6,0.6,0.6,1.5,0,2.1L44.1,86C43.8,86.3,43.4,86.4,43.1,86.4z"/>
		<path fill="#FFFFFF" d="M35.3,78.7c-0.4,0-0.7-0.1-1-0.4c-0.6-0.6-0.6-1.5,0-2.1l1.6-1.6c0.6-0.6,1.5-0.6,2.1,0
			c0.6,0.6,0.6,1.5,0,2.1l-1.6,1.6C36.1,78.5,35.7,78.7,35.3,78.7z"/>
		<path fill="#FFFFFF" d="M46.9,90.3c-0.4,0-0.7-0.1-1-0.4c-0.6-0.6-0.6-1.5,0-2.1l1.6-1.6c0.6-0.6,1.5-0.6,2.1,0
			c0.6,0.6,0.6,1.5,0,2.1L48,89.8C47.7,90.1,47.3,90.3,46.9,90.3z"/>
		<path fill="#FFFFFF" d="M39.2,82.5c-0.4,0-0.7-0.1-1-0.4c-0.6-0.6-0.6-1.5,0-2.1l1.6-1.6c0.6-0.6,1.5-0.6,2.1,0
			c0.6,0.6,0.6,1.5,0,2.1l-1.6,1.6C39.9,82.4,39.6,82.5,39.2,82.5z"/>
	</g>
</g>
</svg>
