<?xml version="1.0" encoding="utf-8"?>
<!-- Generator: Adobe Illustrator 18.1.1, SVG Export Plug-In . SVG Version: 6.00 Build 0)  -->
<svg version="1.1" id="Layer_1" xmlns="http://www.w3.org/2000/svg" xmlns:xlink="http://www.w3.org/1999/xlink" x="0px" y="0px"
	 viewBox="0 0 128 128" enable-background="new 0 0 128 128" xml:space="preserve">
<g>
	<circle fill="#EF4538" cx="64" cy="64" r="63.5"/>
	<g>
		<path fill="#FACDD4" d="M91.1,77.6c0-9.8-12.1-17.7-27.1-17.7s-27.1,7.9-27.1,17.7c0,7.3,6.7,13.5,16.2,16.2
			c3.4,1,6.5,3.1,8.4,6.1c0.8,1.2,1.5,2.5,2.1,3.8c4.1-2.4,7.9-5.3,11.2-8.6c1.2-1.2,2.7-2.1,4.3-2.8C86.3,89.1,91.1,83.7,91.1,77.6
			z"/>
		<path fill="#22A79C" d="M57.7,48.3c1.4,0.8,3.4,0.7,4.4,2c0.5,0.6,0.6,1.5,0.7,2.2c0.2,2.4,0.1,4.9-0.4,7.3c0.6,0,1.1-0.1,1.7-0.1
			c0.8,0,1.6,0,2.3,0.1c0-3-0.1-6-0.1-9c0-0.5,0-1,0.2-1.5c0.9-2.3,4.9-0.7,6.6-2.5c1-1,0.9-2.6,0.5-3.9c-0.4-1.3-1.2-2.6-1.2-4
			c0-2.1,1.6-4.4,0.5-6.2c-1.6,0.2-3.2,0.2-4.8,0.1c0-2.9-0.1-5.8-0.1-8.7c-1.7,3.1-3.9,5.9-6.6,8.3c-0.3,0.3-0.7,0.5-1.1,0.5
			c-0.3-0.1-0.5-0.3-0.8-0.4c-1-0.6-2.5,0.1-3,1.2c-0.5,1.1-0.4,2.4-0.3,3.6c-0.4-0.9-1.1-1.7-2-2.1c0.3,2.4,0.5,4.7,0.8,7.1
			C55.2,44.6,55.7,47.2,57.7,48.3z"/>
	</g>
</g>
</svg>
