<?xml version="1.0" encoding="utf-8"?>
<!-- Generator: Adobe Illustrator 18.1.1, SVG Export Plug-In . SVG Version: 6.00 Build 0)  -->
<svg version="1.1" id="Layer_1" xmlns="http://www.w3.org/2000/svg" xmlns:xlink="http://www.w3.org/1999/xlink" x="0px" y="0px"
	 viewBox="0 0 128 128" enable-background="new 0 0 128 128" xml:space="preserve">
<g>
	<circle fill="#EF4538" cx="64" cy="64" r="63.5"/>
	<g>
		<ellipse fill="#915037" cx="56.5" cy="36" rx="31.2" ry="11.7"/>
		<path fill="#FCD83A" d="M56.5,47.7c-17.2,0-31.2-5.2-31.2-11.7v15.6c0,6.5,14,11.7,31.2,11.7c17.2,0,31.2-5.2,31.2-11.7V36
			C87.7,42.4,73.8,47.7,56.5,47.7z"/>
		<path fill="#753A29" d="M37.8,40c-0.4,0-0.9-0.2-1.2-0.6L36,38.4c-0.5-0.7-0.4-1.7,0.2-2.3c0.6-0.6,1.6-0.5,2.1,0.2l0.7,0.9
			c0.5,0.7,0.4,1.7-0.2,2.3C38.5,39.8,38.2,40,37.8,40z"/>
		<path fill="#753A29" d="M46.3,33.5c-0.7,0-1.3-0.5-1.5-1.3c-0.7-0.3-1.1-1-1-1.8c0.1-0.9,0.9-1.5,1.7-1.4c1.3,0.2,2.2,1.4,2.3,2.8
			C47.8,32.8,47.2,33.5,46.3,33.5C46.3,33.5,46.3,33.5,46.3,33.5z"/>
		<path fill="#753A29" d="M62.5,32.6c-0.4,0-0.9-0.2-1.2-0.6c-0.8,0-1.4-0.6-1.5-1.4c-0.1-0.9,0.4-1.7,1.3-1.8
			c1-0.2,2.1,0.3,2.7,1.3c0.5,0.8,0.3,1.8-0.4,2.3C63.1,32.5,62.8,32.6,62.5,32.6z"/>
		<path fill="#753A29" d="M53.9,42.9c-0.2,0-0.4,0-0.6-0.1c-0.9-0.4-1.7-1.1-2.3-2c-0.5-0.7-0.3-1.8,0.4-2.3
			c0.7-0.5,1.6-0.3,2.1,0.4c0.2,0.4,0.6,0.7,1,0.9c0.8,0.3,1.1,1.3,0.8,2.1C55,42.6,54.4,42.9,53.9,42.9z"/>
		<path fill="#753A29" d="M55.8,35.8c-0.5,0-1-0.3-1.3-0.8L54,34.1c-0.4-0.8-0.2-1.8,0.5-2.2c0.7-0.5,1.6-0.2,2.1,0.6l0.5,0.9
			c0.4,0.8,0.2,1.8-0.5,2.2C56.3,35.7,56,35.8,55.8,35.8z"/>
		<path fill="#753A29" d="M67.9,41.3c-0.1,0-0.2,0-0.3,0l-2.3-0.5c-0.8-0.2-1.3-1-1.2-1.9c0.2-0.9,1-1.4,1.8-1.3l2.3,0.5
			c0.8,0.2,1.3,1,1.2,1.9C69.3,40.7,68.6,41.3,67.9,41.3z"/>
		<path fill="#753A29" d="M76.4,35.4c-0.1,0-0.2,0-0.2,0l-1-0.2c-0.8-0.1-1.4-1-1.2-1.9c0.1-0.9,0.9-1.5,1.7-1.3l1,0.2
			c0.8,0.1,1.4,1,1.2,1.9C77.8,34.8,77.2,35.4,76.4,35.4z"/>
		
			<ellipse transform="matrix(0.7685 0.6398 -0.6398 0.7685 62.9925 -34.5403)" fill="#915037" cx="79.2" cy="69.8" rx="31.2" ry="11.7"/>
		<path fill="#FAF4A6" d="M71.8,78.8c-13.2-11-20.6-24-16.5-28.9l-10,12c-4.1,5,3.3,17.9,16.5,28.9c13.2,11,27.3,15.9,31.4,11l10-12
			C99.1,94.7,85,89.8,71.8,78.8z"/>
		<path fill="#753A29" d="M62.3,60.9c-0.3-0.3-0.5-0.7-0.5-1.2l0-1.2c0-0.9,0.8-1.6,1.6-1.6c0.9,0,1.5,0.6,1.5,1.5l0,1.2
			c0,0.9-0.8,1.6-1.6,1.6C62.9,61.2,62.6,61.1,62.3,60.9z"/>
		<path fill="#753A29" d="M72.9,61.4c-0.5-0.5-0.7-1.3-0.3-1.9c-0.3-0.6-0.2-1.4,0.4-2c0.7-0.6,1.6-0.6,2.2,0c0.8,0.9,0.8,2.5,0,3.6
			C74.6,61.7,73.6,61.9,72.9,61.4C72.9,61.4,72.9,61.4,72.9,61.4z"/>
		<path fill="#753A29" d="M86,71c-0.3-0.3-0.5-0.7-0.5-1.2c-0.6-0.5-0.7-1.3-0.3-2.1c0.5-0.8,1.4-1,2.2-0.6c0.9,0.5,1.4,1.6,1.2,2.7
			c-0.1,0.9-0.9,1.5-1.8,1.5C86.5,71.3,86.2,71.2,86,71z"/>
		<path fill="#753A29" d="M72.7,73.4c-0.1-0.1-0.3-0.3-0.4-0.5c-0.4-0.9-0.6-2-0.5-3c0.1-0.9,0.9-1.5,1.8-1.5
			c0.8,0.1,1.4,0.8,1.3,1.7c-0.1,0.4,0,0.9,0.2,1.3c0.4,0.8,0,1.7-0.7,2.2C73.8,73.9,73.2,73.8,72.7,73.4z"/>
		<path fill="#753A29" d="M78.8,69.1c-0.4-0.3-0.6-0.9-0.5-1.4l0.2-1.1c0.2-0.9,1-1.5,1.8-1.4c0.8,0.1,1.4,0.9,1.2,1.7l-0.2,1.1
			c-0.2,0.9-1,1.5-1.8,1.4C79.2,69.4,79,69.3,78.8,69.1z"/>
		<path fill="#753A29" d="M84.6,81.1c-0.1-0.1-0.1-0.1-0.2-0.2L83,79.1c-0.5-0.7-0.4-1.7,0.3-2.2c0.7-0.6,1.7-0.5,2.2,0.1l1.4,1.8
			c0.5,0.7,0.4,1.7-0.3,2.2C86,81.6,85.1,81.6,84.6,81.1z"/>
		<path fill="#753A29" d="M94.9,82.1c-0.1-0.1-0.1-0.1-0.2-0.2L94,81.1c-0.5-0.6-0.4-1.6,0.2-2.2c0.7-0.6,1.7-0.6,2.2,0.1l0.7,0.8
			c0.5,0.6,0.4,1.6-0.2,2.2C96.3,82.5,95.5,82.5,94.9,82.1z"/>
	</g>
</g>
</svg>
