<?xml version="1.0" encoding="utf-8"?>
<!-- Generator: Adobe Illustrator 18.1.1, SVG Export Plug-In . SVG Version: 6.00 Build 0)  -->
<svg version="1.1" id="Layer_1" xmlns="http://www.w3.org/2000/svg" xmlns:xlink="http://www.w3.org/1999/xlink" x="0px" y="0px"
	 viewBox="0 0 128 128" enable-background="new 0 0 128 128" xml:space="preserve">
<g>
	<circle fill="#FFC717" cx="64" cy="64" r="63.5"/>
	<g>
		<path fill="#D62E2F" d="M40.2,27.6c0.1,0.2,0.3,0.4,0.4,0.6c7.8,12.9,17.2,24.6,27.9,35.1c9.6,9.3,20.2,17.6,31.7,24.6
			c0.1,0.1,0.2,0.1,0.2,0.2l0.1,0c0.8-0.5,1.6-1.2,2.1-2.2c1.6-3,0.5-6.8-2.5-8.6C80.1,65,63.2,48.2,51,28c-1.8-3-5.6-4.1-8.6-2.5
			C41.5,26,40.8,26.8,40.2,27.6z"/>
		<path fill="#D62E2F" d="M37.2,42.8c12.2,20.1,29.1,37,49.2,49.2c3,1.8,4.1,5.6,2.5,8.6l0,0c-1.6,3-5.7,4-8.9,2
			C58.1,89.4,39.8,71.1,26.6,49.3c-2-3.3-1-7.3,2-8.9l0,0C31.6,38.7,35.4,39.9,37.2,42.8z"/>
		<path fill="#915037" d="M100.3,87.8c-11.5-7-22.1-15.2-31.7-24.6C57.9,52.8,48.5,41.1,40.7,28.2c-2.2-3.6-6.8-5-10.4-3
			c-3.6,2-4.8,6.9-2.4,10.8c0.5,0.8,1,1.6,1.4,2.3c0,0,0.4,0.5,1,1.4c2.6-0.5,5.4,0.7,6.9,3.1c12.2,20.1,29.1,37,49.2,49.2
			c2.4,1.5,3.6,4.2,3.1,6.8l0.3,0.1c0.9,0.6,1.8,1.1,2.7,1.7c3.9,2.4,8.8,1.2,10.8-2.4C105.3,94.6,103.9,90,100.3,87.8z"/>
		<path fill="#E3E6E8" d="M94,93.2c-0.2,0-0.5-0.1-0.7-0.2c-1.8-1-3.1-2.5-4.3-4c-0.8-1-1.6-1.9-2.4-2.6c-0.9-0.7-1.9-1.3-2.9-1.9
			c-1.3-0.7-2.6-1.5-3.8-2.6c-0.9-0.8-1.6-1.7-2.3-2.6c-1.2-1.5-2.4-3-3.9-3.4c-0.3-0.1-0.6-0.1-0.9-0.1c-0.6-0.1-1.3-0.2-2-0.5
			c-1.7-0.7-2.5-2.2-3.2-3.5c-0.3-0.6-0.6-1.2-1-1.7c-0.8-1-2.1-1.6-3.5-2.3c-1.9-0.9-4.1-2-5.2-4.3c-0.4-0.8-0.5-1.6-0.6-2.3
			c-0.1-0.7-0.3-1.3-0.5-1.8c-0.4-0.8-1.3-1.4-2.2-2c-3.9-2.7-8.4-6.3-9.7-11.6l-0.1-0.3c-0.1-0.4-0.2-0.7-0.3-0.9
			c-0.2-0.2-0.6-0.4-1.1-0.5c-0.3-0.1-0.6-0.2-0.8-0.3c-2.8-1.1-4.5-4.3-3.8-7.3c0.2-0.8,1-1.3,1.7-1.1c0.8,0.2,1.3,1,1.1,1.7
			c-0.4,1.5,0.6,3.3,2.1,3.9c0.2,0.1,0.4,0.1,0.6,0.2c0.8,0.3,1.8,0.6,2.5,1.5c0.5,0.7,0.7,1.4,0.9,2.1l0.1,0.2
			c1,4.3,5.1,7.5,8.4,9.8c1.2,0.8,2.5,1.7,3.2,3.1c0.5,0.9,0.6,1.8,0.8,2.6c0.1,0.6,0.2,1.2,0.4,1.6c0.6,1.3,2.1,2,3.8,2.9
			c1.6,0.8,3.3,1.6,4.5,3.1c0.5,0.7,0.9,1.4,1.3,2.1c0.6,1,1,1.9,1.8,2.2c0.3,0.1,0.7,0.2,1.2,0.3c0.4,0.1,0.8,0.1,1.2,0.2
			c2.5,0.6,4.1,2.6,5.5,4.4c0.7,0.8,1.3,1.6,2,2.3c0.9,0.8,2,1.5,3.2,2.2c1.1,0.6,2.3,1.3,3.4,2.2c1.1,0.9,1.9,1.9,2.8,2.9
			c1.1,1.3,2.2,2.6,3.5,3.3c0.7,0.4,1,1.3,0.6,2C95.1,92.9,94.6,93.2,94,93.2z"/>
	</g>
</g>
</svg>
