<?xml version="1.0" encoding="utf-8"?>
<!-- Generator: Adobe Illustrator 18.1.1, SVG Export Plug-In . SVG Version: 6.00 Build 0)  -->
<svg version="1.1" id="Layer_1" xmlns="http://www.w3.org/2000/svg" xmlns:xlink="http://www.w3.org/1999/xlink" x="0px" y="0px"
	 viewBox="0 0 128 128" enable-background="new 0 0 128 128" xml:space="preserve">
<g>
	<circle fill="#388CCB" cx="64" cy="64" r="63.5"/>
	<g>
		<ellipse fill="#D62E2F" cx="64.9" cy="72.7" rx="38.3" ry="32"/>
		<path fill="#41B655" d="M51.4,51.6l-12.7-4c0,0,26.6-18.6,51.7,0l-11.5,4l-2.5,8.7L64.6,49.8L52.9,60.3L51.4,51.6z"/>
		<path fill="#915037" d="M65.5,44.4c-0.8,0-1.6-0.5-1.9-1.4c-1.5-4.7-2.1-14.9,6.4-19.4c1-0.5,2.2-0.2,2.7,0.8
			c0.5,1,0.2,2.2-0.8,2.7c-7.7,4.2-4.6,14.3-4.5,14.8c0.3,1-0.3,2.2-1.3,2.5C65.9,44.4,65.7,44.4,65.5,44.4z"/>
	</g>
</g>
</svg>
