<?xml version="1.0" encoding="utf-8"?>
<!-- Generator: Adobe Illustrator 18.1.1, SVG Export Plug-In . SVG Version: 6.00 Build 0)  -->
<svg version="1.1" id="Layer_1" xmlns="http://www.w3.org/2000/svg" xmlns:xlink="http://www.w3.org/1999/xlink" x="0px" y="0px"
	 viewBox="0 0 128 128" enable-background="new 0 0 128 128" xml:space="preserve">
<g>
	<circle fill="#FFC717" cx="64" cy="64" r="63.5"/>
	<g>
		<path fill="#E3E6E8" d="M64,103.7L64,103.7c-3.4,0-6.1-2.7-6.1-6.1V83.8h12.2v13.8C70.1,100.9,67.4,103.7,64,103.7z"/>
		<path fill="#753A29" d="M47.6,64.7c1.1-4.3,2.4-8.6,3.8-12.9c0.2-0.5,0.5-1.1,1-1c0.4,0.1,0.6,0.6,0.6,1
			c0.9,5.7-0.4,11.4-0.3,17.2c0,0.5,0,1.1,0.2,1.6c0.2,0.5,0.7,0.9,1.2,1c1,0.1,1.6-1,1.9-2c0.3-1.2,0.4-2.4,0.4-3.6
			c0.2-3.8,0.4-7.7,0.5-11.5c0-0.4,0-0.8,0.2-1.1c0.2-0.3,0.5-0.6,0.9-0.6c0.4,0.1,0.6,0.4,0.8,0.8c1.9,3.5,0.6,8.2,3.1,11.3
			c0.1,0.1,0.2,0.3,0.4,0.3c0.3,0.2,0.7,0,1-0.2c0.7-0.6,1-1.5,1.2-2.4c0.5-2.1,1-4.1,1.6-6.2c0.2-0.8,0.4-1.7,0.7-2.5
			c0.3-0.9,1.7-0.9,2,0c1.5,4.6,0.8,9.9,2.5,14.6c0.3,0.8,0.9,1.7,1.7,1.7c0.4,0,0.8-0.3,1.1-0.7c0.8-0.9,0.9-2.2,0.9-3.5
			c0.1-1.6,0.3-3.1,0.5-4.7c0.1-0.6,1-0.7,1.2-0.1c0.3,0.8,0.6,1.6,0.9,2.4c0.1,0.4,0.3,0.7,0.6,1c0.6,0.5,1.5,0.3,2.2,0
			c0.5-0.2,1-0.5,1.4-0.7V42.3c0-9.9-8.1-18-18-18l0,0c-9.9,0-18,8.1-18,18v25.9c0.2-0.2,0.3-0.4,0.5-0.6
			C47,66.8,47.3,65.8,47.6,64.7z"/>
		<path fill="#FAF4A6" d="M80.6,64.7c-0.7,0.3-1.6,0.5-2.2,0c-0.3-0.3-0.4-0.6-0.6-1c-0.3-0.8-0.6-1.6-0.9-2.4
			c-0.2-0.6-1.1-0.5-1.2,0.1c-0.2,1.6-0.4,3.1-0.5,4.7c-0.1,1.2-0.2,2.5-0.9,3.5c-0.3,0.3-0.7,0.6-1.1,0.7c-0.9,0-1.4-0.9-1.7-1.7
			c-1.7-4.7-1-10-2.5-14.6c-0.3-0.9-1.6-1-2,0c-0.3,0.8-0.5,1.7-0.7,2.5c-0.5,2.1-1,4.1-1.6,6.2c-0.2,0.9-0.5,1.9-1.2,2.4
			c-0.3,0.2-0.7,0.4-1,0.2c-0.1-0.1-0.3-0.2-0.4-0.3c-2.5-3.1-1.2-7.9-3.1-11.3c-0.2-0.3-0.4-0.7-0.8-0.8c-0.4-0.1-0.7,0.2-0.9,0.6
			c-0.2,0.3-0.2,0.7-0.2,1.1c-0.1,3.9-0.3,7.7-0.5,11.5c-0.1,1.2-0.1,2.4-0.4,3.6c-0.2,1-0.9,2.1-1.9,2c-0.5-0.1-1-0.5-1.2-1
			c-0.2-0.5-0.2-1.1-0.2-1.6c-0.1-5.7,1.2-11.5,0.3-17.2c-0.1-0.4-0.2-0.9-0.6-1c-0.5-0.1-0.8,0.5-1,1c-1.4,4.2-2.7,8.5-3.8,12.9
			c-0.3,1-0.5,2-1.1,2.9c-0.1,0.2-0.3,0.4-0.5,0.6v15.5h36V64C81.5,64.2,81.1,64.5,80.6,64.7z"/>
	</g>
</g>
</svg>
