<?xml version="1.0" encoding="utf-8"?>
<!-- Generator: Adobe Illustrator 18.1.1, SVG Export Plug-In . SVG Version: 6.00 Build 0)  -->
<svg version="1.1" id="Layer_1" xmlns="http://www.w3.org/2000/svg" xmlns:xlink="http://www.w3.org/1999/xlink" x="0px" y="0px"
	 viewBox="0 0 90 90" enable-background="new 0 0 90 90" xml:space="preserve">
<g>
	<circle fill="#41B655" cx="45" cy="45" r="44.6"/>
	<g>
		<path fill="#753A29" d="M55.2,69.5c-2,0-3.7-1.5-3.9-3.5c0-0.3-0.1-0.6-0.1-0.9c-3.9,0.6-7.7,0.4-11.5-0.4L39.5,66
			c-0.3,2.1-2.3,3.6-4.4,3.2C33,69,31.6,67,31.9,64.9l0.4-2.7c-1.7-0.8-3.2-1.8-4.6-2.9c-4.3-3.5-10.8-13-9.9-23.3
			c0.3-3.6,1.1-8.7,4.8-12.3c3.4-3.3,8.6-4.4,14.3-3.2c3,0.7,6,2.5,8.3,4.1c0.4-0.4,0.7-0.6,1.1-0.9c4.3-3.2,13.5-5.8,21.2,0.4
			c4.3,3.4,6.4,9.4,6.1,16.8c-0.6,14.6-8.7,20-14.6,22.1c0.1,0.7,0.1,1.4,0.2,2.1c0.1,2.1-1.4,4-3.5,4.1
			C55.4,69.5,55.3,69.5,55.2,69.5z M40.8,57.1c3.2,0.7,6.5,0.8,9.7,0.3c-0.8-6.9-2-13.6-4.7-19.8l0,0c-1.5,2.9-3.1,7.1-4.2,14.5
			C41.3,53.7,41.1,55.4,40.8,57.1z M50.7,30.2c1,1.5,1.7,3,2.2,4.2c3,6.7,4.3,13.9,5.1,20.8c3.7-1.9,7.3-5.7,7.7-14.4
			c0.1-2.8-0.1-7.9-3.2-10.5c-5.6-4.6-11.6-0.3-11.6-0.2C50.8,30.1,50.7,30.2,50.7,30.2z M32.5,27.9c-1.9,0-3.5,0.5-4.5,1.5
			c-1.4,1.3-2.2,3.7-2.5,7.3c-0.6,6.9,3.9,14.1,7.2,16.7c0.3,0.2,0.5,0.4,0.8,0.6c0.1-1.1,0.3-2.2,0.5-3.2
			c1.7-11.2,4.6-16.4,6.7-19.8c-1.8-1.3-3.9-2.5-5.5-2.9C34.2,28.1,33.3,27.9,32.5,27.9z"/>
	</g>
</g>
</svg>
