<?xml version="1.0" encoding="utf-8"?>
<!-- Generator: Adobe Illustrator 18.1.1, SVG Export Plug-In . SVG Version: 6.00 Build 0)  -->
<svg version="1.1" id="Layer_1" xmlns="http://www.w3.org/2000/svg" xmlns:xlink="http://www.w3.org/1999/xlink" x="0px" y="0px"
	 viewBox="0 0 90 90" enable-background="new 0 0 90 90" xml:space="preserve">
<g>
	<circle fill="#EF4538" cx="45" cy="45" r="44.6"/>
	<g>
		<path fill="#FFC717" d="M73.5,44.9c0-2.2-1.1-4.1-2.7-5.3c1.1-1.7,1.3-3.9,0.4-5.9c-0.8-1.8-2.3-3-4-3.6c0.1-1.8-0.5-3.7-1.8-5
			c-1.5-1.5-3.7-2.1-5.6-1.8c-0.5-2-1.8-3.7-3.9-4.5c-1.8-0.7-3.7-0.6-5.3,0.3c-1.2-1.4-2.9-2.3-4.9-2.3c-2.2,0-4.1,1.1-5.3,2.7
			c-1.7-1.1-3.9-1.3-5.9-0.4c-1.8,0.8-3,2.3-3.6,4c-1.8-0.1-3.7,0.5-5,1.8c-1.5,1.5-2.1,3.7-1.8,5.6c-2,0.5-3.7,1.8-4.5,3.9
			c-0.7,1.8-0.6,3.7,0.3,5.3c-1.4,1.2-2.3,2.9-2.3,4.9c0,2.2,1.1,4.1,2.7,5.3c-1.1,1.7-1.3,3.9-0.4,5.9c0.8,1.8,2.3,3,4,3.6
			c-0.1,1.8,0.5,3.7,1.8,5c1.5,1.5,3.7,2.1,5.6,1.8c0.5,2,1.8,3.7,3.9,4.5c1.8,0.7,3.7,0.6,5.3-0.3c1.2,1.4,2.9,2.3,4.9,2.3
			c2.2,0,4.1-1.1,5.3-2.7c1.7,1.1,3.9,1.3,5.9,0.4c1.8-0.8,3-2.3,3.6-4c1.8,0.1,3.7-0.5,5-1.8c1.5-1.5,2.1-3.7,1.8-5.6
			c2-0.5,3.7-1.8,4.5-3.9c0.7-1.8,0.6-3.7-0.3-5.3C72.6,48.6,73.5,46.8,73.5,44.9z"/>
		<circle fill="#FFFFFF" cx="45.6" cy="44.9" r="9"/>
		<path fill="#753A29" d="M50.1,28.5c-0.4,0-0.7-0.1-1-0.5l-0.7-0.9c-0.4-0.6-0.3-1.3,0.3-1.7c0.6-0.4,1.3-0.3,1.7,0.3l0.7,0.9
			c0.4,0.6,0.3,1.3-0.3,1.7C50.6,28.4,50.3,28.5,50.1,28.5z"/>
		<path fill="#753A29" d="M40,31.7c-0.6,0-1.2-0.6-1.2-1.2V29c0-0.6,0.6-1.2,1.2-1.2c0.6,0,1.2,0.6,1.2,1.2v1.5
			C41.2,31.2,40.6,31.7,40,31.7z"/>
		<path fill="#753A29" d="M30.2,37.7c-0.1,0-0.1,0-0.2,0c-0.6-0.1-1.1-0.8-0.9-1.4c0-0.1,0-0.3-0.1-0.4c-0.2-0.6,0.1-1.3,0.7-1.5
			c0.6-0.2,1.3,0.1,1.5,0.7c0.2,0.6,0.3,1.2,0.1,1.8C31.2,37.3,30.7,37.7,30.2,37.7z"/>
		<path fill="#753A29" d="M27.2,49.7c-0.5,0-1-0.3-1.1-0.8c-0.1-0.5-0.5-1-0.9-1.3c-0.5-0.5-0.6-1.2-0.1-1.7
			c0.4-0.5,1.2-0.6,1.7-0.1c0.8,0.6,1.3,1.5,1.6,2.4c0.2,0.6-0.1,1.3-0.7,1.5C27.4,49.6,27.4,49.7,27.2,49.7z"/>
		<path fill="#753A29" d="M31.4,58.9c-0.5,0-0.9-0.3-1.1-0.8c-0.6-0.1-1-0.8-0.8-1.3c0.1-0.6,0.8-1.1,1.4-0.9
			c0.8,0.1,1.5,0.8,1.7,1.6c0.1,0.6-0.2,1.3-0.8,1.5C31.6,58.9,31.5,58.9,31.4,58.9z"/>
		<path fill="#753A29" d="M38.9,65.8c-0.1,0-0.3,0-0.4-0.1l-0.4-0.1c-0.6-0.2-1-0.8-0.8-1.5c0.2-0.6,0.8-1,1.5-0.8l0.4,0.1
			c0.6,0.2,1,0.8,0.8,1.5C39.9,65.5,39.4,65.8,38.9,65.8z"/>
		<path fill="#753A29" d="M48,62.9c-0.3,0-0.6-0.1-0.8-0.4c-0.6,0.2-1.3-0.1-1.5-0.8c-0.2-0.6,0.2-1.3,0.8-1.5
			c0.8-0.2,1.6,0,2.2,0.5c0.5,0.4,0.5,1.2,0.1,1.7C48.7,62.7,48.3,62.9,48,62.9z"/>
		<path fill="#753A29" d="M61.7,61.1c-0.5,0-1-0.4-1.1-0.8c-0.6-0.2-0.8-0.8-0.7-1.5c0.2-0.6,0.8-1,1.5-0.8c0.7,0.2,1.3,0.8,1.5,1.5
			c0.1,0.6-0.3,1.3-0.9,1.4C61.9,61.1,61.8,61.1,61.7,61.1z"/>
		<path fill="#753A29" d="M65,51c-0.3,0-0.5-0.1-0.7-0.2c-0.5-0.4-0.6-1.1-0.2-1.7l0.4-0.6c0.4-0.6,1.1-0.6,1.7-0.2
			c0.5,0.4,0.6,1.1,0.2,1.7L66,50.6C65.7,50.8,65.3,51,65,51z"/>
		<path fill="#753A29" d="M62.4,41.9c-0.6,0-1.2-0.6-1.2-1.2v-1.1c0-0.6,0.6-1.2,1.2-1.2c0.6,0,1.2,0.6,1.2,1.2v1.1
			C63.6,41.4,63.1,41.9,62.4,41.9z"/>
		<path fill="#753A29" d="M59.3,35.7c-0.1,0-0.1,0-0.2,0c-0.6-0.1-1.1-0.7-1-1.3l0.1-0.8c0.1-0.6,0.7-1.1,1.3-1
			c0.6,0.1,1.1,0.7,1,1.3l-0.1,0.8C60.3,35.3,59.8,35.7,59.3,35.7z"/>
	</g>
</g>
</svg>
