<?xml version="1.0" encoding="utf-8"?>
<!-- Generator: Adobe Illustrator 18.1.1, SVG Export Plug-In . SVG Version: 6.00 Build 0)  -->
<svg version="1.1" id="Layer_1" xmlns="http://www.w3.org/2000/svg" xmlns:xlink="http://www.w3.org/1999/xlink" x="0px" y="0px"
	 viewBox="0 0 90 90" enable-background="new 0 0 90 90" xml:space="preserve">
<g>
	<circle fill="#FFC717" cx="45" cy="45" r="44.6"/>
	<g>
		<rect x="17.7" y="48" fill="#5D5E61" width="55.8" height="24.8"/>
		<rect x="37.1" y="52" fill="#E3E6E8" width="17" height="6"/>
		<path fill="#3D82C4" d="M28.8,27.1v-5.6h-4.9v5.6c0,3.3-0.8,6.6-2.3,9.4l0,0c-1.5,2.8-2.3,6-2.3,9.4V48h14.2v-2.1
			c0-3.3-0.8-6.6-2.3-9.4l0,0C29.5,33.7,28.8,30.4,28.8,27.1z"/>
		<rect x="22.4" y="17" fill="#5D5E61" width="7.7" height="4.6"/>
		<path fill="#41B655" d="M48,27.1v-5.6h-4.9v5.6c0,3.3-0.8,6.6-2.3,9.4l0,0c-1.5,2.8-2.3,6-2.3,9.4V48h14.2v-2.1
			c0-3.3-0.8-6.6-2.3-9.4l0,0C48.9,33.7,48,30.4,48,27.1z"/>
		<rect x="41.8" y="17" fill="#5D5E61" width="7.7" height="4.6"/>
		<path fill="#D62E2F" d="M67.4,27.1v-5.6h-4.9v5.6c0,3.3-0.8,6.6-2.3,9.4l0,0c-1.5,2.8-2.3,6-2.3,9.4V48H72v-2.1
			c0-3.3-0.8-6.6-2.3-9.4l0,0C68.1,33.7,67.4,30.4,67.4,27.1z"/>
		<rect x="61" y="17" fill="#5D5E61" width="7.7" height="4.6"/>
	</g>
</g>
</svg>
