<?xml version="1.0" encoding="utf-8"?>
<!-- Generator: Adobe Illustrator 18.1.1, SVG Export Plug-In . SVG Version: 6.00 Build 0)  -->
<svg version="1.1" id="Layer_1" xmlns="http://www.w3.org/2000/svg" xmlns:xlink="http://www.w3.org/1999/xlink" x="0px" y="0px"
	 viewBox="0 0 90 90" enable-background="new 0 0 90 90" xml:space="preserve">
<g>
	<circle fill="#388CCB" cx="45" cy="45" r="44.6"/>
	<g>
		<path fill="#E3E6E8" d="M69.8,39.4c0.3-2.3-4.4-7.1-10.8-7.7C52.7,31,47.2,34.8,47,37.1c-4.2,15.9-10.7,24.9-15,29.5
			c-1.5,1.5-0.2,4.1,1.9,3.9c10.6-1.1,30.7-6.5,35.9-30.7C69.8,39.6,69.8,39.4,69.8,39.4z"/>
		<path fill="#D62E2F" d="M45.2,43c-0.3-0.5-0.6-0.9-0.9-1.4c-0.2-0.3-0.4-0.6-0.8-0.8c-0.4-0.2-0.8-0.1-1.3-0.1
			c-3.9,0.4-7.7-1.1-11.4-2.5c1,1.5,2.5,2.7,4.2,3.4c2.3,0.8,5,0.8,6.5,2.7c0.8,1,1.1,2.5,0.6,3.7c-0.5,1.2-1.7,2.1-3,2.1
			c-0.8,0-1.5-0.3-2.4-0.5c-1.8-0.5-3.6-0.6-5.4-0.4c2,0.7,3.8,2.2,4.9,4.1c0.5,0.8,0.8,1.8,0.6,2.7c-0.2,0.9-1.1,1.8-2,1.8
			c-1.3-0.1-1.9-1.5-2.5-2.7c-0.8-1.3-2.1-2.5-3.6-3c1,2.4,2,4.9,3,7.2c0.1,0.4,0.4,0.8,0.4,1.3c0,0.4-0.3,0.9-0.7,1.1
			c-0.5,0.1-1.1-0.2-1.4-0.6c-1.3-1.3-2.5-2.7-3.7-4.1c-0.7-0.9-1.4-2-2.4-2.6c-0.8-0.6-1.8-0.8-2.9-0.9c-1.4-0.2-2.8-0.4-4.1,0.1
			c0.3,1.8,2.1,2.7,3.6,3.7c1.5,1,2.9,2.3,3.9,3.8c0.6,0.9,1.2,2,2,2.7c1.7,1.5,4.1,1.6,6.5,1.5C36.8,61.1,41.5,54.1,45.2,43z"/>
		<path fill="#753A29" d="M58.6,37.4c-0.1,0-0.3,0-0.4,0c-0.6-0.1-1.1-0.8-1-1.4s2.8-15.6,14.3-16.4c0.7-0.1,1.3,0.5,1.3,1.1
			c0.1,0.7-0.5,1.3-1.1,1.3c-0.2,0-0.5,0.1-0.7,0.1C62,23.4,59.7,36.3,59.7,36.4C59.6,36.9,59.2,37.3,58.6,37.4z"/>
	</g>
</g>
</svg>
