<?xml version="1.0" encoding="utf-8"?>
<!-- Generator: Adobe Illustrator 18.1.1, SVG Export Plug-In . SVG Version: 6.00 Build 0)  -->
<svg version="1.1" id="Layer_1" xmlns="http://www.w3.org/2000/svg" xmlns:xlink="http://www.w3.org/1999/xlink" x="0px" y="0px"
	 viewBox="0 0 90 90" enable-background="new 0 0 90 90" xml:space="preserve">
<g>
	<circle fill="#EF4538" cx="45" cy="45" r="44.6"/>
	<g>
		<g>
			<path fill="#915037" d="M37.5,53.4c-0.1,0-0.1,0-0.2,0c-0.6-0.1-0.9-0.6-0.8-1.2c5.1-26.9-10.3-34-10.5-34.1
				c-0.4-0.2-0.7-0.7-0.6-1.2c0.1-0.5,0.5-0.8,1-0.8c0.3,0,29.7-0.3,32.6,34.9c0.1,0.6-0.4,1.1-1,1.1c-0.6,0-1.1-0.4-1.1-1
				c-1.1-13.9-6.6-23.7-16.2-29c-3.9-2.1-7.6-3.1-10.3-3.5c4.7,4,12,13.7,8.2,34C38.5,53,38,53.4,37.5,53.4z"/>
		</g>
		<circle fill="#E3E6E8" cx="31.9" cy="61.9" r="11"/>
		<circle fill="#E3E6E8" cx="60.7" cy="61.9" r="11"/>
		<path fill="#41B655" d="M27.3,16c-9.2,4.3-12.2,14.2-6.8,22.1C29.8,33.8,32.8,24,27.3,16z"/>
	</g>
</g>
</svg>
