<?xml version="1.0" encoding="utf-8"?>
<!-- Generator: Adobe Illustrator 18.1.1, SVG Export Plug-In . SVG Version: 6.00 Build 0)  -->
<svg version="1.1" id="Layer_1" xmlns="http://www.w3.org/2000/svg" xmlns:xlink="http://www.w3.org/1999/xlink" x="0px" y="0px"
	 viewBox="0 0 90 90" enable-background="new 0 0 90 90" xml:space="preserve">
<g>
	<circle fill="#388CCB" cx="45" cy="45" r="44.6"/>
	<g>
		<path fill="#E3E6E8" d="M67,23c0-1.5-0.5-3.1-1.7-4.2c-2.2-2.3-5.9-2.3-8.2,0c-2,2-2.2,4.9-0.8,7.2L25.9,56.3
			c-2.3-1.4-5.2-1.1-7.2,0.8c-2.3,2.3-2.3,5.9,0,8.2c1.2,1.2,2.7,1.7,4.2,1.7c0,1.5,0.5,3.1,1.7,4.2c2.3,2.2,5.9,2.2,8.2,0
			c2-2,2.2-4.9,0.8-7.2L64,33.6c2.3,1.4,5.2,1.1,7.2-0.8c2.2-2.3,2.2-5.9,0-8.2C70,23.6,68.5,23,67,23z"/>
	</g>
</g>
</svg>
