<?xml version="1.0" encoding="utf-8"?>
<!-- Generator: Adobe Illustrator 18.1.1, SVG Export Plug-In . SVG Version: 6.00 Build 0)  -->
<svg version="1.1" id="Layer_1" xmlns="http://www.w3.org/2000/svg" xmlns:xlink="http://www.w3.org/1999/xlink" x="0px" y="0px"
	 viewBox="0 0 90 90" enable-background="new 0 0 90 90" xml:space="preserve">
<g>
	<circle fill="#FFC717" cx="45" cy="45" r="44.6"/>
	<g>
		<path fill="#753A29" d="M43.6,54.8c-9.1,0-17.2-2.3-22.6-6v13.3c5.3,3.7,13.5,6,22.6,6c16.2,0,29.3-7.3,29.3-16.4V38.3
			C72.9,47.4,59.8,54.8,43.6,54.8z"/>
		<path fill="#915037" d="M43.6,21.9c-11.7,0-21.8,3.9-26.5,9.4l23,6L21,48.8c5.3,3.6,13.5,5.9,22.6,5.9c16.2,0,29.3-7.3,29.3-16.4
			S59.8,21.9,43.6,21.9z"/>
		<polygon fill="#753A29" points="17.1,31.4 17.1,43.9 24.8,46.5 40.1,37.3 		"/>
	</g>
</g>
</svg>
