<?xml version="1.0" encoding="utf-8"?>
<!-- Generator: Adobe Illustrator 18.1.1, SVG Export Plug-In . SVG Version: 6.00 Build 0)  -->
<svg version="1.1" id="Layer_1" xmlns="http://www.w3.org/2000/svg" xmlns:xlink="http://www.w3.org/1999/xlink" x="0px" y="0px"
	 viewBox="0 0 128 128" enable-background="new 0 0 128 128" xml:space="preserve">
<g>
	<circle fill="#EF4538" cx="64" cy="64" r="63.5"/>
	<g>
		<polygon fill="#5D5E61" points="92.6,38.1 70.9,38.1 59.9,48.4 59.9,100.8 103.7,100.8 103.7,48.4 		"/>
		<rect x="24.3" y="69.4" fill="#FFC717" width="26" height="31.4"/>
		<path fill="#E3E6E8" d="M34.8,75.9c-0.3-6.6-0.6-14,1.9-20.8c1.2-3.2,3-6.3,4.5-8.7c3.3-5.5,6.5-10.4,10.7-14.5
			c2.4-2.3,4.7-3.8,7-4.7c3.4-1.3,7.1-1.4,10.5-1.3c1.8,0.1,3.7,0.2,5.6,0.9c2.8,1.1,5.1,3.6,6.5,7c1,2.4,1.4,7,1.6,10.5
			c0.1,0.7,0.1,1.4,0.2,1.9l-3,0.3c-0.1-0.5-0.1-1.2-0.2-1.9c-0.3-3-0.6-7.6-1.4-9.6c-1-2.6-2.8-4.5-4.9-5.3c-1.4-0.6-3-0.7-4.6-0.7
			c-3.1-0.1-6.4-0.1-9.3,1.1C58,30.6,56,32,54,34c-4,3.8-7,8.6-10.2,13.9c-1.8,3-3.3,5.5-4.3,8.2c-2.3,6.2-2,13.3-1.7,19.6
			L34.8,75.9z"/>
		<rect x="32.1" y="72.2" fill="#231F20" width="10.3" height="2"/>
		<rect x="76.6" y="41.5" fill="#231F20" width="10.3" height="2"/>
	</g>
</g>
</svg>
