<?xml version="1.0" encoding="utf-8"?>
<!-- Generator: Adobe Illustrator 18.1.1, SVG Export Plug-In . SVG Version: 6.00 Build 0)  -->
<svg version="1.1" id="Layer_1" xmlns="http://www.w3.org/2000/svg" xmlns:xlink="http://www.w3.org/1999/xlink" x="0px" y="0px"
	 viewBox="0 0 90 90" enable-background="new 0 0 90 90" xml:space="preserve">
<g>
	<circle fill="#FFC717" cx="45" cy="45" r="44.6"/>
	<g>
		
			<ellipse transform="matrix(-0.7071 -0.7071 0.7071 -0.7071 44.9991 108.639)" fill="#E3E6E8" cx="45" cy="45" rx="23.3" ry="29.8"/>
		<path fill="#5D5E61" d="M58,18.8c-0.1,0.1-0.1,0.1-0.2,0.3c1,0.3,2,0.6,2.9,1.1c2.5-1.9,6.1-1.7,8.4,0.6c2.3,2.3,2.5,5.9,0.6,8.4
			c0.4,0.9,0.8,1.9,1.1,2.9c0.1-0.1,0.2-0.1,0.3-0.2c3.6-3.6,3.6-9.5,0-13.1S61.7,15.2,58,18.8z"/>
		<path fill="#5D5E61" d="M29.2,69.8c-2.5,1.9-6.1,1.7-8.4-0.6s-2.5-5.9-0.6-8.4c-0.4-0.9-0.8-1.9-1.1-2.9c-0.1,0.1-0.2,0.1-0.3,0.2
			c-3.6,3.6-3.6,9.5,0,13.1c3.6,3.7,9.5,3.6,13.1,0c0.1-0.1,0.1-0.1,0.2-0.3C31.1,70.6,30.2,70.2,29.2,69.8z"/>
		<path fill="#F4B1A8" d="M36.4,53.2c-2.9-2.2-9.3-4.2-12-1.8c0,0-1.9,1.2-1.3,2.9c0.9,2.5,7.3,6.2,10,7.6c0.2-2,0.7-3.9,1.6-5.8
			C35.2,55.1,35.7,54.1,36.4,53.2z"/>
		<path fill="#F4B1A8" d="M40.5,52.2L40.5,52.2L40.5,52.2z"/>
		<path fill="none" d="M42.8,63.2L42.8,63.2L42.8,63.2C42.8,63.2,42.8,63.2,42.8,63.2z"/>
		<path fill="#F4B1A8" d="M49.3,48c-1.5,0.9-5,2.7-6.5,3.7c0.1,3.7,1.1,7.2,2.5,10.7c3.8-0.8,8.9-3.2,10.7-5.4
			C53.2,54.7,50.8,52.1,49.3,48z"/>
		<path fill="#F4B1A8" d="M52.2,42.3c-0.6,1.8-2.3,4.3-2.9,6c1.5,3.9,3.9,6.5,6.5,8.6c3-3.8,4.1-10.1,2.6-13.8
			C56.4,44,54.3,43.8,52.2,42.3z"/>
		<path fill="none" d="M53.4,59.1L53.4,59.1L53.4,59.1z"/>
		<path fill="#F4B1A8" d="M55.9,35.2c-3.6-1-7.2-2-10.8-3c1.3,3.8,3.4,7.6,7,10.1c0-0.1,0.1-0.1,0.1-0.1c2,1.5,4.1,1.7,6.3,0.9
			c0.1,0.1,0.1,0.2,0.1,0.3l0,0c2.7-4.6,4.9-11.2,5-16.2C63.8,26.7,55.9,35.2,55.9,35.2z"/>
		<path fill="#F4B1A8" d="M36.4,53.2c-2.9-2.2-9.3-4.2-12-1.8c0,0-1.9,1.2-1.3,2.9c0.9,2.5,7.3,6.2,10,7.6c0.2-2,0.7-3.9,1.6-5.8
			C35.2,55.1,35.7,54.1,36.4,53.2z"/>
		<circle fill="#E3E6E8" cx="28.9" cy="54.3" r="0.9"/>
		<path fill="#F4B1A8" d="M49.4,48.3c0.6-1.8,2.3-4.3,2.9-6c2,1.5,4.1,1.7,6.3,0.9c1.5,3.7,0.4,10-2.6,13.8"/>
		<path fill="#F4B1A8" d="M40.5,52.2L40.5,52.2L40.5,52.2z"/>
		<path fill="none" d="M42.8,63.2L42.8,63.2L42.8,63.2C42.8,63.2,42.8,63.2,42.8,63.2z"/>
		<path fill="#F4B1A8" d="M49.3,48c-1.5,0.9-5,2.7-6.5,3.7c0.1,3.7,1.1,7.2,2.5,10.7c3.8-0.8,8.9-3.2,10.7-5.4
			C53.2,54.7,50.8,52.1,49.3,48z"/>
		<path fill="#F4B1A8" d="M36.4,53.2c-0.7,1-1.3,1.9-1.7,2.9c-0.8,1.9-1.3,3.8-1.6,5.8c3.7,2.5,9.2,1.9,12.2,0.5
			c-1.4-3.4-2.5-7-2.5-10.7C41.1,52,38,52.8,36.4,53.2z"/>
		<path fill="#E67375" d="M52.2,42.3c-0.6,1.8-2.3,4.3-2.9,6c1.5,3.9,3.9,6.5,6.5,8.6c3-3.8,4.1-10.1,2.6-13.8
			C56.4,44,54.3,43.8,52.2,42.3z"/>
		<path fill="none" d="M53.4,59.1L53.4,59.1L53.4,59.1z"/>
		<path fill="#F4B1A8" d="M55.9,35.2c-3.6-1-7.2-2-10.8-3c1.3,3.8,3.4,7.6,7,10.1c0-0.1,0.1-0.1,0.1-0.1c2,1.5,4.1,1.7,6.3,0.9
			c0.1,0.1,0.1,0.2,0.1,0.3l0,0c2.7-4.6,4.9-11.2,5-16.2C63.8,26.7,55.9,35.2,55.9,35.2z"/>
		<path fill="#E67375" d="M36.4,53.2c-0.7,1-1.3,1.9-1.7,2.9c-0.8,1.9-1.3,3.8-1.6,5.8c3.7,2.5,9.2,1.9,12.2,0.5
			c-1.4-3.4-2.5-7-2.5-10.7C41.1,52,38,52.8,36.4,53.2z"/>
	</g>
</g>
</svg>
