<?xml version="1.0" encoding="utf-8"?>
<!-- Generator: Adobe Illustrator 18.1.1, SVG Export Plug-In . SVG Version: 6.00 Build 0)  -->
<svg version="1.1" id="Layer_1" xmlns="http://www.w3.org/2000/svg" xmlns:xlink="http://www.w3.org/1999/xlink" x="0px" y="0px"
	 viewBox="0 0 90 90" enable-background="new 0 0 90 90" xml:space="preserve">
<g>
	<circle fill="#41B655" cx="45" cy="45" r="44.6"/>
	<g>
		<ellipse fill="#5D5E61" cx="45" cy="34.8" rx="22.5" ry="4.3"/>
		<ellipse fill="#E3E6E8" cx="45" cy="34.8" rx="19.2" ry="2.4"/>
		<path fill="#FFC717" d="M70.7,52.9l-3.2-18.1c0,2.4-10.1,4.3-22.5,4.3s-22.5-1.9-22.5-4.3l-3.3,18.1c-1.4,0.6-2.2,1.2-2.2,1.8
			c0,2.6,12.5,4.7,27.9,4.7s27.9-2.1,27.9-4.7C72.9,54.1,72.1,53.5,70.7,52.9z"/>
		<path fill="#D62E2F" d="M38.7,45.6c0.8,0.7,1.1,1.6,1.1,2.9c0,1.2-0.4,2.2-1.1,2.9c-0.7,0.7-1.8,1.1-3.4,1.1h-2.6v-7.9h2.7
			C36.8,44.6,37.9,44.9,38.7,45.6z M38.5,48.5c0-1.8-1.1-2.7-3.1-2.7H34v5.3h1.5c0.9,0,1.7-0.2,2.2-0.7
			C38.2,50.1,38.5,49.4,38.5,48.5z"/>
		<path fill="#D62E2F" d="M48,51.3c-0.8,0.8-1.8,1.1-3,1.1s-2.1-0.4-3-1.1c-0.8-0.8-1.2-1.8-1.2-2.9c0-1.1,0.4-2.1,1.2-2.9
			c0.8-0.8,1.8-1.1,3-1.1s2.1,0.4,3,1.1c0.8,0.8,1.2,1.8,1.2,2.9C49.2,49.6,48.8,50.6,48,51.3z M47,46.5c-0.6-0.6-1.2-0.8-2-0.8
			s-1.4,0.3-2,0.8c-0.6,0.6-0.8,1.2-0.8,2c0,0.8,0.3,1.5,0.8,2c0.6,0.6,1.2,0.8,2,0.8c0.8,0,1.4-0.3,2-0.8c0.6-0.6,0.8-1.2,0.8-2
			C47.9,47.7,47.6,47,47,46.5z"/>
		<path fill="#D62E2F" d="M56.3,48.7h1.3v2.7c-0.8,0.8-1.8,1.2-3.2,1.2c-1.1,0-2.1-0.4-2.9-1.1c-0.8-0.8-1.2-1.8-1.2-2.9
			c0-1.2,0.4-2.1,1.2-2.9c0.8-0.8,1.8-1.2,2.9-1.2s2,0.4,2.8,1l-0.7,1c-0.3-0.3-0.6-0.4-0.9-0.6c-0.3-0.1-0.7-0.1-1.1-0.1
			c-0.8,0-1.5,0.3-2,0.8c-0.6,0.5-0.8,1.2-0.8,2c0,0.8,0.3,1.5,0.8,2c0.5,0.5,1.1,0.8,1.9,0.8c0.8,0,1.3-0.1,1.9-0.5v-2.2H56.3z"/>
	</g>
</g>
</svg>
