<?xml version="1.0" encoding="utf-8"?>
<!-- Generator: Adobe Illustrator 18.1.1, SVG Export Plug-In . SVG Version: 6.00 Build 0)  -->
<svg version="1.1" id="Layer_1" xmlns="http://www.w3.org/2000/svg" xmlns:xlink="http://www.w3.org/1999/xlink" x="0px" y="0px"
	 viewBox="0 0 90 90" enable-background="new 0 0 90 90" xml:space="preserve">
<g>
	<circle fill="#388CCB" cx="45" cy="45" r="44.6"/>
	<g>
		<path fill="#F7EC5C" d="M31.9,45.6c0-5.9,3.1-11,7.5-13.3c-1.9-1-4.1-1.5-6.3-1.3c-7.2,0.4-12.6,7.4-12.1,15.5
			c0.6,8.1,9.1,27.5,16.3,27c1.1-0.1,2-0.6,2.8-1.3C35,67.4,31.9,52.4,31.9,45.6z"/>
		<path fill="#F7EC5C" d="M56.8,30.9c-2.3-0.1-4.4,0.4-6.3,1.3c4.4,2.3,7.5,7.5,7.5,13.3c0,6.3-4.3,19.4-9.6,25.2
			c1.2,1.6,2.5,2.6,4.1,2.7c7.2,0.6,15.7-18.8,16.3-26.9C69.4,38.3,64,31.4,56.8,30.9z"/>
		<path fill="#FFC717" d="M58.1,45.6c0,8.2-7.3,28.1-14.6,28.1S31.9,53.7,31.9,45.6S37.8,30.9,45,30.9S58.1,37.5,58.1,45.6z"/>
		<path fill="#753A29" d="M45,30.9c0.5,0,0.9,0,1.4,0.1c0-0.2,0-0.4-0.1-0.6c-0.1-0.3-2.6-7.5,7.5-11.3c0.7-0.3,1.1-1.1,0.8-1.8
			c-0.3-0.7-1.1-1.1-1.8-0.8c-11.2,4.3-9.6,12.7-9.1,14.5C44,30.9,44.5,30.9,45,30.9z"/>
	</g>
</g>
</svg>
