<?xml version="1.0" encoding="utf-8"?>
<!-- Generator: Adobe Illustrator 18.1.1, SVG Export Plug-In . SVG Version: 6.00 Build 0)  -->
<svg version="1.1" id="Layer_1" xmlns="http://www.w3.org/2000/svg" xmlns:xlink="http://www.w3.org/1999/xlink" x="0px" y="0px"
	 viewBox="0 0 90 90" enable-background="new 0 0 90 90" xml:space="preserve">
<g>
	<circle fill="#FFC717" cx="45" cy="45" r="44.6"/>
	<g>
		<path fill="#753A29" d="M61.9,45.3c0,15.3-10.1,27.6-22.4,27.6S17.2,60.5,17.2,45.3"/>
		<ellipse fill="#915037" cx="39.5" cy="45.5" rx="22.4" ry="9.8"/>
		<path fill="#FAF4A6" d="M61.4,47.9c-1,3.2-9.6,7.5-21.7,7.5S18,50.1,17.6,47.2c-0.6-4.1,9.9-6.8,22.1-6.8S62.6,43.9,61.4,47.9z"/>
		<path fill="#915037" d="M69.5,46.5c-0.8-0.3-1.5-0.3-2.2-0.4c-0.9,0-2.1,0-3.2,0.5c-0.9,0.4-1.6,0.9-2.3,1.6
			c-0.1,1.9-0.5,3.7-0.9,5.4c0.4-0.1,0.8-0.3,1-0.7c0.9-1.7,1.8-3.2,3.2-3.8c0.7-0.3,1.5-0.3,2.2-0.3c0.4,0,0.9,0.1,1.3,0.1
			c0.9,0.3,1.5,1.3,1.6,2.5c0.1,1.4-0.7,2.7-1.3,3.5c-1.1,1.5-2.7,2.7-4.8,3.8c-1.9,1-4,1.7-6.1,2.3h-0.1c-1.3,2.2-2.7,4.1-4.4,5.7
			c0.1,0.7,0.4,1.4,0.9,2c0.8,0.8,1.9,1.3,3.1,1.3l0,0c1.2,0,2.3-0.5,3-1.3c0.5-0.6,0.5-1.4-0.1-1.9c-0.6-0.5-1.4-0.4-1.9,0.1
			c-0.2,0.2-0.6,0.4-0.9,0.4l0,0c-0.4,0-0.8-0.1-1.1-0.4c-0.5-0.6-0.4-1.7,0.1-2.3c0.5-0.5,1.4-0.8,2.3-1.1c2.2-0.7,4.4-1.4,6.5-2.5
			c2.5-1.3,4.4-2.8,5.8-4.6c1.3-1.7,1.9-3.5,1.8-5.3C72.8,49.1,71.4,47.1,69.5,46.5z"/>
		<path fill="#E3E6E8" d="M28.6,31.9c-0.6,0-1.1-0.4-1.1-1.1v-8.1c0-0.6,0.4-1.1,1.1-1.1c0.6,0,1.1,0.4,1.1,1.1v8.2
			C29.7,31.5,29.2,31.9,28.6,31.9z"/>
		<path fill="#E3E6E8" d="M39.5,31.9c-0.6,0-1.1-0.4-1.1-1.1V18.1c0-0.6,0.4-1.1,1.1-1.1s1.1,0.4,1.1,1.1v12.8
			C40.5,31.5,40.1,31.9,39.5,31.9z"/>
		<path fill="#E3E6E8" d="M50.3,31.9c-0.6,0-1.1-0.4-1.1-1.1v-8.1c0-0.6,0.4-1.1,1.1-1.1c0.6,0,1.1,0.4,1.1,1.1v8.2
			C51.4,31.5,50.9,31.9,50.3,31.9z"/>
	</g>
</g>
</svg>
