<?xml version="1.0" encoding="utf-8"?>
<!-- Generator: Adobe Illustrator 18.1.1, SVG Export Plug-In . SVG Version: 6.00 Build 0)  -->
<svg version="1.1" id="Layer_1" xmlns="http://www.w3.org/2000/svg" xmlns:xlink="http://www.w3.org/1999/xlink" x="0px" y="0px"
	 viewBox="0 0 90 90" enable-background="new 0 0 90 90" xml:space="preserve">
<g>
	<circle fill="#EF4538" cx="45" cy="45" r="44.6"/>
	<g>
		<polygon fill="#FEEDEF" points="44,32.8 44.5,38.1 47.5,72.9 68.6,72.9 72.1,32.8 		"/>
		<path fill="#FFC717" d="M53.9,50c-1.2-7.5-8.9-13.4-18.1-13.4S19,42.5,17.8,50H53.9z"/>
		<path fill="#FFC717" d="M48.4,72.9H23.1c-3,0-5.4-2.5-5.4-5.4v-0.8h36.2v0.8C53.9,70.5,51.5,72.9,48.4,72.9z"/>
		<path fill="#915037" d="M51.4,63.8H20.2c-1.3,0-2.5-1.1-2.5-2.5l0,0c0-1.3,1.1-2.5,2.5-2.5h31.2c1.3,0,2.5,1.1,2.5,2.5l0,0
			C53.9,62.7,52.8,63.8,51.4,63.8z"/>
		<path fill="#22A79C" d="M36.4,56.7c-0.3,0-0.6,0-0.8-0.1c-1-0.1-1.9-0.6-2.7-1.1c-0.6-0.4-1.2-0.6-1.8-0.8c-1.4-0.4-3,0.1-4.6,0.6
			c-0.4,0.1-0.8,0.2-1.1,0.4c-3,0.9-5.6,0.4-7-1.2c-0.4-0.4-0.4-1.1,0.1-1.5c0.4-0.4,1.1-0.4,1.5,0.1c1.2,1.4,3.8,0.8,4.9,0.6
			c0.4-0.1,0.7-0.2,1.1-0.4c1.8-0.6,3.7-1.2,5.7-0.7c0.8,0.2,1.5,0.6,2.2,0.9s1.4,0.7,2,0.8c1.2,0.2,2.4-0.4,3.7-0.9
			c1.1-0.5,2.3-1,3.6-1.1c1.7-0.1,3.2,0.4,4.8,0.8c1.5,0.5,3,1,4.4,0.6c0.6-0.1,1.1,0.2,1.3,0.8c0.1,0.6-0.2,1.1-0.8,1.3
			c-1.9,0.4-3.7-0.1-5.5-0.7c-1.4-0.4-2.7-0.8-3.9-0.8c-1,0.1-1.9,0.5-3,1C39.1,56.1,37.8,56.7,36.4,56.7z"/>
		<path fill="#92513B" d="M22.5,47.5c-0.4,0-0.6-0.2-0.8-0.5c-0.2-0.4,0-1,0.4-1.1l0.6-0.3c0.4-0.2,1,0,1.1,0.4c0.2,0.4,0,1-0.4,1.1
			l-0.6,0.3C22.8,47.5,22.6,47.5,22.5,47.5z"/>
		<path fill="#92513B" d="M28.3,44.9c-0.1,0-0.1,0-0.2,0c-0.5-0.1-0.7-0.6-0.6-1.1c0.1-0.4,0.4-0.8,0.7-1.1c0.4-0.3,0.9-0.3,1.2,0.1
			c0.3,0.4,0.3,0.9-0.1,1.2c-0.1,0.1-0.1,0.1-0.1,0.3C29,44.7,28.7,44.9,28.3,44.9z"/>
		<path fill="#92513B" d="M34.2,41.6c-0.4,0-0.7-0.3-0.8-0.6c-0.1-0.5,0.1-0.9,0.6-1.1c0.1,0,0.1-0.1,0.2-0.1
			c0.3-0.4,0.8-0.6,1.2-0.3c0.4,0.3,0.6,0.8,0.3,1.2c-0.3,0.4-0.7,0.8-1.2,0.9C34.4,41.6,34.3,41.6,34.2,41.6z"/>
		<path fill="#92513B" d="M39.9,43.7c-0.4,0-0.7-0.2-0.8-0.6c-0.1-0.4,0.1-1,0.5-1.1l0.7-0.3c0.4-0.1,0.9,0.1,1.1,0.5
			c0.1,0.4-0.1,1-0.5,1.1l-0.7,0.3C40.1,43.7,40,43.7,39.9,43.7z"/>
		<path fill="#92513B" d="M46.5,47.5c-0.4,0-0.6-0.2-0.8-0.5c-0.2-0.4-0.1-1,0.4-1.2l0.5-0.3c0.4-0.2,1-0.1,1.2,0.4
			c0.2,0.4,0.1,1-0.4,1.2L47,47.4C46.8,47.4,46.7,47.5,46.5,47.5z"/>
		<path fill="#92513B" d="M34.9,47.8c-0.4,0-0.7-0.3-0.8-0.6c-0.1-0.5,0.1-0.9,0.6-1.1l0.9-0.3c0.5-0.1,0.9,0.1,1.1,0.6
			c0.1,0.5-0.1,0.9-0.6,1.1l-0.9,0.3C35.1,47.8,35,47.8,34.9,47.8z"/>
		<polygon fill="#5D5E61" points="72.1,27.6 43.9,27.6 42.6,32.8 73.5,32.8 		"/>
		<polygon fill="#FCD83A" points="67,27.6 67.9,22 73.3,18.9 72.3,17.1 66,20.7 64.9,27.6 		"/>
	</g>
</g>
</svg>
