<?xml version="1.0" encoding="utf-8"?>
<!-- Generator: Adobe Illustrator 18.1.1, SVG Export Plug-In . SVG Version: 6.00 Build 0)  -->
<svg version="1.1" id="Layer_1" xmlns="http://www.w3.org/2000/svg" xmlns:xlink="http://www.w3.org/1999/xlink" x="0px" y="0px"
	 viewBox="0 0 90 90" enable-background="new 0 0 90 90" xml:space="preserve">
<g>
	<circle fill="#FFC717" cx="45" cy="45" r="44.6"/>
	<g>
		<path fill="#168B7D" d="M48.8,30.7c0.4-0.9-0.2-2-0.8-2.7s-1.5-1.3-1.9-2.3c0,0.8-0.7,1.4-1.3,1.9c-1.3,1.1-2.6,2.2-3.9,3.3v2.5
			l3.9-0.3l3.9,0.3L48.8,30.7z"/>
		<path fill="#D62E2F" d="M31.9,34.6c-3.8-0.4-5.2,2.5-5.2,2.5c-2.3,0.5-3.4,3.2-3.9,5.6c-0.9,5-1.1,10.2,0.3,15
			c1.4,4.9,4.6,9.3,8.9,11.8c4.2,2.5,9.4,2.8,14.2,3.2c3.1,0.2,6.3,0.4,9.1-0.6c2.7-0.9,5-2.7,6.8-4.9c8.2-9.1,8.9-23.8,1.9-33.8
			l-0.3-0.6"/>
		<path fill="#168B7D" d="M47.8,33.3C46.8,33,45.6,33,44.6,33c-1.1,0-2.3,0.1-3.4,0.6c-1,0.6-1.8,1.6-1.7,2.7c0.1,1.3,1.4,2.3,2.5,3
			c1.3,0.8,2.7,1.7,4,2.5c0.8,0.5,1.6,1.1,1.8,1.9c0.1,0.2,0.1,0.5,0.2,0.6c0.2,0.2,0.6,0.1,0.8,0c0.2-0.1,0.4-0.4,0.6-0.7
			c0.8-1.4,1.5-2.7,1.9-4.3c0.3-1.3,0.2-2.7-0.4-3.9c-0.6-1.1-2-1.6-2.5-2.7c-1.1-2.7,3.1-4.4,5.2-3.8c1.7,0.5,3,1.9,4.6,2.3
			c2.3,0.5,4.6-1,6.1-2.7c0.5,2,0.1,4.2-1.5,5.5s-3.9,1.2-6,0.8c-1.2-0.3-2.4-0.6-3.6-0.9C51.8,33.5,49.4,33.8,47.8,33.3z"/>
		<path fill="#168B7D" d="M39.6,35.8c0.5-0.2,0.8-0.7,1.1-1.2s0.2-1.1,0.3-1.6c0-0.6,0-1.3-0.4-1.9c-0.4-0.6-1.1-1-1.8-1.2
			c-2.5-0.8-5.2-0.6-7.7,0.2c-0.5,0.1-1,0.4-1.4,0.6c-0.4,0.3-0.8,0.7-1.2,1.1c-1.3,1.6-2,3.9-1.5,5.9c0.2-0.8,0.6-1.6,1.2-2.3
			c0.2-0.3,0.5-0.5,0.8-0.6c0.4-0.2,0.8-0.2,1.3-0.3c0.7-0.1,1.5-0.1,2.2-0.1c0.6-0.1,1.1-0.1,1.6,0.1c0.6,0.2,0.9,0.6,1.5,0.9
			c0.8,0.5,1.9,0.4,2.8,0.4C38.9,35.9,39.2,35.9,39.6,35.8z"/>
		<path fill="#915037" d="M43.2,33.1c-0.1-0.6-0.9-13.1,7.1-16c0.8-0.3,1.6,0.2,1.8,1.1l0,0c0.1,0.6-0.2,1.3-0.8,1.5
			C45.2,22,46,32.8,46,32.9L43.2,33.1z"/>
	</g>
</g>
</svg>
