<?xml version="1.0" encoding="utf-8"?>
<!-- Generator: Adobe Illustrator 18.1.1, SVG Export Plug-In . SVG Version: 6.00 Build 0)  -->
<svg version="1.1" id="Layer_1" xmlns="http://www.w3.org/2000/svg" xmlns:xlink="http://www.w3.org/1999/xlink" x="0px" y="0px"
	 viewBox="0 0 90 90" enable-background="new 0 0 90 90" xml:space="preserve">
<g>
	<circle fill="#388CCB" cx="45" cy="45" r="44.6"/>
	<g>
		<path fill="#E3E6E8" d="M19.2,57.6c-0.1,0-0.1-0.1-0.2-0.1l-1.2,1.8c2.5,4.7,7.6,7.8,8.4,8.4c1.4,1.1,3,1.8,4.7,2.3
			c-0.6-2-2.1-3.7-3.9-4.9c3,0.9,6.3,0.9,9.4,0c-2.7-1.2-5.7-1.9-8.6-2.7c2.6-0.2,5.3-0.4,7.9-0.7C32.3,60.3,21,58.2,19.2,57.6z"/>
		<path fill="#FAD839" d="M70.7,47.5c-2.9-1.2-7.2-1.7-9.3,1.1c-6,8-15.6,14.1-25.7,13.1l-0.6-0.1c0.2,0.1,0.4,0.1,0.6,0.2
			c-2.6,0.2-5.3,0.4-7.9,0.7c2.9,0.8,5.8,1.5,8.6,2.7c-3,0.9-6.3,0.9-9.4,0c1.6,1.1,3.2,2.7,3.8,4.6l0,0c14.3,4.4,30.8,1.8,40.7-9.8
			C74.8,56,73.6,48.7,70.7,47.5z"/>
		<path fill="#41B655" d="M25.4,18.5c0-0.1-0.1-0.2-0.1-0.3l-2.5,0.1c-2.5,5.5-1.8,12.2-1.8,13.4c0,2,0.4,3.9,1.2,5.8
			c1.4-1.9,1.8-4.4,1.7-6.8c1.3,3.4,3.6,6.3,6.5,8.4c-0.8-3.3-2.2-6.5-3.5-9.6c2,2.2,4,4.4,6,6.6C31.9,32.1,26,20.7,25.4,18.5z"/>
		<path fill="#D62E2F" d="M69.8,57.9c-0.9-3.4-3.4-7.6-7.3-7.6C51.1,50.3,39.1,46,33,36.2l-0.3-0.6c0.1,0.2,0.1,0.4,0.2,0.6
			c-2-2.2-4-4.4-6-6.6c1.3,3.2,2.7,6.3,3.5,9.6c-2.9-2.1-5.1-5.1-6.5-8.4c0.1,2.3-0.3,4.7-1.6,6.6v0.1c5.9,15.8,19.5,28.9,36.8,29.8
			C65,67.4,70.7,61.2,69.8,57.9z"/>
	</g>
</g>
</svg>
