<?xml version="1.0" encoding="utf-8"?>
<!-- Generator: Adobe Illustrator 18.1.1, SVG Export Plug-In . SVG Version: 6.00 Build 0)  -->
<svg version="1.1" id="Layer_1" xmlns="http://www.w3.org/2000/svg" xmlns:xlink="http://www.w3.org/1999/xlink" x="0px" y="0px"
	 viewBox="0 0 90 90" enable-background="new 0 0 90 90" xml:space="preserve">
<g>
	<circle fill="#41B655" cx="45" cy="45" r="44.6"/>
	<g>
		<path fill="none" d="M73.3,61.1L73.3,61.1c1.2,3.7-4.8,10.8-11.2,10.8c-19.6,0-35.7-14.4-42.9-32.2c-1.8-4.3-0.1-8.5,2.7-9.1l0,0
			c2.9-0.6,5.8,1.7,7.3,4.7c6.3,13.3,21.5,18.6,35.4,17.7C69.1,52.9,72.1,57.4,73.3,61.1z"/>
		<path fill="#FBD839" d="M73.3,61.1L73.3,61.1c1.2,3.7-4.8,10.8-11.2,10.8c-19.6,0-35.7-14.4-42.9-32.2c-1.8-4.3-0.1-8.5,2.7-9.1
			l0,0c2.9-0.6,5.8,1.7,7.3,4.7c6.3,13.3,21.5,18.6,35.4,17.7C69.1,52.9,72.1,57.4,73.3,61.1z"/>
		<path fill="#915037" d="M21.8,30.7c-1-1.9-3.2-6.8-0.6-10.9c0.3-0.5,0.2-1.1-0.2-1.5c-0.6-0.4-1.3-0.3-1.7,0.3
			C16,23.9,18.8,30,20,32.1C20.4,31.4,21.1,30.9,21.8,30.7z"/>
		<path fill="#E67374" d="M20.1,24.9c2.4,6.3,10.6,9.4,18.4,6.9C36.1,25.4,27.9,22.3,20.1,24.9z"/>
	</g>
</g>
</svg>
