<?xml version="1.0" encoding="utf-8"?>
<!-- Generator: Adobe Illustrator 18.1.1, SVG Export Plug-In . SVG Version: 6.00 Build 0)  -->
<svg version="1.1" id="Layer_1" xmlns="http://www.w3.org/2000/svg" xmlns:xlink="http://www.w3.org/1999/xlink" x="0px" y="0px"
	 viewBox="0 0 90 90" enable-background="new 0 0 90 90" xml:space="preserve">
<g>
	<circle fill="#388CCB" cx="45" cy="45" r="44.6"/>
	<g>
		<ellipse fill="#FACDD4" cx="45.6" cy="61.2" rx="27.9" ry="4.2"/>
		<path fill="#E3E6E8" d="M47.8,42.8c-0.4,0-0.8-0.2-0.9-0.6c-0.9-1.9-1.1-4.1-0.6-6.1c0.2-0.6,0.4-1.2,0.6-1.8
			c0.2-0.6,0.4-1.1,0.6-1.5c0.4-1.2,0.4-2.5,0.3-3.8v-3.5c0-0.6,0.5-1.1,1.1-1.1c0.6-0.1,1.1,0.5,1.1,1.1V29c0,1.3,0,2.9-0.4,4.4
			c-0.2,0.6-0.4,1.2-0.6,1.8c-0.2,0.6-0.4,1.1-0.6,1.5c-0.4,1.5-0.3,3.2,0.4,4.6c0.3,0.5,0.1,1.1-0.5,1.4
			C48.1,42.8,48,42.8,47.8,42.8z"/>
		<path fill="#E3E6E8" d="M56,42.8c-0.4,0-0.8-0.2-0.9-0.6c-0.9-1.9-1.1-4.1-0.6-6.1c0.2-0.6,0.4-1.2,0.6-1.8
			c0.2-0.6,0.4-1.1,0.6-1.5C56,31.6,56,30.2,56,29v-3.5c0-0.6,0.5-1.1,1.1-1.1l0,0c0.6,0,1.1,0.5,1.1,1.1V29c0,1.3,0,2.9-0.4,4.4
			c-0.2,0.6-0.4,1.2-0.6,1.8c-0.2,0.5-0.4,1.1-0.6,1.5c-0.4,1.5-0.3,3.2,0.4,4.6c0.3,0.5,0.1,1.1-0.5,1.4
			C56.3,42.8,56.2,42.8,56,42.8z"/>
		<path fill="#E3E6E8" d="M41,42.8c-0.4,0-0.8-0.2-0.9-0.6c-0.9-1.9-1.1-4.1-0.6-6.1c0.2-0.6,0.4-1.2,0.6-1.8s0.4-1.1,0.6-1.5
			c0.4-1.2,0.4-2.5,0.3-3.8v-3.5c0-0.6,0.5-1.1,1.1-1.1l0,0c0.6,0,1.1,0.5,1.1,1.1V29c0,1.3,0,2.9-0.4,4.4c-0.2,0.6-0.4,1.2-0.6,1.8
			c-0.2,0.5-0.4,1.1-0.6,1.5c-0.4,1.5-0.3,3.2,0.4,4.6c0.3,0.5,0.1,1.1-0.5,1.4C41.3,42.8,41.1,42.8,41,42.8z"/>
		<polygon fill="#D5312E" points="63.3,60.2 27.9,60.2 24.1,46.5 67.1,46.5 		"/>
		<path fill="#565756" d="M25.5,43.6c0.5,0.1,1,0.4,1.4,0.6c0.5,0.2,1,0.4,1.5,0.6c0.5,0.2,1,0.5,1.5,0.7c0.5,0.2,1,0.5,1.4,0.8
			c0.1,0.1,0.2,0.1,0.3,0.2H38c-0.1-0.1-0.3-0.2-0.5-0.4c-0.4-0.4-1-0.8-1.7-1.3c-0.4-0.3-0.8-0.6-1.1-0.9c-0.4-0.4-0.8-0.6-1.3-1
			s-0.9-0.6-1.4-1c-0.5-0.4-1-0.6-1.5-1c-0.5-0.3-1.1-0.6-1.6-0.9c-0.6-0.3-1.1-0.6-1.6-0.8c-0.5-0.3-1.1-0.5-1.5-0.7
			c-0.5-0.2-1-0.4-1.5-0.5c-0.5-0.1-0.9-0.3-1.3-0.4c-0.4-0.1-0.8-0.1-1.1-0.2c-0.1,0-0.3-0.1-0.5-0.1c-0.1,0-0.2,0-0.4,0
			s-0.4,0-0.4,0c-0.1,0-0.2,0-0.3,0c-1.5,0.1-2.5,1.5-2.3,3c0.1,1.5,1.5,2.5,3,2.3h0.1c0,0,0,0,0.1,0l0,0H21c0.1,0,0.1,0,0.2,0
			c0.1,0,0.4,0,0.7,0.1c0.3,0.1,0.6,0.1,1,0.1c0.4,0.1,0.8,0.2,1.2,0.3C24.6,43.3,25.1,43.5,25.5,43.6z"/>
	</g>
</g>
</svg>
