<?xml version="1.0" encoding="utf-8"?>
<!-- Generator: Adobe Illustrator 18.1.1, SVG Export Plug-In . SVG Version: 6.00 Build 0)  -->
<svg version="1.1" id="Layer_1" xmlns="http://www.w3.org/2000/svg" xmlns:xlink="http://www.w3.org/1999/xlink" x="0px" y="0px"
	 viewBox="0 0 90 90" enable-background="new 0 0 90 90" xml:space="preserve">
<g>
	<circle fill="#EF4538" cx="45" cy="45" r="44.6"/>
	<g>
		
			<ellipse transform="matrix(0.7071 -0.7071 0.7071 0.7071 -18.373 45.4221)" fill="#FFC717" cx="45.6" cy="44.9" rx="36.5" ry="15"/>
		<path fill="#FAF4A6" d="M50.3,27.6c0,0,0.1,0,0.2-0.1c0.1,0,0.4-0.1,0.7-0.1c0.3-0.1,0.6-0.1,1-0.1s0.8,0,1.3,0.1
			c0.5,0.1,1,0.1,1.5,0.3c0.6,0.1,1.1,0.4,1.7,0.6c0.6,0.3,1.1,0.6,1.7,1c0.6,0.4,1.1,0.8,1.5,1.3c0.4,0.5,0.8,1.1,1.3,1.5
			c0.4,0.6,0.6,1.1,0.9,1.7c0.2,0.6,0.4,1.1,0.6,1.6c0.1,0.5,0.2,1.1,0.3,1.5c0.1,0.2,0.1,0.4,0.1,0.6s0,0.4,0,0.6c0,0.4,0,0.7,0,1
			c0,0.6-0.1,0.8-0.1,0.8c-0.1,0.7-0.7,1.2-1.4,1.1c-0.4-0.1-0.8-0.3-1-0.7l-0.1-0.1c0,0-0.1-0.3-0.3-0.7c-0.1-0.2-0.2-0.5-0.3-0.8
			c-0.1-0.3-0.3-0.6-0.4-0.9c-0.1-0.4-0.4-0.7-0.5-1.1c-0.2-0.4-0.4-0.7-0.6-1.1c-0.2-0.4-0.5-0.7-0.7-1.1c-0.3-0.4-0.6-0.7-0.8-1
			c-0.4-0.3-0.6-0.6-1-0.9c-0.1-0.1-0.4-0.3-0.5-0.4c-0.2-0.1-0.4-0.2-0.5-0.4c-0.4-0.2-0.7-0.4-1.1-0.6c-0.4-0.1-0.7-0.4-1.1-0.5
			c-0.6-0.3-1.3-0.5-1.6-0.6c-0.2-0.1-0.4-0.1-0.4-0.1C50.7,30,50.6,30,50.6,30c-0.7,0-1.3-0.5-1.3-1.2
			C49.1,28.2,49.7,27.6,50.3,27.6z"/>
		<path fill="#FAF4A6" d="M38.5,39.5c0,0,0.1,0,0.2-0.1c0.1,0,0.4-0.1,0.7-0.1c0.3-0.1,0.6-0.1,1-0.1s0.8,0,1.3,0.1
			c0.5,0.1,1,0.1,1.5,0.3c0.6,0.1,1.1,0.4,1.7,0.6c0.6,0.3,1.1,0.6,1.7,1c0.6,0.4,1.1,0.8,1.5,1.3c0.4,0.5,0.8,1.1,1.3,1.5
			c0.4,0.6,0.6,1.1,0.9,1.7c0.2,0.6,0.4,1.1,0.6,1.6c0.1,0.5,0.2,1.1,0.3,1.5c0.1,0.2,0.1,0.4,0.1,0.6c0,0.2,0,0.4,0,0.6
			c0,0.4,0,0.7,0,1c0,0.6-0.1,0.8-0.1,0.8c-0.1,0.7-0.7,1.2-1.4,1.1c-0.4-0.1-0.8-0.3-1-0.7l-0.1-0.1c0,0-0.1-0.3-0.3-0.7
			c-0.1-0.2-0.2-0.5-0.3-0.8c-0.1-0.3-0.3-0.6-0.4-0.9c-0.1-0.4-0.4-0.7-0.5-1.1c-0.2-0.4-0.4-0.7-0.6-1.1c-0.2-0.4-0.5-0.7-0.7-1.1
			c-0.3-0.4-0.6-0.7-0.8-1c-0.4-0.3-0.6-0.6-1-0.9c-0.1-0.1-0.4-0.3-0.5-0.4c-0.2-0.1-0.4-0.2-0.5-0.4c-0.4-0.2-0.7-0.4-1.1-0.6
			c-0.4-0.1-0.7-0.4-1.1-0.5c-0.6-0.3-1.3-0.5-1.6-0.6C39.1,42,39,42,38.9,42c-0.1-0.1-0.2-0.1-0.2-0.1c-0.7,0-1.3-0.5-1.3-1.2
			C37.3,40.1,37.8,39.5,38.5,39.5z"/>
		<path fill="#FAF4A6" d="M26.6,51.4c0,0,0.1,0,0.2-0.1c0.1,0,0.4-0.1,0.7-0.1c0.3-0.1,0.6-0.1,1-0.1s0.8,0,1.3,0.1
			c0.5,0.1,1,0.1,1.5,0.3c0.6,0.1,1.1,0.4,1.7,0.6c0.6,0.3,1.1,0.6,1.7,1c0.6,0.4,1.1,0.8,1.5,1.3c0.4,0.5,0.8,1.1,1.3,1.5
			c0.4,0.6,0.6,1.1,0.9,1.7c0.2,0.6,0.4,1.1,0.6,1.6c0.1,0.5,0.2,1.1,0.3,1.5c0.1,0.2,0.1,0.4,0.1,0.6s0,0.4,0,0.6c0,0.4,0,0.7,0,1
			c0,0.6-0.1,0.8-0.1,0.8c-0.1,0.7-0.7,1.2-1.4,1.1c-0.4-0.1-0.8-0.3-1-0.7l-0.1-0.1c0,0-0.1-0.3-0.3-0.7c-0.1-0.2-0.2-0.5-0.3-0.8
			s-0.3-0.6-0.4-0.9c-0.1-0.4-0.4-0.7-0.5-1.1c-0.2-0.4-0.4-0.7-0.6-1.1c-0.2-0.4-0.5-0.7-0.7-1.1c-0.3-0.4-0.6-0.7-0.8-1
			c-0.4-0.3-0.6-0.6-1-0.9c-0.1-0.1-0.4-0.3-0.5-0.4c-0.2-0.1-0.4-0.2-0.5-0.4c-0.4-0.2-0.7-0.4-1.1-0.6c-0.4-0.1-0.7-0.4-1.1-0.5
			c-0.6-0.3-1.3-0.5-1.6-0.6c-0.2-0.1-0.4-0.1-0.4-0.1c-0.1-0.1-0.2-0.1-0.2-0.1c-0.7,0-1.3-0.5-1.3-1.2
			C25.3,52,25.9,51.5,26.6,51.4z"/>
	</g>
</g>
</svg>
