<?xml version="1.0" encoding="utf-8"?>
<!-- Generator: Adobe Illustrator 18.1.1, SVG Export Plug-In . SVG Version: 6.00 Build 0)  -->
<svg version="1.1" id="Layer_1" xmlns="http://www.w3.org/2000/svg" xmlns:xlink="http://www.w3.org/1999/xlink" x="0px" y="0px"
	 viewBox="0 0 90 90" enable-background="new 0 0 90 90" xml:space="preserve">
<g>
	<circle fill="#FFC717" cx="45" cy="45" r="44.6"/>
	<g>
		<ellipse fill="#D62E2F" cx="45.6" cy="49.4" rx="24.9" ry="22.2"/>
		<path fill="#41B655" d="M33.7,28.4C31.9,28,30,29.3,29.7,31c-0.1,0.2-0.1,0.5,0.1,0.7c0.1,0.1,0.3,0.2,0.5,0.4l6.5,3
			c0.3,0.1,0.5,0.4,0.6,0.8c0.2,1.5-0.8,3.1-1.7,4.4c-0.9,1.3-1.8,2.6-2,4.1c0,0.5,0.4,0.9,0.8,0.9c1.4,0.1,2.7-0.8,3.8-1.8
			c1.8-1.5,3.2-3.4,4.2-5.5c0.1-0.2,0.2-0.4,0.5-0.5c0.3-0.1,0.5,0.1,0.7,0.2c3.4,2.3,6.6,5.1,10.3,6.9c0.7,0.4,1.5-0.2,1.3-1
			l-1.1-6.1c-0.1-0.8,0.8-1.4,1.5-0.8c1.3,1.1,2.6,2.1,3.9,3c0.6,0.4,1.3,0.1,1.4-0.6c0.4-1.8,0.4-3.6,0.3-5.3
			c-0.1-1.3-0.4-2.7-1.2-3.7c-0.6-0.7-1.6-1.1-2.5-0.8c-0.5,0.1-1.1-0.2-1.1-0.7c-0.2-1.2-0.8-2.3-1.5-3.3c-0.4-0.5-1.3-0.4-1.5,0.2
			l-0.6,1.1c-0.2,0.4-0.6,0.6-1.1,0.5c-2.2-0.6-3.7-2.9-5.8-3.9c-0.5-0.3-1.1,0.1-1.3,0.6s-0.1,1.1,0,1.5c0.1,0.7-0.4,1.3-1.1,1.1
			c-3.3-0.7-6.5-2.3-9.8-2.7c-0.9-0.1-1.4,1.1-0.7,1.6l2.7,2.2c0.1,0.1,0.3,0.2,0.4,0.4c0.3,0.5-0.3,1.1-0.9,1.2
			C34.8,28.8,34.2,28.5,33.7,28.4z"/>
		<path fill="#753A29" d="M45.8,33.2c-0.7,0-1.3-0.6-1.4-1.3c0-0.2-0.4-5.6,3.4-9.6c2.5-2.7,6.3-4.1,11.1-4.1c0.8,0,1.4,0.6,1.4,1.4
			c0,0.8-0.6,1.4-1.4,1.4c-4.1,0-7.1,1.1-9.1,3.2c-2.9,3.1-2.6,7.5-2.6,7.5c0.1,0.8-0.5,1.4-1.3,1.5C45.9,33.2,45.9,33.2,45.8,33.2z
			"/>
	</g>
</g>
</svg>
