<?xml version="1.0" encoding="utf-8"?>
<!-- Generator: Adobe Illustrator 18.1.1, SVG Export Plug-In . SVG Version: 6.00 Build 0)  -->
<svg version="1.1" id="Layer_1" xmlns="http://www.w3.org/2000/svg" xmlns:xlink="http://www.w3.org/1999/xlink" x="0px" y="0px"
	 viewBox="0 0 90 90" enable-background="new 0 0 90 90" xml:space="preserve">
<g>
	<circle fill="#EF4538" cx="45" cy="45" r="44.6"/>
	<g>
		<path fill="#915037" d="M58.6,35.3c0-0.5,0.3-1,0.7-1.2c0.1-0.1,5.9-3.2,10.1-11.3c0.3-0.6,0.1-1.5-0.3-2.5
			c-0.4-0.7-0.1-1.5,0.6-1.8s1.5-0.1,1.8,0.6c0.8,1.8,1,3.6,0.3,4.9c-4.6,8.9-11,12.3-11.2,12.4c-0.7,0.4-1.5,0.1-1.8-0.6
			C58.6,35.7,58.6,35.5,58.6,35.3z"/>
		<path fill="#41B655" d="M63.6,32.7l-1.2,1c-0.6,0.7-1.3,1.5-1.6,2.4c-0.4,1.1-0.4,2.3-0.8,3.3s-1.1,2.2-2.2,2.4
			c1.3,0.5,1.3,2.5,0.5,3.6c-0.8,1.1-2.1,1.8-3.1,2.8c0.7,0.4,0.5,1.5-0.1,2c-0.6,0.5-1.5,0.7-2,1.3c0.7,0.8,0.7,2.2,0,3
			c-0.7,0.8-2,1.1-3,0.6c0.8,0.5,0.6,1.8-0.1,2.3c-0.7,0.6-1.7,0.7-2.6,0.8c0.6,0.4,0,1.5-0.7,1.7c-0.7,0.2-1.6,0.1-2.2,0.6
			c0.6,0.3,0.5,1.3-0.1,1.6c-0.6,0.4-1.3,0.3-2,0.4c-0.7,0-1.5,0.1-1.8,0.8c0.5,0.6-0.1,1.6-0.8,1.8c-0.8,0.2-1.5-0.1-2.3-0.3
			c0.4,0.4,0.1,1.3-0.4,1.6s-1.2,0.4-1.8,0.5s-1.3,0.4-1.5,1.1c-0.1,0.3-0.1,0.5-0.1,0.8c-0.3,0.8-1.3,0.9-2,0.8s-1.7-0.1-2.3,0.4
			c0.2,0.4-0.1,0.8-0.5,1c-0.4,0.1-0.8,0-1.3,0c-2-0.2-4,1-6.1,0.9c-1.5-0.1-3-0.8-4.4-1.5l0,0c-0.4-1.5-0.8-3.1-0.6-4.6
			c0.4-2,2-3.7,2.2-5.8c0.1-0.4,0-0.9,0.2-1.3s0.8-0.6,1.1-0.3c0.7-0.4,0.8-1.3,0.8-2.1c0.1-0.8,0.4-1.7,1.2-1.8
			c0.3,0,0.5,0.1,0.8,0c0.6-0.1,1.1-0.6,1.3-1.2c0.3-0.6,0.4-1.2,0.8-1.7c0.4-0.4,1.3-0.6,1.6-0.1c-0.1-0.8-0.2-1.6,0.2-2.3
			c0.4-0.7,1.5-1,2-0.4c0.6-0.2,1-0.9,1.1-1.5s0.3-1.4,0.7-1.8c0.5-0.5,1.5-0.4,1.6,0.3c0.6-0.5,0.6-1.3,1-2s1.5-1.1,1.8-0.4
			c0.3-0.8,0.6-1.8,1.3-2.3c0.7-0.6,2-0.4,2.3,0.4c-0.3-1.1,0.3-2.3,1.3-2.7s2.3-0.2,3,0.6c0.7-0.4,1.1-1.2,1.8-1.7s1.8-0.5,2,0.3
			c1.2-0.7,2.1-1.8,3.4-2.4c1.3-0.6,3.2-0.1,3.4,1.2c0.4-1.1,1.6-1.5,2.7-1.7c1.1-0.1,2.2,0.1,3.4-0.1c1-0.1,1.8-0.6,2.7-1.1l1.2-1
			c-0.2,0.2-0.4,0.4-0.6,0.6C63.1,33,63.3,32.9,63.6,32.7z"/>
		<path fill="#168B7D" d="M46.7,40.4c0-0.5,0.4-0.9,0.8-1c0.6-0.1,1.1,0.2,1.3,0.8l0.4,1.5c0.4,0.2,0.6,0.6,0.5,0.9
			c0,0.6-0.5,1.1-1.1,1c-0.3,0-1.2-0.1-1.5-1.4l-0.4-1.6C46.7,40.6,46.7,40.5,46.7,40.4z"/>
		<path fill="#168B7D" d="M41.1,44.7c0-0.7,0.1-1.5,0.4-2.2c0.1-0.6,0.8-0.8,1.3-0.7c0.6,0.1,0.8,0.8,0.7,1.3
			c-0.2,0.6-0.3,1.1-0.2,1.8c0,0.6-0.4,1.1-1,1.1c-0.6,0-1.1-0.4-1.1-1C41.1,44.9,41.1,44.8,41.1,44.7z"/>
		<path fill="#168B7D" d="M35.8,47.8c0-0.6,0.1-1.3,0.4-1.9c0.2-0.6,0.8-0.8,1.3-0.6c0.6,0.2,0.8,0.8,0.6,1.3
			c-0.2,0.6-0.3,1.3-0.1,1.9c0.1,0.6-0.2,1.1-0.8,1.2c-0.6,0.1-1.1-0.2-1.2-0.8C35.8,48.6,35.8,48.2,35.8,47.8z"/>
		<path fill="#168B7D" d="M29.1,52c0-0.5,0.1-1,0.2-1.5c0.2-0.6,0.8-0.8,1.3-0.6c0.6,0.2,0.8,0.8,0.6,1.3c-0.2,0.6-0.1,1.3,0.1,2
			c0.3,0.5,0,1.1-0.5,1.4c-0.5,0.3-1.1,0-1.4-0.5C29.2,53.4,29.1,52.7,29.1,52z"/>
		<path fill="#168B7D" d="M24.9,58.9c0-0.4,0-0.8,0.1-1.3c0.1-0.6,0.6-1,1.2-0.9c0.6,0.1,1,0.6,0.9,1.2c-0.1,0.5-0.1,1-0.1,1.5
			c0.1,0.6-0.4,1.1-1,1.1c-0.6,0-1.1-0.4-1.1-1C24.9,59.3,24.9,59.1,24.9,58.9z"/>
		<path fill="#168B7D" d="M26.2,66.7c0-0.1,0-0.2,0.1-0.4c0.2-0.6,0.8-0.8,1.3-0.6c0.5,0.2,1,0.2,1.5,0c0.6-0.2,1.1,0.1,1.3,0.6
			c0.2,0.6-0.1,1.1-0.6,1.3c-0.9,0.3-2,0.3-2.9-0.1C26.5,67.4,26.2,67.1,26.2,66.7z"/>
		<path fill="#168B7D" d="M31.4,63.1c0-0.1,0-0.2,0.1-0.3c0.1-0.6,0.8-0.8,1.3-0.7l1.6,0.5c0.6,0.1,0.8,0.8,0.7,1.3
			c-0.1,0.6-0.8,0.8-1.3,0.7l-1.6-0.5C31.6,64,31.4,63.6,31.4,63.1z"/>
		<path fill="#168B7D" d="M36.9,59.4c0-0.6,0.5-1.1,1.1-1.1h1.7c0.6,0,1.1,0.5,1.1,1.1s-0.5,1.1-1.1,1.1H38
			C37.3,60.4,36.9,60,36.9,59.4z"/>
		<path fill="#168B7D" d="M41.6,55.1c0-0.6,0.5-1.1,1.1-1.1h1.3c0.6,0,1.1,0.5,1.1,1.1c0,0.6-0.5,1.1-1.1,1.1h-1.3
			C42,56.1,41.6,55.6,41.6,55.1z"/>
		<path fill="#168B7D" d="M47.5,50.9c0-0.1,0-0.2,0.1-0.3c0.1-0.6,0.8-0.8,1.3-0.7c0.3,0.1,0.6,0.1,1,0.1c0.6,0,1.1,0.5,1,1.1
			c0,0.6-0.5,1.1-1.1,1c-0.5,0-1.1-0.1-1.5-0.3C47.8,51.8,47.5,51.3,47.5,50.9z"/>
		<path fill="#168B7D" d="M50.5,44.6c0-0.5,0.4-0.9,0.8-1.1c0.4-0.4,1-0.4,1.4,0c0.4,0.4,0.4,1.1,0.1,1.5c-0.4,0.4-0.8,0.6-1.2,0.6
			c-0.6,0.1-1.1-0.4-1.1-0.9C50.5,44.6,50.5,44.6,50.5,44.6z"/>
		<path fill="#168B7D" d="M39.9,52.1c0-0.4,0.1-0.6,0.4-0.8c0.8-0.6,1.8-0.8,2.7-0.6c0.6,0.1,0.9,0.7,0.8,1.2
			c-0.1,0.6-0.7,0.9-1.3,0.8c-0.4-0.1-0.8,0-1.1,0.2c-0.5,0.4-1.1,0.2-1.4-0.3C39.9,52.5,39.9,52.3,39.9,52.1z"/>
		<path fill="#168B7D" d="M30.4,57.9c0-0.4,0.2-0.7,0.5-0.9l0.9-0.5c0.5-0.3,1.1-0.1,1.4,0.4c0.3,0.5,0.1,1.1-0.4,1.4L32,58.7
			c-0.5,0.3-1.1,0.1-1.4-0.4C30.5,58.2,30.4,58.1,30.4,57.9z"/>
		<path fill="#168B7D" d="M21.4,63.9c0-0.4,0.2-0.7,0.5-0.9l0.9-0.5c0.5-0.3,1.1-0.1,1.4,0.4c0.3,0.5,0.1,1.1-0.4,1.4l-0.9,0.5
			c-0.5,0.3-1.1,0.1-1.4-0.4C21.4,64.3,21.4,64.1,21.4,63.9z"/>
	</g>
</g>
</svg>
