<?xml version="1.0" encoding="utf-8"?>
<!-- Generator: Adobe Illustrator 18.1.1, SVG Export Plug-In . SVG Version: 6.00 Build 0)  -->
<svg version="1.1" id="Layer_1" xmlns="http://www.w3.org/2000/svg" xmlns:xlink="http://www.w3.org/1999/xlink" x="0px" y="0px"
	 viewBox="0 0 128 128" enable-background="new 0 0 128 128" xml:space="preserve">
<g>
	<circle fill="#388CCB" cx="64" cy="64" r="63.5"/>
	<g>
		<path fill="#FFC717" d="M92.3,60.9c1.9,10-1,20.7-8.8,28.4c-12.4,12.4-32.6,12.4-45,0s-12.4-32.6,0-45c8-8,19.3-10.9,29.6-8.5
			l1.1-4.8c-11.9-2.7-24.9,0.6-34.2,9.8c-14.4,14.4-14.4,37.6,0,52s37.6,14.4,52,0c8.9-8.9,12.3-21.3,10.1-32.8L92.3,60.9z"/>
		<path fill="#FFC717" d="M90.1,37.8c4.7,4.7,7.6,10.5,8.8,16.6l4.8-0.9c-1.3-7-4.7-13.7-10.1-19.1c-5.1-5.1-11.3-8.4-17.8-9.8
			l-1.1,4.8C80.3,30.5,85.7,33.4,90.1,37.8z"/>
		<path fill="#FAF4A6" d="M74.6,29.3l-7.1,31l31.3-5.9c-1.1-6.1-4.1-11.9-8.8-16.6C85.7,33.4,80.3,30.5,74.6,29.3z"/>
		<path fill="#FAF4A6" d="M68.1,35.8c-10.3-2.3-21.5,0.5-29.6,8.5c-12.4,12.4-12.4,32.6,0,45s32.6,12.4,45,0
			c7.7-7.7,10.6-18.4,8.8-28.4L61,66.8L68.1,35.8z"/>
		<circle fill="#D62E2F" cx="73.2" cy="81.4" r="5"/>
		<circle fill="#D62E2F" cx="45" cy="75.8" r="3.1"/>
		<circle fill="#D62E2F" cx="47.2" cy="51.4" r="2.8"/>
		<circle fill="#565756" cx="55.8" cy="84.8" r="1.3"/>
		<circle fill="#565756" cx="41.8" cy="61.8" r="0.7"/>
		<circle fill="#565756" cx="58.3" cy="42.2" r="1.4"/>
		<circle fill="#D62E2F" cx="81.8" cy="41.6" r="4.8"/>
		<circle fill="#565756" cx="74.2" cy="55.2" r="1.1"/>
		<circle fill="#565756" cx="87.3" cy="51.4" r="0.9"/>
		<circle fill="#565756" cx="81.1" cy="71.5" r="1.4"/>
	</g>
</g>
</svg>
