<?xml version="1.0" encoding="utf-8"?>
<!-- Generator: Adobe Illustrator 18.1.1, SVG Export Plug-In . SVG Version: 6.00 Build 0)  -->
<svg version="1.1" id="Layer_1" xmlns="http://www.w3.org/2000/svg" xmlns:xlink="http://www.w3.org/1999/xlink" x="0px" y="0px"
	 viewBox="0 0 90 90" enable-background="new 0 0 90 90" xml:space="preserve">
<g>
	<circle fill="#388CCB" cx="45" cy="45" r="44.6"/>
	<g>
		<path fill="#FFC717" d="M54,28c10.1,3.2,17.4,11.7,17.4,21.8c0,12.8-11.8,23.1-26.4,23.1S18.6,62.5,18.6,49.7S30.4,26.6,45,26.6
			c1,0,2,0.1,3,0.1"/>
		<path fill="#41B655" d="M48.5,31.5c0.6-0.1,1.3-0.4,1.9-0.6c1.5-0.7,3-1.8,3.6-3.3c0.2-0.4,0.3-0.8,0.2-1.3c0-0.1-0.1-0.2-0.1-0.3
			c-0.1-0.1-0.1-0.1-0.2-0.1c-1.2-0.5-2.5-0.2-3.8,0.1C49,26.3,48,26.6,47,27.1c-0.6,0.4-1.3,0.7-1.9,1.1c-0.1-1-0.5-1.9-0.9-2.8
			c-0.6-1.3-1.5-2.5-2-3.9c-0.1,0.8-0.4,1.5-0.8,2.1c-0.2,0.4-0.5,0.7-0.7,1.1c-0.3,0.6-0.2,1.3-0.2,1.9c0,1.1,0,2.1,0.1,3.2
			c0,0.1,0,0.1,0,0.1c-1.9-0.6-3.7-0.5-5.2-1.8c-1.1,3.2,2.5,5.1,3.4,5.3c-1.8,1.4-1.6,3.2-2.2,5.3c3,0.1,6.5-2.7,7.5-5.5
			c0.1,2.8,2.1,6.8,2.4,7.2c0.7,0.8,1.4,1.5,2.1,2.3c0.1-2.3,0.1-4.6,0.2-6.8c2.9,1.5,5.7,3.2,8.4,5.1C56,37,52.7,33.3,48.5,31.5z"
			/>
		<path fill="#915037" d="M44.4,31.6c-0.1,0-0.3,0-0.4-0.1c-0.7-0.2-1.1-1-0.8-1.7c0.2-0.6,4.4-13.4,13.9-12.7
			c0.8,0.1,1.3,0.7,1.3,1.5c-0.1,0.8-0.7,1.3-1.5,1.3c-7.3-0.6-11,10.7-11,10.8C45.5,31.3,44.9,31.6,44.4,31.6z"/>
	</g>
</g>
</svg>
