<?xml version="1.0" encoding="utf-8"?>
<!-- Generator: Adobe Illustrator 18.1.1, SVG Export Plug-In . SVG Version: 6.00 Build 0)  -->
<svg version="1.1" id="Layer_1" xmlns="http://www.w3.org/2000/svg" xmlns:xlink="http://www.w3.org/1999/xlink" x="0px" y="0px"
	 viewBox="0 0 90 90" enable-background="new 0 0 90 90" xml:space="preserve">
<g>
	<circle fill="#FFC717" cx="45" cy="45" r="44.6"/>
	<g>
		<rect x="34.7" y="70.2" fill="#5D5E61" width="18.2" height="2.7"/>
		<path fill="#5D5E61" d="M33.7,33.9l27.1-16.4c1.4-0.8,3.2-0.4,4,1c0.8,1.4,0.4,3.2-1,4c-0.1,0.1-0.1,0.1-0.3,0.1L34.9,36.2
			c-0.6,0.3-1.4,0-1.8-0.6C32.8,34.9,33,34.2,33.7,33.9z"/>
		<path fill="#5D5E61" d="M33.9,37L65,30.6c1.5-0.4,3.1,0.7,3.4,2.3s-0.7,3.1-2.3,3.4c-0.1,0-0.2,0-0.3,0.1l-31.6,3.3
			c-0.7,0.1-1.3-0.4-1.5-1.2C32.8,37.7,33.2,37.1,33.9,37z"/>
		<path fill="#22A79C" d="M21.5,51.3c0,8.4,5.3,15.6,13,18.8h18.4C60.7,66.9,66,59.7,66,51.3H21.5z"/>
		<path fill="#FAF4A6" d="M34,44.6c-0.8,1.8-1,3.9-0.6,6.7h2v-0.1c-0.4-2.4-0.2-4.3,0.5-5.8l0.1-0.1c0.1-0.4,0.3-0.7,0.4-1.1
			c0.1-0.4,0-0.8-0.1-1.2c-0.1-0.8-0.3-1.3-0.4-1.8c-0.2-0.8-0.4-1.1-0.1-2.3c0.1-0.5-0.2-1.1-0.7-1.2c-0.5-0.1-1.1,0.2-1.2,0.7
			c-0.4,1.7-0.2,2.5,0.1,3.3c0.1,0.4,0.3,0.8,0.4,1.5c0.1,0.2,0.1,0.4,0.1,0.6c0,0.1-0.1,0.4-0.2,0.6L34,44.6z"/>
		<path fill="#FAF4A6" d="M41,39.7c0.4,1,0.2,1.4,0.1,2.1c-0.1,0.6-0.3,1.3-0.3,2.3c0,0.8,0.1,1.5,0.2,2.3c0.1,0.6,0.2,1.3,0.2,1.9
			c0,1-0.1,2-0.3,3h2c0.1-1,0.3-2,0.3-3c0-0.7-0.1-1.4-0.2-2.1s-0.2-1.4-0.2-2c0-0.8,0.1-1.3,0.2-1.8c0.2-0.8,0.4-1.7-0.1-3.2
			c-0.1-0.2-0.1-0.4-0.3-0.7c-0.1-0.4-0.3-0.8-0.3-1.1c0-0.6-0.4-1-1-1l0,0c-0.6,0-1,0.4-1,1c0,0.7,0.2,1.3,0.4,1.8
			C40.9,39.4,40.9,39.5,41,39.7z"/>
		<path fill="#FAF4A6" d="M47.7,38.8c0.4,1.1,0.2,1.5,0.1,2.3c-0.1,0.6-0.3,1.3-0.3,2.5c0,0.8,0.1,1.6,0.2,2.4
			c0.1,0.7,0.2,1.3,0.2,2c0,1.1-0.1,2.2-0.4,3.2c0,0,0,0,0,0.1h2c0.2-1.1,0.4-2.2,0.3-3.4c0-0.8-0.1-1.5-0.2-2.2
			c-0.1-0.7-0.1-1.4-0.1-2.1c0-0.8,0.1-1.4,0.3-2c0.2-0.8,0.4-1.8-0.1-3.4c-0.1-0.2-0.1-0.5-0.3-0.7c-0.1-0.4-0.3-0.8-0.3-1.2
			c0-0.6-0.4-1-1-1l0,0c-0.6,0-1,0.4-1,1c0,0.7,0.2,1.3,0.4,1.9C47.5,38.5,47.6,38.6,47.7,38.8z"/>
	</g>
</g>
</svg>
