<?xml version="1.0" encoding="utf-8"?>
<!-- Generator: Adobe Illustrator 18.1.1, SVG Export Plug-In . SVG Version: 6.00 Build 0)  -->
<svg version="1.1" id="Layer_1" xmlns="http://www.w3.org/2000/svg" xmlns:xlink="http://www.w3.org/1999/xlink" x="0px" y="0px"
	 viewBox="0 0 128 128" enable-background="new 0 0 128 128" xml:space="preserve">
<g>
	<circle fill="#FFC717" cx="64" cy="64" r="63.5"/>
	<g>
		<rect x="54.3" y="61.2" fill="#915037" width="23.3" height="22.7"/>
		<path fill="#5D5E61" d="M100.1,84h-5.9v-3c0-6.5-5.3-11.8-11.8-11.8h-4.9v-5.9h4.9c9.8,0,17.7,7.9,17.7,17.7V84z"/>
		<path fill="#D62E2F" d="M101.7,96c0,2.3-1.9,4.1-4.1,4.1c-2.3,0-4.1-1.9-4.1-4.1s1.9-7.6,4.1-7.6C99.8,88.4,101.7,93.7,101.7,96z"
			/>
		<path fill="#5D5E61" d="M68.9,52.4L29.7,30.5c-2.5-1.4-5.6-0.4-6.9,2.1h0c-1.3,2.6-0.1,5.7,2.5,6.8l37.6,16v5.8h5.9v-8.5h-0.1
			L68.9,52.4z"/>
	</g>
</g>
</svg>
