<?xml version="1.0" encoding="utf-8"?>
<!-- Generator: Adobe Illustrator 18.1.1, SVG Export Plug-In . SVG Version: 6.00 Build 0)  -->
<svg version="1.1" id="Layer_1" xmlns="http://www.w3.org/2000/svg" xmlns:xlink="http://www.w3.org/1999/xlink" x="0px" y="0px"
	 viewBox="0 0 128 128" enable-background="new 0 0 128 128" xml:space="preserve">
<g>
	<circle fill="#388CCB" cx="64" cy="64" r="63.5"/>
	<g>
		<polygon fill="#915037" points="65.6,33.2 65.6,24.3 56.5,24.3 56.5,31.1 		"/>
		<path fill="#FAF4A6" d="M74.1,68.2c-4.9-5.5-7.4-12.8-7.4-20.2V33.5l-17.2-4l5.7,7.5v11l0,0v0c0,7.4-2.5,14.7-7.4,20.2
			c-3.8,4.3-6.2,10.5-6.2,17.5c0,7.2,2.6,13.7,6.7,18h25.4c4.1-4.3,6.7-10.8,6.7-18C80.4,78.7,78,72.5,74.1,68.2z"/>
		<path fill="#565756" d="M66.8,41.3c9.3,1.4,16.6,11.1,16.6,22.9c0,5.1-1.4,10.1-3.9,14.1c0.3,1.3,0.6,2.7,0.8,4.1
			c3.9-4.8,6.2-11.3,6.2-18.1c0-13.4-8.6-24.5-19.6-25.9V41.3z"/>
	</g>
</g>
</svg>
