<?xml version="1.0" encoding="utf-8"?>
<!-- Generator: Adobe Illustrator 18.1.1, SVG Export Plug-In . SVG Version: 6.00 Build 0)  -->
<svg version="1.1" id="Layer_1" xmlns="http://www.w3.org/2000/svg" xmlns:xlink="http://www.w3.org/1999/xlink" x="0px" y="0px"
	 viewBox="0 0 128 128" enable-background="new 0 0 128 128" xml:space="preserve">
<g>
	<circle fill="#41B655" cx="64" cy="64" r="63.5"/>
	<g>
		<path fill="#E3E6E8" d="M64,28.6c-13.2-4.4-26.5-7.4-39.7,0.9v74.1c13.2-8.6,26.5-5.5,39.7-0.9V28.6z"/>
		<path fill="#BAC1C6" d="M64,28.6c13.2-4.4,26.5-7.4,39.7,0.9v74.1c-13.2-8.6-26.5-5.5-39.7-0.9V28.6z"/>
		<path fill="#5D5E61" d="M99.8,38.5c-0.2,0-0.5-0.1-0.7-0.2c-10.6-5.4-21.3-3.1-30.4-0.1c-0.8,0.3-1.6-0.2-1.9-1
			c-0.3-0.8,0.2-1.6,1-1.9c9.7-3.2,21.1-5.6,32.7,0.3c0.7,0.4,1,1.3,0.6,2C100.9,38.2,100.4,38.5,99.8,38.5z"/>
		<path fill="#5D5E61" d="M99.8,49.2c-0.2,0-0.5-0.1-0.7-0.2c-10.6-5.4-21.3-3.1-30.4-0.1c-0.8,0.3-1.6-0.2-1.9-1
			c-0.3-0.8,0.2-1.6,1-1.9c9.7-3.2,21.1-5.6,32.7,0.3c0.7,0.4,1,1.3,0.6,2C100.9,48.9,100.4,49.2,99.8,49.2z"/>
		<path fill="#5D5E61" d="M99.8,60c-0.2,0-0.5-0.1-0.7-0.2c-10.6-5.4-21.3-3.1-30.4-0.1c-0.8,0.3-1.6-0.2-1.9-1
			c-0.3-0.8,0.2-1.6,1-1.9c9.7-3.2,21.1-5.6,32.7,0.3c0.7,0.4,1,1.3,0.6,2C100.9,59.7,100.4,60,99.8,60z"/>
		<path fill="#5D5E61" d="M99.8,70.7c-0.2,0-0.5-0.1-0.7-0.2c-10.6-5.4-21.3-3.1-30.4-0.1c-0.8,0.3-1.6-0.2-1.9-1
			c-0.3-0.8,0.2-1.6,1-1.9c9.7-3.2,21.1-5.6,32.7,0.3c0.7,0.4,1,1.3,0.6,2C100.9,70.4,100.4,70.7,99.8,70.7z"/>
		<path fill="#5D5E61" d="M99.8,81.5c-0.2,0-0.5-0.1-0.7-0.2c-10.6-5.4-21.3-3.1-30.4-0.1c-0.8,0.3-1.6-0.2-1.9-1
			c-0.3-0.8,0.2-1.6,1-1.9c9.7-3.2,21.1-5.6,32.7,0.3c0.7,0.4,1,1.3,0.6,2C100.9,81.2,100.4,81.5,99.8,81.5z"/>
		<path fill="#5D5E61" d="M99.8,92.2c-0.2,0-0.5-0.1-0.7-0.2c-10.6-5.4-21.3-3.1-30.4-0.1c-0.8,0.3-1.6-0.2-1.9-1
			c-0.3-0.8,0.2-1.6,1-1.9c9.7-3.2,21.1-5.6,32.7,0.3c0.7,0.4,1,1.3,0.6,2C100.9,91.9,100.4,92.2,99.8,92.2z"/>
		<path fill="#FFC717" d="M59.4,63.4c-0.2-0.7-0.4-1.4-0.6-2.1c-1.2-5.9-7-10.3-14-10.3c-6.1,0-11.2,3.3-13.3,8.1
			c-0.3,0.7-0.8,1.4-1.5,1.8c-1.3,1-2.1,2.8-1.5,4.4c0.1,0.4,0.3,0.7,0.6,1c1.1,1.1,2.9,0.7,4.3,0s2.9-1.6,4.4-1
			c0.6,0.2,1.1,0.6,1.6,0.9c1.9,1.2,4.4,1.2,6.3,0.1c0.8-0.4,1.4-1,2.3-1.3c1.3-0.4,2.7-0.1,3.9,0.4c1.2,0.5,2.6,0.9,3.8,1.5
			C61,69.7,60.1,65.4,59.4,63.4z"/>
		<path fill="#F4B1A8" d="M55.8,66.9c-1.2-0.5-2.5-1-3.8-1.5c-1.2-0.5-2.7-0.9-3.9-0.4c-0.8,0.3-1.5,0.9-2.3,1.3
			c-1.9,1.1-4.4,1-6.3-0.1c-0.5-0.3-1-0.7-1.6-0.9c-1.5-0.5-3,0.4-4.4,1c-0.6,0.3-1.2,0.5-1.8,0.6l1.4,8h22.7l1.3-7.5
			C56.7,67.3,56.2,67.1,55.8,66.9z"/>
		<path fill="#753A29" d="M52.9,61.1c-0.2,0-0.3-0.1-0.4-0.2l-1.7-1.7c-0.2-0.2-0.2-0.6,0-0.8c0.2-0.2,0.6-0.2,0.8,0l1.7,1.7
			c0.2,0.2,0.2,0.6,0,0.8C53.2,61,53,61.1,52.9,61.1z"/>
		<path fill="#753A29" d="M36.6,61.1c-0.2,0-0.3-0.1-0.4-0.2c-0.2-0.2-0.2-0.6,0-0.8l1.7-1.7c0.2-0.2,0.6-0.2,0.8,0
			c0.2,0.2,0.2,0.6,0,0.8L37,60.9C36.9,61,36.8,61.1,36.6,61.1z"/>
		<path fill="#753A29" d="M44.2,57.5c-0.3,0-0.6-0.3-0.6-0.6v-2.9c0-0.3,0.3-0.6,0.6-0.6c0.3,0,0.6,0.3,0.6,0.6V57
			C44.7,57.3,44.5,57.5,44.2,57.5z"/>
	</g>
</g>
</svg>
