<?xml version="1.0" encoding="utf-8"?>
<!-- Generator: Adobe Illustrator 18.1.1, SVG Export Plug-In . SVG Version: 6.00 Build 0)  -->
<svg version="1.1" id="Layer_1" xmlns="http://www.w3.org/2000/svg" xmlns:xlink="http://www.w3.org/1999/xlink" x="0px" y="0px"
	 viewBox="0 0 128 128" enable-background="new 0 0 128 128" xml:space="preserve">
<g>
	<circle fill="#FFC717" cx="64" cy="64" r="63.5"/>
	<g>
		<path fill="#22A79C" d="M49.2,94c4.7-1.2,9-3.3,13-5.8C76.9,79.3,89.5,65.7,93,47c0.6-3.2,0.9-6.5,0-9.9c-0.9-3.5-3-7.5-1.5-10.2
			c0.2-0.4,0.6-0.8,0.6-1.3c0-1-1.2-1.8-2-1.7s-1.4,0.9-2,1.5c-4.3,5.7-8.5,11.6-13.5,16.7c-2.8,2.9-5.8,5.5-8.5,8.4
			c-2.8,3.1-5.3,6.6-8.2,9.6c-2.9,3.1-6.2,5.7-9.5,8.3C42.7,73,37,77.6,31.2,82.1c-2.7,2.1-5.3,4.2-7.3,7.1c-0.5,0.8-1,1.9-0.4,2.9
			c0.5,0.7,1.3,1,2.1,1.2C33.6,95,41.8,95.8,49.2,94z"/>
		
			<ellipse transform="matrix(0.9631 -0.2691 0.2691 0.9631 -16.5915 19.9439)" fill="#0F8070" cx="64.5" cy="70.5" rx="5.2" ry="5.2"/>
		
			<ellipse transform="matrix(0.9631 -0.2691 0.2691 0.9631 -19.4487 17.9744)" fill="#0F8070" cx="55.8" cy="79.9" rx="5.2" ry="5.2"/>
		
			<ellipse transform="matrix(0.9631 -0.2691 0.2691 0.9631 -21.4503 15.1414)" fill="#0F8070" cx="44.5" cy="85.8" rx="5.2" ry="5.2"/>
		<ellipse fill="#0F8070" cx="75.1" cy="98.1" rx="5.2" ry="5.2"/>
		<ellipse fill="#0F8070" cx="93.6" cy="98.9" rx="5.2" ry="5.2"/>
		<ellipse fill="#0F8070" cx="86.5" cy="85.2" rx="5.2" ry="5.2"/>
		
			<ellipse transform="matrix(0.9631 -0.2691 0.2691 0.9631 -13.8723 21.8473)" fill="#0F8070" cx="72.8" cy="61.5" rx="5.2" ry="5.2"/>
		
			<ellipse transform="matrix(0.9631 -0.2691 0.2691 0.9631 -10.8966 23.5037)" fill="#0F8070" cx="80.3" cy="51.5" rx="5.2" ry="5.2"/>
	</g>
</g>
</svg>
