<?xml version="1.0" encoding="utf-8"?>
<!-- Generator: Adobe Illustrator 18.1.1, SVG Export Plug-In . SVG Version: 6.00 Build 0)  -->
<svg version="1.1" id="Layer_1" xmlns="http://www.w3.org/2000/svg" xmlns:xlink="http://www.w3.org/1999/xlink" x="0px" y="0px"
	 viewBox="0 0 90 90" enable-background="new 0 0 90 90" xml:space="preserve">
<g>
	<circle fill="#388CCB" cx="45" cy="45" r="44.6"/>
	<g>
		<path fill="#915037" d="M43.5,66.5c7.6,7.6,18.9,8.6,25.2,2.3s5.3-17.6-2.3-25.2c-2-2-4.1-3.4-6.4-4.5c-4.1-1.9-7.7-4.8-10.1-8.6
			c-1.1-1.8-2.5-3.6-4.2-5.2c-8.4-8.4-19.8-10.6-25.5-4.9s-3.5,17.2,4.9,25.5c1.6,1.6,3.4,3,5.2,4.2c3.8,2.5,6.7,6,8.6,10.1
			C40,62.4,41.6,64.5,43.5,66.5z"/>
		<path fill="#753A29" d="M27.5,29.1c-0.3,0-0.6-0.1-0.8-0.3l-3-3c-0.4-0.4-0.4-1.1,0-1.5c0.4-0.4,1.1-0.4,1.5,0l3,3
			c0.4,0.4,0.4,1.1,0,1.5C28,29,27.8,29.1,27.5,29.1z"/>
		<path fill="#753A29" d="M38.7,48c-0.3,0-0.6-0.1-0.8-0.3l-3-3c-0.4-0.4-0.4-1.1,0-1.5c0.4-0.4,1.1-0.4,1.5,0l3,3
			c0.4,0.4,0.4,1.1,0,1.5C39.2,47.9,39,48,38.7,48z"/>
		<path fill="#753A29" d="M28.3,40.7c-0.4,0-0.8-0.2-1-0.6l-1.6-3.9c-0.2-0.6,0-1.1,0.6-1.3c0.6-0.2,1.1,0,1.3,0.6l1.6,3.9
			c0.2,0.6,0,1.1-0.6,1.3C28.5,40.6,28.4,40.7,28.3,40.7z"/>
		<path fill="#753A29" d="M62.2,49.3c-0.4,0-0.8-0.2-1-0.6l-1.6-3.9c-0.2-0.6,0-1.1,0.6-1.3c0.6-0.2,1.1,0,1.3,0.6l1.6,3.9
			c0.2,0.6,0,1.1-0.6,1.3C62.5,49.3,62.4,49.3,62.2,49.3z"/>
		<path fill="#753A29" d="M37.5,28.8c-0.2,0-0.4-0.1-0.6-0.2L33.5,26c-0.5-0.4-0.6-1-0.2-1.5c0.4-0.5,1-0.6,1.5-0.2l3.3,2.5
			c0.5,0.4,0.6,1,0.2,1.5C38.1,28.7,37.8,28.8,37.5,28.8z"/>
		<path fill="#753A29" d="M57,59.3c-0.4,0-0.8-0.2-1-0.6l-1.7-3.8c-0.2-0.5,0-1.1,0.5-1.4c0.6-0.2,1.1,0,1.4,0.5l1.8,3.8
			c0.2,0.5,0,1.1-0.5,1.4C57.2,59.3,57.1,59.3,57,59.3z"/>
		<path fill="#753A29" d="M66.9,60.9c-0.4,0-0.8-0.3-1-0.7l-1.3-4.1c-0.1-0.6,0.1-1.1,0.7-1.3c0.6-0.1,1.1,0.1,1.3,0.7l1.3,4
			c0.1,0.6-0.1,1.1-0.7,1.3C67.1,60.9,67,60.9,66.9,60.9z"/>
		<path fill="#753A29" d="M47.1,37.8c-0.1,0-0.2,0-0.3-0.1l-4-1.2c-0.6-0.1-0.8-0.8-0.7-1.3c0.1-0.6,0.8-0.8,1.3-0.7l4,1.2
			c0.6,0.1,0.8,0.8,0.7,1.3C48,37.5,47.5,37.8,47.1,37.8z"/>
		<path fill="#753A29" d="M47.1,58.9c-0.4,0-0.7-0.1-0.8-0.5l-2.3-3.5c-0.4-0.5-0.2-1.1,0.3-1.5s1.1-0.2,1.5,0.3l2.3,3.5
			c0.4,0.5,0.2,1.1-0.3,1.5C47.5,58.8,47.3,58.9,47.1,58.9z"/>
		<path fill="#753A29" d="M56.1,67.4c-0.1,0-0.2,0-0.3-0.1l-4.1-1.3c-0.6-0.1-0.8-0.8-0.7-1.3c0.1-0.6,0.8-0.8,1.3-0.7l4,1.3
			c0.6,0.1,0.8,0.8,0.7,1.3C57,67.1,56.5,67.4,56.1,67.4z"/>
		<path fill="#753A29" d="M53.2,46.1c-0.2,0-0.4-0.1-0.6-0.2l-3.3-2.6c-0.4-0.4-0.6-1-0.2-1.5s1-0.6,1.5-0.2l3.3,2.5
			c0.4,0.4,0.6,1,0.2,1.5C53.8,45.9,53.4,46.1,53.2,46.1z"/>
		<path fill="#753A29" d="M36.1,37.8c-0.2,0-0.4-0.1-0.6-0.2L32.2,35c-0.4-0.4-0.6-1-0.2-1.5c0.4-0.5,1-0.6,1.5-0.2l3.3,2.5
			c0.4,0.4,0.6,1,0.2,1.5C36.8,37.6,36.5,37.8,36.1,37.8z"/>
	</g>
</g>
</svg>
