<?xml version="1.0" encoding="utf-8"?>
<!-- Generator: Adobe Illustrator 18.1.1, SVG Export Plug-In . SVG Version: 6.00 Build 0)  -->
<svg version="1.1" id="Layer_1" xmlns="http://www.w3.org/2000/svg" xmlns:xlink="http://www.w3.org/1999/xlink" x="0px" y="0px"
	 viewBox="0 0 90 90" enable-background="new 0 0 90 90" xml:space="preserve">
<g>
	<circle fill="#388CCB" cx="45" cy="45" r="44.6"/>
	<g>
		<rect x="17.7" y="17" fill="#565756" width="55.8" height="52.9"/>
		<rect x="23.4" y="30.3" fill="#E3E6E8" width="44.4" height="35.4"/>
		<rect x="22.5" y="69.9" fill="#212020" width="7.6" height="2.9"/>
		<rect x="60.2" y="69.9" fill="#212020" width="7.6" height="2.9"/>
		<circle fill="#FFC717" cx="66.2" cy="22.6" r="2.3"/>
		<circle fill="#FFC717" cx="54.7" cy="22.6" r="2.3"/>
		<rect x="22.1" y="20.3" fill="#E3E6E8" width="18.5" height="4.6"/>
		<path fill="#915037" d="M57.6,48.4c0,4.6-4,8.4-9,8.4s-18.5,1-18.5-3.7c0-7.5,13.5-13.1,18.5-13.1S57.6,43.7,57.6,48.4z"/>
		<path fill="#753A29" d="M56.5,41.6c2.1,1.9-0.7,6.8-2.3,8.4c-1.6,1.7-4.2,1.9-5.9,0.4c-1.6-1.5-1.7-4.1-0.1-5.9
			C49.9,42.8,54.5,39.8,56.5,41.6z"/>
		<path fill="#FCD83A" d="M59.8,38.2c0.1-0.4,0-0.7-0.3-1c-0.4-0.4-1.1-0.4-1.5,0.1c-0.4,0.4-0.4,1.1,0.1,1.4c0,0,0.1,0.1,0.1,0.1
			l-2.3,2.5c0.2,0.1,0.5,0.2,0.6,0.4c0.2,0.2,0.4,0.4,0.5,0.6l2.3-2.5l0.1,0.1c0.4,0.4,1.1,0.4,1.5-0.1c0.4-0.4,0.4-1.1-0.1-1.5
			C60.5,38.1,60.1,38,59.8,38.2z"/>
		<polygon fill="#F4B1A8" points="62,62.7 29.2,62.7 27.5,59.6 63.7,59.6 		"/>
	</g>
</g>
</svg>
