<?xml version="1.0" encoding="utf-8"?>
<!-- Generator: Adobe Illustrator 18.1.1, SVG Export Plug-In . SVG Version: 6.00 Build 0)  -->
<svg version="1.1" id="Layer_1" xmlns="http://www.w3.org/2000/svg" xmlns:xlink="http://www.w3.org/1999/xlink" x="0px" y="0px"
	 viewBox="0 0 90 90" enable-background="new 0 0 90 90" xml:space="preserve">
<g>
	<circle fill="#EF4538" cx="45" cy="45" r="44.6"/>
	<g>
		<rect x="16.5" y="17.4" fill="#E3E6E8" width="4.4" height="55.1"/>
		<circle fill="#F7EC5C" cx="48.2" cy="45" r="24.1"/>
		<path fill="#E3E6E8" d="M28.1,31.6h-7.2v3.8H26C26.6,34,27.3,32.8,28.1,31.6z"/>
		<path fill="#E3E6E8" d="M26,54.6h-5.1v3.8h7.2C27.3,57.2,26.6,56,26,54.6z"/>
		<ellipse transform="matrix(0.5862 0.8102 -0.8102 0.5862 45.936 -15.3997)" fill="#915037" cx="38" cy="37.3" rx="7.9" ry="5.5"/>
		<path fill="#915037" d="M42.8,43.7c0.4-0.4,0.8-0.7,1.1-1.2l12.2,15c0.9,1.1,0.7,2.8-0.5,3.7c-1.2,0.8-2.9,0.6-3.7-0.7L41.4,44.4
			C41.8,44.2,42.3,44.1,42.8,43.7z"/>
		<path fill="#753A29" d="M64.7,35.2l-1.3-1.1l-5.5,6.6c-0.4,0.4-0.9,0.4-1.3,0.1c-0.4-0.4-0.4-0.9-0.1-1.3l5.6-6.6l-1.4-1.2
			l-5.6,6.6c-0.4,0.4-0.9,0.4-1.3,0.1c-0.4-0.4-0.4-0.9-0.1-1.3l5.6-6.6L58,29.7l-7.3,7.9c-1.9,2-1.7,5.3,0.4,7.1l0,0
			c2.1,1.8,5.3,1.5,7-0.8L64.7,35.2z"/>
		<path fill="#753A29" d="M51.1,44.6c-0.4-0.4-0.8-0.8-1.1-1.3L36.8,57.4c-1,1.1-0.9,2.8,0.2,3.7c1.1,1,2.8,0.8,3.7-0.4l11.5-15.4
			C51.9,45.2,51.5,44.9,51.1,44.6z"/>
	</g>
</g>
</svg>
