<?xml version="1.0" encoding="utf-8"?>
<!-- Generator: Adobe Illustrator 18.1.1, SVG Export Plug-In . SVG Version: 6.00 Build 0)  -->
<svg version="1.1" id="Layer_1" xmlns="http://www.w3.org/2000/svg" xmlns:xlink="http://www.w3.org/1999/xlink" x="0px" y="0px"
	 viewBox="0 0 90 90" enable-background="new 0 0 90 90" xml:space="preserve">
<g>
	<circle fill="#41B655" cx="45" cy="45" r="44.6"/>
	<g>
		<path fill="#FAF4A6" d="M62.9,64.5c4.1-4.3,7-9.7,8.8-15.3c0.7-2,1.2-4.1,1.1-6.2c-0.1-4.7-3.6-8.4-7.7-10.1
			c-2-0.8-4.2-1.3-6.1-2.3c-1-1.9-1.6-4-2.2-6.1c-1.7-5.9-14.4-13.6-31.6,2.2c-4.4,4.1-7.5,9.7-8,15.3c-0.2,2.4,0,4.8,0.3,7.2
			c0.7,5.8,2.5,12.6,6.5,16.5l0,0l0,0l0,0l0,0c3.9,4.1,10.6,5.8,16.5,6.5c2.3,0.3,4.7,0.5,7.2,0.3C53.3,71.9,58.8,68.8,62.9,64.5z"
			/>
		<path fill="#915037" d="M49,31.9c1.3,0.1,2.4,0.9,3.4,1.7c1.7,1.2,3.4,2.6,3.9,4.6c0.3,1.3,0,2.7-0.3,4.1
			c-0.9,3.7-2.5,7.5-5.4,10.2c-1.5,1.4-3.4,2.4-5.2,3.4c-2.3,1.3-4.6,2.5-7.1,3c-1.5,0.2-3.1,0.2-4.7,0.4c-1.6,0.2-3.2,0.8-4.4,1.9
			c2-2.7,1.8-6.1,1.3-9.2c-0.4-3.1-1-6.4,0.6-9.3c0.6-1.2,1.5-2.3,2.5-3.2c1.1-1.3,2.3-2.5,3.7-3.4c2.5-1.8,5.6-2.7,8.4-3.6
			C46.8,32.1,48,31.7,49,31.9z"/>
		<path fill="#753A29" d="M52.7,40c-0.1,0-0.4-0.1-0.5-0.1c-0.5-0.3-0.7-0.9-0.4-1.4c0.1-0.3,0.3-0.6,0.4-0.8
			c0.2-0.6,0.8-0.8,1.3-0.7c0.6,0.2,0.8,0.8,0.7,1.3c-0.1,0.4-0.3,0.8-0.5,1.2C53.4,39.9,53.1,40,52.7,40z"/>
		<path fill="#753A29" d="M48.5,42.7c-0.3,0-0.6-0.1-0.8-0.4c-0.4-0.4-0.4-1.1,0.1-1.5c0.1-0.1,0.2-0.3,0.3-0.5
			c0.1-0.6,0.7-0.9,1.3-0.7c0.6,0.1,0.9,0.7,0.7,1.3c-0.1,0.6-0.5,1.1-0.8,1.4C49.1,42.6,48.8,42.7,48.5,42.7z"/>
		<path fill="#753A29" d="M47,49.8c-0.3,0-0.6-0.1-0.8-0.4c-0.4-0.5-0.3-1.1,0.2-1.5c0.1-0.1,0.2-0.2,0.2-0.3
			c0.1-0.6,0.7-0.9,1.3-0.7c0.6,0.1,0.9,0.7,0.7,1.3c-0.1,0.6-0.5,1.1-1,1.4C47.4,49.7,47.2,49.8,47,49.8z"/>
		<path fill="#753A29" d="M44.5,53.2c-0.4,0-0.6-0.1-0.8-0.4c-0.4-0.5-0.2-1.1,0.2-1.5l0.8-0.6c0.5-0.4,1.1-0.2,1.5,0.2
			c0.4,0.5,0.2,1.1-0.2,1.5L45.1,53C45,53.2,44.8,53.2,44.5,53.2z"/>
		<path fill="#753A29" d="M38,56.4c-0.5,0-0.9-0.4-1-0.8c-0.1-0.6,0.2-1.1,0.8-1.3c0.6-0.1,1.1-0.4,1.5-0.7c0.5-0.4,1.1-0.3,1.5,0.2
			c0.4,0.5,0.3,1.1-0.2,1.5c-0.7,0.5-1.5,0.9-2.3,1.1C38.1,56.4,38,56.4,38,56.4z"/>
		<path fill="#753A29" d="M47.5,37.3c-0.4,0-0.8-0.3-1-0.6c-0.2-0.6,0.1-1.1,0.6-1.3l1-0.4c0.6-0.2,1.1,0.1,1.3,0.6
			c0.2,0.6-0.1,1.1-0.6,1.3L48,37.3C47.8,37.3,47.7,37.3,47.5,37.3z"/>
		<path fill="#753A29" d="M43,37.5c-0.4,0-0.8-0.3-1-0.6c-0.2-0.6,0.1-1.1,0.6-1.3c0.2-0.1,0.4-0.2,0.6-0.4c0.4-0.4,1.1-0.5,1.5-0.1
			c0.4,0.4,0.5,1.1,0.1,1.5c-0.4,0.4-0.8,0.8-1.4,1C43.2,37.5,43.1,37.5,43,37.5z"/>
		<path fill="#753A29" d="M37.2,41.2c-0.3,0-0.6-0.1-0.8-0.4c-0.4-0.4-0.4-1.1,0.1-1.5l1.1-1.1c0.4-0.4,1.1-0.4,1.5,0.1
			c0.4,0.4,0.4,1.1-0.1,1.5l-1.1,1.1C37.7,41.1,37.4,41.2,37.2,41.2z"/>
		<path fill="#753A29" d="M34.1,46.1c-0.1,0-0.3,0-0.4-0.1c-0.5-0.2-0.8-0.8-0.5-1.4c0.1-0.3,0.2-0.6,0.4-0.9
			c0.1-0.6,0.7-0.9,1.3-0.8c0.6,0.1,0.9,0.7,0.8,1.3c-0.1,0.5-0.3,0.9-0.4,1.3C34.9,45.9,34.5,46.1,34.1,46.1z"/>
		<path fill="#753A29" d="M33.4,52c-0.5,0-1-0.4-1.1-0.9l-0.2-1.5c-0.1-0.6,0.4-1.1,0.9-1.2c0.6-0.1,1.1,0.4,1.2,0.9l0.2,1.5
			c0.1,0.6-0.4,1.1-0.9,1.2C33.5,52,33.4,52,33.4,52z"/>
		<path fill="#753A29" d="M33.3,56.8c-0.2,0-0.5-0.1-0.7-0.3c-0.4-0.4-0.5-0.8-0.3-1.3c0-0.4,0.4-0.8,0.8-1c0.6-0.1,1.1,0.2,1.3,0.8
			c0.1,0.5,0,1-0.4,1.3C34,56.7,33.7,56.8,33.3,56.8z"/>
		<path fill="#753A29" d="M42.5,42.8c-0.3,0-0.6-0.1-0.8-0.4c-0.4-0.4-0.4-1.1,0.1-1.5c0.3-0.3,0.6-0.6,0.7-0.9
			c0.3-0.5,0.9-0.7,1.4-0.5c0.5,0.3,0.7,0.9,0.5,1.4c-0.3,0.6-0.7,1.1-1.2,1.6C43,42.8,42.7,42.8,42.5,42.8z"/>
		<path fill="#753A29" d="M38.6,48c-0.1,0-0.4-0.1-0.5-0.1c-0.5-0.3-0.7-0.9-0.4-1.4l0.8-1.3c0.3-0.5,0.9-0.7,1.4-0.4
			s0.7,0.9,0.4,1.4l-0.8,1.3C39.3,47.8,39,48,38.6,48z"/>
		<path fill="#753A29" d="M44.2,46.8c-0.3,0-0.6-0.1-0.8-0.4c-0.4-0.4-0.4-1.1,0-1.5c0.4-0.4,0.7-0.8,1-1.2c0.4-0.5,1-0.6,1.5-0.3
			c0.5,0.4,0.6,1,0.3,1.5c-0.4,0.6-0.8,1.1-1.3,1.5C44.7,46.8,44.5,46.8,44.2,46.8z"/>
		<path fill="#753A29" d="M39,51.8c-0.3,0-0.6-0.1-0.8-0.4c-0.4-0.4-0.3-1.1,0.1-1.5c0.4-0.3,0.7-0.6,1-0.9c0.4-0.4,1.1-0.4,1.5-0.1
			c0.4,0.4,0.4,1.1,0.1,1.5c-0.4,0.4-0.8,0.8-1.2,1.1C39.4,51.8,39.2,51.8,39,51.8z"/>
		<path fill="#753A29" d="M51.1,46.8c-0.1,0-0.3-0.1-0.5-0.1c-0.5-0.3-0.7-0.9-0.5-1.4c0.4-0.8,0.8-1.5,1.3-2.1
			c0.4-0.5,1-0.6,1.5-0.2c0.5,0.4,0.6,1,0.2,1.5c-0.4,0.6-0.8,1.1-1.1,1.8C51.9,46.6,51.5,46.8,51.1,46.8z"/>
	</g>
</g>
</svg>
