<?xml version="1.0" encoding="utf-8"?>
<!-- Generator: Adobe Illustrator 18.1.1, SVG Export Plug-In . SVG Version: 6.00 Build 0)  -->
<svg version="1.1" id="Layer_1" xmlns="http://www.w3.org/2000/svg" xmlns:xlink="http://www.w3.org/1999/xlink" x="0px" y="0px"
	 viewBox="0 0 90 90" enable-background="new 0 0 90 90" xml:space="preserve">
<g>
	<circle fill="#FFC717" cx="45" cy="45" r="44.6"/>
	<g>
		<path fill="#915037" d="M41.7,34.7c1.3,0.8,2.7,1.3,3.9,2.4c2,1.7,2.8,4.3,4,6.6s2.9,4.4,4.9,6.1c1.5,1.3,3.1,2.4,4.6,3.7
			c0.3,0.3,0.6,0.6,0.8,0.8c2.7-0.9,5.3-2.5,7.5-4.6c7.4-7.4,7.4-19.4,0-26.9c-7.4-7.4-19.4-7.4-26.9,0c-2,2-3.4,4.2-4.3,6.6
			C37.6,31.5,39.5,33.3,41.7,34.7z"/>
		<path fill="#FAF4A6" d="M59,53.4c-1.4-1.3-3.1-2.4-4.6-3.7c-2-1.7-3.6-3.8-4.9-6.1c-1.2-2.3-2-4.9-4-6.6c-1.1-1-2.6-1.6-3.9-2.4
			c-1.9-1.1-3.5-2.6-4.9-4.3c-2.2,6.3-0.8,13.6,4.3,18.6C46,53.8,52.9,55.3,59,53.4C59.1,53.4,59,53.4,59,53.4z"/>
		<path fill="#E3E6E8" d="M41.2,48.9c-0.6-0.6-1.1-1.2-1.6-1.8L17.8,68.9c-0.9,0.9-0.9,2.3,0,3.2c0.9,0.9,2.3,0.9,3.2,0l21.8-21.8
			C42.2,49.9,41.7,49.4,41.2,48.9z"/>
		<path fill="#753A29" d="M41.6,28.7c-0.2-0.2-0.2-0.6,0-0.9c0.4-0.4,0.8-0.8,1.4-1.1c0.3-0.1,0.7-0.1,0.8,0.2
			c0.1,0.3,0.1,0.7-0.2,0.8c-0.4,0.2-0.8,0.5-1.1,0.8C42.2,28.9,41.8,28.9,41.6,28.7L41.6,28.7z"/>
		<path fill="#753A29" d="M46.9,23.9c-0.1-0.1-0.1-0.1-0.1-0.3c-0.1-0.4,0.1-0.7,0.4-0.8l1.1-0.3c0.4-0.1,0.7,0.1,0.8,0.4
			c0.1,0.4-0.1,0.7-0.4,0.8L47.5,24C47.3,24.1,47.1,24,46.9,23.9z"/>
		<path fill="#753A29" d="M55.1,22.2c-0.1-0.1-0.1-0.1-0.1-0.3c-0.1-0.4,0.1-0.7,0.4-0.8c0.4-0.1,0.9-0.1,1.3,0
			c0.4,0.1,0.6,0.4,0.4,0.8c-0.1,0.4-0.4,0.6-0.8,0.4c-0.2-0.1-0.5-0.1-0.7,0C55.5,22.4,55.2,22.4,55.1,22.2z"/>
		<path fill="#753A29" d="M46.1,33.5c-0.2-0.2-0.2-0.5-0.1-0.8c0.2-0.3,0.6-0.4,0.8-0.2l0.4,0.2c0.3,0.2,0.4,0.6,0.2,0.8
			c-0.2,0.3-0.6,0.4-0.8,0.2l-0.4-0.2C46.2,33.5,46.1,33.5,46.1,33.5z"/>
		<path fill="#753A29" d="M51.6,29.9c-0.1-0.1-0.1-0.1-0.1-0.3c-0.1-0.4,0.1-0.7,0.4-0.8s0.7-0.1,1.1-0.1c0.4,0.1,0.6,0.4,0.5,0.7
			c-0.1,0.4-0.4,0.6-0.7,0.5c-0.2,0-0.4,0-0.6,0.1C52,30.1,51.8,30,51.6,29.9z"/>
		<path fill="#753A29" d="M61.4,26.2c-0.1-0.1-0.2-0.3-0.2-0.4c0-0.4,0.3-0.6,0.6-0.6h1.1c0.4,0,0.6,0.3,0.6,0.6s-0.3,0.6-0.6,0.6
			h-1.1C61.7,26.4,61.5,26.3,61.4,26.2z"/>
		<path fill="#753A29" d="M51.4,38.5c-0.1-0.1-0.2-0.2-0.3-0.4c-0.1-0.3,0-0.7,0.3-0.8c0.3-0.1,0.7,0,0.8,0.3c0,0.1,0.1,0.1,0.1,0.1
			c0.4,0.1,0.6,0.4,0.5,0.7c-0.1,0.4-0.4,0.6-0.7,0.5C51.9,38.9,51.6,38.7,51.4,38.5z"/>
		<path fill="#753A29" d="M57.7,32c-0.2-0.2-0.2-0.6,0-0.8c0.4-0.4,0.9-0.6,1.4-0.5c0.4,0.1,0.6,0.4,0.5,0.8
			c-0.1,0.4-0.4,0.6-0.8,0.5c-0.1,0-0.1,0-0.2,0.1C58.4,32.2,57.9,32.2,57.7,32L57.7,32z"/>
		<path fill="#753A29" d="M66.9,31.4c-0.1-0.1-0.2-0.4-0.1-0.6c0.1-0.4,0.4-0.6,0.8-0.5c0.4,0.1,0.8,0.4,1.1,0.8
			c0.2,0.3,0.1,0.6-0.1,0.8c-0.3,0.2-0.6,0.1-0.8-0.1c-0.1-0.1-0.3-0.3-0.4-0.3C67.1,31.6,67.1,31.5,66.9,31.4z"/>
		<path fill="#753A29" d="M60.3,38.1C60.2,38,60,37.8,60,37.5c-0.1-0.4,0.1-0.7,0.4-0.8c0.4-0.1,0.7,0.1,0.8,0.4
			c0,0.1,0.1,0.1,0.1,0.1c0.4,0.1,0.6,0.4,0.4,0.8c-0.1,0.4-0.4,0.6-0.8,0.4C60.7,38.5,60.5,38.3,60.3,38.1z"/>
		<path fill="#753A29" d="M56.3,45.1c-0.1-0.1-0.1-0.1-0.1-0.1c-0.2-0.3-0.2-0.6,0.1-0.8s0.6-0.2,0.8,0.1c0.2,0.3,0.6,0.5,0.9,0.6
			c0.4,0.1,0.6,0.4,0.5,0.8c-0.1,0.4-0.4,0.6-0.8,0.5C57.2,45.8,56.7,45.5,56.3,45.1z"/>
		<path fill="#753A29" d="M61.2,49.9c-0.1-0.1-0.1-0.2-0.1-0.3c-0.1-0.4,0.1-0.6,0.5-0.8c0.7-0.1,1.4-0.4,2-0.7
			c0.3-0.1,0.7,0,0.8,0.3c0.1,0.3,0,0.7-0.3,0.8c-0.8,0.4-1.5,0.6-2.3,0.8C61.5,50.1,61.3,50,61.2,49.9z"/>
		<path fill="#753A29" d="M67.7,42.3c-0.2-0.2-0.2-0.6,0-0.8c0.4-0.4,0.8-1,0.9-1.6c0.1-0.4,0.4-0.5,0.8-0.4s0.5,0.4,0.4,0.8
			c-0.2,0.8-0.6,1.5-1.3,2.1C68.3,42.5,68,42.5,67.7,42.3L67.7,42.3z"/>
		<path fill="#753A29" d="M62.4,43.9c-0.2-0.2-0.2-0.6,0-0.9l0.6-0.6c0.2-0.2,0.6-0.2,0.9,0s0.2,0.6,0,0.9l-0.6,0.6
			C63,44.1,62.6,44.1,62.4,43.9z"/>
		<path fill="#753A29" d="M54.8,35.4c-0.2-0.2-0.2-0.6-0.1-0.8c0.2-0.3,0.6-0.4,0.8-0.1c0.1,0,0.1,0.1,0.1,0.1
			c0.4-0.1,0.6,0.2,0.7,0.6c0.1,0.4-0.2,0.6-0.6,0.7s-0.7-0.1-1.1-0.2C54.8,35.4,54.8,35.4,54.8,35.4z"/>
	</g>
</g>
</svg>
