<?xml version="1.0" encoding="utf-8"?>
<!-- Generator: Adobe Illustrator 18.1.1, SVG Export Plug-In . SVG Version: 6.00 Build 0)  -->
<svg version="1.1" id="Layer_1" xmlns="http://www.w3.org/2000/svg" xmlns:xlink="http://www.w3.org/1999/xlink" x="0px" y="0px"
	 viewBox="0 0 90 90" enable-background="new 0 0 90 90" xml:space="preserve">
<g>
	<circle fill="#FFC717" cx="45" cy="45" r="44.6"/>
	<g>
		<path fill="#168B7D" d="M36.5,34.3l-3.6,1.8l1.9,3.8l3.6-1.8c1.9-1,4.1-1.2,6.2-0.6l0,0c2,0.6,4.3,0.4,6.2-0.6l15.7-7.9
			c0.8-0.4,1.1-1.3,0.7-2l-4.6-9.3c-0.4-0.8-1.3-1.1-2-0.7l-15.7,8c-1.9,1-3.4,2.6-4.1,4.6l0,0C39.9,31.7,38.4,33.4,36.5,34.3z"/>
		
			<ellipse transform="matrix(-0.8942 0.4476 -0.4476 -0.8942 114.4851 29.4837)" fill="#36BAAA" cx="53.8" cy="28.3" rx="6.9" ry="3.9"/>
		<path fill="#E3E6E8" d="M32.2,61.7c2.5-1.1,4.2-3.8,3.9-6.7l-0.8-8H23.6l-0.8,8c-0.3,3,1.4,5.6,3.9,6.7c1.1,0.5,1.8,1.6,1.8,2.8
			v4.8c-1.8,0.2-3,0.9-3,1.8c0,1.1,1.8,1.9,4,1.9c2.3,0,4-0.8,4-1.9c0-0.8-1.3-1.6-3-1.8v-4.8C30.4,63.3,31.1,62.2,32.2,61.7z"/>
		<path fill="#92513B" d="M34.8,39.9l-1.9-3.8c-0.6,1.5-1.2,3-1.7,4.6c-0.4,1-0.6,2-1.3,2.9c-1,1.3-2.6,1.8-3.3,3.3
			c1.8,0,3.5,0.1,5.3,0.1c0.4,0,0.9,0,1.2-0.4c0.3-0.3,0.4-0.6,0.4-1c0.4-1.6,0.8-3.2,1.1-4.8c0.1-0.4,0.1-0.7,0.2-1.1L34.8,39.9z"
			/>
	</g>
</g>
</svg>
