<?xml version="1.0" encoding="utf-8"?>
<!-- Generator: Adobe Illustrator 18.1.1, SVG Export Plug-In . SVG Version: 6.00 Build 0)  -->
<svg version="1.1" id="Layer_1" xmlns="http://www.w3.org/2000/svg" xmlns:xlink="http://www.w3.org/1999/xlink" x="0px" y="0px"
	 viewBox="0 0 90 90" enable-background="new 0 0 90 90" xml:space="preserve">
<g>
	<circle fill="#41B655" cx="45" cy="45" r="44.6"/>
	<g>
		<path fill="#915037" d="M52.9,32.8c-0.9-1.3-1.5-2.8-2.8-3.7c-0.8-0.6-1.8-1-2.7-1.3c-1.5-0.5-3.1-0.8-4.6-1.1
			c-1.3-0.3-2.7-0.6-4.1-0.6c-5.1-0.4-10.1,1.8-13.9,5.2s-6,8.1-7.3,13c-0.6,2.1-0.8,4.6,0.6,6.3c1.2,1.5,3.2,2,5.1,2.2
			c2.8,0.3,5.6,0.1,8.4,0.4c3.6,0.4,7,1.5,10.5,2.3c3.5,0.8,7.2,1.1,10.5-0.3c3.5-1.3,6.1-4.3,8.5-7.2c1-1.2,2-2.5,2.5-3.9
			c0.5-1.5,0.4-3.2-0.6-4.4c-1-1.2-2.6-1.5-4.1-2.1C56.6,36.6,54.4,34.9,52.9,32.8z"/>
		<path fill="#753A29" d="M29.5,36.2c0.9,0.1,1.3,1.3,1,2.1c-0.3,0.8-1.1,1.5-1.7,2.1c-1.5,1.4-2.5,3.2-3.7,5
			c-0.1,0.3-0.4,0.7-0.1,0.9c0.1,0.1,0.3,0.1,0.4,0.1c5.4-0.8,10.3,0.8,11,0.9c0.5,0.1,1,0.3,1.4,0.6c0.8,0.6,1.1,1.9,0.7,2.8
			c-0.4,0.9-1.3,1.7-2.2,2.1c-1,0.4-2,0.6-3,0.8c-2.2,0.4-4.6,0.6-6.9,0.6c-1.9,0-3.9-0.2-5.6-1.2c-1.6-1-2.9-2.8-2.6-4.7
			c0.1-1,0.6-1.9,1.1-2.7c0.6-1.1,1.3-2.1,2-3.1c0.8-1,1.8-1.8,2.9-2.7c1.2-1,2.4-2,3.5-3C28.5,36.6,29,36.1,29.5,36.2z"/>
		<path fill="#E3E6E8" d="M65.2,34c0.6,0.3,1.3,0.4,1.9,0.4c0.4,0,0.7,0.1,1.1,0c0.9-0.1,1.7-0.6,2.5-1.1c0.4-0.2,0.8-0.5,1.2-0.5
			s0.9,0.2,1.1,0.6c0.1,0.4-0.1,0.7-0.2,1.1c-0.3,0.8-0.2,1.5-0.1,2.4c0.1,0.3,0.1,0.6,0,0.9c-0.1,0.4-0.5,0.6-0.9,0.7
			c-0.4,0.1-0.8-0.1-1.1-0.4c-0.5-0.4-0.8-0.9-1.4-1.1c-0.3-0.1-0.6-0.1-1-0.1c-1.4-0.1-2.8-0.2-4.2-0.3"/>
		<path fill="#753A29" d="M62.2,32.6c0.8,0.4,1.7,0.7,2.6,1.1c0.3,0.1,0.6,0.3,0.6,0.6c0,0.5-0.7,0.6-1,1.1
			c-0.2,0.3-0.2,0.7-0.3,1.1c-0.2,1-1.1,1.6-2,1.9c-0.9,0.4-1.9,0.4-2.8,0.8c-1.2,0.5-2.1,1.5-3.2,2.3c-2.2,1.7-4.8,2.7-7.5,3.5
			c-0.8,0.2-1.6,0.4-2.5,0.6c-1.1,0.1-2.2,0-3.2-0.4c-1.1-0.4-2.2-1.1-3-2c-0.8-0.9-1.6-4.7,0.9-7.9c1.1-1.4,6-3.9,8.7-4.4
			c1.1-0.2,2.2-0.4,3.4-0.4C56,30.4,59.2,31.3,62.2,32.6z"/>
		<path fill="#642B1E" d="M47.4,27.8c1,0.3,2,0.6,2.7,1.3c0.5,0.4,0.8,0.8,1.2,1.3c0.5-0.1,1-0.1,1.5-0.1c3.2,0.1,6.3,1,9.1,2.3
			c0-0.1,0-0.1,0-0.1c0.1-0.5,0.2-0.9,0.2-1.4c0.1-0.5-0.1-1-0.4-1.3c-0.2-0.2-0.5-0.4-0.8-0.4c-1.6-0.6-3.2-1.1-4.9-1.5
			c-0.8-0.2-1.5-0.4-2.4-0.5c-2.4-0.3-4.9,0.4-7.2,0.4c-0.1,0-0.1,0-0.2,0C46.8,27.6,47,27.7,47.4,27.8z"/>
		<path fill="none" d="M45.5,27.3c-0.1-0.1-0.3-0.1-0.4-0.1C45.2,27.2,45.4,27.2,45.5,27.3z"/>
		<path fill="#E3E6E8" d="M61.6,29.4c1.4,0.1,3,0.2,4.4-0.1c0.5-0.1,0.9-0.3,1.3-0.6c0.3-0.3,0.6-0.6,0.8-0.8
			c0.4-0.2,0.8-0.4,1.1-0.1c0.3,0.2,0.4,0.6,0.4,0.9s-0.1,0.7,0,1.1s0.2,0.7,0.4,1.1s0.2,0.7,0.1,1.1c-0.2,0.4-0.7,0.6-1.2,0.6
			c-0.5,0-0.9-0.3-1.3-0.5c-0.4-0.2-0.9-0.4-1.4-0.4c-0.4,0-0.7,0.1-1,0.1c-0.9,0.2-1.9,0.3-2.9,0.2"/>
		<polygon fill="#FAF4A6" points="69.8,63.8 20.2,63.8 17.2,59.1 72.8,59.1 		"/>
	</g>
</g>
</svg>
