<?xml version="1.0" encoding="utf-8"?>
<!-- Generator: Adobe Illustrator 18.1.1, SVG Export Plug-In . SVG Version: 6.00 Build 0)  -->
<svg version="1.1" id="Layer_1" xmlns="http://www.w3.org/2000/svg" xmlns:xlink="http://www.w3.org/1999/xlink" x="0px" y="0px"
	 viewBox="0 0 90 90" enable-background="new 0 0 90 90" xml:space="preserve">
<g>
	<circle fill="#388CCB" cx="45" cy="45" r="44.6"/>
	<g>
		<path fill="#E3E6E8" d="M56.1,31.2c-1.9-1.8-4.1-3.2-6.5-3.7c0-0.1,0.1-0.2,0.1-0.4c0-1.3-1.2-2.4-2.7-2.4c-1.5,0-2.7,1.1-2.7,2.4
			c0,0.1,0,0.2,0.1,0.4c-2.4,0.6-4.6,1.9-6.5,3.7H56.1z"/>
		<path fill="#F78F21" d="M30.9,48.9c0-1.1,0.1-2.2,0.2-3.3c-0.8-0.5-1.6-1.1-2.3-1.8c-1.9-1.9-3.4-4.1-5-6.3
			c-1.1-1.4-2.5-2.7-4.2-3.1c-0.5,1.5-1.1,3-2,4.4c3,1.2,4.9,4.1,5.8,7.3c0.6,2,0.8,4.2,1.2,6.3c0.4,2.1,1.2,4.2,2.7,5.7
			c1.6,1.6,3.9,2.3,6.2,2.7C32,57.4,30.9,53.3,30.9,48.9z"/>
		<path fill="#FFC717" d="M59,34.7H34.8c-2.4,3.8-3.9,8.7-3.9,14.1c0,6.5,2.1,12.4,5.5,16.4h20.8c3.4-4,5.5-9.8,5.5-16.4
			C62.8,43.5,61.4,38.5,59,34.7z"/>
		<path fill="#5D5E61" d="M64,37.8c-1.1,0-2.2,0.3-3.2,0.7c0.4,0.8,0.6,1.7,0.9,2.6c0.7-0.4,1.4-0.6,2.2-0.6c3.7,0,6.8,4.2,6.8,9.4
			s-3,9.5-6.8,9.5c-1.1,0-2-0.4-2.9-0.9c-0.4,0.9-0.7,1.8-1.1,2.5c1.2,0.7,2.5,1.1,4,1.1c5.3,0,9.5-5.5,9.5-12.2S69.3,37.8,64,37.8z
			"/>
	</g>
</g>
</svg>
