<?xml version="1.0" encoding="utf-8"?>
<!-- Generator: Adobe Illustrator 18.1.1, SVG Export Plug-In . SVG Version: 6.00 Build 0)  -->
<svg version="1.1" id="Layer_1" xmlns="http://www.w3.org/2000/svg" xmlns:xlink="http://www.w3.org/1999/xlink" x="0px" y="0px"
	 viewBox="0 0 90 90" enable-background="new 0 0 90 90" xml:space="preserve">
<g>
	<circle fill="#EF4538" cx="45" cy="45" r="44.6"/>
	<g>
		<path fill="#22A79C" d="M73.3,33.3c0,0-23.4,4.4-25-9.8c-0.1-0.6,0.2-1.2,0.6-1.5C60.4,13.3,73.3,33.3,73.3,33.3z"/>
		<path fill="#915037" d="M39.9,41.5c0-0.1,0.1-0.2,0.1-0.3c0-0.1,0.4-10.3,8.6-16.6c-0.1-0.4-0.1-0.8-0.2-1.2
			c-0.1-0.6,0.2-1.2,0.6-1.5c1.1-0.8,2-1.3,3.1-1.7c-0.1,0-0.4,0-0.5,0.1C39.2,26.1,38,38.9,37.8,40.9
			C38.5,41.1,39.2,41.3,39.9,41.5z"/>
		<path fill="#915037" d="M56.5,40.4c0.1,0,0.1,0,0.2,0c0.8-2.4,1.1-5.1,0.8-7.5c-0.7-0.2-1.4-0.4-2-0.6c-0.1,0.1-0.1,0.4-0.1,0.6
			c0.4,2.3,0.1,4.9-0.8,7.2c-0.1,0.1-0.1,0.3-0.1,0.5C55.3,40.5,55.9,40.4,56.5,40.4z"/>
		<circle fill="#168B7D" cx="34" cy="56.6" r="16.2"/>
		<path fill="#915037" d="M70.2,69.5c-0.6-0.5-1.3-1-1.8-1.5c-0.1-0.1-0.1-0.1-0.2-0.1c-0.4,0.5-0.9,0.9-1.4,1.3
			c0.1,0.1,0.1,0.2,0.2,0.4c0.6,0.6,1.3,1.1,2,1.6c0.2,0.1,0.4,0.2,0.6,0.2c0.4,0,0.6-0.1,0.8-0.4C70.7,70.5,70.7,69.8,70.2,69.5z"
			/>
		<path fill="#915037" d="M22.2,67.6c-0.1,0-0.1,0.1-0.1,0.1c-0.6,0.5-1.3,0.9-2,1.3c-0.5,0.3-0.6,0.9-0.4,1.4
			c0.2,0.4,0.6,0.5,0.9,0.5c0.2,0,0.4-0.1,0.6-0.1c0.7-0.4,1.5-0.9,2.1-1.5c0.1-0.1,0.2-0.2,0.3-0.4C23.2,68.6,22.7,68.1,22.2,67.6z
			"/>
		<path fill="#915037" d="M65.5,70.4c-0.1-0.1-0.1-0.1-0.1-0.2c-0.6,0.4-1.1,0.7-1.8,1c0,0.1,0,0.1,0.1,0.1c0.4,0.8,0.8,1.5,1.2,2.3
			c0.2,0.4,0.6,0.5,0.9,0.5c0.2,0,0.4-0.1,0.6-0.1c0.5-0.3,0.6-0.9,0.4-1.4C66.2,71.8,65.7,71.1,65.5,70.4z"/>
		<path fill="#915037" d="M25.1,70c-0.1,0.1-0.1,0.1-0.2,0.3c-0.4,0.6-0.8,1.3-1.3,2c-0.4,0.5-0.2,1.1,0.2,1.5
			c0.2,0.1,0.4,0.2,0.6,0.2c0.4,0,0.6-0.1,0.8-0.4c0.5-0.7,1-1.4,1.4-2.1c0.1-0.1,0.1-0.2,0.1-0.4C26.2,70.7,25.7,70.4,25.1,70z"/>
		<path fill="#915037" d="M61.8,72.1c0-0.1-0.1-0.1-0.1-0.2c-0.6,0.2-1.3,0.4-1.9,0.5c0,0.1,0,0.2,0.1,0.4l0.7,2.1
			c0.1,0.4,0.6,0.7,1,0.7c0.1,0,0.2,0,0.4-0.1c0.6-0.2,0.8-0.8,0.6-1.3L61.8,72.1z"/>
		<path fill="#915037" d="M28.8,71.9c-0.1,0.1-0.1,0.1-0.1,0.3l-0.7,2.1c-0.2,0.6,0.1,1.1,0.6,1.3c0.1,0.1,0.2,0.1,0.4,0.1
			c0.4,0,0.8-0.3,1-0.7l0.7-2.1c0.1-0.1,0.1-0.3,0.1-0.4C30,72.3,29.4,72.1,28.8,71.9z"/>
		<circle fill="#FBD839" cx="56.5" cy="56.6" r="16.2"/>
	</g>
</g>
</svg>
