<?xml version="1.0" encoding="utf-8"?>
<!-- Generator: Adobe Illustrator 18.1.1, SVG Export Plug-In . SVG Version: 6.00 Build 0)  -->
<svg version="1.1" id="Layer_1" xmlns="http://www.w3.org/2000/svg" xmlns:xlink="http://www.w3.org/1999/xlink" x="0px" y="0px"
	 viewBox="0 0 90 90" enable-background="new 0 0 90 90" xml:space="preserve">
<g>
	<circle fill="#41B655" cx="45" cy="45" r="44.6"/>
	<g>
		<path fill="#FFC717" d="M62.8,55.4L19.5,39c-2-0.9-2.9-3.2-2-5.3l4.5-9.8c0.9-2,3.2-2.9,5.3-2l43.2,19.7c2,0.9,2.9,3.2,2,5.3
			l-4.5,6.5C67.1,55.4,64.8,56.3,62.8,55.4z"/>
		<path fill="#E3E6E8" d="M72.6,46.8L72.6,46.8L72.6,46.8l-4.5,6.6c-0.9,2-3.2,2.9-5.3,2L19.5,39c-0.9-0.4-1.6-1.1-2-2
			c-0.8,2,0,4.3,2,5.2l43.2,16.4c2,0.9,4.4,0,5.3-2l4.5-6.6C73.1,49,73,47.8,72.6,46.8z"/>
		<path fill="#FFC717" d="M72.4,56.1L72.4,56.1C72.4,56.1,72.4,56.1,72.4,56.1l-4.6,6.6c-0.9,2-3.2,2.9-5.3,2L19.4,48.3
			c-0.9-0.4-1.6-1.1-2-2c-0.8,2,0,4.3,2,5.2l43.2,16.4c2,0.9,4.4,0,5.3-2l4.5-6.6C72.8,58.2,72.8,57.1,72.4,56.1z"/>
		<path fill="#753A29" d="M72.6,50.1l-4.5,6.6c-0.9,2-3.2,2.9-5.3,2L19.5,42.2c-1.4-0.6-2.3-2-2.3-3.5v8c0.1-0.1,0.1-0.3,0.1-0.5
			c0.4,0.8,1.1,1.6,2,2l43.3,16.5c2,0.9,4.4,0,5.3-2l4.5-6.6l0,0l0,0c0.1,0.4,0.3,0.7,0.3,1.1v-7.6C72.6,49.8,72.6,49.9,72.6,50.1z"
			/>
	</g>
</g>
</svg>
