<?xml version="1.0" encoding="utf-8"?>
<!-- Generator: Adobe Illustrator 18.1.1, SVG Export Plug-In . SVG Version: 6.00 Build 0)  -->
<svg version="1.1" id="Layer_1" xmlns="http://www.w3.org/2000/svg" xmlns:xlink="http://www.w3.org/1999/xlink" x="0px" y="0px"
	 viewBox="0 0 90 90" enable-background="new 0 0 90 90" xml:space="preserve">
<g>
	<circle fill="#41B655" cx="45" cy="45" r="44.6"/>
	<g>
		<path fill="#5D5E61" d="M70.5,35.6c-5.1,4.7-12.4,5.2-16.6,1S50.2,25,54.9,20l-3-3c-1.8,1.8-3.2,4.1-3.9,6.7l-2.5,8.8
			c-0.7,2.5-2,4.9-3.9,6.7L19.8,61c-2.6,2.6-2.9,6.8-0.5,9.5c2.6,3,7.2,3.1,10,0.4l22-22c1.8-1.8,4.1-3.2,6.7-3.9l8.8-2.4
			c2.5-0.7,4.9-2,6.7-3.9L70.5,35.6z"/>
		<path fill="#FEEDEF" d="M53.8,21.3c-0.6,0.7-1,1.5-1.4,2.3L66.9,38c0.8-0.4,1.5-0.8,2.3-1.4L53.8,21.3z"/>
	</g>
</g>
</svg>
