<?xml version="1.0" encoding="utf-8"?>
<!-- Generator: Adobe Illustrator 18.1.1, SVG Export Plug-In . SVG Version: 6.00 Build 0)  -->
<svg version="1.1" id="Layer_1" xmlns="http://www.w3.org/2000/svg" xmlns:xlink="http://www.w3.org/1999/xlink" x="0px" y="0px"
	 viewBox="0 0 90 90" enable-background="new 0 0 90 90" xml:space="preserve">
<g>
	<circle fill="#FFC717" cx="45" cy="45" r="44.6"/>
	<g>
		<path fill="#E3E6E8" d="M61,35.4l-4.4,34.1c-0.2,1.8-1.8,3.2-3.6,3.2H37.9c-1.8,0-3.4-1.4-3.6-3.2L30,35.4"/>
		<ellipse fill="#C6CBCE" cx="45.6" cy="34.2" rx="16.4" ry="3.1"/>
		<path fill="#22A79C" d="M52,24.1c-4.2,0-7.7,3.4-7.7,7.7c0,2.2,0.9,4.1,2.4,5.6c4.6-0.1,8.6-0.5,11.5-1.1c0.9-1.3,1.5-2.8,1.5-4.5
			C59.6,27.6,56.2,24.1,52,24.1z"/>
		<path fill="#E67375" d="M39,24.1c2.7,0,5.1,1.4,6.5,3.6c1.3-2.2,3.7-3.6,6.5-3.6c0.3,0,0.6,0,0.9,0.1c-0.2-4-3.6-7.2-7.6-7.2
			c-4.1,0-7.5,3.2-7.7,7.2C38,24.2,38.5,24.1,39,24.1z"/>
		<path fill="#92513B" d="M46.6,31.8c0-4.2-3.4-7.7-7.7-7.7s-7.7,3.4-7.7,7.7c0,1.6,0.5,3.2,1.4,4.4c2.7,0.6,6.8,1.1,11.5,1.1
			C45.7,35.9,46.6,34,46.6,31.8z"/>
	</g>
</g>
</svg>
