<?xml version="1.0" encoding="utf-8"?>
<!-- Generator: Adobe Illustrator 18.1.1, SVG Export Plug-In . SVG Version: 6.00 Build 0)  -->
<svg version="1.1" id="Layer_1" xmlns="http://www.w3.org/2000/svg" xmlns:xlink="http://www.w3.org/1999/xlink" x="0px" y="0px"
	 viewBox="0 0 90 90" enable-background="new 0 0 90 90" xml:space="preserve">
<g>
	<circle fill="#388CCB" cx="45" cy="45" r="44.6"/>
	<g>
		<path fill="#915037" d="M18.2,34.7l51.6-1.8c1.6-0.1,3,1.3,3.1,2.9c0.1,1.7-1.3,3-2.9,3.1c-0.1,0-0.1,0-0.2,0L18.2,37
			c-0.6,0-1.1-0.6-1.1-1.2C17.1,35.2,17.6,34.7,18.2,34.7z"/>
		<path fill="#753A29" d="M19.1,31.9l49.5-14.7c1.6-0.5,3.2,0.4,3.7,2c0.5,1.6-0.4,3.3-2,3.7c-0.1,0-0.1,0.1-0.2,0.1L19.7,34.2
			c-0.6,0.1-1.3-0.3-1.4-0.9C18.1,32.7,18.5,32.1,19.1,31.9z"/>
		<path fill="#FAF4A6" d="M18,34.6v37.3c0,0.6,0.5,1.1,1.1,1.1s1.1-0.5,1.1-1.1V34.6C20.1,34.6,18,34.6,18,34.6z"/>
		<path fill="#FAF4A6" d="M21.7,34.5v37.4c0,0.6,0.5,1.1,1.1,1.1c0.6,0,1.1-0.5,1.1-1.1V34.5H21.7z"/>
		<path fill="#FAF4A6" d="M25.2,34.5v26.7c0,0.6,0.5,1.1,1.1,1.1c0.6,0,1.1-0.5,1.1-1.1V34.5H25.2z"/>
		<path fill="#FAF4A6" d="M28.9,34.2v19.2c0,0.6,0.5,1.1,1.1,1.1c0.6,0,1.1-0.5,1.1-1.1V34.2H28.9z"/>
	</g>
</g>
</svg>
