<?xml version="1.0" encoding="utf-8"?>
<!-- Generator: Adobe Illustrator 18.1.1, SVG Export Plug-In . SVG Version: 6.00 Build 0)  -->
<svg version="1.1" id="Layer_1" xmlns="http://www.w3.org/2000/svg" xmlns:xlink="http://www.w3.org/1999/xlink" x="0px" y="0px"
	 viewBox="0 0 90 90" enable-background="new 0 0 90 90" xml:space="preserve">
<g>
	<circle fill="#388CCB" cx="45" cy="45" r="44.6"/>
	<g>
		<path fill="#F4B1A8" d="M62.6,17.8c-1.6-1.5-4.4-0.3-4.1,2c0.1,0.8,0.1,1.8,0.1,2.7c0,13.8-11.7,24.9-26.2,24.9
			c-1.8,0-3.5-0.1-5.2-0.5c-2.2-0.4-3.7,2-2.4,3.8c4.4,6,11.4,10,19.4,10.3C58.6,61.4,70.2,50.2,70.3,36
			C70.3,28.8,67.4,22.4,62.6,17.8z"/>
		<path fill="#5D5E61" d="M31.4,56.7L20.7,67.4c-1.3,1.3-1.3,3.3,0,4.5c1.3,1.2,3.3,1.3,4.5,0l12.3-12.3C35.3,59,33.3,58,31.4,56.7z
			"/>
	</g>
</g>
</svg>
