<?xml version="1.0" encoding="utf-8"?>
<!-- Generator: Adobe Illustrator 18.1.1, SVG Export Plug-In . SVG Version: 6.00 Build 0)  -->
<svg version="1.1" id="Layer_1" xmlns="http://www.w3.org/2000/svg" xmlns:xlink="http://www.w3.org/1999/xlink" x="0px" y="0px"
	 viewBox="0 0 90 90" enable-background="new 0 0 90 90" xml:space="preserve">
<g>
	<circle fill="#EF4538" cx="45" cy="45" r="44.6"/>
	<g>
		<polygon fill="#5D5E61" points="72.9,24.1 72.9,17.1 17.1,17.1 17.1,24.1 22.2,24.1 22.2,65.9 17.1,65.9 17.1,72.9 72.9,72.9 
			72.9,65.9 67.8,65.9 67.8,24.1 		"/>
		<circle fill="#E3E6E8" cx="29.5" cy="29.4" r="2.6"/>
		<circle fill="#E3E6E8" cx="39.8" cy="29.4" r="2.6"/>
		<circle fill="#E3E6E8" cx="50.2" cy="29.4" r="2.6"/>
		<circle fill="#E3E6E8" cx="60.5" cy="29.4" r="2.6"/>
		<circle fill="#E3E6E8" cx="34.7" cy="37.1" r="2.6"/>
		<circle fill="#E3E6E8" cx="45" cy="37.1" r="2.6"/>
		<circle fill="#E3E6E8" cx="55.3" cy="37.1" r="2.6"/>
		<circle fill="#E3E6E8" cx="29.5" cy="45" r="2.6"/>
		<circle fill="#E3E6E8" cx="39.8" cy="45" r="2.6"/>
		<circle fill="#E3E6E8" cx="50.2" cy="45" r="2.6"/>
		<circle fill="#E3E6E8" cx="60.5" cy="45" r="2.6"/>
		<circle fill="#E3E6E8" cx="34.7" cy="52.8" r="2.6"/>
		<circle fill="#E3E6E8" cx="45" cy="52.8" r="2.6"/>
		<circle fill="#E3E6E8" cx="55.3" cy="52.8" r="2.6"/>
		<circle fill="#E3E6E8" cx="29.5" cy="60.6" r="2.6"/>
		<circle fill="#E3E6E8" cx="39.8" cy="60.6" r="2.6"/>
		<circle fill="#E3E6E8" cx="50.2" cy="60.6" r="2.6"/>
		<circle fill="#E3E6E8" cx="60.5" cy="60.6" r="2.6"/>
	</g>
</g>
</svg>
