<?xml version="1.0" encoding="utf-8"?>
<!-- Generator: Adobe Illustrator 18.1.1, SVG Export Plug-In . SVG Version: 6.00 Build 0)  -->
<svg version="1.1" id="Layer_1" xmlns="http://www.w3.org/2000/svg" xmlns:xlink="http://www.w3.org/1999/xlink" x="0px" y="0px"
	 viewBox="0 0 90 90" enable-background="new 0 0 90 90" xml:space="preserve">
<g>
	<circle fill="#FFC717" cx="45" cy="45" r="44.6"/>
	<g>
		<path fill="#E3E6E8" d="M51.8,72.9H36c-0.7,0-1.3-0.6-1.4-1.3l-3.7-32.2H57l-3.7,32.2C53.1,72.4,52.5,72.9,51.8,72.9z"/>
		<path fill="#E3E6E8" d="M30.9,35c0-7.2,5.8-13.1,13.1-13.1S57,27.8,57,35"/>
		<path fill="#D62E2F" d="M61.4,17.8c-0.1-0.5-0.7-0.8-1.3-0.6l-6.5,2.2l-1.5,5.6c0.6,0.4,1.1,0.9,1.5,1.5c0.1-0.1,0.2-0.3,0.3-0.5
			l1.3-5l5.4-1.8C61.3,18.8,61.6,18.3,61.4,17.8z"/>
		<path fill="#22A79C" d="M57,39.4H30.8c-1.3,0-2.3-1-2.3-2.3l0,0c0-1.3,1-2.3,2.3-2.3H57c1.3,0,2.2,1,2.2,2.3l0,0
			C59.2,38.5,58.2,39.4,57,39.4z"/>
	</g>
</g>
</svg>
