<?xml version="1.0" encoding="utf-8"?>
<!-- Generator: Adobe Illustrator 18.1.1, SVG Export Plug-In . SVG Version: 6.00 Build 0)  -->
<svg version="1.1" id="Layer_1" xmlns="http://www.w3.org/2000/svg" xmlns:xlink="http://www.w3.org/1999/xlink" x="0px" y="0px"
	 viewBox="0 0 90 90" enable-background="new 0 0 90 90" xml:space="preserve">
<g>
	<circle fill="#388CCB" cx="45" cy="45" r="44.6"/>
	<g>
		<path fill="#F78F21" d="M49.4,36.4c-1,0-1.9,0.1-2.8,0.1c11.7,0.8,20.7,6.9,20.7,14.2c0,2.1-0.8,4.1-2.1,5.8h5.6
			c1.3-1.8,2.1-3.8,2.1-5.8C72.9,42.8,62.4,36.4,49.4,36.4z"/>
		<path fill="#E3E6E8" d="M21.7,56.5c-0.8,0.6-2.1,0.3-2.9-0.4s-1.1-1.8-1.5-2.7c-0.3-0.8-0.5-1.8-0.1-2.7c0.3-0.6,0.8-1.1,0.9-1.7
			c0.2-1-0.7-2-0.4-3s1.6-1.3,2.1-2.3c0.2-0.4,0.2-1,0.3-1.5c0.1-1.2,0.8-2.3,1.8-3c0.4,0.1,0.6,0.3,0.8,0.6
			c2.2,0.2,2.9-3.8,5.1-3.7c0.6,0,1.1,0.3,1.6,0.4c1.1,0.1,2-0.9,2.8-1.6s2.1-1.3,3-0.6c0.2,0.1,0.4,0.4,0.6,0.5
			c0.8,0.5,1.7-0.4,2.5-0.8c2.2-1.2,4.9,0.7,7.4,0.4c0.9-0.1,1.8-0.5,2.7-0.8c0.9-0.2,2-0.3,2.7,0.3c0.4,0.2,0.6,0.6,0.9,0.8
			c0.8,0.6,2,0.2,3.1,0.3c1.3,0.1,2.4,1.1,2.7,2.3c0.1,0.3,0.1,0.6,0.3,0.9c0.2,0.3,0.5,0.4,0.8,0.6c1.3,0.6,2.8,0.8,3.9,1.6
			c0.8,0.7,1.4,1.8,2.5,2c0.3,0.1,0.6,0.1,0.9,0.2c0.6,0.4,0.5,1.2,0.8,1.8c0.3,0.5,0.8,0.8,1.2,1.3c0.2,0.4,0.3,0.7,0.4,1.1
			c0.4,2.4,0.6,4.9,0.5,7.3c0,0.4-0.1,0.8-0.4,1.2c-0.2,0.2-0.5,0.3-0.8,0.4c-0.8,0.3-1.5,0.6-2.3,0.8"/>
		<path fill="#FFC717" d="M65.2,56.6c1.3-1.8,2.1-3.8,2.1-5.8c0-7.9-10.5-14.3-23.6-14.3s-23.6,6.4-23.6,14.3c0,2.1,0.8,4.1,2.1,5.8
			H65.2z"/>
		<path fill="#92513B" d="M25.6,49.1c-0.3,0-0.5-0.1-0.7-0.3c-0.2-0.2-0.4-0.4-0.6-0.5c-0.5-0.3-0.7-0.9-0.4-1.5
			c0.3-0.5,0.9-0.7,1.5-0.4c0.4,0.2,0.8,0.5,1.1,0.8c0.4,0.4,0.4,1.1,0.1,1.5C26.2,48.9,25.9,49.1,25.6,49.1z"/>
		<path fill="#92513B" d="M33.8,44.4c-0.4,0-0.7-0.1-0.9-0.5c-0.1-0.3-0.4-0.5-0.7-0.6c-0.6-0.2-0.8-0.8-0.6-1.4s0.8-0.8,1.4-0.6
			c0.7,0.3,1.3,0.8,1.7,1.3c0.4,0.5,0.2,1.1-0.3,1.5C34.2,44.4,34,44.4,33.8,44.4z"/>
		<path fill="#92513B" d="M48.9,41.8c-0.1,0-0.3,0-0.4-0.1c-0.5-0.2-1-0.5-1.5-0.8c-0.5-0.4-0.6-1-0.4-1.5c0.4-0.5,1-0.6,1.5-0.4
			c0.4,0.2,0.8,0.4,1.2,0.6c0.6,0.2,0.8,0.8,0.6,1.4C49.7,41.6,49.3,41.8,48.9,41.8z"/>
		<path fill="#92513B" d="M29.6,54.4c-0.2,0-0.4-0.1-0.6-0.1c-0.6-0.4-1.1-0.8-1.6-1.3c-0.4-0.4-0.4-1.1,0.1-1.5
			c0.4-0.4,1.1-0.4,1.5,0.1c0.4,0.4,0.7,0.6,1.1,0.9c0.5,0.3,0.7,0.9,0.4,1.5C30.3,54.2,30,54.4,29.6,54.4z"/>
		<path fill="#92513B" d="M41.2,44.1c-0.4,0-0.8-0.3-1-0.6c-0.2-0.5-0.5-1-0.7-1.5c-0.3-0.5-0.1-1.1,0.4-1.5
			c0.5-0.3,1.1-0.1,1.5,0.4s0.6,1.1,0.8,1.8c0.2,0.6,0,1.2-0.6,1.4C41.5,44.1,41.3,44.1,41.2,44.1z"/>
		<path fill="#92513B" d="M35.9,50.3c-0.3,0-0.6-0.1-0.8-0.4l-1-1.1c-0.4-0.4-0.4-1.1,0.1-1.5c0.4-0.4,1.1-0.4,1.5,0.1l1,1.1
			c0.4,0.4,0.4,1.1-0.1,1.5C36.4,50.2,36.2,50.3,35.9,50.3z"/>
		<path fill="#92513B" d="M41.4,54.8c-0.1,0-0.1,0-0.1,0c-0.6-0.1-1.2-0.1-1.8-0.1s-1.1-0.4-1.1-1c-0.1-0.6,0.4-1.1,1-1.1
			c0.7-0.1,1.4,0,2.1,0.1c0.6,0.1,1,0.6,0.9,1.2C42.4,54.4,41.9,54.8,41.4,54.8z"/>
		<path fill="#92513B" d="M45.4,50.1c-0.3,0-0.6-0.1-0.8-0.4c-0.2-0.2-0.4-0.4-0.7-0.6c-0.5-0.3-0.7-0.9-0.4-1.5
			c0.3-0.5,0.9-0.7,1.5-0.4c0.5,0.3,0.8,0.6,1.3,1c0.4,0.4,0.4,1.1-0.1,1.5C46,50,45.7,50.1,45.4,50.1z"/>
		<path fill="#92513B" d="M56.2,44.4c-0.3,0-0.6-0.1-0.8-0.3l-1.2-1.3c-0.4-0.4-0.4-1.1,0-1.5c0.4-0.4,1.1-0.4,1.5,0l1.3,1.3
			c0.4,0.4,0.4,1.1,0,1.5C56.7,44.3,56.5,44.4,56.2,44.4z"/>
		<path fill="#92513B" d="M53.6,49.3c-0.2,0-0.5-0.1-0.6-0.2c-0.5-0.4-0.8-0.9-1.1-1.5c-0.2-0.6,0.1-1.1,0.7-1.3
			c0.6-0.2,1.1,0.1,1.3,0.7c0.1,0.2,0.2,0.4,0.4,0.5c0.5,0.4,0.6,1.1,0.2,1.5C54.2,49.1,53.9,49.3,53.6,49.3z"/>
		<path fill="#92513B" d="M50,54.8c-0.1,0-0.3,0-0.4-0.1l-0.7-0.3c-0.6-0.2-0.8-0.8-0.6-1.4c0.2-0.6,0.8-0.8,1.4-0.6l0.7,0.3
			c0.6,0.2,0.8,0.8,0.6,1.4C50.8,54.6,50.4,54.8,50,54.8z"/>
		<path fill="#92513B" d="M62.3,50.1c-0.5,0-0.9-0.4-1.1-0.8c-0.1-0.2-0.1-0.4-0.2-0.6c-0.3-0.6,0-1.2,0.5-1.4
			c0.6-0.3,1.2,0,1.4,0.5c0.1,0.4,0.3,0.6,0.4,1c0.1,0.6-0.2,1.1-0.8,1.3C62.4,50.1,62.4,50.1,62.3,50.1z"/>
		<path fill="#92513B" d="M60.2,54.8c-0.1,0-0.3,0-0.4-0.1c-0.5,0-1-0.4-1.1-0.9c-0.1-0.6,0.3-1.1,0.8-1.2c0.4-0.1,0.8,0,1.1,0.2
			c0.5,0.3,0.7,0.9,0.4,1.4C61,54.6,60.6,54.8,60.2,54.8z"/>
	</g>
</g>
</svg>
