<?xml version="1.0" encoding="utf-8"?>
<!-- Generator: Adobe Illustrator 18.1.1, SVG Export Plug-In . SVG Version: 6.00 Build 0)  -->
<svg version="1.1" id="Layer_1" xmlns="http://www.w3.org/2000/svg" xmlns:xlink="http://www.w3.org/1999/xlink" x="0px" y="0px"
	 viewBox="0 0 90 90" enable-background="new 0 0 90 90" xml:space="preserve">
<g>
	<circle fill="#FFC717" cx="45" cy="45" r="44.6"/>
	<g>
		<path fill="#5D5E61" d="M57.5,51.5h-25c-8.2,0-14.9-6.7-14.9-14.9l0,0c0-8.2,6.7-14.9,14.9-14.9h25c8.2,0,14.9,6.7,14.9,14.9l0,0
			C72.4,44.8,65.7,51.5,57.5,51.5z"/>
		<rect x="44.1" y="19.6" fill="#915037" width="9.5" height="2"/>
		<rect x="43.2" y="18.4" fill="#915037" width="11.2" height="1.3"/>
		<rect x="17.1" y="53" fill="#E3E6E8" width="55.8" height="4.4"/>
		<circle fill="#565756" cx="25.5" cy="65.5" r="5.9"/>
		<circle fill="#565756" cx="64.5" cy="65.5" r="5.9"/>
		<circle fill="#E3E6E8" cx="25.5" cy="65.5" r="2.1"/>
		<circle fill="#E3E6E8" cx="64.5" cy="65.5" r="2.1"/>
		<path fill="#E3E6E8" d="M39.9,21.7v4h-4.9v-4h-1.8v29.8h1.8v-2.6h4.9v2.6h1.8V21.7H39.9z M39.9,27.4v5.4h-4.9v-5.4H39.9z
			 M39.9,34.5v5.4h-4.9v-5.4H39.9z M34.9,47.1v-5.4h4.9v5.4H34.9z"/>
	</g>
</g>
</svg>
