<?xml version="1.0" encoding="utf-8"?>
<!-- Generator: Adobe Illustrator 18.1.1, SVG Export Plug-In . SVG Version: 6.00 Build 0)  -->
<svg version="1.1" id="Layer_1" xmlns="http://www.w3.org/2000/svg" xmlns:xlink="http://www.w3.org/1999/xlink" x="0px" y="0px"
	 viewBox="0 0 90 90" enable-background="new 0 0 90 90" xml:space="preserve">
<g>
	<circle fill="#EF4538" cx="45" cy="45" r="44.6"/>
	<g>
		<path fill="#FFC717" d="M72.8,41.2c-3.2,0-5.7-2.5-5.7-5.7s2.5-5.7,5.7-5.7c0.1,0,0.1,0,0.1,0V17H41.4c0.4,0.8,0.5,1.8,0.5,2.7
			c0,4.4-3.6,8-8,8s-8-3.6-8-8c0-1,0.2-1.9,0.5-2.7h-9.3v48.2c0.3,0,0.6-0.1,0.8-0.1c4.3,0,7.7,3.4,7.9,7.6h47L72.8,41.2
			C72.8,41.2,72.8,41.2,72.8,41.2z M29.2,49.7c-1.8,0-3.4-1.5-3.4-3.4c0-1.8,1.5-3.4,3.4-3.4c1.8,0,3.4,1.5,3.4,3.4
			C32.6,48.2,31.1,49.7,29.2,49.7z M49.9,30.6c0-1.5,1.3-2.7,2.7-2.7c1.5,0,2.7,1.3,2.7,2.7c0,1.5-1.3,2.7-2.7,2.7
			C51.1,33.3,49.9,32.1,49.9,30.6z M57.6,65.2c-2,0-3.7-1.6-3.7-3.7s1.6-3.7,3.7-3.7s3.7,1.6,3.7,3.7S59.6,65.2,57.6,65.2z"/>
	</g>
</g>
</svg>
