<?xml version="1.0" encoding="utf-8"?>
<!-- Generator: Adobe Illustrator 18.1.1, SVG Export Plug-In . SVG Version: 6.00 Build 0)  -->
<svg version="1.1" id="Layer_1" xmlns="http://www.w3.org/2000/svg" xmlns:xlink="http://www.w3.org/1999/xlink" x="0px" y="0px"
	 viewBox="0 0 90 90" enable-background="new 0 0 90 90" xml:space="preserve">
<g>
	<circle fill="#388CCB" cx="45" cy="45" r="44.6"/>
	<g>
		<path fill="#F4B1A8" d="M57.9,32.6v-7.9H42.2v7.9c0,6.1-3.9,9.3-9.4,11.3v26.4c0,1.4,1.1,2.5,2.5,2.5h29.4c1.4,0,2.5-1.1,2.5-2.5
			V43.9C61.7,41.9,57.9,38.7,57.9,32.6z"/>
		<path fill="#D62E2F" d="M50,57.5L50,57.5c-4,0-7.2-3.2-7.2-7.2V45h14.5v5.3C57.2,54.3,54,57.5,50,57.5z"/>
		<path fill="#5D5E61" d="M57.9,24.8h-2c0-3.4-2.6-6.3-5.8-6.3c-3.2,0-5.8,2.8-5.8,6.3h-2c0-4.6,3.5-8.3,7.9-8.3
			C54.4,16.5,57.9,20.2,57.9,24.8z"/>
		<path fill="#5D5E61" d="M70.6,37.7c-0.4-0.9-1.1-1.5-1.7-2.2c-0.4-0.5-0.8-0.9-1.1-1.4c-0.6-1-0.8-2.3-0.7-3.9
			c0.2-1.9,0.8-3.7,1.9-5.3c0.4-0.5,0.2-1.1-0.3-1.5s-1.1-0.2-1.5,0.3c-1.3,1.9-2,4-2.2,6.3c-0.2,2,0.1,3.8,1,5.1
			c0.4,0.6,0.9,1.2,1.4,1.7c0.5,0.6,1,1.1,1.3,1.7c0.3,0.6,0.4,1.3,0.4,2.4c0,0.7-0.1,1.5-0.5,2.1c-0.3,0.4-0.8,0.6-1.1,0.5
			s-0.7-0.1-1,0c0.2,0.1,0.4,0.1,0.6,0.3v2c0.2,0.1,0.4,0.1,0.6,0.1c1.1,0,2-0.6,2.6-1.4c0.7-1.1,0.8-2.3,0.8-3.2
			C71.2,40.1,71.2,38.9,70.6,37.7z"/>
		<path fill="#5D5E61" d="M32.8,43.9c0.3-0.1,0.5-0.2,0.8-0.3c-0.2-0.1-0.5-0.1-0.7-0.1c-0.9,0.3-1.5,0.9-2,1.5
			c-0.3,0.4-0.6,0.6-0.9,0.8c-0.3,0.1-0.6,0.2-0.9,0.3c-0.2,0.1-0.4,0.1-0.6,0.1c-2.3,0.6-4,2.5-4.4,4.9c-0.2,1-0.2,1.9-0.1,2.8
			c0,0.9,0.1,1.8-0.2,2.6c-0.2,0.7-0.6,1.3-1,2c-0.4,0.6-0.7,1.1-1,1.8c-0.2,0.5-0.4,1.1-0.6,1.5c-0.4,1.5-0.8,2.4-1.5,2.7
			c-0.6,0.2-0.8,0.8-0.6,1.3c0.1,0.4,0.6,0.6,1,0.6c0.1,0,0.3,0,0.4-0.1c1.8-0.7,2.3-2.5,2.7-4c0.1-0.5,0.3-1,0.5-1.3
			c0.2-0.5,0.5-1,0.8-1.5c0.5-0.8,1-1.5,1.3-2.5c0.4-1.1,0.3-2.2,0.3-3.2c0-0.8-0.1-1.6,0.1-2.3c0.4-1.5,1.5-2.8,3-3.2
			c0.1-0.1,0.4-0.1,0.5-0.1c0.4-0.1,1-0.2,1.5-0.5c0.6-0.4,1.1-0.8,1.4-1.2c0.1-0.2,0.4-0.4,0.5-0.5v-2H32.8z"/>
	</g>
</g>
</svg>
