<?xml version="1.0" encoding="utf-8"?>
<!-- Generator: Adobe Illustrator 18.1.1, SVG Export Plug-In . SVG Version: 6.00 Build 0)  -->
<svg version="1.1" id="Layer_1" xmlns="http://www.w3.org/2000/svg" xmlns:xlink="http://www.w3.org/1999/xlink" x="0px" y="0px"
	 viewBox="0 0 90 90" enable-background="new 0 0 90 90" xml:space="preserve">
<g>
	<circle fill="#FFC717" cx="45" cy="45" r="44.6"/>
	<g>
		<rect x="17.1" y="41.4" fill="#E67375" width="55.8" height="27.3"/>
		<rect x="17.1" y="51" fill="#915037" width="55.8" height="8"/>
		<polygon fill="#E3E6E8" points="45,12.9 17.1,41.4 72.9,41.4 		"/>
		<circle fill="#D62E2F" cx="37.5" cy="32.4" r="5.4"/>
		<path fill="#915037" d="M37.5,27c0.4,0,0.6,0,0.9,0.1c0.1-1.7,0.5-4.3,2.5-5.1c0.5-0.2,0.8-0.8,0.6-1.3c-0.2-0.5-0.8-0.8-1.3-0.6
			c-3.1,1.3-3.7,4.8-3.7,7C36.8,27.1,37.1,27,37.5,27z"/>
		<circle fill="#D62E2F" cx="48.9" cy="23.8" r="3.9"/>
		<path fill="#915037" d="M48.9,19.9c0.2,0,0.4,0,0.6,0.1c0.1-1.3,0.4-3.1,1.8-3.7c0.4-0.1,0.6-0.6,0.4-0.9
			c-0.1-0.4-0.6-0.6-0.9-0.4c-2.2,0.9-2.7,3.4-2.7,5C48.4,20,48.6,19.9,48.9,19.9z"/>
	</g>
</g>
</svg>
