<?xml version="1.0" encoding="utf-8"?>
<!-- Generator: Adobe Illustrator 18.1.1, SVG Export Plug-In . SVG Version: 6.00 Build 0)  -->
<svg version="1.1" id="Layer_1" xmlns="http://www.w3.org/2000/svg" xmlns:xlink="http://www.w3.org/1999/xlink" x="0px" y="0px"
	 viewBox="0 0 128 128" enable-background="new 0 0 128 128" xml:space="preserve">
<g>
	<circle fill="#388CCB" cx="64" cy="64" r="63.5"/>
	<g>
		<rect x="43.3" y="77.8" fill="#FFC717" width="34" height="5.6"/>
		<path fill="#FCD83A" d="M25.2,47.1c0,13.2,7.3,24.7,18,30.7h34.2c10.8-6,18-17.5,18-30.7H25.2z"/>
		<path fill="#E3E6E8" d="M90.6,47.1c-0.2-0.3-0.5-0.7-0.7-1c-1-1.8-0.6-4.3-1.9-5.9c-0.9-1.1-2.5-1.6-2.9-2.9
			c-0.2-0.5-0.2-1-0.4-1.5c-0.9-2.1-4.6-1.3-5.6-3.4c-0.3-0.6-0.3-1.3-0.5-2c-0.4-1.3-1.5-2.2-2.8-2.6c-0.4-0.1-0.7-0.2-1.1-0.3
			c-1.3-0.2-2.4-1.1-3.2-2.1c-0.1-0.2-0.3-0.3-0.4-0.4c-0.7-0.5-1.6-0.6-2.5-0.6c-1.6,0-3.1,0.1-4.7,0.6c-1.3,0.4-2.6,0.2-3.8-0.4
			c-0.4-0.2-0.9-0.3-1.4-0.3c-1.1,0.1-2.1,0.7-2.8,1.6c-0.6,0.7-1.1,1.5-1.7,2.1s-1.5,1.2-2.4,1c-0.6-0.1-1.1-0.4-1.6-0.6
			c-2.2-0.9-5.1,0.9-5.3,3.3c0,0.6,0,1.4-0.5,1.7c-0.3,0.2-0.6,0.2-0.9,0.1c-0.9-0.1-1.8-0.4-2.7-0.4c-0.9,0-1.9,0.4-2.3,1.2
			c-0.5,1.1,0.3,2.6-0.5,3.5c-0.1,0.1-0.2,0.2-0.4,0.3c-1.4,0.5-2.6,1.4-3.2,2.7c-0.1,0.3-0.2,0.5-0.4,0.8c-0.2,0.4-0.5,0.9-1,0.9
			c-0.3,0-0.6-0.3-0.8-0.5c-0.8-0.5-1.8-0.2-2.5,0.4s-1,1.5-1.3,2.4c-0.2,0.7-0.4,1.4-0.5,2.2H90.6z"/>
		<path fill="#915037" d="M35.3,98.4l65-2.3c2.1-0.1,3.8,1.6,3.9,3.7c0.1,2.1-1.6,3.9-3.6,3.9c-0.1,0-0.2,0-0.3,0l-65-2.3
			c-0.8,0-1.5-0.7-1.4-1.5C33.9,99.1,34.6,98.4,35.3,98.4z"/>
		<path fill="#915037" d="M35.7,92l64.7-7c2.1-0.2,3.9,1.3,4.1,3.4c0.2,2.1-1.3,4-3.4,4.2c-0.1,0-0.2,0-0.3,0l-65,2.4
			c-0.8,0-1.5-0.6-1.5-1.4C34.3,92.8,34.9,92.1,35.7,92z"/>
	</g>
</g>
</svg>
