<?xml version="1.0" encoding="utf-8"?>
<!-- Generator: Adobe Illustrator 18.1.1, SVG Export Plug-In . SVG Version: 6.00 Build 0)  -->
<svg version="1.1" id="Layer_1" xmlns="http://www.w3.org/2000/svg" xmlns:xlink="http://www.w3.org/1999/xlink" x="0px" y="0px"
	 viewBox="0 0 90 90" enable-background="new 0 0 90 90" xml:space="preserve">
<g>
	<circle fill="#388CCB" cx="45" cy="45" r="44.6"/>
	<g>
		
			<rect x="25.1" y="40" transform="matrix(-0.7071 -0.7071 0.7071 -0.7071 29.6681 115.8415)" fill="#E3E6E8" width="27.4" height="23.6"/>
		<polygon fill="#B6C4CC" points="21.1,53.5 21.1,57.5 25.1,57.5 25.1,61.5 29.1,61.5 29.1,65.5 33,65.5 33,69.5 37.1,69.5 
			37.1,72.9 40.2,69.8 20.8,50.4 17.7,53.5 		"/>
		<path fill="#915037" d="M69.7,38.9c1,0,2-0.4,2.7-1.1c1.5-1.5,1.5-4.1,0-5.6L58.5,18.3c-1.5-1.5-4.1-1.5-5.6,0
			c-0.8,0.8-1.1,1.7-1.1,2.7c-1,0-2,0.4-2.7,1.1c-0.8,0.8-1.1,1.7-1.1,2.7c-1,0-2,0.4-2.7,1.1c-0.8,0.8-1.1,1.7-1.1,2.7
			c-1,0-2,0.4-2.7,1.1c-0.8,0.8-1.1,1.7-1.1,2.7c-1,0-2,0.4-2.7,1.1L57,53.2c0.8-0.8,1.1-1.7,1.1-2.7c1,0,2-0.4,2.7-1.1
			c0.8-0.8,1.1-1.7,1.1-2.7c1,0,2-0.4,2.7-1.1c0.8-0.8,1.1-1.7,1.1-2.7c1,0,2-0.4,2.7-1.1C69.3,40.9,69.6,39.9,69.7,38.9z"/>
	</g>
</g>
</svg>
