<?xml version="1.0" encoding="utf-8"?>
<!-- Generator: Adobe Illustrator 18.1.1, SVG Export Plug-In . SVG Version: 6.00 Build 0)  -->
<svg version="1.1" id="Layer_1" xmlns="http://www.w3.org/2000/svg" xmlns:xlink="http://www.w3.org/1999/xlink" x="0px" y="0px"
	 viewBox="0 0 90 90" enable-background="new 0 0 90 90" xml:space="preserve">
<g>
	<circle fill="#FFC717" cx="45" cy="45" r="44.6"/>
	<g>
		<polygon fill="#E67375" points="37.1,72.9 25.6,68.6 25.6,22.5 37.1,25 		"/>
		<polygon fill="#D62E2F" points="65.6,69.5 37.1,72.9 37.1,25 65.6,23 		"/>
		<polygon fill="#E67374" points="25.6,22.5 52.5,20.5 65.6,23 37.1,25 		"/>
		<polyline fill="#FACDD4" points="37.1,25 33.6,24.2 33.6,29.2 37.1,25 		"/>
		<polyline fill="#F4B1A8" points="33.6,24.2 25.6,22.5 31.4,31.1 33.6,31.1 33.6,24.2 		"/>
		<ellipse fill="#E3E6E8" cx="45.8" cy="18.3" rx="4.6" ry="1.2"/>
		<path fill="#5D5E61" d="M45.8,19.5c-2.5,0-4.6-0.6-4.6-1.2v3.6c0,0.6,2,1.2,4.6,1.2c2.5,0,4.6-0.6,4.6-1.2v-3.6
			C50.4,18.9,48.3,19.5,45.8,19.5z"/>
	</g>
</g>
</svg>
