<?xml version="1.0" encoding="utf-8"?>
<!-- Generator: Adobe Illustrator 18.1.1, SVG Export Plug-In . SVG Version: 6.00 Build 0)  -->
<svg version="1.1" id="Layer_1" xmlns="http://www.w3.org/2000/svg" xmlns:xlink="http://www.w3.org/1999/xlink" x="0px" y="0px"
	 viewBox="0 0 90 90" enable-background="new 0 0 90 90" xml:space="preserve">
<g>
	<circle fill="#388CCB" cx="45" cy="45" r="44.6"/>
	<g>
		<path fill="#E3E6E8" d="M37.9,41.6l0.7,0.4c1.5,1,2.7,2.5,3.1,4.3h5.9c0.5-1.8,1.7-3.3,3.4-4.2l1-0.6c1.4-0.8,2.3-2.3,2.3-3.9
			V19.9c0-1.5-1.3-2.8-2.8-2.8H38.7c-1.5,0-2.8,1.3-2.8,2.8v17.9C35.9,39.4,36.6,40.7,37.9,41.6z"/>
		<rect x="35.9" y="21.1" fill="#5D5E61" width="18.4" height="1.8"/>
		<rect x="39.8" y="26.6" fill="#D62E2F" width="10.3" height="9.5"/>
		<rect x="33.9" y="46.3" fill="#FFC717" width="22.1" height="26.6"/>
		<rect x="36.3" y="54.4" fill="#FAF4A6" width="17.4" height="14.6"/>
		<rect x="39" y="54.4" fill="#753A29" width="3.2" height="4.1"/>
		<rect x="47.7" y="54.4" fill="#753A29" width="3.2" height="4.1"/>
		<rect x="39.8" y="58.5" fill="#92513B" width="1.7" height="2"/>
		<rect x="48.5" y="58.5" fill="#92513B" width="1.7" height="2"/>
	</g>
</g>
</svg>
