<?xml version="1.0" encoding="utf-8"?>
<!-- Generator: Adobe Illustrator 18.1.1, SVG Export Plug-In . SVG Version: 6.00 Build 0)  -->
<svg version="1.1" id="Layer_1" xmlns="http://www.w3.org/2000/svg" xmlns:xlink="http://www.w3.org/1999/xlink" x="0px" y="0px"
	 viewBox="0 0 90 90" enable-background="new 0 0 90 90" xml:space="preserve">
<g>
	<circle fill="#EF4538" cx="45" cy="45" r="44.6"/>
	<g>
		<path fill="#BEC8CE" d="M21.1,52.6c-2.2,0-3.1-2-4-4.1L26.9,71h5.2l-7-22.5C25.1,50.8,23.3,52.6,21.1,52.6z"/>
		<path fill="#E3E6E8" d="M29,52.6c-2.2,0-3.1-1.8-4-4.1l7,22.5h5.2L33,48.5C33,50.8,31.3,52.6,29,52.6z"/>
		<path fill="#BEC8CE" d="M37.1,52.6c-2.2,0-3.4-1.9-4-4.1L37.3,71h5.2l-1.4-22.5C41,50.8,39.2,52.6,37.1,52.6z"/>
		<path fill="#E3E6E8" d="M45,52.6c-2.2,0-4-1.8-4-4.1L42.4,71h5.2L49,48.5C49,50.8,47.2,52.6,45,52.6z"/>
		<path fill="#BEC8CE" d="M52.9,52.6c-2.2,0-4-1.8-4-4.1L47.5,71h5.2L57,48.5C57,50.8,55.2,52.6,52.9,52.6z"/>
		<path fill="#E3E6E8" d="M61,52.6c-2.2,0-4-1.8-4-4.1L52.7,71h5.2l7-22.5C64.2,50.8,63.1,52.6,61,52.6z"/>
		<path fill="#BEC8CE" d="M68.3,52.5c-2.2,0-3.4-1.8-3.4-4.1l-7,22.5h5.2L73,48.4C71.9,50.9,70.5,52.5,68.3,52.5z"/>
		<path fill="#FFC717" d="M21.1,52.6c2.2,0,4-1.8,4-4.1c0.9,2.2,1.8,4.1,4,4.1c2.2,0,4-1.8,4-4.1c0.6,2.2,1.8,4.1,4,4.1
			c2.2,0,4-1.8,4-4.1V49c0.2,2,1.9,3.7,3.9,3.7S48.8,51,49,49v-0.5c0,2.2,1.8,4.1,4,4.1c1.7,0,3.1-1.1,3.7-2.6l0.2-1.5
			c0,2.2,1.8,4.1,4,4.1c2.2,0,3.3-1.8,4-4.1c0,2.2,1.2,4.1,3.4,4.1c0.4,0,0.8-0.1,1.1-0.2c0.8-2.5,1.2-5.1,1.2-7.7
			C70.7,30.4,59.1,19,45,19S19.3,30.4,19.3,44.6c0,2.7,0.4,5.4,1.3,7.9C20.7,52.6,20.9,52.6,21.1,52.6z"/>
	</g>
</g>
</svg>
