<?xml version="1.0" encoding="utf-8"?>
<!-- Generator: Adobe Illustrator 18.1.1, SVG Export Plug-In . SVG Version: 6.00 Build 0)  -->
<svg version="1.1" id="Layer_1" xmlns="http://www.w3.org/2000/svg" xmlns:xlink="http://www.w3.org/1999/xlink" x="0px" y="0px"
	 viewBox="0 0 90 90" enable-background="new 0 0 90 90" xml:space="preserve">
<g>
	<circle fill="#EF4538" cx="45" cy="45" r="44.6"/>
	<g>
		<path fill="#FAF4A6" d="M67.1,54.3H22.9l4.9-21.8c0.6-2.5,2.7-4.3,5.3-4.3H57c2.5,0,4.8,1.8,5.3,4.3L67.1,54.3z"/>
		<path fill="#22A79C" d="M29.7,54.3L33,32.5c0.4-2.5,1.9-4.3,3.7-4.3h16.5c1.8,0,3.3,1.8,3.7,4.3l3.3,21.8"/>
		<path fill="#FFC717" d="M37.9,54.3l1.5-21.8c0.2-2.5,0.9-4.3,1.7-4.3h7.7c0.8,0,1.5,1.8,1.7,4.3L52,54.3"/>
		<polygon fill="#E3E6E8" points="68.8,61.7 21.2,61.7 17.1,54.3 72.9,54.3 		"/>
	</g>
</g>
</svg>
