<?xml version="1.0" encoding="utf-8"?>
<!-- Generator: Adobe Illustrator 18.1.1, SVG Export Plug-In . SVG Version: 6.00 Build 0)  -->
<svg version="1.1" id="Layer_1" xmlns="http://www.w3.org/2000/svg" xmlns:xlink="http://www.w3.org/1999/xlink" x="0px" y="0px"
	 viewBox="0 0 90 90" enable-background="new 0 0 90 90" xml:space="preserve">
<g>
	<circle fill="#388CCB" cx="45" cy="45" r="44.6"/>
	<g>
		<path fill="#E3E6E8" d="M30.3,30.4c-2.1,3.7-3.3,8.2-3.3,13.1c0,8.2,3.4,21.4,8.6,29.5h18.8c5.2-8.1,8.6-21.2,8.6-29.5
			c0-4.9-1.2-9.4-3.3-13.1C59.8,30.4,30.3,30.4,30.3,30.4z"/>
		<polygon fill="#FFC717" points="47.6,52.5 42.4,52.5 42.4,19.4 47.6,17.1 		"/>
		<path fill="#753A29" d="M47,44.4c-3.2,0.4-6.2,1.7-9.3,2.4c-3.4,0.8-7.1,0.8-10.6,0.3c0.8,8.1,4,18.8,8.4,25.8h18.8
			c4.6-7.3,7.9-18.6,8.5-26.8C57.6,45.4,52.3,43.7,47,44.4z"/>
		<rect x="30.4" y="25.2" fill="#5D5E61" width="29.3" height="5.2"/>
	</g>
</g>
</svg>
