<?xml version="1.0" encoding="utf-8"?>
<!-- Generator: Adobe Illustrator 18.1.1, SVG Export Plug-In . SVG Version: 6.00 Build 0)  -->
<svg version="1.1" id="Layer_1" xmlns="http://www.w3.org/2000/svg" xmlns:xlink="http://www.w3.org/1999/xlink" x="0px" y="0px"
	 viewBox="0 0 90 90" enable-background="new 0 0 90 90" xml:space="preserve">
<g>
	<circle fill="#41B655" cx="45" cy="45" r="44.6"/>
	<path fill="#E3E6E8" d="M45,57.9c-15.4,0-27.9-2.4-27.9-5.3c0,6.7,12.5,12.2,27.9,12.2s27.9-5.5,27.9-12.2
		C72.9,55.5,60.4,57.9,45,57.9z"/>
	<ellipse fill="#B4BCC1" cx="45" cy="52.7" rx="27.9" ry="5.3"/>
	<path fill="#FACDD4" d="M45,57.9c6.1,0,11.7-0.4,16.4-1c0,0,0,0,0-0.1c0-3.3-12.3-7.8-19.5-7.8S28.7,51.8,28.7,55
		c0,0.7,0.3,1.4,0.8,2C33.9,57.7,39.2,57.9,45,57.9z"/>
	<path fill="#E3E6E8" d="M18.8,47.1c1.2,1.1,2.8,1.7,4.4,2.2c5.1-1.2,12.9-2,21.7-2l0,0l0,0c7.9,0,15,0.6,20,1.6
		c2.9-1.8,5.3-4.2,6.7-7.2c2.3-4.9,1.2-11.4-3.2-14.5c-4.6-3.3-11.1-2-16.4,0.2c-9.7,4-18.6,10.5-29,11.8c-2,0.2-4.1,0.4-5.3,2
		C16.5,42.9,17.2,45.6,18.8,47.1z"/>
	<path fill="#95A1A8" d="M28.3,48.4c4.6-0.7,10.5-1.1,16.7-1.1l0,0l0,0c5.4,0,10.5,0.3,14.7,0.8c1.2-1,2.3-2.2,2.9-3.7
		c1.5-3.2,0.8-7.5-2.1-9.6c-3.1-2.2-7.3-1.3-10.8,0.1c-6.4,2.7-12.2,6.9-19.1,7.7c-1.3,0.1-2.7,0.3-3.5,1.3c-0.9,1.1-0.4,3,0.7,3.9
		C27.9,48.2,28.1,48.2,28.3,48.4z"/>
</g>
</svg>
