<?xml version="1.0" encoding="utf-8"?>
<!-- Generator: Adobe Illustrator 18.1.1, SVG Export Plug-In . SVG Version: 6.00 Build 0)  -->
<svg version="1.1" id="Layer_1" xmlns="http://www.w3.org/2000/svg" xmlns:xlink="http://www.w3.org/1999/xlink" x="0px" y="0px"
	 viewBox="0 0 90 90" enable-background="new 0 0 90 90" xml:space="preserve">
<g>
	<circle fill="#FFC717" cx="45" cy="45" r="44.6"/>
	<g>
		<rect x="24.4" y="64.4" fill="#E3E6E8" width="27.4" height="8.5"/>
		<rect x="27.8" y="64.4" fill="#FFFFFF" width="2.8" height="8.5"/>
		<rect x="33.7" y="64.4" fill="#FFFFFF" width="2.8" height="8.5"/>
		<rect x="39.6" y="64.4" fill="#FFFFFF" width="2.8" height="8.5"/>
		<rect x="45.5" y="64.4" fill="#FFFFFF" width="2.8" height="8.5"/>
		<path fill="#E3E6E8" d="M38.1,17.1c-8.7,0-15.8,7.1-15.8,15.8v31.5H54V32.9C53.9,24.2,46.8,17.1,38.1,17.1z"/>
		<path fill="#ADC0C9" d="M66.2,35.6L66.2,35.6c-2-2-5.4-2-7.5,0L54,40.4v15l12.3-12.3C68.3,41.1,68.3,37.7,66.2,35.6z"/>
	</g>
</g>
</svg>
