<?xml version="1.0" encoding="utf-8"?>
<!-- Generator: Adobe Illustrator 18.1.1, SVG Export Plug-In . SVG Version: 6.00 Build 0)  -->
<svg version="1.1" id="Layer_1" xmlns="http://www.w3.org/2000/svg" xmlns:xlink="http://www.w3.org/1999/xlink" x="0px" y="0px"
	 viewBox="0 0 90 90" enable-background="new 0 0 90 90" xml:space="preserve">
<g>
	<circle fill="#41B655" cx="45" cy="45" r="44.6"/>
	<g>
		<path fill="#FCD83A" d="M51.9,36.5c-13.6,0-24.7,11-25.5,25.1c-0.1,1.1,0.9,1.9,2,1.7l45.4-9.7c1-0.2,1.5-1.3,1.1-2.3
			C70.6,42.5,61.9,36.5,51.9,36.5z"/>
		<path fill="#FFC717" d="M26.4,61.5c0.8-14,12-25.1,25.5-25.1c2.7,0,5.3,0.4,7.7,1.3c-4.1-3.1-9.2-4.9-14.7-4.9
			c-13.1,0-24,10.4-25.5,23.8c-0.2,1.9,0.9,3.7,2.7,4.5l4.4,1.5c0.1,0.1,0.3,0.1,0.4,0.1C26.6,62.5,26.4,62,26.4,61.5z"/>
		<path fill="#915037" d="M31.4,60.8c-0.6,0-1.1-0.5-1.1-1.1v-0.6c0-0.6,0.5-1.1,1.1-1.1c0.6,0,1.1,0.5,1.1,1.1v0.6
			C32.4,60.3,31.9,60.8,31.4,60.8z"/>
		<path fill="#915037" d="M33.3,55.5c-0.6,0-1.1-0.4-1.1-1.1c0-0.5,0.1-1,0.5-1.4c0.4-0.4,1.1-0.5,1.5-0.1s0.5,1.1,0.1,1.5
			C34.4,55,33.9,55.5,33.3,55.5L33.3,55.5z"/>
		<path fill="#915037" d="M37.1,49.8c-0.3,0-0.5-0.1-0.7-0.3c-0.4-0.4-0.5-1.1-0.1-1.5l0.9-1.1c0.4-0.4,1.1-0.5,1.5-0.1
			s0.5,1.1,0.1,1.5l-0.9,1.1C37.6,49.7,37.3,49.8,37.1,49.8z"/>
		<path fill="#915037" d="M37.8,59.3c-0.1,0-0.1,0-0.2,0c-0.6-0.1-0.9-0.6-0.8-1.3l0.1-0.6c0.1-0.6,0.6-0.9,1.3-0.8
			c0.6,0.1,0.9,0.6,0.8,1.3l-0.1,0.6C38.7,59,38.3,59.3,37.8,59.3z"/>
		<path fill="#915037" d="M40.1,54.2c-0.1,0-0.4-0.1-0.5-0.1c-0.5-0.3-0.7-0.9-0.5-1.4l0.1-0.2c0.3-0.5,0.9-0.7,1.4-0.5
			c0.5,0.3,0.7,0.9,0.5,1.4l-0.1,0.2C40.9,54,40.6,54.2,40.1,54.2z"/>
		<path fill="#915037" d="M43.7,45.6c-0.3,0-0.5-0.1-0.7-0.3c-0.4-0.4-0.4-1.1,0-1.5l1.3-1.3c0.4-0.4,1.1-0.4,1.5,0
			c0.4,0.4,0.4,1.1,0,1.5l-1.3,1.3C44.2,45.6,43.9,45.6,43.7,45.6z"/>
		<path fill="#915037" d="M45,56.7c-0.5,0-1-0.4-1.1-0.9c-0.1-0.5,0.3-1,0.8-1.1c0.3-0.4,0.8-0.6,1.3-0.4c0.6,0.2,0.8,0.8,0.6,1.3
			C46.3,56.1,45.7,56.6,45,56.7C45.1,56.7,45,56.7,45,56.7z"/>
		<path fill="#915037" d="M47,49.4c-0.1,0-0.1,0-0.2,0c-0.6-0.1-0.9-0.7-0.8-1.3l0.2-1.1c0.1-0.6,0.7-0.9,1.3-0.8
			c0.6,0.1,0.9,0.7,0.8,1.3l-0.2,1.1C48,49.1,47.5,49.4,47,49.4z"/>
		<path fill="#915037" d="M52,42.7c-0.2,0-0.4-0.1-0.6-0.2c-0.5-0.4-0.6-1-0.3-1.5c0.4-0.5,0.9-0.9,1.5-1.1c0.6-0.2,1.1,0.1,1.3,0.7
			c0.1,0.6-0.1,1.1-0.7,1.3c-0.1,0.1-0.3,0.1-0.4,0.3C52.7,42.5,52.4,42.7,52,42.7z"/>
		<path fill="#915037" d="M51.2,55.5c-0.3,0-0.5-0.1-0.7-0.3c-0.4-0.4-0.4-1.1,0-1.5c0.5-0.5,1.1-0.8,1.8-0.9
			c0.6-0.1,1.1,0.3,1.3,0.8c0.1,0.6-0.3,1.1-0.8,1.3c-0.3,0.1-0.5,0.2-0.6,0.4C51.8,55.4,51.5,55.5,51.2,55.5z"/>
		<path fill="#915037" d="M52.8,48.7c-0.1,0-0.2,0-0.4-0.1c-0.6-0.2-0.8-0.8-0.6-1.3c0.2-0.8,0.9-1.3,1.7-1.4
			c0.6-0.1,1.1,0.4,1.1,0.9c0.1,0.6-0.4,1.1-0.9,1.1C53.6,48.4,53.2,48.7,52.8,48.7z"/>
		<path fill="#915037" d="M58.3,42.3L58.3,42.3L57,42.3c-0.6-0.1-1-0.6-0.9-1.1c0.1-0.6,0.6-1,1.1-0.9l1.3,0.1
			c0.6,0.1,1,0.6,0.9,1.1C59.3,42,58.9,42.3,58.3,42.3z"/>
		<path fill="#915037" d="M59,49.4c-0.6,0-1.1-0.5-1.1-1.1v-0.6c0-0.6,0.5-1.1,1.1-1.1c0.6,0,1.1,0.5,1.1,1.1v0.6
			C60,49,59.6,49.4,59,49.4z"/>
		<path fill="#915037" d="M58.5,54.2c-0.5,0-0.9-0.1-1.3-0.5s-0.5-1.1-0.1-1.5c0.4-0.4,1-0.5,1.5-0.1c0.6,0,1.1,0.4,1.1,1
			c0.1,0.6-0.4,1.1-1,1.1C58.6,54.2,58.5,54.2,58.5,54.2z"/>
		<path fill="#915037" d="M62.7,43.9c-0.1,0-0.1,0-0.3,0l-0.5-0.1c-0.6-0.1-0.9-0.7-0.8-1.3c0.1-0.6,0.7-0.9,1.3-0.8l0.5,0.1
			c0.6,0.1,0.9,0.7,0.8,1.3C63.6,43.5,63.2,43.9,62.7,43.9z"/>
		<path fill="#915037" d="M64.5,52.7h-0.4c-0.6,0-1.1-0.5-1.1-1.1s0.5-1.1,1.1-1.1h0.4c0.6,0,1.1,0.5,1.1,1.1S65,52.7,64.5,52.7z"/>
		<path fill="#915037" d="M67.4,48.4c-0.4,0-0.8-0.2-0.9-0.6c-0.6-0.1-1-0.6-0.9-1.1c0.1-0.6,0.6-1,1.1-0.9c0.7,0.1,1.3,0.5,1.6,1.1
			c0.3,0.5,0.1,1.1-0.5,1.4C67.7,48.4,67.6,48.4,67.4,48.4z"/>
		<path fill="#E3E6E8" d="M51.9,36.5c0.1,0,0.1,0,0.1,0l-6.7-9.7l-3,2l5.5,8C49.2,36.6,50.6,36.5,51.9,36.5z"/>
		<path fill="#C4D1D6" d="M42,38.5l-0.4-10.4L38,28.3l0.4,12.2C39.5,39.7,40.7,39.1,42,38.5z"/>
		<path fill="#C4D1D6" d="M39,40.1l-3.9-11.3L31.6,30l4.3,12.3C36.9,41.5,38,40.8,39,40.1z"/>
		<path fill="#E3E6E8" d="M36.4,41.9l-6.7-11.3l-3.1,1.8l7.1,12C34.6,43.5,35.5,42.7,36.4,41.9z"/>
		<path fill="#C4D1D6" d="M29.7,49.9l-2.8-15.8l-3.6,0.6l3.9,21.5C27.8,54,28.7,51.9,29.7,49.9z"/>
		<path fill="#E3E6E8" d="M28.8,51.9l-9.5-13.8l-3,2l11,16C27.6,54.7,28.1,53.3,28.8,51.9z"/>
	</g>
</g>
</svg>
