<?xml version="1.0" encoding="utf-8"?>
<!-- Generator: Adobe Illustrator 18.1.1, SVG Export Plug-In . SVG Version: 6.00 Build 0)  -->
<svg version="1.1" id="Layer_1" xmlns="http://www.w3.org/2000/svg" xmlns:xlink="http://www.w3.org/1999/xlink" x="0px" y="0px"
	 viewBox="0 0 90 90" enable-background="new 0 0 90 90" xml:space="preserve">
<g>
	<circle fill="#EF4538" cx="45" cy="45" r="44.6"/>
	<g>
		<path fill="#E3E6E8" d="M35.9,29.4c-0.3,0-0.6-0.1-0.8-0.4c-0.4-0.4-0.4-1.1,0.1-1.5c0.8-0.6,0.6-1.7,0.4-2.5
			c-0.1-0.4-0.4-0.8-0.5-1.2c-0.4-0.8-0.8-1.7-0.9-2.7c-0.2-1.8,0.6-3.7,2.3-4.9c0.4-0.4,1.1-0.3,1.5,0.2c0.4,0.4,0.3,1.1-0.2,1.5
			c-1.1,0.8-1.6,2-1.5,3c0.1,0.6,0.4,1.3,0.8,2c0.2,0.4,0.4,0.9,0.6,1.3c0.7,1.9,0.4,3.7-0.9,4.8C36.4,29.3,36.1,29.4,35.9,29.4z"/>
		<path fill="#E3E6E8" d="M45.4,29.4c-0.3,0-0.6-0.1-0.8-0.4c-0.4-0.4-0.4-1.1,0.1-1.5c0.8-0.6,0.6-1.7,0.4-2.5
			c-0.1-0.4-0.4-0.8-0.5-1.2c-0.4-0.8-0.8-1.7-0.9-2.7c-0.2-1.8,0.6-3.7,2.3-4.9c0.4-0.4,1.1-0.3,1.5,0.2c0.4,0.4,0.3,1.1-0.2,1.5
			c-1.1,0.8-1.6,2-1.5,3c0.1,0.6,0.4,1.3,0.8,2c0.2,0.4,0.4,0.9,0.6,1.3c0.7,1.9,0.4,3.7-0.9,4.8C45.9,29.3,45.6,29.4,45.4,29.4z"/>
		<path fill="#E3E6E8" d="M54.9,29.4c-0.3,0-0.6-0.1-0.8-0.4c-0.4-0.4-0.4-1.1,0.1-1.5c0.8-0.6,0.6-1.7,0.4-2.5
			c-0.1-0.4-0.4-0.8-0.5-1.2c-0.4-0.8-0.8-1.7-0.9-2.7c-0.2-1.8,0.6-3.7,2.3-4.9C56,16,56.7,16,57,16.5c0.4,0.4,0.3,1.1-0.2,1.5
			c-1.1,0.8-1.6,2-1.5,3c0.1,0.6,0.4,1.3,0.8,2c0.2,0.4,0.4,0.9,0.6,1.3c0.7,1.9,0.4,3.7-0.9,4.8C55.4,29.3,55.2,29.4,54.9,29.4z"/>
		<path fill="#FFC717" d="M23.5,32.1c0,12.2,9.9,22.1,22.1,22.1s22.1-9.9,22.1-22.1H23.5z"/>
		<path fill="#E3E6E8" d="M72.7,72.3L57.4,50.8c-0.6,0.4-1.2,0.7-1.8,1.1l10.3,14.5H25.3l10.3-14.5c-0.6-0.4-1.3-0.6-1.8-1.1
			L18.5,72.3c-0.4,0.5-0.2,1.1,0.3,1.5c0.2,0.1,0.4,0.2,0.6,0.2c0.4,0,0.6-0.1,0.8-0.4l3.7-5.1h43.5l3.7,5.1
			c0.2,0.3,0.5,0.4,0.8,0.4c0.2,0,0.4-0.1,0.6-0.2C72.9,73.4,73.1,72.8,72.7,72.3z"/>
	</g>
</g>
</svg>
