<?xml version="1.0" encoding="utf-8"?>
<!-- Generator: Adobe Illustrator 18.1.1, SVG Export Plug-In . SVG Version: 6.00 Build 0)  -->
<svg version="1.1" id="Layer_1" xmlns="http://www.w3.org/2000/svg" xmlns:xlink="http://www.w3.org/1999/xlink" x="0px" y="0px"
	 viewBox="0 0 128 128" enable-background="new 0 0 128 128" xml:space="preserve">
<g>
	<circle fill="#EF4538" cx="64" cy="64" r="63.5"/>
	<g>
		<path fill="#FCD83A" d="M91.8,45.4C90.9,33.6,81.1,24.3,69,24.3c-11,0-20.2,7.8-22.3,18.1c-1.4-0.4-2.8-0.7-4.3-0.7
			c-7.8,0-14.1,6.3-14.1,14.1s6.3,14.1,14.1,14.1c4.7,0,8.8-2.3,11.4-5.8c4,3.6,9.4,5.8,15.2,5.8c3.7,0,7.2-0.9,10.3-2.5
			c2.1,1.6,4.7,2.5,7.5,2.5c7,0,12.7-5.7,12.7-12.7C99.7,51.9,96.4,47.3,91.8,45.4z"/>
		<path fill="#E3E6E8" d="M86.9,69.9c-2.8,0-5.4-0.9-7.5-2.5c-3.1,1.6-6.6,2.5-10.3,2.5c-5.9,0-11.2-2.2-15.2-5.8
			c-2.6,3.5-6.7,5.8-11.4,5.8c-2.7,0-5.3-0.8-7.4-2.1l8.1,35.9h41.8l7.9-35.2C91.1,69.4,89.1,69.9,86.9,69.9z"/>
		<path fill="#92513B" d="M49.4,96c-0.8,0-1.5-0.7-1.5-1.5V77.9c0-0.8,0.7-1.5,1.5-1.5s1.5,0.7,1.5,1.5v16.6
			C50.9,95.3,50.2,96,49.4,96z"/>
		<path fill="#92513B" d="M59.1,96c-0.8,0-1.5-0.7-1.5-1.5V77.9c0-0.8,0.7-1.5,1.5-1.5s1.5,0.7,1.5,1.5v16.6
			C60.6,95.3,59.9,96,59.1,96z"/>
		<path fill="#92513B" d="M68.8,96c-0.8,0-1.5-0.7-1.5-1.5V77.9c0-0.8,0.7-1.5,1.5-1.5s1.5,0.7,1.5,1.5v16.6
			C70.2,95.3,69.6,96,68.8,96z"/>
		<path fill="#92513B" d="M78.4,96c-0.8,0-1.5-0.7-1.5-1.5V77.9c0-0.8,0.7-1.5,1.5-1.5s1.5,0.7,1.5,1.5v16.6
			C79.9,95.3,79.2,96,78.4,96z"/>
	</g>
</g>
</svg>
