<?xml version="1.0" encoding="utf-8"?>
<!-- Generator: Adobe Illustrator 18.1.1, SVG Export Plug-In . SVG Version: 6.00 Build 0)  -->
<svg version="1.1" id="Layer_1" xmlns="http://www.w3.org/2000/svg" xmlns:xlink="http://www.w3.org/1999/xlink" x="0px" y="0px"
	 viewBox="0 0 128 128" enable-background="new 0 0 128 128" xml:space="preserve">
<g>
	<circle fill="#388CCB" cx="64" cy="64" r="63.5"/>
	<g>
		<path fill="#F4B1A8" d="M88.7,108.4H39.3c-2.1,0-3.9-1.3-4.6-3.3L24.3,54.7h79.4l-10.4,50.4C92.7,107.1,90.8,108.4,88.7,108.4z"/>
		<path fill="#E3E6E8" d="M24.5,54.7h79c-4.1-5.8-11.1-8.7-12.3-16.5c-0.2-1.4-0.2-2.8-0.8-4c-1.7-3.7-6.2-1.4-9-3.5
			c-1.9-1.5-2.6-4.7-4.1-6.9c-2.6-3.9-7.1-4.2-11-4.1c-1.3,0-2.6,0.1-3.6,1c-2.7,2.3-2.2,8.6-5.1,10.6c-1.9,1.3-4.3-0.2-6.1-1.9
			c-1.8-1.7-3.7-3.8-5.9-3.6c-2.3,0.3-4,3.1-4.9,6c-0.4,1.4-0.7,3-1.5,4.1c-2.8,4.2-9.1,0-11.6,4.6c-1.9,3.6,0.7,9.4-1.5,12.7
			C25.8,53.8,25.2,54.3,24.5,54.7z"/>
		<rect x="43.1" y="61.7" fill="#E67375" width="5.9" height="39.6"/>
		<rect x="55.1" y="61.7" fill="#E67375" width="5.9" height="39.6"/>
		<rect x="67.1" y="61.7" fill="#E67375" width="5.9" height="39.6"/>
		<rect x="79" y="61.7" fill="#E67375" width="5.9" height="39.6"/>
	</g>
</g>
</svg>
