<?xml version="1.0" encoding="utf-8"?>
<!-- Generator: Adobe Illustrator 18.1.1, SVG Export Plug-In . SVG Version: 6.00 Build 0)  -->
<svg version="1.1" id="Layer_1" xmlns="http://www.w3.org/2000/svg" xmlns:xlink="http://www.w3.org/1999/xlink" x="0px" y="0px"
	 viewBox="0 0 128 128" enable-background="new 0 0 128 128" xml:space="preserve">
<g>
	<circle fill="#FFC717" cx="64" cy="64" r="63.5"/>
	<g>
		<path fill="#E3E6E8" d="M48.9,45.3c3.2-0.8,6.4-2.4,9.6-1.7c1.6,0.4,2.9,1.3,4.4,1.9c2.9,1.1,6.1,1,9.2,0.9c4-0.1,7.9-0.1,11.9,0
			l1.9-22H36.1L37.8,45C41.5,45.8,45.3,46.1,48.9,45.3z"/>
		<path fill="#168B7D" d="M72.2,46.4c-3.1,0.1-6.3,0.3-9.2-0.9c-1.5-0.6-2.9-1.5-4.4-1.9c-3.2-0.8-6.4,0.9-9.6,1.7
			c-3.6,0.9-7.4,0.5-11-0.3l5,58.8h36.3L84,46.3C80.1,46.2,76.1,46.2,72.2,46.4z"/>
		<path fill="#E67375" d="M91.9,90.8c0,7.1-5.8,12.9-12.9,12.9s-12.9-5.8-12.9-12.9S79,67.4,79,67.4S91.9,83.7,91.9,90.8z"/>
	</g>
</g>
</svg>
