<?xml version="1.0" encoding="utf-8"?>
<!-- Generator: Adobe Illustrator 18.1.1, SVG Export Plug-In . SVG Version: 6.00 Build 0)  -->
<svg version="1.1" id="Layer_1" xmlns="http://www.w3.org/2000/svg" xmlns:xlink="http://www.w3.org/1999/xlink" x="0px" y="0px"
	 viewBox="0 0 128 128" enable-background="new 0 0 128 128" xml:space="preserve">
<g>
	<circle fill="#388CCB" cx="64" cy="64" r="64"/>
	<g>
		<path fill="#565756" d="M89,96.8H77.3v-4H89c1.6,0,2.9-1.3,2.9-2.9V57.3c0-1.6-1.3-2.9-2.9-2.9H77.3v-4H89c3.8,0,6.9,3.1,6.9,6.9
			v32.5C95.9,93.7,92.8,96.8,89,96.8z"/>
		<rect x="33.1" y="43.2" fill="#E3E6E8" width="44.3" height="60.8"/>
		<path fill="#FCD83A" d="M77.3,43.2v0.9c0.5-0.8,0.7-1.7,0.7-2.7c0-2.1-1.2-4-2.9-4.9c0.1-0.4,0.1-0.8,0.1-1.2
			c0-3.1-2.5-5.6-5.6-5.6c-0.3,0-0.7,0-1,0.1c-1-1-2.4-1.6-3.9-1.6c-0.2,0-0.4,0-0.6,0.1c-0.6-2.4-2.8-4.2-5.4-4.2
			c-2.7,0-4.9,1.9-5.5,4.4c-0.5-0.1-1-0.2-1.5-0.2c-2.1,0-4,1.2-4.9,3c-1-0.9-2.3-1.5-3.8-1.5c-2.8,0-5.2,2.1-5.5,4.8
			c-2.9,0.2-5.3,2.6-5.3,5.6c0,1.2,0.4,2.3,1,3.1H77.3z"/>
		<rect x="39.5" y="52.8" fill="#C8CCCE" width="3" height="41.5"/>
		<rect x="49" y="52.8" fill="#C8CCCE" width="3" height="41.5"/>
		<rect x="58.5" y="52.8" fill="#C8CCCE" width="3" height="41.5"/>
		<rect x="68" y="52.8" fill="#C8CCCE" width="3" height="41.5"/>
	</g>
</g>
</svg>
