<?xml version="1.0" encoding="utf-8"?>
<!-- Generator: Adobe Illustrator 18.1.1, SVG Export Plug-In . SVG Version: 6.00 Build 0)  -->
<svg version="1.1" id="Layer_1" xmlns="http://www.w3.org/2000/svg" xmlns:xlink="http://www.w3.org/1999/xlink" x="0px" y="0px"
	 viewBox="0 0 128 128" enable-background="new 0 0 128 128" xml:space="preserve">
<g>
	<circle fill="#EF4538" cx="64" cy="64" r="63.5"/>
	<g>
		<rect x="36.9" y="38.9" fill="#22A79C" width="54.2" height="64.8"/>
		<polygon fill="#168B7D" points="76.9,24.3 36.9,38.9 76.9,38.9 		"/>
		<g>
			<path fill="#E3E6E8" d="M45.3,77.3h-1.6V65.2h2.4l2.8,7.6l2.8-7.6h2.4v12.2h-1.6v-9.5l-3.2,8.4h-0.9l-3.2-8.4V77.3z"/>
			<path fill="#E3E6E8" d="M63.3,65.2v1.9h-4.9v3.2h4.4v1.8h-4.4v3.3h5.1v1.9h-6.7V65.2H63.3z"/>
			<path fill="#E3E6E8" d="M72.4,65.2H74v12.2h-1.7L67,68.5v8.9h-1.6V65.2H67l5.4,9.1V65.2z"/>
			<path fill="#E3E6E8" d="M78.6,74.5c0.4,0.7,1,1,1.7,1c0.7,0,1.3-0.3,1.7-1c0.4-0.7,0.6-1.5,0.6-2.6v-6.7h1.6V72
				c0,1.8-0.4,3.1-1.1,4.1c-0.7,0.9-1.7,1.4-2.8,1.4c-1.1,0-2.1-0.5-2.8-1.4c-0.7-0.9-1.1-2.3-1.1-4.1v-6.8H78v6.7
				C78,73,78.2,73.9,78.6,74.5z"/>
		</g>
	</g>
</g>
</svg>
