<?xml version="1.0" encoding="utf-8"?>
<!-- Generator: Adobe Illustrator 18.1.1, SVG Export Plug-In . SVG Version: 6.00 Build 0)  -->
<svg version="1.1" id="Layer_1" xmlns="http://www.w3.org/2000/svg" xmlns:xlink="http://www.w3.org/1999/xlink" x="0px" y="0px"
	 viewBox="0 0 128 128" enable-background="new 0 0 128 128" xml:space="preserve">
<g>
	<circle fill="#388CCB" cx="64" cy="64" r="63.5"/>
	<g>
		<path fill="#FCD83A" d="M88.6,72.7c-1.6-1.1-3.6-1.9-5.4-1.2c-1.4,0.5-2.4,1.8-3.4,3c-1,1.1-2.4,2.1-3.9,1.9c-1-0.2-1.8-1-2.7-1.6
			c-1.6-1.3-3.5-2.1-5.5-2.5c-1.2-0.2-2.5-0.3-3.6,0.2c-0.9,0.4-1.6,1.2-2.2,1.9c-1.1,1.3-2,2.7-3.4,3.6c-1.3,1-3.1,1.5-4.7,1
			c-2.9-1.1-3.6-5.4-6.6-6.1c-1.4-0.3-2.9,0.3-3.9,1.4c-1,1-1.6,2.4-2.1,3.7c-0.2,0.5-0.4,1.1-0.8,1.5c-0.8,0.8-2.1,0.8-3.1,0.3
			c-1-0.5-1.7-1.5-2.3-2.4c-1.2-2-2.2-4.1-3.4-6.1c-0.2-0.4-0.5-0.8-0.8-1.1v26.3h66.6V78.1c-1.5-0.3-3-0.8-4.3-1.7
			C91.4,75.3,90.1,73.8,88.6,72.7z"/>
		<polygon fill="#E3E6E8" points="103.7,96.4 24.3,96.4 28.7,103.7 99.3,103.7 		"/>
		<rect x="30.7" y="85.1" fill="#FFC717" width="66.6" height="4"/>
		<path fill="#753A29" d="M30.7,63.3v6.8c0.3,0.4,0.5,0.7,0.8,1.1c1.3,2,2.2,4.1,3.4,6.1c0.6,1,1.3,1.9,2.3,2.4
			c1,0.5,2.4,0.5,3.1-0.3c0.4-0.4,0.6-1,0.8-1.5c0.5-1.3,1.1-2.7,2.1-3.7c1-1,2.5-1.7,3.9-1.4c3,0.7,3.8,5,6.6,6.1
			c1.6,0.6,3.3,0,4.7-1c1.3-1,2.3-2.4,3.4-3.6c0.6-0.8,1.3-1.5,2.2-1.9c1.1-0.5,2.4-0.5,3.6-0.2c2,0.4,3.9,1.3,5.5,2.5
			c0.8,0.6,1.6,1.4,2.7,1.6c1.5,0.3,2.9-0.8,3.9-1.9c1-1.1,2-2.4,3.4-3c1.8-0.7,3.8,0,5.4,1.2c1.6,1.1,2.8,2.6,4.4,3.7
			c1.3,0.9,2.8,1.4,4.3,1.7V63.3H30.7z"/>
		<path fill="#FFC717" d="M69.5,36.9c0,3-2.4,5.5-5.5,5.5c-3,0-5.5-2.4-5.5-5.5S64,27.4,64,24.4C64,23.5,69.5,33.9,69.5,36.9z"/>
		<rect x="60.2" y="44.8" fill="#E3E6E8" width="7.6" height="18.6"/>
		<rect x="62.5" y="42.4" fill="#5D5E61" width="3" height="2.4"/>
	</g>
</g>
</svg>
