<?xml version="1.0" encoding="utf-8"?>
<!-- Generator: Adobe Illustrator 18.1.1, SVG Export Plug-In . SVG Version: 6.00 Build 0)  -->
<svg version="1.1" id="Layer_1" xmlns="http://www.w3.org/2000/svg" xmlns:xlink="http://www.w3.org/1999/xlink" x="0px" y="0px"
	 viewBox="0 0 128 128" enable-background="new 0 0 128 128" xml:space="preserve">
<g>
	<circle fill="#41B655" cx="64" cy="64" r="63.5"/>
	<g>
		<polygon fill="#E3E6E8" points="82.8,103.7 45.2,103.7 38.7,34.8 89.3,34.8 		"/>
		<polygon fill="#C0C5C8" points="89.3,24.3 38.7,24.3 34.3,34.8 93.7,34.8 		"/>
		<path fill="#D62E2F" d="M71.9,53.3c-2.2-0.2-4.4,0.8-6.3,2.5c-0.9,0.8-2.2,0.8-3.1,0c-1.9-1.8-4.1-2.7-6.3-2.5
			c-5.2,0.4-8.5,7-7.4,14.7s6.3,13.6,11.6,13.1c1-0.1,1.9-0.4,2.7-0.9c0.6-0.3,1.3-0.3,1.9,0c0.8,0.5,1.8,0.8,2.7,0.9
			c5.2,0.4,10.4-5.4,11.6-13.1C80.4,60.4,77.1,53.8,71.9,53.3z"/>
		<path fill="#915037" d="M65.5,55.8C65.5,55.8,65.5,55.8,65.5,55.8c0-1.6,0.5-6.3,5.1-7.6c0.8-0.2,1.3-1,1-1.8
			c-0.2-0.8-1-1.3-1.8-1c-5.8,1.6-7.3,7.3-7.3,10.5C63.4,56.6,64.7,56.6,65.5,55.8z"/>
		<path fill="#22A79C" d="M64,52.6L64,52.6L64,52.6c-6.1-1.9-11.3,1.8-11.5,8.2C58.6,62.7,63.8,59,64,52.6z"/>
	</g>
</g>
</svg>
