<?xml version="1.0" encoding="utf-8"?>
<!-- Generator: Adobe Illustrator 18.1.1, SVG Export Plug-In . SVG Version: 6.00 Build 0)  -->
<svg version="1.1" id="Layer_1" xmlns="http://www.w3.org/2000/svg" xmlns:xlink="http://www.w3.org/1999/xlink" x="0px" y="0px"
	 viewBox="0 0 128 128" enable-background="new 0 0 128 128" xml:space="preserve">
<g>
	<circle fill="#FFC717" cx="64" cy="64" r="63.5"/>
	<g>
		<polygon fill="#E3E6E8" points="81.5,103.7 46.5,103.7 40.4,34.8 87.6,34.8 		"/>
		<polygon fill="#E67375" points="87.7,24.3 40.3,24.3 36.3,34.8 91.7,34.8 		"/>
		<ellipse transform="matrix(0.861 -0.5086 0.5086 0.861 -26.3236 42.1763)" fill="#753A29" cx="64" cy="69.2" rx="12" ry="15.5"/>
		<path fill="#915037" d="M64,65c-2.3-2-4.4-4-5.7-6.5c-0.6-1.2-0.9-2.1-1.2-3.1c-0.3,0.1-0.7,0.3-1,0.5c-0.6,0.3-1.1,0.8-1.6,1.2
			c0.3,0.9,0.6,1.7,1.1,2.7c1.5,3.1,4,5.3,6.4,7.4c1.2,1.1,2.4,2.2,3.5,3.4c3.1,3.5,5,8.4,4.8,12.7c0.5-0.2,1.1-0.4,1.6-0.7
			c0.5-0.3,0.9-0.6,1.4-1c-0.3-4.6-2.3-9.4-5.6-13C66.5,67.3,65.2,66.2,64,65z"/>
	</g>
</g>
</svg>
