<?xml version="1.0" encoding="utf-8"?>
<!-- Generator: Adobe Illustrator 18.1.1, SVG Export Plug-In . SVG Version: 6.00 Build 0)  -->
<svg version="1.1" id="Layer_1" xmlns="http://www.w3.org/2000/svg" xmlns:xlink="http://www.w3.org/1999/xlink" x="0px" y="0px"
	 viewBox="0 0 128 128" enable-background="new 0 0 128 128" xml:space="preserve">
<g>
	<circle fill="#41B655" cx="64" cy="64" r="63.5"/>
	<g>
		<polygon fill="#D62E2F" points="89.7,99.8 85.3,91.2 80.9,99.8 79.2,99.8 74.8,91.2 70.5,99.8 68.7,99.8 64.4,91.2 60,99.8 
			58.3,99.8 53.9,91.2 49.5,99.8 47.8,99.8 43.4,91.2 39,99.8 29.9,99.8 29.9,103.7 98.1,103.7 98.1,99.8 		"/>
		<path fill="#FCD83A" d="M88.4,86.6H39.6c-1.7,0-3-1.4-3-3V44.7h54.8v38.8C91.4,85.2,90,86.6,88.4,86.6z"/>
		<path fill="#753A29" d="M101.2,48.4h-4.5c-0.7,0-1.3,0.3-1.8,0.7l-3.5,3.4v6.1c0.6,0,1.3-0.2,1.8-0.7l4.6-4.4h3.4
			c1.4,0,2.5-1.1,2.5-2.5C103.7,49.5,102.6,48.4,101.2,48.4z"/>
		<path fill="#753A29" d="M36.6,52.6l-3.5-3.4c-0.5-0.5-1.1-0.7-1.8-0.7h-4.5c-1.4,0-2.5,1.1-2.5,2.5s1.1,2.5,2.5,2.5h3.4l4.6,4.4
			c0.5,0.5,1.1,0.7,1.8,0.7l0,0V52.6z"/>
		<path fill="#E3E6E8" d="M46.9,39.7c-0.8,0-1.5-0.7-1.5-1.5V25.8c0-0.8,0.7-1.5,1.5-1.5s1.5,0.7,1.5,1.5v12.4
			C48.4,39.1,47.7,39.7,46.9,39.7z"/>
		<path fill="#E3E6E8" d="M58.3,39.7c-0.8,0-1.5-0.7-1.5-1.5V25.8c0-0.8,0.7-1.5,1.5-1.5s1.5,0.7,1.5,1.5v12.4
			C59.8,39.1,59.1,39.7,58.3,39.7z"/>
		<path fill="#E3E6E8" d="M69.7,39.7c-0.8,0-1.5-0.7-1.5-1.5V25.8c0-0.8,0.7-1.5,1.5-1.5s1.5,0.7,1.5,1.5v12.4
			C71.2,39.1,70.5,39.7,69.7,39.7z"/>
		<path fill="#E3E6E8" d="M81.1,39.7c-0.8,0-1.5-0.7-1.5-1.5V25.8c0-0.8,0.7-1.5,1.5-1.5s1.5,0.7,1.5,1.5v12.4
			C82.6,39.1,81.9,39.7,81.1,39.7z"/>
	</g>
</g>
</svg>
