<?xml version="1.0" encoding="utf-8"?>
<!-- Generator: Adobe Illustrator 18.1.1, SVG Export Plug-In . SVG Version: 6.00 Build 0)  -->
<svg version="1.1" id="Layer_1" xmlns="http://www.w3.org/2000/svg" xmlns:xlink="http://www.w3.org/1999/xlink" x="0px" y="0px"
	 viewBox="0 0 128 128" enable-background="new 0 0 128 128" xml:space="preserve">
<g>
	<circle fill="#41B655" cx="64" cy="64" r="63.5"/>
	<g>
		<path fill="#D62E2F" d="M92.5,61.9c0,11.8-12.8,41.6-28.5,41.6S35.5,73.7,35.5,61.9S48.3,40.6,64,40.6S92.5,50.2,92.5,61.9z"/>
		<path fill="#E3E6E8" d="M54.9,41.7c2.9-0.7,5.9-1.1,9.1-1.1c0.7,0,1.5,0,2.2,0.1c1.2-11.1-7.6-18.2-20.4-16.2
			C44.2,32.8,48,39.3,54.9,41.7z"/>
		<path fill="#C3CCD0" d="M66.2,40.7c2.4,0.1,4.7,0.5,6.9,1c6.9-2.5,10.7-8.9,9.1-17.2c-8.3-1.3-14.9,1.2-18.2,6.2
			C65.8,33.4,66.6,36.8,66.2,40.7z"/>
		<path fill="#E3E6E8" d="M43.6,68c-0.7,0-1.4-0.5-1.5-1.3l-0.6-4.1c-0.1-0.8,0.4-1.6,1.2-1.7c0.8-0.1,1.6,0.4,1.7,1.3l0.6,4.1
			c0.1,0.8-0.4,1.6-1.2,1.7C43.7,68,43.7,68,43.6,68z"/>
		<path fill="#E3E6E8" d="M43.6,68c-0.7,0-1.4-0.5-1.5-1.3l-0.6-4.1c-0.1-0.8,0.4-1.6,1.2-1.7c0.8-0.1,1.6,0.4,1.7,1.3l0.6,4.1
			c0.1,0.8-0.4,1.6-1.2,1.7C43.7,68,43.7,68,43.6,68z"/>
		<path fill="#E3E6E8" d="M45,78.4c-0.7,0-1.4-0.5-1.5-1.3L43,73.5c-0.1-0.8,0.4-1.6,1.3-1.7c0.8-0.1,1.6,0.4,1.7,1.3l0.5,3.5
			c0.1,0.8-0.4,1.6-1.3,1.7C45.1,78.4,45.1,78.4,45,78.4z"/>
		<path fill="#E3E6E8" d="M50.8,57.1c-0.8,0-1.4-0.6-1.5-1.4l-0.4-4.8c-0.1-0.8,0.5-1.5,1.3-1.6c0.8-0.1,1.5,0.5,1.6,1.3l0.4,4.8
			c0.1,0.8-0.5,1.5-1.3,1.6C50.9,57.1,50.8,57.1,50.8,57.1z"/>
		<path fill="#E3E6E8" d="M51.8,68c-0.8,0-1.4-0.6-1.5-1.4l-0.4-4.1c-0.1-0.8,0.5-1.5,1.3-1.6c0.8-0.1,1.5,0.5,1.6,1.3l0.4,4.1
			c0.1,0.8-0.5,1.5-1.3,1.6C51.8,68,51.8,68,51.8,68z"/>
		<path fill="#E3E6E8" d="M51.8,68c-0.8,0-1.4-0.6-1.5-1.4l-0.4-4.1c-0.1-0.8,0.5-1.5,1.3-1.6c0.8-0.1,1.5,0.5,1.6,1.3l0.4,4.1
			c0.1,0.8-0.5,1.5-1.3,1.6C51.8,68,51.8,68,51.8,68z"/>
		<path fill="#E3E6E8" d="M52.6,78.4c-0.8,0-1.4-0.6-1.5-1.4l-0.3-3.5c-0.1-0.8,0.5-1.5,1.3-1.6c0.8-0.1,1.5,0.5,1.6,1.3l0.3,3.5
			c0.1,0.8-0.5,1.5-1.3,1.6C52.7,78.4,52.6,78.4,52.6,78.4z"/>
		<path fill="#E3E6E8" d="M53.3,88.5c-0.8,0-1.4-0.6-1.5-1.4l-0.3-3.1c-0.1-0.8,0.5-1.5,1.3-1.6c0.8-0.1,1.5,0.5,1.6,1.3l0.3,3.1
			c0.1,0.8-0.5,1.5-1.3,1.6C53.4,88.5,53.4,88.5,53.3,88.5z"/>
		<path fill="#E3E6E8" d="M59.6,57.1c-0.8,0-1.5-0.6-1.5-1.4L58,50.8c0-0.8,0.6-1.5,1.4-1.5c0.8,0,1.5,0.6,1.5,1.4l0.1,4.8
			C61.1,56.4,60.5,57.1,59.6,57.1C59.6,57.1,59.6,57.1,59.6,57.1z"/>
		<path fill="#E3E6E8" d="M59.9,68c-0.8,0-1.5-0.6-1.5-1.4l-0.1-4.1c0-0.8,0.6-1.5,1.4-1.5c0,0,0,0,0,0c0.8,0,1.5,0.6,1.5,1.4
			l0.1,4.1C61.4,67.3,60.8,68,59.9,68C59.9,68,59.9,68,59.9,68z"/>
		<path fill="#E3E6E8" d="M59.9,68c-0.8,0-1.5-0.6-1.5-1.4l-0.1-4.1c0-0.8,0.6-1.5,1.4-1.5c0,0,0,0,0,0c0.8,0,1.5,0.6,1.5,1.4
			l0.1,4.1C61.4,67.3,60.8,68,59.9,68C59.9,68,59.9,68,59.9,68z"/>
		<path fill="#E3E6E8" d="M60.2,78.4c-0.8,0-1.5-0.6-1.5-1.4l-0.1-3.5c0-0.8,0.6-1.5,1.4-1.5c0.8,0,1.5,0.6,1.5,1.4l0.1,3.5
			C61.7,77.7,61.1,78.3,60.2,78.4C60.2,78.4,60.2,78.4,60.2,78.4z"/>
		<path fill="#E3E6E8" d="M60.4,88.5c-0.8,0-1.5-0.6-1.5-1.4L58.9,84c0-0.8,0.6-1.5,1.4-1.5c0.8,0,1.5,0.6,1.5,1.4l0.1,3.1
			C62,87.8,61.3,88.5,60.4,88.5C60.5,88.5,60.5,88.5,60.4,88.5z"/>
		<path fill="#E3E6E8" d="M68.4,57.1C68.4,57.1,68.4,57.1,68.4,57.1c-0.9,0-1.5-0.7-1.5-1.5l0.1-4.8c0-0.8,0.7-1.4,1.5-1.4
			c0,0,0,0,0,0c0.8,0,1.5,0.7,1.4,1.5l-0.1,4.8C69.9,56.4,69.2,57.1,68.4,57.1z"/>
		<path fill="#E3E6E8" d="M68.1,68C68.1,68,68.1,68,68.1,68c-0.9,0-1.5-0.7-1.5-1.5l0.1-4.1c0-0.8,0.7-1.5,1.5-1.4
			c0.8,0,1.5,0.7,1.4,1.5l-0.1,4.1C69.5,67.3,68.9,68,68.1,68z"/>
		<path fill="#E3E6E8" d="M68.1,68C68.1,68,68.1,68,68.1,68c-0.9,0-1.5-0.7-1.5-1.5l0.1-4.1c0-0.8,0.7-1.5,1.5-1.4
			c0.8,0,1.5,0.7,1.4,1.5l-0.1,4.1C69.5,67.3,68.9,68,68.1,68z"/>
		<path fill="#E3E6E8" d="M67.8,78.4C67.8,78.4,67.8,78.4,67.8,78.4c-0.9,0-1.5-0.7-1.5-1.5l0.1-3.5c0-0.8,0.7-1.5,1.5-1.4
			c0.8,0,1.5,0.7,1.4,1.5l-0.1,3.5C69.3,77.7,68.6,78.4,67.8,78.4z"/>
		<path fill="#E3E6E8" d="M67.6,88.5C67.5,88.5,67.5,88.5,67.6,88.5c-0.9,0-1.5-0.7-1.5-1.5l0.1-3.1c0-0.8,0.7-1.5,1.5-1.4
			c0.8,0,1.5,0.7,1.4,1.5L69,87.1C69,87.9,68.4,88.5,67.6,88.5z"/>
		<path fill="#E3E6E8" d="M60.7,98.4c-0.8,0-1.5-0.6-1.5-1.4l-0.1-2.7c0-0.8,0.6-1.5,1.4-1.5c0.8,0,1.5,0.6,1.5,1.4l0.1,2.7
			C62.2,97.7,61.5,98.4,60.7,98.4C60.7,98.4,60.7,98.4,60.7,98.4z"/>
		<path fill="#E3E6E8" d="M67.3,98.4C67.3,98.4,67.3,98.4,67.3,98.4c-0.9,0-1.5-0.7-1.5-1.5l0.1-2.7c0-0.8,0.7-1.4,1.5-1.4
			c0,0,0,0,0,0c0.8,0,1.5,0.7,1.4,1.5l-0.1,2.7C68.8,97.7,68.1,98.4,67.3,98.4z"/>
		<path fill="#E3E6E8" d="M77.2,57.1c0,0-0.1,0-0.1,0c-0.8-0.1-1.4-0.8-1.3-1.6l0.4-4.8c0.1-0.8,0.8-1.4,1.6-1.3
			c0.8,0.1,1.4,0.8,1.3,1.6l-0.4,4.8C78.6,56.5,78,57.1,77.2,57.1z"/>
		<path fill="#E3E6E8" d="M76.2,68c0,0-0.1,0-0.1,0c-0.8-0.1-1.4-0.8-1.3-1.6l0.4-4.1c0.1-0.8,0.8-1.4,1.6-1.3
			c0.8,0.1,1.4,0.8,1.3,1.6l-0.4,4.1C77.7,67.4,77,68,76.2,68z"/>
		<path fill="#E3E6E8" d="M76.2,68c0,0-0.1,0-0.1,0c-0.8-0.1-1.4-0.8-1.3-1.6l0.4-4.1c0.1-0.8,0.8-1.4,1.6-1.3
			c0.8,0.1,1.4,0.8,1.3,1.6l-0.4,4.1C77.7,67.4,77,68,76.2,68z"/>
		<path fill="#E3E6E8" d="M75.4,78.4c0,0-0.1,0-0.1,0c-0.8-0.1-1.4-0.8-1.3-1.6l0.3-3.5c0.1-0.8,0.8-1.4,1.6-1.3
			c0.8,0.1,1.4,0.8,1.3,1.6L76.9,77C76.8,77.8,76.2,78.4,75.4,78.4z"/>
		<path fill="#E3E6E8" d="M74.7,88.5c0,0-0.1,0-0.1,0c-0.8-0.1-1.4-0.8-1.3-1.6l0.3-3.1c0.1-0.8,0.8-1.4,1.6-1.3
			c0.8,0.1,1.4,0.8,1.3,1.6l-0.3,3.1C76.1,87.9,75.4,88.5,74.7,88.5z"/>
		<path fill="#E3E6E8" d="M84.4,68c-0.1,0-0.1,0-0.2,0c-0.8-0.1-1.4-0.9-1.2-1.7l0.6-4.1c0.1-0.8,0.9-1.4,1.7-1.3
			c0.8,0.1,1.4,0.9,1.2,1.7l-0.6,4.1C85.8,67.5,85.1,68,84.4,68z"/>
		<path fill="#E3E6E8" d="M84.4,68c-0.1,0-0.1,0-0.2,0c-0.8-0.1-1.4-0.9-1.2-1.7l0.6-4.1c0.1-0.8,0.9-1.4,1.7-1.3
			c0.8,0.1,1.4,0.9,1.2,1.7l-0.6,4.1C85.8,67.5,85.1,68,84.4,68z"/>
		<path fill="#E3E6E8" d="M83,78.4c-0.1,0-0.1,0-0.2,0c-0.8-0.1-1.4-0.9-1.3-1.7l0.5-3.5c0.1-0.8,0.9-1.4,1.7-1.3
			c0.8,0.1,1.4,0.9,1.3,1.7l-0.5,3.5C84.4,77.8,83.7,78.4,83,78.4z"/>
		<path fill="#168B7D" d="M66.2,40.7c0,0,0.1,0,0.1,0l5.2-4.7c0.6-0.5,0.7-1.5,0.1-2.1c-0.5-0.6-1.5-0.7-2.1-0.1l-3.4,3
			C66.3,38,66.3,39.3,66.2,40.7z"/>
		<path fill="#168B7D" d="M61.7,40.7c0.8,0,1.5-0.1,2.3-0.1c0.7,0,1.4,0,2.1,0.1l-7.7-6.9c-0.6-0.5-1.6-0.5-2.1,0.1
			c-0.5,0.6-0.5,1.6,0.1,2.1L61.7,40.7z"/>
	</g>
</g>
</svg>
