<?xml version="1.0" encoding="utf-8"?>
<!-- Generator: Adobe Illustrator 18.1.1, SVG Export Plug-In . SVG Version: 6.00 Build 0)  -->
<svg version="1.1" id="Layer_1" xmlns="http://www.w3.org/2000/svg" xmlns:xlink="http://www.w3.org/1999/xlink" x="0px" y="0px"
	 viewBox="0 0 128 128" enable-background="new 0 0 128 128" xml:space="preserve">
<g>
	<circle fill="#EF4538" cx="64" cy="64" r="63.5"/>
	<g>
		<path fill="#FBD839" d="M103.7,59.3C102,41.3,84.9,27.2,64,27.2S26,41.3,24.3,59.3H103.7z"/>
		<path fill="#FBD839" d="M100.7,100.5H27.3c-1.7,0-3-1.4-3-3V86.8h79.4v10.7C103.7,99.2,102.3,100.5,100.7,100.5z"/>
		<path fill="#22A79C" d="M97.2,72.3H30.8c-3.6,0-6.5-2.9-6.5-6.5v0c0-3.6,2.9-6.5,6.5-6.5h66.4c3.6,0,6.5,2.9,6.5,6.5v0
			C103.7,69.4,100.8,72.3,97.2,72.3z"/>
		<path fill="#E3E6E8" d="M96.4,86.8H31.6c-4,0-7.3-3.3-7.3-7.3v0c0-4,3.3-7.3,7.3-7.3h64.8c4,0,7.3,3.3,7.3,7.3v0
			C103.7,83.6,100.4,86.8,96.4,86.8z"/>
		<polygon fill="#753A29" points="58.8,72.3 66.7,91.6 94.4,72.3 		"/>
	</g>
</g>
</svg>
