<?xml version="1.0" encoding="utf-8"?>
<!-- Generator: Adobe Illustrator 18.1.1, SVG Export Plug-In . SVG Version: 6.00 Build 0)  -->
<svg version="1.1" id="Layer_1" xmlns="http://www.w3.org/2000/svg" xmlns:xlink="http://www.w3.org/1999/xlink" x="0px" y="0px"
	 viewBox="0 0 128 128" enable-background="new 0 0 128 128" xml:space="preserve">
<g>
	<circle fill="#388CCB" cx="64" cy="64" r="63.5"/>
	<g>
		<path fill="#FCD83A" d="M50.7,88.2l37.5-37.5c3.5,3.5,9.3,3.5,12.8,0c3.5-3.5,3.5-9.3,0-12.8c-2.3-2.3-5.6-3.1-8.5-2.4
			c0.7-3-0.1-6.2-2.4-8.5c-3.5-3.5-9.3-3.5-12.8,0c-3.5,3.5-3.5,9.3,0,12.8L39.8,77.3c-3.5-3.5-9.3-3.5-12.8,0
			c-3.5,3.5-3.5,9.3,0,12.8c2.3,2.3,5.6,3.1,8.5,2.4c-0.7,3,0.1,6.2,2.4,8.5c3.5,3.5,9.3,3.5,12.8,0C54.2,97.5,54.2,91.8,50.7,88.2z
			"/>
	</g>
</g>
</svg>
