<?xml version="1.0" encoding="utf-8"?>
<!-- Generator: Adobe Illustrator 18.1.1, SVG Export Plug-In . SVG Version: 6.00 Build 0)  -->
<svg version="1.1" id="Layer_1" xmlns="http://www.w3.org/2000/svg" xmlns:xlink="http://www.w3.org/1999/xlink" x="0px" y="0px"
	 viewBox="0 0 128 128" enable-background="new 0 0 128 128" xml:space="preserve">
<g>
	<circle fill="#EF4538" cx="64" cy="64" r="63.5"/>
	<g>
		<polygon fill="#FACDD4" points="64.1,58.5 69.9,63.7 75.7,58.5 81.5,63.7 83.8,61.6 83.8,35 62.8,35 62.8,59.7 		"/>
		<path fill="#FAD839" d="M81.5,63.7l-5.8-5.2l-5.8,5.2l-5.8-5.2l-5.8,5.2l-5.8-5.2l-5.8,5.2l-5.3-4.7v38.7c0,3.3,2.7,6,6,6h33.3
			c3.3,0,6-2.7,6-6V59.1L81.5,63.7z"/>
		<path fill="#915037" d="M64.1,58.5l5.8,5.2l5.8-5.2l5.8,5.2l2.4-2.1v-5.4c0-5.8-4.7-10.5-10.5-10.5l0,0c-5.8,0-10.5,4.7-10.5,10.5
			v3.5L64.1,58.5z"/>
		<path fill="#22A79C" d="M46.7,63.7l5.8-5.2l5.8,5.2l4.5-4V33.6c0-5.1-4.2-9.3-9.3-9.3l0,0c-5.1,0-9.3,4.2-9.3,9.3v27.8L46.7,63.7z
			"/>
		<path fill="#168B7D" d="M54.3,35.4c-0.7,0.4-1,1.3-0.7,2c0.3,0.5,0.8,0.8,1.3,0.8c0.2,0,0.4,0,0.7-0.2l7.2-3.5v-1
			c0-0.7-0.1-1.5-0.3-2.1c-0.1,0-0.3,0.1-0.4,0.1L54.3,35.4z"/>
		<path fill="#168B7D" d="M62.1,41.5l-7.8,3.8c-0.7,0.4-1,1.3-0.7,2c0.3,0.5,0.8,0.8,1.3,0.8c0.2,0,0.4,0,0.7-0.2l7.2-3.5v-3.1
			C62.5,41.3,62.3,41.3,62.1,41.5z"/>
		<path fill="#168B7D" d="M62.1,51.3l-7.8,3.8c-0.7,0.4-1,1.3-0.7,2c0.3,0.5,0.8,0.8,1.3,0.8c0.2,0,0.4,0,0.7-0.2l7.2-3.5v-3.1
			C62.5,51.2,62.3,51.2,62.1,51.3z"/>
	</g>
</g>
</svg>
