<?xml version="1.0" encoding="utf-8"?>
<!-- Generator: Adobe Illustrator 18.1.1, SVG Export Plug-In . SVG Version: 6.00 Build 0)  -->
<svg version="1.1" id="Layer_1" xmlns="http://www.w3.org/2000/svg" xmlns:xlink="http://www.w3.org/1999/xlink" x="0px" y="0px"
	 viewBox="0 0 128 128" enable-background="new 0 0 128 128" xml:space="preserve">
<g>
	<circle fill="#41B655" cx="64" cy="64" r="63.5"/>
	<g>
		<path fill="#915037" d="M100.9,40.6l-60.3,60.3c-3.7,3.7-9.8,3.7-13.5,0l0,0c-3.7-3.7-3.7-9.8,0-13.5l60.3-60.3
			c3.7-3.7,9.8-3.7,13.5,0l0,0C104.6,30.8,104.6,36.9,100.9,40.6z"/>
		<path fill="#FFC717" d="M86.5,28c-7.8-2.8-16.9-1-23.1,5.2L33.2,63.4c-6.3,6.3-8,15.3-5.2,23.1L86.5,28z"/>
		<path fill="#FFC717" d="M41.5,100c7.8,2.8,16.9,1,23.1-5.2l30.1-30.1c6.3-6.3,8-15.3,5.2-23.1L41.5,100z"/>
		<path fill="#E3E6E8" d="M34.8,98.8c-0.7,0-1.3-0.3-1.8-0.8c-0.9-1-0.8-2.6,0.2-3.5c1.9-1.7,2.9-4.2,4-6.9c0.5-1.2,1.1-2.5,1.7-3.8
			c0.9-1.7,2.4-4.2,5-5.4c0.8-0.4,1.5-0.6,2.2-0.7c0.3-0.1,0.7-0.2,1-0.3c2.8-1,4.8-4.1,6.2-6.7c0.2-0.4,0.4-0.8,0.6-1.2
			c1.7-3.1,3.4-6.4,6.5-8.7c1.7-1.3,3.5-2,5.3-2.8c1-0.4,2-0.8,2.9-1.3c2.9-1.6,5.2-4.1,6.5-7.1c0.2-0.5,0.4-0.9,0.6-1.4
			c0.9-2.3,2-5.2,4.8-6.6c0.7-0.4,1.5-0.6,2.1-0.8c0.2-0.1,0.4-0.1,0.6-0.2c3.8-1.2,6.6-5,9.3-9.1c0.7-1.1,2.3-1.5,3.4-0.7
			c1.1,0.7,1.5,2.3,0.7,3.4c-3.2,4.9-6.5,9.5-11.9,11.1c-0.2,0.1-0.5,0.1-0.8,0.2c-0.5,0.1-0.9,0.2-1.2,0.4c-1.1,0.6-1.8,2.2-2.4,4
			c-0.2,0.5-0.4,1.1-0.6,1.6c-1.8,4-4.9,7.4-8.7,9.5c-1.1,0.6-2.3,1.1-3.4,1.5c-1.6,0.6-3.1,1.3-4.3,2.2c-2.2,1.6-3.6,4.2-5.1,7
			c-0.2,0.4-0.4,0.8-0.7,1.2c-1.8,3.4-4.5,7.5-8.9,9c-0.4,0.2-0.9,0.3-1.3,0.4c-0.5,0.1-1,0.3-1.4,0.4c-0.9,0.4-1.8,1.5-2.7,3.2
			c-0.5,1.1-1,2.2-1.5,3.4c-1.3,3.1-2.6,6.3-5.3,8.7C36,98.6,35.4,98.8,34.8,98.8z"/>
	</g>
</g>
</svg>
