<?xml version="1.0" encoding="utf-8"?>
<!-- Generator: Adobe Illustrator 18.1.1, SVG Export Plug-In . SVG Version: 6.00 Build 0)  -->
<svg version="1.1" id="Layer_1" xmlns="http://www.w3.org/2000/svg" xmlns:xlink="http://www.w3.org/1999/xlink" x="0px" y="0px"
	 viewBox="0 0 128 128" enable-background="new 0 0 128 128" xml:space="preserve">
<g>
	<circle fill="#41B655" cx="64" cy="64" r="63.5"/>
	<g>
		<path fill="#FFC717" d="M37.8,39.1L34.6,36c-6.4,6.4-10.3,15.2-10.3,24.9h4.5C28.8,52.4,32.2,44.7,37.8,39.1z"/>
		<path fill="#FAF4A6" d="M58.3,60.9h1.3L48.6,50c-0.3,2.1-2.2,3.8-4.4,3.8c-2.5,0-4.5-2-4.5-4.5c0-2.2,1.6-4.1,3.8-4.4l-5.8-5.8
			c-5.6,5.6-9,13.3-9,21.8h10.6H58.3z"/>
		<path fill="#D62E2F" d="M39.8,49.3c0,2.5,2,4.5,4.5,4.5c2.2,0,4.1-1.6,4.4-3.8l-5.1-5.1C41.4,45.2,39.8,47.1,39.8,49.3z"/>
		<path fill="#FFC717" d="M41.3,86.2l-3.2,3.2c6.4,6.4,15.2,10.3,24.9,10.3v-4.5C54.6,95.2,46.9,91.8,41.3,86.2z"/>
		<path fill="#FAF4A6" d="M63.1,71.8c-0.4,0.1-0.8,0.2-1.3,0.2c-1.7,0-3.1-1.1-3.6-2.7L49.6,78c0.6-0.2,1.2-0.4,1.8-0.4
			c2.6,0,4.8,2.1,4.8,4.8c0,2.6-2.1,4.8-4.8,4.8c-2.6,0-4.8-2.1-4.8-4.8c0-0.6,0.1-1.3,0.4-1.8l-5.6,5.6c5.6,5.6,13.3,9,21.8,9v-6.6
			V71.8z"/>
		<path fill="#D62E2F" d="M46.6,82.4c0,2.6,2.1,4.8,4.8,4.8c2.6,0,4.8-2.1,4.8-4.8c0-2.6-2.1-4.8-4.8-4.8c-0.6,0-1.3,0.1-1.8,0.4
			L47,80.6C46.8,81.1,46.6,81.7,46.6,82.4z"/>
		<path fill="#D62E2F" d="M62.9,64.6l-4.7,4.7c0.5,1.6,1.9,2.7,3.6,2.7c0.5,0,0.9-0.1,1.3-0.2v-7.1C63.1,64.7,63,64.6,62.9,64.6z"/>
		<path fill="#FFC717" d="M99.2,60.9h4.5c0-9.7-3.9-18.6-10.3-24.9l-3.2,3.2C95.8,44.7,99.2,52.4,99.2,60.9z"/>
		<path fill="#FAF4A6" d="M85,44.3c0.1,0.3,0.1,0.7,0.1,1c0,2.6-2.1,4.6-4.6,4.6c-0.3,0-0.7,0-1-0.1L68.4,60.9h7.5
			c0-0.1-0.1-0.2-0.1-0.3c0-0.4,0.3-0.7,0.7-0.7s0.7,0.3,0.7,0.7c0,0.1,0,0.2-0.1,0.3h9.9c0.2-0.6,0.7-1.1,1.4-1.1
			c0.7,0,1.2,0.4,1.4,1.1h9.2c0-8.5-3.4-16.2-9-21.8L85,44.3z M92.7,49.3c0.7,0,1.3,0.6,1.3,1.3s-0.6,1.3-1.3,1.3
			c-0.7,0-1.3-0.6-1.3-1.3S92,49.3,92.7,49.3z"/>
		<path fill="#D62E2F" d="M80.5,49.9c2.6,0,4.6-2.1,4.6-4.6c0-0.3,0-0.7-0.1-1l-5.5,5.5C79.8,49.9,80.2,49.9,80.5,49.9z"/>
		<path fill="#5D5E61" d="M88.6,59.9c-0.7,0-1.2,0.4-1.4,1.1H90C89.8,60.3,89.3,59.9,88.6,59.9z"/>
		<circle fill="#5D5E61" cx="92.7" cy="50.6" r="1.3"/>
		<path fill="#5D5E61" d="M77.4,60.6c0-0.4-0.3-0.7-0.7-0.7s-0.7,0.3-0.7,0.7c0,0.1,0,0.2,0.1,0.3h1.3
			C77.3,60.8,77.4,60.7,77.4,60.6z"/>
		<path fill="#FFC717" d="M100.2,63.6h-4.5c0,8.5-3.4,16.2-9,21.8l3.2,3.2C96.2,82.1,100.2,73.3,100.2,63.6z"/>
		<path fill="#FAF4A6" d="M86.6,64c0,0.8-0.7,1.5-1.5,1.5c-0.8,0-1.5-0.7-1.5-1.5c0-0.2,0-0.3,0.1-0.4h-9.9
			c-0.1,0.3-0.4,0.4-0.7,0.4s-0.6-0.2-0.7-0.4h-7.5l0.4,0.4c0.7,0.4,1.3,0.9,1.6,1.6l19.7,19.7c5.6-5.6,9-13.3,9-21.8h-9.2
			C86.5,63.7,86.6,63.8,86.6,64z M87.9,72.6c0,1.7-1.4,3.1-3.1,3.1c-1.7,0-3.1-1.4-3.1-3.1c0-1.7,1.4-3.1,3.1-3.1
			C86.5,69.4,87.9,70.9,87.9,72.6z"/>
		<circle fill="#D62E2F" cx="84.7" cy="72.6" r="3.1"/>
		<path fill="#5D5E61" d="M85.1,65.5c0.8,0,1.5-0.7,1.5-1.5c0-0.2,0-0.3-0.1-0.4h-2.8c0,0.1-0.1,0.3-0.1,0.4
			C83.6,64.8,84.2,65.5,85.1,65.5z"/>
		<path fill="#5D5E61" d="M73.1,64c0.3,0,0.6-0.2,0.7-0.4h-1.3C72.5,63.8,72.8,64,73.1,64z"/>
		<path fill="#FFC717" d="M65.8,98.8v4.5c9.7,0,18.6-3.9,24.9-10.3l-3.2-3.2C82,95.3,74.3,98.8,65.8,98.8z"/>
		<path fill="#FAF4A6" d="M68.3,71.8c0,1.6-1,3-2.5,3.6v16.9c0-0.5,0.4-0.8,0.8-0.8c0.5,0,0.8,0.4,0.8,0.8c0,0.5-0.4,0.8-0.8,0.8
			c-0.5,0-0.8-0.4-0.8-0.8v6.6c8.5,0,16.2-3.4,21.8-9L67.8,70C68.1,70.6,68.3,71.1,68.3,71.8z M73.4,77.8c0.7,0,1.3,0.6,1.3,1.3
			c0,0.7-0.6,1.3-1.3,1.3c-0.7,0-1.3-0.6-1.3-1.3C72.1,78.4,72.7,77.8,73.4,77.8z M73.8,85.9c1,0,1.7,0.8,1.7,1.7
			c0,1-0.8,1.7-1.7,1.7s-1.7-0.8-1.7-1.7C72.1,86.7,72.9,85.9,73.8,85.9z"/>
		<path fill="#D62E2F" d="M65.8,75.3c1.5-0.5,2.5-1.9,2.5-3.6c0-0.6-0.2-1.2-0.4-1.7l-1.6-1.6c-0.1-0.1-0.3-0.1-0.4-0.2V75.3z"/>
		<circle fill="#5D5E61" cx="73.8" cy="87.7" r="1.7"/>
		<circle fill="#5D5E61" cx="66.6" cy="92.2" r="0.8"/>
		<circle fill="#5D5E61" cx="73.4" cy="79.1" r="1.3"/>
		<path fill="#FFC717" d="M28.8,63.6h-4.5c0,9.7,3.9,18.6,10.3,24.9l3.2-3.2C32.2,79.8,28.8,72.1,28.8,63.6z"/>
		<path fill="#FAF4A6" d="M46.1,77.1l8.6-8.6c-0.1-0.4-0.2-0.7-0.2-1.1c0-2.1,1.7-3.8,3.8-3.8H39.4c1,0,1.9,0.9,1.9,1.9
			s-0.9,1.9-1.9,1.9s-1.9-0.9-1.9-1.9s0.9-1.9,1.9-1.9H28.8c0,8.5,3.4,16.2,9,21.8l5.6-5.6C43.9,78.5,44.9,77.6,46.1,77.1z
			 M39.9,79.5c-0.8,0-1.4-0.6-1.4-1.4c0-0.8,0.6-1.4,1.4-1.4s1.4,0.6,1.4,1.4C41.3,78.9,40.7,79.5,39.9,79.5z M44.9,68
			c1,0,1.8,0.8,1.8,1.8c0,1-0.8,1.8-1.8,1.8c-1,0-1.8-0.8-1.8-1.8C43.1,68.8,43.9,68,44.9,68z"/>
		<path fill="#D62E2F" d="M58.3,63.6c-2.1,0-3.8,1.7-3.8,3.8c0,0.4,0.1,0.8,0.2,1.1l4.7-4.7C59.1,63.6,58.7,63.6,58.3,63.6z"/>
		<circle fill="#5D5E61" cx="39.4" cy="65.5" r="1.9"/>
		<circle fill="#5D5E61" cx="39.9" cy="78.1" r="1.4"/>
		<circle fill="#5D5E61" cx="44.9" cy="69.8" r="1.8"/>
		<path fill="#FFC717" d="M63.1,30.1v-4.5c-9.7,0-18.6,3.9-24.9,10.3l3.2,3.2C46.9,33.6,54.6,30.1,63.1,30.1z"/>
		<path fill="#FAF4A6" d="M47.8,44.8c2.5,0,4.5,2,4.5,4.5c0,0.2,0,0.5-0.1,0.7l10.9,10.9V30.1c-8.5,0-16.2,3.4-21.8,9l5.8,5.8
			C47.3,44.9,47.5,44.8,47.8,44.8z M59.9,38.5c1,0,1.9,0.9,1.9,1.9s-0.9,1.9-1.9,1.9S58,41.5,58,40.4S58.9,38.5,59.9,38.5z
			 M58.5,49.3c0.7,0,1.3,0.6,1.3,1.3s-0.6,1.3-1.3,1.3c-0.7,0-1.3-0.6-1.3-1.3S57.8,49.3,58.5,49.3z M50,37.4c0.3,0,0.6,0.3,0.6,0.6
			c0,0.3-0.3,0.6-0.6,0.6c-0.3,0-0.6-0.3-0.6-0.6C49.4,37.7,49.7,37.4,50,37.4z"/>
		<path fill="#D62E2F" d="M47.8,44.8c-0.2,0-0.5,0-0.7,0.1l5.1,5.1c0-0.2,0.1-0.4,0.1-0.7C52.2,46.8,50.2,44.8,47.8,44.8z"/>
		<circle fill="#5D5E61" cx="59.9" cy="40.4" r="1.9"/>
		<circle fill="#5D5E61" cx="58.5" cy="50.6" r="1.3"/>
		<circle fill="#5D5E61" cx="50" cy="38" r="0.6"/>
		<path fill="#FFC717" d="M87.5,38.2l3.2-3.2c-6.4-6.4-15.2-10.3-24.9-10.3v4.5C74.3,29.2,82,32.7,87.5,38.2z"/>
		<path fill="#FAF4A6" d="M76.8,48.9c-2.1-0.5-3.6-2.3-3.6-4.5c0-2.6,2.1-4.6,4.6-4.6c2.2,0,4,1.5,4.5,3.6l5.2-5.2
			c-5.6-5.6-13.3-9-21.8-9V60L76.8,48.9z M71.6,35c0.9,0,1.7,0.7,1.7,1.7c0,0.9-0.7,1.7-1.7,1.7s-1.7-0.7-1.7-1.7
			C69.9,35.8,70.7,35,71.6,35z"/>
		<path fill="#D62E2F" d="M77.9,39.8c-2.6,0-4.6,2.1-4.6,4.6c0,2.2,1.5,4,3.6,4.5l5.5-5.5C81.9,41.4,80.1,39.8,77.9,39.8z"/>
		<circle fill="#5D5E61" cx="71.6" cy="36.7" r="1.7"/>
	</g>
</g>
</svg>
