<?xml version="1.0" encoding="utf-8"?>
<!-- Generator: Adobe Illustrator 18.1.1, SVG Export Plug-In . SVG Version: 6.00 Build 0)  -->
<svg version="1.1" id="Layer_1" xmlns="http://www.w3.org/2000/svg" xmlns:xlink="http://www.w3.org/1999/xlink" x="0px" y="0px"
	 viewBox="0 0 128 128" enable-background="new 0 0 128 128" xml:space="preserve">
<g>
	<circle fill="#EF4538" cx="64" cy="64" r="63.5"/>
	<g>
		<g>
			<path fill="#FCD83A" d="M85.2,68.7c-0.8,0-1.5-0.7-1.5-1.5c0-4.2-3.4-7.6-7.6-7.6s-7.6,3.4-7.6,7.6c0,0.8-0.7,1.5-1.5,1.5
				c-0.8,0-1.5-0.7-1.5-1.5c0-5.9,4.8-10.6,10.6-10.6s10.6,4.8,10.6,10.6C86.7,68,86.1,68.7,85.2,68.7z"/>
		</g>
		<g>
			<path fill="#FFC717" d="M69.7,54.5c-0.8,0-1.5-0.7-1.5-1.5c0-4.2-3.4-7.6-7.6-7.6S53,48.8,53,53c0,0.8-0.7,1.5-1.5,1.5
				S50,53.9,50,53c0-5.9,4.8-10.6,10.6-10.6S71.2,47.2,71.2,53C71.2,53.9,70.5,54.5,69.7,54.5z"/>
		</g>
		<g>
			<path fill="#FFC717" d="M74.9,54.5c-0.8,0-1.5-0.7-1.5-1.5c0-7.1-5.7-12.8-12.8-12.8c-7.1,0-12.8,5.7-12.8,12.8
				c0,0.8-0.7,1.5-1.5,1.5s-1.5-0.7-1.5-1.5c0-8.7,7.1-15.8,15.8-15.8c8.7,0,15.8,7.1,15.8,15.8C76.4,53.9,75.7,54.5,74.9,54.5z"/>
		</g>
		<g>
			<path fill="#FFC717" d="M80,54.5c-0.8,0-1.5-0.7-1.5-1.5c0-9.9-8-17.9-17.9-17.9c-9.9,0-17.9,8-17.9,17.9c0,0.8-0.7,1.5-1.5,1.5
				s-1.5-0.7-1.5-1.5c0-11.5,9.4-20.9,20.9-20.9c11.5,0,20.9,9.4,20.9,20.9C81.5,53.9,80.8,54.5,80,54.5z"/>
		</g>
		<path fill="#FCD83A" d="M76.1,51.4c-5.3,0-9.9,2.6-12.8,6.6c0.5,1.1,1,2.3,1.4,3.5c2.1-4.2,6.4-7.1,11.4-7.1
			c7.1,0,12.8,5.7,12.8,12.8c0,0.8,0.7,1.5,1.5,1.5c0.8,0,1.5-0.7,1.5-1.5C91.9,58.5,84.8,51.4,76.1,51.4z"/>
		<path fill="#FCD83A" d="M76.1,46.4c-6.3,0-11.9,2.8-15.7,7.2c0.7,0.8,1.3,1.6,1.8,2.4c3.3-4.1,8.3-6.7,13.9-6.7
			c9.9,0,17.9,8,17.9,17.9c0,0.8,0.7,1.5,1.5,1.5c0.8,0,1.5-0.7,1.5-1.5C97,55.7,87.6,46.4,76.1,46.4z"/>
		<g>
			<path fill="#F4B1A8" d="M58.9,68.7c-0.8,0-1.5-0.7-1.5-1.5c0-7.1-5.7-12.8-12.8-12.8c-7.1,0-12.8,5.7-12.8,12.8
				c0,0.8-0.7,1.5-1.5,1.5s-1.5-0.7-1.5-1.5c0-8.7,7.1-15.8,15.8-15.8c8.7,0,15.8,7.1,15.8,15.8C60.4,68,59.7,68.7,58.9,68.7z"/>
		</g>
		<g>
			<path fill="#F4B1A8" d="M53.7,68.7c-0.8,0-1.5-0.7-1.5-1.5c0-4.2-3.4-7.6-7.6-7.6S37,63,37,67.2c0,0.8-0.7,1.5-1.5,1.5
				S34,68,34,67.2c0-5.9,4.8-10.6,10.6-10.6s10.6,4.8,10.6,10.6C55.2,68,54.6,68.7,53.7,68.7z"/>
		</g>
		<g>
			<path fill="#F4B1A8" d="M64,68.7c-0.8,0-1.5-0.7-1.5-1.5c0-9.9-8-17.9-17.9-17.9c-9.9,0-17.9,8-17.9,17.9c0,0.8-0.7,1.5-1.5,1.5
				s-1.5-0.7-1.5-1.5c0-11.5,9.4-20.9,20.9-20.9c11.5,0,20.9,9.4,20.9,20.9C65.5,68,64.8,68.7,64,68.7z"/>
		</g>
		<path fill="#FACDD4" d="M97,67.2H24.2c0,14.3,7.9,26.7,19.4,33v3.4h34.1v-3.4C89.2,94,97,81.5,97,67.2z"/>
		<path fill="#565756" d="M92.4,29.4L58.7,60l-1-1l30.6-33.7c1.1-1.2,3-1.3,4.2-0.1l0,0C93.7,26.3,93.6,28.3,92.4,29.4z"/>
		<path fill="#565756" d="M102.5,34.7L63.9,58.9l-0.8-1.2l36.1-27.8c1.3-1,3.2-0.7,4.2,0.6v0C104.2,31.9,103.9,33.8,102.5,34.7z"/>
	</g>
</g>
</svg>
