<?xml version="1.0" encoding="utf-8"?>
<!-- Generator: Adobe Illustrator 18.1.1, SVG Export Plug-In . SVG Version: 6.00 Build 0)  -->
<svg version="1.1" id="Layer_1" xmlns="http://www.w3.org/2000/svg" xmlns:xlink="http://www.w3.org/1999/xlink" x="0px" y="0px"
	 viewBox="0 0 128 128" enable-background="new 0 0 128 128" xml:space="preserve">
<g>
	<circle fill="#FFC717" cx="64" cy="64" r="63.5"/>
	<g>
		<polygon fill="#E67375" points="62.8,103.7 38.1,50.5 87.6,50.5 		"/>
		<path fill="#E3E6E8" d="M91.3,77.4c0,2.3-1.9,4.2-4.2,4.2s-4.2-1.9-4.2-4.2s1.9-8,4.2-8S91.3,75.1,91.3,77.4z"/>
		<polygon fill="#EC5552" points="60.9,50.5 45.4,66 46.7,68.9 65.1,50.5 		"/>
		<polygon fill="#EC5552" points="74.6,50.5 49.7,75.4 51,78.2 78.8,50.5 		"/>
		<polygon fill="#EC5552" points="87,51.7 54,84.7 55.4,87.6 83.3,59.6 		"/>
		<polygon fill="#EC5552" points="75.1,77.3 58.4,94 59.7,96.9 71.5,85.1 		"/>
		<path fill="#FFFFFF" d="M89,50.5C89,36,77.3,24.3,62.8,24.3S36.7,36,36.7,50.5h3V54c0,2.3,1.8,4.1,4.1,4.1h0.7
			c2.3,0,4.1-1.8,4.1-4.1v-3.5h3.5V54c0,2.3,1.8,4.1,4.1,4.1H57c2.3,0,4.1-1.8,4.1-4.1v-3.5h3.5V54c0,2.3,1.8,4.1,4.1,4.1h0.7
			c2.3,0,4.1-1.8,4.1-4.1v-3.5h3.5V54c0,2.3,1.8,4.1,4.1,4.1h0.7c2.3,0,4.1-1.8,4.1-4.1v-3.5H89z"/>
	</g>
</g>
</svg>
