<?xml version="1.0" encoding="utf-8"?>
<!-- Generator: Adobe Illustrator 18.1.1, SVG Export Plug-In . SVG Version: 6.00 Build 0)  -->
<svg version="1.1" id="Layer_1" xmlns="http://www.w3.org/2000/svg" xmlns:xlink="http://www.w3.org/1999/xlink" x="0px" y="0px"
	 viewBox="0 0 128 128" enable-background="new 0 0 128 128" xml:space="preserve">
<g>
	<circle fill="#388CCB" cx="64" cy="64" r="63.5"/>
	<g>
		<path fill="#753A29" d="M72.6,38.4c3.5,1.3,7.1,3.8,8.7,8.6c0.2,0.5,0,1.1-0.3,1.4c-0.2,0.2-0.4,0.3-0.6,0.3
			c-0.8,0.2-1.6-0.3-1.8-1.1c-1.5-4.8-5.7-6.5-8.8-7c-4.7,3.6-9.6,7.9-14.5,12.7c4.1,1,8.8,3.5,10.6,9.2c0.2,0.5,0,1.1-0.3,1.4
			c-0.2,0.2-0.4,0.3-0.6,0.3c-0.8,0.2-1.6-0.3-1.8-1.1c-1.8-5.7-7.4-7-10.3-7.3c-4.6,4.7-8.7,9.4-12.2,14c4.2,0.9,9.1,3.5,11,9.2
			c0.2,0.5,0,1.1-0.3,1.4c-0.2,0.2-0.4,0.3-0.6,0.3c-0.8,0.2-1.6-0.3-1.8-1.1c-1.8-5.6-7.2-6.9-10.1-7.3
			c-8.9,12.2-12.8,22.4-9.2,26.1c5.3,5.3,27.8-3,46.9-22.1s27.4-41.5,22.1-46.9C94.8,25.8,84.7,29.7,72.6,38.4z"/>
		<g>
			<path fill="#92513B" d="M50.6,80.7c0.3-0.1,0.5-0.2,0.6-0.3c0.3-0.3,0.5-0.9,0.3-1.4c-1.8-5.8-6.7-8.3-10.9-9.2
				c-0.7,0.9-1.3,1.7-1.9,2.6c3,0.3,8.3,1.7,10.1,7.2C49,80.4,49.8,80.9,50.6,80.7z"/>
			<path fill="#92513B" d="M63.1,63c0.3,0.8,1.1,1.3,1.8,1.1c0.3-0.1,0.5-0.2,0.6-0.3c0.3-0.3,0.5-0.9,0.3-1.4
				c-1.8-5.6-6.5-8.2-10.6-9.2c-0.3,0.3-0.7,0.7-1,1c-0.5,0.5-1,1-1.5,1.5C55.7,56,61.2,57.4,63.1,63z"/>
			<path fill="#92513B" d="M78.5,47.6c0.3,0.8,1.1,1.3,1.8,1.1c0.3-0.1,0.5-0.2,0.6-0.3c0.3-0.3,0.5-0.9,0.3-1.4
				c-1.5-4.7-5.1-7.3-8.6-8.5c-1,0.7-1.9,1.4-2.9,2.1C72.8,41.2,77,42.9,78.5,47.6z"/>
			<path fill="#92513B" d="M99.8,37c0.7-3.2,0.4-5.8-1-7.2c-0.1-0.1-0.1-0.1-0.2-0.2C99.8,31.1,100.2,33.6,99.8,37z"/>
			<path fill="#92513B" d="M29.6,98.5c0.1,0.1,0.1,0.1,0.2,0.2c1.5,1.5,4,1.8,7.2,1C33.6,100.2,31.1,99.8,29.6,98.5z"/>
			<path fill="#92513B" d="M51.9,56.6c-0.5,0.5-1,1.1-1.6,1.6C50.9,57.7,51.4,57.2,51.9,56.6z"/>
		</g>
	</g>
</g>
</svg>
