<?xml version="1.0" encoding="utf-8"?>
<!-- Generator: Adobe Illustrator 18.1.1, SVG Export Plug-In . SVG Version: 6.00 Build 0)  -->
<svg version="1.1" id="Layer_1" xmlns="http://www.w3.org/2000/svg" xmlns:xlink="http://www.w3.org/1999/xlink" x="0px" y="0px"
	 viewBox="0 0 128 128" enable-background="new 0 0 128 128" xml:space="preserve">
<g>
	<circle fill="#41B655" cx="64" cy="64" r="63.5"/>
	<g>
		<path fill="#F4B1A8" d="M82.9,27.7H45.1l-3.4,9.9v62.2c0,2.1,10,3.8,22.3,3.8c12.3,0,22.3-1.7,22.3-3.8V37.5L82.9,27.7z"/>
		<path fill="#EC5552" d="M84.6,27.7H43.4c-0.8,0-1.4-0.6-1.4-1.4v-0.8c0-0.8,0.6-1.4,1.4-1.4h41.3c0.8,0,1.4,0.6,1.4,1.4v0.8
			C86,27,85.4,27.7,84.6,27.7z"/>
		<path fill="#D62E2F" d="M63.4,49.2l1.2-0.7c4.5-2.5,8.5-4.3,12.6-5.5c3-0.9,6.1-1.5,9.1-1.9v-3.6l-0.1-0.4
			c-3.4,0.3-6.8,1-10.1,2.1c-4.4,1.3-8.6,3.2-13.4,5.9l-1.2,0.7c-2.1,1.2-4.2,2.4-6.6,3.3c-3.9,1.4-8.5,1.9-13.1,2.1v4
			c5-0.2,10-0.8,14.4-2.3C58.9,51.8,61.2,50.5,63.4,49.2z"/>
		<path fill="#D62E2F" d="M76,77c-4.4,1.3-8.6,3.2-13.4,5.9l-1.2,0.7c-2.1,1.2-4.2,2.4-6.6,3.3c-3.9,1.4-8.5,1.9-13.1,2.1v4
			c5-0.2,10-0.8,14.4-2.3c2.8-1,5-2.3,7.3-3.6l1.2-0.7c4.5-2.5,8.5-4.3,12.6-5.5c3-0.9,6.1-1.5,9.1-1.9v-4
			C82.9,75.2,79.4,75.9,76,77z"/>
		<path fill="#753A29" d="M54.2,73.6c0.6-0.2,1.1-0.5,1.5-0.8c0.4-0.3,0.7-0.8,1.1-1.4l1.5,0.8c-0.7,1.6-1.9,2.6-3.5,3.1
			c-1.6,0.5-3,0.4-4.4-0.3c-1.4-0.7-2.3-1.8-2.8-3.4c-0.5-1.6-0.4-3,0.4-4.4c0.7-1.4,1.9-2.3,3.5-2.8c1.6-0.5,3.2-0.3,4.6,0.5
			l-0.7,1.6c-0.6-0.3-1.2-0.5-1.7-0.6c-0.5-0.1-1.1,0-1.6,0.2c-1.1,0.3-1.8,0.9-2.3,1.9C49.2,69,49.1,70,49.4,71
			c0.3,1.1,1,1.8,1.9,2.3C52.2,73.8,53.2,73.9,54.2,73.6z"/>
		<path fill="#753A29" d="M66.7,70.3c-0.5,1-1.4,1.7-2.6,2.1c-1.2,0.4-2.3,0.3-3.4-0.3c-1-0.5-1.7-1.4-2.1-2.5
			c-0.4-1.1-0.3-2.2,0.3-3.3c0.5-1,1.4-1.7,2.6-2.1s2.3-0.3,3.4,0.3c1,0.5,1.7,1.4,2.1,2.5C67.4,68.1,67.3,69.2,66.7,70.3z
			 M61.6,70.7c0.6,0.3,1.3,0.4,2,0.2c0.7-0.2,1.3-0.7,1.6-1.3c0.3-0.6,0.4-1.3,0.1-2.1c-0.2-0.8-0.7-1.3-1.3-1.7
			c-0.6-0.3-1.3-0.4-2-0.2c-0.7,0.2-1.3,0.7-1.6,1.3c-0.3,0.6-0.4,1.3-0.1,2.1C60.6,69.9,61,70.4,61.6,70.7z"/>
		<path fill="#753A29" d="M71.8,69.9l-1.7,0.5l-3.5-11.1l1.7-0.5L71.8,69.9z"/>
		<path fill="#753A29" d="M80.7,67.1l-1.5,0.5l-0.3-1.1c-0.4,1-1.2,1.7-2.3,2c-0.8,0.3-1.6,0.2-2.3-0.1c-0.7-0.3-1.2-0.8-1.4-1.6
			c-0.2-0.8-0.1-1.5,0.3-2c0.5-0.6,1.2-1,2.2-1.3l2.2-0.7l-0.1-0.3c-0.3-1.1-1.1-1.4-2.3-1c-0.7,0.2-1.4,0.7-2,1.5l-1.1-0.8
			c0.7-1.1,1.7-1.8,2.9-2.2c0.9-0.3,1.8-0.3,2.5,0s1.3,0.9,1.6,2L80.7,67.1z M78.1,64.7L77.9,64L76,64.6c-1.2,0.4-1.7,0.9-1.5,1.7
			c0.1,0.4,0.4,0.6,0.7,0.7c0.4,0.1,0.8,0.1,1.3-0.1s1-0.5,1.3-0.9C78.2,65.6,78.2,65.2,78.1,64.7z"/>
	</g>
</g>
</svg>
