<?xml version="1.0" encoding="utf-8"?>
<!-- Generator: Adobe Illustrator 18.1.1, SVG Export Plug-In . SVG Version: 6.00 Build 0)  -->
<svg version="1.1" id="Layer_1" xmlns="http://www.w3.org/2000/svg" xmlns:xlink="http://www.w3.org/1999/xlink" x="0px" y="0px"
	 viewBox="0 0 128 128" enable-background="new 0 0 128 128" xml:space="preserve">
<g>
	<circle fill="#41B655" cx="64" cy="64" r="63.5"/>
	<g>
		<path fill="#FCD83A" d="M82.2,103.3H45.8c-11.9,0-21.5-9.6-21.5-21.5v0h79.4v0C103.7,93.7,94,103.3,82.2,103.3z"/>
		<path fill="#E3E6E8" d="M41.1,81.8c3.1-1.6,6.9-2.7,10.9-3.1c1-0.1,2.1-0.1,3.1-0.1c5.2,0,9.7,1.2,12.9,3.2h4.6
			c-3.4-3.8-9.8-6.2-17.4-6.2c-1.1,0-2.3,0.1-3.4,0.2c-5.8,0.5-11.1,2.4-15,5.3c-0.3,0.2-0.5,0.4-0.7,0.6c0.9-1.1,2.1-2.2,3.4-3.2
			c4.3-3.2,10.3-5.3,16.9-5.9c1.3-0.1,2.6-0.2,3.9-0.2c10.3,0,18.7,3.9,20.9,9.5h3.1c-2.1-7.3-11.7-12.4-24-12.4
			c-1.4,0-2.8,0.1-4.2,0.2c-6.3,0.6-12.1,2.5-16.7,5.3c4.8-3.8,12.1-6.7,20.5-7.5c1.5-0.1,3-0.2,4.5-0.2c13.5,0,24.3,5.9,25,13.7
			c0,0.3,0,0.6,0,0.9h3c0-0.4,0-0.8,0-1.2c-0.9-9.5-12.7-16.3-28-16.3c-1.6,0-3.2,0.1-4.8,0.2c-8.1,0.8-15.2,3.4-20.4,7
			c5.5-4.8,14.2-8.3,24.3-9.3C65,62,66.8,62,68.5,62c15.5,0,27.8,6.8,28.7,15.7c0.1,1.4,0,2.7-0.4,4.1h3.1c0.3-1.4,0.4-2.9,0.3-4.4
			C99.1,66.8,85.8,59,68.5,59c-1.8,0-3.6,0.1-5.4,0.3C45,61,30.8,70.8,30.1,81.8H41.1z"/>
		<path fill="none" d="M47,103.3c1.3,0.1,2.6,0.2,3.9,0.2c1.1,0,2.3-0.1,3.4-0.2c0.2,0,0.3,0,0.5-0.1H47z"/>
		<path fill="#565756" d="M45.2,41H34.7c-0.8,0-1.5-0.7-1.5-1.5c0-0.8,0.7-1.5,1.5-1.5h10.4c0.8,0,1.7-0.3,2.3-0.8l3.3-2.6
			c0.5-0.4,1.1-0.7,1.7-1l23.6-9.4c0.8-0.3,1.6,0.1,1.9,0.8c0.3,0.8-0.1,1.6-0.8,1.9l-23.6,9.4c-0.3,0.1-0.7,0.3-0.9,0.5l-3.3,2.6
			C48.2,40.5,46.7,41,45.2,41z"/>
		<path fill="#E3E6E8" d="M35.5,76c-0.8,0-1.5-0.7-1.5-1.5V38.1c0-0.8,0.7-1.5,1.5-1.5s1.5,0.7,1.5,1.5v36.5
			C37,75.4,36.4,76,35.5,76z"/>
		<path fill="#E3E6E8" d="M40.3,70.6c-0.8,0-1.5-0.7-1.5-1.5v-31c0-0.8,0.7-1.5,1.5-1.5s1.5,0.7,1.5,1.5v31
			C41.8,69.9,41.1,70.6,40.3,70.6z"/>
		<path fill="#E3E6E8" d="M45,66.5c-0.8,0-1.5-0.7-1.5-1.5v-27c0-0.8,0.7-1.5,1.5-1.5s1.5,0.7,1.5,1.5v27
			C46.5,65.8,45.8,66.5,45,66.5z"/>
	</g>
</g>
</svg>
