<?xml version="1.0" encoding="utf-8"?>
<!-- Generator: Adobe Illustrator 18.1.1, SVG Export Plug-In . SVG Version: 6.00 Build 0)  -->
<svg version="1.1" id="Layer_1" xmlns="http://www.w3.org/2000/svg" xmlns:xlink="http://www.w3.org/1999/xlink" x="0px" y="0px"
	 viewBox="0 0 128 128" enable-background="new 0 0 128 128" xml:space="preserve">
<g>
	<circle fill="#FFC717" cx="64" cy="64" r="63.5"/>
	<g>
		<polygon fill="#915037" points="63.7,103.5 47.4,51 80,51 		"/>
		<polygon fill="#753A29" points="62.4,51 52.2,66.3 53,69.2 65.2,51 		"/>
		<polygon fill="#753A29" points="71.4,51 55,75.6 55.9,78.4 74.2,51 		"/>
		<polygon fill="#753A29" points="79.6,52.2 57.9,84.8 58.7,87.6 77.2,60 		"/>
		<polygon fill="#753A29" points="71.8,77.4 60.7,94 61.6,96.8 69.4,85.2 		"/>
		<path fill="#E3E6E8" d="M79.9,51c0.1-1.1,0.3-2.1,0.5-3.2c0.8-5.4-0.8-11-3.9-15.5c-1.2-1.8-2.7-3.5-4.5-4.8
			c-2.3-1.7-5.1-2.5-7.9-3.3c1.4,1.3,2.1,3.2,2.3,5.1c0.1,1.9-0.3,3.8-0.8,5.6c-0.4,1.5-0.9,2.9-1.8,4.1c-0.7,1-1.7,1.7-2.7,2.4
			c-2,1.4-4.1,2.5-6.3,3.5c-1.7,0.7-3.4,1.3-4.9,2.4c-1.3,0.9-2.3,2.2-2.6,3.7H79.9z"/>
	</g>
</g>
</svg>
