<?xml version="1.0" encoding="utf-8"?>
<!-- Generator: Adobe Illustrator 18.1.1, SVG Export Plug-In . SVG Version: 6.00 Build 0)  -->
<svg version="1.1" id="Layer_1" xmlns="http://www.w3.org/2000/svg" xmlns:xlink="http://www.w3.org/1999/xlink" x="0px" y="0px"
	 viewBox="0 0 128 128" enable-background="new 0 0 128 128" xml:space="preserve">
<g>
	<circle fill="#41B655" cx="64" cy="64" r="63.5"/>
	<g>
		<path fill="#753A29" d="M92.2,34.8H35.8c-2.9,0-5.3-2.4-5.3-5.3v0c0-2.9,2.4-5.3,5.3-5.3h56.4c2.9,0,5.3,2.4,5.3,5.3v0
			C97.5,32.5,95.1,34.8,92.2,34.8z"/>
		<path fill="#915037" d="M33.6,46.7c1.5,0.2,2.6-1.2,4-1.7c1.4-0.5,3.1-0.1,4.1,0.9c0.4,0.4,0.7,0.9,1.2,1.3
			c0.5,0.4,1.2,0.5,1.9,0.5c2.1,0,4-1.4,5.9-2.3c1.9-0.9,4.5-1.3,5.9,0.4c0.3,0.4,0.6,0.9,0.9,1.3c1,1.2,2.8,1.3,4.3,0.8
			c1.5-0.5,2.8-1.4,4.2-2.1c1.4-0.7,3.1-1.1,4.5-0.4c0.9,0.4,1.6,1.1,2.4,1.7c1.6,1,3.8,0.9,5.3-0.2c1.1-0.8,1.9-2,3.1-2.2
			c2.6-0.6,4.7,3.1,7.3,2.4c1.9-0.5,2.7-3.2,4.6-3.4c0.6,0,1.1,0.2,1.7,0.1c0.9-0.2,1.7-1.2,2.6-1.2v-0.1h0l-5.3-7.7H35.8l-5.3,7.7
			v1c0.3,0.6,0.7,1.2,0.9,1.6C31.9,45.9,32.6,46.6,33.6,46.7z"/>
		<path fill="#FEEDEF" d="M94.9,43.8c-0.6,0.1-1.1-0.1-1.7-0.1c-1.9,0.1-2.8,2.8-4.6,3.4c-2.6,0.7-4.7-3-7.3-2.4
			c-1.3,0.3-2.1,1.5-3.1,2.2c-1.5,1.1-3.7,1.2-5.3,0.2c-0.8-0.5-1.5-1.3-2.4-1.7c-1.4-0.6-3.1-0.2-4.5,0.4c-1.4,0.7-2.7,1.6-4.2,2.1
			c-1.5,0.5-3.3,0.3-4.3-0.8c-0.3-0.4-0.6-0.9-0.9-1.3c-1.4-1.6-4-1.3-5.9-0.4c-1.9,0.9-3.8,2.3-5.9,2.3c-0.7,0-1.4-0.1-1.9-0.5
			c-0.5-0.3-0.8-0.9-1.2-1.3c-1-1.1-2.7-1.4-4.1-0.9c-1.4,0.5-2.6,1.8-4,1.7c-0.9-0.1-1.7-0.8-2.1-1.6c-0.2-0.4-0.6-1-0.9-1.6v55.4
			c0,2.6,2.1,4.8,4.8,4.8h57.4c2.6,0,4.8-2.1,4.8-4.8V42.6C96.6,42.6,95.8,43.6,94.9,43.8z"/>
		<rect x="37.2" y="61.5" fill="#D62E2F" width="53.6" height="28.3"/>
	</g>
</g>
</svg>
