<?xml version="1.0" encoding="utf-8"?>
<!-- Generator: Adobe Illustrator 18.1.1, SVG Export Plug-In . SVG Version: 6.00 Build 0)  -->
<svg version="1.1" id="Layer_1" xmlns="http://www.w3.org/2000/svg" xmlns:xlink="http://www.w3.org/1999/xlink" x="0px" y="0px"
	 viewBox="0 0 128 128" enable-background="new 0 0 128 128" xml:space="preserve">
<g>
	<circle fill="#FFC717" cx="64" cy="64" r="63.5"/>
	<g>
		<path fill="#753A29" d="M30.6,47.1c8.8-5.3,17.8-10.7,27.9-12.7C65.5,33,72.9,33.3,80,32c5.2-0.9,10.5-2.9,14.3-6.4
			c2.5-2.2,6.5-1.4,7.6,1.7c1.4,4.1,1.2,8.8-0.9,12.6c-1.4,2.6-3.6,4.7-5,7.4c-1.8,3.3-2.2,7.1-2.8,10.8
			C91.5,68.3,88,78.4,81.7,86.7c-6.3,8.3-15.7,14.5-26,15.6"/>
		<path fill="#915037" d="M29.9,47.5c-5.7,2.7-5.8,12.1-2.2,20.9c-1.9,5.1-2.2,11.2-0.4,17.3c4,12.9,16.1,20.6,27.1,17.2
			s16.7-16.6,12.7-29.5C64.4,64.4,45,40.3,29.9,47.5z"/>
		
			<ellipse transform="matrix(0.9557 -0.2943 0.2943 0.9557 -22.3647 18.1041)" fill="#753A29" cx="49" cy="83.4" rx="6.9" ry="9.3"/>
	</g>
</g>
</svg>
