<?xml version="1.0" encoding="utf-8"?>
<!-- Generator: Adobe Illustrator 18.1.1, SVG Export Plug-In . SVG Version: 6.00 Build 0)  -->
<svg version="1.1" id="Layer_1" xmlns="http://www.w3.org/2000/svg" xmlns:xlink="http://www.w3.org/1999/xlink" x="0px" y="0px"
	 viewBox="0 0 128 128" enable-background="new 0 0 128 128" xml:space="preserve">
<g>
	<circle fill="#FFC717" cx="64" cy="64" r="63.5"/>
	<g>
		<rect x="24.3" y="41.6" fill="#72B2E1" width="79.4" height="62.1"/>
		<path fill="#E3E6E8" d="M30.9,56.5L30.9,56.5c-3.7,0-6.6-3-6.6-6.6v-8.3h13.2v8.3C37.5,53.6,34.6,56.5,30.9,56.5z"/>
		<path fill="#D62E2F" d="M44.2,56.5L44.2,56.5c-3.7,0-6.6-3-6.6-6.6v-8.3h13.2v8.3C50.8,53.6,47.8,56.5,44.2,56.5z"/>
		<path fill="#E3E6E8" d="M57.4,56.5L57.4,56.5c-3.7,0-6.6-3-6.6-6.6v-8.3H64v8.3C64,53.6,61,56.5,57.4,56.5z"/>
		<path fill="#D62E2F" d="M70.6,56.5L70.6,56.5c-3.7,0-6.6-3-6.6-6.6v-8.3h13.2v8.3C77.2,53.6,74.3,56.5,70.6,56.5z"/>
		<path fill="#E3E6E8" d="M83.8,56.5L83.8,56.5c-3.7,0-6.6-3-6.6-6.6v-8.3h13.2v8.3C90.5,53.6,87.5,56.5,83.8,56.5z"/>
		<path fill="#D62E2F" d="M97.1,56.5L97.1,56.5c-3.7,0-6.6-3-6.6-6.6v-8.3h13.2v8.3C103.7,53.6,100.7,56.5,97.1,56.5z"/>
		<polygon fill="#C0C9CE" points="37.5,41.6 24.3,41.6 36,24.3 45.3,24.3 		"/>
		<polygon fill="#B5262B" points="50.8,41.6 37.5,41.6 45.3,24.3 54.7,24.3 		"/>
		<polygon fill="#C0C9CE" points="64,41.6 50.8,41.6 54.7,24.3 64,24.3 		"/>
		<polygon fill="#B5262B" points="77.2,41.6 64,41.6 64,24.3 73.3,24.3 		"/>
		<polygon fill="#C0C9CE" points="90.5,41.6 77.2,41.6 73.3,24.3 82.7,24.3 		"/>
		<polygon fill="#B5262B" points="103.7,41.6 90.5,41.6 82.7,24.3 92,24.3 		"/>
		<rect x="34.7" y="63.4" fill="#753A29" width="24.9" height="40.3"/>
		<rect x="70.6" y="67.9" fill="#E3E6E8" width="24.4" height="17.5"/>
	</g>
</g>
</svg>
