<?xml version="1.0" encoding="utf-8"?>
<!-- Generator: Adobe Illustrator 18.1.1, SVG Export Plug-In . SVG Version: 6.00 Build 0)  -->
<svg version="1.1" id="Layer_1" xmlns="http://www.w3.org/2000/svg" xmlns:xlink="http://www.w3.org/1999/xlink" x="0px" y="0px"
	 viewBox="0 0 128 128" enable-background="new 0 0 128 128" xml:space="preserve">
<g>
	<circle fill="#FFC717" cx="64" cy="64" r="63.5"/>
	<g>
		<polygon fill="#5D5E61" points="100.2,86.6 27.8,86.6 24.3,79.9 103.7,79.9 		"/>
		<path fill="#E3E6E8" d="M30.6,79.9c0-18.5,15-33.4,33.4-33.4s33.4,15,33.4,33.4"/>
		<path fill="#A5B2B8" d="M64,46.5c2.4,0,4.7,0.3,6.9,0.7c0.3-0.8,0.4-1.6,0.4-2.4c0-4.1-3.3-7.3-7.3-7.3s-7.3,3.3-7.3,7.3
			c0,0.9,0.2,1.7,0.4,2.4C59.3,46.7,61.6,46.5,64,46.5z"/>
	</g>
</g>
</svg>
