<?xml version="1.0" encoding="utf-8"?>
<!-- Generator: Adobe Illustrator 18.1.1, SVG Export Plug-In . SVG Version: 6.00 Build 0)  -->
<svg version="1.1" id="Layer_1" xmlns="http://www.w3.org/2000/svg" xmlns:xlink="http://www.w3.org/1999/xlink" x="0px" y="0px"
	 viewBox="0 0 128 128" enable-background="new 0 0 128 128" xml:space="preserve">
<g>
	<circle fill="#EF4538" cx="64" cy="64" r="63.5"/>
	<g>
		<path fill="#FFC717" d="M82.5,47.4c10.3,10.3,16.7,23.1,19.3,36.4l10.7-2c-2.9-15.4-10.3-30.1-22.2-42.1
			C78.9,28.6,65.3,21.4,50.9,18.1l-2.4,10.6C60.9,31.5,72.8,37.7,82.5,47.4z"/>
		<path fill="#F7EC5C" d="M48.5,28.7L33,96.9l68.7-13c-2.5-13.3-8.9-26.1-19.3-36.4C72.8,37.7,60.9,31.5,48.5,28.7z"/>
		<circle fill="#D62E2F" cx="64.2" cy="55.9" r="10.7"/>
		<circle fill="#22A79C" cx="53.1" cy="85.6" r="3.4"/>
		<circle fill="#5D5E61" cx="77.9" cy="77.3" r="3.1"/>
		<circle fill="#5D5E61" cx="48.5" cy="70.5" r="3.1"/>
	</g>
</g>
</svg>
