<?xml version="1.0" encoding="utf-8"?>
<!-- Generator: Adobe Illustrator 18.1.1, SVG Export Plug-In . SVG Version: 6.00 Build 0)  -->
<svg version="1.1" id="Layer_1" xmlns="http://www.w3.org/2000/svg" xmlns:xlink="http://www.w3.org/1999/xlink" x="0px" y="0px"
	 viewBox="0 0 128 128" enable-background="new 0 0 128 128" xml:space="preserve">
<g>
	<circle fill="#41B655" cx="64" cy="64" r="63.5"/>
	<g>
		<path fill="#FACDD4" d="M37.1,38h-2.3v11.9c0,0.7-0.6,1.3-1.3,1.3c-0.7,0-1.3-0.6-1.3-1.3V38h-2.5v11.9c0,0.7-0.6,1.3-1.3,1.3
			c-0.7,0-1.3-0.6-1.3-1.3V38H25l-0.7,15c-0.2,3.9,2.9,7.1,6.8,7.1l0,0c3.9,0,6.9-3.2,6.8-7.1L37.1,38z"/>
		<path fill="#F4B1A8" d="M31.1,60c-0.8,0-1.5-0.1-2.2-0.4l-1.5,26.6c-0.1,2,1.5,3.8,3.6,3.8c2,0,3.7-1.7,3.6-3.8l-1.5-26.5
			C32.4,59.9,31.8,60,31.1,60z"/>
		<circle fill="#E3E6E8" cx="63.6" cy="63.9" r="22.9"/>
		<circle fill="#B8B9BC" cx="63.6" cy="63.9" r="12.1"/>
		<ellipse fill="#FACDD4" cx="96.1" cy="49" rx="7.6" ry="11"/>
		<path fill="#F4B1A8" d="M96.1,60c-0.8,0-1.5-0.2-2.2-0.5l-1.5,26.7C92.3,88.3,94,90,96,90c2,0,3.7-1.7,3.6-3.8l-1.5-26.6
			C97.5,59.9,96.8,60,96.1,60z"/>
	</g>
</g>
</svg>
