<?xml version="1.0" encoding="utf-8"?>
<!-- Generator: Adobe Illustrator 18.1.1, SVG Export Plug-In . SVG Version: 6.00 Build 0)  -->
<svg version="1.1" id="Layer_1" xmlns="http://www.w3.org/2000/svg" xmlns:xlink="http://www.w3.org/1999/xlink" x="0px" y="0px"
	 viewBox="0 0 128 128" enable-background="new 0 0 128 128" xml:space="preserve">
<g>
	<circle fill="#41B655" cx="64" cy="64" r="63.5"/>
	<g>
		<path fill="#E3E6E8" d="M41,90.9c0-1.7-0.6-3.4-1.9-4.6c-2.5-2.5-6.6-2.5-9.1,0c-2.5,2.5-2.5,6.6,0,9.1c1.3,1.3,3,1.9,4.6,1.9
			c0,1.7,0.6,3.4,1.9,4.6c2.5,2.5,6.6,2.5,9.1,0c2.5-2.5,2.5-6.6,0-9.1C44.4,91.5,42.7,90.8,41,90.9z"/>
		<path fill="#753A29" d="M89.4,31.6c-5.3-4.3-11.9-7.8-18.3-7.2c-4.4,0.4-8.3,2.7-11.2,5.9c-2.9,3.1-4.8,7-6.5,11
			c-1.3,3.1-2.4,6.4-3.2,9.7C49,56.4,48.5,62,47.4,67.5c-1.1,5.5-2.8,10.9-6.2,15.1c-0.9,1.1-1.9,2.1-3.2,2.7
			c0.4,0.3,0.8,0.6,1.2,0.9c1.3,1.3,1.9,3,1.9,4.6c1.7,0,3.4,0.6,4.6,1.9c0.9,0.9,1.4,1.9,1.7,3c1.2-2.3,3.1-4.7,4.4-5.7
			c3.1-2.4,6.2-4.7,9.3-7.1c4.9-3.7,9.8-7.5,15.4-10.3c2.3-1.1,4.7-2.1,7-3.2c5.6-2.9,10.3-7.1,13.7-12.3c1.2-1.9,2.3-3.9,2.5-6.3
			c0.2-2.2-0.5-4.5-1.3-6.6c-0.9-2.5-2-4.9-3.6-7C93.4,35.1,91.5,33.2,89.4,31.6z"/>
	</g>
</g>
</svg>
