<?xml version="1.0" encoding="utf-8"?>
<!-- Generator: Adobe Illustrator 18.1.1, SVG Export Plug-In . SVG Version: 6.00 Build 0)  -->
<svg version="1.1" id="Layer_1" xmlns="http://www.w3.org/2000/svg" xmlns:xlink="http://www.w3.org/1999/xlink" x="0px" y="0px"
	 viewBox="0 0 128 128" enable-background="new 0 0 128 128" xml:space="preserve">
<g>
	<circle fill="#388CCB" cx="64" cy="64" r="63.5"/>
	<g>
		<path fill="#FAD839" d="M103.7,45.1c0-2.6-1.2-4.8-3-6.3c1.8-1.5,3-3.8,3-6.3c0-4.5-3.6-8.1-8.1-8.1c-2.6,0-4.8,1.2-6.3,3
			c-1.5-1.8-3.8-3-6.3-3c-2.6,0-4.8,1.2-6.3,3c-1.5-1.8-3.8-3-6.3-3s-4.8,1.2-6.3,3c-1.5-1.8-3.8-3-6.3-3s-4.8,1.2-6.3,3
			c-1.5-1.8-3.8-3-6.3-3c-2.6,0-4.8,1.2-6.3,3c-1.5-1.8-3.8-3-6.3-3c-4.5,0-8.1,3.6-8.1,8.1c0,2.6,1.2,4.8,3,6.3
			c-1.8,1.5-3,3.8-3,6.3c0,2.6,1.2,4.8,3,6.3c-1.8,1.5-3,3.8-3,6.3c0,2.6,1.2,4.8,3,6.3c-1.8,1.5-3,3.8-3,6.3s1.2,4.8,3,6.3
			c-1.8,1.5-3,3.8-3,6.3s1.2,4.8,3,6.3c-1.8,1.5-3,3.8-3,6.3c0,4.5,3.6,8.1,8.1,8.1c2.6,0,4.8-1.2,6.3-3c1.5,1.8,3.8,3,6.3,3
			c2.6,0,4.8-1.2,6.3-3c1.5,1.8,3.8,3,6.3,3s4.8-1.2,6.3-3c1.5,1.8,3.8,3,6.3,3s4.8-1.2,6.3-3c1.5,1.8,3.8,3,6.3,3
			c2.6,0,4.8-1.2,6.3-3c1.5,1.8,3.8,3,6.3,3c4.5,0,8.1-3.6,8.1-8.1c0-2.6-1.2-4.8-3-6.3c1.8-1.5,3-3.8,3-6.3s-1.2-4.8-3-6.3
			c1.8-1.5,3-3.8,3-6.3s-1.2-4.8-3-6.3c1.8-1.5,3-3.8,3-6.3c0-2.6-1.2-4.8-3-6.3C102.5,49.9,103.7,47.6,103.7,45.1z"/>
		<circle fill="#915037" cx="45.7" cy="38" r="2.5"/>
		<circle fill="#915037" cx="64" cy="38" r="2.5"/>
		<circle fill="#915037" cx="82.3" cy="38" r="2.5"/>
		<circle fill="#915037" cx="36.6" cy="55.3" r="2.5"/>
		<circle fill="#915037" cx="54.9" cy="55.3" r="2.5"/>
		<circle fill="#915037" cx="73.1" cy="55.3" r="2.5"/>
		<circle fill="#915037" cx="91.4" cy="55.3" r="2.5"/>
		<circle fill="#915037" cx="45.7" cy="72.7" r="2.5"/>
		<circle fill="#915037" cx="64" cy="72.7" r="2.5"/>
		<circle fill="#915037" cx="82.3" cy="72.7" r="2.5"/>
		<circle fill="#915037" cx="36.6" cy="90" r="2.5"/>
		<circle fill="#915037" cx="54.9" cy="90" r="2.5"/>
		<circle fill="#915037" cx="73.1" cy="90" r="2.5"/>
		<circle fill="#915037" cx="91.4" cy="90" r="2.5"/>
	</g>
</g>
</svg>
