<?xml version="1.0" encoding="utf-8"?>
<!-- Generator: Adobe Illustrator 18.1.1, SVG Export Plug-In . SVG Version: 6.00 Build 0)  -->
<svg version="1.1" id="Layer_1" xmlns="http://www.w3.org/2000/svg" xmlns:xlink="http://www.w3.org/1999/xlink" x="0px" y="0px"
	 viewBox="0 0 128 128" enable-background="new 0 0 128 128" xml:space="preserve">
<g>
	<circle fill="#41B655" cx="64" cy="64" r="63.5"/>
	<g>
		<circle fill="#E3E6E8" cx="63.6" cy="64" r="39.7"/>
		<circle fill="#BEC8CE" cx="63.6" cy="64" r="20.9"/>
		
			<ellipse transform="matrix(0.7071 -0.7071 0.7071 0.7071 -22.0386 43.5256)" fill="#EC5552" cx="41.5" cy="48.4" rx="11.4" ry="16.7"/>
		<path fill="#E67374" d="M53.3,60.2c-0.8,0.8-1.8,1.4-2.9,1.8l27,30.1c2.1,2.3,5.6,2.4,7.8,0.2s2.1-5.8-0.2-7.8L55,57.6
			C54.6,58.5,54,59.4,53.3,60.2z"/>
		<path fill="#7D837C" d="M104,45.1l-2.4-2.4L88.9,55.5c-0.7,0.7-2,0.7-2.7,0c-0.7-0.7-0.7-2,0-2.7L98.9,40l-2.7-2.7L83.5,50.1
			c-0.7,0.7-2,0.7-2.7,0c-0.7-0.7-0.7-2,0-2.7l12.8-12.8l-2.4-2.4L74.4,47.4C70,51.4,69.9,58.1,74,62.2l0,0c4.1,4.1,10.9,4,14.8-0.4
			L104,45.1z"/>
		<path fill="#5D5E61" d="M74,62.2c-0.8-0.8-1.5-1.8-2-2.8L42,86.4c-2.3,2.1-2.4,5.6-0.2,7.8c2.2,2.2,5.8,2.1,7.8-0.2l26.8-30
			C75.6,63.6,74.7,63,74,62.2z"/>
	</g>
</g>
</svg>
