<?xml version="1.0" encoding="utf-8"?>
<!-- Generator: Adobe Illustrator 18.1.1, SVG Export Plug-In . SVG Version: 6.00 Build 0)  -->
<svg version="1.1" id="Layer_1" xmlns="http://www.w3.org/2000/svg" xmlns:xlink="http://www.w3.org/1999/xlink" x="0px" y="0px"
	 viewBox="0 0 128 128" enable-background="new 0 0 128 128" xml:space="preserve">
<g>
	<circle fill="#388CCB" cx="64" cy="64" r="63.5"/>
	<g>
		<path fill="#915037" d="M97.6,68.5c-1.7-1.6-2.9-3.5-4.4-5.3c-1.5-1.7-3.3-3.3-5.6-3.7c-1.5-0.3-3.2,0-4.3-1.1
			c-1.4-1.4-0.9-4.1-2.6-5.1c-1.1-0.7-2.6-0.1-3.9-0.5c-1.6-0.5-2.3-2.3-2.6-3.9c-0.3-1.6-0.6-3.4-1.9-4.4c-1.3-1-3-0.8-4.6-1.2
			c-2.7-0.6-4.7-2.8-6.5-4.9c-1.7-2-3.6-4.5-2.8-7c0.2-0.7,0.7-1.4,0.7-2.1c0.1-0.8-0.3-1.5-0.6-2.2c-0.4-1-0.9-1.9-1.3-2.9
			c-2.8,0.5-5.6,1.3-8.3,2.4c-20.4,8.5-30,31.9-21.5,52.3s31.9,30,52.3,21.5c12.7-5.3,21.2-16.3,23.8-28.9
			C101.4,71.1,99.3,70.1,97.6,68.5z"/>
		<circle fill="#753A29" cx="35.9" cy="63.7" r="3.2"/>
		<circle fill="#753A29" cx="48.8" cy="38.5" r="3.6"/>
		<circle fill="#753A29" cx="49.2" cy="84.1" r="5"/>
		<circle fill="#753A29" cx="62.3" cy="55.6" r="4.6"/>
		<circle fill="#753A29" cx="90.3" cy="77.6" r="3.6"/>
		<circle fill="#753A29" cx="71.5" cy="94.3" r="3.1"/>
		<circle fill="#753A29" cx="75.2" cy="72" r="2.8"/>
	</g>
</g>
</svg>
