<?xml version="1.0" encoding="utf-8"?>
<!-- Generator: Adobe Illustrator 18.1.1, SVG Export Plug-In . SVG Version: 6.00 Build 0)  -->
<svg version="1.1" id="Layer_1" xmlns="http://www.w3.org/2000/svg" xmlns:xlink="http://www.w3.org/1999/xlink" x="0px" y="0px"
	 viewBox="0 0 128 128" enable-background="new 0 0 128 128" xml:space="preserve">
<g>
	<circle fill="#41B655" cx="64" cy="64" r="63.5"/>
	<g>
		<rect x="68.4" y="42" fill="#E3E6E8" width="35.3" height="61.6"/>
		<path fill="#E67375" d="M78.1,63.1c-1,0-1.9-0.8-2-1.9l-2-24.8l-12-8.5c-0.9-0.6-1.1-1.9-0.5-2.8c0.6-0.9,1.9-1.1,2.8-0.5l12.8,9
			c0.5,0.3,0.8,0.9,0.9,1.5l2,25.7c0.1,1.1-0.7,2.1-1.9,2.2C78.2,63.1,78.2,63.1,78.1,63.1z"/>
		<rect x="68.4" y="59.6" fill="#F4B1A8" width="35.3" height="44.1"/>
		<path fill="#E3E6E8" d="M24.3,68.8c0,19.3,15.5,34.9,34.7,34.9c19.2,0,34.7-15.6,34.7-34.9H24.3z"/>
		<path fill="#D62E2F" d="M28.2,68.8c0,17.1,13.8,31,30.8,31c17,0,30.8-13.9,30.8-31H28.2z"/>
		<path fill="#5D5E61" d="M39.1,79.9c-0.7,1.2-1.8,1.9-2.3,1.6c-0.5-0.3-0.4-1.6,0.4-2.8c0.7-1.2,1.8-1.9,2.3-1.6
			C40,77.4,39.8,78.7,39.1,79.9z"/>
		<path fill="#5D5E61" d="M45.9,86.4c-0.7,1.2-1.8,1.9-2.3,1.6c-0.5-0.3-0.4-1.6,0.4-2.8s1.8-1.9,2.3-1.6
			C46.8,83.9,46.6,85.2,45.9,86.4z"/>
		<path fill="#5D5E61" d="M54.5,92.6c-0.7,1.2-1.8,1.9-2.3,1.6c-0.5-0.3-0.4-1.6,0.4-2.8s1.8-1.9,2.3-1.6
			C55.4,90.1,55.2,91.4,54.5,92.6z"/>
		<path fill="#5D5E61" d="M79.8,78.6c0.7,1.2,1.8,1.9,2.3,1.6c0.5-0.3,0.4-1.6-0.4-2.8c-0.7-1.2-1.8-1.9-2.3-1.6
			C78.9,76.1,79.1,77.3,79.8,78.6z"/>
		<path fill="#5D5E61" d="M73,85c0.7,1.2,1.8,1.9,2.3,1.6c0.5-0.3,0.4-1.6-0.4-2.8c-0.7-1.2-1.8-1.9-2.3-1.6
			C72.1,82.5,72.3,83.8,73,85z"/>
		<path fill="#5D5E61" d="M66.7,75.3c-0.4,1.4-0.3,2.6,0.4,2.8s1.4-0.8,1.9-2.1c0.4-1.4,0.3-2.6-0.4-2.8S67.1,74,66.7,75.3z"/>
		<path fill="#5D5E61" d="M56.9,81.7c0.7,1.2,1.7,2,2.3,1.7c0.6-0.3,0.4-1.6-0.3-2.8c-0.7-1.2-1.7-2-2.3-1.7
			C56.1,79.2,56.2,80.5,56.9,81.7z"/>
		<path fill="#5D5E61" d="M48.1,75.1c0.6,1.3,1.6,2.1,2.2,1.8c0.6-0.3,0.5-1.6-0.1-2.8c-0.6-1.3-1.6-2.1-2.2-1.8
			C47.4,72.6,47.5,73.9,48.1,75.1z"/>
		<path fill="#5D5E61" d="M64.4,91.3c0.7,1.2,1.8,1.9,2.3,1.6c0.5-0.3,0.4-1.6-0.4-2.8c-0.7-1.2-1.8-1.9-2.3-1.6
			C63.5,88.8,63.7,90,64.4,91.3z"/>
	</g>
</g>
</svg>
