<?xml version="1.0" encoding="utf-8"?>
<!-- Generator: Adobe Illustrator 18.1.1, SVG Export Plug-In . SVG Version: 6.00 Build 0)  -->
<svg version="1.1" id="Layer_1" xmlns="http://www.w3.org/2000/svg" xmlns:xlink="http://www.w3.org/1999/xlink" x="0px" y="0px"
	 viewBox="0 0 128 128" enable-background="new 0 0 128 128" xml:space="preserve">
<g>
	<circle fill="#41B655" cx="64" cy="64" r="63.5"/>
	<g>
		<path fill="#FAF4A6" d="M99.6,58.8c-0.1,0.2-0.2,0.5-0.5,0.6c-0.3,0.2-0.8,0.1-1.1,0c-3.6-1.3-3.8-6.7-6.9-8.9
			c-0.2-0.1-0.4-0.3-0.6-0.3c-0.3,0-0.5,0.1-0.7,0.3c-1.6,1.2-2.1,3.4-2.4,5.4c-0.2,2-0.3,4.1-1.2,5.9c-0.3,0.5-0.6,1-1.1,1.3
			c-0.5,0.3-1,0.4-1.6,0.5c-2.6,0.3-5.3-0.9-6.9-2.9c-1.2-1.5-2-3.6-3.8-4.3c-1.8-0.7-3.8,0.2-5.1,1.6c-1.3,1.4-2,3.2-2.9,4.9
			c-0.9,1.7-2.2,3.3-4,3.9c-2.2,0.7-4.5-0.2-6.5-1.3c-2-1.1-4.1-2.3-6.4-2.2c-3.2,0.2-5.6,3-8.7,4c-1.5,0.5-3,0.5-4.6,0.4
			c-1.6-0.1-3.1-0.2-4.5-0.9c-2.7-1.3-4.1-4-5.8-6.4v43.2l79.4-21.6v-32C102.3,52.9,101,55.9,99.6,58.8z"/>
		<polygon fill="#22A79C" points="103.7,73.9 24.3,95.6 24.3,88.1 103.7,66.5 		"/>
		<polygon fill="#EC5552" points="62.4,24.2 24.3,60.3 103.7,38.6 		"/>
		<path fill="#753A29" d="M30.2,66.8c1.4,0.7,3,0.8,4.5,0.9c1.5,0.1,3.1,0.1,4.6-0.4c3.1-0.9,5.5-3.8,8.7-4c2.3-0.1,4.4,1.1,6.4,2.2
			c2,1.1,4.3,2,6.5,1.3c1.8-0.6,3-2.2,4-3.9c0.9-1.7,1.6-3.5,2.9-4.9c1.3-1.4,3.3-2.3,5.1-1.6c1.8,0.7,2.6,2.8,3.8,4.3
			c1.6,2,4.3,3.2,6.9,2.9c0.6-0.1,1.1-0.2,1.6-0.5c0.5-0.3,0.8-0.8,1.1-1.3c0.9-1.8,1-3.9,1.2-5.9c0.2-2,0.8-4.1,2.4-5.4
			c0.2-0.2,0.5-0.3,0.7-0.3c0.2,0,0.4,0.1,0.6,0.3c3.1,2.2,3.3,7.6,6.9,8.9c0.4,0.1,0.8,0.2,1.1,0c0.2-0.1,0.3-0.4,0.5-0.6
			c1.4-3,2.7-5.9,4.1-8.9V38.6L24.3,60.3v0.1C26.1,62.8,27.5,65.5,30.2,66.8z"/>
	</g>
</g>
</svg>
