<?xml version="1.0" encoding="utf-8"?>
<!-- Generator: Adobe Illustrator 18.1.1, SVG Export Plug-In . SVG Version: 6.00 Build 0)  -->
<svg version="1.1" id="Layer_1" xmlns="http://www.w3.org/2000/svg" xmlns:xlink="http://www.w3.org/1999/xlink" x="0px" y="0px"
	 viewBox="0 0 128 128" enable-background="new 0 0 128 128" xml:space="preserve">
<g>
	<circle fill="#EF4538" cx="64" cy="64" r="63.5"/>
	<g>
		<path fill="#72B2E1" d="M102.4,65c-0.6-1.7-1-3.5-1.4-5.3c-2.9-14.8-17.6-26-35.2-26c-15.3,0-28.3,8.4-33.4,20.3
			c-0.8,1.9-2.1,3.4-3.7,4.6c-3.4,2.5-5.2,7.2-3.8,11.2c0.3,0.9,0.7,1.7,1.4,2.4c2.7,2.9,7.4,1.8,10.9,0.1c3.5-1.7,7.4-3.9,11.1-2.6
			c1.5,0.5,2.8,1.6,4.1,2.4c4.7,2.9,11.1,3,15.9,0.3c1.9-1.1,3.6-2.5,5.7-3.3c3.2-1.1,6.8-0.2,9.9,1.1c3.1,1.3,6.5,2.2,9.5,3.8
			C106.3,81,104.1,70.2,102.4,65z"/>
		<path fill="#E3E6E8" d="M93.3,74c-3.1-1.4-6.3-2.5-9.5-3.8c-3.1-1.3-6.7-2.2-9.9-1.1c-2.1,0.7-3.8,2.2-5.7,3.3
			C63.3,75.1,57,75,52.2,72.1c-1.4-0.8-2.6-1.9-4.1-2.4c-3.7-1.3-7.6,0.9-11.1,2.6c-1.4,0.7-3,1.2-4.5,1.5l3.6,20.1h57.1L96.7,75
			C95.5,74.8,94.4,74.5,93.3,74z"/>
		<path fill="#2A68B1" d="M85.9,59.2c-0.4,0-0.8-0.1-1.1-0.4l-4.4-4.4c-0.6-0.6-0.6-1.5,0-2.1c0.6-0.6,1.5-0.6,2.1,0l4.4,4.4
			c0.6,0.6,0.6,1.5,0,2.1C86.7,59.1,86.3,59.2,85.9,59.2z"/>
		<path fill="#2A68B1" d="M45,59.2c-0.4,0-0.8-0.1-1.1-0.4c-0.6-0.6-0.6-1.5,0-2.1l4.4-4.4c0.6-0.6,1.5-0.6,2.1,0
			c0.6,0.6,0.6,1.5,0,2.1L46,58.8C45.8,59.1,45.4,59.2,45,59.2z"/>
		<path fill="#2A68B1" d="M64,50.4c-0.8,0-1.5-0.7-1.5-1.5v-7.3c0-0.8,0.7-1.5,1.5-1.5c0.8,0,1.5,0.7,1.5,1.5v7.3
			C65.5,49.7,64.8,50.4,64,50.4z"/>
	</g>
</g>
</svg>
