<?xml version="1.0" encoding="utf-8"?>
<!-- Generator: Adobe Illustrator 18.1.1, SVG Export Plug-In . SVG Version: 6.00 Build 0)  -->
<svg version="1.1" id="Layer_1" xmlns="http://www.w3.org/2000/svg" xmlns:xlink="http://www.w3.org/1999/xlink" x="0px" y="0px"
	 viewBox="0 0 128 128" enable-background="new 0 0 128 128" xml:space="preserve">
<g>
	<circle fill="#41B655" cx="64" cy="64" r="63.5"/>
	<g>
		<path fill="#E3E6E8" d="M101.4,88.4H24.9c-0.8,0-1.4-0.6-1.4-1.4s0.6-1.4,1.4-1.4h76.5c0.8,0,1.4,0.6,1.4,1.4
			S102.2,88.4,101.4,88.4z"/>
		<ellipse fill="#915037" cx="39.2" cy="87" rx="4.2" ry="7.1"/>
		<ellipse fill="#915037" cx="51.2" cy="87" rx="4.2" ry="7.1"/>
		<ellipse fill="#F4B1A8" cx="45.2" cy="87" rx="1.8" ry="5.1"/>
		<ellipse fill="#915037" cx="63.1" cy="87" rx="4.2" ry="7.1"/>
		<ellipse fill="#F4B1A8" cx="57.2" cy="87" rx="1.8" ry="5.1"/>
		<ellipse fill="#915037" cx="75.1" cy="87" rx="4.2" ry="7.1"/>
		<ellipse fill="#F4B1A8" cx="69.1" cy="87" rx="1.8" ry="5.1"/>
		<ellipse fill="#915037" cx="87.1" cy="87" rx="4.2" ry="7.1"/>
		<ellipse fill="#F4B1A8" cx="81.1" cy="87" rx="1.8" ry="5.1"/>
		<path fill="#E3E6E8" d="M27.2,73.2c-0.5,0-1-0.3-1.3-0.8c-0.4-0.7-0.1-1.6,0.6-1.9l67.3-36.4c0.7-0.4,1.6-0.1,1.9,0.6
			c0.4,0.7,0.1,1.6-0.6,1.9L27.8,73C27.6,73.1,27.4,73.2,27.2,73.2z"/>
		<ellipse transform="matrix(0.8796 -0.4757 0.4757 0.8796 -26.119 26.721)" fill="#753A29" cx="39.7" cy="65" rx="4.2" ry="7.1"/>
		
			<ellipse transform="matrix(0.8796 -0.4757 0.4757 0.8796 -22.1417 31.0457)" fill="#753A29" cx="50.3" cy="59.3" rx="4.2" ry="7.1"/>
		
			<ellipse transform="matrix(-0.8796 0.4757 -0.4757 -0.8796 114.1349 95.3529)" fill="#FFC717" cx="45" cy="62.1" rx="1.8" ry="5.1"/>
		
			<ellipse transform="matrix(0.8796 -0.4757 0.4757 0.8796 -18.1644 35.3703)" fill="#753A29" cx="60.8" cy="53.6" rx="4.2" ry="7.1"/>
		
			<ellipse transform="matrix(-0.8796 0.4757 -0.4757 -0.8796 131.224 79.6365)" fill="#FFC717" cx="55.5" cy="56.4" rx="1.8" ry="5.1"/>
		
			<ellipse transform="matrix(0.8796 -0.4757 0.4757 0.8796 -14.1872 39.6949)" fill="#753A29" cx="71.3" cy="47.9" rx="4.2" ry="7.1"/>
		
			<ellipse transform="matrix(-0.8796 0.4757 -0.4757 -0.8796 148.3132 63.92)" fill="#FFC717" cx="66.1" cy="50.7" rx="1.8" ry="5.1"/>
		
			<ellipse transform="matrix(0.8796 -0.4757 0.4757 0.8796 -10.2099 44.0196)" fill="#753A29" cx="81.9" cy="42.2" rx="4.2" ry="7.1"/>
		
			<ellipse transform="matrix(-0.8796 0.4757 -0.4757 -0.8796 165.4023 48.2036)" fill="#FFC717" cx="76.6" cy="45" rx="1.8" ry="5.1"/>
	</g>
</g>
</svg>
