<?xml version="1.0" encoding="utf-8"?>
<!-- Generator: Adobe Illustrator 18.1.1, SVG Export Plug-In . SVG Version: 6.00 Build 0)  -->
<svg version="1.1" id="Layer_1" xmlns="http://www.w3.org/2000/svg" xmlns:xlink="http://www.w3.org/1999/xlink" x="0px" y="0px"
	 viewBox="0 0 128 128" enable-background="new 0 0 128 128" xml:space="preserve">
<g>
	<circle fill="#EF4538" cx="64" cy="64" r="63.5"/>
	<g>
		<path fill="#FFFFFF" d="M62.5,92.8c1.9-2.5,2.5-5.8,2.6-8.9c0.4-7-1.1-14.2-4.3-20.5c-1.5-3-3.5-6-6.5-7.6
			c-1.7-0.9-3.7-1.4-5.7-1.5c-7.5-0.4-14.7,3.9-18.9,10.1c-3.7,5.4-5.2,12.3-4.3,18.8c0.9,6.5,4.3,12.6,9.3,16.9
			c1.4,1.2,3,2.3,4.7,2.9c3,1,6.4,0.5,9.4-0.7c3-1.2,5.6-3.2,8.2-5.1c4-3,8.1-6,11.4-9.8c2.1-2.4,20.4-24.5,24.4-30.6
			c3.1-4.6,6.1-9.3,8.2-14.4c1.6-3.9,2.6-8.2,1.4-12.2c-0.1-0.2-0.1-0.4-0.2-0.7c-1.9-5-7.9-6.8-12.5-4.1C81,30.6,72,35.4,63.2,40.2
			C52.3,46,41,52.3,32.4,61.2"/>
		<path fill="#22A79C" d="M65.2,85.2c0.3-2.5-0.3-5.6-0.6-8.1c-0.5-4.4-2-9.3-3.8-13.3c-2-4.5-4.7-7.8-9.7-8.7
			c-4.4-0.8-10,0.3-14.4,2c-1.5,1.3-2.9,2.6-4.2,4c0,0,0,0,0,0c0,0,0,0,0,0l0,0c-1,1-1.9,2.1-2.6,3.2c-3.7,5.4-5.2,12.3-4.3,18.8
			c0.9,6.5,4.3,12.6,9.3,16.9c1.4,1.2,3,2.3,4.7,2.9c3,1,6.4,0.5,9.4-0.7c3-1.2,5.6-3.2,8.2-5.1c2.4-1.8,4.8-3.5,7-5.5
			C64.1,89.5,64.9,87.5,65.2,85.2z"/>
		<path fill="#FAF4A6" d="M57.9,86.1c-0.7-0.8-1.3-1.6-1.8-2.5c-0.4-0.7-0.7-1.5-0.7-2.4c-0.1-1.9,0.9-3.8,0.6-5.7
			c-0.1,0.9-0.9,1.7-1.8,1.8c-0.9,0.1-1.9-0.3-2.3-1.1c-0.6-1.1-0.1-2.5-0.5-3.7c-0.1-0.2-0.2-0.5-0.5-0.5c-0.2,0-0.3,0.1-0.5,0.3
			c-1.1,1.1-2.4,1.9-3.9,2.4c-0.5,0.2-1.1,0.3-1.7,0.1c-1.4-0.7-0.5-3.5-2-4.1c-0.5-0.2-1.2,0.1-1.6,0.5c-0.4,0.4-0.6,1-0.9,1.5
			c-1.7,3.8-4.2,7.4-8,9c-1,0.4-2.2,0.7-3.3,0.2c-0.7-0.3-1.2-1-1.5-1.7c-0.5-1.2-0.7-2.5-0.5-3.8c0.5-2.6,2.5-4.6,3.1-7.2
			c0.4-1.6,0.2-3.3-0.5-4.8c0,0,0,0,0,0c-3.7,5.4-5.2,12.3-4.3,18.8c0.9,6.5,4.3,12.6,9.3,16.9c1.4,1.2,3,2.3,4.7,2.9
			c3,1,6.4,0.5,9.4-0.7c3-1.2,5.6-3.2,8.2-5.1c2.1-1.5,4.2-3.1,6.2-4.8c-0.5-0.6-1.1-1.3-1.6-1.9C60.4,89,59.1,87.5,57.9,86.1z"/>
		<path fill="#FFC717" d="M51.1,55.1c-4.4-0.8-10,0.3-14.4,2c-1.5,1.3-2.9,2.6-4.2,4c0,0,0,0,0,0c0,0,0,0,0,0l0,0
			c-1,1-1.9,2.1-2.6,3.2c0.7,1.5,0.9,3.2,0.5,4.8c-0.6,2.5-2.6,4.6-3.1,7.2c-0.2,1.3-0.1,2.6,0.5,3.8c0.3,0.7,0.8,1.4,1.5,1.7
			c1,0.5,2.2,0.2,3.3-0.2c3.8-1.6,6.4-5.3,8-9c0.2-0.5,0.5-1.1,0.9-1.5c0.4-0.4,1-0.7,1.6-0.5c1.5,0.6,0.6,3.4,2,4.1
			c0.5,0.3,1.1,0.1,1.7-0.1c1.4-0.5,2.8-1.4,3.9-2.4c0.1-0.1,0.3-0.3,0.5-0.3c0.2,0,0.4,0.3,0.5,0.5c0.4,1.2-0.1,2.6,0.5,3.7
			c0.4,0.8,1.4,1.3,2.3,1.1c0.9-0.1,1.7-0.9,1.8-1.8c0.3,1.9-0.7,3.8-0.6,5.7c0.1,0.8,0.3,1.6,0.7,2.4c0.5,0.9,1.2,1.7,1.8,2.5
			c1.2,1.5,2.4,3,3.7,4.4c0.5,0.6,1.1,1.3,1.6,1.9c0.3-0.2,0.6-0.5,0.8-0.7c0.1-2.3,0.9-4.2,1.2-6.5c0.3-2.5-0.3-5.6-0.6-8.1
			c-0.5-4.4-2-9.3-3.8-13.3C58.8,59.3,56.1,56,51.1,55.1z"/>
	</g>
</g>
</svg>
