<?xml version="1.0" encoding="utf-8"?>
<!-- Generator: Adobe Illustrator 18.1.1, SVG Export Plug-In . SVG Version: 6.00 Build 0)  -->
<svg version="1.1" id="Layer_1" xmlns="http://www.w3.org/2000/svg" xmlns:xlink="http://www.w3.org/1999/xlink" x="0px" y="0px"
	 viewBox="0 0 128 128" enable-background="new 0 0 128 128" xml:space="preserve">
<g>
	<circle fill="#41B655" cx="64" cy="64" r="63.5"/>
	<g>
		<path fill="#FAF4A6" d="M82.4,30.7c-6.4,0-12,3.1-15.6,7.8c-2.5,1-5,2.1-7.3,3.5c-4.5,2.5-8.6,5.8-12.7,9
			c-4.8,3.8-9.6,7.7-14.4,11.5c-2.4,1.9-4.9,3.9-6.1,6.7c-0.9,1.9-1.1,4.1-1.3,6.2c-0.2,2.5-0.4,5.4,1.1,7.4
			c1.5,2.1,4.3,2.8,6.9,3.1c2.2,0.3,4.4,0.5,6.6,0.5c3.1,0.1,6.4-0.1,8.9-2c2.1-1.5,3.3-4,4.7-6.1c4-5.8,10.1-9.6,15.9-13.7
			c3.5,3.3,8.2,5.3,13.3,5.3c10.8,0,19.6-8.8,19.6-19.6C102,39.5,93.2,30.7,82.4,30.7z"/>
		<path fill="#FCD83A" d="M101.7,44.5c-0.6-1.2-1.4-2-2.5-2.4c-2.6-1-5.9,0.6-11.4,3.2l-1.2,0.6c-7.2,3.4-36.1,26.8-37.3,27.8
			c-0.3,0.2-0.5,0.6-0.6,1c0,0.1-0.9,5.6-3.1,8.7c-2.4,3.4-8.9,2.4-11.2,1.9c-1.1-0.2-5.2-1.7-6.6-4.6c-0.2-1.3-0.4-2.8-0.4-4.4
			c0-5.4,2-9.6,6-12.6c2.3-1.7,5.1-4,8.3-6.6c11.3-9.3,28.5-23.3,39.6-23.3c0.9,0,1.6-0.7,1.6-1.6s-0.7-1.6-1.6-1.6
			c-12.2,0-29.2,13.9-41.5,24c-3.2,2.6-6,4.9-8.2,6.5c-4.8,3.5-7.3,8.7-7.3,15.1c0,5.2,1.6,9.5,2.2,10.8c2.3,4.6,8.2,7.6,17.7,8.9
			c0.6,0.1,1.2,0.2,1.8,0.3c2.5,0.4,4.6,0.6,6.5,0.6c7,0,12.8-3.5,32.2-18.4c11.7-9,18-17.6,18.8-25.4
			C104.1,48.3,102.3,45.3,101.7,44.5z"/>
		<path fill="#D62E2F" d="M34.4,81.8C34.4,81.8,34.4,81.8,34.4,81.8c-0.9,0-1.6-0.8-1.5-1.6c0.1-1.4,1.2-2.5,2.6-2.5
			c0,0,0.1,0,0.1,0c0.3,0,0.4,0,0.5-0.1c0.9-0.9,1-4.3,1.1-5.6l0-0.3c0-1.5,0.1-3.7,2.6-5.3c1.2-0.8,2.6-1,3.7-1.2
			c0.4-0.1,0.8-0.2,1.2-0.2c2.8-0.8,4.9-1.7,6-4.1c1.6-3.6,3.5-6,8.2-6.6c2.4-0.3,3.3-1.2,4.9-4.3c1.9-3.9,6-4.7,9-5.3l0.4-0.1
			c1.7-0.3,2.5-0.8,2.7-1.1c0.2-0.2,0.4-0.7,0.6-1.2c0.5-1,1.1-2.5,2.5-3.5c2.6-1.8,6-1.7,8.8-1.5c0.4,0,0.9,0,1.3,0.1
			c0.9,0,1.6,0.7,1.5,1.6c0,0.9-0.7,1.6-1.6,1.5c-0.4,0-0.9,0-1.3-0.1c-2.4-0.1-5-0.2-6.8,1c-0.7,0.5-1.1,1.3-1.4,2.1
			c-0.3,0.7-0.6,1.4-1.1,2c-1,1.2-3,1.7-4.4,2l-0.4,0.1c-2.6,0.5-5.5,1.1-6.8,3.6c-1.8,3.6-3.4,5.5-7.3,6c-3.3,0.4-4.5,1.8-5.8,4.8
			c-1.6,3.7-5,5.1-8,5.9c-0.4,0.1-0.9,0.2-1.4,0.3c-1.1,0.2-2,0.4-2.7,0.8c-1.1,0.7-1.1,1.3-1.2,2.7l0,0.3c-0.1,2.9-0.3,6.2-2.1,7.8
			c-0.6,0.6-1.4,0.9-2.3,1C35.7,81.4,35.1,81.8,34.4,81.8z"/>
	</g>
</g>
</svg>
