<?xml version="1.0" encoding="utf-8"?>
<!-- Generator: Adobe Illustrator 18.1.1, SVG Export Plug-In . SVG Version: 6.00 Build 0)  -->
<svg version="1.1" id="Layer_1" xmlns="http://www.w3.org/2000/svg" xmlns:xlink="http://www.w3.org/1999/xlink" x="0px" y="0px"
	 viewBox="0 0 128 128" enable-background="new 0 0 128 128" xml:space="preserve">
<g>
	<circle fill="#388CCB" cx="64" cy="64" r="63.5"/>
	<g>
		<path fill="#FFC717" d="M45.8,51.3c2.7,1.6,6,3.1,8.1,5.5c1,1.1,1.5,2.8,2.2,4.1c0.8,1.5,1.5,3,2.1,4.5c1.1,3,1.9,6,2.8,9.2
			c1.5,5.4,2.3,10.9,3.8,16.2c3.6-9.6,5.3-20.5,11.6-28.7c1-1.4,2.3-2.3,3.5-3l0,0c0.5-3,0.7-6.1,0.7-9.4c0-18.8-8.3-34.1-18.5-34.1
			c-10.2,0-18.5,15.3-18.5,34.1l0.1,0.3C44.4,50.5,45.1,50.9,45.8,51.3z"/>
		<path fill="#FAF4A6" d="M53.7,56.7c0,0,0.1,0.1,0.1,0.1c1,1.1,1.5,2.7,2.2,4c0.1,0,0.1-0.1,0.2-0.1h11.4v11.4h-7.2
			c0,0-0.1,0-0.1,0c0.2,0.8,0.5,1.6,0.7,2.5c0.1,0.2,0.1,0.4,0.2,0.6h6.5v3.6c0,0.5,0.2,0.9,0.6,1.2c0.8-2.6,1.6-5.2,2.6-7.8
			c-0.1,0-0.1-0.1-0.2-0.1V60.8h6.9c0.7-0.6,1.4-1.2,2.2-1.5l0,0c0.1-0.5,0.1-1,0.2-1.5h-9.4V46.3h9.8c-0.1-1-0.1-2.1-0.3-3.1h-9.5
			V31.8h6.2c0.3,0,0.6-0.1,0.8-0.2c-0.3-1-0.7-1.9-1.1-2.8h-5.9v-9.1c-1-1-2-1.7-3.1-2.4v11.5H56.8V17.1c-1.1,0.6-2.1,1.3-3.1,2.3
			v9.4h-6.2c-0.4,0.9-0.8,1.9-1.1,2.8c0.2,0.1,0.5,0.2,0.8,0.2h6.5v11.4h-9.8c-0.1,1-0.2,2-0.3,3.1h10.1V56.7z M56.8,31.8h10.9v11.4
			H56.8V31.8z M56.8,46.3h10.9v11.4H56.8V46.3z"/>
		<path fill="#FEEDEF" d="M59.1,111.4c0.5-0.9,1.5-3.3,1.2-4.5c-4.1-0.2-8.6-2-11.5-5c-3.4-3.5-4.6-8.1-5.4-12.7
			C41.9,81.6,41,73.8,40,66.3c-0.1-0.9-0.3-1.9-0.5-2.8c-1.9-0.2-3.9,2.3-4.8,3.8c-1.1,1.7-1.5,3.9-3.1,5.1c0.4-2,0.1-4.1,0.3-6.2
			c0.2-1.6,0.8-3.1,1.3-4.6c1-3.4,2.1-7,3.5-10.3c1.8-4.2,6-2,9.1-0.1c2.7,1.6,6,3.1,8.1,5.5c1,1.1,1.5,2.8,2.2,4.1
			c0.8,1.5,1.5,3,2.1,4.5c1.1,3,1.9,6,2.8,9.2c1.5,5.4,2.3,10.9,3.8,16.2c3.6-9.6,5.3-20.5,11.6-28.7c5.2-6.7,14.1-4,16.7,3.3
			c1.1,3,1.9,6.6,3.3,9.5c-0.9-0.2-1.9-1.3-2.8-1.8c-1.5-0.9-3.5-2.1-5.1-2.5c-2-0.5-2.1,1.9-2.6,3.7c-1.3,4.7-1.7,9.3-2.7,14.1
			c-0.9,4.5-1.6,10.6-4.4,14.4c-1,1.3-2.7,2.7-4.3,3.2c-1.2,0.4-5.4,0.1-6.1,1c-0.5,0.7,0.3,3.8,0.3,4.8c-1.7,0.1-3.5,0.1-5.3,0
			c-1.2-0.1-3.2,0.1-4.2-0.3"/>
	</g>
</g>
</svg>
