<?xml version="1.0" encoding="utf-8"?>
<!-- Generator: Adobe Illustrator 18.1.1, SVG Export Plug-In . SVG Version: 6.00 Build 0)  -->
<svg version="1.1" id="Layer_1" xmlns="http://www.w3.org/2000/svg" xmlns:xlink="http://www.w3.org/1999/xlink" x="0px" y="0px"
	 viewBox="0 0 128 128" enable-background="new 0 0 128 128" xml:space="preserve">
<g>
	<circle fill="#388CCB" cx="64" cy="64" r="63.5"/>
	<g>
		<ellipse fill="#E67375" cx="56.2" cy="47.6" rx="26.2" ry="6.5"/>
		<path fill="#FBD839" d="M78.9,50.9c-4.5-1.9-13-3.3-22.7-3.3c-9.7,0-18.2,1.3-22.7,3.3c4.5,1.9,13,3.3,22.7,3.3
			C65.9,54.1,74.4,52.8,78.9,50.9z"/>
		<path fill="#FACDD4" d="M56.2,54.1c-14.5,0-26.2-2.9-26.2-6.5v51.2c0,3.6,11.7,6.5,26.2,6.5c14.5,0,26.2-2.9,26.2-6.5V47.6
			C82.5,51.2,70.7,54.1,56.2,54.1z"/>
		<path fill="#D62E2F" d="M93.6,93.4H82.5v-4h11.1c1.4,0,2.4-1.1,2.4-2.4V61.3c0-1.4-1.1-2.5-2.4-2.5H82.5v-4h11.1
			c3.5,0,6.4,2.9,6.4,6.4V87C100,90.5,97.1,93.4,93.6,93.4z"/>
		<rect x="39.8" y="27.8" fill="#E3E6E8" width="3" height="8.3"/>
		<rect x="49.8" y="22.7" fill="#E3E6E8" width="3" height="13.4"/>
		<rect x="59.7" y="24" fill="#E3E6E8" width="3" height="12.1"/>
		<rect x="69.7" y="27.8" fill="#E3E6E8" width="3" height="8.3"/>
	</g>
</g>
</svg>
