<?xml version="1.0" encoding="utf-8"?>
<!-- Generator: Adobe Illustrator 18.1.1, SVG Export Plug-In . SVG Version: 6.00 Build 0)  -->
<svg version="1.1" id="Layer_1" xmlns="http://www.w3.org/2000/svg" xmlns:xlink="http://www.w3.org/1999/xlink" x="0px" y="0px"
	 viewBox="0 0 128 128" enable-background="new 0 0 128 128" xml:space="preserve">
<g>
	<circle fill="#41B655" cx="64" cy="64" r="63.5"/>
	<g>
		<path fill="#FCD83A" d="M66.4,101.2c-2.8,0.9-5.9,1.4-9,1.4c-16.7,0-30.2-13.5-30.2-30.2s13.5-30.2,30.2-30.2
			c13.1,0,24.3,8.4,28.5,20.1"/>
		<path fill="#FFC717" d="M57.1,50.4c-0.2,0-0.4,0-0.6,0c-2.6-0.3-4.1-2.5-4.2-2.6c-0.4-0.6-0.2-1.3,0.3-1.7s1.3-0.2,1.7,0.3
			c0,0,1,1.4,2.5,1.5c1.2,0.1,2.5-0.5,3.9-1.7c0.5-0.5,1.2-0.4,1.7,0.1s0.4,1.2-0.1,1.7C60.5,49.6,58.8,50.4,57.1,50.4z"/>
		<path fill="#FDB619" d="M98.9,93.9c-11.9,11.9-30.3,12.9-41,2.2s-9.7-29.1,2.2-41"/>
		<path fill="#FFC717" d="M90.5,96.6C80.4,95.5,67,85,60.6,73.1s-3.2-20.8,7-19.8s23.6,11.6,29.9,23.5S100.7,97.6,90.5,96.6z"/>
		<path fill="#F7EC5C" d="M79.3,72.7L84,68c0.5-0.5,0-1.7-1.1-2.6C77,60.7,70.8,58.6,67,60.1c-0.7,0.3-0.4,1.4,0.6,2.4l9.4,9.4
			C77.9,72.8,78.9,73.1,79.3,72.7z"/>
		<path fill="#F7EC5C" d="M82.1,77l9.4,9.4c1,1,2.1,1.2,2.4,0.6c1.5-3.8-0.5-10-5.3-15.9c-0.8-1-2.1-1.6-2.6-1.1l-4.7,4.7
			C80.9,75.1,81.2,76.1,82.1,77z"/>
		<path fill="#F7EC5C" d="M78.8,77.2l-4.7,4.7c-0.5,0.5,0,1.7,1.1,2.6c5.9,4.7,12.1,6.8,15.9,5.3c0.7-0.3,0.4-1.4-0.6-2.4L81.1,78
			C80.2,77.1,79.2,76.8,78.8,77.2z"/>
		<path fill="#F7EC5C" d="M76,72.9l-9.4-9.4c-1-1-2.1-1.2-2.4-0.6c-1.5,3.8,0.5,10,5.3,15.9c0.8,1,2.1,1.6,2.6,1.1l4.7-4.7
			C77.2,74.8,76.9,73.8,76,72.9z"/>
		<path fill="#915037" d="M56.7,49.5L56.7,49.5c-0.9,0-1.6-0.8-1.6-1.7c0-0.7,0.7-16.6,12.8-23.5c0.8-0.4,1.7-0.2,2.2,0.6
			c0.4,0.8,0.2,1.7-0.6,2.2C58.9,33.2,58.3,47.8,58.3,48C58.3,48.8,57.6,49.5,56.7,49.5z"/>
		<path fill="#E3E6E8" d="M28.2,37c0,0,29.1,12,33.7-6.5C50.8,15.1,28.2,37,28.2,37z"/>
	</g>
</g>
</svg>
