<?xml version="1.0" encoding="utf-8"?>
<!-- Generator: Adobe Illustrator 18.1.1, SVG Export Plug-In . SVG Version: 6.00 Build 0)  -->
<svg version="1.1" id="Layer_1" xmlns="http://www.w3.org/2000/svg" xmlns:xlink="http://www.w3.org/1999/xlink" x="0px" y="0px"
	 viewBox="0 0 128 128" enable-background="new 0 0 128 128" xml:space="preserve">
<g>
	<circle fill="#FFC717" cx="64" cy="64" r="63.5"/>
	<g>
		<path fill="#5D5E61" d="M24.3,44.5v3.4h18.2c1.1,0,1.9,0.9,1.9,1.9c0,1.1-0.9,1.9-1.9,1.9H24.3v3.8h18.2c1.1,0,1.9,0.9,1.9,1.9
			s-0.9,1.9-1.9,1.9H24.3v3.4L47.1,64c5.9,0.3,10.8-4.4,10.8-10.3l0,0c0-5.9-4.9-10.6-10.8-10.3L24.3,44.5z"/>
		<path fill="#5D5E61" d="M57.9,53.7c0,1.2-0.2,2.3-0.6,3.4L98,59.3c3.1,0.2,5.7-2.3,5.7-5.4c0-3.1-2.6-5.6-5.7-5.4l-40.5,2.2
			C57.8,51.6,57.9,52.6,57.9,53.7z"/>
		<path fill="#FFFFFF" d="M30.9,64L30.9,64c-0.9,0-1.6-0.7-1.6-1.5V44.9c0-0.8,0.7-1.5,1.5-1.5h0c0.8,0,1.5,0.7,1.5,1.5v17.6
			C32.4,63.3,31.7,64,30.9,64z"/>
		<path fill="#FFFFFF" d="M36,64L36,64c-0.9,0-1.6-0.7-1.6-1.5V44.9c0-0.8,0.7-1.5,1.5-1.5h0c0.8,0,1.5,0.7,1.5,1.5v17.6
			C37.6,63.3,36.9,64,36,64z"/>
		<path fill="#FFFFFF" d="M41.2,64L41.2,64c-0.9,0-1.6-0.7-1.6-1.5V44.9c0-0.8,0.7-1.5,1.5-1.5h0c0.8,0,1.5,0.7,1.5,1.5v17.6
			C42.7,63.3,42.1,64,41.2,64z"/>
		<path fill="#FFFFFF" d="M53.9,67.4c-1.6-1.4-3.7-2.3-6-2.4c-1.7-0.1-3.4,0.2-4.9,0.9c-0.2-1.1-0.2-2.2-0.2-3.4
			C42.7,63.4,42,64,41.2,64c-0.7,0-1.3-0.5-1.5-1.1c0,1.6,0.2,3.2,0.5,4.8c-0.2,0.2-0.4,0.4-0.6,0.6c-2.3,2.5-2.9,6.1-1.6,9
			c1,2.1,2.8,3.6,4.1,4.5c1.5,1.1,3.2,2,4.9,2.7c0.2,0.1,0.4,0.1,0.6,0.1c0.6,0,1.1-0.3,1.4-0.9c0.3-0.8,0-1.6-0.8-2
			c-1.5-0.6-3-1.4-4.3-2.4c-1.6-1.1-2.6-2.2-3.1-3.3c-0.7-1.5-0.4-3.5,0.5-5c0.3,0.8,0.8,1.6,1.4,2.3c2.5,2.8,4.8,4.2,6.9,4.2
			c1.4,0,2.7-0.6,3.8-1.7c1-1.1,2.1-3.1,2-5C55.4,69.5,54.8,68.3,53.9,67.4z M51.2,73.8c-0.7,0.7-1.2,0.8-1.6,0.8
			c-1.2,0-2.9-1.2-4.7-3.2c-0.5-0.6-0.9-1.4-1.3-2.4c1.2-0.6,2.6-0.9,4.1-0.9c1.6,0.1,3,0.6,4.1,1.6c0.4,0.3,0.6,0.7,0.6,1.3
			C52.5,72,51.7,73.2,51.2,73.8z"/>
	</g>
</g>
</svg>
