<?xml version="1.0" encoding="utf-8"?>
<!-- Generator: Adobe Illustrator 18.1.1, SVG Export Plug-In . SVG Version: 6.00 Build 0)  -->
<svg version="1.1" id="Layer_1" xmlns="http://www.w3.org/2000/svg" xmlns:xlink="http://www.w3.org/1999/xlink" x="0px" y="0px"
	 viewBox="0 0 128 128" enable-background="new 0 0 128 128" xml:space="preserve">
<g>
	<circle fill="#388CCB" cx="64" cy="64" r="63.5"/>
	<g>
		<polygon fill="#E3E6E8" points="40.6,103.7 44.3,103.7 44.3,102 48.4,102 48.4,103.7 53.7,103.7 53.7,102 57.9,102 57.9,103.7 
			63.1,103.7 63.1,102 67.3,102 67.3,103.7 72.6,103.7 72.6,102 76.7,102 76.7,103.7 80.4,103.7 80.8,95.9 40.2,95.9 		"/>
		<polygon fill="#FFFFFF" points="37.8,42 40.2,95.9 80.8,95.9 83.2,42 		"/>
		<path fill="#D62E2F" d="M91.7,25.4c-0.5-1-1.7-1.3-2.6-0.8l-10.2,5.2c-0.4,0.2-0.7,0.6-0.9,1l-4.1,10.5c-0.1,0.2-0.1,0.5-0.1,0.7
			h4l3.6-9.1l9.5-4.9C91.8,27.5,92.2,26.3,91.7,25.4z"/>
		<path fill="#E67374" d="M69.2,60.3c-2-0.3-4-0.8-6.1-0.9c-3.6-0.1-7,1.2-10.4,2.3c-4.2,1.4-8.4,2.6-12.8,3l1.4,30.2h38.6l1.5-34.1
			C77.3,60.9,73.2,60.9,69.2,60.3z"/>
	</g>
</g>
</svg>
