<?xml version="1.0" encoding="utf-8"?>
<!-- Generator: Adobe Illustrator 18.1.1, SVG Export Plug-In . SVG Version: 6.00 Build 0)  -->
<svg version="1.1" id="Layer_1" xmlns="http://www.w3.org/2000/svg" xmlns:xlink="http://www.w3.org/1999/xlink" x="0px" y="0px"
	 viewBox="0 0 128 128" enable-background="new 0 0 128 128" xml:space="preserve">
<g>
	<circle fill="#41B655" cx="64" cy="64" r="63.5"/>
	<g>
		<path fill="#753A29" d="M90.3,66.4l10.2,0.9c1.7,0.1,3.2-1.3,3.2-3.2v0c0-1.9-1.5-3.3-3.2-3.2l-10.2,0.9V66.4z"/>
		<path fill="#753A29" d="M37.7,66.4l-10.2,0.9c-1.7,0.1-3.2-1.3-3.2-3.2v0c0-1.9,1.5-3.3,3.2-3.2l10.2,0.9V66.4z"/>
		<path fill="#915037" d="M86.8,71.4H41.1c-1.9,0-3.4-1.5-3.4-3.4v-7.8c0-1.9,1.5-3.4,3.4-3.4h45.7c1.9,0,3.4,1.5,3.4,3.4V68
			C90.2,69.8,88.7,71.4,86.8,71.4z"/>
		<path fill="#FAF4A6" d="M41.1,56.8h44c-0.1-0.4-0.2-0.8-0.2-1.2c0-1.7,1-3.2,1.3-4.8c0.3-1.5-0.1-3-0.2-4.4c-0.1-1-0.1-2,0-2.9
			c0.2-1.7-1-3.4-2.7-3.8c-0.6-0.1-1.1-0.3-1.6-0.6c-1.4-1-1.8-3-3.2-4.1c-1.1-0.9-2.6-1-3.9-0.8c-1.4,0.2-2.7,0.7-4,1
			c-3.9,0.7-7.8-0.5-11.6-1.2c-0.6-0.1-1.3-0.2-1.8,0.1c-0.4,0.2-0.7,0.5-0.9,0.9c-2.1,2.8-4.2,6.3-7.6,7C47.7,42,46.7,42,46,42.6
			c-0.5,0.4-0.7,1.1-0.9,1.7c-0.8,1.9-2.1,3.6-3.7,4.8c-0.5,0.4-1.1,0.8-1.5,1.3c-0.4,0.5-0.5,1.2-0.5,1.8c-0.1,1.6,0.4,3.2,0.8,4.8
			C40.4,56.8,40.7,56.8,41.1,56.8z"/>
		<path fill="#FAF4A6" d="M86.8,71.4h-2.7c0,0,0,0,0,0H43.8c0,0,0,0,0,0h-2.5c0.3,0.8,0.3,1.6,0,2.4c-0.8,1.7-2.9,2.1-4.4,3.1
			c-1.8,1.3-2.7,3.6-3,5.8c-0.2,1.4-0.2,2.9,0.3,4.2c0.6,1.3,1.8,2.4,3.2,2.4c0.9,0,2-0.5,2.8,0.1c0.3,0.2,0.5,0.6,0.8,0.9
			c1.9,2.9,5.6,4,9,4.1c3.4,0.1,6.8-0.7,10.2-0.7c4.8,0,9.9,1.4,14.3-0.7c1.3-0.6,2.6-1.6,4-2c2.3-0.6,5,0.1,6.8-1.4
			c1.8-1.5,1.6-4.2,2.5-6.3c0.6-1.3,1.6-2.5,1.9-3.9c0.6-2.8-1.5-5.2-2.5-7.9C87,71.3,86.9,71.4,86.8,71.4z"/>
	</g>
</g>
</svg>
