<?xml version="1.0" encoding="utf-8"?>
<!-- Generator: Adobe Illustrator 18.1.1, SVG Export Plug-In . SVG Version: 6.00 Build 0)  -->
<svg version="1.1" id="Layer_1" xmlns="http://www.w3.org/2000/svg" xmlns:xlink="http://www.w3.org/1999/xlink" x="0px" y="0px"
	 viewBox="0 0 128 128" enable-background="new 0 0 128 128" xml:space="preserve">
<g>
	<circle fill="#388CCB" cx="64" cy="64" r="63.5"/>
	<g>
		<path fill="#F7EC5C" d="M42.5,73.5c-0.8-6-5.9-15.7-11.9-16.1c0,0-3.6-0.8-4.8,1.9c-2,4.1,1.3,15.8,2.7,20.5
			c2.6-2,5.4-3.7,8.6-4.9C38.8,74.3,40.6,73.8,42.5,73.5z"/>
		<g>
			<polygon fill="#F7EC5C" points="48.4,77.2 48.4,77.2 48.4,77.2 			"/>
			<path fill="#F7EC5C" d="M38.3,92.6L38.3,92.6L38.3,92.6C38.3,92.7,38.3,92.7,38.3,92.6z"/>
			<path fill="#F7EC5C" d="M63.5,82.5c-2.9-0.7-9-2.7-11.9-3.4c-4.3,4.5-7.2,9.8-9.5,15.4c5.4,3.5,14.1,6.6,18.8,6.1
				C60.4,95,60.7,89,63.5,82.5z"/>
		</g>
		<g>
			<path fill="#FCD83A" d="M73.8,79.3c-2.7,1.3-7.6,2.4-10.4,3.7c-2.7,6.3-2.9,12.1-2.5,17.7c8-0.9,16.6-7,19.1-13.1
				C76.6,86.1,74.3,83.4,73.8,79.3z"/>
			<polygon fill="#FCD83A" points="55.5,100.2 55.5,100.2 55.5,100.2 			"/>
		</g>
		<path fill="#F7EC5C" d="M86.3,75.3c-3.1-5.3-6.1-10.7-9.2-16c-2.9,5.9-4.9,12.8-3.6,20.1c0.1,0,0.2-0.1,0.3-0.1
			c0.6,4.1,2.8,6.8,6.2,8.4c-0.1,0.2-0.2,0.3-0.2,0.5l0,0c8.5-2.1,18.7-7.4,24.7-13.1C105.4,74.6,86.3,75.3,86.3,75.3z"/>
		<path fill="#F7EC5C" d="M42.5,73.5c-0.8-6-5.9-15.7-11.9-16.1c0,0-3.6-0.8-4.8,1.9c-2,4.1,1.3,15.8,2.7,20.5
			c2.6-2,5.4-3.7,8.6-4.9C38.8,74.3,40.6,73.8,42.5,73.5z"/>
		<circle fill="#5D5E61" cx="32.4" cy="66" r="1.5"/>
		<path fill="#E3E6E8" d="M63.4,83c2.8-1.3,7.6-2.4,10.4-3.7c0.6,4.1,2.8,6.8,6.2,8.4c-2.6,6-11.2,12.2-19.1,13.1"/>
		<path fill="#E3E6E8" d="M43.9,56.6c-0.1,0-0.3,0-0.4-0.1c-0.6-0.2-0.8-0.9-0.6-1.5c1-2.4,1.3-5.1,0.9-7.6c-0.2-1-0.4-1.7-0.7-2.3
			c-0.2-0.4-0.5-0.7-0.8-1.1c-0.3-0.4-0.6-0.8-0.9-1.3c-1.1-1.8-1.3-3.8-1.3-5.4c-0.1-4.2,1-7.6,3.2-9.7c0.4-0.4,1.1-0.4,1.6,0
			c0.4,0.4,0.4,1.2,0,1.6c-2.2,2.1-2.6,5.5-2.5,8.1c0.1,1.9,0.4,3.3,1,4.3c0.2,0.3,0.5,0.7,0.8,1c0.3,0.4,0.7,0.9,1,1.4
			c0.5,0.8,0.8,1.8,1,3.1c0.5,3,0.1,6.1-1,8.9C44.8,56.3,44.4,56.6,43.9,56.6z"/>
		<path fill="#E3E6E8" d="M59.4,56.6c-0.1,0-0.3,0-0.4-0.1c-0.6-0.2-0.8-0.9-0.6-1.5c1-2.4,1.3-5.1,0.9-7.6c-0.2-1-0.4-1.7-0.7-2.3
			c-0.2-0.4-0.5-0.8-0.8-1.1c-0.3-0.4-0.6-0.8-0.9-1.3c-1.1-1.8-1.3-3.8-1.3-5.4c-0.1-4.2,1-7.6,3.2-9.7c0.4-0.4,1.1-0.4,1.6,0
			c0.4,0.4,0.4,1.2,0,1.6c-2.2,2.1-2.6,5.5-2.5,8.1c0,1.3,0.2,3,1,4.3c0.2,0.3,0.5,0.7,0.8,1c0.3,0.4,0.7,0.9,1,1.4
			c0.5,0.8,0.8,1.8,1,3.1c0.5,3,0.1,6.1-1,8.9C60.3,56.3,59.8,56.6,59.4,56.6z"/>
		<path fill="#E3E6E8" d="M74.9,56.6c-0.1,0-0.3,0-0.4-0.1c-0.6-0.2-0.8-0.9-0.6-1.5c1-2.4,1.3-5.1,0.9-7.6c-0.2-1-0.4-1.7-0.7-2.3
			c-0.2-0.4-0.5-0.8-0.8-1.1c-0.3-0.4-0.6-0.8-0.9-1.3c-1.1-1.8-1.3-3.8-1.3-5.4c-0.1-4.2,1-7.6,3.2-9.7c0.4-0.4,1.1-0.4,1.6,0
			c0.4,0.4,0.4,1.2,0,1.6c-2.2,2.1-2.6,5.5-2.5,8.1c0.1,1.9,0.4,3.3,1,4.3c0.2,0.3,0.5,0.7,0.8,1c0.3,0.4,0.7,0.9,1,1.4
			c0.5,0.8,0.8,1.8,1,3.1c0.5,3,0.1,6.1-1,8.9C75.7,56.3,75.3,56.6,74.9,56.6z"/>
		<g>
			<polygon fill="#F7EC5C" points="48.4,77.2 48.4,77.2 48.4,77.2 			"/>
			<path fill="#F7EC5C" d="M38.3,92.6L38.3,92.6L38.3,92.6C38.3,92.7,38.3,92.7,38.3,92.6z"/>
			<path fill="#F7EC5C" d="M63.5,82.5c-2.9-0.7-9-2.7-11.9-3.4c-4.3,4.5-7.2,9.8-9.5,15.4c5.4,3.5,14.1,6.6,18.8,6.1
				C60.4,95,60.7,89,63.5,82.5z"/>
		</g>
		<path fill="#FCD83A" d="M42.5,73.5c-1.9,0.3-3.7,0.8-5.4,1.4c-3.2,1.2-6,2.8-8.6,4.9c1.3,7.3,8.6,13,13.6,14.8
			c2.3-5.7,5.3-11,9.5-15.4C49.4,77.7,44.7,74.9,42.5,73.5z"/>
		<g>
			<path fill="#FCD83A" d="M73.8,79.3c-2.7,1.3-7.6,2.4-10.4,3.7c-2.7,6.3-2.9,12.1-2.5,17.7c8-0.9,16.6-7,19.1-13.1
				C76.6,86.1,74.3,83.4,73.8,79.3z"/>
			<polygon fill="#FCD83A" points="55.5,100.2 55.5,100.2 55.5,100.2 			"/>
		</g>
		<path fill="#F7EC5C" d="M86.3,75.3c-3.1-5.3-6.1-10.7-9.2-16c-2.9,5.9-4.9,12.8-3.6,20.1c0.1,0,0.2-0.1,0.3-0.1
			c0.6,4.1,2.8,6.8,6.2,8.4c-0.1,0.2-0.2,0.3-0.2,0.5l0,0c8.5-2.1,18.7-7.4,24.7-13.1C105.4,74.6,86.3,75.3,86.3,75.3z"/>
		<path fill="#FCD83A" d="M42.5,73.5c-1.9,0.3-3.7,0.8-5.4,1.4c-3.2,1.2-6,2.8-8.6,4.9c1.3,7.3,8.6,13,13.6,14.8
			c2.3-5.7,5.3-11,9.5-15.4C49.4,77.7,44.7,74.9,42.5,73.5z"/>
	</g>
</g>
</svg>
