<?xml version="1.0" encoding="utf-8"?>
<!-- Generator: Adobe Illustrator 18.1.1, SVG Export Plug-In . SVG Version: 6.00 Build 0)  -->
<svg version="1.1" id="Layer_1" xmlns="http://www.w3.org/2000/svg" xmlns:xlink="http://www.w3.org/1999/xlink" x="0px" y="0px"
	 viewBox="0 0 128 128" enable-background="new 0 0 128 128" xml:space="preserve">
<g>
	<circle fill="#41B655" cx="64" cy="64" r="63.5"/>
	<g>
		<path fill="#E3E6E8" d="M41.6,73.5c-0.8-6-5.9-15.7-11.9-16.1c0,0-3.6-0.8-4.8,1.9c-2,4.1,1.3,15.8,2.7,20.5
			c2.6-2,5.4-3.7,8.6-4.9C37.9,74.3,39.7,73.8,41.6,73.5z"/>
		<path fill="#E3E6E8" d="M62.5,83c2.8-1.3,7.6-2.4,10.4-3.7c0.6,4.1,2.8,6.8,6.2,8.4c-2.6,6-11.2,12.2-19.1,13.1"/>
		<g>
			<polygon fill="#E3E6E8" points="47.6,77.2 47.6,77.2 47.6,77.2 			"/>
			<path fill="#E3E6E8" d="M37.4,92.6L37.4,92.6L37.4,92.6C37.4,92.7,37.4,92.7,37.4,92.6z"/>
			<path fill="#E3E6E8" d="M62.7,82.5c-2.9-0.7-9-2.7-11.9-3.4c-4.3,4.5-7.2,9.8-9.5,15.4c5.4,3.5,14.1,6.6,18.8,6.1
				C59.5,95,59.8,89,62.7,82.5z"/>
		</g>
		<path fill="#CACED1" d="M41.6,73.5c-1.9,0.3-3.7,0.8-5.4,1.4c-3.2,1.2-6,2.8-8.6,4.9c1.3,7.3,8.6,13,13.6,14.8
			c2.3-5.7,5.3-11,9.5-15.4C48.5,77.7,43.9,74.9,41.6,73.5z"/>
		<g>
			<path fill="#CACED1" d="M72.9,79.3c-2.7,1.3-7.6,2.4-10.4,3.7c-2.7,6.3-2.9,12.1-2.5,17.7c8-0.9,16.6-7,19.1-13.1
				C75.7,86.1,73.5,83.4,72.9,79.3z"/>
			<polygon fill="#CACED1" points="54.6,100.2 54.6,100.2 54.6,100.2 			"/>
		</g>
		<path fill="#E3E6E8" d="M85.4,75.3c-3.1-5.3-6.1-10.7-9.2-16c-2.9,5.9-4.9,12.8-3.6,20.1c0.1,0,0.2-0.1,0.3-0.1
			c0.6,4.1,2.8,6.8,6.2,8.4c-0.1,0.2-0.2,0.3-0.2,0.5l0,0c8.5-2.1,18.7-7.4,24.7-13.1C104.5,74.6,85.4,75.3,85.4,75.3z"/>
		<circle fill="#5D5E61" cx="32.4" cy="64.8" r="1.5"/>
		<path fill="#E3E6E8" d="M46.2,69.8c-0.1,0-0.2,0-0.3-0.1c-0.4-0.2-0.6-0.6-0.4-1c0.7-1.6,0.9-3.4,0.6-5.2
			c-0.1-0.7-0.3-1.2-0.5-1.6c-0.1-0.3-0.3-0.5-0.5-0.8c-0.2-0.3-0.4-0.5-0.6-0.9c-0.7-1.2-0.9-2.6-0.9-3.7c-0.1-2.9,0.7-5.1,2.1-6.6
			c0.3-0.3,0.8-0.3,1.1,0c0.3,0.3,0.3,0.8,0,1.1C45.2,52.6,45,55,45,56.7c0,1.3,0.2,2.2,0.7,2.9c0.1,0.2,0.3,0.5,0.5,0.7
			c0.2,0.3,0.5,0.6,0.7,0.9c0.3,0.6,0.5,1.2,0.7,2.1c0.3,2,0.1,4.1-0.7,6C46.8,69.6,46.5,69.8,46.2,69.8z"/>
		<path fill="#E3E6E8" d="M56.6,69.8c-0.1,0-0.2,0-0.3-0.1c-0.4-0.2-0.6-0.6-0.4-1c0.7-1.6,0.9-3.4,0.6-5.2
			c-0.1-0.7-0.3-1.2-0.5-1.6c-0.1-0.3-0.3-0.5-0.5-0.8c-0.2-0.3-0.4-0.5-0.6-0.9c-0.7-1.2-0.9-2.6-0.9-3.7c-0.1-2.9,0.7-5.1,2.1-6.6
			c0.3-0.3,0.8-0.3,1.1,0c0.3,0.3,0.3,0.8,0,1.1c-1.5,1.4-1.7,3.8-1.7,5.5c0,0.9,0.1,2,0.7,2.9c0.1,0.2,0.3,0.5,0.5,0.7
			c0.2,0.3,0.5,0.6,0.7,0.9c0.3,0.6,0.5,1.2,0.7,2.1c0.3,2,0.1,4.1-0.7,6C57.2,69.6,56.9,69.8,56.6,69.8z"/>
		<path fill="#E3E6E8" d="M67.1,69.8c-0.1,0-0.2,0-0.3-0.1c-0.4-0.2-0.6-0.6-0.4-1c0.7-1.6,0.9-3.4,0.6-5.2
			c-0.1-0.7-0.3-1.2-0.5-1.6c-0.1-0.3-0.3-0.5-0.5-0.8c-0.2-0.3-0.4-0.5-0.6-0.9c-0.7-1.2-0.9-2.6-0.9-3.7c-0.1-2.9,0.7-5.1,2.1-6.6
			c0.3-0.3,0.8-0.3,1.1,0c0.3,0.3,0.3,0.8,0,1.1c-1.5,1.4-1.7,3.8-1.7,5.5c0,1.3,0.2,2.2,0.7,2.9c0.1,0.2,0.3,0.5,0.5,0.7
			c0.2,0.3,0.5,0.6,0.7,0.9c0.3,0.6,0.5,1.2,0.7,2.1c0.3,2,0.1,4.1-0.7,6C67.7,69.6,67.4,69.8,67.1,69.8z"/>
		<path fill="#E67374" d="M77.9,43.1c0.6-0.6,2.6,0.4,4.4,2.3s2.9,3.9,2.3,4.5c-0.6,0.6-2.6-0.4-4.4-2.3
			C78.3,45.7,77.3,43.7,77.9,43.1z"/>
		<path fill="#D62E2F" d="M84.9,34.4c-0.6,2.4-2,4.5-3.9,6L78,43l0,0c0.7-0.4,2.6,0.6,4.3,2.4c1.8,1.8,2.8,3.7,2.4,4.4l0,0l2.6-3.1
			c1.6-1.9,3.6-3.3,6-3.9c1.3-0.3,2.6-1,3.6-2c2.9-2.9,3-7.5,0.2-10.3c-2.8-2.8-7.3-2.7-10.2,0.2C85.9,31.8,85.2,33,84.9,34.4z"/>
		<path fill="#FFFFFF" d="M74.9,49.5c-0.3,0-0.6-0.1-0.8-0.3c-0.4-0.4-0.4-1.2,0-1.6l0.6-0.6c0.4-0.4,1.2-0.4,1.6,0s0.4,1.2,0,1.6
			l-0.6,0.6C75.5,49.4,75.2,49.5,74.9,49.5z"/>
		<path fill="#FFFFFF" d="M79.1,53c-0.3,0-0.6-0.1-0.8-0.3c-0.4-0.4-0.4-1.2,0-1.6l0.6-0.6c0.4-0.4,1.2-0.4,1.6,0s0.4,1.2,0,1.6
			l-0.6,0.6C79.7,52.8,79.4,53,79.1,53z"/>
		<path fill="#FFFFFF" d="M73.9,55.1c-0.3,0-0.6-0.1-0.8-0.3c-0.4-0.4-0.4-1.2,0-1.6l0.6-0.6c0.4-0.4,1.2-0.4,1.6,0
			c0.4,0.4,0.4,1.2,0,1.6l-0.6,0.6C74.5,54.9,74.2,55.1,73.9,55.1z"/>
	</g>
</g>
</svg>
