<?xml version="1.0" encoding="utf-8"?>
<!-- Generator: Adobe Illustrator 18.1.1, SVG Export Plug-In . SVG Version: 6.00 Build 0)  -->
<svg version="1.1" id="Layer_1" xmlns="http://www.w3.org/2000/svg" xmlns:xlink="http://www.w3.org/1999/xlink" x="0px" y="0px"
	 viewBox="0 0 128 128" enable-background="new 0 0 128 128" xml:space="preserve">
<g>
	<circle fill="#EF4538" cx="64" cy="64" r="63.5"/>
	<g>
		<ellipse fill="#B1B4B8" cx="54.9" cy="34.2" rx="30.6" ry="7.6"/>
		<path fill="#E3E6E8" d="M54.9,41.7c-16.9,0-30.6-3.4-30.6-7.6v59.7c0,4.2,13.7,7.6,30.6,7.6c16.9,0,30.6-3.4,30.6-7.6V34.2
			C85.5,38.3,71.8,41.7,54.9,41.7z"/>
		<g>
			<path fill="#E3E6E8" d="M98.4,87.2H85.5v-4h12.8c1.8,0,3.3-1.5,3.3-3.3V50.2c0-1.8-1.5-3.3-3.3-3.3H85.5v-4h12.8
				c4,0,7.3,3.3,7.3,7.3V80C105.7,84,102.4,87.2,98.4,87.2z"/>
		</g>
	</g>
</g>
</svg>
