<?xml version="1.0" encoding="utf-8"?>
<!-- Generator: Adobe Illustrator 18.1.1, SVG Export Plug-In . SVG Version: 6.00 Build 0)  -->
<svg version="1.1" id="Layer_1" xmlns="http://www.w3.org/2000/svg" xmlns:xlink="http://www.w3.org/1999/xlink" x="0px" y="0px"
	 viewBox="0 0 128 128" enable-background="new 0 0 128 128" xml:space="preserve">
<g>
	<circle fill="#EF4538" cx="64" cy="64" r="63.5"/>
	<g>
		<polygon fill="#FAF4A6" points="64.9,70.5 25.2,52.4 25.2,77.5 64.9,95.7 104.5,73.2 104.5,48.1 		"/>
		<path fill="#753A29" d="M64.8,82.2L25.2,64.1v3.6l39,17.8c0.2,0.1,0.4,0.1,0.7,0.1c0.3,0,0.6-0.1,0.8-0.2l38.9-22v-3.8L64.8,82.2z
			"/>
		<polygon fill="#FFFFFF" points="25.2,52.4 69.6,32.3 104.5,48.1 64.9,70.5 		"/>
		<path fill="#915037" d="M82.3,53.8c-0.3,0-0.6-0.1-0.9-0.3c-0.5-0.5-1.2-0.9-2-1.3c-1.2-0.6-2.5-1.3-3.3-2.6
			c-0.3-0.6-0.5-1.2-0.7-1.8c-0.1-0.5-0.3-0.9-0.4-1.2c-0.5-0.9-1.8-1.4-2.7-1.5c-0.5-0.1-1-0.2-1.5-0.2c-0.9-0.1-1.9-0.2-2.8-0.5
			c-2-0.6-3.8-2.5-3.3-4.6c0.2-0.7,0.8-1.1,1.5-0.9c0.7,0.2,1.1,0.8,0.9,1.5c-0.1,0.6,0.8,1.4,1.6,1.7c0.7,0.2,1.5,0.3,2.4,0.4
			c0.6,0.1,1.1,0.1,1.7,0.3c2.1,0.4,3.6,1.4,4.4,2.7c0.3,0.6,0.5,1.2,0.7,1.8c0.1,0.5,0.3,0.9,0.4,1.2c0.4,0.7,1.3,1.2,2.3,1.7
			c0.9,0.5,1.8,0.9,2.5,1.7c0.5,0.5,0.5,1.2,0,1.7C83,53.6,82.7,53.8,82.3,53.8z"/>
		<path fill="#F4B1A8" d="M65.3,63.4c-0.5,0-0.9-0.3-1.1-0.7c-0.6-1.4-1.2-2.9-2.4-3.8c-1.1-0.9-2.7-1.1-4.3-1.3
			c-1.2-0.2-2.4-0.3-3.6-0.8c-3.3-1.2-5.7-4.5-5.9-8c0-0.7,0.5-1.3,1.2-1.3c0.7,0,1.3,0.5,1.3,1.2c0.1,2.5,1.9,4.9,4.3,5.8
			c0.9,0.3,2,0.5,3.1,0.6c1.9,0.3,3.8,0.5,5.5,1.8c1.6,1.3,2.5,3.2,3.1,4.8c0.3,0.6,0,1.3-0.6,1.6C65.7,63.3,65.5,63.4,65.3,63.4z"
			/>
		<path fill="#FFC717" d="M73.4,57.5c-0.5,0-0.9-0.3-1.1-0.7c-0.6-1.4-1.2-2.9-2.4-3.8c-1.1-0.9-2.7-1.1-4.3-1.3
			c-1.2-0.2-2.4-0.3-3.6-0.8c-3.3-1.2-5.7-4.5-5.9-8c0-0.7,0.5-1.3,1.2-1.3c0.7,0,1.3,0.5,1.3,1.2c0.1,2.5,1.9,4.9,4.3,5.8
			c0.9,0.3,2,0.5,3.1,0.6c1.9,0.3,3.8,0.5,5.5,1.8c1.6,1.3,2.5,3.2,3.1,4.8c0.3,0.6,0,1.3-0.6,1.6C73.7,57.5,73.6,57.5,73.4,57.5z"
			/>
	</g>
</g>
</svg>
