<?xml version="1.0" encoding="utf-8"?>
<!-- Generator: Adobe Illustrator 18.1.1, SVG Export Plug-In . SVG Version: 6.00 Build 0)  -->
<svg version="1.1" id="Layer_1" xmlns="http://www.w3.org/2000/svg" xmlns:xlink="http://www.w3.org/1999/xlink" x="0px" y="0px"
	 viewBox="0 0 128 128" enable-background="new 0 0 128 128" xml:space="preserve">
<g>
	<circle fill="#388CCB" cx="64" cy="64" r="63.5"/>
	<g>
		<ellipse fill="#92513B" cx="50.6" cy="62.2" rx="11.7" ry="14.9"/>
		<ellipse fill="#FACDD4" cx="65.2" cy="70.7" rx="11.7" ry="14.9"/>
		<circle fill="#FFFFFF" cx="42.6" cy="73.9" r="11.7"/>
		<circle fill="#FBD839" cx="85.4" cy="73.9" r="11.7"/>
		<g>
			<polygon fill="#915037" points="100.5,86.9 26.7,86.9 24.3,79.3 102.9,79.3 			"/>
			<path fill="#FEEDEF" d="M85.4,58.7c-8.7,0-15.8,7.1-15.8,15.8c0,1.7,0.3,3.3,0.7,4.8l6.4,0c-0.8-1.4-1.2-3-1.2-4.8
				c0-5.5,4.4-9.9,9.9-9.9s9.9,4.4,9.9,9.9c0,1.7-0.4,3.3-1.2,4.7l6.4,0c0.5-1.5,0.7-3.1,0.7-4.7C101.2,65.8,94.1,58.7,85.4,58.7z"
				/>
			<path fill="#FFC717" d="M42.6,58.1c-8.7,0-15.8,7.1-15.8,15.8c0,1.9,0.3,3.7,0.9,5.4l6.5,0c-1-1.5-1.6-3.4-1.6-5.4
				c0-5.5,4.4-9.9,9.9-9.9s9.9,4.4,9.9,9.9c0,1.8-0.5,3.9-1.4,5.4l-16.8,0l23.2,0c0.6-1.7,0.9-3.5,0.9-5.4
				C58.4,65.2,51.3,58.1,42.6,58.1z"/>
			<path fill="#E67375" d="M65.6,52.2c-6.2,0-11.5,3.5-14.1,8.6v0c1.6,1.1,3,2.5,4.1,4.1l0.5,0.1c1.3-4,5-6.9,9.5-6.9
				c3.8,0,7,2.1,8.7,5.2l0,0c1.3-1.3,2.9-2.4,4.7-3.2v-0.5C76.2,55.2,71.2,52.2,65.6,52.2z"/>
			<path fill="#FCD83A" d="M65.4,52.2c-2.7-5-7.9-8.4-14-8.4c-8.7,0-15.8,7.1-15.8,15.8l0.4-0.1c1.7-0.8,3.6-1.2,5.5-1.4l0.1,0l0,0
				c0.7-4.8,4.8-8.4,9.8-8.4c3.2,0,6,1.5,7.8,3.8l0,0C61.2,52.7,63.3,52.2,65.4,52.2z"/>
		</g>
	</g>
</g>
</svg>
