<?xml version="1.0" encoding="utf-8"?>
<!-- Generator: Adobe Illustrator 18.1.1, SVG Export Plug-In . SVG Version: 6.00 Build 0)  -->
<svg version="1.1" id="Layer_1" xmlns="http://www.w3.org/2000/svg" xmlns:xlink="http://www.w3.org/1999/xlink" x="0px" y="0px"
	 viewBox="0 0 128 128" enable-background="new 0 0 128 128" xml:space="preserve">
<g>
	<circle fill="#41B655" cx="64" cy="64" r="63.5"/>
	<g>
		<ellipse fill="#915037" cx="64" cy="63.7" rx="39.7" ry="8.7"/>
		<ellipse fill="#FFFFFF" cx="64" cy="63.7" rx="31.3" ry="4.6"/>
		<path fill="#753A29" d="M64,72.4c-20,0-36.6-3.3-39.3-7.5l7.5,23.3c0.6,2,2.5,3.3,4.6,3.3h54.4c2.1,0,3.9-1.3,4.6-3.3l7.5-23.3
			C100.6,69.1,84,72.4,64,72.4z"/>
		<polygon fill="#FFC717" points="30.7,44.5 48.9,62.6 56.5,37.1 		"/>
		<polygon fill="#FCD83A" points="56,38.7 54.9,42.4 61.5,62.6 79.8,43.3 		"/>
		<polygon fill="#FFC717" points="72.6,36.5 73.2,42 79.8,43.3 74,49.4 75.4,61.9 97.3,46.8 		"/>
	</g>
</g>
</svg>
