<?xml version="1.0" encoding="utf-8"?>
<!-- Generator: Adobe Illustrator 18.1.1, SVG Export Plug-In . SVG Version: 6.00 Build 0)  -->
<svg version="1.1" id="Layer_1" xmlns="http://www.w3.org/2000/svg" xmlns:xlink="http://www.w3.org/1999/xlink" x="0px" y="0px"
	 viewBox="0 0 128 128" enable-background="new 0 0 128 128" xml:space="preserve">
<g>
	<circle fill="#388CCB" cx="64" cy="64" r="63.5"/>
	<g>
		<polygon fill="#D62E2F" points="87.2,103.7 40.8,103.7 30.6,45.8 97.4,45.8 		"/>
		<polygon fill="#FFFFFF" points="78.8,103.7 49.2,103.7 42.7,45.8 85.3,45.8 		"/>
		<polygon fill="#D62E2F" points="69,103.7 59,103.7 56.8,45.8 71.2,45.8 		"/>
		<path fill="#FAF4A6" d="M92.6,45.8c-0.6-1.7-0.9-3.5-0.9-5.2c0-0.2,0-0.5-0.1-0.7c-0.1-0.2-0.3-0.3-0.5-0.4
			c-0.6-0.4-1.3-0.8-1.5-1.4c-0.1-0.4,0.1-0.8,0-1.2c-0.1-0.5-0.8-0.9-1.4-1s-1.3,0-2,0c-1.6,0-3.1-0.5-4.2-1.4
			c-0.7-0.6-1.3-1.4-0.9-2.2c-3.1,0.3-6.1,0.4-9.2,0.4c0.2-0.5-0.1-1.1-0.6-1.5c-0.5-0.3-1.2-0.5-1.9-0.5c-1.9-0.1-3.8,0.3-5.3,1.1
			c-0.8,0.4-1.5,0.9-2.3,1.3c-0.8,0.3-1.9,0.4-2.6,0c-0.3-0.2-0.6-0.4-0.8-0.7c-1.1-0.9-2.8-1.2-4.2-0.8c-1.4,0.4-2.6,1.5-2.9,2.7
			c-0.2,1,0,2.2-1,2.8c-0.3-0.6-0.7-1.3-1-1.9c-2,0.2-4,0.8-5.6,1.8c-0.6,0.4-1.2,0.8-1.9,1c-1,0.3-2.1,0-3.1,0.2
			c-1.7,0.3-2.9,2-2.3,3.4c-0.2-0.5-1.2-0.6-1.7-0.3c-0.5,0.4-0.7,1-0.8,1.5c-0.2,0.9-0.2,1.9-0.2,2.9H92.6z"/>
		<ellipse fill="#FAF4A6" cx="38.2" cy="32.2" rx="2.8" ry="1.7"/>
		<ellipse fill="#FAF4A6" cx="59.5" cy="26.4" rx="1.9" ry="2.1"/>
		<ellipse fill="#FAF4A6" cx="82.7" cy="26.3" rx="2.7" ry="1.5"/>
		<path fill="#FAF4A6" d="M96.4,31.9c-0.4,1.3-1.6,2.2-2.8,2s-1.8-1.5-1.4-2.9c0.4-1.3,1.6-2.2,2.8-2S96.8,30.6,96.4,31.9z"/>
	</g>
</g>
</svg>
