<?xml version="1.0" encoding="utf-8"?>
<!-- Generator: Adobe Illustrator 18.1.1, SVG Export Plug-In . SVG Version: 6.00 Build 0)  -->
<svg version="1.1" id="Layer_1" xmlns="http://www.w3.org/2000/svg" xmlns:xlink="http://www.w3.org/1999/xlink" x="0px" y="0px"
	 viewBox="0 0 128 128" enable-background="new 0 0 128 128" xml:space="preserve">
<g>
	<circle fill="#388CCB" cx="64" cy="64" r="63.5"/>
	<g>
		<ellipse fill="#FFFFFF" cx="64" cy="63.3" rx="39.5" ry="12.9"/>
		<g>
			<path fill="#FFFFFF" d="M40,41.2c-0.5,0-1-0.4-1-1v-3.3c0-0.5,0.4-1,1-1s1,0.4,1,1v3.3C41,40.7,40.5,41.2,40,41.2z"/>
		</g>
		<g>
			<path fill="#FFFFFF" d="M70.3,33.9c-0.5,0-1-0.4-1-1v-2.5c0-0.5,0.4-1,1-1c0.5,0,1,0.4,1,1v2.5C71.3,33.4,70.8,33.9,70.3,33.9z"
				/>
		</g>
		<g>
			<path fill="#FFFFFF" d="M59.7,45.6c-0.5,0-1-0.4-1-1v-2.5c0-0.5,0.4-1,1-1s1,0.4,1,1v2.5C60.7,45.1,60.3,45.6,59.7,45.6z"/>
		</g>
		<g>
			<path fill="#FFFFFF" d="M91.4,41c-0.5,0-1-0.4-1-1v-2.5c0-0.5,0.4-1,1-1c0.5,0,1,0.4,1,1V40C92.4,40.6,91.9,41,91.4,41z"/>
		</g>
		<path fill="#FFC717" d="M40,30.8c0,0-4,4,0,6C44,34.8,40,30.8,40,30.8z"/>
		<path fill="#FFC717" d="M70.3,24.3c0,0-4,4,0,6C74.3,28.3,70.3,24.3,70.3,24.3z"/>
		<path fill="#D62E2F" d="M59.7,36c0,0-4,4,0,6C63.7,40,59.7,36,59.7,36z"/>
		<path fill="#FFC717" d="M91.4,31.5c0,0-4,4,0,6C95.4,35.4,91.4,31.5,91.4,31.5z"/>
		<rect x="37.6" y="40" fill="#FFC717" width="4.7" height="23.3"/>
		<rect x="57.4" y="44.7" fill="#FCD83A" width="4.7" height="23.3"/>
		<rect x="67.9" y="33.1" fill="#915037" width="4.7" height="23.3"/>
		<rect x="89" y="40" fill="#72B2E1" width="4.7" height="23.3"/>
		<path fill="#FAF4A6" d="M99.9,81.7c-0.2,0.3-0.3,0.5-0.6,0.7c-0.4,0.2-0.9-0.1-1.4,0c-1.7,0.1-1.6,3.2-3.3,3.5
			c-1.1,0.2-2-0.9-3.1-1.2c-1.3-0.3-2.8,0.7-4.1,0.3c-0.7-0.2-1.3-0.7-2-0.5c-0.7,0.2-1,1.1-1.5,1.6c-1,0.8-2.5,0.1-3.8-0.1
			c-2.7-0.4-5.4,2-5.2,4.7c0.1,1.3,0.8,2.8,0,3.8c-0.5,0.6-1.3,0.8-2,0.9c-3.4,0.2-6.4-2.7-7.4-5.9c-0.4-1.1-0.6-2.4-1.6-3.1
			c-1.3-1-3.3-0.3-4.6,0.7c-1.3,1-2.5,2.3-4.1,2.7c-0.4-0.6-0.7-1.1-1.1-1.7c-1.2-0.7-2.7-0.8-3.9-0.2c-1.7,0.8-3,2.6-4.8,2.3
			c0.3-1.7-1.7-3.3-3.3-2.7c-1.4,0.5-2,2.1-2.7,3.4c-0.7,1.3-2.1,2.6-3.5,2.1c-0.5-0.2-0.9-0.6-1.2-1.1c-2.1-3.1-0.4-7.4-2-10.8
			c-0.2-0.5-0.6-1-0.7-1.5c-0.2-0.8-0.1-1.6-0.2-2.4c-0.3-1.4-1.5-2.4-2.5-3.5c-2.4-2.5-4-5.6-4.6-8.9v26c0,7.1,17.7,12.9,39.5,12.9
			s39.5-5.8,39.5-12.9V75.9C102.3,77.8,101.1,79.7,99.9,81.7z"/>
		<path fill="#915037" d="M64,76.2c-21.8,0-39.5-5.8-39.5-12.9v1.4c0.7,3.3,2.3,6.5,4.6,8.9c1,1,2.2,2.1,2.5,3.5
			c0.2,0.8,0,1.6,0.2,2.4c0.1,0.5,0.5,1,0.7,1.5c1.6,3.4-0.1,7.7,2,10.8c0.3,0.4,0.7,0.9,1.2,1.1c1.4,0.5,2.8-0.8,3.5-2.1
			c0.7-1.3,1.3-2.9,2.7-3.4c1.6-0.6,3.7,1,3.3,2.7c1.8,0.3,3.2-1.5,4.8-2.3c1.2-0.6,2.8-0.5,3.9,0.2c0.4,0.6,0.7,1.1,1.1,1.7
			c1.6-0.4,2.8-1.7,4.1-2.7c1.3-1,3.3-1.7,4.6-0.7c1,0.7,1.2,2,1.6,3.1c1,3.2,4,6.2,7.4,5.9c0.8-0.1,1.6-0.3,2-0.9
			c0.8-1.1,0.1-2.5,0-3.8c-0.2-2.6,2.5-5.1,5.2-4.7c1.3,0.2,2.8,0.9,3.8,0.1c0.6-0.5,0.8-1.4,1.5-1.6c0.7-0.2,1.3,0.3,2,0.5
			c1.3,0.4,2.8-0.7,4.1-0.3c1.1,0.3,2,1.4,3.1,1.2c1.7-0.4,1.6-3.4,3.3-3.5c0.5,0,1,0.2,1.4,0c0.3-0.1,0.5-0.4,0.6-0.7
			c1.2-1.9,2.4-3.9,3.6-5.8V63.3C103.5,70.4,85.8,76.2,64,76.2z"/>
	</g>
</g>
</svg>
