<?xml version="1.0" encoding="utf-8"?>
<!-- Generator: Adobe Illustrator 18.1.1, SVG Export Plug-In . SVG Version: 6.00 Build 0)  -->
<svg version="1.1" id="Layer_1" xmlns="http://www.w3.org/2000/svg" xmlns:xlink="http://www.w3.org/1999/xlink" x="0px" y="0px"
	 viewBox="0 0 128 128" enable-background="new 0 0 128 128" xml:space="preserve">
<g>
	<circle fill="#41B655" cx="64" cy="64" r="63.5"/>
	<g>
		<path fill="#B6B9BC" d="M56.3,93.4c-5.5,0-9.9,2.4-9.9,5.4h19.9C66.2,95.9,61.8,93.4,56.3,93.4z"/>
		<path fill="#E3E6E8" d="M56.3,67.7L56.3,67.7L56.3,67.7c-0.8,0-1.5,0-2.2-0.1v26c0.7-0.1,1.5-0.1,2.2-0.1c0.8,0,1.5,0.1,2.2,0.1
			v-26C57.8,67.7,57,67.7,56.3,67.7L56.3,67.7z"/>
		<path fill="#FFC717" d="M79.3,26.5c-10,0-18.1,8.1-18.1,18.1h18.1c0,6.6-2.7,12.5-7.1,16.7c2.2,0.9,4.6,1.5,7.1,1.5
			c10,0,18.1-8.1,18.1-18.1S89.4,26.5,79.3,26.5z"/>
		<path fill="#FAF4A6" d="M77.8,39.5v-9.6c0-0.4-0.3-0.7-0.7-0.6c-2.6,0.4-5,1.4-7,2.9c-0.3,0.2-0.3,0.7-0.1,0.9l6.8,6.8
			C77.2,40.3,77.8,40,77.8,39.5z"/>
		<path fill="#FAF4A6" d="M80.9,29.9v9.6c0,0.5,0.7,0.8,1,0.4l6.8-6.8c0.3-0.3,0.2-0.7-0.1-0.9c-2-1.5-4.4-2.5-7-2.9
			C81.2,29.3,80.9,29.6,80.9,29.9z"/>
		<path fill="#FAF4A6" d="M80.9,49.8v9.6c0,0.4,0.3,0.7,0.7,0.6c2.6-0.4,5-1.4,7-2.9c0.3-0.2,0.3-0.7,0.1-0.9l-6.8-6.8
			C81.5,49,80.9,49.3,80.9,49.8z"/>
		<path fill="#FAF4A6" d="M74.6,42.1l-6.8-6.8c-0.3-0.3-0.7-0.2-0.9,0.1c-1.5,2-2.5,4.4-2.9,7c-0.1,0.4,0.2,0.7,0.6,0.7h9.6
			C74.7,43.1,75,42.5,74.6,42.1z"/>
		<path fill="#FAF4A6" d="M84.5,43.1h9.6c0.4,0,0.7-0.3,0.6-0.7c-0.4-2.6-1.4-5-2.9-7c-0.2-0.3-0.7-0.3-0.9-0.1l-6.8,6.8
			C83.7,42.5,84,43.1,84.5,43.1z"/>
		<path fill="#FAF4A6" d="M84.1,47.2l6.8,6.8c0.3,0.3,0.7,0.2,0.9-0.1c1.5-2,2.5-4.4,2.9-7c0.1-0.4-0.2-0.7-0.6-0.7h-9.6
			C84,46.2,83.7,46.8,84.1,47.2z"/>
		<path fill="#FCD83A" d="M55.3,52.8c-0.9-0.3-1.8-0.7-2.8-0.7c-0.6,0-1.2,0.1-1.8,0.3c-5.1,1.3-10.5,1.7-15.8,1.3
			c3.5,8.3,11.7,14.1,21.2,14.1c9.4,0,17.5-5.6,21.1-13.7c-5.7-0.3-11.3-0.6-17-0.7C58.6,53.3,56.9,53.3,55.3,52.8z"/>
		<path fill="#E3E6E8" d="M33.2,44.6c0,3.2,0.7,6.3,1.8,9c5.3,0.4,10.6,0,15.8-1.3c0.6-0.1,1.2-0.3,1.8-0.3c1,0,1.8,0.4,2.8,0.7
			c1.6,0.5,3.3,0.5,5,0.5c5.7,0.1,11.4,0.4,17,0.7c1.3-2.9,2-6.1,2-9.4H33.2z"/>
	</g>
</g>
</svg>
