<?xml version="1.0" encoding="utf-8"?>
<!-- Generator: Adobe Illustrator 18.1.1, SVG Export Plug-In . SVG Version: 6.00 Build 0)  -->
<svg version="1.1" id="Layer_1" xmlns="http://www.w3.org/2000/svg" xmlns:xlink="http://www.w3.org/1999/xlink" x="0px" y="0px"
	 viewBox="0 0 128 128" enable-background="new 0 0 128 128" xml:space="preserve">
<g>
	<circle fill="#FFC717" cx="64" cy="64" r="63.5"/>
	<g>
		<path fill="#FAF4A6" d="M45,43.8c-0.5-1.3-1.1-2.6-1.2-4c-0.1-1.4,0.4-2.9,0.6-4.3c0.5-2.7,0.1-5.5-0.9-8
			c-0.4-0.9-0.8-1.8-1.6-2.4c-1.4-1.2-3.5-1.2-5.1-0.3c-1.6,0.9-2.7,2.5-3.2,4.2c-0.2,0.5-0.3,1-0.6,1.4c-0.5,0.6-1.4,0.7-2.2,0.9
			c-1.9,0.4-3.6,1.4-4.9,2.9c-0.8,0.9-1.4,2-1.3,3.1c0.1,1.2,1,2.3,2,3c1.1,0.7,2.3,1,3.4,1.5c3.9,1.5,7.3,3.9,10,7.1"/>
		<path fill="#915037" d="M95.1,78.8c0-1,0-2-0.3-3c-0.6-1.7-2.1-2.8-3.4-4.1c-1.8-1.7-3.3-3.9-3.4-6.3c-0.1-1.1,0.3-2.3,0.9-3.3
			c-6.5-3.6-13.9-5.5-21.1-7.4c-3.8-1.1-7.7-2.2-11.2-4.1c-2.6-1.4-5-3.3-7.3-5.2c-0.9-0.8-1.9-1.6-3-1.7c-1.5-0.2-3,0.8-4.1,1.8
			c-1.1,1.1-2.1,2.4-2.1,4c0,1.2,0.6,2.3,1.2,3.4c1.1,2,2.3,4,3.3,6c2,4,5,14.1,5.8,16.8c2.3,6.9,11,17,12.7,18.5
			c5.7,4.8,12.3,9.1,19.7,9.4c6.1,0.2,12.2-2.5,16.1-7.2c0.9-1.1,1.6-2.2,2.2-3.4c-0.3-0.5-0.6-0.9-1-1.3
			C97.1,88,95.3,83.4,95.1,78.8z"/>
	</g>
</g>
</svg>
