<?xml version="1.0" encoding="utf-8"?>
<!-- Generator: Adobe Illustrator 18.1.1, SVG Export Plug-In . SVG Version: 6.00 Build 0)  -->
<svg version="1.1" id="Layer_1" xmlns="http://www.w3.org/2000/svg" xmlns:xlink="http://www.w3.org/1999/xlink" x="0px" y="0px"
	 viewBox="0 0 128 128" enable-background="new 0 0 128 128" xml:space="preserve">
<g>
	<circle fill="#EF4538" cx="64" cy="64" r="63.5"/>
	<g>
		<path fill="#22A79C" d="M80.1,61.5c-5.4-4-8.7-10.2-8.7-16.9v-11H56.6v11c0,6.7-3.3,12.9-8.7,16.9c-6.8,4.9-11.1,12.9-11.1,21.9
			c0,6.3,2.1,12.1,5.8,16.7c1.6,2.1,4.2,3.3,6.9,3.3h29.2c2.7,0,5.2-1.2,6.9-3.3c3.6-4.6,5.8-10.4,5.8-16.7
			C91.2,74.5,86.8,66.5,80.1,61.5z M64,93.8c-5.7,0-10.3-4.6-10.3-10.3c0-5.7,4.6-10.3,10.3-10.3s10.3,4.6,10.3,10.3
			C74.3,89.2,69.7,93.8,64,93.8z"/>
		<rect x="56.6" y="24.2" fill="#753A29" width="14.8" height="9.5"/>
	</g>
</g>
</svg>
