<?xml version="1.0" encoding="utf-8"?>
<!-- Generator: Adobe Illustrator 18.1.1, SVG Export Plug-In . SVG Version: 6.00 Build 0)  -->
<svg version="1.1" id="Layer_1" xmlns="http://www.w3.org/2000/svg" xmlns:xlink="http://www.w3.org/1999/xlink" x="0px" y="0px"
	 viewBox="0 0 128 128" enable-background="new 0 0 128 128" xml:space="preserve">
<g>
	<circle fill="#41B655" cx="64" cy="64" r="63.5"/>
	<g>
		<path fill="#E3E6E8" d="M76.6,90.1H49.7c-6.3,0-11.5-5.1-11.5-11.5V24.2H88v54.5C88,84.9,82.9,90.1,76.6,90.1z"/>
		<polygon fill="#5D5E61" points="100.2,103.5 27.8,103.5 24.3,95.4 103.7,95.4 		"/>
		<path fill="#565756" d="M95.1,76.8h-7v-3.2h7c0.9,0,1.6-0.7,1.6-1.6V37.2c0-0.9-0.7-1.6-1.6-1.6h-7v-3.2h7c2.6,0,4.8,2.2,4.8,4.8
			v34.9C99.9,74.7,97.7,76.8,95.1,76.8z"/>
		<polygon fill="#D62E2F" points="58.5,47.8 49.5,47.8 43.5,54.7 43.5,76 64.5,76 64.5,54.7 		"/>
		<path fill="#5D5E61" d="M54,52L54,52c-0.7,0-1.2-0.5-1.2-1.2V24.2h2.4v26.6C55.2,51.4,54.7,52,54,52z"/>
	</g>
</g>
</svg>
