<?xml version="1.0" encoding="utf-8"?>
<!-- Generator: Adobe Illustrator 18.1.1, SVG Export Plug-In . SVG Version: 6.00 Build 0)  -->
<svg version="1.1" id="Layer_1" xmlns="http://www.w3.org/2000/svg" xmlns:xlink="http://www.w3.org/1999/xlink" x="0px" y="0px"
	 viewBox="0 0 128 128" enable-background="new 0 0 128 128" xml:space="preserve">
<g>
	<circle fill="#FFC717" cx="64" cy="64" r="63.5"/>
	<g>
		<path fill="#915037" d="M50,93.3c-2.8,0.1-10.5,2.1-11.6,2.7c-3.6,1.9-7.9,1.7-12,1.4c-0.8-0.1-1.9-0.2-2.1-1
			c-0.3-1,0.9-1.8,1.8-2.4c4-2.3,6.2-6.7,8.2-10.9c7.3-15.5,14.5-31.6,15.1-48.8c0-0.9,0.1-1.9,0.5-2.7c0.5-0.8,1.5-1.4,2.3-1
			c0.4,0.2,0.7,0.6,1,1c4.2,5.9,8.4,11.7,12.6,17.6c2.3,3.3,4.7,6.5,7.4,9.4c2.2,2.3,4.6,4.4,7.1,6.5c6.7,5.6,13.4,11.3,20.8,15.8
			c1.2,0.7,2.6,1.7,2.4,3.1c-0.2,1.8-2.5,2.2-4.3,2.3c-12.1,0.2-24.2,1.8-35.9,4.6C59,91.9,54.6,93.2,50,93.3z"/>
	</g>
</g>
</svg>
