<?xml version="1.0" encoding="utf-8"?>
<!-- Generator: Adobe Illustrator 18.1.1, SVG Export Plug-In . SVG Version: 6.00 Build 0)  -->
<svg version="1.1" id="Layer_1" xmlns="http://www.w3.org/2000/svg" xmlns:xlink="http://www.w3.org/1999/xlink" x="0px" y="0px"
	 viewBox="0 0 128 128" enable-background="new 0 0 128 128" xml:space="preserve">
<g>
	<circle fill="#EF4538" cx="64" cy="64" r="63.5"/>
	<g>
		<path fill="#565756" d="M102.2,60.2L41.5,81.5c-0.5,0.2-1.1-0.1-1.2-0.6c-0.2-0.5,0.1-1,0.5-1.2l58.8-26.1c1.8-0.8,3.9,0,4.7,1.8
			c0.8,1.8,0,3.9-1.8,4.7C102.3,60.1,102.3,60.1,102.2,60.2z"/>
		<path fill="#FFC717" d="M76.8,89.5c0,6.5-11.6,5.6-25.8,5.6s-25.8,1-25.8-5.6c0-6.5,11.6-11.9,25.8-11.9S76.8,82.9,76.8,89.5z"/>
		<path fill="#FCD83A" d="M35.9,86.7c-0.4,0.7-0.2,1.5,0.4,1.9c0.2,0.1,0.5,0.2,0.7,0.2c0.5,0,0.9-0.2,1.2-0.7
			c2.1-3.4,0.5-6.6-1.4-8.6c-1,0.3-2,0.7-2.9,1C34.8,81.3,37.6,83.9,35.9,86.7z"/>
		<path fill="#FCD83A" d="M46.4,84.5c-0.4,0.7-0.2,1.5,0.4,1.9c0.2,0.1,0.5,0.2,0.7,0.2c0.5,0,0.9-0.2,1.2-0.7
			c2-3.2,0.6-6.2-1.1-8.3c-1.2,0.1-2.5,0.2-3.6,0.3c0.1,0.1,0.1,0.1,0.2,0.2C44.3,78.3,48.4,81.3,46.4,84.5z"/>
		<path fill="#FCD83A" d="M57.1,84.5c-0.4,0.7-0.2,1.5,0.4,1.9c0.2,0.1,0.5,0.2,0.7,0.2c0.5,0,0.9-0.2,1.2-0.7
			c1.8-3,0.8-5.8-0.7-7.8c-1.4-0.2-2.8-0.3-4.3-0.4c0.1,0.2,0.2,0.4,0.4,0.5C55.1,78.3,59.1,81.3,57.1,84.5z"/>
		<path fill="#5D5E61" d="M82.8,34.9L54.6,92.7c-0.2,0.5,0,1.1,0.4,1.3c0.5,0.2,1,0.1,1.3-0.4L89,38.2c1-1.7,0.4-3.9-1.2-4.9
			c-1.7-1-3.9-0.4-4.9,1.2C82.9,34.7,82.8,34.8,82.8,34.9z"/>
	</g>
</g>
</svg>
