<?xml version="1.0" encoding="utf-8"?>
<!-- Generator: Adobe Illustrator 18.1.1, SVG Export Plug-In . SVG Version: 6.00 Build 0)  -->
<svg version="1.1" id="Layer_1" xmlns="http://www.w3.org/2000/svg" xmlns:xlink="http://www.w3.org/1999/xlink" x="0px" y="0px"
	 viewBox="0 0 128 128" enable-background="new 0 0 128 128" xml:space="preserve">
<g>
	<circle fill="#388CCB" cx="64" cy="64" r="63.5"/>
	<g>
		<g>
			<path fill="#E3E6E8" d="M41.1,105.2c-0.4,0-0.8-0.1-1.1-0.4c-0.6-0.6-0.6-1.5,0-2.1L93,49.7l1.1,1.1c1.9,1.9,4.9,1.9,6.8,0
				c1.9-1.9,1.9-4.9,0-6.8c-1.9-1.9-4.9-1.9-6.8,0c-0.6,0.6-1.5,0.6-2.1,0c-0.6-0.6-0.6-1.5,0-2.1c3-3,7.9-3,11,0s3,7.9,0,11
				c-2.7,2.7-6.8,3-9.8,1l-50.9,50.9C41.9,105,41.5,105.2,41.1,105.2z"/>
		</g>
		
			<ellipse transform="matrix(0.7071 -0.7071 0.7071 0.7071 -49.6041 64.2753)" fill="#753A29" cx="52.8" cy="92" rx="4.4" ry="6.9"/>
		
			<ellipse transform="matrix(0.7071 -0.7071 0.7071 0.7071 -40.9493 67.8602)" fill="#753A29" cx="61.4" cy="83.4" rx="4.4" ry="6.9"/>
		
			<ellipse transform="matrix(0.7071 -0.7071 0.7071 0.7071 -32.2944 71.4452)" fill="#753A29" cx="70.1" cy="74.7" rx="4.4" ry="6.9"/>
		
			<ellipse transform="matrix(0.7071 -0.7071 0.7071 0.7071 -23.6395 75.0302)" fill="#753A29" cx="78.7" cy="66.1" rx="4.4" ry="6.9"/>
		<g>
			<path fill="#FFC717" d="M78.4,75.8c-0.4,0-0.8-0.1-1.1-0.4l-7.9-7.9c-0.6-0.6-0.6-1.5,0-2.1c0.6-0.6,1.5-0.6,2.1,0l7.9,7.9
				c0.6,0.6,0.6,1.5,0,2.1C79.1,75.7,78.8,75.8,78.4,75.8z"/>
		</g>
		<g>
			<path fill="#FFC717" d="M69.6,84.6c-0.4,0-0.8-0.1-1.1-0.4l-7.9-7.9c-0.6-0.6-0.6-1.5,0-2.1c0.6-0.6,1.5-0.6,2.1,0l7.9,7.9
				c0.6,0.6,0.6,1.5,0,2.1C70.4,84.4,70,84.6,69.6,84.6z"/>
		</g>
		<g>
			<path fill="#FFC717" d="M60.9,93.3c-0.4,0-0.8-0.1-1.1-0.4L51.9,85c-0.6-0.6-0.6-1.5,0-2.1c0.6-0.6,1.5-0.6,2.1,0l7.9,7.9
				c0.6,0.6,0.6,1.5,0,2.1C61.6,93.2,61.3,93.3,60.9,93.3z"/>
		</g>
		<g>
			<path fill="#E3E6E8" d="M24.3,88.4c-0.4,0-0.8-0.1-1.1-0.4c-0.6-0.6-0.6-1.5,0-2.1l52.9-52.9l1.1,1.1c1.9,1.9,4.9,1.9,6.8,0
				c1.9-1.9,1.9-4.9,0-6.8c-1.9-1.9-4.9-1.9-6.8,0c-0.6,0.6-1.5,0.6-2.1,0c-0.6-0.6-0.6-1.5,0-2.1c3-3,7.9-3,11,0s3,7.9,0,11
				c-2.7,2.7-6.8,3-9.8,1L25.4,87.9C25.1,88.2,24.7,88.4,24.3,88.4z"/>
		</g>
		
			<ellipse transform="matrix(0.7071 -0.7071 0.7071 0.7071 -42.6453 47.4753)" fill="#915037" cx="36" cy="75.2" rx="4.4" ry="6.9"/>
		
			<ellipse transform="matrix(0.7071 -0.7071 0.7071 0.7071 -33.9905 51.0602)" fill="#915037" cx="44.6" cy="66.6" rx="4.4" ry="6.9"/>
		
			<ellipse transform="matrix(0.7071 -0.7071 0.7071 0.7071 -25.3356 54.6452)" fill="#915037" cx="53.3" cy="57.9" rx="4.4" ry="6.9"/>
		
			<ellipse transform="matrix(0.7071 -0.7071 0.7071 0.7071 -16.6807 58.2301)" fill="#915037" cx="61.9" cy="49.3" rx="4.4" ry="6.9"/>
		<g>
			<path fill="#FFC717" d="M61.6,59c-0.4,0-0.8-0.1-1.1-0.4l-7.9-7.9c-0.6-0.6-0.6-1.5,0-2.1c0.6-0.6,1.5-0.6,2.1,0l7.9,7.9
				c0.6,0.6,0.6,1.5,0,2.1C62.3,58.9,62,59,61.6,59z"/>
		</g>
		<g>
			<path fill="#FFC717" d="M52.8,67.8c-0.4,0-0.8-0.1-1.1-0.4l-7.9-7.9c-0.6-0.6-0.6-1.5,0-2.1c0.6-0.6,1.5-0.6,2.1,0l7.9,7.9
				c0.6,0.6,0.6,1.5,0,2.1C53.6,67.6,53.2,67.8,52.8,67.8z"/>
		</g>
		<g>
			<path fill="#FFC717" d="M44.1,76.5c-0.4,0-0.8-0.1-1.1-0.4l-7.9-7.9c-0.6-0.6-0.6-1.5,0-2.1c0.6-0.6,1.5-0.6,2.1,0l7.9,7.9
				c0.6,0.6,0.6,1.5,0,2.1C44.8,76.4,44.5,76.5,44.1,76.5z"/>
		</g>
	</g>
</g>
</svg>
