<?xml version="1.0" encoding="utf-8"?>
<!-- Generator: Adobe Illustrator 18.1.1, SVG Export Plug-In . SVG Version: 6.00 Build 0)  -->
<svg version="1.1" id="Layer_1" xmlns="http://www.w3.org/2000/svg" xmlns:xlink="http://www.w3.org/1999/xlink" x="0px" y="0px"
	 viewBox="0 0 128 128" enable-background="new 0 0 128 128" xml:space="preserve">
<g>
	<circle fill="#388CCB" cx="64" cy="64" r="63.5"/>
	<g>
		<path fill="#FFC717" d="M76.5,46.1c-0.8-0.6-1.5-1.1-2.2-1.8v26.3c0,1.1-0.9,1.9-1.9,1.9c-1.1,0-1.9-0.9-1.9-1.9v-27
			c0-1,0.8-1.9,1.8-1.9c-0.2-0.2-0.5-0.4-0.7-0.7c-0.5-0.9,0.1-2,0-3c-0.2-2-3.1-3-3.3-5c-0.1-1,0.5-2.2-0.1-2.9
			c-0.4-0.5-1.1-0.5-1.5-1c-0.4-0.4-0.5-1.1-0.5-1.6c-0.1-0.9,0-1.9,0.1-2.8c-0.8-0.1-1.5-0.2-2.3-0.2c-9.5,0-17.2,7.7-17.2,17.2
			v40.7h25.1v8c0,1.1,0.9,1.9,1.9,1.9c1.1,0,1.9-0.9,1.9-1.9v-8h5.6V49.6C79.7,48.4,78.1,47.3,76.5,46.1z"/>
		<path fill="#FAF4A6" d="M56,72.5h-1c-0.8,0-1.4-0.6-1.4-1.4V43.1c0-0.8,0.6-1.4,1.4-1.4h1c0.8,0,1.4,0.6,1.4,1.4V71
			C57.5,71.8,56.8,72.5,56,72.5z"/>
		<path fill="#915037" d="M64,103.8L64,103.8c-2.8,0-5-2.2-5-5l0-16.5h10v16.5C69,101.6,66.8,103.8,64,103.8z"/>
		<path fill="#FAF4A6" d="M72.5,41.8c-0.1-0.1-0.1-0.1-0.2-0.1c-1,0-1.8,0.9-1.8,1.9v27c0,1.1,0.9,1.9,1.9,1.9
			c1.1,0,1.9-0.9,1.9-1.9V44.2c-0.1-0.2-0.3-0.3-0.4-0.5C73.5,43.1,73.1,42.3,72.5,41.8z"/>
	</g>
</g>
</svg>
