<?xml version="1.0" encoding="utf-8"?>
<!-- Generator: Adobe Illustrator 18.1.1, SVG Export Plug-In . SVG Version: 6.00 Build 0)  -->
<svg version="1.1" id="Layer_1" xmlns="http://www.w3.org/2000/svg" xmlns:xlink="http://www.w3.org/1999/xlink" x="0px" y="0px"
	 viewBox="0 0 128 128" enable-background="new 0 0 128 128" xml:space="preserve">
<g>
	<circle fill="#388CCB" cx="64" cy="64" r="63.5"/>
	<g>
		<g>
			<path fill="#915037" d="M79.3,52.3c-0.4,0-0.8-0.1-1.1-0.4c-0.6-0.6-0.6-1.5,0-2.1c0.5-0.5,11.4-11.1,24.7-11.9
				c0.8,0,1.5,0.6,1.6,1.4c0,0.8-0.6,1.5-1.4,1.6c-12.2,0.7-22.7,10.9-22.8,11C80,52.2,79.7,52.3,79.3,52.3z"/>
		</g>
		<circle fill="#E67375" cx="51.3" cy="41" r="12.8"/>
		<circle fill="#E67375" cx="69.5" cy="59.2" r="12.8"/>
		<circle fill="#E67375" cx="37.8" cy="90.9" r="12.8"/>
		<circle fill="#E67375" cx="87.6" cy="77.3" r="12.8"/>
		<circle fill="#E67375" cx="44.3" cy="66.2" r="12.8"/>
		<circle fill="#E67375" cx="62.4" cy="84.3" r="12.8"/>
		<path fill="#E3E6E8" d="M88.2,44.4c-2.6-13.4-15.5-22.2-29-19.6l0,0l0,0C61.8,38.2,74.8,47,88.2,44.4L88.2,44.4z"/>
	</g>
</g>
</svg>
