<?xml version="1.0" encoding="utf-8"?>
<!-- Generator: Adobe Illustrator 18.1.1, SVG Export Plug-In . SVG Version: 6.00 Build 0)  -->
<svg version="1.1" id="Layer_1" xmlns="http://www.w3.org/2000/svg" xmlns:xlink="http://www.w3.org/1999/xlink" x="0px" y="0px"
	 viewBox="0 0 128 128" enable-background="new 0 0 128 128" xml:space="preserve">
<g>
	<circle fill="#FFC717" cx="64" cy="64" r="63.5"/>
	<g>
		<path fill="#915037" d="M31.8,71.5c-5.4,1.3-7.6,9.5-4.9,18.3c2.7,8.9,9.2,15,14.6,13.7c5.4-1.3,7.6-9.5,4.9-18.3
			S37.2,70.2,31.8,71.5z"/>
		<path fill="#753A29" d="M32.7,81.1c0.5,1.6,0.1,3.1-0.9,3.3c-1,0.2-2.2-0.9-2.6-2.5c-0.5-1.6-0.1-3.1,0.9-3.3
			C31,78.4,32.2,79.5,32.7,81.1z"/>
		<path fill="#753A29" d="M40.1,79.4c0.5,1.6,0.1,3.1-0.9,3.3c-1,0.2-2.2-0.9-2.6-2.5c-0.5-1.6-0.1-3.1,0.9-3.3
			C38.4,76.7,39.6,77.8,40.1,79.4z"/>
		<path fill="#753A29" d="M36.8,94.7c0.5,1.6,0.1,3.1-0.9,3.3c-1,0.2-2.2-0.9-2.6-2.5c-0.5-1.6-0.1-3.1,0.9-3.3
			C35.2,92,36.3,93.1,36.8,94.7z"/>
		<path fill="#753A29" d="M44.2,93c0.5,1.6,0.1,3.1-0.9,3.3c-1,0.2-2.2-0.9-2.6-2.5s-0.1-3.1,0.9-3.3S43.7,91.4,44.2,93z"/>
		<path fill="#753A29" d="M71,32.9L28.9,73.1l0,0c0.8-0.8,1.8-1.4,3-1.7c5.4-1.3,11.9,4.9,14.6,13.7c2,6.7,1.3,13-1.5,16.2
			l47.8-45.7c3.9-3.8,2.2-11.9-3.8-18.2S74.9,29.1,71,32.9z"/>
		<path fill="#915037" d="M90.7,24.3l-5.6,9.9c1.3,0.9,2.7,2,3.9,3.3c1.2,1.3,2.3,2.6,3.1,4l10.1-5.1l0,0l-3.5-0.4l-0.3-3.6l0,0
			l-3.5-0.4l-0.3-3.6l0,0L91,27.9L90.7,24.3L90.7,24.3z"/>
	</g>
</g>
</svg>
