<?xml version="1.0" encoding="utf-8"?>
<!-- Generator: Adobe Illustrator 18.1.1, SVG Export Plug-In . SVG Version: 6.00 Build 0)  -->
<svg version="1.1" id="Layer_1" xmlns="http://www.w3.org/2000/svg" xmlns:xlink="http://www.w3.org/1999/xlink" x="0px" y="0px"
	 viewBox="0 0 128 128" enable-background="new 0 0 128 128" xml:space="preserve">
<g>
	<circle fill="#388CCB" cx="64" cy="64" r="63.5"/>
	<g>
		<polygon fill="#E3E6E8" points="81.9,103.7 46.1,103.7 37.7,36.3 90.3,36.3 		"/>
		<ellipse transform="matrix(0.7071 -0.7071 0.7071 0.7071 -30.733 65.7494)" fill="#753A29" cx="64" cy="70" rx="13" ry="16.8"/>
		<path fill="#915037" d="M76.2,81.4c-1.2-4.7-4.6-9.3-8.9-12.2c-1.5-1-3.1-1.8-4.7-2.6c-2.9-1.5-5.7-2.9-7.7-5.3
			c-1.1-1.3-1.7-2.2-2.4-3.6c-0.1,0.1-0.3,0.2-0.4,0.4c-0.2,0.2-0.4,0.5-0.6,0.7c0.6,1.3,1.3,2.2,2.4,3.4c2.2,2.6,5.3,4.2,8.2,5.6
			c1.5,0.8,3.1,1.6,4.5,2.5c4.2,2.8,7.5,7.5,8.5,12.1c0.3-0.2,0.5-0.5,0.8-0.7C76,81.7,76.1,81.6,76.2,81.4z"/>
		<rect x="35" y="30.3" fill="#FACDD4" width="58" height="6"/>
		<rect x="40.8" y="24.3" fill="#FACDD4" width="46.3" height="6"/>
	</g>
</g>
</svg>
