<?xml version="1.0" encoding="utf-8"?>
<!-- Generator: Adobe Illustrator 18.1.1, SVG Export Plug-In . SVG Version: 6.00 Build 0)  -->
<svg version="1.1" id="Layer_1" xmlns="http://www.w3.org/2000/svg" xmlns:xlink="http://www.w3.org/1999/xlink" x="0px" y="0px"
	 viewBox="0 0 128 128" enable-background="new 0 0 128 128" xml:space="preserve">
<g>
	<circle fill="#FFC717" cx="64" cy="64" r="63.5"/>
	<g>
		<circle fill="#FACDD4" cx="76.5" cy="51.4" r="27.2"/>
		<path fill="#E67375" d="M100.9,52.9c0-8.2-3.7-15.1-10.4-19.4c-9.3-5.3-20.2-4.3-27.2,2.7c-4.5,4.5-6.4,11.4-5,17.9
			c1.4,6.2,5.4,10.9,11,13c0,0,0.1,0,0.1,0c9.3,2.7,17.9-2.1,20.6-11.3c1.4-5.8-2.2-11.8-8.2-13.8l-0.2-0.1c-0.1,0-0.1,0-0.2-0.1
			c-5.1-1.2-10.2,2-11.4,7.1c-1.2,5.1,2,10.2,7.1,11.4c2.5,0.6,5,0.1,7.2-1.2c0.7-0.4,0.9-1.4,0.5-2.1c-0.4-0.7-1.4-0.9-2.1-0.5
			c-1.5,0.9-3.2,1.2-4.9,0.8c-3.5-0.8-5.7-4.3-4.9-7.9c0.8-3.5,4.3-5.7,7.8-4.9l0.1,0c4.6,1.5,7.3,6.1,6.3,10.3
			c-2.2,7.6-9.1,11.4-16.8,9.3c-4.6-1.7-7.9-5.7-9.1-10.8c-1.2-5.5,0.4-11.3,4.2-15.1c6-6,15.4-6.8,23.5-2.2c5.8,3.7,9,9.7,9,16.9
			c0,12.1-9.5,22.1-21.5,22.7c-10.8,0.6-21.1-6.4-24.5-16.5c-0.3-0.8-1-1.2-1.8-1c1.2,4.6,3.5,8.9,7.1,12.5c5,5,11.5,7.7,18,7.9
			c0.4,0,0.8,0,1.3,0C90.2,77.9,100.9,66.6,100.9,52.9z"/>
		<path fill="#E3E6E8" d="M57.2,70.6c-0.7-0.7-1.4-1.5-2-2.2l-30,30c-1.2,1.2-1.2,3,0,4.2c1.2,1.2,3,1.2,4.2,0l30-30
			C58.7,72,57.9,71.3,57.2,70.6z"/>
	</g>
</g>
</svg>
