<?xml version="1.0" encoding="utf-8"?>
<!-- Generator: Adobe Illustrator 18.1.1, SVG Export Plug-In . SVG Version: 6.00 Build 0)  -->
<svg version="1.1" id="Layer_1" xmlns="http://www.w3.org/2000/svg" xmlns:xlink="http://www.w3.org/1999/xlink" x="0px" y="0px"
	 viewBox="0 0 90 90" enable-background="new 0 0 90 90" xml:space="preserve">
<g>
	<circle fill="#41B655" cx="45" cy="45" r="44.6"/>
	<g>
		<path fill="#FFFFFF" d="M17.1,43.2c0,14.7,11.9,26.6,26.5,26.6s26.5-11.9,26.5-26.6C70.1,43.2,17.1,43.2,17.1,43.2z"/>
		<path fill="#D2D3D3" d="M43.6,69.8c-4.4,0-8.6-1.1-12.4-3.1v6h24.7v-6C52.2,68.7,48,69.8,43.6,69.8z"/>
		<path fill="#FAF4A6" d="M53.1,30.6c0.6-0.6,2.4,0.4,4.1,2.1c1.8,1.7,2.7,3.6,2.1,4.1c-0.6,0.6-2.4-0.4-4.1-2.1
			C53.4,33,52.6,31.1,53.1,30.6z"/>
		<path fill="#FFC717" d="M59.6,22.4c-0.5,2.2-1.8,4.1-3.6,5.6l-2.9,2.4l0,0c0.6-0.4,2.4,0.6,4,2.2c1.6,1.6,2.6,3.4,2.2,4.1l0,0
			l2.4-2.9c1.5-1.8,3.4-3.1,5.6-3.6c1.2-0.3,2.4-0.9,3.4-1.9c2.7-2.7,2.8-7,0.2-9.6s-6.8-2.5-9.5,0.2C60.5,20,59.9,21.2,59.6,22.4z"
			/>
		<g>
			<path fill="#5D5E61" d="M51.7,37.8c-0.3,0-0.6-0.1-0.8-0.3c-0.4-0.4-0.4-1.1,0-1.5l0.6-0.6c0.4-0.4,1.1-0.4,1.5,0
				c0.4,0.4,0.4,1.1,0,1.5l-0.6,0.6C52.2,37.8,52,37.8,51.7,37.8z"/>
		</g>
		<g>
			<path fill="#5D5E61" d="M54.2,39.7c-0.3,0-0.6-0.1-0.8-0.3C53,39,53,38.4,53.4,38l0.6-0.6c0.4-0.4,1.1-0.4,1.5,0
				c0.4,0.4,0.4,1.1,0,1.5l-0.6,0.6C54.8,39.7,54.5,39.7,54.2,39.7z"/>
		</g>
		<g>
			<path fill="#5D5E61" d="M49.4,41.7c-0.3,0-0.6-0.1-0.8-0.3c-0.4-0.4-0.4-1.1,0-1.5l0.6-0.6c0.4-0.4,1.1-0.4,1.5,0
				c0.4,0.4,0.4,1.1,0,1.5l-0.6,0.6C49.9,41.6,49.7,41.7,49.4,41.7z"/>
		</g>
	</g>
</g>
</svg>
