<?xml version="1.0" encoding="utf-8"?>
<!-- Generator: Adobe Illustrator 18.1.1, SVG Export Plug-In . SVG Version: 6.00 Build 0)  -->
<svg version="1.1" id="Layer_1" xmlns="http://www.w3.org/2000/svg" xmlns:xlink="http://www.w3.org/1999/xlink" x="0px" y="0px"
	 viewBox="0 0 128 128" enable-background="new 0 0 128 128" xml:space="preserve">
<g>
	<circle fill="#41B655" cx="64" cy="64" r="63.5"/>
	<g>
		<g>
			<circle fill="#FFC717" cx="68.5" cy="59.3" r="35.2"/>
			<g>
				<path fill="#FAF4A6" d="M66.4,55.3c-0.2,0-0.5-0.1-0.8-0.3l-14-14c-0.2-0.2-0.4-0.5-0.3-0.9c0-0.3,0.1-0.6,0.4-0.8
					c4.2-3.5,9.3-5.7,14.7-6.1c0,0,0,0,0,0c0.7,0,1.2,0.5,1.2,1.1v19.8c0,0.4-0.2,0.7-0.3,0.8C67,55.2,66.7,55.3,66.4,55.3
					L66.4,55.3z"/>
				<path fill="#FAF4A6" d="M70.7,55.3c-0.6,0-1.2-0.4-1.2-1.1V34.3c0-0.6,0.5-1.1,1.1-1.1c5.5,0.5,10.6,2.6,14.8,6.1
					c0.2,0.2,0.4,0.5,0.4,0.8c0,0.3-0.1,0.6-0.3,0.9l-14,14C71.2,55.2,70.9,55.3,70.7,55.3L70.7,55.3z"/>
				<path fill="#FAF4A6" d="M73.7,58.3c-0.7,0-1-0.5-1.1-0.7c-0.1-0.2-0.3-0.7,0.2-1.2l14-14c0.2-0.2,0.5-0.3,0.8-0.3
					c0.3,0,0.6,0.1,0.8,0.4c3.5,4.2,5.7,9.3,6.1,14.7c0,0.3-0.1,0.6-0.3,0.8c-0.2,0.2-0.5,0.4-0.9,0.4H73.7z"/>
				<path fill="#FAF4A6" d="M87.7,76.6c-0.3,0-0.6-0.1-0.8-0.3l-14-14c-0.5-0.5-0.3-1.1-0.2-1.2c0.1-0.2,0.3-0.7,1.1-0.7h19.8
					c0.3,0,0.6,0.1,0.9,0.4c0.2,0.2,0.3,0.5,0.3,0.8c-0.5,5.5-2.6,10.5-6.1,14.7C88.3,76.5,88.1,76.6,87.7,76.6L87.7,76.6z"/>
				<path fill="#FAF4A6" d="M70.6,85.4c-0.6,0-1.1-0.5-1.1-1.1V64.4c0-0.7,0.6-1.1,1.2-1.1c0.2,0,0.5,0.1,0.8,0.3l14,14
					c0.2,0.2,0.4,0.5,0.3,0.9c0,0.3-0.1,0.6-0.4,0.8C81.3,82.9,76.2,85,70.6,85.4L70.6,85.4z"/>
				<path fill="#FAF4A6" d="M66.3,85.4c-5.5-0.5-10.5-2.6-14.7-6.1c-0.2-0.2-0.4-0.5-0.4-0.8c0-0.3,0.1-0.6,0.3-0.9l14-14
					c0.3-0.3,0.6-0.3,0.8-0.3c0.6,0,1.2,0.4,1.2,1.1v19.8c0,0.3-0.1,0.6-0.3,0.8C67,85.3,66.7,85.4,66.3,85.4L66.3,85.4z"/>
				<path fill="#FAF4A6" d="M49.3,76.6c-0.3,0-0.6-0.1-0.8-0.4c-3.5-4.2-5.7-9.3-6.1-14.7c0-0.3,0.1-0.6,0.3-0.8
					c0.2-0.2,0.5-0.4,0.9-0.4h19.8c0.7,0,1,0.5,1.1,0.7c0.1,0.2,0.3,0.7-0.2,1.2l-14,14C49.9,76.5,49.7,76.6,49.3,76.6L49.3,76.6z"
					/>
				<path fill="#FAF4A6" d="M43.6,58.3c-0.3,0-0.6-0.1-0.9-0.4c-0.2-0.2-0.3-0.5-0.3-0.8c0.5-5.5,2.6-10.5,6.1-14.7
					c0.2-0.2,0.5-0.4,0.8-0.4c0.3,0,0.6,0.1,0.8,0.3l14,14c0.5,0.5,0.3,1.1,0.2,1.2c-0.1,0.2-0.3,0.7-1.1,0.7H43.6z"/>
			</g>
		</g>
		<path fill="#FAF4A6" d="M40.8,95.3c0,4.6-3.7,8.2-8.2,8.2s-8.2-3.7-8.2-8.2c0-6.9,8.2-17.8,8.2-17.8S40.8,89.1,40.8,95.3z"/>
	</g>
</g>
</svg>
