<?xml version="1.0" encoding="utf-8"?>
<!-- Generator: Adobe Illustrator 18.1.1, SVG Export Plug-In . SVG Version: 6.00 Build 0)  -->
<svg version="1.1" id="Layer_1" xmlns="http://www.w3.org/2000/svg" xmlns:xlink="http://www.w3.org/1999/xlink" x="0px" y="0px"
	 viewBox="0 0 128 128" enable-background="new 0 0 128 128" xml:space="preserve">
<g>
	<circle fill="#EF4538" cx="64" cy="64" r="63.5"/>
	<g>
		<path fill="#F7EC5C" d="M102.9,67.9L102.9,67.9c2.1-2.1,2.1-5.6,0-7.7l-1.1-1.1c-1.5-1.5-2-3.8-1.2-5.8l0.5-1.4
			c1.1-2.8-0.3-6-3.2-7l0,0c-2.1-0.8-3.5-2.8-3.5-5.1v0c0-3-2.4-5.4-5.4-5.4h-1.5c-2.1,0-4.1-1.3-5-3.2L82,29.8
			c-1.2-2.7-4.5-4-7.2-2.7l0,0c-2.1,0.9-4.5,0.5-6.1-1.1l0,0c-2.1-2.1-5.6-2.1-7.7,0L59.9,27c-1.5,1.5-3.8,2-5.8,1.2l-1.4-0.5
			c-2.8-1.1-6,0.3-7,3.2l0,0c-0.8,2.1-2.8,3.5-5.1,3.5h0c-3,0-5.4,2.4-5.4,5.4v1.5c0,2.1-1.3,4.1-3.2,5l-1.4,0.6
			c-2.7,1.2-4,4.5-2.7,7.2l0,0c0.9,2.1,0.5,4.5-1.1,6.1l0,0c-2.1,2.1-2.1,5.6,0,7.7l1.1,1.1c1.5,1.5,2,3.8,1.2,5.8l-0.5,1.4
			c-1.1,2.8,0.3,6,3.2,7l0,0c2.1,0.8,3.5,2.8,3.5,5.1v0c0,3,2.4,5.4,5.4,5.4h1.5c2.1,0,4.1,1.3,5,3.2l0.6,1.4c1.2,2.7,4.5,4,7.2,2.7
			l0,0c2.1-0.9,4.5-0.5,6.1,1.1l0,0c2.1,2.1,5.6,2.1,7.7,0l1.1-1.1c1.5-1.5,3.8-2,5.8-1.2l1.4,0.5c2.8,1.1,6-0.3,7-3.2l0,0
			c0.8-2.1,2.8-3.5,5.1-3.5h0c3,0,5.4-2.4,5.4-5.4v-1.5c0-2.1,1.3-4.1,3.2-5l1.4-0.6c2.7-1.2,4-4.5,2.7-7.2l0,0
			C100.9,71.9,101.3,69.5,102.9,67.9z"/>
		<path fill="#FFC717" d="M47.3,85.6c-0.3,0-0.5-0.1-0.7-0.2c-0.6-0.4-1-1-1.2-1.6c-0.2-0.6,0.1-1.3,0.7-1.6
			c0.6-0.2,1.3,0.1,1.6,0.7c0.1,0.2,0.2,0.4,0.4,0.5c0.5,0.4,0.7,1.2,0.3,1.7C48,85.4,47.6,85.6,47.3,85.6z"/>
		<path fill="#FFC717" d="M43,66.1c-0.4,0-0.9-0.2-1.1-0.7c-0.2-0.3-0.4-0.6-0.7-0.8c-0.5-0.4-0.7-1.2-0.2-1.7
			c0.4-0.5,1.2-0.7,1.7-0.2c0.6,0.4,1.1,1,1.4,1.7c0.3,0.6,0.1,1.3-0.5,1.7C43.4,66,43.2,66.1,43,66.1z"/>
		<path fill="#FFC717" d="M42.6,50.4c-0.1,0-0.2,0-0.4-0.1c-0.3-0.1-0.5-0.3-0.7-0.5c-0.2-0.2-0.4-0.4-0.5-0.7
			c-0.1-0.7,0.3-1.3,1-1.4c0.5-0.1,1,0.1,1.4,0.5c0.4,0.4,0.5,0.9,0.3,1.4C43.6,50.1,43.1,50.4,42.6,50.4z"/>
		<path fill="#FFC717" d="M67.3,40c-0.4,0-0.8-0.2-1-0.6c-0.2-0.3-0.5-0.6-0.8-0.9c-0.6-0.4-0.7-1.1-0.4-1.7
			c0.4-0.6,1.1-0.7,1.7-0.4c0.6,0.4,1.2,1,1.6,1.6c0.4,0.6,0.2,1.3-0.4,1.7C67.7,40,67.5,40,67.3,40z"/>
		<path fill="#FFC717" d="M71,53.8c-0.4,0-0.9-0.2-1.1-0.7c-0.2-0.5-0.4-1-0.3-1.6c0.1-0.7,0.6-1.2,1.3-1.1c0.7,0.1,1.2,0.6,1.1,1.3
			c0,0.1,0,0.2,0.1,0.3c0.3,0.6,0.1,1.3-0.5,1.6C71.4,53.8,71.2,53.8,71,53.8z"/>
		<path fill="#FFC717" d="M54.8,72.1c-0.6,0-1.1-0.4-1.2-1l-0.2-0.9c-0.1-0.7,0.3-1.3,1-1.4c0.7-0.1,1.3,0.3,1.4,1l0.2,0.9
			c0.1,0.7-0.3,1.3-1,1.4C54.9,72.1,54.9,72.1,54.8,72.1z"/>
		<path fill="#FFC717" d="M61.7,82.7c-0.3,0-0.7-0.1-0.9-0.4c-0.4-0.5-0.8-0.9-1.3-1.2c-0.5-0.4-0.7-1.2-0.2-1.7
			c0.4-0.5,1.2-0.7,1.7-0.2c0.6,0.5,1.2,1,1.7,1.6c0.4,0.5,0.4,1.3-0.1,1.7C62.2,82.6,61.9,82.7,61.7,82.7z"/>
		<path fill="#FFC717" d="M80.3,85.5c-0.4,0-0.7-0.2-1-0.5c-0.2-0.2-0.4-0.3-0.7-0.4c-0.7-0.1-1.2-0.6-1.1-1.3
			c0.1-0.7,0.6-1.2,1.3-1.1c0.9,0.1,1.8,0.5,2.4,1.2c0.4,0.5,0.3,1.3-0.2,1.7C80.9,85.4,80.6,85.5,80.3,85.5z"/>
		<path fill="#FFC717" d="M82.3,44.7c-0.3,0-0.7-0.1-0.9-0.4c-0.2-0.2-0.5-0.4-0.8-0.4c-0.7-0.1-1.1-0.7-1.1-1.4
			c0.1-0.7,0.7-1.1,1.4-1.1c0.9,0.1,1.7,0.5,2.3,1.2c0.5,0.5,0.4,1.3-0.1,1.7C82.9,44.6,82.6,44.7,82.3,44.7z"/>
		<path fill="#FFC717" d="M86.6,59.3c-0.6,0-1.2-0.5-1.2-1.1c0-0.4-0.2-0.8-0.5-1c-0.5-0.5-0.5-1.2-0.1-1.7c0.5-0.5,1.2-0.5,1.7-0.1
			c0.8,0.7,1.2,1.7,1.3,2.7C87.9,58.6,87.4,59.2,86.6,59.3C86.7,59.3,86.7,59.3,86.6,59.3z"/>
		<path fill="#FFC717" d="M87.4,75.5c-0.6,0-1.2-0.5-1.2-1.2L86,71.7c0-0.7,0.5-1.3,1.2-1.3c0.7,0,1.3,0.5,1.3,1.2l0.2,2.6
			C88.7,74.8,88.2,75.4,87.4,75.5C87.4,75.5,87.4,75.5,87.4,75.5z"/>
		<path fill="#FFC717" d="M69.6,72.3c-0.7,0-1.2-0.5-1.2-1.2v-1.4c0-0.7,0.5-1.2,1.2-1.2c0.7,0,1.2,0.5,1.2,1.2v1.4
			C70.8,71.8,70.3,72.3,69.6,72.3z"/>
		<path fill="#FFC717" d="M67.1,94.1c-0.1,0-0.3,0-0.4-0.1c-0.9-0.3-1.8-0.7-2.7-1.1c-0.6-0.3-0.8-1.1-0.5-1.7
			c0.3-0.6,1.1-0.8,1.7-0.5c0.7,0.4,1.5,0.7,2.3,1c0.6,0.2,1,0.9,0.8,1.5C68.1,93.8,67.6,94.1,67.1,94.1z"/>
		<path fill="#FFC717" d="M57.6,55h-2.2c-0.7,0-1.2-0.5-1.2-1.2c0-0.7,0.5-1.2,1.2-1.2h2.2c0.7,0,1.2,0.5,1.2,1.2
			C58.9,54.5,58.3,55,57.6,55z"/>
		<path fill="#FFC717" d="M53.5,40.3h-1.4c-0.7,0-1.2-0.5-1.2-1.2s0.5-1.2,1.2-1.2h1.4c0.7,0,1.2,0.5,1.2,1.2S54.2,40.3,53.5,40.3z"
			/>
	</g>
</g>
</svg>
