<?xml version="1.0" encoding="utf-8"?>
<!-- Generator: Adobe Illustrator 18.1.1, SVG Export Plug-In . SVG Version: 6.00 Build 0)  -->
<svg version="1.1" id="Layer_1" xmlns="http://www.w3.org/2000/svg" xmlns:xlink="http://www.w3.org/1999/xlink" x="0px" y="0px"
	 viewBox="0 0 128 128" enable-background="new 0 0 128 128" xml:space="preserve">
<g>
	<circle fill="#FFC717" cx="64" cy="64" r="63.5"/>
	<g>
		<path fill="#FFFFFF" d="M99.7,30.2l0-3.8c-4.6-1.6-13.9-1.7-22.9,2.4l24.3,24.3c4.1-8.9,4-18.2,2.4-22.9L99.7,30.2z"/>
		<polygon fill="#FFFFFF" points="25.2,85.9 36.9,93.1 46.1,102.6 49.7,80.2 		"/>
		<circle fill="#5D5E61" cx="86.7" cy="30.8" r="2.2"/>
		<path fill="#5D5E61" d="M87,45.2l3.1-3.1l-2.3-2.3l-3.1,3.1l-11-1.8c-0.9-0.1-1.7,0.5-1.9,1.3l0,0c-0.1,0.9,0.5,1.7,1.3,1.9
			l8.7,1.4l-5.3,5.3l-11-1.8c-0.9-0.1-1.7,0.5-1.9,1.3c-0.1,0.9,0.5,1.7,1.3,1.9l8.7,1.4l-5.3,5.3l-11-1.8c-0.9-0.1-1.7,0.5-1.9,1.3
			l0,0c-0.1,0.9,0.5,1.7,1.3,1.9l8.7,1.4l-5.3,5.3l-11-1.8c-0.9-0.1-1.7,0.5-1.9,1.3l0,0c-0.1,0.9,0.5,1.7,1.3,1.9l8.7,1.4
			L46.7,80.9l3-0.7L49.3,83l10.4-10.4l1.4,8.7c0.1,0.9,1,1.5,1.9,1.3c0.9-0.1,1.5-1,1.3-1.9l-1.8-11l5.3-5.3l1.4,8.7
			c0.1,0.9,1,1.5,1.9,1.3c0.9-0.1,1.5-1,1.3-1.9l-1.8-11l5.3-5.3l1.4,8.7c0.1,0.9,1,1.5,1.9,1.3l0,0c0.9-0.1,1.5-1,1.3-1.9l-1.8-11
			l5.3-5.3l1.4,8.7c0.1,0.9,1,1.5,1.9,1.3c0.9-0.1,1.5-1,1.3-1.9L87,45.2z"/>
	</g>
</g>
</svg>
