<?xml version="1.0" encoding="utf-8"?>
<!-- Generator: Adobe Illustrator 18.1.1, SVG Export Plug-In . SVG Version: 6.00 Build 0)  -->
<svg version="1.1" id="Layer_1" xmlns="http://www.w3.org/2000/svg" xmlns:xlink="http://www.w3.org/1999/xlink" x="0px" y="0px"
	 viewBox="0 0 128 128" enable-background="new 0 0 128 128" xml:space="preserve">
<g>
	<circle fill="#41B655" cx="64" cy="64" r="63.5"/>
	<g>
		<path fill="#D62E2F" d="M102.5,85.4h-23c-1.1,0-2-0.9-2-2v-27c0-1.1,0.9-2,2-2h23c1.1,0,2,0.9,2,2v27
			C104.5,84.5,103.6,85.4,102.5,85.4z"/>
		<circle fill="#F4B1A8" cx="91" cy="58.8" r="2.4"/>
		<path fill="#BDC3C6" d="M42.7,53.4c-0.6,0-1.1-0.4-1.2-1c-0.5,0-0.9-0.1-1.3-0.3c-0.7-0.4-1.1-1.2-1.1-1.9c0-0.4,0.2-0.8,0.5-1.1
			c-0.6-1-1.2-2-1.5-3.2c-0.1-0.6,0.2-1.3,0.9-1.4c0.6-0.1,1.3,0.2,1.4,0.9c0.2,0.9,0.8,1.8,1.4,2.7c0.2,0.3,0.4,0.6,0.5,0.9
			c0.1,0,0.2,0.1,0.3,0.2c0.5,0.3,0.9,0.8,1.2,1.2c0.2,0.2,0.5,0.7,0.5,1.3c0,0.5-0.1,0.9-0.5,1.3C43.5,53.2,43.1,53.4,42.7,53.4
			C42.7,53.4,42.7,53.4,42.7,53.4z"/>
		<path fill="#E3E6E8" d="M91.1,59.4c0,0-0.1,0-0.1,0c-0.7-0.1-1.1-0.6-1.1-1.3c0.4-4.9,0-10-0.4-14.9c-0.1-1.3-0.2-2.7-0.7-4
			c-0.3-1-0.9-2.1-1.8-3.2c-3.6-4.7-9.8-7.8-17.1-8.6c-2.1-0.2-3.9-0.2-5.5,0c-2.2,0.3-4.3,1.1-6.1,1.7c-2.2,0.8-4.6,1.8-6.6,3.4
			c-2.2,1.8-3.8,4.4-5.3,6.9c-1.3,2.2-2.7,4.4-3.5,6.8c-0.6,1.8-1.2,4.5-0.3,7.1c0.2,0.6-0.1,1.3-0.7,1.5c-0.6,0.2-1.3-0.1-1.5-0.7
			c-1.1-3.2-0.5-6.4,0.3-8.6c0.9-2.7,2.3-5,3.7-7.3c1.5-2.5,3.3-5.4,5.8-7.5c2.2-1.8,4.9-2.9,7.2-3.8c1.9-0.7,4.2-1.5,6.6-1.9
			c1.8-0.2,3.8-0.2,6.1,0C78.2,26,85,29.5,89,34.7c1,1.3,1.7,2.6,2.1,3.9c0.5,1.5,0.6,3,0.8,4.5c0.4,5,0.9,10.2,0.4,15.3
			C92.3,59,91.8,59.4,91.1,59.4z"/>
		<polygon fill="#FCD83A" points="57.2,61.9 57.2,83.9 59.6,81.5 		"/>
		<polygon fill="#753A29" points="57.2,83.9 57.2,102.8 59.4,98.7 61.6,98 59.6,81.5 		"/>
		<rect x="25.2" y="83.9" fill="#915037" width="32" height="18.8"/>
		<polygon fill="#FAF4A6" points="47.3,52.2 35,52.2 25.2,61.9 25.2,83.9 57.2,83.9 57.2,61.9 		"/>
	</g>
</g>
</svg>
