<?xml version="1.0" encoding="utf-8"?>
<!-- Generator: Adobe Illustrator 18.1.1, SVG Export Plug-In . SVG Version: 6.00 Build 0)  -->
<svg version="1.1" id="Layer_1" xmlns="http://www.w3.org/2000/svg" xmlns:xlink="http://www.w3.org/1999/xlink" x="0px" y="0px"
	 viewBox="0 0 128 128" enable-background="new 0 0 128 128" xml:space="preserve">
<g>
	<circle fill="#41B655" cx="64" cy="64" r="63.5"/>
	<g>
		<path fill="#F4B1A8" d="M33.7,64.3c0.5-2.9,0.5-5.9,0-8.9c-0.8-4.4-1.2-11.5,2.2-17.8c6.5-12.1,21.4-12.8,31.6-13.2
			c9.6-0.3,22.3-0.8,26.2,7.4c3.5,7.5-1,20.6-11.9,31.3c-1.4,1.4-2.6,2.9-3.5,4.7c-3,5.3-11.3,17-27.1,17.7
			C51.1,85.5,29.6,88.5,33.7,64.3z"/>
		<path fill="none" d="M33.7,64.3c0.2-1.3,0.3-2.6,0.4-3.9c-0.8,2.9-0.9,5.7-0.8,8.2C33.3,67.3,33.4,65.8,33.7,64.3z"/>
		<path fill="#EC5552" d="M94.8,38c-0.1,7.4-4.7,17-13.1,25.2c-1.4,1.4-2.6,2.9-3.5,4.7c-3,5.3-11.3,17-27.1,17.7
			c0,0-13.6,1.8-17.1-9.6c0.1,2.1,0,4.3-0.3,6.3c-4.1,24.2,17.4,21.3,17.4,21.3c15.7-0.6,24.1-12.4,27.1-17.7c1-1.7,2.2-3.3,3.5-4.7
			c8.1-7.9,12.6-17.1,13.1-24.4L94.8,38L94.8,38z"/>
		<path fill="#E67375" d="M77.5,43.5c-0.4,0-1,0-1.6,0.1c-0.6,0-1.3,0.1-2,0.1c-0.7,0-1.5,0.1-2.3,0.1c-0.8,0.1-1.6,0-2.5,0.1
			c-0.4,0-0.9,0.1-1.3,0c-0.4,0-0.9-0.1-1.3-0.1c-0.9,0-1.7-0.1-2.6-0.2c-0.9,0-1.6-0.3-2.5-0.4c-0.8-0.3-1.6-0.4-2.3-0.7
			c-0.4-0.2-0.7-0.3-1.1-0.4c-0.3-0.2-0.7-0.4-1-0.5c-0.7-0.3-1.3-0.7-1.8-1.1c-0.6-0.4-1.1-0.8-1.5-1.1c-0.5-0.4-0.8-0.7-1.2-1
			c-0.6-0.6-1-1-1-1s0,0.5,0.2,1.4c0.1,0.4,0.2,1,0.5,1.6c0.2,0.6,0.6,1.3,1,2c0.4,0.7,1,1.4,1.7,2.1c0.3,0.3,0.7,0.7,1.1,1
			c0.4,0.3,0.8,0.6,1.3,0.9c0.4,0.3,0.9,0.6,1.4,0.8c0.5,0.2,1,0.5,1.5,0.7c0.3,0.1,0.7,0.2,1,0.3c-0.3,0.5-0.6,0.9-0.8,1.5
			c-0.3,0.6-0.7,1.2-1,1.9c-0.3,0.7-0.7,1.3-1.1,2.1c-0.4,0.7-0.7,1.4-1.1,2.2c-0.4,0.8-0.7,1.5-1.1,2.3c-0.3,0.8-0.8,1.5-1.1,2.3
			c-0.4,0.8-0.7,1.5-1,2.3c-0.7,1.5-1.2,2.9-1.7,4.1c-0.5,1.3-0.9,2.3-1.1,3.1c-0.2,0.8-0.4,1.3-0.4,1.3s0.4-0.2,1.1-0.7
			c0.7-0.5,1.6-1.2,2.7-2.1c2-1.9,4.3-4.8,5.9-8.1c0.8-1.7,1.5-3.4,1.9-5.1c0.5-1.7,0.7-3.3,0.7-4.7c0-0.7,0-1.3,0-1.8
			c0.1,0,0.2,0,0.3,0c1.1,0.1,2.2,0.2,3.3,0.1c1.1,0,2.1-0.1,3.1-0.4c1-0.2,1.9-0.4,2.7-0.8c0.8-0.3,1.6-0.7,2.3-1
			c0.7-0.3,1.3-0.7,1.8-1.1c0.5-0.3,1-0.7,1.3-0.9c0.7-0.5,1.1-0.9,1.1-0.9S78.4,43.5,77.5,43.5z"/>
	</g>
</g>
</svg>
