<?xml version="1.0" encoding="utf-8"?>
<!-- Generator: Adobe Illustrator 18.1.1, SVG Export Plug-In . SVG Version: 6.00 Build 0)  -->
<svg version="1.1" id="Layer_1" xmlns="http://www.w3.org/2000/svg" xmlns:xlink="http://www.w3.org/1999/xlink" x="0px" y="0px"
	 viewBox="0 0 128 128" enable-background="new 0 0 128 128" xml:space="preserve">
<g>
	<circle fill="#41B655" cx="64" cy="64" r="63.5"/>
	<g>
		<polygon fill="#E3E6E8" points="101.5,93.4 28.2,93.4 25.2,86.5 104.5,86.5 		"/>
		<path fill="#FFC717" d="M94.1,82.1H35.6c-1.2,0-2.2-1-2.2-2.2v-6.3h62.9v6.3C96.3,81.1,95.3,82.1,94.1,82.1z"/>
		<path fill="#FAF4A6" d="M95.1,69H34.6c-2.3,0-4.1-1.8-4.1-4.1v0c0-2.3,1.8-4.1,4.1-4.1h60.4c2.3,0,4.1,1.8,4.1,4.1v0
			C99.2,67.1,97.3,69,95.1,69z"/>
		<path fill="#FFC717" d="M64.9,34.6c-16.9,0-30.5,9.2-30.5,20.5h61.1C95.4,43.8,81.7,34.6,64.9,34.6z"/>
		<path fill="#FFFFFF" d="M43.7,50.7c0,0-0.1,0-0.1,0c-0.7-0.1-1.1-0.7-1.1-1.3c0.1-0.8,0.6-1.5,1.3-1.8c0.6-0.3,1.3,0,1.6,0.6
			c0.3,0.6,0.1,1.3-0.5,1.6C44.8,50.3,44.3,50.7,43.7,50.7z"/>
		<path fill="#FFFFFF" d="M54.8,42.9c-0.3,0-0.7-0.1-0.9-0.4c-0.4-0.5-0.4-1.3,0.1-1.7l0.6-0.6c0.5-0.4,1.3-0.4,1.7,0.1
			c0.4,0.5,0.4,1.3-0.1,1.7l-0.6,0.6C55.4,42.8,55.1,42.9,54.8,42.9z"/>
		<path fill="#FFFFFF" d="M66.1,40.6c-0.5,0-0.9-0.3-1.1-0.7c-0.3-0.6,0-1.3,0.6-1.6l0.8-0.4c0.6-0.3,1.3,0,1.6,0.6s0,1.3-0.6,1.6
			l-0.8,0.4C66.4,40.6,66.2,40.6,66.1,40.6z"/>
		<path fill="#FFFFFF" d="M78.3,44.4c-0.2,0-0.3,0-0.5-0.1c-0.6-0.3-0.9-1-0.7-1.6l0.2-0.5c0.2-0.6,1-0.9,1.6-0.7
			c0.6,0.2,0.9,1,0.7,1.6l-0.2,0.6C79.2,44.1,78.8,44.4,78.3,44.4z"/>
		<path fill="#FFFFFF" d="M70.4,49c-0.4,0-0.8-0.2-1.1-0.6c-0.3-0.6-0.1-1.3,0.5-1.6l1.2-0.6c0.6-0.3,1.3-0.1,1.6,0.5
			c0.3,0.6,0.1,1.3-0.5,1.6L71,48.9C70.8,49,70.6,49,70.4,49z"/>
		<path fill="#FFFFFF" d="M84.1,50.1c-0.2,0-0.4,0-0.6,0c-0.7-0.1-1.1-0.7-1-1.4c0.1-0.7,0.7-1.1,1.4-1c0.3,0,0.6,0,0.9-0.1
			c0.6-0.2,1.3,0.1,1.6,0.7c0.2,0.6-0.1,1.3-0.7,1.6C85.1,50,84.6,50.1,84.1,50.1z"/>
		<path fill="#FFFFFF" d="M59.1,51c-0.6,0-1.1-0.4-1.2-1c-0.1-0.5,0.1-1,0.5-1.3c0.4-0.4,0.9-0.5,1.3-0.5c0.7,0.1,1.1,0.7,1,1.3
			c0,0.4-0.3,0.7-0.6,0.9c-0.2,0.3-0.5,0.6-0.9,0.6C59.2,51,59.1,51,59.1,51z"/>
	</g>
</g>
</svg>
