<?xml version="1.0" encoding="utf-8"?>
<!-- Generator: Adobe Illustrator 18.1.1, SVG Export Plug-In . SVG Version: 6.00 Build 0)  -->
<svg version="1.1" id="Layer_1" xmlns="http://www.w3.org/2000/svg" xmlns:xlink="http://www.w3.org/1999/xlink" x="0px" y="0px"
	 viewBox="0 0 128 128" enable-background="new 0 0 128 128" xml:space="preserve">
<g>
	<circle fill="#388CCB" cx="64" cy="64" r="63.5"/>
	<path fill="none" d="M24.3,54.2v0.9C24.3,54.9,24.3,54.5,24.3,54.2L24.3,54.2z"/>
	<g>
		
			<ellipse transform="matrix(0.9999 -1.143076e-002 1.143076e-002 0.9999 -0.6211 0.7351)" fill="#F4B1A8" cx="64" cy="54.7" rx="39.7" ry="24.8"/>
		
			<ellipse transform="matrix(0.9999 -1.143076e-002 1.143076e-002 0.9999 -0.6211 0.7351)" fill="#FFFFFF" cx="64" cy="54.7" rx="15.5" ry="9.7"/>
		<path fill="#FAF4A6" d="M101.7,70.6c-1.5,1.8-3.3,3.6-5.5,4.4c-1.1,0.4-2.3,0.5-3.2,1.2c-0.6,0.4-1,1.1-1,1.7
			c0,0.6-0.5,1.1-1.1,1.1c-0.3,0-0.7,0-1,0.1c-0.6,0-1,0.5-1.1,1.1c-0.1,0.9-1,1.4-1.8,0.9c-0.7-0.4-1.4-0.7-2.2-0.8
			c-1.5-0.2-3.2,0.3-4,1.5c-0.7,1.2-0.6,2.6-0.7,4c-0.1,1.4-0.8,3-2.1,3.2c-0.6,0.1-1.2-0.1-1.7-0.3c-2.1-0.8-3.8-2.4-5.8-3.4
			c-2-1-4.7-1.2-6.2,0.4c-1.4,1.5-1.2,4.1-3.6,4.8c-1,0.3-2.1,0-3-0.6c-2.1-1.4-2.8-3.7-4.1-5.6c-0.4-0.5-0.8-1.1-1.4-1.3
			c-1.9-0.9-4,1.2-4.9,2.7c-0.5,0.9-1.3,1.6-2.3,1.9c-3,1.2-4.7-1.9-5.5-4.4c-0.7-2.2-1.8-4.8-4.1-5.1c0.3,2.2-2.7,4-4.5,2.7
			c-0.9-0.6-1.4-1.8-1.7-2.8c-0.8-2.6-1.2-5.2-2-7.8c-0.6-1.7-1.4-3.4-2.6-4.7v12.2c0.1,11.8,18,21.1,39.9,20.9
			c21.9-0.3,39.6-10,39.4-21.8V68C103.1,68.8,102.4,69.7,101.7,70.6z"/>
		<path fill="#915037" d="M29,77.9c0.3,1.1,0.8,2.2,1.7,2.8c1.8,1.3,4.8-0.5,4.5-2.7c2.3,0.3,3.4,2.9,4.1,5.1
			c0.8,2.5,2.6,5.5,5.5,4.4c1-0.4,1.8-1.1,2.3-1.9c0.9-1.5,3.1-3.5,4.9-2.7c0.6,0.3,1,0.8,1.4,1.3c1.3,1.9,2.1,4.2,4.1,5.6
			c0.9,0.6,2,0.9,3,0.6c2.4-0.6,2.3-3.3,3.6-4.8c1.5-1.6,4.2-1.4,6.2-0.4c2,1,3.7,2.6,5.8,3.4c0.6,0.2,1.2,0.4,1.7,0.3
			c1.4-0.3,2-1.8,2.1-3.2c0.1-1.4-0.1-2.9,0.7-4c0.8-1.2,2.5-1.8,4-1.5c0.8,0.1,1.5,0.4,2.2,0.8c0.8,0.5,1.7-0.1,1.8-0.9
			c0-0.6,0.5-1,1.1-1.1c0.3,0,0.7,0,1-0.1c0.6,0,1.1-0.5,1.1-1.1c0-0.6,0.4-1.3,1-1.7c0.9-0.7,2.1-0.8,3.2-1.2
			c2.3-0.8,4-2.5,5.5-4.4c0.7-0.8,1.3-1.7,1.9-2.6V54.2c0.2,13.7-17.5,25-39.4,25.3c-21.9,0.3-39.8-10.7-40-24.4v10.3
			c1.2,1.3,2.1,3,2.6,4.7C27.8,72.7,28.2,75.4,29,77.9z"/>
		<path fill="#753A29" d="M33.1,58.8c-0.7,0-1.3-0.5-1.5-1.2c-0.2-1-0.1-2.1,0.4-3c0.4-0.7,1.3-1,2-0.6c0.7,0.4,1,1.3,0.6,2
			c-0.2,0.3-0.2,0.7-0.1,1c0.2,0.8-0.3,1.6-1.2,1.8C33.3,58.8,33.2,58.8,33.1,58.8z"/>
		<path fill="#753A29" d="M46.1,44.2c-0.5,0-1.1-0.3-1.3-0.8c-0.4-0.7-0.1-1.6,0.6-2l1.6-0.9c0.7-0.4,1.6-0.1,2,0.6
			c0.4,0.7,0.1,1.6-0.6,2L46.8,44C46.6,44.1,46.4,44.2,46.1,44.2z"/>
		<path fill="#753A29" d="M69.7,40.5C69.7,40.5,69.7,40.5,69.7,40.5L67,40.4c-0.8-0.1-1.4-0.8-1.4-1.6s0.7-1.4,1.6-1.4l2.6,0.2
			c0.8,0.1,1.4,0.8,1.4,1.6C71.2,39.9,70.5,40.5,69.7,40.5z"/>
		<path fill="#753A29" d="M87.2,43.3C87.2,43.3,87.2,43.3,87.2,43.3c-0.8,0-1.4-0.6-1.5-1.3c-0.6-0.4-0.8-1.2-0.5-1.9
			c0.3-0.7,1.2-1.1,2-0.7c0.9,0.4,1.5,1.4,1.5,2.4C88.7,42.7,88,43.3,87.2,43.3z"/>
		<path fill="#753A29" d="M92.2,58.2c-0.8,0-1.5-0.7-1.5-1.5v-2.1c0-0.8,0.7-1.5,1.5-1.5s1.5,0.7,1.5,1.5v2.1
			C93.6,57.5,93,58.2,92.2,58.2z"/>
		<path fill="#753A29" d="M84.5,68.4c-0.3,0-0.5-0.1-0.7-0.2c-1-0.6-1.9-1.3-2.6-2.2c-0.5-0.7-0.4-1.6,0.3-2.1
			c0.7-0.5,1.6-0.4,2.1,0.3c0.5,0.6,1,1.1,1.7,1.5c0.7,0.4,1,1.3,0.5,2C85.6,68.2,85.1,68.4,84.5,68.4z"/>
		<path fill="#753A29" d="M46.5,71.4c-0.5,0-0.9-0.2-1.2-0.6c-0.6-0.9-1.1-1.9-1.2-2.9c-0.2-0.8,0.4-1.6,1.2-1.7
			c0.8-0.2,1.6,0.4,1.7,1.2c0.1,0.6,0.4,1.2,0.7,1.7c0.5,0.7,0.3,1.6-0.3,2.1C47.1,71.3,46.8,71.4,46.5,71.4z"/>
		<path fill="#753A29" d="M66.1,74c-0.3,0-0.6-0.1-0.8-0.3c-0.9-0.6-1.6-1.5-1.9-2.6c-0.2-0.8,0.2-1.6,1-1.9c0.8-0.3,1.6,0.2,1.9,1
			c0.1,0.4,0.4,0.8,0.8,1c0.7,0.5,0.8,1.4,0.4,2.1C67,73.8,66.6,74,66.1,74z"/>
	</g>
</g>
</svg>
