<?xml version="1.0" encoding="utf-8"?>
<!-- Generator: Adobe Illustrator 18.1.1, SVG Export Plug-In . SVG Version: 6.00 Build 0)  -->
<svg version="1.1" id="Layer_1" xmlns="http://www.w3.org/2000/svg" xmlns:xlink="http://www.w3.org/1999/xlink" x="0px" y="0px"
	 viewBox="0 0 128 128" enable-background="new 0 0 128 128" xml:space="preserve">
<g>
	<circle fill="#41B655" cx="64" cy="64" r="63.5"/>
	<g>
		<path fill="#FFC717" d="M67.2,56.5c0,0,3.7-0.1,3.3-5.8c-0.4-5.8-3.3-7.3-1.1-12.5c0,0-8.5,8.5-6.8,14
			C62.6,52.2,62.9,56.6,67.2,56.5z"/>
		<path fill="#FFC717" d="M71.6,60.8c0,0,0.1-3.6,6-3.2c5.9,0.4,7.5,3.3,12.8,1.1c0,0-8.7,8.3-14.3,6.7C76,65.3,71.5,65,71.6,60.8z"
			/>
		<path fill="#FFC717" d="M57.8,65.8c0,0,3.7-0.1,3.3-5.8c-0.4-5.8-3.3-7.3-1.1-12.5c0,0-8.5,8.5-6.8,14
			C53.2,61.5,53.6,65.9,57.8,65.8z"/>
		<path fill="#FFC717" d="M62.3,70.2c0,0,0.1-3.6,6-3.2c5.9,0.4,7.5,3.3,12.8,1.1c0,0-8.7,8.3-14.3,6.7
			C66.7,74.7,62.2,74.3,62.3,70.2z"/>
		<path fill="#FFC717" d="M48.5,75.1c0,0,3.7-0.1,3.3-5.8c-0.4-5.8-3.3-7.3-1.1-12.5c0,0-8.5,8.5-6.8,14
			C43.9,70.8,44.3,75.2,48.5,75.1z"/>
		<path fill="#FFC717" d="M53,79.5c0,0,0.1-3.6,6-3.2c5.9,0.4,7.5,3.3,12.8,1.1c0,0-8.7,8.3-14.3,6.7C57.3,84,52.9,83.6,53,79.5z"/>
		<path fill="#FFC717" d="M39.2,84.4c0,0,3.7-0.1,3.3-5.8c-0.4-5.8-3.3-7.3-1.1-12.5c0,0-8.5,8.5-6.8,14
			C34.6,80.1,35,84.5,39.2,84.4z"/>
		<path fill="#FFC717" d="M43.6,88.8c0,0,0.1-3.6,6-3.2c5.9,0.4,7.5,3.3,12.8,1.1c0,0-8.7,8.3-14.3,6.7C48,93.3,43.6,93,43.6,88.8z"
			/>
		<path fill="#92513B" d="M40.1,95c-0.6,0-1.1-0.4-1.4-0.9C37.2,90,34,89.3,34,89.3c-0.8-0.2-1.3-0.9-1.1-1.7
			c0.2-0.8,0.9-1.3,1.7-1.1c0.2,0,4.8,1.1,6.9,6.6c0.3,0.8-0.1,1.6-0.9,1.9C40.4,95,40.2,95,40.1,95z"/>
		<path fill="#92513B" d="M25.8,103.4c-0.4,0-0.8-0.1-1-0.4c-0.6-0.6-0.6-1.5,0-2.1l8-7.8c0.6-0.6,1.5-0.6,2.1,0
			c0.6,0.6,0.6,1.5,0,2.1l-8,7.8C26.5,103.2,26.1,103.4,25.8,103.4z"/>
		<path fill="#92513B" d="M76.4,53.4c-0.4,0-0.7-0.1-1-0.4c-0.6-0.6-0.6-1.5,0-2.1L101,25.3c0.6-0.6,1.5-0.6,2.1,0
			c0.6,0.6,0.6,1.5,0,2.1L77.4,53C77.1,53.3,76.7,53.4,76.4,53.4z"/>
		<path fill="#92513B" d="M88.4,55.5c-0.4,0-0.7-0.1-1-0.4c-0.6-0.6-0.6-1.5,0-2.1l13.8-13.8c0.6-0.6,1.5-0.6,2.1,0
			c0.6,0.6,0.6,1.5,0,2.1L89.4,55.1C89.1,55.4,88.8,55.5,88.4,55.5z"/>
		<path fill="#92513B" d="M74.3,41.4c-0.4,0-0.7-0.1-1-0.4c-0.6-0.6-0.6-1.5,0-2.1l13.8-13.8c0.6-0.6,1.5-0.6,2.1,0
			c0.6,0.6,0.6,1.5,0,2.1L75.3,41C75,41.3,74.6,41.4,74.3,41.4z"/>
	</g>
</g>
</svg>
