<?xml version="1.0" encoding="utf-8"?>
<!-- Generator: Adobe Illustrator 18.1.1, SVG Export Plug-In . SVG Version: 6.00 Build 0)  -->
<svg version="1.1" id="Layer_1" xmlns="http://www.w3.org/2000/svg" xmlns:xlink="http://www.w3.org/1999/xlink" x="0px" y="0px"
	 viewBox="0 0 128 128" enable-background="new 0 0 128 128" xml:space="preserve">
<g>
	<circle fill="#388CCB" cx="64" cy="64" r="63.5"/>
	<g>
		<path fill="#92513B" d="M27.1,38.7c-0.5-0.8-1-1.6-1.5-2.4c-2.4-4-1.2-9,2.5-11.1l0,0c3.7-2,8.4-0.6,10.7,3.1
			c8,13.2,17.6,25.2,28.5,35.9c9.8,9.5,20.7,18,32.4,25.1c3.7,2.2,5.1,6.9,3.1,10.7l0,0c-2,3.7-7,4.9-11.1,2.5
			c-0.9-0.6-1.8-1.1-2.8-1.7"/>
		<path fill="#FFC717" d="M38.3,27.7c0.2,0.2,0.3,0.4,0.4,0.6c8,13.2,17.6,25.2,28.5,35.9c9.8,9.5,20.7,18,32.4,25.1
			c0.1,0.1,0.2,0.1,0.2,0.2l0.1,0c0.9-0.5,1.6-1.3,2.1-2.2c1.7-3.1,0.5-7-2.5-8.8C79.1,66,61.8,48.7,49.3,28.1
			c-1.8-3-5.7-4.2-8.8-2.5C39.6,26.1,38.8,26.8,38.3,27.7z"/>
		<path fill="#FFC717" d="M36.7,40.7C49.2,61.3,66.5,78.5,87.1,91c3,1.8,4.2,5.7,2.5,8.8l0,0c-1.7,3.1-5.8,4.1-9.1,2.1
			C58.2,88.3,39.4,69.6,25.9,47.3c-2-3.3-1-7.5,2.1-9.1l0,0C31,36.5,34.9,37.7,36.7,40.7z"/>
	</g>
</g>
</svg>
