<?xml version="1.0" encoding="utf-8"?>
<!-- Generator: Adobe Illustrator 18.1.1, SVG Export Plug-In . SVG Version: 6.00 Build 0)  -->
<svg version="1.1" id="Layer_1" xmlns="http://www.w3.org/2000/svg" xmlns:xlink="http://www.w3.org/1999/xlink" x="0px" y="0px"
	 viewBox="0 0 128 128" enable-background="new 0 0 128 128" xml:space="preserve">
<g>
	<circle fill="#FFC717" cx="64" cy="64" r="63.5"/>
	<g>
		<g>
			<path fill="#753A29" d="M64,37.6c-0.7,0-1.4-0.5-1.5-1.3c0-0.1-1.4-10.2,9.8-13.4c0.8-0.2,1.6,0.2,1.8,1c0.2,0.8-0.2,1.6-1,1.8
				c-8.7,2.5-7.8,9.8-7.7,10.1c0.1,0.8-0.4,1.6-1.3,1.7C64.1,37.6,64.1,37.6,64,37.6z"/>
		</g>
		<ellipse fill="#22A79C" cx="64" cy="69.9" rx="27.5" ry="33.8"/>
		<path fill="#FAF4A6" d="M45.4,93.1c-0.1-0.2,0.1-0.9,0.3-1.4c0.3-1.1,0.8-2.7-0.4-4.1c-0.2-0.3-0.5-0.5-0.7-0.6
			c0-0.1,0.1-0.1,0.1-0.2l0.1-0.1c0.6-0.5,1.5-1.4,1.5-2.7c0.1-1.4-0.9-2.3-1.6-2.9c-0.2-0.2-0.6-0.5-0.6-0.6c0-0.2,0.5-0.6,0.7-0.9
			c0.8-0.8,1.8-1.8,1.6-3.4c-0.2-1.4-1.1-2.2-1.8-2.7l-0.2-0.1c-0.4-0.4-0.8-0.8-1.2-1.2c0.1-0.1,0.3-0.2,0.4-0.3l0.1-0.1
			c1.4-0.8,2.5-2.2,3-3.7c0.4-1.3,0.3-2.6-0.3-3.7c-0.2-0.5-0.6-0.9-0.8-1.2c-0.3-0.4-0.6-0.8-0.6-1c0-0.2,0.5-0.7,0.9-1
			c0.5-0.5,1.1-1,1.5-1.8c0.8-1.4,0.6-3.3-0.4-4.5c-0.1-0.2-0.3-0.4-0.5-0.5c-0.1-0.1-0.3-0.3-0.3-0.3c-0.1-0.2,0-0.7,0.3-1.2
			c0.2-0.3,0.4-0.6,0.6-0.9c0.4-0.5,0.7-1.1,1-1.7c0.6-1.4,0.6-3.4-0.7-4.5c-0.1-0.1-0.2-0.1-0.2-0.2c0-0.1,0.1-0.2,0.2-0.3l2.9-4.2
			c0.2-0.2,0.3-0.5,0.3-0.8c-2.4,1.6-4.5,3.6-6.4,6c0.1,0.4,0.2,0.8,0.4,1c0.3,0.4,0.6,0.6,0.8,0.8c0,0,0.1,0.1,0.1,0.1
			c0.1,0.1,0.1,0.5-0.1,0.9c-0.2,0.4-0.4,0.8-0.7,1.2c-0.3,0.4-0.5,0.7-0.7,1.1c-0.9,1.5-1,3.1-0.2,4.4c0.2,0.4,0.5,0.7,0.7,0.9
			c0.1,0.1,0.2,0.2,0.3,0.3c0.2,0.3,0.3,0.8,0.1,1.1c-0.2,0.3-0.5,0.6-0.9,1c-0.8,0.7-1.8,1.7-1.8,3.3c0,1.3,0.7,2.2,1.2,2.9
			c0.2,0.3,0.4,0.5,0.5,0.8c0.3,0.5,0.2,1,0.1,1.4c-0.2,0.8-0.8,1.5-1.5,1.9l-0.1,0.1c-0.8,0.4-2.2,1.2-2.2,2.9
			c0,0.8,0.4,1.4,0.7,1.8c0.5,0.7,1.1,1.3,1.7,1.9L43,76c0.2,0.2,0.6,0.5,0.7,0.6c0,0.2-0.5,0.6-0.7,0.9c-0.7,0.7-1.8,1.8-1.6,3.4
			c0.2,1.2,1,2,1.6,2.5c0.2,0.2,0.4,0.4,0.5,0.5c-0.1,0.1-0.3,0.4-0.5,0.5l-0.2,0.1c-1.2,1.1-1.6,2.6-1,3.7c0.3,0.6,0.8,1,1.1,1.2
			c0.1,0.1,0.2,0.1,0.2,0.1c0,0.2-0.1,0.8-0.3,1.2c0,0.1-0.1,0.3-0.1,0.5c0.8,1.2,1.6,2.3,2.5,3.3C45.5,94.2,45.6,93.6,45.4,93.1z"
			/>
		<path fill="#FAF4A6" d="M84.6,91.8c-0.1-0.4-0.3-1-0.3-1.2c0.1-0.1,0.1-0.1,0.2-0.2c0.3-0.2,0.8-0.6,1.1-1.2
			c0.6-1.2,0.2-2.6-1-3.8l-0.2-0.1c-0.2-0.2-0.4-0.4-0.5-0.6c0.1-0.1,0.4-0.4,0.5-0.6c0.6-0.6,1.4-1.3,1.6-2.5
			c0.2-1.6-0.8-2.7-1.6-3.5c-0.3-0.3-0.7-0.7-0.7-0.9c0.1-0.2,0.5-0.5,0.7-0.7l0.2-0.2c0.7-0.6,1.2-1.2,1.7-1.9
			c0.3-0.4,0.7-1,0.7-1.8c0-1.7-1.4-2.5-2.2-2.9l-0.1-0.1c-1.1-0.6-2-2.3-1.4-3.4c0.1-0.2,0.3-0.5,0.5-0.8c0.6-0.7,1.2-1.6,1.2-2.9
			c0-1.6-1.1-2.6-1.8-3.4c-0.4-0.4-0.7-0.7-0.9-1c-0.2-0.4-0.1-0.9,0.1-1.2c0.1-0.1,0.2-0.2,0.3-0.3c0.2-0.2,0.5-0.5,0.7-0.9
			c0.7-1.2,0.6-2.9-0.2-4.4c-0.2-0.4-0.5-0.8-0.7-1.1c-0.3-0.4-0.6-0.8-0.7-1.2c-0.2-0.5-0.1-0.9-0.1-1c0,0,0.1-0.1,0.1-0.1
			c0.2-0.2,0.5-0.4,0.8-0.8c0.3-0.4,0.5-1,0.4-1.8c-1.9-2.2-4-4.1-6.4-5.6c-0.1,0.4,0,0.8,0.2,1.2l2.9,4.3c0.1,0.1,0.2,0.3,0.2,0.4
			c-0.1,0.1-0.2,0.1-0.3,0.2c-1.3,1.2-1.3,3.1-0.7,4.6c0.3,0.7,0.7,1.2,1,1.7c0.2,0.3,0.4,0.6,0.6,0.9c0.3,0.6,0.4,1.1,0.3,1.3
			c0,0.1-0.2,0.2-0.3,0.4c-0.2,0.2-0.3,0.4-0.5,0.6c-1,1.3-1.1,3.1-0.4,4.6c0.4,0.8,1,1.3,1.5,1.8c0.4,0.4,0.9,0.8,0.9,1.1
			c0,0.2-0.3,0.6-0.6,1c-0.3,0.4-0.6,0.8-0.8,1.2c-1.4,2.8,0.2,6.2,2.7,7.5l0.1,0.1c0.1,0.1,0.3,0.2,0.5,0.3
			c-0.3,0.5-0.7,0.9-1.2,1.3l-0.2,0.2c-0.7,0.5-1.6,1.4-1.8,2.7c-0.2,1.6,0.9,2.7,1.6,3.4c0.3,0.3,0.7,0.7,0.7,0.9
			c0,0.1-0.4,0.5-0.6,0.7c-0.6,0.6-1.6,1.5-1.5,2.9c0,1.3,0.9,2.1,1.5,2.7l0.1,0.1c0.1,0.1,0.1,0.1,0.2,0.2
			c-0.2,0.1-0.5,0.3-0.7,0.6c-1.2,1.3-0.7,3-0.3,4.1c0.2,0.5,0.4,1.2,0.3,1.5c-0.1,0.4-0.1,0.8,0,1.2c0.9-1,1.8-2.1,2.6-3.2
			C84.7,92,84.6,91.9,84.6,91.8z"/>
		<path fill="#FAF4A6" d="M56.5,100.1c0.3-1.4,0.7-3.1-0.3-4.5c-0.2-0.4-0.5-0.6-0.7-0.8c-0.1-0.1-0.2-0.2-0.2-0.2
			c0-0.1,0.1-0.4,0.4-0.8l0.1-0.2c0.6-0.7,1.3-1.6,1.4-3c0-1.5-0.8-2.5-1.4-3.2c-0.4-0.5-0.7-0.8-0.7-1.1c0-0.4,0.3-0.8,0.8-1.5
			c0.7-0.9,1.7-2.1,1.5-3.8c-0.1-1.5-1-2.4-1.7-3.1l-0.2-0.2c-0.5-0.5-0.9-1.1-1.3-1.7c-0.2-0.3-0.2-0.4-0.2-0.4
			c0.1-0.1,0.5-0.4,0.7-0.6L55,75c2.3-1.6,3.9-5.4,2.6-8.6c-0.2-0.5-0.5-1-0.8-1.4c-0.4-0.7-0.7-1.1-0.7-1.6c0-0.5,0.4-1,1-1.7
			c0.5-0.6,1.1-1.2,1.4-2.1c0.7-1.6,0.5-3.6-0.3-5c-0.1-0.2-0.3-0.4-0.5-0.7c-0.1-0.2-0.3-0.4-0.3-0.5c-0.2-0.5-0.1-1.3,0.3-2.2
			c0.2-0.4,0.4-0.8,0.6-1.1c0.4-0.6,0.7-1.3,1-2.1c0.5-1.5,0.6-3.7-0.6-5c-0.1-0.1-0.3-0.3-0.4-0.4c0,0-0.1,0-0.1-0.1
			c0-0.1,0.1-0.4,0.4-1l2.9-5.3c0-0.1,0.1-0.1,0.1-0.2c-1.3,0.1-2.6,0.4-3.8,0.8l-1.7,3.2c-0.9,1.6-1,2.9-0.4,4
			c0.2,0.4,0.6,0.7,0.8,0.9c0,0,0.1,0.1,0.1,0.1c0.2,0.2,0.3,1,0,1.8c-0.2,0.5-0.5,1-0.8,1.6c-0.2,0.4-0.5,0.9-0.7,1.4
			c-0.4,0.8-1.1,2.9-0.2,4.8c0.2,0.4,0.5,0.8,0.7,1.1c0.1,0.1,0.2,0.3,0.3,0.4c0.3,0.5,0.4,1.5,0.1,2.1c-0.2,0.4-0.6,0.9-0.9,1.3
			c-0.8,0.9-1.7,2-1.7,3.7c0,1.4,0.6,2.4,1.2,3.2c0.2,0.4,0.4,0.7,0.6,1c0.7,1.6-0.3,4-1.5,4.8l-0.1,0.1c-0.7,0.5-2.1,1.4-2.1,3.2
			c0,0.8,0.3,1.5,0.6,1.9c0.5,0.9,1.1,1.6,1.7,2.3l0.2,0.2c0.5,0.5,0.8,0.8,0.8,1.2c0,0.4-0.3,0.8-0.8,1.5c-0.7,0.9-1.7,2.1-1.5,3.8
			c0.1,1.3,0.9,2.2,1.5,2.8c0.5,0.5,0.7,0.8,0.7,1.1c0,0.3-0.3,0.6-0.7,1l-0.1,0.2c-1.1,1.3-1.4,2.8-0.9,4c0.3,0.7,0.7,1.1,1,1.3
			c0.1,0.1,0.2,0.2,0.2,0.2c0.2,0.3,0,1.2-0.2,2c-0.1,0.5-0.3,1.1-0.3,1.7c1,0.5,2,0.9,3,1.3c0,0,0,0,0-0.1
			C56.1,101.7,56.3,100.9,56.5,100.1z"/>
		<path fill="#FAF4A6" d="M74.2,97.9c0-0.1,0.2-0.2,0.2-0.2c0.3-0.3,0.8-0.7,1-1.4c0.5-1.2,0.1-2.7-0.9-4l-0.1-0.2
			c-0.3-0.4-0.7-0.8-0.7-1.1c0-0.3,0.2-0.6,0.7-1.1c0.6-0.7,1.3-1.6,1.5-2.9c0.2-1.7-0.8-2.9-1.5-3.8c-0.6-0.7-0.9-1.2-0.9-1.6
			c0-0.4,0.3-0.7,0.8-1.2l0.2-0.2c0.6-0.7,1.2-1.5,1.7-2.3c0.3-0.5,0.6-1.1,0.6-1.9c0-1.8-1.3-2.7-2.1-3.2l-0.1-0.1
			c-1.3-0.9-2.2-3.3-1.5-5c0.1-0.3,0.3-0.7,0.6-1c0.5-0.8,1.1-1.9,1.1-3.3c0-1.7-0.9-2.9-1.7-3.8c-0.4-0.5-0.8-0.9-1-1.4
			c-0.3-0.7-0.2-1.6,0.1-2.2c0.1-0.1,0.2-0.3,0.3-0.4c0.2-0.3,0.5-0.6,0.7-1.1c0.9-1.9,0.1-4-0.2-4.9c-0.2-0.5-0.5-1-0.7-1.4
			c-0.3-0.5-0.6-1.1-0.8-1.6c-0.3-0.8-0.2-1.7,0-1.9c0-0.1,0.1-0.1,0.1-0.1c0.2-0.2,0.5-0.5,0.8-0.9c0.6-1.1,0.4-2.4-0.4-4l-1.4-2.5
			c-1.3-0.4-2.5-0.7-3.9-0.8l2.6,4.8c0.3,0.6,0.4,0.9,0.4,1c0,0-0.1,0.1-0.1,0.1c-0.1,0.1-0.3,0.2-0.4,0.4c-1.2,1.3-1.1,3.5-0.6,5
			c0.3,0.8,0.6,1.5,1,2.1c0.2,0.4,0.4,0.7,0.6,1.1c0.4,0.9,0.5,1.8,0.3,2.2c-0.1,0.1-0.2,0.3-0.3,0.5c-0.2,0.2-0.3,0.4-0.5,0.7
			c-0.9,1.4-1,3.5-0.3,5c0.4,0.9,0.9,1.6,1.4,2.2c0.6,0.8,1,1.2,1,1.8c0,0.5-0.3,0.9-0.7,1.6c-0.3,0.4-0.6,0.9-0.8,1.5
			c-1.3,3.2,0.3,7.1,2.6,8.7l0.1,0.1c0.2,0.2,0.7,0.5,0.7,0.6c0,0,0,0.1-0.2,0.4c-0.4,0.7-0.8,1.2-1.3,1.7l-0.2,0.2
			c-0.7,0.7-1.5,1.6-1.7,3.1c-0.1,1.7,0.8,2.9,1.5,3.8c0.6,0.7,0.9,1.2,0.8,1.6c0,0.3-0.3,0.7-0.7,1.2c-0.6,0.7-1.5,1.7-1.4,3.2
			c0,1.4,0.8,2.3,1.4,3l0.1,0.2c0.3,0.4,0.4,0.8,0.4,0.8c0,0-0.1,0.1-0.2,0.2c-0.2,0.2-0.5,0.4-0.7,0.8c-1,1.5-0.5,3.1-0.2,4.2
			c0.2,0.8,0.4,1.4,0.3,1.9c0,0,0,0,0,0c1-0.4,2-0.8,3-1.3c-0.1-0.6-0.2-1.1-0.4-1.5C74.2,98.6,74.1,98.1,74.2,97.9z"/>
	</g>
</g>
</svg>
