<?xml version="1.0" encoding="utf-8"?>
<!-- Generator: Adobe Illustrator 18.1.1, SVG Export Plug-In . SVG Version: 6.00 Build 0)  -->
<svg version="1.1" id="Layer_1" xmlns="http://www.w3.org/2000/svg" xmlns:xlink="http://www.w3.org/1999/xlink" x="0px" y="0px"
	 viewBox="0 0 128 128" enable-background="new 0 0 128 128" xml:space="preserve">
<g>
	<circle fill="#388CCB" cx="64" cy="64" r="63.5"/>
	<g>
		<circle fill="#FFC717" cx="60.7" cy="60.5" r="39.7"/>
		<path fill="#FEF37E" d="M58.1,29.8C51.6,30.4,45.6,33,40.8,37c-1.1,0.9-1.1,2.5-0.1,3.5l15.8,15.8c1.5,1.5,4.1,0.4,4.1-1.7V32.2
			C60.7,30.9,59.5,29.7,58.1,29.8z"/>
		<polygon fill="#FAF4A6" points="60.7,60.5 60.7,60.5 60.7,60.5 		"/>
		<path fill="#FAF4A6" d="M60.7,32.2v22.4c0,2.1,2.6,3.2,4.1,1.7l15.8-15.8c1-1,0.9-2.6-0.1-3.5c-4.7-4-10.7-6.6-17.3-7.2
			C61.9,29.7,60.7,30.9,60.7,32.2z"/>
		<polygon fill="#FAF4A6" points="60.7,60.5 60.7,60.5 60.7,60.5 		"/>
		<path fill="#FEF37E" d="M91.3,57.9c-0.5-6.6-3.1-12.5-7.2-17.3c-0.9-1.1-2.5-1.1-3.5-0.1L64.8,56.3c-1.5,1.5-0.4,4.1,1.7,4.1h22.4
			C90.3,60.5,91.4,59.3,91.3,57.9z"/>
		<path fill="#FAF4A6" d="M64.8,64.6l15.8,15.8c1,1,2.6,0.9,3.5-0.1c4-4.7,6.6-10.7,7.2-17.3c0.1-1.4-1-2.6-2.4-2.6H66.5
			C64.3,60.5,63.3,63,64.8,64.6z"/>
		<path fill="#FEF37E" d="M60.7,66.3v22.4c0,1.4,1.2,2.5,2.6,2.4c6.6-0.5,12.5-3.1,17.3-7.2c1.1-0.9,1.1-2.5,0.1-3.5L64.8,64.6
			C63.3,63,60.7,64.1,60.7,66.3z"/>
		<path fill="#FAF4A6" d="M40.8,83.9c4.7,4,10.7,6.6,17.3,7.2c1.4,0.1,2.6-1,2.6-2.4V66.3c0-2.1-2.6-3.2-4.1-1.7L40.7,80.4
			C39.8,81.4,39.8,83,40.8,83.9z"/>
		<path fill="#FEF37E" d="M30.1,63c0.5,6.6,3.1,12.5,7.2,17.3c0.9,1.1,2.5,1.1,3.5,0.1l15.8-15.8c1.5-1.5,0.4-4.1-1.7-4.1H32.5
			C31.1,60.5,30,61.6,30.1,63z"/>
		<path fill="#FAF4A6" d="M37.2,40.6c-4,4.7-6.6,10.7-7.2,17.3c-0.1,1.4,1,2.6,2.4,2.6h22.4c2.1,0,3.2-2.6,1.7-4.1L40.7,40.5
			C39.8,39.5,38.1,39.6,37.2,40.6z"/>
	</g>
</g>
</svg>
