<?xml version="1.0" encoding="utf-8"?>
<!-- Generator: Adobe Illustrator 18.1.1, SVG Export Plug-In . SVG Version: 6.00 Build 0)  -->
<svg version="1.1" id="Layer_1" xmlns="http://www.w3.org/2000/svg" xmlns:xlink="http://www.w3.org/1999/xlink" x="0px" y="0px"
	 viewBox="0 0 128 128" enable-background="new 0 0 128 128" xml:space="preserve">
<g>
	<circle fill="#41B655" cx="64" cy="64" r="63.5"/>
	<g>
		<path fill="#753A29" d="M87.9,76.1c0,16.6-10.7,27.6-23.9,27.6s-23.9-11-23.9-27.6S50.8,43.6,64,43.6S87.9,59.5,87.9,76.1z"/>
		<path fill="#915037" d="M87.5,80l-0.9,0.8l-8.8-7.1l9-7.3c-0.4-1.8-1-3.5-1.6-5.1l-7.3-5.9l2.8-2.2c-0.6-0.8-1.3-1.6-2-2.4
			l-3.3,2.6l-8.8-7.1l2.3-1.9c-1.3-0.4-2.7-0.6-4.1-0.7L64,44.2l-0.7-0.6c-1.4,0.1-2.8,0.3-4.1,0.7l2.3,1.9l-8.8,7.1l-3.3-2.6
			c-0.7,0.7-1.3,1.5-2,2.4l2.8,2.2l-7.3,5.9c-0.7,1.6-1.2,3.3-1.6,5.1l9,7.3l-8.8,7.1L40.5,80l-0.2,0.2c0.2,1.6,0.5,3.2,0.9,4.7
			l0.3-0.2l8.8,7.1l-4,3.3c0.7,0.8,1.4,1.6,2.1,2.3l4.4-3.6l8.8,7.1l-2.6,2.1c1.4,0.3,2.8,0.5,4.2,0.5L64,103l0.8,0.7
			c1.4-0.1,2.9-0.2,4.2-0.5l-2.6-2.1l8.8-7.1l4.4,3.6c0.7-0.7,1.4-1.5,2.1-2.3l-4-3.3l8.8-7.1l0.3,0.2c0.4-1.5,0.7-3.1,0.9-4.7
			L87.5,80z M84.1,64.5l-8.8,7.1l-8.8-7.1l8.8-7.1L84.1,64.5z M72.8,73.6L64,80.7l-8.8-7.1l8.8-7.1L72.8,73.6z M64,48.2l8.8,7.1
			L64,62.5l-8.8-7.1L64,48.2z M43.9,64.5l8.8-7.1l8.8,7.1l-8.8,7.1L43.9,64.5z M52.7,89.9l-8.8-7.1l8.8-7.1l8.8,7.1L52.7,89.9z
			 M64,99l-8.8-7.1l8.8-7.1l8.8,7.1L64,99z M75.3,89.9l-8.8-7.1l8.8-7.1l8.8,7.1L75.3,89.9z"/>
		<path fill="#E3E6E8" d="M65.6,43.7c1.3,0.1,2.6,0.4,3.8,0.8c7-1.9,11.6-7.6,11-14.5c-4.3-0.1-8.2,1.2-11.1,3.4
			C69.8,37,68.5,40.7,65.6,43.7z"/>
		<path fill="#AFB7BB" d="M64,43.6c0.5,0,1.1,0,1.6,0.1c5.6-5.8,5.1-14.1-1.6-19.4c-6.7,5.3-7.2,13.6-1.6,19.4
			C62.9,43.6,63.5,43.6,64,43.6z"/>
		<path fill="#E3E6E8" d="M58.7,44.5c-6.9-1.9-11.5-7.6-10.9-14.5c4.3-0.1,8,1.2,10.9,3.3c-0.4,3.6,0.8,7.4,3.8,10.4"/>
	</g>
</g>
</svg>
