<?xml version="1.0" encoding="utf-8"?>
<!-- Generator: Adobe Illustrator 18.1.1, SVG Export Plug-In . SVG Version: 6.00 Build 0)  -->
<svg version="1.1" id="Layer_1" xmlns="http://www.w3.org/2000/svg" xmlns:xlink="http://www.w3.org/1999/xlink" x="0px" y="0px"
	 viewBox="0 0 128 128" enable-background="new 0 0 128 128" xml:space="preserve">
<g>
	<circle fill="#388CCB" cx="64" cy="64" r="63.5"/>
	<g>
		<path fill="#E3E6E8" d="M80.5,64.4c-3.3-4.2-5.6-8.8-7.1-13.7C71.6,44.9,68.1,41,64,41c-4.1,0-7.6,3.9-9.4,9.7
			c-1.5,4.9-3.8,9.5-7.1,13.7c-3.3,4.2-5.3,9.6-5.3,15.5c0,13.1,9.8,23.8,21.8,23.8s21.8-10.6,21.8-23.8
			C85.8,74,83.8,68.6,80.5,64.4z"/>
		<path fill="#753A29" d="M61.6,41.5c0.8-0.3,1.6-0.5,2.4-0.5c0.5,0,0.9,0.1,1.4,0.2c0-0.1,0-0.2,0-0.3c0-0.5-0.9-11.6,7-12.7
			C73.4,28,74.2,27,74,26c-0.1-1.1-1.1-1.8-2.2-1.7c-9.3,1.3-10.8,11.6-10.3,16.8C61.6,41.3,61.6,41.4,61.6,41.5z"/>
	</g>
</g>
</svg>
