<?xml version="1.0" encoding="utf-8"?>
<!-- Generator: Adobe Illustrator 18.1.1, SVG Export Plug-In . SVG Version: 6.00 Build 0)  -->
<svg version="1.1" id="Layer_1" xmlns="http://www.w3.org/2000/svg" xmlns:xlink="http://www.w3.org/1999/xlink" x="0px" y="0px"
	 viewBox="0 0 128 128" enable-background="new 0 0 128 128" xml:space="preserve">
<g>
	<circle fill="#41B655" cx="64" cy="64" r="63.5"/>
	<g>
		<circle fill="#F4B1A8" cx="78" cy="50" r="25.7"/>
		<path fill="#E67374" d="M91.7,71.8c1.6-1,3.1-2.2,4.5-3.6c0.9-0.9,1.8-1.9,2.5-2.9c-14.2-9.6-26.4-21.8-36-36
			c-1,0.8-2,1.6-2.9,2.5c-1.4,1.4-2.6,2.9-3.6,4.5C65.9,50.1,77.9,62.1,91.7,71.8z"/>
		<path fill="#FCD83A" d="M59.8,68.2c-1.2-1.2-2.2-2.4-3.1-3.7l-31,31c-1.9,1.9-1.9,4.9,0,6.7l0,0c1.9,1.9,4.9,1.9,6.7,0l31-31
			C62.2,70.4,60.9,69.4,59.8,68.2z"/>
	</g>
</g>
</svg>
