<?xml version="1.0" encoding="utf-8"?>
<!-- Generator: Adobe Illustrator 18.1.1, SVG Export Plug-In . SVG Version: 6.00 Build 0)  -->
<svg version="1.1" id="Layer_1" xmlns="http://www.w3.org/2000/svg" xmlns:xlink="http://www.w3.org/1999/xlink" x="0px" y="0px"
	 viewBox="0 0 128 128" enable-background="new 0 0 128 128" xml:space="preserve">
<g>
	<circle fill="#FFC717" cx="64" cy="64" r="63.5"/>
	<g>
		<path fill="#EC5552" d="M81.6,44.4c-3.1,0-6.1,0.8-8.8,2.2c-2.7-1.4-5.7-2.2-8.8-2.2c-3.1,0-6.1,0.8-8.8,2.2
			c-2.7-1.4-5.7-2.2-8.8-2.2c-12.2,0-22.1,11.7-22.1,26.2c0,14.5,9.9,26.2,22.1,26.2c3.1,0,6.1-0.8,8.8-2.2c2.7,1.4,5.7,2.2,8.8,2.2
			c3.1,0,6.1-0.8,8.8-2.2c2.7,1.4,5.7,2.2,8.8,2.2c12.2,0,22.1-11.7,22.1-26.2C103.7,56.1,93.8,44.4,81.6,44.4z"/>
		<polygon fill="#E3E6E8" points="39.3,76.5 50.1,87.3 57.9,81.9 63.9,85.3 70,80.5 79.1,86.6 88.7,76.5 79.9,79.7 70.4,72.8 
			64,76.6 58,72.8 49.8,79.6 		"/>
		<polygon fill="#E3E6E8" points="55.4,63.5 44.6,63.5 50,52.6 		"/>
		<polygon fill="#E3E6E8" points="83.4,63.5 72.6,63.5 78,52.6 		"/>
		<path fill="#915037" d="M64,44.4c1.9,0,3.8,0.3,5.6,0.9c-1.4-4.9-5.6-12.7-18.9-14.1c0,0,6.6,7.4,7.7,14.1
			C60.2,44.7,62.1,44.4,64,44.4z"/>
	</g>
</g>
</svg>
