<?xml version="1.0" encoding="utf-8"?>
<!-- Generator: Adobe Illustrator 18.1.1, SVG Export Plug-In . SVG Version: 6.00 Build 0)  -->
<svg version="1.1" id="Layer_1" xmlns="http://www.w3.org/2000/svg" xmlns:xlink="http://www.w3.org/1999/xlink" x="0px" y="0px"
	 viewBox="0 0 128 128" enable-background="new 0 0 128 128" xml:space="preserve">
<g>
	<circle fill="#41B655" cx="64" cy="64" r="63.5"/>
	<g>
		<path fill="#E3E6E8" d="M30.2,96.3h69.4c-2.6-18.5-3.1-36.9,0-55.4H30.2C33.3,59.4,32.9,77.8,30.2,96.3z"/>
		<rect x="30.2" y="33.5" fill="#CDD3D6" width="69.4" height="7.4"/>
		<rect x="30.2" y="96.3" fill="#CDD3D6" width="69.4" height="7.4"/>
		<rect x="35.4" y="33.5" fill="#B1B9BC" width="2.5" height="7.4"/>
		<rect x="43.4" y="33.5" fill="#B1B9BC" width="2.5" height="7.4"/>
		<rect x="51.5" y="33.5" fill="#B1B9BC" width="2.5" height="7.4"/>
		<rect x="59.6" y="33.5" fill="#B1B9BC" width="2.5" height="7.4"/>
		<rect x="67.6" y="33.5" fill="#B1B9BC" width="2.5" height="7.4"/>
		<rect x="75.7" y="33.5" fill="#B1B9BC" width="2.5" height="7.4"/>
		<rect x="83.7" y="33.5" fill="#B1B9BC" width="2.5" height="7.4"/>
		<rect x="91.8" y="33.5" fill="#B1B9BC" width="2.5" height="7.4"/>
		<rect x="35.4" y="96.3" fill="#B1B9BC" width="2.5" height="7.4"/>
		<rect x="43.4" y="96.3" fill="#B1B9BC" width="2.5" height="7.4"/>
		<rect x="51.5" y="96.3" fill="#B1B9BC" width="2.5" height="7.4"/>
		<rect x="59.6" y="96.3" fill="#B1B9BC" width="2.5" height="7.4"/>
		<rect x="67.6" y="96.3" fill="#B1B9BC" width="2.5" height="7.4"/>
		<rect x="75.7" y="96.3" fill="#B1B9BC" width="2.5" height="7.4"/>
		<rect x="83.7" y="96.3" fill="#B1B9BC" width="2.5" height="7.4"/>
		<rect x="91.8" y="96.3" fill="#B1B9BC" width="2.5" height="7.4"/>
		<path fill="#FBD839" d="M37.7,30c-0.2,0-0.4,0-0.6-0.1c-0.6-0.2-1-0.7-1.1-1.2c-0.2-0.8,0.1-1.5,0.4-2c1.5-2,4.2-2.2,5.6-2.3
			c1,0,1.7,0.6,1.8,1.6c0.1,0.9-0.6,1.7-1.6,1.8c-1,0.1-2.2,0.2-2.9,0.6c0,0.2,0,0.4-0.1,0.5C39,29.6,38.3,30,37.7,30z"/>
		<path fill="#FBD839" d="M52,29.6c-0.3,0-0.7-0.1-0.9-0.3c-0.8-0.5-0.9-1.6-0.4-2.3c1.6-2.3,4.7-2.6,6.2-2.7c1.2-0.1,4.3-0.3,5.8,2
			c0.5,0.8,0.3,1.8-0.4,2.3c-0.8,0.5-1.8,0.3-2.3-0.4c-0.5-0.7-2.3-0.6-2.8-0.5c-1.5,0.1-3.1,0.3-3.7,1.2C53,29.4,52.5,29.6,52,29.6
			z"/>
		<path fill="#FBD839" d="M86.9,29.6c-0.5,0-0.9-0.2-1.2-0.5c-0.7-0.8-2-1-4.2-0.9c-0.2,0-0.5,0-0.6,0.1c-0.1,0.7-0.8,1.3-1.6,1.3
			c0,0,0,0-0.1,0c-0.9,0-1.6-0.7-1.7-1.6c0-1.1,0.6-2.1,1.7-2.7c0.7-0.4,1.4-0.4,2.1-0.5c2-0.1,5,0,6.8,2c0.6,0.7,0.6,1.7-0.1,2.4
			C87.7,29.5,87.3,29.6,86.9,29.6z"/>
		<ellipse fill="#F7BE2A" cx="64.9" cy="67.9" rx="19.1" ry="11.7"/>
	</g>
</g>
</svg>
