<?xml version="1.0" encoding="utf-8"?>
<!-- Generator: Adobe Illustrator 18.1.1, SVG Export Plug-In . SVG Version: 6.00 Build 0)  -->
<svg version="1.1" id="Layer_1" xmlns="http://www.w3.org/2000/svg" xmlns:xlink="http://www.w3.org/1999/xlink" x="0px" y="0px"
	 viewBox="0 0 128 128" enable-background="new 0 0 128 128" xml:space="preserve">
<g>
	<circle fill="#EF4538" cx="64" cy="64" r="63.5"/>
	<g>
		<path fill="#FAF4A6" d="M46.7,74.2c0-13.7,3.5-25.1,8.2-28.5c-3.3,1.1-6.9,0.9-10.1-0.6c-0.6-0.3-1.2-0.4-1.9-0.4
			c-6.1,0-11,13.2-11,29.5c0,16.3,4.9,29.5,11,29.5c0.6,0,1.3-0.1,1.9-0.4c3.3-1.5,6.8-1.7,10.1-0.6C50.2,99.3,46.7,87.9,46.7,74.2z
			"/>
		<path fill="#FAF4A6" d="M86.9,44.7c-0.6,0-1.3,0.1-1.9,0.4c-2.7,1.3-5.7,1.6-8.6,1C80.8,50,84,61.1,84,74.2
			c0,13.1-3.2,24.2-7.6,28.1c2.9-0.6,5.8-0.3,8.6,1c0.6,0.3,1.2,0.4,1.9,0.4c6.1,0,11-13.2,11-29.5C97.8,57.9,92.9,44.7,86.9,44.7z"
			/>
		<path fill="#FFC717" d="M73,44.7c-0.6,0-1.3,0.1-1.9,0.4c-3.7,1.7-7.9,1.7-11.6,0c-0.6-0.3-1.2-0.4-1.9-0.4
			c-6.1,0-11,13.2-11,29.5c0,16.3,4.9,29.5,11,29.5c0.6,0,1.3-0.1,1.9-0.4c3.7-1.7,7.9-1.7,11.6,0c0.6,0.3,1.2,0.4,1.9,0.4
			c6.1,0,11-13.2,11-29.5C84,57.9,79.1,44.7,73,44.7z"/>
		<path fill="#753A29" d="M63.3,46.3c1.2,0.2,2.5,0.2,3.8,0.1c0.1-0.3,0.2-0.6,0.1-1c-0.1-0.6-2-13.6,9.9-17.2
			c1-0.3,1.6-1.4,1.3-2.5c-0.3-1.1-1.4-1.6-2.5-1.3C63.7,28.1,62.3,40.1,63.2,46C63.2,46.1,63.2,46.2,63.3,46.3z"/>
	</g>
</g>
</svg>
