<?xml version="1.0" encoding="utf-8"?>
<!-- Generator: Adobe Illustrator 18.1.1, SVG Export Plug-In . SVG Version: 6.00 Build 0)  -->
<svg version="1.1" id="Layer_1" xmlns="http://www.w3.org/2000/svg" xmlns:xlink="http://www.w3.org/1999/xlink" x="0px" y="0px"
	 viewBox="0 0 128 128" enable-background="new 0 0 128 128" xml:space="preserve">
<g>
	<circle fill="#41B655" cx="64" cy="64" r="63.5"/>
	<g>
		<path fill="#E3E6E8" d="M71.1,37.2h-2.7v14c0,0.8-0.7,1.5-1.5,1.5c-0.8,0-1.5-0.7-1.5-1.5v-14h-2.9v14c0,0.8-0.7,1.5-1.5,1.5
			s-1.5-0.7-1.5-1.5v-14h-2.7l-0.8,17.6c-0.2,4.5,3.4,8.3,7.9,8.3l0,0c4.5,0,8.2-3.8,7.9-8.3L71.1,37.2z"/>
		<path fill="#5D5E61" d="M64.1,63.2c-0.9,0-1.8-0.2-2.6-0.4L59.8,94c-0.1,2.4,1.8,4.4,4.2,4.4c2.4,0,4.3-2,4.2-4.4l-1.7-31.2
			C65.7,63,64.9,63.2,64.1,63.2z"/>
		<path fill="#753A29" d="M89.7,44.9c-16.6-6.1-34.8-6.1-51.4-0.1c-2.9,1-6.3-0.1-7.8-2.8l0,0c-1.5-2.7,0.1-6.2,3.5-7.4
			c19.3-7.1,40.6-7.1,59.9-0.1c3.5,1.2,5,4.7,3.5,7.5l0,0C96,44.7,92.5,45.9,89.7,44.9z"/>
		<path fill="#915037" d="M31.5,43.3c-0.4-0.4-0.7-0.8-1-1.3c-0.4-0.8-0.6-1.6-0.5-2.5l-5.7,0.4l1.4,0.8l-0.5,1.6l1.4,0.8l-0.5,1.6
			l1.4,0.8L27.2,47L31.5,43.3z"/>
		<path fill="#915037" d="M102.3,40.7l1.4-0.8L98,39.5c0,0.8-0.1,1.7-0.6,2.5c-0.3,0.5-0.6,1-1,1.3l4.3,3.7l-0.5-1.6l1.4-0.8
			l-0.5-1.6l1.4-0.8L102.3,40.7z"/>
	</g>
</g>
</svg>
