<?xml version="1.0" encoding="utf-8"?>
<!-- Generator: Adobe Illustrator 18.1.1, SVG Export Plug-In . SVG Version: 6.00 Build 0)  -->
<svg version="1.1" id="Layer_1" xmlns="http://www.w3.org/2000/svg" xmlns:xlink="http://www.w3.org/1999/xlink" x="0px" y="0px"
	 viewBox="0 0 128 128" enable-background="new 0 0 128 128" xml:space="preserve">
<g>
	<circle fill="#388CCB" cx="64" cy="64" r="63.5"/>
	<g>
		<path fill="#E3E6E8" d="M102.2,59.3c-7.5,3.8-22.3-5.1-37.4-4.1c-15.1-1.2-30,7.8-37.3,4.1c-3.2-2.1-3.6-10,2.7-18.5
			c6-8.3,18.8-17,34.7-16.7c15.9-0.4,28.7,8.3,34.7,16.6C105.9,49.2,105.5,57.2,102.2,59.3z"/>
		<path fill="#BEC9CD" d="M74.1,55.6c-2.6-0.3-5.3-0.5-8-0.3c-3.5-0.3-7.1,0-10.5,0.6l-3.5,33.1c-0.8,7.8,5.1,14.6,12.7,14.6
			c7.6,0,13.5-6.8,12.7-14.6L74.1,55.6z"/>
	</g>
</g>
</svg>
