<?xml version="1.0" encoding="utf-8"?>
<!-- Generator: Adobe Illustrator 18.1.1, SVG Export Plug-In . SVG Version: 6.00 Build 0)  -->
<svg version="1.1" id="Layer_1" xmlns="http://www.w3.org/2000/svg" xmlns:xlink="http://www.w3.org/1999/xlink" x="0px" y="0px"
	 viewBox="0 0 90 90" enable-background="new 0 0 90 90" xml:space="preserve">
<g>
	<circle fill="#41B655" cx="45" cy="45" r="44.6"/>
	<g>
		<path fill="#FCD83A" d="M57.4,42.8c1.8-4.5,4.4-8.9,7.5-12.9c3.7-4.8,5.1-9.3,3.3-11.4c-1.8-2.1-6.5-1.3-11.7,1.6
			c-4.4,2.5-9.1,4.4-13.8,5.5s-9.8,3.7-14.4,7.7C18,42,14.1,54.1,19.5,60.5s18.1,4.2,28.2-4.6C52.4,51.9,55.7,47.2,57.4,42.8z"/>
		<path fill="#FFC717" d="M72.5,28.1l-3.7-8c0.4,2.4-1.1,6-4,9.8c-3.1,4-5.7,8.4-7.5,12.9s-5.1,9.2-9.6,13.1
			C37.6,64.7,25,66.7,19.5,60.5l1,2.1c3.9,8.5,13.9,12.6,22.5,8.8c3.1-1.4,6.2-3.4,9.1-5.8c4.6-4,7.9-8.6,9.6-13.1
			c1.7-4.6,4.3-8.9,7.4-12.9C72.8,34.6,73.5,30.5,72.5,28.1z"/>
		
			<ellipse transform="matrix(-0.7122 -0.702 0.702 -0.7122 32.1517 103.6025)" fill="#753A29" cx="37.3" cy="45.2" rx="6.6" ry="10.8"/>
	</g>
</g>
</svg>
