<?xml version="1.0" encoding="utf-8"?>
<!-- Generator: Adobe Illustrator 18.1.1, SVG Export Plug-In . SVG Version: 6.00 Build 0)  -->
<svg version="1.1" id="Layer_1" xmlns="http://www.w3.org/2000/svg" xmlns:xlink="http://www.w3.org/1999/xlink" x="0px" y="0px"
	 viewBox="0 0 90 90" enable-background="new 0 0 90 90" xml:space="preserve">
<g>
	<circle fill="#EF4538" cx="45" cy="45" r="44.6"/>
	<g>
		<path fill="#22A79C" d="M68.3,68.3c1.3-1.3,1.8-3.2,1.3-5c6.3-10,3.5-25-7.2-35.7s-25.7-13.4-35.6-7.2c-1.8-0.5-3.7-0.1-5,1.3
			S20,25,20.4,26.7c-6.3,10-3.5,25,7.2,35.7s25.7,13.4,35.7,7.2C65,70,67,69.6,68.3,68.3z"/>
		<path fill="#168B7D" d="M21.2,36.9c-0.5,0-0.9-0.4-1-0.8l-0.3-1c-0.1-0.6,0.2-1.1,0.8-1.3c0.6-0.1,1.1,0.2,1.3,0.8l0.2,1
			c0.1,0.6-0.2,1.1-0.8,1.3C21.3,36.9,21.2,36.9,21.2,36.9z"/>
		<path fill="#168B7D" d="M21.9,42c-0.4,0-0.8-0.2-1-0.6c-0.2-0.5-0.4-1-0.4-1.5c0-0.6,0.4-1.1,1.1-1.1c0.6,0,1.1,0.4,1.1,1.1
			c0,0.2,0.1,0.5,0.1,0.7c0.2,0.6,0,1.1-0.6,1.4C22.1,42,22,42,21.9,42z"/>
		<path fill="#168B7D" d="M23.9,50.2c-0.5,0-0.9-0.4-1.1-0.8c-0.1-0.6-0.4-1.2-0.6-1.8c-0.3-0.5-0.1-1.1,0.4-1.4
			c0.5-0.3,1.1-0.1,1.4,0.4c0.4,0.8,0.7,1.5,0.8,2.3c0.1,0.6-0.3,1.1-0.8,1.3C24,50.2,24,50.2,23.9,50.2z"/>
		<path fill="#168B7D" d="M27.4,56.8c-0.4,0-0.8-0.3-1-0.6l-0.3-0.6c-0.2-0.6,0.1-1.1,0.6-1.3c0.6-0.2,1.1,0.1,1.3,0.6l0.2,0.6
			c0.2,0.6-0.1,1.1-0.6,1.3C27.6,56.7,27.5,56.8,27.4,56.8z"/>
		<path fill="#168B7D" d="M25.9,42c-0.6,0-1.1-0.5-1.1-1.1v-0.1c0-0.6,0.5-1.1,1.1-1.1c0.6,0,1.1,0.5,1.1,1.1V41
			C26.9,41.6,26.4,42,25.9,42z"/>
		<path fill="#168B7D" d="M30.4,50.2c-0.5,0-1-0.4-1.1-0.9l-0.1-1c-0.1-0.6,0.4-1.1,0.9-1.2c0.6-0.1,1.1,0.4,1.2,0.9l0.1,1
			c0.1,0.6-0.4,1.1-0.9,1.2C30.4,50.2,30.4,50.2,30.4,50.2z"/>
		<path fill="#168B7D" d="M25,35.7c-0.4,0-0.7-0.2-0.9-0.5l-0.4-0.6c-0.3-0.5-0.1-1.1,0.4-1.4c0.5-0.3,1.1-0.1,1.4,0.4l0.4,0.6
			c0.3,0.5,0.1,1.1-0.4,1.4C25.4,35.6,25.2,35.7,25,35.7z"/>
		<path fill="#168B7D" d="M26.5,48.6c-0.6,0-1.1-0.5-1.1-1.1v-0.2c0-0.6,0.5-1.1,1.1-1.1c0.6,0,1.1,0.5,1.1,1.1v0.2
			C27.6,48.2,27.1,48.6,26.5,48.6z"/>
		<path fill="#168B7D" d="M34.9,54.5c-0.3,0-0.6-0.1-0.8-0.4c-0.4,0-0.8-0.4-0.9-0.8c-0.1-0.6,0.2-1.1,0.7-1.3c0.8-0.2,1.7,0.2,2,1
			c0.2,0.6-0.1,1.1-0.6,1.3C35.2,54.4,35,54.5,34.9,54.5z"/>
		<path fill="#168B7D" d="M33.5,63.1c-0.2,0-0.5-0.1-0.7-0.3c-0.7-0.6-1.3-1.3-1.9-2c-0.4-0.5-0.3-1.1,0.2-1.5s1.1-0.3,1.5,0.2
			c0.4,0.6,1,1.2,1.5,1.7c0.4,0.4,0.5,1.1,0.1,1.5C34,63,33.8,63.1,33.5,63.1z"/>
		<path fill="#168B7D" d="M36.6,60.5c-0.4,0-0.6-0.1-0.8-0.4l-0.4-0.5c-0.4-0.5-0.3-1.1,0.2-1.5c0.5-0.4,1.1-0.3,1.5,0.2l0.4,0.5
			c0.4,0.5,0.3,1.1-0.2,1.5C37.1,60.4,36.8,60.5,36.6,60.5z"/>
		<path fill="#168B7D" d="M42.5,59.5c-0.2,0-0.4-0.1-0.6-0.1l-1.5-0.8c-0.5-0.3-0.6-0.9-0.4-1.4c0.3-0.5,0.9-0.6,1.4-0.4l1.5,0.8
			c0.5,0.3,0.6,0.9,0.4,1.4C43.2,59.3,42.8,59.5,42.5,59.5z"/>
		<path fill="#168B7D" d="M41.3,68.2c-0.2,0-0.4-0.1-0.6-0.1l-1.5-1c-0.5-0.3-0.6-1-0.3-1.5c0.4-0.5,1-0.6,1.5-0.3l1.5,1
			c0.5,0.4,0.6,1,0.3,1.5C42,68.1,41.7,68.2,41.3,68.2z"/>
		<path fill="#168B7D" d="M41.3,62.4c-0.3,0-0.5-0.1-0.7-0.3c-0.1-0.1-0.2-0.1-0.4-0.1c-0.6-0.1-1-0.6-1-1.1c0.1-0.6,0.6-1,1.1-1
			c0.6,0.1,1.1,0.3,1.6,0.7c0.4,0.4,0.4,1.1,0.1,1.5C41.9,62.3,41.6,62.4,41.3,62.4z"/>
		<path fill="#168B7D" d="M49.8,64.7c-0.3,0-0.6-0.1-0.8-0.4c-0.2-0.3-0.6-0.5-0.9-0.6c-0.6-0.2-0.8-0.8-0.6-1.3
			c0.2-0.6,0.8-0.8,1.3-0.6c0.7,0.3,1.3,0.7,1.8,1.3c0.4,0.5,0.3,1.1-0.2,1.5C50.2,64.6,50,64.7,49.8,64.7z"/>
		<path fill="#168B7D" d="M49.8,70.5c-0.2,0-0.4-0.1-0.6-0.1c-0.4,0-0.8-0.2-1.1-0.6c-0.2-0.6,0-1.1,0.6-1.3
			c0.6-0.3,1.3-0.1,1.8,0.4c0.4,0.4,0.4,1.1-0.1,1.5C50.3,70.5,50,70.5,49.8,70.5z"/>
		<path fill="#168B7D" d="M47.6,65.8c-0.1,0-0.2,0-0.3-0.1c-0.1,0-0.2,0-0.4,0c-0.6,0.1-1.1-0.2-1.3-0.8c-0.1-0.6,0.2-1.1,0.8-1.3
			c0.4-0.1,0.9-0.1,1.3,0c0.6,0.1,0.9,0.7,0.7,1.3C48.4,65.5,48,65.8,47.6,65.8z"/>
		<path fill="#168B7D" d="M56.3,66.4c-0.3,0-0.6-0.1-0.8-0.3l-0.8-0.8c-0.4-0.4-0.4-1.1,0-1.5c0.4-0.4,1.1-0.4,1.5,0l0.8,0.8
			c0.4,0.4,0.4,1.1,0,1.5C56.9,66.3,56.6,66.4,56.3,66.4z"/>
		<path fill="#168B7D" d="M55.3,70.3L55.3,70.3c-0.7-0.1-1.3-0.4-1.6-1.1c-0.3-0.5-0.1-1.1,0.4-1.4c0.5-0.3,1.1-0.1,1.4,0.4
			c0.6,0.1,0.9,0.6,0.9,1.1C56.3,69.9,55.8,70.3,55.3,70.3z"/>
		<path fill="#168B7D" d="M52.2,67.2c-0.4,0-0.7-0.1-0.8-0.5c-0.4-0.5-0.2-1.1,0.3-1.5c0.5-0.4,1.1-0.5,1.7-0.4
			c0.6,0.1,1,0.6,0.9,1.2s-0.6,1-1.2,0.9c-0.1,0-0.2,0-0.3,0.1C52.6,67.2,52.4,67.2,52.2,67.2z"/>
	</g>
</g>
</svg>
