<?xml version="1.0" encoding="utf-8"?>
<!-- Generator: Adobe Illustrator 18.1.1, SVG Export Plug-In . SVG Version: 6.00 Build 0)  -->
<svg version="1.1" id="Layer_1" xmlns="http://www.w3.org/2000/svg" xmlns:xlink="http://www.w3.org/1999/xlink" x="0px" y="0px"
	 viewBox="0 0 90 90" enable-background="new 0 0 90 90" xml:space="preserve">
<g>
	<circle fill="#FFC717" cx="45" cy="45" r="44.6"/>
	<g>
		<path fill="#E3E6E8" d="M71.2,37c-0.8,1.3-1.9,2.4-2.5,3.8c-0.9,2.2-0.4,4.6,0.4,6.9c0.8,2.2,2,4.3,2.5,6.6c0.5,2.3,0,5-1.8,6.5
			c-1.2,1-2.8,1.3-4.4,1.5c-7.3,1.1-15.3,0.8-21.5,4.6c-2.7,1.7-5.1,4.1-8.1,5.2c-2.5,0.9-5.4,0.8-8.2,0.8c-1.2-0.1-2.5-0.1-3.4-0.9
			c-0.6-0.5-0.9-1.2-1.1-2c-0.6-2.3-0.1-4.8-0.2-7.2c-0.2-9.1-7.6-17.5-5.5-26.4c1.2-4.9,5.6-9,10.8-10c3.6-0.6,7.3,0.1,10.9-0.4
			c7-1.1,12.4-6.8,19.3-8.5c2.3-0.6,4.8-0.6,7.2-0.6c0.6,0,1.3,0.1,1.9,0.4c0.6,0.4,1.1,1.1,1.4,1.7c1.5,2.7,3,5.6,3.5,8.7
			C73,30.9,72.9,34.3,71.2,37z"/>
		<ellipse fill="#915037" cx="39.7" cy="44.9" rx="9.8" ry="9.5"/>
	</g>
</g>
</svg>
