<?xml version="1.0" encoding="utf-8"?>
<!-- Generator: Adobe Illustrator 18.1.1, SVG Export Plug-In . SVG Version: 6.00 Build 0)  -->
<svg version="1.1" id="Layer_1" xmlns="http://www.w3.org/2000/svg" xmlns:xlink="http://www.w3.org/1999/xlink" x="0px" y="0px"
	 viewBox="0 0 90 90" enable-background="new 0 0 90 90" xml:space="preserve">
<g>
	<circle fill="#388CCB" cx="45" cy="45" r="44.6"/>
	<g>
		<path fill="#914F39" d="M48.2,27.6v-6h-6.3v6c0,3.2-1.2,6.3-3.4,8.6l0,0c-2.2,2.3-3.4,5.4-3.4,8.6v26c0,1.3,1,2.2,2.3,2.2h15.4
			c1.3,0,2.2-1,2.2-2.2v-26c0-3.2-1.2-6.3-3.4-8.6l0,0C49.4,33.8,48.2,30.8,48.2,27.6z"/>
		<path fill="#E3E6E8" d="M49.3,21.7h-8.6v-4c0-0.2,0.2-0.4,0.4-0.4h7.7c0.2,0,0.4,0.2,0.4,0.4L49.3,21.7L49.3,21.7z"/>
		<ellipse fill="#FFC717" cx="44.8" cy="54.6" rx="5.9" ry="10.2"/>
	</g>
</g>
</svg>
