<?xml version="1.0" encoding="utf-8"?>
<!-- Generator: Adobe Illustrator 18.1.1, SVG Export Plug-In . SVG Version: 6.00 Build 0)  -->
<svg version="1.1" id="Layer_1" xmlns="http://www.w3.org/2000/svg" xmlns:xlink="http://www.w3.org/1999/xlink" x="0px" y="0px"
	 viewBox="0 0 90 90" enable-background="new 0 0 90 90" xml:space="preserve">
<g>
	<circle fill="#EF4538" cx="45" cy="45" r="44.6"/>
	<g>
		<path fill="#FFC717" d="M51,46.5c-9.9-6.1-21.2-10.4-32.8-10.5c-1,0-1.5-1.1-0.8-1.8c1.1-1.3,2-2.7,3.2-3.9c2-2,4.6-3,7.4-3.7
			c6.5-1.5,13.6-0.8,19.8,2.1s11.1,7.9,14.1,14.1c1.5,3.1,2.5,6.5,5.2,8.6c2,1.5,4.9,2.6,5.9,4.6c0.3,0.6-0.1,1.4-0.8,1.5l-0.3,0.1
			c-0.7,0.1-1.1,0.9-0.8,1.5c0.6,1.2,1.1,2.4,1.5,3.6c0.1,0.4,0.3,1,0,1.3c-0.3,0.3-0.7,0.3-1.1,0.2c-3-0.5-5.1-3-7-5.3
			c-1.5-1.8-2.9-3.4-4.4-5.1C57.7,51.5,53.7,48.2,51,46.5z"/>
		<path fill="#E3E6E8" d="M51,46.5c-9.4-5.7-20-9.8-30.8-10.5c-1,1.6-0.4,3.9-0.4,5.9c-0.1,1.2-0.4,2.4,0,3.5
			c0.6,1.8,2.7,2.7,4.6,2.7c1.9,0.1,3.9-0.4,5.7,0c1.3,0.3,2.6,0.9,3.9,1.5c5.1,2.2,10.9,3,16.5,3.7c2.4,0.3,5.3,0.4,6.6-1.7
			c0.1-0.1,0.1-0.3,0.2-0.4C55.3,49.5,52.9,47.6,51,46.5z"/>
		<path fill="#915037" d="M22.6,31.6c-0.2,0.6,0,1.1,0.6,1.3c0.1,0.1,0.3,0.1,0.4,0.1c0.4,0,0.8-0.2,1-0.6c0-0.1,2-4.4,7.3-6.2
			c0.2-0.1,0.4-0.3,0.6-0.5c-1.5,0.1-3,0.4-4.4,0.7c-0.6,0.1-1.1,0.3-1.5,0.4C23.7,29.1,22.7,31.5,22.6,31.6z"/>
		<path fill="#915037" d="M29.3,31.5c-0.2,0.6,0,1.1,0.6,1.3c0.1,0.1,0.3,0.1,0.4,0.1c0.4,0,0.8-0.2,1-0.6c0-0.1,2-4.4,7.3-6.2
			c0.1,0,0.2-0.1,0.3-0.1c-1.4-0.2-2.8-0.3-4.2-0.3C30.8,28.1,29.4,31.4,29.3,31.5z"/>
		<path fill="#915037" d="M35.7,32.8c-0.2,0.6,0,1.1,0.6,1.3c0.1,0.1,0.3,0.1,0.4,0.1c0.4,0,0.8-0.2,1-0.6c0-0.1,2-4.4,7.3-6.2
			c-1-0.4-2-0.6-3.1-0.9C37.5,29,35.8,32.6,35.7,32.8z"/>
		<path fill="#915037" d="M41.5,35.4c-0.2,0.6,0,1.1,0.6,1.3c0.1,0.1,0.3,0.1,0.4,0.1c0.4,0,0.8-0.2,1-0.6c0-0.1,1.9-4.2,7-6.1
			c-0.8-0.5-1.5-0.9-2.3-1.3C43.4,31.2,41.6,35.2,41.5,35.4z"/>
		<path fill="#915037" d="M47.4,39.8c-0.2,0.6,0,1.1,0.6,1.4c0.1,0.1,0.3,0.1,0.4,0.1c0.4,0,0.8-0.2,1-0.6c0-0.1,1.8-4.1,6.8-6
			c-0.6-0.6-1.1-1.1-1.7-1.5C49.4,35.4,47.5,39.6,47.4,39.8z"/>
	</g>
</g>
</svg>
