<?xml version="1.0" encoding="utf-8"?>
<!-- Generator: Adobe Illustrator 18.1.1, SVG Export Plug-In . SVG Version: 6.00 Build 0)  -->
<svg version="1.1" id="Layer_1" xmlns="http://www.w3.org/2000/svg" xmlns:xlink="http://www.w3.org/1999/xlink" x="0px" y="0px"
	 viewBox="0 0 90 90" enable-background="new 0 0 90 90" xml:space="preserve">
<g>
	<circle fill="#41B655" cx="45" cy="45" r="44.6"/>
	<g>
		<path fill="#E3E6E8" d="M68,72.9H26.9c-2.7,0-4.9-2-4.9-4.4l0,0c0-2.5,2.2-4.4,4.9-4.4h41.2l0,0C66.7,66.8,66.7,70,68,72.9
			L68,72.9z"/>
		<path fill="#FFC717" d="M22,23.4v45.1c0-2.5,2.1-4.4,4.7-4.4l0,0l0,0H68v-47H28.6C25,17.1,22,19.9,22,23.4z"/>
		
			<ellipse transform="matrix(-0.7071 -0.7071 0.7071 -0.7071 33.8442 79.8535)" fill="#5D5E61" cx="33.5" cy="32.9" rx="9" ry="6.2"/>
		<path fill="#5D5E61" d="M39.9,39.3c-0.4,0.4-1,0.8-1.5,1l14.6,16.2c1.1,1.3,3,1.3,4.2,0.1c1.2-1.2,1.1-3.1-0.1-4.2L40.8,37.9
			C40.6,38.4,40.2,38.9,39.9,39.3z"/>
		<path fill="#D62E2F" d="M64.3,30.2l-1.3-1.3L56,35.7c-0.4,0.4-1.1,0.4-1.5,0c-0.4-0.4-0.4-1.1,0-1.5l6.9-6.9L60,25.9l-6.9,6.9
			c-0.4,0.4-1.1,0.4-1.5,0c-0.4-0.4-0.4-1.1,0-1.5l6.9-6.9l-1.3-1.2l-9,8.2c-2.3,2.1-2.4,5.8-0.2,8l0,0c2.3,2.3,5.9,2.1,8-0.2
			L64.3,30.2z"/>
		<path fill="#D62E2F" d="M48,39.4c-0.4-0.4-0.8-1-1.1-1.5L30.7,52.5c-1.3,1.1-1.3,3-0.1,4.2c1.2,1.2,3.1,1.1,4.2-0.1l14.5-16.2
			C48.9,40.1,48.4,39.8,48,39.4z"/>
	</g>
</g>
</svg>
