<?xml version="1.0" encoding="utf-8"?>
<!-- Generator: Adobe Illustrator 18.1.1, SVG Export Plug-In . SVG Version: 6.00 Build 0)  -->
<svg version="1.1" id="Layer_1" xmlns="http://www.w3.org/2000/svg" xmlns:xlink="http://www.w3.org/1999/xlink" x="0px" y="0px"
	 viewBox="0 0 128 128" enable-background="new 0 0 128 128" xml:space="preserve">
<g>
	<circle fill="#41B655" cx="64" cy="64" r="63.5"/>
	<g>
		<path fill="#E3E6E8" d="M90.3,40.4H37.7v60.4c0,1.6,1.3,2.9,2.9,2.9h46.7c1.6,0,2.9-1.3,2.9-2.9V40.4z"/>
		<path fill="#D62E2F" d="M74.2,55.2c-2.9-0.2-5.7,1-8.2,3.2c-1.1,1-2.8,1-4,0c-2.4-2.3-5.3-3.5-8.2-3.2c-6.7,0.6-11,9.1-9.5,19
			S52.5,91.6,59.2,91c1.3-0.1,2.5-0.5,3.5-1.1c0.8-0.4,1.7-0.4,2.4,0c1.1,0.6,2.3,1,3.5,1.1c6.7,0.6,13.4-7,14.9-16.9
			C85.2,64.2,80.9,55.7,74.2,55.2z"/>
		<path fill="#5D5E61" d="M64.1,60.7c-0.8,0-1.4-0.6-1.5-1.4c-0.3-3.9,1.3-11.8,9-13.9c0.8-0.2,1.6,0.3,1.8,1c0.2,0.8-0.3,1.6-1,1.8
			c-7.4,2-6.8,10.8-6.8,10.8c0.1,0.8-0.6,1.5-1.4,1.6C64.2,60.7,64.1,60.7,64.1,60.7z"/>
		<path fill="#22A79C" d="M65.6,53.1L65.6,53.1L65.6,53.1C57.5,52,51.7,57.8,52.8,66C60.9,67,66.7,61.3,65.6,53.1z"/>
		<rect x="45.1" y="24.3" fill="#753A29" width="37.8" height="8"/>
		<polygon fill="#B6B9BA" points="90.3,40.4 37.7,40.4 45.1,32.4 82.9,32.4 		"/>
	</g>
</g>
</svg>
