<?xml version="1.0" encoding="utf-8"?>
<!-- Generator: Adobe Illustrator 18.1.1, SVG Export Plug-In . SVG Version: 6.00 Build 0)  -->
<svg version="1.1" id="Layer_1" xmlns="http://www.w3.org/2000/svg" xmlns:xlink="http://www.w3.org/1999/xlink" x="0px" y="0px"
	 viewBox="0 0 90 90" enable-background="new 0 0 90 90" xml:space="preserve">
<g>
	<circle fill="#41B655" cx="45" cy="45" r="44.6"/>
	<g>
		<circle fill="#E3E6E8" cx="24.5" cy="65.4" r="7.4"/>
		<path fill="#565756" d="M24.5,65.4c-0.1,0-0.2,0-0.3-0.1c-0.3-0.1-0.4-0.4-0.4-0.6V48.6c0-0.4,0.3-0.7,0.7-0.7
			c0.4,0,0.7,0.3,0.7,0.7v14.5l15.7-15c0.3-0.3,0.7-0.3,1,0s0.3,0.7,0,1L25,65.2C24.8,65.3,24.7,65.4,24.5,65.4z"/>
		<path fill="#565756" d="M40.1,65.4H25c-0.4,0-0.7-0.3-0.7-0.7S24.5,64,25,64h15.2c0.4,0,0.7,0.3,0.7,0.7S40.6,65.4,40.1,65.4z"/>
		<circle fill="#E3E6E8" cx="56.3" cy="65.4" r="7.4"/>
		<path fill="#D62E2F" d="M69.8,43.2H39.7v22.2h9.2c0-4.1,3.3-7.4,7.4-7.4s7.4,3.3,7.4,7.4h4.8c2.5,0,4.4-2,4.4-4.4V46.3
			C72.9,44.6,71.5,43.2,69.8,43.2z"/>
		<path fill="#753A29" d="M22.5,44.2c-1.7,0-3,0.8-3,2c0,0.2,0,1,0,1.2c0,1.1,2.4,1.9,5.4,1.9s5.4-0.8,5.4-1.9
			C30.2,46.3,23.8,44.2,22.5,44.2z"/>
		<path fill="#FACDD4" d="M49.9,17c-8.4,0-15.3,6.8-15.3,15.3h0.1c0-2.8,2.3-5.1,5.1-5.1s5.1,2.3,5.1,5.1c0-2.8,2.3-5.1,5.1-5.1
			s5.1,2.3,5.1,5.1c0-2.8,2.3-5.1,5.1-5.1s5.1,2.3,5.1,5.1h0.1C65.1,23.8,58.3,17,49.9,17z"/>
		<path fill="#915037" d="M49.9,27.2c-0.4,0-0.6,0-0.9,0.1v15.9h1.9V27.4C50.6,27.3,50.2,27.2,49.9,27.2z"/>
	</g>
</g>
</svg>
