<?xml version="1.0" encoding="utf-8"?>
<!-- Generator: Adobe Illustrator 18.1.1, SVG Export Plug-In . SVG Version: 6.00 Build 0)  -->
<svg version="1.1" id="Layer_1" xmlns="http://www.w3.org/2000/svg" xmlns:xlink="http://www.w3.org/1999/xlink" x="0px" y="0px"
	 viewBox="0 0 90 90" enable-background="new 0 0 90 90" xml:space="preserve">
<g>
	<circle fill="#41B655" cx="45" cy="45" r="44.6"/>
	<g>
		<polygon fill="#FBD839" points="73.5,68.3 17.7,68.3 29.1,51.8 62.1,51.8 		"/>
		<path fill="#E3E6E8" d="M36.9,24.4c-0.4-0.5-0.9-0.8-1.5-0.8c-1.1,0-2,0.9-2,2c0,0.6,0.3,1.1,0.7,1.5c-3.4,4.2-4.1,9.6-1.3,13.1
			L52,24.5C48.8,20.5,42.1,20.5,36.9,24.4z"/>
		<path fill="#FFC717" d="M56.5,40.1c-1.5-2-2.5-4.3-3.5-6.6c-1.5,1.2-2.5,2-3.7,3.4c-0.1-1.3-0.8-2-0.9-3.2
			c-2.8,2.3-5.6,4.6-8.9,6.4L56.5,40.1L56.5,40.1z"/>
		<g>
			<path fill="#915037" d="M61,59.3c-0.5,0-0.9-0.4-1.1-0.8l-3.4-17.3H33.6l-3.4,17.3c-0.1,0.6-0.6,0.9-1.2,0.8
				c-0.6-0.1-0.9-0.6-0.8-1.2l3.5-18.1c0.1-0.5,0.5-0.8,1.1-0.8h24.7c0.5,0,0.9,0.4,1.1,0.8L62,58.1c0.1,0.6-0.3,1.1-0.8,1.2
				C61.1,59.3,61,59.3,61,59.3z"/>
		</g>
		<g>
			<path fill="#915037" d="M60.1,41.1H30c-0.6,0-1.1-0.5-1.1-1.1S29.5,39,30,39h30.2c0.6,0,1.1,0.5,1.1,1.1S60.8,41.1,60.1,41.1z"/>
		</g>
		<path fill="#E3E6E8" d="M32.8,39c0,5.3,5.6,9.7,12.4,9.7s12.4-4.4,12.4-9.7C57.5,39,32.8,39,32.8,39z"/>
	</g>
</g>
</svg>
