<?xml version="1.0" encoding="utf-8"?>
<!-- Generator: Adobe Illustrator 18.1.1, SVG Export Plug-In . SVG Version: 6.00 Build 0)  -->
<svg version="1.1" id="Layer_1" xmlns="http://www.w3.org/2000/svg" xmlns:xlink="http://www.w3.org/1999/xlink" x="0px" y="0px"
	 viewBox="0 0 90 90" enable-background="new 0 0 90 90" xml:space="preserve">
<g>
	<circle fill="#388CCB" cx="45" cy="45" r="44.6"/>
	<g>
		<path fill="#E3E6E8" d="M24,40.7c0-7.3,6-13.2,13.4-13.2s13.4,5.9,13.4,13.2"/>
		<path fill="#5D5E61" d="M72.9,20.7c0-2-1.6-3.5-3.6-3.5c-2,0-3.6,1.6-3.6,3.5c0,0,0,0,0,0.1H40.6c-2.8,0-5.1,2.3-5.1,5.1v1.8h3.5
			v-1.8c0-0.8,0.7-1.5,1.5-1.5h28.8l0,0C71.4,24.1,72.9,22.6,72.9,20.7z"/>
		<rect x="17.1" y="37.8" fill="#5D5E61" width="40.4" height="4.9"/>
		<rect x="21" y="42.7" fill="#E3E6E8" width="32.5" height="30.2"/>
		<rect x="17.1" y="68" fill="#5D5E61" width="40.4" height="4.9"/>
	</g>
</g>
</svg>
