<?xml version="1.0" encoding="utf-8"?>
<!-- Generator: Adobe Illustrator 18.1.1, SVG Export Plug-In . SVG Version: 6.00 Build 0)  -->
<svg version="1.1" id="Layer_1" xmlns="http://www.w3.org/2000/svg" xmlns:xlink="http://www.w3.org/1999/xlink" x="0px" y="0px"
	 viewBox="0 0 128 128" enable-background="new 0 0 128 128" xml:space="preserve">
<g>
	<circle fill="#41B655" cx="64" cy="64" r="63.5"/>
	<g>
		<path fill="#FFC717" d="M103.5,66.9c0.1,0,0.1-0.1,0.1-0.1l-0.2,0c-1.1-1-6.3-5.8-11.9-10.8c-1-0.9-2.1-1.6-3.3-2.2
			c-1.9-0.9-4.9-1.9-8.1-1.9c1.5-2.6,2.2-5.5,2.4-7.4c0.2-1.3,0.1-2.7-0.1-4C81.3,33,79.9,26,79.7,24.6l0.1-0.2c0,0-0.1,0-0.1,0.1
			c0-0.1,0-0.1,0-0.1l-0.1,0.2c-1.3,0.7-7.6,4-14.1,7.7c-1.2,0.7-2.2,1.5-3.1,2.4c-1.3,1.4-3.1,3.5-4.2,6.2c-1.9-2.1-4.3-3.6-6-4.4
			c-1.2-0.6-2.5-1-3.8-1.2c-7.4-1.3-14.4-2.3-15.9-2.6l-0.2-0.2c0,0,0,0.1,0,0.1c-0.1,0-0.1,0-0.1,0l0.2,0.2
			c0.2,1.4,1.3,8.5,2.6,15.9c0.2,1.3,0.6,2.6,1.2,3.8c0.9,1.7,2.4,4.2,4.7,6.2c-3.3,1.2-6,3.6-7.5,5.3c-0.9,1-1.6,2.1-2.2,3.3
			c-3.2,6.8-6.1,13.3-6.7,14.6l-0.2,0.1c0,0,0.1,0,0.1,0c0,0.1-0.1,0.1-0.1,0.1l0.2-0.1c1.4,0.2,8.5,1,16,1.7c1.3,0.1,2.7,0.1,4-0.2
			c2.4-0.5,6.1-1.6,8.9-4.2c-0.3,3.9,1.2,7.5,2.3,9.6c0.6,1.2,1.4,2.3,2.3,3.2c5.2,5.4,10.3,10.4,11.3,11.4l0,0.2c0,0,0-0.1,0.1-0.1
			c0.1,0.1,0.1,0.1,0.1,0.1l0-0.2c0.7-1.3,3.9-7.6,7.2-14.4c0.6-1.2,1-2.5,1.2-3.8c0.4-2.2,0.6-5.7-0.5-9c3.1,0.7,6.1,0.3,8.1-0.1
			c1.3-0.3,2.5-0.7,3.7-1.4c6.6-3.6,12.8-7.1,14.1-7.9l0.2,0C103.7,67,103.6,66.9,103.5,66.9z"/>
		<path fill="#915037" d="M64.9,68.4L64.9,68.4c2.3,0.3,4.3,0.7,6,1.2c-0.8-2-1.4-4.4-1.8-7.1l-0.1,0c0,0,0-0.1,0-0.1
			c0,0,0-0.1,0-0.1l0.1,0c0.9-2.4,1.9-4.4,3-6.1c-2.2,0.1-4.7-0.1-7.5-0.7l0,0.1c0,0-0.1-0.1-0.1-0.1c0,0-0.1,0-0.1,0l0-0.1
			c-1.7-1.5-3.2-2.9-4.4-4.4c-0.6,1.8-1.5,3.7-2.7,5.7l0,0c0,0-0.1,0-0.1,0.1c0,0,0,0.1-0.1,0.1l0,0c-2.4,1.4-4.7,2.5-6.8,3.1
			c1.4,1,2.7,2.2,4.2,3.7l0.1,0c0,0,0,0.1,0,0.1c0,0,0.1,0.1,0.1,0.1l-0.1,0c1.1,4,1.4,7.4,1.1,10.3c2.1-2,5-3.9,8.8-5.6l0-0.1
			c0,0,0.1,0,0.1,0C64.8,68.4,64.8,68.4,64.9,68.4z"/>
		
			<ellipse transform="matrix(0.9013 0.4331 -0.4331 0.9013 27.0294 -25.4776)" fill="#915037" cx="69.4" cy="46.6" rx="2.3" ry="4.6"/>
		
			<ellipse transform="matrix(-5.791335e-002 0.9983 -0.9983 -5.791335e-002 147.2346 -10.1717)" fill="#915037" cx="78.4" cy="64.4" rx="2.3" ry="4.9"/>
		
			<ellipse transform="matrix(-0.7432 0.669 -0.669 -0.7432 120.9785 54.9741)" fill="#915037" cx="49.9" cy="50.7" rx="2.4" ry="5"/>
		
			<ellipse transform="matrix(-0.9889 0.1484 -0.1484 -0.9889 143.0931 150.4132)" fill="#915037" cx="65.9" cy="80.5" rx="2" ry="4.2"/>
		
			<ellipse transform="matrix(0.5021 0.8648 -0.8648 0.5021 83.4798 -3.895)" fill="#915037" cx="45.1" cy="70.5" rx="2.4" ry="4.9"/>
	</g>
</g>
</svg>
