<?xml version="1.0" encoding="utf-8"?>
<!-- Generator: Adobe Illustrator 18.1.1, SVG Export Plug-In . SVG Version: 6.00 Build 0)  -->
<svg version="1.1" id="Layer_1" xmlns="http://www.w3.org/2000/svg" xmlns:xlink="http://www.w3.org/1999/xlink" x="0px" y="0px"
	 viewBox="0 0 90 90" enable-background="new 0 0 90 90" xml:space="preserve">
<g>
	<circle fill="#FFC717" cx="45" cy="45" r="44.6"/>
	<g>
		<path fill="#FACDD4" d="M57,53.2L57,53.2c2.2-11.5-4.7-22.4-15.5-24.6S20,33.8,17.6,45.1l0,0c0,0.1,0,0.1,0,0.1s0,0.1,0,0.1
			c-2,9.8,2.8,19.4,11,23.3c-0.1,0.6-0.3,1.3-0.4,2c0.6,0.1,1.1-0.1,1.6-0.4c0.2,0.1-0.1,0.6,0.2,0.7c0.1,0,0.1,0,0.1-0.1
			c0.3-0.1,0.6-0.3,0.8-0.4c0,0.3,0,0.5,0,0.8c0,0.1,0,0.1,0.1,0.2c0.1,0.1,0.1,0,0.2,0c0.5-0.2,0.9-0.4,1.4-0.6
			c-0.2,0.3,0.1,0.8,0.4,0.8c0.4,0.1,0.7-0.1,1-0.4c0.3-0.2,0.6-0.4,1-0.4c-0.2,0.3-0.1,0.7,0.2,0.8c0.3,0.1,0.7-0.1,0.8-0.4
			c-0.1,0.1-0.1,0.4-0.1,0.5c0.1,0.1,0.2,0.3,0.4,0.2c0.1,0,0.1-0.1,0.1-0.1c0.3-0.4,0.6-0.9,0.8-1.4c9.3-0.3,17.6-7.2,19.5-17.2
			c0-0.1,0-0.1,0-0.1C57,53.2,57,53.2,57,53.2z"/>
		<path fill="#E67374" d="M70.6,64.5c-5.9,5.9-15,6.8-21.9,2.5c-0.4,0.3-0.9,0.5-1.4,0.7c-0.1,0-0.1,0.1-0.1,0.1
			c-0.1,0-0.2-0.2-0.1-0.4c0.1-0.1,0.1-0.2,0.3-0.4c-0.3,0.1-0.6,0.1-0.8-0.1c-0.1-0.2-0.1-0.6,0.2-0.7C46.5,66,46.2,66,45.9,66
			c-0.3,0-0.6,0-0.8-0.2s-0.2-0.6,0.1-0.8c-0.4-0.1-0.8-0.1-1.3-0.2c-0.1,0-0.1-0.1-0.2-0.1c0-0.1,0-0.1,0-0.1
			c0.1-0.2,0.2-0.4,0.4-0.6c-0.3-0.1-0.6-0.1-0.8-0.1c-0.1,0-0.1,0-0.1-0.1c-0.1-0.1,0.3-0.4,0.1-0.6c-0.5-0.1-1-0.3-1.3-0.6
			c0.4-0.4,0.8-0.8,1.3-1.3c-4.1-6.8-3.3-15.8,2.5-21.7"/>
		
			<ellipse transform="matrix(-0.7071 0.7071 -0.7071 -0.7071 136.3019 47.3773)" fill="#FACDD4" cx="58.3" cy="51.9" rx="10.6" ry="17.7"/>
		<path fill="#F4B1A8" d="M63.7,63.4L63.7,63.4c-3.6,0-7.8-2.1-11.3-5.6c-5.6-5.6-7.2-12.4-3.9-15.8c1.1-1.1,2.6-1.7,4.4-1.7
			c3.6,0,7.8,2.1,11.3,5.6c5.6,5.6,7.2,12.4,3.9,15.8C67.1,62.9,65.5,63.4,63.7,63.4z M52.9,41.8c-1.5,0-2.7,0.4-3.4,1.3
			c-2.7,2.7-0.9,8.9,3.9,13.8c3.2,3.2,7.2,5.2,10.3,5.2l0,0c1.5,0,2.7-0.4,3.4-1.3c2.7-2.7,0.9-8.9-3.9-13.8
			C60,43.8,56,41.8,52.9,41.8z"/>
		<path fill="#F4B1A8" d="M61.6,59.6L61.6,59.6c-2.4,0-5.1-1.3-7.4-3.6c-1.7-1.7-2.9-3.7-3.4-5.6c-0.5-2-0.1-3.8,1-5
			c0.8-0.8,1.9-1.2,3.2-1.2c2.4,0,5.1,1.3,7.4,3.6c1.7,1.7,2.9,3.7,3.4,5.6c0.5,2,0.1,3.8-1,5C64,59.2,62.9,59.6,61.6,59.6z
			 M55.1,45.6c-0.9,0-1.7,0.3-2.3,0.8c-0.8,0.8-1,2.1-0.6,3.7c0.4,1.7,1.5,3.4,3,5c2,2,4.4,3.2,6.4,3.2l0,0c0.9,0,1.7-0.3,2.3-0.8
			c0.8-0.8,1-2.1,0.6-3.7c-0.4-1.7-1.5-3.4-3-5C59.5,46.8,57,45.6,55.1,45.6z"/>
		<path fill="#F4B1A8" d="M59.7,55.6L59.7,55.6c-1.1,0-2.4-0.6-3.4-1.6c-0.8-0.8-1.3-1.7-1.5-2.6c-0.3-1-0.1-1.9,0.5-2.5
			c0.4-0.4,1-0.6,1.6-0.6c1.1,0,2.4,0.6,3.4,1.6c1.7,1.7,2.2,3.9,1,5.1C61,55.4,60.3,55.6,59.7,55.6z M56.9,49.6
			c-0.3,0-0.5,0.1-0.6,0.2C56,50.1,56,50.5,56.1,51c0.1,0.6,0.6,1.3,1.2,1.9c0.8,0.8,1.7,1.3,2.5,1.3l0,0c0.3,0,0.5-0.1,0.6-0.2
			c0.5-0.5,0.1-1.9-1-3.1C58.6,50.1,57.7,49.6,56.9,49.6z"/>
		<path fill="#41B655" d="M53.2,23.3c0.4-0.1,0.8-0.5,0.7-0.9c-0.1-0.4-0.5-0.8-0.9-0.7c-5,0.7-7.8,6.8-8.3,7.9
			c0.5,0.2,1,0.4,1.5,0.6C46.5,29.2,49.1,23.8,53.2,23.3z"/>
		<path fill="#41B655" d="M49.6,19c0.2-0.4,0-0.9-0.4-1.1c-0.4-0.2-0.9,0-1.1,0.4L43,28.8c0.6,0.1,1.1,0.4,1.5,0.5L49.6,19z"/>
		<path fill="#41B655" d="M42.9,28.9c1.2-2.5,2.2-7.6-2.2-10.5c-0.4-0.3-0.9-0.1-1.1,0.2c-0.3,0.4-0.1,0.9,0.2,1.1
			c4.4,2.9,1.7,8.3,1.5,8.5c-0.1,0.1-0.1,0.1-0.1,0.2c0.1,0,0.1,0,0.2,0.1C42,28.6,42.4,28.8,42.9,28.9z"/>
	</g>
</g>
</svg>
