<?xml version="1.0" encoding="utf-8"?>
<!-- Generator: Adobe Illustrator 18.1.1, SVG Export Plug-In . SVG Version: 6.00 Build 0)  -->
<svg version="1.1" id="Layer_1" xmlns="http://www.w3.org/2000/svg" xmlns:xlink="http://www.w3.org/1999/xlink" x="0px" y="0px"
	 viewBox="0 0 90 90" enable-background="new 0 0 90 90" xml:space="preserve">
<g>
	<circle fill="#EF4538" cx="45" cy="45" r="44.6"/>
	<g>
		<path fill="#FFC717" d="M50.3,45.4c4.4-1.8,10.5,0,14.9,4.6c5.3,5.7,6.1,13.7,1.7,17.8c-3.5,3.2-9.2,3.1-14.1-0.1"/>
		<path fill="#5D5E61" d="M66.9,67.8c-0.7,0.6-1.5,1.2-2.4,1.5c1.2,0.8,2.7,0.8,3.5,0.1c0.8-0.8,0.9-2.1,0.3-3.4
			C68,66.6,67.5,67.2,66.9,67.8z"/>
		<path fill="#FFC717" d="M37.1,66.2c-3.4,3-7.7,4.1-11.3,2.5c-5.5-2.4-7.3-10.2-4.1-17.4s10.2-11,15.7-8.6c0.8,0.4,1.6,0.9,2.3,1.5
			"/>
		<path fill="#FBD839" d="M55.8,55.7c1.1,7.7-2.8,14.8-8.7,15.6c-5.9,0.8-11.6-4.7-12.7-12.4c-1.1-7.7,2.8-14.8,8.7-15.6
			C49.1,42.3,54.7,47.9,55.8,55.7z"/>
		<path fill="#5D5E61" d="M25.9,68.8c-0.8-0.4-1.5-0.8-2.2-1.4c-0.1,1.3,0.4,2.5,1.4,2.9c1,0.4,2.1,0.1,3-0.8
			C27.4,69.3,26.6,69.1,25.9,68.8z"/>
		<path fill="#5D5E61" d="M47.1,71.3c-0.8,0.1-1.8,0.1-2.6,0c0.6,1.1,1.6,1.8,2.7,1.6c1.1-0.1,1.8-1.1,2.1-2.2
			C48.6,70.9,47.9,71.2,47.1,71.3z"/>
		<path fill="#168B7D" d="M25.5,46c3.5-3.4,8.1-4.9,12-3.2c0.8,0.4,1.6,0.9,2.3,1.5v0.1c1.1-0.6,2.2-1.1,3.4-1.3
			c1.1-0.1,2.2-0.1,3.2,0.1c0.1-1.2,0-2.5-0.1-3.7c-1.1-7.7-6.8-13.4-12.7-12.4c-5.9,0.8-9.8,7.9-8.7,15.6
			C24.9,43.9,25.2,45,25.5,46z"/>
		<path fill="#22A79C" d="M46.2,39.7c0.2,1.3,0.2,2.5,0.1,3.7l0,0c1.4,0.4,2.8,1.1,4,2l0,0c3.4-1.3,7.7-0.6,11.5,1.8
			c0.7-2.3,0.9-4.9,0.5-7.5c-1.1-7.7-6.8-13.4-12.7-12.4c-2.7,0.4-5,2.1-6.6,4.6V32C44.6,34,45.8,36.6,46.2,39.7z"/>
		<path fill="#915037" d="M43.1,31.9L43.1,31.9L43.1,31.9c0.4-0.7,0.9-1.3,1.4-1.8c0.3-3.7,1.5-9.8,4.6-10.3
			c0.7-0.1,1.2-0.8,1.1-1.5c-0.1-0.7-0.8-1.2-1.5-1.1c-5.6,1-6.6,9.6-6.8,13.3C42.3,30.9,42.8,31.4,43.1,31.9z"/>
	</g>
</g>
</svg>
