<?xml version="1.0" encoding="utf-8"?>
<!-- Generator: Adobe Illustrator 18.1.1, SVG Export Plug-In . SVG Version: 6.00 Build 0)  -->
<svg version="1.1" id="Layer_1" xmlns="http://www.w3.org/2000/svg" xmlns:xlink="http://www.w3.org/1999/xlink" x="0px" y="0px"
	 viewBox="0 0 128 128" enable-background="new 0 0 128 128" xml:space="preserve">
<g>
	<circle fill="#388CCB" cx="64" cy="64" r="63.5"/>
	<g>
		<path fill="#5D5E61" d="M64,58.9c-21.9,0-39.7-6.5-39.7-14.5v39.5c0,8,17.8,14.5,39.7,14.5c21.9,0,39.7-6.5,39.7-14.5V44.4
			C103.7,52.4,85.9,58.9,64,58.9z"/>
		<ellipse fill="#474847" cx="64" cy="44.4" rx="39.7" ry="14.5"/>
		<ellipse fill="#FAF4A6" cx="64" cy="44.4" rx="31.5" ry="10.3"/>
		<path fill="#E3E6E8" d="M87.3,70.9l-7.3,4.3c-2.5-4.1-8.9-9.5-17.1-9.5c-2.5,0-5.1,0.7-7.6,1.8c-0.1,0-0.2,0.1-0.2,0.1
			c-0.4,0.2-0.8,0.4-1.2,0.6c0,0,0,0,0,0v0c-6.4,3.2-11.9,8.6-13.1,9.9c-0.2,0.2-0.2,0.4,0,0.6c0.4,0.4,1.3,1.3,2.6,2.5
			c0.8-0.4,1.5-0.8,2.4-1.1c0.6-0.2,1.2-0.1,1.6,0.3c0.1,0.1,0.2,0.3,0.3,0.5c0.3,0.7,0,1.6-0.8,1.9c-0.4,0.2-0.7,0.3-1.1,0.5
			c2.5,2.1,5.8,4.3,9.3,5.9c0,0,0,0,0.1,0c2.5,1.1,5.2,1.9,7.8,1.9c8.2,0,14.5-5.5,17-9.5l7.3,4.3V70.9z"/>
		<circle fill="#5D5E61" cx="48.7" cy="76.9" r="2"/>
	</g>
</g>
</svg>
