<?xml version="1.0" encoding="utf-8"?>
<!-- Generator: Adobe Illustrator 18.1.1, SVG Export Plug-In . SVG Version: 6.00 Build 0)  -->
<svg version="1.1" id="Layer_1" xmlns="http://www.w3.org/2000/svg" xmlns:xlink="http://www.w3.org/1999/xlink" x="0px" y="0px"
	 viewBox="0 0 90 90" enable-background="new 0 0 90 90" xml:space="preserve">
<g>
	<circle fill="#EF4538" cx="45" cy="45" r="44.6"/>
	<g>
		<circle fill="#915037" cx="26.7" cy="66.3" r="6.6"/>
		<path fill="#5D5E61" d="M67.4,30.5h-3.4c-0.2,1.8-0.6,3.5-1.3,5.1h4.7c1.4,0,2.5-1.1,2.5-2.5C69.9,31.7,68.8,30.5,67.4,30.5z"/>
		<circle fill="#753A29" cx="26.7" cy="66.3" r="3.1"/>
		<path fill="#FFC717" d="M20.1,27.7c0,12.2,9.8,22,22,22s22-9.8,22-22C64.1,27.7,20.1,27.7,20.1,27.7z"/>
		<path fill="#5D5E61" d="M46.7,49.2l7,23.7l3.4-1.1l-7-23.6C49,48.7,47.8,49,46.7,49.2z"/>
		<path fill="#5D5E61" d="M31.1,61.4l4.6-12.7c-1.1-0.4-2.3-0.8-3.3-1.3l-4.5,12.4C29.1,60,30.2,60.5,31.1,61.4z"/>
		<path fill="#5D5E61" d="M52.2,68.1l-1.1-3.6H33c0.1,0.6,0.3,1.2,0.3,1.8s-0.1,1.2-0.3,1.8H52.2z"/>
		<path fill="#E3E6E8" d="M33.7,25.7c-0.5,0-0.9-0.4-0.9-0.9v-4.4c0-0.5,0.4-0.9,0.9-0.9s0.9,0.4,0.9,0.9v4.4
			C34.7,25.3,34.2,25.7,33.7,25.7z"/>
		<path fill="#E3E6E8" d="M42.1,25.7c-0.5,0-0.9-0.4-0.9-0.9V18c0-0.5,0.4-0.9,0.9-0.9S43,17.5,43,18v6.8
			C43,25.3,42.6,25.7,42.1,25.7z"/>
		<path fill="#E3E6E8" d="M50.5,25.7c-0.5,0-0.9-0.4-0.9-0.9v-4.4c0-0.5,0.4-0.9,0.9-0.9c0.5,0,0.9,0.4,0.9,0.9v4.4
			C51.5,25.3,51,25.7,50.5,25.7z"/>
	</g>
</g>
</svg>
