<?xml version="1.0" encoding="utf-8"?>
<!-- Generator: Adobe Illustrator 18.1.1, SVG Export Plug-In . SVG Version: 6.00 Build 0)  -->
<svg version="1.1" id="Layer_1" xmlns="http://www.w3.org/2000/svg" xmlns:xlink="http://www.w3.org/1999/xlink" x="0px" y="0px"
	 viewBox="0 0 90 90" enable-background="new 0 0 90 90" xml:space="preserve">
<g>
	<circle fill="#FFC717" cx="45" cy="45" r="44.6"/>
	<g>
		<path fill="#168B7D" d="M58.4,41.6c-2-2.7-2.9-6-2.9-9.3v-0.1c0-7-4.7-12.5-10.5-12.5s-10.5,5.6-10.5,12.5v0.1
			c0,3.3-0.8,6.7-2.9,9.3c-2.5,3.2-3.9,7.3-3.9,11.8c0,8.6,5.4,15.8,12.7,17.9c1.5,0.4,3,1.5,4.6,1.5c1.4,0,2.7-1.1,4.1-1.4
			c7.6-2,13.2-9.4,13.2-18.1C62.3,48.9,60.8,44.8,58.4,41.6z"/>
		<ellipse fill="#915037" cx="45" cy="51" rx="8.1" ry="13.5"/>
		<path fill="#753A29" d="M45.8,61.8c-0.1,0.1-0.1,0.1-0.1,0.1c-0.3,0.2-0.8,0.2-1-0.1c-0.2-0.3-0.2-0.8,0.1-1
			c0.1-0.1,0.1-0.2,0.1-0.4c-0.1-0.4,0.2-0.7,0.6-0.8c0.4-0.1,0.7,0.2,0.8,0.6C46.3,60.8,46.1,61.4,45.8,61.8z"/>
		<path fill="#753A29" d="M49.6,58.1c-0.2,0.2-0.5,0.3-0.8,0.1c-0.4-0.1-0.5-0.6-0.4-0.9c0.2-0.4,0.4-0.8,0.4-1.3
			c0.1-0.4,0.4-0.6,0.8-0.6c0.4,0.1,0.6,0.4,0.6,0.8c-0.1,0.6-0.3,1.1-0.6,1.6C49.8,57.9,49.7,58,49.6,58.1z"/>
		<path fill="#753A29" d="M51.5,51.8C51.3,51.9,51.2,52,51,52c-0.4,0.1-0.7-0.2-0.8-0.6l-0.2-1.5c-0.1-0.4,0.2-0.7,0.6-0.8
			c0.4-0.1,0.7,0.2,0.8,0.6l0.2,1.5C51.7,51.4,51.6,51.6,51.5,51.8z"/>
		<path fill="#753A29" d="M50.2,46.6c-0.1,0.1-0.3,0.2-0.4,0.2c-0.4,0-0.7-0.3-0.8-0.6c0-0.4-0.1-0.8-0.2-1.1
			c-0.1-0.4,0.1-0.8,0.5-0.8s0.8,0.1,0.8,0.5c0.1,0.5,0.2,0.9,0.2,1.4C50.4,46.3,50.3,46.5,50.2,46.6z"/>
		<path fill="#753A29" d="M47.9,42c-0.1,0.1-0.1,0.1-0.1,0.1c-0.4,0.2-0.8,0.1-1-0.2c-0.2-0.4-0.5-0.7-0.8-1c-0.3-0.3-0.4-0.7-0.1-1
			c0.3-0.3,0.7-0.4,1-0.1c0.4,0.4,0.8,0.8,1.1,1.3C48.2,41.5,48.1,41.8,47.9,42z"/>
		<path fill="#753A29" d="M43.7,42l-0.3,0.3c-0.3,0.3-0.7,0.3-1,0c-0.3-0.3-0.3-0.7,0-1l0.3-0.3c0.3-0.3,0.7-0.3,1,0
			C44,41.3,44,41.8,43.7,42z"/>
		<path fill="#753A29" d="M41.6,46.2c-0.1,0.1-0.4,0.2-0.6,0.2c-0.4-0.1-0.6-0.5-0.6-0.8c0-0.1,0-0.2-0.1-0.4
			c-0.2-0.4-0.1-0.8,0.3-0.9c0.4-0.2,0.8-0.1,0.9,0.3c0.2,0.4,0.3,0.8,0.1,1.3C41.8,46,41.7,46.1,41.6,46.2z"/>
		<path fill="#753A29" d="M40.8,49.9c-0.1,0.1-0.3,0.2-0.5,0.2c-0.4,0-0.7-0.3-0.7-0.7L39.5,48c0-0.4,0.3-0.7,0.7-0.7
			c0.4,0,0.7,0.3,0.7,0.7l0.1,1.4C41,49.6,40.9,49.7,40.8,49.9z"/>
		<path fill="#753A29" d="M40.6,54.8c-0.1,0.1-0.2,0.1-0.3,0.2c-0.4,0.1-0.8-0.1-0.8-0.5l-0.4-1.3c-0.1-0.4,0.1-0.8,0.5-0.8
			c0.4-0.1,0.8,0.1,0.8,0.5l0.4,1.3C40.9,54.4,40.9,54.6,40.6,54.8z"/>
		<path fill="#753A29" d="M41.9,58.4L41.9,58.4c-0.4,0.3-0.8,0.3-1.1-0.1l-0.6-0.7c-0.3-0.3-0.2-0.8,0.1-1c0.3-0.3,0.7-0.2,1,0.1
			l0.6,0.7C42.2,57.7,42.2,58.1,41.9,58.4z"/>
		<path fill="#753A29" d="M45.5,57.7c-0.2,0.2-0.4,0.3-0.7,0.1c-0.4-0.1-0.6-0.5-0.4-0.9c0.1-0.4,0.2-0.7,0.3-1.1s0.4-0.6,0.8-0.6
			c0.4,0.1,0.6,0.4,0.6,0.8c-0.1,0.4-0.2,0.8-0.3,1.2C45.6,57.5,45.6,57.6,45.5,57.7z"/>
		<path fill="#753A29" d="M47.5,53c-0.2,0.2-0.6,0.3-0.8,0.1c-0.4-0.2-0.4-0.6-0.2-1c0.2-0.4,0.4-0.8,0.5-1.2
			c0.1-0.4,0.5-0.6,0.8-0.5c0.4,0.1,0.6,0.5,0.5,0.8c-0.1,0.6-0.4,1.1-0.7,1.6C47.5,52.9,47.5,53,47.5,53z"/>
		<path fill="#753A29" d="M46.8,47.2c-0.1,0.1-0.4,0.2-0.6,0.2c-0.4-0.1-0.6-0.4-0.6-0.8s0-0.8-0.1-1.1s0.1-0.8,0.5-0.8
			s0.8,0.1,0.8,0.5c0.1,0.6,0.2,1.1,0.1,1.7C47,47,47,47.1,46.8,47.2z"/>
		<path fill="#753A29" d="M43.7,53.5c-0.2,0.2-0.6,0.3-0.8,0.1c-0.4-0.1-0.5-0.6-0.3-0.9c0.1-0.2,0.1-0.4,0.1-0.6
			c0-0.4,0.4-0.7,0.7-0.6c0.4,0,0.7,0.4,0.6,0.7c0,0.4-0.1,0.8-0.3,1.2C43.7,53.4,43.7,53.4,43.7,53.5z"/>
		<path fill="#753A29" d="M43.9,48.2c-0.1,0.1-0.1,0.1-0.2,0.1c-0.4,0.1-0.8,0-0.9-0.4c-0.1-0.4-0.1-0.9,0.1-1.3
			c0.1-0.4,0.6-0.5,0.9-0.3c0.4,0.1,0.5,0.6,0.3,0.9c0,0.1,0,0.1,0,0.1C44.2,47.7,44.2,48,43.9,48.2z"/>
		<path fill="#565756" d="M45,19.6c0.9,0,1.8,0.1,2.7,0.4c-0.1-1-0.7-1.9-1.5-2.5c-0.6-0.4-1.2-0.6-1.8-0.5c-0.4,0-0.7,0.1-1,0.4
			c-0.2,0.1-0.4,0.4-0.6,0.6c-0.3,0.5-0.6,0.9-0.8,1.5c-0.1,0.2-0.1,0.4-0.1,0.6C42.9,19.8,43.9,19.6,45,19.6z"/>
	</g>
</g>
</svg>
