<?xml version="1.0" encoding="utf-8"?>
<!-- Generator: Adobe Illustrator 18.1.1, SVG Export Plug-In . SVG Version: 6.00 Build 0)  -->
<svg version="1.1" id="Layer_1" xmlns="http://www.w3.org/2000/svg" xmlns:xlink="http://www.w3.org/1999/xlink" x="0px" y="0px"
	 viewBox="0 0 90 90" enable-background="new 0 0 90 90" xml:space="preserve">
<g>
	<circle fill="#EF4538" cx="45" cy="45" r="44.6"/>
	<g>
		<circle fill="#FFC717" cx="45.6" cy="45" r="27.9"/>
		<circle fill="#FAF4A6" cx="45.6" cy="45" r="22.6"/>
		<path fill="#92513B" d="M34.7,61.1c-0.2,0-0.4-0.1-0.6-0.2l-0.8-0.6c-0.5-0.4-0.6-1-0.2-1.5c0.4-0.5,1-0.6,1.5-0.2l0.8,0.6
			c0.5,0.4,0.6,1,0.2,1.5C35.4,61,35,61.1,34.7,61.1z"/>
		<path fill="#92513B" d="M40,63.6c-0.1,0-0.4-0.1-0.5-0.1l-0.9-0.5c-0.5-0.3-0.7-0.9-0.4-1.4c0.3-0.5,0.9-0.7,1.4-0.4l0.9,0.5
			c0.5,0.3,0.7,0.9,0.4,1.4C40.8,63.4,40.4,63.6,40,63.6z"/>
		<path fill="#92513B" d="M46.1,65h-0.8c-0.6,0-1.1-0.5-1.1-1.1s0.5-1.1,1.1-1.1h0.8c0.6,0,1.1,0.5,1.1,1.1S46.6,65,46.1,65z"/>
		<path fill="#92513B" d="M52.5,63.7h-2.5c-0.6,0-1.1-0.5-1.1-1.1c0-0.6,0.5-1.1,1.1-1.1h2.6c0.6,0,1.1,0.5,1.1,1.1
			C53.6,63.2,53,63.7,52.5,63.7z"/>
		<path fill="#92513B" d="M57.7,60.5c-0.4,0-0.8-0.2-0.9-0.6c-0.3-0.5,0-1.1,0.5-1.4l1.3-0.6c0.5-0.3,1.1,0,1.4,0.5
			c0.3,0.5,0,1.1-0.5,1.4l-1.4,0.6C58,60.5,57.9,60.5,57.7,60.5z"/>
		<path fill="#92513B" d="M62.7,56c-0.2,0-0.5-0.1-0.7-0.3c-0.4-0.4-0.5-1.1-0.1-1.5c0.1-0.1,0.1-0.1,0.1-0.1c0.1-0.6,0.6-1,1.1-0.9
			c0.6,0.1,1,0.6,0.9,1.1c-0.1,0.5-0.3,0.9-0.6,1.3C63.3,55.9,63,56,62.7,56z"/>
		<path fill="#92513B" d="M64.4,50.6c-0.1,0-0.1,0-0.1,0c-0.6-0.1-1-0.6-0.9-1.2l0.1-0.7c0.1-0.6,0.6-1,1.2-0.9
			c0.6,0.1,1,0.6,0.9,1.2l-0.1,0.7C65.3,50.3,64.9,50.6,64.4,50.6z"/>
		<path fill="#92513B" d="M65,46.3c-0.1,0-0.1,0-0.1,0c-0.6-0.1-1-0.6-0.9-1.2l0.1-0.8c0.1-0.6,0.6-1,1.2-0.9c0.6,0.1,1,0.6,0.9,1.2
			l-0.1,0.8C66,46,65.5,46.3,65,46.3z"/>
		<path fill="#92513B" d="M64.3,41.9c-0.6,0-1.1-0.5-1.1-1.1v-1.5c0-0.6,0.5-1.1,1.1-1.1s1.1,0.5,1.1,1.1v1.5
			C65.3,41.5,64.8,41.9,64.3,41.9z"/>
		<path fill="#92513B" d="M62.8,36.1c-0.3,0-0.5-0.1-0.7-0.3c-0.1-0.1-0.3-0.2-0.5-0.3c-0.6-0.2-0.8-0.8-0.6-1.3
			c0.2-0.6,0.8-0.8,1.3-0.6c0.4,0.1,0.8,0.4,1.2,0.8c0.4,0.4,0.4,1.1,0.1,1.5C63.4,36.1,63.1,36.1,62.8,36.1z"/>
		<path fill="#92513B" d="M58.4,32.1c-0.5,0-1-0.4-1.1-0.9c-0.4-0.4-0.4-1.1-0.1-1.5c0.4-0.4,1.1-0.5,1.5-0.1
			c0.4,0.4,0.6,0.8,0.7,1.3c0.1,0.6-0.4,1.1-0.9,1.1C58.4,32.1,58.4,32.1,58.4,32.1z"/>
		<path fill="#92513B" d="M55.1,29.1c-0.3,0-0.6-0.1-0.8-0.4c-0.1-0.1-0.2-0.1-0.4-0.2c-0.6-0.1-0.9-0.7-0.7-1.3
			c0.1-0.6,0.7-0.9,1.3-0.7c0.5,0.1,1,0.4,1.3,0.8s0.4,1.1-0.1,1.5C55.6,29,55.3,29.1,55.1,29.1z"/>
		<path fill="#92513B" d="M51.5,27.6c-0.1,0-0.1,0-0.3,0l-0.4-0.1c-0.6-0.1-0.9-0.7-0.8-1.3c0.1-0.6,0.7-0.9,1.3-0.8l0.4,0.1
			c0.6,0.1,0.9,0.7,0.8,1.3C52.5,27.2,52,27.6,51.5,27.6z"/>
		<path fill="#92513B" d="M45.1,26.9h-0.9c-0.6,0-1.1-0.5-1.1-1.1c0-0.6,0.5-1.1,1.1-1.1h0.9c0.6,0,1.1,0.5,1.1,1.1
			C46.2,26.4,45.7,26.9,45.1,26.9z"/>
		<path fill="#92513B" d="M39.2,28.1c-0.4,0-0.8-0.3-1-0.7c-0.2-0.6,0.1-1.1,0.6-1.3l0.6-0.2c0.6-0.2,1.1,0.1,1.3,0.6
			c0.2,0.6-0.1,1.1-0.6,1.3l-0.6,0.3C39.4,28.1,39.4,28.1,39.2,28.1z"/>
		<path fill="#92513B" d="M32.4,32.7c-0.2,0-0.5-0.1-0.6-0.2c-0.4-0.4-0.5-1.1-0.1-1.5l0.9-1.2c0.4-0.4,1-0.5,1.5-0.1
			c0.5,0.4,0.5,1,0.1,1.5l-0.9,1.2C33,32.6,32.7,32.7,32.4,32.7z"/>
		<path fill="#92513B" d="M30,36.1c-0.1,0-0.2,0-0.4-0.1c-0.6-0.2-0.8-0.8-0.6-1.3l0.2-0.6c0.2-0.6,0.8-0.8,1.3-0.6
			c0.6,0.2,0.8,0.8,0.6,1.3L31,35.4C30.9,35.9,30.4,36.1,30,36.1z"/>
		<path fill="#92513B" d="M27.8,40.6c-0.6,0-1.1-0.5-1.1-1.1v-0.8c0-0.6,0.5-1.1,1.1-1.1s1.1,0.5,1.1,1.1v0.8
			C28.8,40.1,28.4,40.6,27.8,40.6z"/>
		<path fill="#92513B" d="M26.1,45.2c-0.6,0-1.1-0.5-1.1-1.1v-1.7c0-0.6,0.5-1.1,1.1-1.1c0.6,0,1.1,0.5,1.1,1.1v1.7
			C27.1,44.7,26.7,45.2,26.1,45.2z"/>
		<path fill="#92513B" d="M26.4,49.2c-0.5,0-1-0.4-1.1-0.9l-0.1-0.7c-0.1-0.6,0.3-1.1,0.9-1.2c0.6-0.1,1.1,0.3,1.2,0.9l0.1,0.7
			c0.1,0.6-0.3,1.1-0.9,1.2C26.5,49.1,26.5,49.2,26.4,49.2z"/>
		<path fill="#92513B" d="M27.9,53.1c-0.5,0-0.9-0.4-1.1-0.8c0-0.1-0.1-0.1-0.1-0.2c-0.4-0.4-0.4-1.1-0.1-1.5
			c0.4-0.4,1.1-0.4,1.5-0.1c0.4,0.4,0.6,0.8,0.7,1.3C29,52.3,28.6,52.9,27.9,53.1C28.1,53.1,28,53.1,27.9,53.1z"/>
		<path fill="#92513B" d="M31.7,56.3c-0.2,0-0.4-0.1-0.5-0.1l-0.7-0.4c-0.5-0.3-0.7-0.9-0.4-1.4c0.3-0.5,0.9-0.7,1.4-0.4l0.7,0.4
			c0.5,0.3,0.7,0.9,0.4,1.4C32.4,56.1,32.1,56.3,31.7,56.3z"/>
		<path fill="#92513B" d="M38.6,58.9c-0.1,0-0.1,0-0.3,0l-0.8-0.2c-0.6-0.1-0.9-0.7-0.8-1.3c0.1-0.6,0.7-0.9,1.3-0.8l0.8,0.2
			c0.6,0.1,0.9,0.7,0.8,1.3C39.4,58.6,39,58.9,38.6,58.9z"/>
		<path fill="#92513B" d="M43.5,60.8c-0.1,0-0.1,0-0.2,0l-1.8-0.4c-0.6-0.1-0.9-0.7-0.8-1.3s0.7-0.9,1.3-0.8l1.8,0.4
			c0.6,0.1,0.9,0.7,0.8,1.3C44.4,60.5,43.9,60.8,43.5,60.8z"/>
		<path fill="#92513B" d="M48.6,59.6h-1.1c-0.6,0-1.1-0.5-1.1-1.1c0-0.6,0.5-1.1,1.1-1.1h1.1c0.6,0,1.1,0.5,1.1,1.1
			C49.6,59.1,49.2,59.6,48.6,59.6z"/>
		<path fill="#92513B" d="M53.5,58.9c-0.4,0-0.8-0.3-1-0.7c-0.2-0.6,0.1-1.1,0.6-1.3l0.9-0.4c0.6-0.2,1.1,0.1,1.3,0.6
			c0.2,0.6-0.1,1.1-0.6,1.3l-0.9,0.4C53.7,58.8,53.6,58.9,53.5,58.9z"/>
		<path fill="#92513B" d="M57.8,56.9c-0.2,0-0.5-0.1-0.7-0.3c-0.4-0.4-0.5-1.1-0.1-1.5c0.1-0.1,0.1-0.3,0.1-0.4
			c0-0.6,0.5-1.1,1.1-1.1c0.6,0,1.1,0.5,1.1,1.1c0,0.6-0.2,1.3-0.6,1.8C58.4,56.7,58.1,56.9,57.8,56.9z"/>
		<path fill="#92513B" d="M60.8,49.4c-0.1,0-0.1,0-0.2,0c-0.6-0.1-0.9-0.6-0.8-1.2l0.1-0.5c0.1-0.6,0.6-0.9,1.2-0.8
			c0.6,0.1,0.9,0.6,0.8,1.2l0,0.5C61.8,49.1,61.3,49.4,60.8,49.4z"/>
		<path fill="#92513B" d="M60.9,44.6c-0.6,0-1.1-0.5-1.1-1.1v-1.1c0-0.6,0.5-1.1,1.1-1.1c0.6,0,1.1,0.5,1.1,1.1v1.1
			C61.9,44.2,61.5,44.6,60.9,44.6z"/>
		<path fill="#92513B" d="M59.8,38.8c-0.6,0-1.1-0.5-1.1-1.1v-0.2c0-0.6,0.5-1.1,1.1-1.1c0.6,0,1.1,0.5,1.1,1.1v0.2
			C60.8,38.4,60.4,38.8,59.8,38.8z"/>
		<path fill="#92513B" d="M55.1,36.4c-0.1,0-0.4-0.1-0.5-0.1l-0.6-0.4c-0.5-0.3-0.7-0.9-0.5-1.4c0.3-0.5,0.9-0.7,1.4-0.5l0.6,0.4
			c0.5,0.3,0.7,0.9,0.5,1.4C55.8,36.2,55.4,36.4,55.1,36.4z"/>
		<path fill="#92513B" d="M54.3,32.9c-0.4,0-0.8-0.2-1-0.6c-0.1-0.1-0.2-0.4-0.4-0.4c-0.4-0.4-0.5-1.1-0.1-1.5
			c0.4-0.4,1.1-0.5,1.5-0.1c0.4,0.4,0.7,0.8,0.9,1.2c0.2,0.6,0,1.1-0.6,1.4C54.6,32.8,54.4,32.9,54.3,32.9z"/>
		<path fill="#92513B" d="M46.3,31h-0.2C45.5,31,45,30.5,45,30c0-0.6,0.5-1.1,1.1-1.1h0.2c0.6,0,1.1,0.5,1.1,1.1
			C47.3,30.5,46.9,31,46.3,31z"/>
		<path fill="#92513B" d="M38.7,33.3c-0.4,0-0.8-0.2-0.9-0.6c-0.3-0.5,0-1.1,0.5-1.4l1.8-0.8c0.5-0.3,1.1,0,1.4,0.5s0,1.1-0.5,1.4
			l-1.8,0.8C39,33.3,38.9,33.3,38.7,33.3z"/>
		<path fill="#92513B" d="M36,38.5c-0.3,0-0.6-0.1-0.8-0.4c-0.4-0.4-0.4-1.1,0.1-1.5l0.9-0.8c0.4-0.4,1.1-0.4,1.5,0.1
			s0.4,1.1-0.1,1.5l-0.9,0.8C36.5,38.4,36.2,38.5,36,38.5z"/>
		<path fill="#92513B" d="M32.3,39.1c-0.6,0-1.1-0.5-1.1-1.1v-0.7c0-0.6,0.5-1.1,1.1-1.1s1.1,0.5,1.1,1.1V38
			C33.3,38.6,32.9,39.1,32.3,39.1z"/>
		<path fill="#92513B" d="M30.9,44.4c-0.6,0-1.1-0.5-1.1-1.1v-0.6c0-0.6,0.5-1.1,1.1-1.1s1.1,0.5,1.1,1.1v0.6
			C32,44,31.5,44.4,30.9,44.4z"/>
		<path fill="#92513B" d="M32.5,49.4c-0.4,0-0.8-0.2-0.9-0.6c-0.1-0.3-0.4-0.6-0.6-0.8c-0.4-0.4-0.4-1.1,0.1-1.5
			c0.4-0.4,1.1-0.4,1.5,0.1c0.4,0.4,0.6,0.8,0.8,1.3c0.3,0.5,0.1,1.1-0.4,1.4C32.8,49.4,32.7,49.4,32.5,49.4z"/>
		<path fill="#92513B" d="M36.1,55.6c-0.2,0-0.5-0.1-0.6-0.2l-0.9-0.8c-0.4-0.4-0.5-1-0.1-1.5c0.4-0.4,1.1-0.5,1.5-0.1l0.9,0.8
			c0.4,0.4,0.5,1.1,0.1,1.5C36.8,55.5,36.4,55.6,36.1,55.6z"/>
		<path fill="#92513B" d="M41.3,55.5c-0.1,0-0.1,0-0.2,0c-0.6-0.1-1.2-0.3-1.8-0.6c-0.5-0.3-0.7-0.9-0.5-1.4
			c0.3-0.5,0.9-0.7,1.4-0.5c0.4,0.2,0.8,0.4,1.2,0.4c0.6,0.1,0.9,0.6,0.8,1.2C42.3,55.1,41.8,55.5,41.3,55.5z"/>
		<path fill="#92513B" d="M45.6,55.8h-0.7c-0.6,0-1.1-0.5-1.1-1.1c0-0.6,0.5-1.1,1.1-1.1h0.7c0.6,0,1.1,0.5,1.1,1.1
			C46.6,55.3,46.1,55.8,45.6,55.8z"/>
		<path fill="#92513B" d="M49.6,56c-0.5,0-1-0.4-1.1-0.9c-0.1-0.6,0.3-1.1,0.9-1.2l0.7-0.1c0.6-0.1,1.1,0.3,1.2,0.9
			c0.1,0.6-0.3,1.1-0.9,1.2L49.7,56C49.7,56,49.6,56,49.6,56z"/>
		<path fill="#92513B" d="M54.2,55.5c-0.2,0-0.5-0.1-0.7-0.3c-0.4-0.4-0.5-1.1-0.1-1.5l0.6-0.6c0.4-0.4,1.1-0.5,1.5-0.1
			c0.4,0.4,0.5,1.1,0.1,1.5L55,55.1C54.8,55.4,54.5,55.5,54.2,55.5z"/>
		<path fill="#92513B" d="M56.7,51.1c-0.1,0-0.2,0-0.4-0.1c-0.6-0.2-0.8-0.8-0.6-1.3l0.3-0.9c0.2-0.6,0.8-0.8,1.3-0.6
			s0.8,0.8,0.6,1.3l-0.4,0.9C57.5,50.8,57.2,51.1,56.7,51.1z"/>
		<path fill="#92513B" d="M57.3,45.8c-0.6,0-1.1-0.5-1.1-1.1v-0.7c0-0.6,0.5-1.1,1.1-1.1s1.1,0.5,1.1,1.1v0.7
			C58.4,45.4,57.9,45.8,57.3,45.8z"/>
		<path fill="#92513B" d="M55.5,42L55.5,42c-0.6-0.1-1.1-0.6-1.1-1.1c0-0.1,0-0.2-0.1-0.4c-0.3-0.5-0.1-1.1,0.4-1.4
			c0.5-0.3,1.1-0.1,1.4,0.4c0.3,0.5,0.4,1,0.4,1.5C56.5,41.6,56.1,42,55.5,42z"/>
		<path fill="#92513B" d="M41.5,35.1c-0.5,0-1-0.4-1.1-0.9c-0.1-0.6,0.4-1.1,0.9-1.2l1.5-0.2c0.6-0.1,1.1,0.4,1.2,0.9
			s-0.4,1.1-0.9,1.2l-1.5,0.2C41.6,35.1,41.5,35.1,41.5,35.1z"/>
		<path fill="#92513B" d="M39.1,50.3c-0.2,0-0.5-0.1-0.7-0.3l-1-0.8c-0.4-0.4-0.5-1.1-0.1-1.5c0.4-0.4,1.1-0.5,1.5-0.1l1,0.8
			c0.4,0.4,0.5,1.1,0.1,1.5C39.7,50.2,39.4,50.3,39.1,50.3z"/>
		<path fill="#92513B" d="M44.7,51.9c-0.1,0-0.1,0-0.1,0L42,51.5c-0.6-0.1-1-0.6-0.8-1.2c0.1-0.6,0.6-1,1.2-0.8l2.6,0.4
			c0.6,0.1,1,0.6,0.8,1.2C45.7,51.5,45.2,51.9,44.7,51.9z"/>
		<path fill="#92513B" d="M51.3,52.9c-0.4,0-0.8-0.2-0.9-0.6c-0.3-0.5-0.1-1.1,0.5-1.4l0,0c0.2-0.6,0.8-0.8,1.4-0.6
			c0.6,0.2,0.8,0.8,0.6,1.4c-0.2,0.4-0.6,0.8-1,1.1C51.7,52.9,51.5,52.9,51.3,52.9z"/>
		<path fill="#92513B" d="M53,48.8c-0.1,0-0.2,0-0.3-0.1c-0.6-0.1-0.8-0.8-0.7-1.3l0.6-1.8c0.1-0.6,0.8-0.8,1.3-0.7
			c0.6,0.1,0.8,0.8,0.7,1.3L54.1,48C53.9,48.4,53.4,48.8,53,48.8z"/>
		<path fill="#92513B" d="M52.2,42.5c-0.4,0-0.8-0.3-1-0.7c0-0.1-0.1-0.1-0.1-0.1c-0.5-0.3-0.7-0.9-0.5-1.4c0.3-0.5,0.9-0.7,1.4-0.5
			c0.6,0.3,1,0.8,1.1,1.3c0.2,0.6-0.1,1.1-0.7,1.3C52.5,42.5,52.3,42.5,52.2,42.5z"/>
		<path fill="#92513B" d="M48.6,39.2c-0.4,0-0.8-0.2-1-0.6c-0.1-0.2-0.3-0.4-0.5-0.5c-0.6-0.2-0.8-0.8-0.6-1.4
			c0.2-0.6,0.8-0.8,1.4-0.6c0.7,0.3,1.3,0.9,1.6,1.6c0.2,0.6,0,1.1-0.6,1.4C48.9,39.2,48.7,39.2,48.6,39.2z"/>
		<path fill="#92513B" d="M51.2,34.9C51.2,34.9,51.1,34.9,51.2,34.9l-2.5-0.1c-0.6,0-1.1-0.5-1-1.1c0-0.6,0.5-1,1.1-1l2.4,0.1
			c0.6,0,1.1,0.5,1,1.1C52.2,34.4,51.8,34.9,51.2,34.9z"/>
		<path fill="#92513B" d="M43.2,39.5c-0.4,0-0.7-0.1-0.8-0.5c-0.4-0.5-0.2-1.1,0.3-1.5l0.6-0.4c0.5-0.4,1.1-0.2,1.5,0.3
			c0.4,0.5,0.2,1.1-0.3,1.5l-0.7,0.5C43.5,39.4,43.3,39.5,43.2,39.5z"/>
		<path fill="#92513B" d="M39.9,41.4c-0.6,0-1.1-0.5-1.1-1.1v-0.5c0-0.6,0.5-1.1,1.1-1.1s1.1,0.5,1.1,1.1v0.5
			C40.9,40.9,40.4,41.4,39.9,41.4z"/>
		<path fill="#92513B" d="M45.2,43.2c-0.6,0-1.1-0.5-1.1-1.1v-0.5c0-0.6,0.5-1.1,1.1-1.1s1.1,0.5,1.1,1.1v0.5
			C46.3,42.8,45.8,43.2,45.2,43.2z"/>
		<path fill="#92513B" d="M41.5,46.3c-0.4,0-0.7-0.2-0.9-0.5l-0.9-1.5c-0.3-0.5-0.1-1.1,0.4-1.4s1.1-0.1,1.4,0.4l0.9,1.5
			c0.3,0.5,0.1,1.1-0.4,1.4C41.9,46.3,41.7,46.3,41.5,46.3z"/>
		<path fill="#92513B" d="M47.9,50c-0.3,0-0.6-0.1-0.8-0.3l-1.1-1.1c-0.4-0.4-0.4-1.1,0-1.5c0.4-0.4,1.1-0.4,1.5,0l1.1,1.1
			c0.4,0.4,0.4,1.1,0,1.5C48.4,49.9,48.2,50,47.9,50z"/>
		<path fill="#92513B" d="M49.1,46.3c-0.3,0-0.6-0.1-0.8-0.4c-0.1-0.1-0.1-0.1-0.2-0.1c-0.6-0.1-1-0.6-0.9-1.2
			c0.1-0.6,0.6-1,1.2-0.9c0.6,0.1,1.1,0.4,1.5,0.8c0.4,0.4,0.4,1.1-0.1,1.5C49.7,46.2,49.4,46.3,49.1,46.3z"/>
		<path fill="#92513B" d="M36.7,45.8c-0.4,0-0.6-0.1-0.8-0.5c-0.4-0.6-0.6-1.3-0.7-2c-0.1-0.6,0.4-1.1,1-1.1c0.6-0.1,1.1,0.4,1.1,1
			c0,0.4,0.1,0.7,0.4,1c0.4,0.5,0.2,1.1-0.3,1.5C37.1,45.8,36.9,45.8,36.7,45.8z"/>
	</g>
</g>
</svg>
