<?xml version="1.0" encoding="utf-8"?>
<!-- Generator: Adobe Illustrator 18.1.1, SVG Export Plug-In . SVG Version: 6.00 Build 0)  -->
<svg version="1.1" id="Layer_1" xmlns="http://www.w3.org/2000/svg" xmlns:xlink="http://www.w3.org/1999/xlink" x="0px" y="0px"
	 viewBox="0 0 90 90" enable-background="new 0 0 90 90" xml:space="preserve">
<g>
	<circle fill="#41B655" cx="45" cy="45" r="44.6"/>
	<g>
		<path fill="#5D5E61" d="M39.4,26.3c-0.8,1.1-1.7,2.5-1.3,3.7c0.3,0.9,1.1,1.5,1.9,2c2.6,1.5,4.9,3.4,6.9,5.7
			c2.5,2.8,3.6,6,3.8,9.8c-2.8-0.8-5-3-7-5.2c-1.9-2.2-3.7-4.6-6.1-6.3c0.4,4.2,0.8,8.6-0.8,12.6c-1.1-0.3-2-1.1-2.7-2.1
			c-0.6-1-1-2.1-1.3-3.2c-0.7-2.6-1.1-5.2-1.4-7.9c-1.5,1.5-3.1,3-4.6,4.5c-0.7,0.7-1.4,1.3-2.3,1.8c-1.5,0.7-3.3,0.7-4.6,1.7
			c0.2-1,0.8-1.9,1.3-2.8c0.8-1.1,1.6-2.3,2.5-3.4c2-2.6,4.1-5.3,7.2-6.5c1-0.4,2-0.6,2.6-1.5c0.3-0.4,0.4-0.8,0.5-1.3
			c0,0,3.5-7.8,7-10.4c0.6-0.4,1.5-0.2,1.8,0.4l0.8,1.5c0.2,0.4,0.1,0.9-0.1,1.3L39.4,26.3z"/>
		<path fill="#FCD83A" d="M51.7,52.9c0-1.8-0.3-3.6-0.7-5.2c0-0.1-0.1-0.1-0.1-0.2l-0.1,0.1c-2.8-0.8-5-3-7-5.2
			c-1.9-2.2-3.7-4.6-6.1-6.3c0.4,4.2,0.8,8.6-0.8,12.6c-1.1-0.3-2-1.1-2.7-2.1c-0.6-1-1-2.1-1.3-3.2c-0.7-2.6-1.1-5.2-1.4-7.9
			c-1.5,1.5-3.1,3-4.6,4.5c-0.7,0.7-1.4,1.3-2.3,1.8c-1.5,0.7-3.3,0.7-4.6,1.7c0-0.1,0-0.1,0.1-0.2L20,43.3c-1.5,3-2.3,6.5-2.3,10.2
			c0.1,10.9,7.9,19.6,17.2,19.5C44.3,72.8,51.8,63.8,51.7,52.9z"/>
		<path fill="#915037" d="M69.6,29c0-0.1,0.1-0.2,0.1-0.3l2.3,0.1c1.2,2.7,1.6,11,1.6,12c0,1.8-0.4,3.6-1.1,5.2
			c-1.3-1.7-1.6-4-1.5-6.1c-1.2,3-3.2,5.7-5.8,7.6c0.8-3,2-5.8,3.2-8.6c-1.8,2-3.7,4-5.4,6C63.8,41.3,69.2,35.3,69.6,29z"/>
		<path fill="#F4B1A8" d="M29.5,64.5c0.8-3.1,3.1-6.9,6.6-6.9c10.3,0.1,21.1-3.9,26.6-12.7l0.3-0.6c-0.1,0.2-0.1,0.4-0.1,0.6
			c1.8-2,3.7-4,5.4-6c-1.2,2.8-2.4,5.7-3.2,8.6c2.6-1.9,4.6-4.6,5.8-7.6c-0.1,2,0.3,4.3,1.4,5.9l0,0C67,60.2,54.8,72,39.2,72.8
			C33.9,73.2,28.7,67.6,29.5,64.5z"/>
	</g>
</g>
</svg>
