<?xml version="1.0" encoding="utf-8"?>
<!-- Generator: Adobe Illustrator 18.1.1, SVG Export Plug-In . SVG Version: 6.00 Build 0)  -->
<svg version="1.1" id="Layer_1" xmlns="http://www.w3.org/2000/svg" xmlns:xlink="http://www.w3.org/1999/xlink" x="0px" y="0px"
	 viewBox="0 0 90 90" enable-background="new 0 0 90 90" xml:space="preserve">
<g>
	<circle fill="#EF4538" cx="45" cy="45" r="44.6"/>
	<g>
		<path fill="#F4B1A8" d="M67.9,46.8L45.6,56l-22.3-9.2c-1.1,0.8-1.8,1.8-1.8,2.8c0,4.1,10.3,10.1,23.6,10.1s24.5-6,24.5-10.1
			C69.6,48.6,69,47.6,67.9,46.8z"/>
		<polyline fill="#753A29" points="23.7,40.8 17.7,44.4 45.6,56 73.5,44.4 67.5,40.8 		"/>
		<path fill="#FFC717" d="M68.3,37.1c0,8.2-10.2,11.3-22.7,11.3s-22.7-3.1-22.7-11.3S33,22.3,45.6,22.3S68.3,29,68.3,37.1z"/>
		<path fill="#FFC717" d="M66.3,54.6h-1c-4.4,2.7-11.9,5.1-20.2,5.1s-15.4-2.3-19.6-5.1H25c-1.6,1-2.5,2.1-2.5,3.3
			c0,4,0.6,9.8,22.8,9.8c23.9,0,23.6-5.8,23.6-9.8C68.8,56.7,67.9,55.6,66.3,54.6z"/>
		<path fill="none" d="M34.8,29.9c-0.3,0-0.6-0.1-0.7-0.4l-0.2-0.3c-0.3-0.4-0.1-0.9,0.2-1.2c0.4-0.3,0.9-0.1,1.2,0.2l0.2,0.3
			c0.3,0.4,0.1,0.9-0.2,1.2C35.2,29.8,35,29.9,34.8,29.9z"/>
		<path fill="none" d="M43.6,28.5c-0.3,0-0.6-0.1-0.8-0.5l-0.1-0.2c-0.2-0.4-0.1-0.9,0.4-1.2c0.4-0.2,0.9-0.1,1.2,0.4l0.1,0.2
			c0.2,0.4,0.1,0.9-0.4,1.2C43.9,28.5,43.7,28.5,43.6,28.5z"/>
		<path fill="none" d="M40.9,43.8c-0.3,0-0.6-0.1-0.8-0.5L40,43.1c-0.2-0.4-0.1-0.9,0.4-1.2c0.4-0.2,0.9-0.1,1.2,0.4l0.1,0.2
			c0.2,0.4,0.1,0.9-0.4,1.1C41.1,43.7,41,43.8,40.9,43.8z"/>
		<path fill="none" d="M36.4,36c-0.2,0-0.5-0.1-0.6-0.3c-0.4,0-0.7-0.3-0.8-0.6c-0.1-0.5,0.1-0.9,0.6-1.1c0.6-0.1,1.3,0.1,1.6,0.7
			c0.2,0.4,0.1,0.9-0.4,1.2C36.6,36,36.5,36,36.4,36z"/>
		<path fill="none" d="M54.6,30.4c-0.5,0-0.8-0.4-0.8-0.8v-0.1c0-0.5,0.4-0.8,0.8-0.8c0.5,0,0.8,0.4,0.8,0.8v0.1
			C55.4,30.1,55,30.4,54.6,30.4z"/>
		<path fill="none" d="M54.6,43.9c-0.5,0-0.8-0.4-0.8-0.8v-0.1c0-0.5,0.4-0.8,0.8-0.8c0.5,0,0.8,0.4,0.8,0.8V43
			C55.4,43.5,55,43.9,54.6,43.9z"/>
		<path fill="none" d="M52.9,37.7c-0.3,0-0.6-0.1-0.7-0.4c-0.3-0.4-0.1-0.9,0.2-1.2c0.4-0.3,0.8-0.4,1.3-0.2
			c0.5,0.1,0.7,0.6,0.6,1.1c-0.1,0.4-0.6,0.7-1,0.6C53.2,37.7,53,37.7,52.9,37.7z"/>
		<path fill="none" d="M45.6,34.8c-0.2,0-0.4-0.1-0.6-0.3l-0.6-0.6c-0.4-0.4-0.4-0.9,0-1.2c0.4-0.4,0.9-0.4,1.2,0l0.6,0.6
			c0.4,0.4,0.4,0.9,0,1.2C46.1,34.7,45.8,34.8,45.6,34.8z"/>
		<path fill="none" d="M61.7,36.8c-0.5,0-0.8-0.4-0.8-0.8v-0.2c0-0.5,0.4-0.8,0.8-0.8c0.5,0,0.8,0.4,0.8,0.8v0.1
			C62.6,36.4,62.2,36.8,61.7,36.8z"/>
		<path fill="none" d="M32.3,40.9c-0.5,0-0.8-0.4-0.8-0.8v-0.2c0-0.5,0.4-0.8,0.8-0.8s0.8,0.4,0.8,0.8V40
			C33.2,40.5,32.8,40.9,32.3,40.9z"/>
	</g>
</g>
</svg>
