<?xml version="1.0" encoding="utf-8"?>
<!-- Generator: Adobe Illustrator 18.1.1, SVG Export Plug-In . SVG Version: 6.00 Build 0)  -->
<svg version="1.1" id="Layer_1" xmlns="http://www.w3.org/2000/svg" xmlns:xlink="http://www.w3.org/1999/xlink" x="0px" y="0px"
	 viewBox="0 0 90 90" enable-background="new 0 0 90 90" xml:space="preserve">
<g>
	<circle fill="#41B655" cx="45" cy="45" r="44.6"/>
	<g>
		<rect x="25.5" y="66.5" fill="#565756" width="30.5" height="3"/>
		<polygon fill="#915037" points="56,23.8 21.7,20.3 25.5,30.9 56,30.9 		"/>
		<path fill="#565756" d="M69.6,54.8L69.6,54.8c-0.9-0.3-1.3-1.3-1.1-2.2c3.4-11,1.1-17.1-0.8-19.8c-0.6-1-1.8-1.6-3-1.6H56v-3.5
			h8.8c2.4,0,4.6,1.2,5.9,3.2c2.2,3.2,5.1,10.5,1.2,22.8C71.6,54.6,70.5,55.1,69.6,54.8z"/>
		<path fill="#753A29" d="M16.5,51.7c0.8,6,4.2,11.3,9.1,14.9h30.7c4.9-3.7,8.3-8.9,9.1-14.9H16.5z"/>
		<path fill="#E3E6E8" d="M65.6,48.7c0-7.2-3.7-13.6-9.4-17.8H25.5c-5.6,4.1-9.3,10.5-9.3,17.8c0,1,0.1,2,0.2,3h48.9
			C65.5,50.7,65.6,49.7,65.6,48.7z"/>
	</g>
</g>
</svg>
