<?xml version="1.0" encoding="utf-8"?>
<!-- Generator: Adobe Illustrator 18.1.1, SVG Export Plug-In . SVG Version: 6.00 Build 0)  -->
<svg version="1.1" id="Layer_1" xmlns="http://www.w3.org/2000/svg" xmlns:xlink="http://www.w3.org/1999/xlink" x="0px" y="0px"
	 viewBox="0 0 90 90" enable-background="new 0 0 90 90" xml:space="preserve">
<g>
	<circle fill="#41B655" cx="45" cy="45" r="44.6"/>
	<g>
		<path fill="#FFC717" d="M31.1,20.9C30,22,29.6,23.6,30,25c-5.2,8.2-3,20.7,5.9,29.6s21.3,11.1,29.6,5.9c1.5,0.4,3,0.1,4.1-1.1
			c1.1-1.1,1.5-2.7,1.1-4.1c5.2-8.2,3-20.7-5.9-29.6s-21.3-11.1-29.6-5.9C33.8,19.4,32.2,19.8,31.1,20.9z"/>
		<path fill="#92513B" d="M70.2,46.9c0.4,0,0.8,0.3,0.8,0.6l0.2,0.8c0.1,0.5-0.2,0.9-0.6,1.1c-0.5,0.1-0.9-0.2-1.1-0.6L69.3,48
			c-0.1-0.5,0.2-0.9,0.6-1.1C70,46.9,70.1,46.9,70.2,46.9z"/>
		<path fill="#92513B" d="M69.5,42.6c0.4,0,0.6,0.2,0.8,0.5c0.1,0.4,0.3,0.8,0.3,1.3c0,0.5-0.4,0.8-0.8,0.9c-0.4,0-0.8-0.4-0.9-0.8
			c0-0.2-0.1-0.4-0.1-0.6c-0.2-0.4,0-0.9,0.4-1.1C69.3,42.7,69.5,42.6,69.5,42.6z"/>
		<path fill="#92513B" d="M67.9,35.9c0.4,0,0.8,0.3,0.8,0.7c0.1,0.5,0.3,1,0.6,1.5c0.2,0.4,0.1,0.9-0.4,1.2
			c-0.4,0.2-0.9,0.1-1.2-0.4c-0.4-0.6-0.6-1.3-0.7-2c-0.1-0.5,0.2-0.9,0.7-1.1C67.7,35.9,67.8,35.9,67.9,35.9z"/>
		<path fill="#92513B" d="M65,30.4c0.4,0,0.7,0.2,0.8,0.6l0.2,0.5c0.2,0.4-0.1,0.9-0.5,1.1c-0.4,0.2-1-0.1-1.1-0.5l-0.2-0.5
			c-0.2-0.4,0.1-0.9,0.5-1.1C64.8,30.4,64.9,30.4,65,30.4z"/>
		<path fill="#92513B" d="M66.2,42.6c0.5,0,0.8,0.4,0.8,0.8v0.1c0,0.5-0.4,0.8-0.8,0.8s-0.8-0.4-0.8-0.8v-0.1
			C65.4,43,65.7,42.6,66.2,42.6z"/>
		<path fill="#92513B" d="M62.5,35.9c0.4,0,0.8,0.4,0.8,0.8l0.1,0.8c0.1,0.5-0.3,0.9-0.8,1c-0.5,0.1-0.9-0.3-1-0.8l-0.1-0.8
			c-0.1-0.5,0.3-0.9,0.8-1C62.4,35.9,62.4,35.9,62.5,35.9z"/>
		<path fill="#92513B" d="M66.9,47.9c0.3,0,0.6,0.1,0.8,0.4l0.3,0.5c0.3,0.4,0.1,0.9-0.3,1.2c-0.4,0.3-0.9,0.1-1.2-0.3l-0.3-0.5
			c-0.3-0.4-0.1-0.9,0.3-1.2C66.7,47.9,66.8,47.9,66.9,47.9z"/>
		<path fill="#92513B" d="M65.7,37.2c0.5,0,0.8,0.4,0.8,0.8v0.2c0,0.5-0.4,0.8-0.8,0.8s-0.8-0.4-0.8-0.8V38
			C64.8,37.5,65.3,37.2,65.7,37.2z"/>
		<path fill="#92513B" d="M58.8,32.3c0.3,0,0.5,0.1,0.6,0.3c0.4,0,0.7,0.3,0.8,0.6c0.1,0.5-0.1,0.9-0.6,1.1
			c-0.6,0.2-1.4-0.2-1.6-0.8c-0.2-0.4,0-0.9,0.5-1.1C58.6,32.3,58.6,32.3,58.8,32.3z"/>
		<path fill="#92513B" d="M60,25.2c0.2,0,0.4,0.1,0.6,0.2c0.6,0.5,1.1,1.1,1.5,1.7c0.3,0.4,0.2,0.9-0.2,1.2
			c-0.4,0.3-0.9,0.2-1.2-0.2c-0.4-0.5-0.8-1-1.3-1.4c-0.4-0.3-0.4-0.8-0.1-1.2C59.5,25.3,59.8,25.2,60,25.2z"/>
		<path fill="#92513B" d="M57.4,27.4c0.3,0,0.5,0.1,0.7,0.4l0.3,0.4c0.3,0.4,0.2,0.9-0.1,1.2c-0.4,0.3-0.9,0.2-1.2-0.1l-0.3-0.4
			c-0.3-0.4-0.2-0.9,0.2-1.2C57,27.4,57.2,27.4,57.4,27.4z"/>
		<path fill="#92513B" d="M52.5,28.2c0.1,0,0.3,0.1,0.4,0.1l1.2,0.7c0.4,0.2,0.6,0.8,0.3,1.2c-0.2,0.4-0.8,0.6-1.2,0.3L52,29.8
			c-0.4-0.2-0.6-0.8-0.3-1.2C51.9,28.3,52.2,28.2,52.5,28.2z"/>
		<path fill="#92513B" d="M53.4,21c0.1,0,0.4,0.1,0.5,0.1l1.2,0.8c0.4,0.3,0.5,0.8,0.2,1.2c-0.3,0.4-0.8,0.5-1.2,0.2l-1.2-0.8
			c-0.4-0.3-0.5-0.8-0.2-1.2C52.9,21.1,53.2,21,53.4,21z"/>
		<path fill="#92513B" d="M53.4,25.8c0.2,0,0.4,0.1,0.6,0.2c0.1,0.1,0.2,0.1,0.3,0.1c0.5,0.1,0.8,0.4,0.8,0.9
			c-0.1,0.5-0.4,0.8-0.9,0.8c-0.5-0.1-1-0.2-1.3-0.6s-0.4-0.8-0.1-1.2C52.9,25.9,53.2,25.8,53.4,25.8z"/>
		<path fill="#92513B" d="M46.5,23.8c0.3,0,0.5,0.1,0.7,0.4c0.2,0.2,0.4,0.4,0.7,0.6c0.4,0.1,0.6,0.7,0.5,1.1
			c-0.1,0.4-0.7,0.6-1.1,0.5c-0.6-0.2-1.1-0.6-1.5-1.1c-0.3-0.4-0.2-0.9,0.1-1.2C46.1,23.9,46.3,23.8,46.5,23.8z"/>
		<path fill="#92513B" d="M46.5,19c0.1,0,0.3,0.1,0.4,0.1c0.4,0,0.7,0.2,0.8,0.6c0.2,0.4,0,0.9-0.5,1.1c-0.5,0.2-1.1,0.1-1.5-0.4
			c-0.3-0.4-0.3-0.9,0.1-1.2C46.1,19.1,46.3,19,46.5,19z"/>
		<path fill="#92513B" d="M48.3,22.9c0.1,0,0.1,0,0.2,0c0.1,0,0.2,0,0.3,0c0.5-0.1,0.9,0.2,1.1,0.6c0.1,0.5-0.2,0.9-0.6,1.1
			c-0.4,0.1-0.8,0.1-1.1,0c-0.5-0.1-0.7-0.6-0.6-1.1C47.5,23.2,47.9,22.9,48.3,22.9z"/>
		<path fill="#92513B" d="M41,22.4c0.2,0,0.4,0.1,0.6,0.3l0.7,0.7c0.4,0.4,0.4,0.9,0,1.2c-0.4,0.4-0.9,0.4-1.2,0l-0.7-0.7
			c-0.4-0.4-0.4-0.9,0-1.2C40.6,22.6,40.8,22.4,41,22.4z"/>
		<path fill="#92513B" d="M41.9,19.2C41.9,19.2,42,19.2,41.9,19.2c0.6,0.1,1.1,0.4,1.4,0.8c0.2,0.4,0.1,0.9-0.4,1.2
			c-0.4,0.2-0.9,0.1-1.1-0.3c-0.4-0.1-0.8-0.5-0.8-0.9C41.1,19.5,41.5,19.2,41.9,19.2z"/>
		<path fill="#92513B" d="M44.4,21.7c0.3,0,0.6,0.1,0.7,0.4c0.3,0.4,0.1,0.9-0.2,1.2c-0.4,0.3-0.9,0.4-1.4,0.4
			c-0.5-0.1-0.8-0.5-0.7-1c0.1-0.5,0.5-0.8,1-0.7c0.1,0,0.1,0,0.2-0.1C44.1,21.8,44.3,21.7,44.4,21.7z"/>
		<path fill="#FCD83A" d="M17.7,51.1c2,12.3,11.9,21.6,23.7,21.6S63,63.4,65.1,51.1H17.7z"/>
		<path fill="#FAF4A6" d="M19.6,51.1c1.9,9.5,10.9,16.7,21.8,16.7c10.8,0,19.9-7.2,21.8-16.7H19.6z"/>
		<path fill="#FFC717" d="M43,51.1h-3.3l-13.5,11l0.4,0.4c0.4,0.4,0.8,0.6,1.3,1l12.5-10.3v14.5c0.4,0,0.7,0,1.1,0s0.7,0,1.1,0V53.3
			L55,63.6c0.4-0.3,0.8-0.6,1.3-1l0.4-0.4L43,51.1z"/>
	</g>
</g>
</svg>
