<?xml version="1.0" encoding="utf-8"?>
<!-- Generator: Adobe Illustrator 18.1.1, SVG Export Plug-In . SVG Version: 6.00 Build 0)  -->
<svg version="1.1" id="Layer_1" xmlns="http://www.w3.org/2000/svg" xmlns:xlink="http://www.w3.org/1999/xlink" x="0px" y="0px"
	 viewBox="0 0 128 128" enable-background="new 0 0 128 128" xml:space="preserve">
<g>
	<circle fill="#FFC717" cx="64" cy="64" r="63.5"/>
	<g>
		<path fill="#72B2E1" d="M99.5,36.4c1.6,2.1,2.5,4.6,3.1,7.1c1.1,4.2,1.5,8.7,0.7,13c-0.3,1.8-1,3.7-2.2,5c-1.5,1.7-3.8,2.4-6,2.9
			c-9.3,2.1-19,1.1-28.4-0.6c-5.4-1-11-2.2-16.2-0.4c-2.2,0.7-4.2,1.9-6.4,2.4c-2.8,0.6-5.7,0.1-8.4-1c-2.6-1.1-5-2.7-7.4-4.3
			c-0.7-0.5-1.5-1-2-1.8c-0.6-0.9-0.9-2-1.1-3.1c-0.6-2.7-1.2-5.5-0.2-8.1c0.7-1.8,2.1-3.2,3.5-4.5c5.4-4.7,12.3-7.6,19.1-9.9
			c10.8-3.6,22.2-5.9,33.6-5.1c2.8,0.2,5.6,0.6,8.3,1.5c2.1,0.7,4,1.7,5.8,3C96.7,33.7,98.3,34.9,99.5,36.4z"/>
		<path fill="#E67374" d="M91.4,100H38c-1.4,0-2.5-1-2.8-2.3l-8.3-40.4h75.6l-8.3,40.4C93.9,99.1,92.7,100,91.4,100z"/>
		<g>
			<path fill="#E3E6E8" d="M43.6,89.5c-0.8,0-1.5-0.7-1.5-1.5V73.3c0-0.8,0.7-1.5,1.5-1.5s1.5,0.7,1.5,1.5V88
				C45.1,88.9,44.4,89.5,43.6,89.5z"/>
		</g>
		<g>
			<path fill="#E3E6E8" d="M57.7,89.5c-0.8,0-1.5-0.7-1.5-1.5V73.3c0-0.8,0.7-1.5,1.5-1.5s1.5,0.7,1.5,1.5V88
				C59.2,88.9,58.5,89.5,57.7,89.5z"/>
		</g>
		<g>
			<path fill="#E3E6E8" d="M71.7,89.5c-0.8,0-1.5-0.7-1.5-1.5V73.3c0-0.8,0.7-1.5,1.5-1.5c0.8,0,1.5,0.7,1.5,1.5V88
				C73.2,88.9,72.6,89.5,71.7,89.5z"/>
		</g>
		<g>
			<path fill="#E3E6E8" d="M85.8,89.5c-0.8,0-1.5-0.7-1.5-1.5V73.3c0-0.8,0.7-1.5,1.5-1.5c0.8,0,1.5,0.7,1.5,1.5V88
				C87.3,88.9,86.6,89.5,85.8,89.5z"/>
		</g>
	</g>
</g>
</svg>
