<?xml version="1.0" encoding="utf-8"?>
<!-- Generator: Adobe Illustrator 18.1.1, SVG Export Plug-In . SVG Version: 6.00 Build 0)  -->
<svg version="1.1" id="Layer_1" xmlns="http://www.w3.org/2000/svg" xmlns:xlink="http://www.w3.org/1999/xlink" x="0px" y="0px"
	 viewBox="0 0 90 90" enable-background="new 0 0 90 90" xml:space="preserve">
<g>
	<circle fill="#EF4538" cx="45" cy="45" r="44.6"/>
	<g>
		<rect x="17.7" y="17.3" fill="#753A29" width="4.4" height="55.1"/>
		<circle fill="#E3E6E8" cx="49.4" cy="44.9" r="24.1"/>
		<path fill="#753A29" d="M29.3,31.4h-7.2v3.8h5.1C27.8,33.9,28.5,32.6,29.3,31.4z"/>
		<path fill="#753A29" d="M27.2,54.5h-5.1v3.9h7.2C28.5,57.2,27.8,55.8,27.2,54.5z"/>
		<ellipse fill="#56A0D8" cx="48.8" cy="32.8" rx="14.3" ry="4.7"/>
		<polygon fill="#72B2E1" points="64.1,58.8 35,58.8 33.2,54.2 65.9,54.2 		"/>
		<path fill="#2A68B1" d="M63.1,33c-0.2,2.5-6.5,4.6-14.3,4.6c-7.9,0-14.3-2.1-14.3-4.7l0,0c0,0-0.5,6.2,4.1,12.5
			c1.6,2.1,3,6.1,3,8.9H56c0-2.7,1.3-6.8,3-8.9C63.3,39.6,63.2,33.8,63.1,33z"/>
		<path fill="#2869B1" d="M63.1,34.8c-0.1,0.4-0.1,0.8-0.1,1.3c2.5,0,4.6,2.3,4.6,5.1c0,2.9-2.1,5.2-4.6,5.2c-1.3,0-2.5-0.6-3.4-1.6
			c-0.1-0.1-0.1-0.1-0.1-0.1c-0.1,0.2-0.3,0.4-0.4,0.6c-0.1,0.1-0.2,0.4-0.4,0.5c1.1,1.3,2.7,2,4.3,2c3.3,0,6-2.9,6-6.5
			C68.9,37.8,66.3,34.9,63.1,34.8z"/>
	</g>
</g>
</svg>
