<?xml version="1.0" encoding="utf-8"?>
<!-- Generator: Adobe Illustrator 18.1.1, SVG Export Plug-In . SVG Version: 6.00 Build 0)  -->
<svg version="1.1" id="Layer_1" xmlns="http://www.w3.org/2000/svg" xmlns:xlink="http://www.w3.org/1999/xlink" x="0px" y="0px"
	 viewBox="0 0 90 90" enable-background="new 0 0 90 90" xml:space="preserve">
<g>
	<circle fill="#FFC717" cx="45" cy="45" r="44.6"/>
	<g>
		<path fill="#E3E6E8" d="M60.5,24.5v-3.7H30.7v3.7c0,2-0.8,3.9-2.4,5.2l0,0c-1.5,1.3-2.4,3.2-2.4,5.2v34.2c0,2,1.6,3.7,3.7,3.7
			h32.1c2,0,3.7-1.6,3.7-3.7V34.9c0-2-0.8-3.9-2.4-5.2l0,0C61.4,28.4,60.5,26.5,60.5,24.5z"/>
		<rect x="28.3" y="17" fill="#D62E2F" width="34.5" height="3.7"/>
		<polygon fill="#915037" points="34.5,56.2 30.9,50 34.5,43.7 41.7,43.7 45.3,50 41.7,56.2 		"/>
		<polygon fill="#915037" points="47.4,63.8 43.8,57.6 47.4,51.3 54.6,51.3 58.1,57.6 54.6,63.8 		"/>
		<polygon fill="#915037" points="47.4,48.6 43.8,42.3 47.4,36.1 54.6,36.1 58.1,42.3 54.6,48.6 		"/>
	</g>
</g>
</svg>
