<?xml version="1.0" encoding="utf-8"?>
<!-- Generator: Adobe Illustrator 18.1.1, SVG Export Plug-In . SVG Version: 6.00 Build 0)  -->
<svg version="1.1" id="Layer_1" xmlns="http://www.w3.org/2000/svg" xmlns:xlink="http://www.w3.org/1999/xlink" x="0px" y="0px"
	 viewBox="0 0 90 90" enable-background="new 0 0 90 90" xml:space="preserve">
<g>
	<circle fill="#388CCB" cx="45" cy="45" r="44.6"/>
	<g>
		<rect x="23.7" y="17.1" fill="#E3E6E8" width="42.5" height="55.8"/>
		<g>
			<path fill="#5D5E61" d="M41.5,35.2H29.2c-0.6,0-1.1-0.5-1.1-1.1s0.5-1.1,1.1-1.1h12.2c0.6,0,1.1,0.5,1.1,1.1S42,35.2,41.5,35.2z"
				/>
		</g>
		<g>
			<path fill="#5D5E61" d="M60.8,35.2H48.5c-0.6,0-1.1-0.5-1.1-1.1s0.5-1.1,1.1-1.1h12.2c0.6,0,1.1,0.5,1.1,1.1S61.3,35.2,60.8,35.2
				z"/>
		</g>
		<g>
			<path fill="#5D5E61" d="M41.5,41.7H29.2c-0.6,0-1.1-0.5-1.1-1.1s0.5-1.1,1.1-1.1h12.2c0.6,0,1.1,0.5,1.1,1.1S42,41.7,41.5,41.7z"
				/>
		</g>
		<g>
			<path fill="#5D5E61" d="M60.8,41.7H48.5c-0.6,0-1.1-0.5-1.1-1.1s0.5-1.1,1.1-1.1h12.2c0.6,0,1.1,0.5,1.1,1.1S61.3,41.7,60.8,41.7
				z"/>
		</g>
		<g>
			<path fill="#5D5E61" d="M41.5,48.2H29.2c-0.6,0-1.1-0.5-1.1-1.1s0.5-1.1,1.1-1.1h12.2c0.6,0,1.1,0.5,1.1,1.1S42,48.2,41.5,48.2z"
				/>
		</g>
		<g>
			<path fill="#5D5E61" d="M60.8,48.2H48.5c-0.6,0-1.1-0.5-1.1-1.1s0.5-1.1,1.1-1.1h12.2c0.6,0,1.1,0.5,1.1,1.1S61.3,48.2,60.8,48.2
				z"/>
		</g>
		<g>
			<path fill="#5D5E61" d="M41.5,54.7H29.2c-0.6,0-1.1-0.5-1.1-1.1c0-0.6,0.5-1.1,1.1-1.1h12.2c0.6,0,1.1,0.5,1.1,1.1
				C42.5,54.2,42,54.7,41.5,54.7z"/>
		</g>
		<g>
			<path fill="#5D5E61" d="M60.8,54.7H48.5c-0.6,0-1.1-0.5-1.1-1.1c0-0.6,0.5-1.1,1.1-1.1h12.2c0.6,0,1.1,0.5,1.1,1.1
				C61.8,54.2,61.3,54.7,60.8,54.7z"/>
		</g>
		<g>
			<path fill="#5D5E61" d="M41.5,61.2H29.2c-0.6,0-1.1-0.5-1.1-1.1s0.5-1.1,1.1-1.1h12.2c0.6,0,1.1,0.5,1.1,1.1S42,61.2,41.5,61.2z"
				/>
		</g>
		<g>
			<path fill="#5D5E61" d="M60.8,61.2H48.5c-0.6,0-1.1-0.5-1.1-1.1s0.5-1.1,1.1-1.1h12.2c0.6,0,1.1,0.5,1.1,1.1S61.3,61.2,60.8,61.2
				z"/>
		</g>
		<g>
			<path fill="#5D5E61" d="M41.5,67.7H29.2c-0.6,0-1.1-0.5-1.1-1.1c0-0.6,0.5-1.1,1.1-1.1h12.2c0.6,0,1.1,0.5,1.1,1.1
				C42.5,67.2,42,67.7,41.5,67.7z"/>
		</g>
		<g>
			<path fill="#5D5E61" d="M60.8,67.7H48.5c-0.6,0-1.1-0.5-1.1-1.1c0-0.6,0.5-1.1,1.1-1.1h12.2c0.6,0,1.1,0.5,1.1,1.1
				C61.8,67.2,61.3,67.7,60.8,67.7z"/>
		</g>
		<path fill="#D62E2F" d="M30.6,28.7h-1.2v-8.1h1.9l2.2,5.1l2.2-5.1h1.9v8.2h-1.2v-6.3l-2.5,5.6h-0.7l-2.5-5.6V28.7z"/>
		<path fill="#D62E2F" d="M44.5,20.6v1.3h-3.8V24h3.4v1.2h-3.4v2.2h3.9v1.3h-5.1v-8.1H44.5z"/>
		<path fill="#D62E2F" d="M51.5,20.6h1.2v8.2h-1.3l-4.1-5.9v5.9h-1.2v-8.2h1.2l4.1,6L51.5,20.6L51.5,20.6z"/>
		<path fill="#D62E2F" d="M56.4,26.9c0.4,0.4,0.8,0.6,1.3,0.6c0.6,0,1-0.2,1.3-0.6c0.4-0.4,0.5-1.1,0.5-1.8v-4.5h1.2v4.6
			c0,1.2-0.3,2-0.8,2.7c-0.6,0.6-1.3,1-2.2,1s-1.6-0.3-2.2-0.9c-0.6-0.6-0.8-1.5-0.8-2.7v-4.6h1.2v4.5C55.9,25.8,56,26.4,56.4,26.9z
			"/>
	</g>
</g>
</svg>
