<?xml version="1.0" encoding="utf-8"?>
<!-- Generator: Adobe Illustrator 18.1.1, SVG Export Plug-In . SVG Version: 6.00 Build 0)  -->
<svg version="1.1" id="Layer_1" xmlns="http://www.w3.org/2000/svg" xmlns:xlink="http://www.w3.org/1999/xlink" x="0px" y="0px"
	 viewBox="0 0 90 90" enable-background="new 0 0 90 90" xml:space="preserve">
<g>
	<circle fill="#388CCB" cx="45" cy="45" r="44.6"/>
	<g>
		<path fill="#E3E6E8" d="M51.6,17.1c-9.5,4.1-9.8,9.9-9.9,10.6c1.9,1.5,3.4,3.6,4.3,5.9l0,0c1.5-2,3.7-3.7,6-4.6
			C54.9,25.2,51.6,17.1,51.6,17.1z"/>
		<path fill="#E3E6E8" d="M60.5,57.4c0,0.2,0,0.4,0,0.7c0,1.5-0.2,3-0.7,4.4c3,3.2,9.7,4,9.7,4c0.6-6.5-1.1-10.1-2.5-12
			C65.1,55.9,62.9,57,60.5,57.4z"/>
		<path fill="#FCD83A" d="M31.4,53.9c-7.8-0.5-14-7-14-14.8c0-8.2,6.7-14.8,14.8-14.8c6.3,0,11.7,3.9,13.9,9.4l3.6,11.5L31.4,53.9z"
			/>
		<path fill="#E67374" d="M43,43.4c0-0.2,0-0.4,0-0.6c0-8.2,6.7-14.8,14.8-14.8s14.8,6.7,14.8,14.8c0,7.3-5.3,13.4-12.2,14.6"/>
		<circle fill="#F7EC5C" cx="45.6" cy="58" r="14.8"/>
		<path fill="#FFC717" d="M33.7,35c0,0-0.7,3.2,3.1,5.4c0,0-4.4-0.5-5.5,2.7c0,0,0-3.9-3.7-4.8C27.6,38.4,32.2,38,33.7,35z"/>
		<path fill="#BEBFC1" d="M48.7,28.9c-0.1-4.4,2.3-8.9,3.4-10.5c-0.3-0.8-0.4-1.3-0.4-1.3l0,0c-0.6,0.3-1.2,0.6-1.7,0.8
			c-1.2,2.2-3.3,6.5-3.3,11H48.7z"/>
		<path fill="#BEBFC1" d="M69.6,64.6c-1.2-2-3.7-5.6-7.2-7.7c-0.4,0.1-0.8,0.3-1.3,0.4l-0.6,1c3.8,2,6.5,6.3,7.5,8
			c0.8,0.1,1.3,0.2,1.3,0.2C69.5,65.8,69.6,65.2,69.6,64.6z"/>
		<path fill="#EC5552" d="M59.3,38.7c0,0-0.7,3.2,3.1,5.4c0,0-4.4-0.5-5.5,2.7c0,0,0-3.9-3.7-4.8C53.2,42,57.8,41.7,59.3,38.7z"/>
		<path fill="#FFC717" d="M47.1,53.9c0,0-0.7,3.2,3.1,5.4c0,0-4.4-0.5-5.5,2.7c0,0,0-3.9-3.7-4.8C41,57.3,45.6,57,47.1,53.9z"/>
	</g>
</g>
</svg>
