<?xml version="1.0" encoding="utf-8"?>
<!-- Generator: Adobe Illustrator 18.1.1, SVG Export Plug-In . SVG Version: 6.00 Build 0)  -->
<svg version="1.1" id="Layer_1" xmlns="http://www.w3.org/2000/svg" xmlns:xlink="http://www.w3.org/1999/xlink" x="0px" y="0px"
	 viewBox="0 0 90 90" enable-background="new 0 0 90 90" xml:space="preserve">
<g>
	<circle fill="#EF4538" cx="45" cy="45" r="44.6"/>
	<g>
		<path fill="#FAF4A6" d="M56.8,25c-3.2-0.4-6.3,0.5-9.2,2.4c-1.6,1.1-3.7,1.1-5.3,0c-2.8-2-6-2.8-9.2-2.4
			C24,26.3,18.1,38.2,20,51.5s10.8,23.2,19.9,21.9c1.8-0.3,8.3-0.3,10.1,0c9.1,1.3,18.1-8.5,19.9-21.9C71.9,38.3,66,26.4,56.8,25z"
			/>
		<path fill="#22A79C" d="M52.7,50.7c0,6.9-3.4,12.5-7.7,12.5s-7.7-5.6-7.7-12.5s6.3-12.5,7.7-12.5C46.8,38.2,52.7,43.8,52.7,50.7z"
			/>
		<path fill="#753A29" d="M46.4,28.1L46.4,28.1c-0.1-0.3-1.1-7,9.8-8.9c0.8-0.1,1.3-0.8,1.1-1.6c-0.1-0.8-0.8-1.3-1.6-1.1
			c-12,2.1-12.3,9.7-12.2,11.6C44.5,28.3,45.5,28.3,46.4,28.1z"/>
	</g>
</g>
</svg>
