<?xml version="1.0" encoding="utf-8"?>
<!-- Generator: Adobe Illustrator 18.1.1, SVG Export Plug-In . SVG Version: 6.00 Build 0)  -->
<svg version="1.1" id="Layer_1" xmlns="http://www.w3.org/2000/svg" xmlns:xlink="http://www.w3.org/1999/xlink" x="0px" y="0px"
	 viewBox="0 0 90 90" enable-background="new 0 0 90 90" xml:space="preserve">
<g>
	<circle fill="#388CCB" cx="45" cy="45" r="44.6"/>
	<g>
		<path fill="#D62E2F" d="M48.1,21.3c3.3-1,7.9-0.1,9.6,0.4c1.5,0.5,3.4,1.3,4.5,2.6c2.3,2.6,3.7,6.4,4.4,9.7c0.4,2,3.9,19,4.7,23.2
			c0.8,4,0.7,8.1-1.8,11.5c-1,1.3-2.5,2.2-3.9,3.2c-1.8,1-4.4,1.1-6.3,1c-4.7-0.1-26.9-7.9-29.5-9.1c-7.9-3.9-9.5-14.3-7.7-22.4"/>
		<path fill="#41B655" d="M29.3,30.5c-1.4,0-2.3,0.5-3.4,1.3c-1.1,0.8-2.4,1.5-3.2,2.5c-1.2,1.4-2,2.9-2.7,4.5
			c-0.3,0.6-0.5,1.3-0.8,1.9c-0.2,0.6-0.8,1.3-0.8,1.8c2-0.4,4.2-1.3,6-2.3c0.9-0.4,2-0.8,2.7-1.4c0.7-0.6,1.3-1.3,2-1.7
			c-1.6,2.7-1.7,6.2-0.4,9.1c1,2.2,2.5,4.3,3.7,6.3c0-1.6,0.1-3,0.9-4.4c0.8-1.5,2-2.8,2.7-4.4c1.1-2.2,0.7-4.2,0.9-6.5
			c0.4,0.4,0.6,0.7,1,1c0.7,0.4,1.5,0.8,2.3,1c1.8,0.5,3.5-0.1,5.2-0.8c2.1-1,4-2.7,6.3-3.4c1-0.4,2.2-0.1,3.2-0.2
			c0.3-1.1-1.2-2.7-1.9-3.4c-1-1.1-2.7-1.9-4-2.4c-1.5-0.6-3.2-0.8-4.9-0.8c-1.2,0-3.2-0.3-4.4,0.3c0.3-0.4,1.1-0.5,1.6-0.8
			c0.8-0.4,1.5-1.1,2.3-1.6c1.1-0.9,2.1-1.9,3.1-3c1.4-1.5,2.7-3.6,3-5.7c-0.6,0.7-2.1,0.8-3,1.1c-1.5,0.4-3.3,0.4-4.9,0.8
			c-1.6,0.5-3.1,1.3-4.5,2.3c-2,1.5-3.1,3.6-3.8,5.8"/>
		<path fill="#915037" d="M35.2,34.4c-0.3,0-0.6-0.1-0.8-0.3c-7.9-6.9-9.1-15-9.1-15.3c-0.1-0.6,0.4-1.3,1.1-1.3
			c0.6-0.1,1.3,0.4,1.3,1.1l0,0c0,0,1.1,7.5,8.3,13.9c0.5,0.4,0.6,1.2,0.1,1.7C35.9,34.3,35.6,34.4,35.2,34.4z"/>
		<path fill="#5D5E61" d="M59.5,31.6c-0.3,0-0.6-0.1-0.7-0.4c0,0-1.2-1.6-1.3-1.8l0,0c-0.3-0.4-0.2-1,0.2-1.3
			c0.5-0.4,0.8-0.3,1.3,0.2l0,0c0,0.1,0.1,0.1,0.1,0.1c0.1,0.2,0.4,0.4,0.6,0.7l0.6,0.8c0.3,0.4,0.2,1-0.2,1.3
			C59.8,31.6,59.7,31.6,59.5,31.6z"/>
		<path fill="#5D5E61" d="M46.3,47c-0.3,0-0.6-0.1-0.7-0.4c0,0-1.1-1.5-1.2-1.6l0,0c-0.3-0.4-0.2-1,0.2-1.3c0.5-0.4,0.8-0.3,1.3,0.2
			l0,0c0,0.1,0.1,0.1,0.1,0.1c0.1,0.2,0.4,0.4,0.6,0.7l0.6,0.8c0.3,0.4,0.2,1-0.2,1.3C46.7,47,46.5,47,46.3,47z"/>
		<path fill="#5D5E61" d="M60.8,59.5c-0.3-0.1-0.4-0.4-0.5-0.6c0,0-0.4-1.9-0.4-2l0,0c-0.1-0.5,0.2-1,0.7-1.1
			c0.6-0.1,0.8,0.1,1.1,0.7l0,0c0,0.1,0,0.1,0,0.1c0.1,0.2,0.1,0.5,0.1,0.8l0.2,1c0.1,0.5-0.2,1-0.7,1.1
			C61.2,59.6,61,59.6,60.8,59.5z"/>
		<path fill="#5D5E61" d="M39,52c-0.3,0-0.6-0.1-0.7-0.4l-0.6-0.8c-0.2-0.3-0.4-0.5-0.5-0.7c-0.1-0.1-0.1-0.1-0.1-0.1l0,0l0,0l0,0
			l0,0c-0.4-0.6-0.4-0.8,0.1-1.3c0.4-0.3,1-0.2,1.3,0.2l0,0l1.2,1.7c0.3,0.4,0.2,1-0.2,1.3C39.4,52,39.2,52,39,52z"/>
		<path fill="#5D5E61" d="M40.9,63.3c-0.2,0-0.4-0.1-0.6-0.2l-0.8-0.6c-0.3-0.2-0.5-0.4-0.6-0.6c-0.1,0-0.1-0.1-0.1-0.1l0,0l0,0l0,0
			l0,0c-0.4-0.4-0.6-0.8-0.1-1.3c0.3-0.4,0.9-0.4,1.3-0.1l0,0l1.6,1.3c0.4,0.3,0.4,0.9,0.1,1.3C41.5,63.1,41.2,63.3,40.9,63.3z"/>
		<path fill="#5D5E61" d="M31.7,60.2c-0.2,0-0.4-0.1-0.6-0.2l-0.8-0.6c-0.3-0.2-0.5-0.4-0.6-0.6c-0.1,0-0.1-0.1-0.1-0.1l0,0l0,0l0,0
			l0,0c-0.4-0.4-0.6-0.8-0.1-1.3c0.3-0.4,0.9-0.4,1.3-0.1l0,0l1.6,1.3c0.4,0.3,0.4,0.9,0.1,1.3C32.2,60,31.9,60.2,31.7,60.2z"/>
		<path fill="#5D5E61" d="M48.2,65c-0.2,0-0.4-0.1-0.6-0.2l-0.8-0.6c-0.3-0.2-0.5-0.4-0.6-0.6c-0.1,0-0.1-0.1-0.1-0.1l0,0l0,0l0,0
			l0,0c-0.4-0.4-0.6-0.8-0.1-1.3c0.3-0.4,0.9-0.4,1.3-0.1l0,0c0.1,0.1,1.6,1.3,1.6,1.3c0.4,0.3,0.4,0.9,0.1,1.3
			C48.7,65,48.5,65,48.2,65z"/>
		<path fill="#5D5E61" d="M54.4,54.5c-0.2,0-0.4-0.1-0.6-0.2l-0.8-0.6c-0.3-0.2-0.5-0.4-0.6-0.6c-0.1,0-0.1-0.1-0.1-0.1l0,0l0,0l0,0
			l0,0c-0.4-0.4-0.6-0.8-0.1-1.3c0.3-0.4,0.9-0.4,1.3-0.1l0,0c0.1,0.1,1.6,1.3,1.6,1.3c0.4,0.3,0.4,0.9,0.1,1.3
			C55,54.4,54.7,54.5,54.4,54.5z"/>
		<path fill="#5D5E61" d="M54.4,61.9c-0.2,0-0.4-0.1-0.6-0.2l-0.8-0.6c-0.3-0.2-0.5-0.4-0.6-0.6c-0.1,0-0.1-0.1-0.1-0.1l0,0l0,0l0,0
			l0,0c-0.4-0.4-0.6-0.8-0.1-1.3c0.3-0.4,0.9-0.4,1.3-0.1l0,0c0.1,0.1,1.6,1.3,1.6,1.3c0.4,0.3,0.4,0.9,0.1,1.3
			C55,61.8,54.7,61.9,54.4,61.9z"/>
		<path fill="#5D5E61" d="M58.2,50.2c-0.1-0.1-0.3-0.3-0.4-0.5l-0.3-1c-0.1-0.4-0.1-0.6-0.2-0.8c0-0.1-0.1-0.1-0.1-0.1l0,0l0,0l0,0
			l0,0c-0.1-0.6,0-0.9,0.6-1.1c0.5-0.1,1,0.1,1.1,0.6l0,0c0.1,0.1,0.6,2,0.6,2c0.1,0.5-0.1,1-0.6,1.1C58.7,50.3,58.4,50.3,58.2,50.2
			z"/>
		<path fill="#5D5E61" d="M45.6,57.2c-0.2,0-0.4-0.1-0.6-0.2l-0.8-0.6c-0.3-0.2-0.5-0.4-0.6-0.6c-0.1,0-0.1-0.1-0.1-0.1l0,0l0,0l0,0
			l0,0c-0.4-0.4-0.6-0.8-0.1-1.3c0.3-0.4,0.9-0.4,1.3-0.1l0,0c0.1,0.1,1.6,1.3,1.6,1.3c0.4,0.3,0.4,0.9,0.1,1.3
			C46.1,57.1,45.8,57.2,45.6,57.2z"/>
		<path fill="#5D5E61" d="M55,68.1c-0.2,0-0.4-0.1-0.6-0.2l-0.8-0.6c-0.3-0.2-0.5-0.4-0.6-0.6c-0.1,0-0.1-0.1-0.1-0.1l0,0l0,0l0,0
			l0,0c-0.4-0.4-0.6-0.8-0.1-1.3C53,65,53.6,65,54,65.3l0,0c0.1,0.1,1.6,1.3,1.6,1.3c0.4,0.3,0.4,0.9,0.1,1.3
			C55.5,68.1,55.3,68.1,55,68.1z"/>
		<path fill="#5D5E61" d="M52.7,42.2c-0.4,0-0.8-0.3-0.8-0.7l-0.6-2l0,0c-0.1-0.5,0.2-1,0.6-1.1c0.6-0.1,0.8,0.1,1.1,0.7l0,0
			c0,0.1,0,0.1,0,0.1c0.1,0.2,0.1,0.5,0.2,0.8l0.3,1c0.1,0.5-0.2,1-0.6,1.1C52.9,42.2,52.8,42.2,52.7,42.2z"/>
		<path fill="#5D5E61" d="M64.6,48.6L64.6,48.6c-0.5,0-0.9-0.4-0.9-0.9c0,0,0.1-1.9,0.1-2l0,0c0-0.5,0.4-0.9,0.9-0.9
			c0.6,0,0.8,0.3,0.8,0.9l0,0c0,0.1,0,0.1,0,0.1c0,0.2,0,0.6,0,0.8v1.1C65.5,48.2,65.1,48.6,64.6,48.6z"/>
		<path fill="#5D5E61" d="M61,40.3L61,40.3c-0.5,0-0.9-0.4-0.9-0.9c0,0,0.1-1.9,0.1-2l0,0c0-0.5,0.4-0.8,0.9-0.9
			c0.6,0,0.8,0.3,0.8,0.9l0,0c0,0.1,0,0.1,0,0.1c0,0.2,0,0.6,0,0.8v1.1C61.9,39.9,61.5,40.3,61,40.3z"/>
		<path fill="#5D5E61" d="M66.5,65.9c-0.4,0-0.8-0.3-0.9-0.7c0,0-0.4-1.9-0.4-2.1l0,0c-0.1-0.5,0.2-1,0.7-1.1
			c0.6-0.1,0.8,0.1,1.1,0.7l0,0c0,0.1,0,0.1,0,0.1c0.1,0.3,0.1,0.6,0.2,0.9l0.2,1.1c0.1,0.5-0.2,1-0.7,1.1
			C66.7,65.9,66.6,65.9,66.5,65.9z"/>
		<path fill="#5D5E61" d="M61.2,68.8c-0.4,0-0.8-0.3-0.9-0.7c0,0-0.4-1.9-0.4-2.1l0,0c-0.1-0.5,0.2-1,0.7-1.1
			c0.6-0.1,0.8,0.1,1.1,0.7l0,0c0,0.1,0,0.1,0,0.1c0.1,0.3,0.1,0.6,0.2,0.9l0.2,1.1c0.1,0.5-0.2,1-0.7,1.1
			C61.4,68.7,61.3,68.8,61.2,68.8z"/>
		<path fill="#5D5E61" d="M66.5,57.7c-0.4,0-0.8-0.3-0.9-0.7c0,0-0.4-1.9-0.4-2.1l0,0c-0.1-0.5,0.2-1,0.7-1.1
			c0.6-0.1,0.8,0.1,1.1,0.7l0,0c0,0.1,0,0.1,0,0.1c0.1,0.3,0.1,0.6,0.2,0.9l0.2,1.1c0.1,0.5-0.2,1-0.7,1.1
			C66.7,57.6,66.6,57.7,66.5,57.7z"/>
	</g>
</g>
</svg>
