<?xml version="1.0" encoding="utf-8"?>
<!-- Generator: Adobe Illustrator 18.1.1, SVG Export Plug-In . SVG Version: 6.00 Build 0)  -->
<svg version="1.1" id="Layer_1" xmlns="http://www.w3.org/2000/svg" xmlns:xlink="http://www.w3.org/1999/xlink" x="0px" y="0px"
	 viewBox="0 0 90 90" enable-background="new 0 0 90 90" xml:space="preserve">
<g>
	<circle fill="#EF4538" cx="45" cy="45" r="44.6"/>
	<g>
		<path fill="#E3E6E8" d="M42.5,28.4V19c0-1-0.6-1.8-1.6-2c-1.2-0.2-2.3,0.7-2.3,1.9v9.6c0,3.8-2.5,7.2-6.2,8.2
			c-8.9,2.5-15.3,8.9-15.3,16.5c0,9.7,10.5,17.6,23.4,17.6S64,62.9,64,53.2c0-7.6-6.4-14.1-15.3-16.5C45,35.6,42.5,32.2,42.5,28.4z"
			/>
		<path fill="#BDC5C9" d="M31,42.5c0.4-0.4,0.4-1.1-0.1-1.4s-1.1-0.4-1.4,0.1c-0.1,0.1-12.2,13.3-0.1,27.6c1.3,0.5,2.5,0.9,3.9,1.3
			c-0.1-0.1-0.1-0.2-0.2-0.3C18.8,55.9,30.4,43.1,31,42.5z"/>
		<path fill="#BDC5C9" d="M57.2,50.9c-0.1-0.6-0.6-0.9-1.1-0.8c-0.6,0.1-0.9,0.6-0.8,1.1c0,0.1,1.5,12-8.2,18.6
			c-0.1,0.1-0.2,0.2-0.3,0.4c1.6-0.4,3.2-0.8,4.6-1.4C58.6,61.4,57.3,51.4,57.2,50.9z"/>
		<path fill="#BDC5C9" d="M41.6,49.5c-0.1-0.6-0.6-0.9-1.1-0.8c-0.6,0.1-0.9,0.6-0.8,1.1c0.6,4.4,1.9,16.6,0.2,21c0.3,0,0.6,0,0.8,0
			c0.4,0,0.9,0,1.3,0C43.7,64.5,41.6,50.1,41.6,49.5z"/>
		<path fill="#D1D5D7" d="M68.6,42.4c0.8,1.9,1.5,3.7,2.3,5.6c0.8,1.9,1.4,3.8,1.8,5.8C74.8,65.7,61,76.6,46.2,71.6
			c-1.1-0.4-2.3-0.9-3-1.9c-1.1-1.5-0.8-3.5-0.1-5.2c0.1-0.1,0.1-0.3,0.2-0.4c0.1-0.1,0.4-0.1,0.6-0.1c16.9-3.6,21.8-11.4,22.6-12.4
			C68.8,48.4,69.3,45.6,68.6,42.4z"/>
	</g>
</g>
</svg>
