<?xml version="1.0" encoding="utf-8"?>
<!-- Generator: Adobe Illustrator 18.1.1, SVG Export Plug-In . SVG Version: 6.00 Build 0)  -->
<svg version="1.1" id="Layer_1" xmlns="http://www.w3.org/2000/svg" xmlns:xlink="http://www.w3.org/1999/xlink" x="0px" y="0px"
	 viewBox="0 0 90 90" enable-background="new 0 0 90 90" xml:space="preserve">
<g>
	<circle fill="#41B655" cx="45" cy="45" r="44.6"/>
	<g>
		<path fill="#FFC717" d="M63.9,28.8c1.1,2.7,2.2,5.4,3.3,8.2c1.1,2.7,2,5.5,2.6,8.3c3.3,17.2-16.7,33-38.1,25.7
			c-1.7-0.6-3.4-1.3-4.4-2.7c-1.5-2.1-1.1-5.1-0.1-7.5c0.1-0.2,0.2-0.4,0.4-0.6c0.2-0.2,0.6-0.2,0.8-0.2
			C52.7,54.9,59.8,43.6,61,42.1C64.2,37.5,64.8,33.3,63.9,28.8z"/>
		<path fill="#FAF4A6" d="M27.1,60.8c0.1-0.2,0.2-0.4,0.4-0.6c0.2-0.2,0.6-0.2,0.8-0.2c17.7-3.7,26.4-10.8,30.2-14.9
			c1.1-4.6,0.7-9.4-1.5-13.8c-1.3-2.6-3-5-4.7-7.3s-3.5-4.6-5.3-7c2.1,4.1,2.6,8.4,0.6,13.5c-0.7,1.8-4.6,14.6-26.7,25.9
			c-0.3,0.1-0.6,0.2-0.7,0.4c-0.1,0.2-0.1,0.4-0.2,0.6c-0.3,2.6,0.1,5.6,2.1,7.2c1.2,1,2.8,1.3,4.4,1.4
			C26.1,64.4,26.4,62.4,27.1,60.8z"/>
	</g>
</g>
</svg>
