<?xml version="1.0" encoding="utf-8"?>
<!-- Generator: Adobe Illustrator 18.1.1, SVG Export Plug-In . SVG Version: 6.00 Build 0)  -->
<svg version="1.1" id="Layer_1" xmlns="http://www.w3.org/2000/svg" xmlns:xlink="http://www.w3.org/1999/xlink" x="0px" y="0px"
	 viewBox="0 0 90 90" enable-background="new 0 0 90 90" xml:space="preserve">
<g>
	<circle fill="#388CCB" cx="45" cy="45" r="44.6"/>
	<g>
		<path fill="#915037" d="M39.9,47.5L17.6,69.8c-0.7,0.7-0.7,1.8,0,2.5l0,0c0.7,0.7,1.8,0.7,2.5,0l22.3-22.3
			c-0.4-0.4-0.9-0.8-1.3-1.2C40.6,48.4,40.3,48,39.9,47.5z"/>
		<path fill="#FAF4A6" d="M54.6,35.4c-4.9-4.9-7.9-10.1-6.5-11.4L39,33.1c-1.3,1.3,1.5,6.4,6.5,11.4s10.1,7.8,11.4,6.5l9.1-9.1
			C64.6,43.2,59.6,40.3,54.6,35.4z"/>
		<path fill="#915037" d="M54.6,35.4c0.4,0.4,0.8,0.8,1.3,1.3l1.6-1.6c-0.4-0.4-0.9-0.8-1.3-1.2s-0.8-0.9-1.2-1.3l-1.6,1.6
			C53.8,34.5,54.2,34.9,54.6,35.4z"/>
		
			<ellipse transform="matrix(0.7071 -0.7071 0.7071 0.7071 -21.6096 43.794)" fill="#FCD83A" cx="42.1" cy="48" rx="3.4" ry="12.7"/>
		<ellipse transform="matrix(0.7071 -0.7071 0.7071 0.7071 -21.6096 43.794)" fill="#D62E2F" cx="42.1" cy="48" rx="1.3" ry="4.6"/>
		<path fill="#915037" d="M45.6,44.4c-0.4-0.4-0.8-0.8-1.3-1.3l-4.4,4.4c0.4,0.4,0.8,0.9,1.2,1.3c0.4,0.4,0.9,0.8,1.3,1.2l4.4-4.4
			C46.4,45.3,46,44.9,45.6,44.4z"/>
		<path fill="#FAF4A6" d="M39.6,50.4c-4.9-4.9-7.9-10.1-6.5-11.4L24,48.1c-1.3,1.3,1.5,6.4,6.5,11.4s10.1,7.9,11.4,6.5l9.1-9.1
			C49.6,58.3,44.5,55.3,39.6,50.4z"/>
		
			<ellipse transform="matrix(0.7071 -0.7071 0.7071 0.7071 -6.5986 49.9627)" fill="#FCD83A" cx="57" cy="32.9" rx="3.4" ry="12.7"/>
		<ellipse transform="matrix(0.7071 -0.7071 0.7071 0.7071 -6.5986 49.9627)" fill="#D62E2F" cx="57" cy="32.9" rx="1.3" ry="4.6"/>
		<path fill="#915037" d="M72.4,17.6L72.4,17.6c-0.7-0.7-1.9-0.7-2.6,0L54.9,32.5c0.4,0.4,0.8,0.9,1.2,1.3s0.9,0.8,1.3,1.2l15-14.8
			C73.1,19.5,73.1,18.4,72.4,17.6z"/>
	</g>
</g>
</svg>
