<?xml version="1.0" encoding="utf-8"?>
<!-- Generator: Adobe Illustrator 18.1.1, SVG Export Plug-In . SVG Version: 6.00 Build 0)  -->
<svg version="1.1" id="Layer_1" xmlns="http://www.w3.org/2000/svg" xmlns:xlink="http://www.w3.org/1999/xlink" x="0px" y="0px"
	 viewBox="0 0 90 90" enable-background="new 0 0 90 90" xml:space="preserve">
<g>
	<circle fill="#FFC717" cx="45" cy="45" r="44.6"/>
	<g>
		<path fill="#72B2E1" d="M59.3,17.1h-5.7H22.4h-5.7v26.2c0,10.1,1.9,20.2,5.7,29.6l0,0h31.3l0,0c3.7-9.4,5.7-19.4,5.7-29.6
			L59.3,17.1L59.3,17.1z"/>
		<path fill="#D62E2F" d="M43.7,33.5c-2.4,0-4.5,1.2-5.7,3.1c-1.2-1.8-3.3-3.1-5.7-3.1c-3.8,0-6.8,3.1-6.8,6.8
			c0,5.8,12.5,16.1,12.5,16.1s12.6-9.7,12.6-16.1C50.6,36.6,47.5,33.5,43.7,33.5z"/>
		<path fill="#5D5E61" d="M68.6,23.7h-9.3v2.8h9.2c1.1,0,1.9,0.8,1.9,1.9v27.3c0,1.1-0.8,1.9-1.9,1.9H58.1c-0.1,0.9-0.4,1.9-0.6,2.8
			h11c2.6,0,4.6-2.1,4.6-4.6V28.3C73.3,25.8,71.2,23.7,68.6,23.7z"/>
	</g>
</g>
</svg>
