<?xml version="1.0" encoding="utf-8"?>
<!-- Generator: Adobe Illustrator 18.1.1, SVG Export Plug-In . SVG Version: 6.00 Build 0)  -->
<svg version="1.1" id="Layer_1" xmlns="http://www.w3.org/2000/svg" xmlns:xlink="http://www.w3.org/1999/xlink" x="0px" y="0px"
	 viewBox="0 0 90 90" enable-background="new 0 0 90 90" xml:space="preserve">
<g>
	<circle fill="#EF4538" cx="45" cy="45" r="44.6"/>
	<g>
		<path fill="#E3E6E8" d="M37.1,72.6L18.1,53.5c-0.6-0.6-0.6-1.5,0-2l16.6-16.6c0.6-0.6,1.5-0.6,2,0l19.1,19.1c0.6,0.6,0.6,1.5,0,2
			L39.2,72.6C38.5,73.1,37.7,73.1,37.1,72.6z"/>
		
			<rect x="48.9" y="32.9" transform="matrix(-0.7071 -0.7071 0.7071 -0.7071 59.0595 103.7362)" fill="#C1C8CB" width="4.2" height="13.6"/>
		<path fill="#915037" d="M58.7,37.8l-5.8-5.8l13.6-13.6c1.6-1.6,4.2-1.6,5.8,0l0,0c1.6,1.6,1.6,4.2,0,5.8L58.7,37.8z"/>
		<path fill="#C1C8CB" d="M24.6,54.4L24.6,54.4c-0.8-0.8-0.8-2,0-2.8l10.1-10.1c0.8-0.8,2-0.8,2.8,0l0,0c0.8,0.8,0.8,2,0,2.8
			L27.4,54.4C26.6,55.1,25.4,55.1,24.6,54.4z"/>
		<path fill="#C1C8CB" d="M30.4,60.2L30.4,60.2c-0.8-0.8-0.8-2,0-2.8l10.1-10.1c0.8-0.8,2-0.8,2.8,0l0,0c0.8,0.8,0.8,2,0,2.8
			L33.3,60.2C32.5,61,31.2,61,30.4,60.2z"/>
		<path fill="#C1C8CB" d="M36.3,66L36.3,66c-0.8-0.8-0.8-2,0-2.8l10.1-10.1c0.8-0.8,2-0.8,2.8,0l0,0c0.8,0.8,0.8,2,0,2.8L39.1,66
			C38.3,66.8,37.1,66.8,36.3,66z"/>
	</g>
</g>
</svg>
