<?xml version="1.0" encoding="utf-8"?>
<!-- Generator: Adobe Illustrator 18.1.1, SVG Export Plug-In . SVG Version: 6.00 Build 0)  -->
<svg version="1.1" id="Layer_1" xmlns="http://www.w3.org/2000/svg" xmlns:xlink="http://www.w3.org/1999/xlink" x="0px" y="0px"
	 viewBox="0 0 90 90" enable-background="new 0 0 90 90" xml:space="preserve">
<g>
	<circle fill="#FFC717" cx="45" cy="45" r="44.6"/>
	<g>
		<path fill="#22A79C" d="M17.2,72.4c0.1,0.5,0.9,0.5,1.4,0.4c1.3-0.2,2.3-0.9,3.3-1.7c3.2-2.3,6.1-4.8,9-7.4
			c1-0.9,20.5-18.6,25.1-22.8c1.7-1.5,14.1-11.7,14.7-12c0.1-0.1,0.3-0.2,0.4-0.3c-0.6-1.3-3.3-5.9-9.8-9.3
			c-0.2,0.4-0.4,0.7-0.6,1.1c-0.6,1.2-1.7,2.1-2.7,3c-2.1,1.8-4.2,3.7-6.3,5.5c-5.8,5.1-22.3,23.8-25,27.8
			C25.6,58.4,16.4,69.9,17.2,72.4z"/>
		<path fill="#168B7D" d="M66,22.9l-1-1.1c-0.1-0.1-0.3-0.2-0.5-0.4c-1.5,1.4-24.3,21.9-40.5,39c-2.5,3.3-5.8,7.9-6.7,10.5
			C32.6,52.8,65.6,23.2,66,22.9z"/>
		<path fill="#168B7D" d="M69.2,25.8c-0.4-0.5-0.8-1.1-1.4-1.5c-2,1.8-31,28.5-44.9,46.2c2.7-2.1,5.4-4.3,8-6.6
			c0.1-0.1,0.7-0.6,1.5-1.4C47,46.1,67.4,27.5,69.2,25.8z"/>
		<path fill="#5D5E61" d="M71.1,28.8c0.4-0.3,0.6-0.7,0.7-1.1c0.1-1.6-0.1-3.2,0.4-4.7c0.4-1.2,1.1-2.6,0.5-3.7
			c-0.3-0.6-0.9-1.1-1.5-1.5c-0.4-0.2-0.7-0.5-1.1-0.6c-1.1-0.2-2,1-3,1.4c-0.9,0.4-1.9,0.1-2.9,0.1c-1-0.1-2.1-0.1-2.7,0.6
			c-0.1,0.1-0.1,0.1-0.2,0.2C67.8,22.9,70.5,27.5,71.1,28.8z"/>
	</g>
</g>
</svg>
