<?xml version="1.0" encoding="utf-8"?>
<!-- Generator: Adobe Illustrator 18.1.1, SVG Export Plug-In . SVG Version: 6.00 Build 0)  -->
<svg version="1.1" id="Layer_1" xmlns="http://www.w3.org/2000/svg" xmlns:xlink="http://www.w3.org/1999/xlink" x="0px" y="0px"
	 viewBox="0 0 128 128" enable-background="new 0 0 128 128" xml:space="preserve">
<g>
	<circle fill="#41B655" cx="64" cy="64" r="63.5"/>
	<g>
		<path fill="#FAF4A6" d="M82.6,38.3c-4.9,0-9.4,2-13.1,5.3c-1.4-0.9-3-1.4-4.7-1.4c-2.2,0-4.3,0.9-5.9,2.4
			c-3.6-3.9-8.2-6.3-13.2-6.3c-11.4,0-20.6,12.1-20.6,26.9s9.2,26.9,20.6,26.9c1.9,0,3.7-0.3,5.5-1c2.9,3.7,7.9,6.1,13.6,6.1
			c5.4,0,10.3-2.3,13.2-5.7c1.5,0.4,3,0.6,4.6,0.6c12.1,0,22-12.1,22-26.9S94.7,38.3,82.6,38.3z"/>
		<path fill="#FFC717" d="M52.5,78.7c0.9,0.9,2.6,0.2,3.2-0.9s0.5-2.5,0.3-3.7c-0.3-3.1-0.7-6.2-1-9.3c-0.2-2.3-0.5-4.6,0.2-6.8
			c0.4-1.3,1.2-2.9,0.5-4.1c-0.8-1.3-2.5-1.2-4-1.6c-0.9-0.2-1.6-0.7-2.3-1.3c-0.6-0.5-1.4-0.7-2.1-0.6c-1.1,0.2-2.3-0.1-3.5-0.3
			c-0.7-0.2-1.6-0.3-2.3,0s-1.1,1.3-0.6,1.9c0.3,0.2,0.7,0.3,0.9,0.6c0.3,0.5-0.2,1.2-0.7,1.3c-0.6,0.2-1.2,0-1.8,0.1
			c-0.6,0.1-1.2,0.4-1.5,1c-0.3,0.6-0.2,1.3,0.4,1.7c0.2,0.1,0.5,0.2,0.6,0.4c0.3,0.4,0,1-0.5,1.3c-0.5,0.2-1,0.2-1.5,0.4
			c-0.9,0.3-1.6,1.1-1.8,2c-0.2,0.9,0.3,1.9,1,2.5c0.4,0.3,1,0.5,1.1,1c0.2,0.7-0.5,1.3-1.1,1.9c-0.6,0.6-1,1.6-0.8,2.5
			s0.9,1.7,1.7,1.8c0.2,0,0.5,0,0.7,0.2c0.4,0.3,0.2,0.9,0,1.3c-0.6,1.3-1.1,2.9-0.3,4.2c0.6,0.9,1.9,1.3,3,1.1c0.2,0,0.4-0.1,0.6,0
			c0.6,0.2,0.4,1.1,0.3,1.7c-0.2,1.5,1.5,2.8,2.9,2.4c0.6-0.2,1.1-0.7,1.7-0.9s1.4-0.3,1.7,0.3c0.1,0.2,0.2,0.4,0.3,0.6
			c0.4,0.8,1.6,0.9,2.5,0.8c0.2,0,0.4,0,0.5-0.1c0.2-0.1,0.2-0.3,0.3-0.5C51.8,80.5,52.1,79.6,52.5,78.7z"/>
		<path fill="#FFC717" d="M76.1,79.6c-0.9,0.9-2.6,0.2-3.2-0.9c-0.6-1.1-0.5-2.5-0.3-3.7c0.3-3.1,0.7-6.2,1-9.3
			c0.2-2.3,0.5-4.6-0.2-6.8c-0.4-1.3-1.2-2.9-0.5-4.1c0.8-1.3,2.5-1.2,4-1.6c0.9-0.2,1.6-0.7,2.3-1.3c0.6-0.5,1.4-0.7,2.1-0.6
			c1.1,0.2,2.3-0.1,3.5-0.3c0.7-0.2,1.6-0.3,2.3,0s1.1,1.3,0.6,1.9c-0.3,0.2-0.7,0.3-0.9,0.6c-0.3,0.5,0.2,1.2,0.7,1.3
			s1.2,0,1.8,0.1c0.6,0.1,1.2,0.4,1.5,1c0.3,0.6,0.2,1.3-0.4,1.7c-0.2,0.1-0.5,0.2-0.6,0.4c-0.3,0.4,0,1,0.5,1.3
			c0.5,0.2,1,0.2,1.5,0.4c0.9,0.3,1.6,1.1,1.8,2c0.2,0.9-0.3,1.9-1,2.5c-0.4,0.3-1,0.5-1.1,1c-0.2,0.7,0.5,1.3,1.1,1.9
			c0.6,0.6,1,1.6,0.8,2.5s-0.9,1.7-1.7,1.8c-0.2,0-0.5,0-0.7,0.2c-0.4,0.3-0.2,0.9,0,1.3c0.6,1.3,1.1,2.9,0.3,4.2
			c-0.6,0.9-1.9,1.3-3,1.1c-0.2,0-0.4-0.1-0.6,0c-0.6,0.2-0.4,1.1-0.3,1.7c0.2,1.5-1.5,2.8-2.9,2.4c-0.6-0.2-1.1-0.7-1.7-0.9
			s-1.4-0.3-1.7,0.3c-0.1,0.2-0.2,0.4-0.3,0.6c-0.4,0.8-1.6,0.9-2.5,0.8c-0.2,0-0.4,0-0.5-0.1c-0.2-0.1-0.2-0.3-0.3-0.5
			C76.8,81.3,76.5,80.4,76.1,79.6z"/>
	</g>
</g>
</svg>
