<?xml version="1.0" encoding="utf-8"?>
<!-- Generator: Adobe Illustrator 18.1.1, SVG Export Plug-In . SVG Version: 6.00 Build 0)  -->
<svg version="1.1" id="Layer_1" xmlns="http://www.w3.org/2000/svg" xmlns:xlink="http://www.w3.org/1999/xlink" x="0px" y="0px"
	 viewBox="0 0 128 128" enable-background="new 0 0 128 128" xml:space="preserve">
<g>
	<circle fill="#FFC717" cx="64" cy="64" r="63.5"/>
	<g>
		<g>
			<path fill="#FAF4A6" d="M52.1,47.4c-0.3,0-0.6-0.1-0.8-0.2c-0.7-0.5-0.9-1.4-0.4-2.1c1.4-2.1,2.6-4.2,2.4-6.2
				c-0.1-1.2-0.8-2.4-1.5-3.6C51,34.1,50.3,33,50,31.6c-0.7-2.7-0.1-5.4,0.4-7.6c0.2-0.8,1-1.3,1.8-1.1s1.3,1,1.1,1.8
				c-0.5,2-1,4.2-0.5,6.2c0.3,1,0.8,1.9,1.4,3c0.8,1.4,1.7,2.9,1.9,4.7c0.4,3.3-1.6,6.2-2.9,8.2C53,47.1,52.5,47.4,52.1,47.4z"/>
		</g>
		<g>
			<path fill="#FAF4A6" d="M63.1,47.4c-0.3,0-0.6-0.1-0.8-0.2c-0.7-0.5-0.9-1.4-0.4-2.1c1.4-2.1,2.6-4.2,2.4-6.2
				c-0.1-1.2-0.8-2.4-1.5-3.6c-0.7-1.1-1.3-2.3-1.7-3.7c-0.7-2.7-0.1-5.4,0.4-7.6c0.2-0.8,1-1.3,1.8-1.1c0.8,0.2,1.3,1,1.1,1.8
				c-0.5,2-1,4.2-0.5,6.2c0.3,1,0.8,1.9,1.4,3c0.8,1.4,1.7,2.9,1.9,4.7c0.4,3.3-1.6,6.2-2.9,8.2C64.1,47.1,63.6,47.4,63.1,47.4z"/>
		</g>
		<g>
			<path fill="#FAF4A6" d="M74.2,47.4c-0.3,0-0.6-0.1-0.8-0.2c-0.7-0.5-0.9-1.4-0.4-2.1c1.4-2.1,2.6-4.2,2.4-6.2
				c-0.1-1.2-0.8-2.4-1.5-3.6c-0.7-1.1-1.3-2.3-1.7-3.7c-0.7-2.7-0.1-5.4,0.4-7.6c0.2-0.8,1-1.3,1.8-1.1c0.8,0.2,1.3,1,1.1,1.8
				c-0.5,2-1,4.2-0.5,6.2c0.3,1,0.8,1.9,1.4,3c0.8,1.4,1.7,2.9,1.9,4.7c0.4,3.3-1.6,6.2-2.9,8.2C75.2,47.1,74.7,47.4,74.2,47.4z"/>
		</g>
		<polygon fill="#E3E6E8" points="99.9,103.7 28.1,103.7 25.6,97.1 102.4,97.1 		"/>
		<path fill="#92513B" d="M71.4,65.8c-1.6-0.3-3.2-0.8-4.9-1.1c-2.2-0.4-4.4-0.3-6.6-0.2c-5.7,0.3-11.4,0.6-17.2,0.7
			c-2.6,0-5.2,0-7.6-0.6C38.8,80.7,50.4,92.5,64,92.5c13.6,0,25.1-11.7,28.8-27.7C85.7,64.5,78.5,67.1,71.4,65.8z"/>
		<path fill="#E3E6E8" d="M42.8,65.2c5.7-0.1,11.5-0.4,17.2-0.7c2.2-0.1,4.4-0.2,6.6,0.2c1.7,0.3,3.3,0.8,4.9,1.1
			c7,1.3,14.3-1.3,21.4-1c0.8-3.6,1.3-7.4,1.3-11.4H33.8c0,3.9,0.4,7.7,1.3,11.2C37.6,65.2,40.2,65.3,42.8,65.2z"/>
		<g>
			
				<rect x="18.5" y="49.5" transform="matrix(0.5368 0.8437 -0.8437 0.5368 61.4167 -9.8484)" fill="#565756" width="42.4" height="3"/>
		</g>
		
			<ellipse transform="matrix(0.8437 -0.5368 0.5368 0.8437 -32.6303 42.2818)" fill="#753A29" cx="56.3" cy="77.2" rx="7.4" ry="10.9"/>
	</g>
</g>
</svg>
