<?xml version="1.0" encoding="utf-8"?>
<!-- Generator: Adobe Illustrator 18.1.1, SVG Export Plug-In . SVG Version: 6.00 Build 0)  -->
<svg version="1.1" id="Layer_1" xmlns="http://www.w3.org/2000/svg" xmlns:xlink="http://www.w3.org/1999/xlink" x="0px" y="0px"
	 viewBox="0 0 90 90" enable-background="new 0 0 90 90" xml:space="preserve">
<g>
	<circle fill="#388CCB" cx="45" cy="45" r="44.6"/>
	<g>
		<path fill="#E3E6E8" d="M49.7,45.6l-4.8-4.8l22.9-22.9c1.3-1.3,3.4-1.3,4.8,0l0,0c1.3,1.3,1.3,3.4,0,4.8L49.7,45.6z"/>
		<path fill="#EF4538" d="M48.5,55.1c-0.5-2.8-0.5-6-2.5-7.9c-1.1-1.1-2.5-1.6-3.9-1.6c-1.3,0.1-2.5,0.6-3.7,0.9s-2.6,0.5-3.7-0.1
			c-1.3-0.7-2-2.3-2-3.8c0-1.5,0.6-3,1.1-4.4c0.2-0.6,0.4-1.2,0.1-1.8c-0.1-0.5-0.6-0.8-1.1-1.1c-0.5-0.3-1-0.5-1.5-0.6
			c-3,0.9-5.7,2.5-8,4.9c-7.6,7.6-7.6,20,0,27.6s20,7.6,27.6,0c1.1-1.1,2.1-2.4,2.9-3.7c-0.6-0.4-1.1-0.8-1.7-1.2
			C50.1,60.4,49,57.8,48.5,55.1z"/>
		<path fill="#FBD839" d="M51,39.5c-5.3-5.3-12.9-6.9-19.5-4.9c0.5,0.1,1.1,0.4,1.5,0.6c0.5,0.3,0.9,0.6,1.1,1.1
			c0.2,0.6,0,1.2-0.1,1.8c-0.5,1.4-1,2.9-1.1,4.4c-0.1,1.5,0.6,3.1,2,3.8c1.1,0.6,2.5,0.4,3.7,0.1c1.2-0.4,2.5-0.8,3.7-0.9
			c1.4-0.1,2.9,0.6,3.9,1.5c2,2,2,5.2,2.5,7.9c0.5,2.7,1.7,5.3,3.7,7.1c0.5,0.4,1.1,0.8,1.7,1.2C58.4,55.9,57.4,46,51,39.5z"/>
	</g>
</g>
</svg>
