<?xml version="1.0" encoding="utf-8"?>
<!-- Generator: Adobe Illustrator 18.1.1, SVG Export Plug-In . SVG Version: 6.00 Build 0)  -->
<svg version="1.1" id="Layer_1" xmlns="http://www.w3.org/2000/svg" xmlns:xlink="http://www.w3.org/1999/xlink" x="0px" y="0px"
	 viewBox="0 0 90 90" enable-background="new 0 0 90 90" xml:space="preserve">
<g>
	<circle fill="#EF4538" cx="45" cy="45" r="44.6"/>
	<g>
		<path fill="#915037" d="M66.8,39.7c-13.6-5.6-28.8-5.6-42.5,0c-2.3,1-5.1,0.1-6.3-2l0,0c-1.1-2.2,0.1-5.1,2.9-6.2
			c15.7-6.5,33.4-6.5,49.1,0c2.8,1.1,4.1,4,2.9,6.2l0,0C71.9,39.8,69.2,40.6,66.8,39.7z"/>
		<path fill="#753A29" d="M26.1,33c0.1,0,0.1,0,0.2,0c0.5,0,0.9-0.4,1.1-0.8c0.2-1.2,0.7-2.3,1.3-3.2c-0.9,0.3-1.8,0.5-2.7,0.8
			c-0.3,0.6-0.4,1.3-0.6,2C25.2,32.3,25.5,32.8,26.1,33z"/>
		<path fill="#753A29" d="M36.8,31.2c0.1,0,0.1,0,0.2,0c0.5,0,0.9-0.4,1.1-0.8c0.2-1.3,0.8-2.5,1.4-3.4c-0.8,0.1-1.7,0.2-2.6,0.3
			c-0.4,0.8-0.7,1.8-0.9,2.8C35.8,30.6,36.2,31.1,36.8,31.2z"/>
		<path fill="#753A29" d="M47.5,31.2c0.1,0,0.1,0,0.2,0c0.5,0,0.9-0.4,1.1-0.8c0.2-1.3,0.8-2.5,1.5-3.6c-0.8-0.1-1.6-0.1-2.4-0.1
			c-0.6,1-1,2.1-1.2,3.3C46.5,30.6,46.8,31.1,47.5,31.2z"/>
		<path fill="#753A29" d="M58.1,33c0.1,0,0.1,0,0.2,0c0.5,0,0.9-0.4,1.1-0.8c0.3-1.4,0.8-2.6,1.5-3.7c-0.7-0.1-1.5-0.4-2.2-0.5
			c-0.6,1.1-1.2,2.4-1.4,3.8C57.2,32.3,57.5,32.8,58.1,33z"/>
		
			<rect x="48.2" y="49.4" transform="matrix(-0.1336 0.991 -0.991 -0.1336 116.1882 18.293)" fill="#FFC717" width="3.7" height="21"/>
		
			<rect x="52.1" y="41.9" transform="matrix(7.280242e-003 1 -1 7.280242e-003 105.9788 -1.9554)" fill="#FCD83A" width="3.7" height="21"/>
		
			<rect x="40.3" y="34.2" transform="matrix(7.280242e-003 1 -1 7.280242e-003 86.5918 2.2965)" fill="#FFC717" width="3.7" height="21"/>
		
			<rect x="40.3" y="41.9" transform="matrix(0.6075 0.7943 -0.7943 0.6075 58.1406 -12.9014)" fill="#FAF4A6" width="3.7" height="21"/>
		
			<rect x="35.5" y="41.8" transform="matrix(-0.3203 0.9473 -0.9473 -0.3203 98.8882 33.7446)" fill="#F7BE2A" width="3.7" height="21"/>
	</g>
</g>
</svg>
