<?xml version="1.0" encoding="utf-8"?>
<!-- Generator: Adobe Illustrator 18.1.1, SVG Export Plug-In . SVG Version: 6.00 Build 0)  -->
<svg version="1.1" id="Layer_1" xmlns="http://www.w3.org/2000/svg" xmlns:xlink="http://www.w3.org/1999/xlink" x="0px" y="0px"
	 viewBox="0 0 90 90" enable-background="new 0 0 90 90" xml:space="preserve">
<g>
	<circle fill="#41B655" cx="45" cy="45" r="44.6"/>
	<g>
		<path fill="#E3E6E8" d="M37.6,23H23l1.6-4.5c0.3-0.8,1.1-1.4,2-1.4H34c0.9,0,1.7,0.6,2,1.4L37.6,23z"/>
		<path fill="#915037" d="M67.6,68h-8.6v-2.8h8.6c1.1,0,1.9-0.8,1.9-1.9V38.9c0-1.1-0.8-1.9-1.9-1.9h-8.6v-2.8h8.6
			c2.6,0,4.7,2.1,4.7,4.7v24.5C72.4,65.9,70.2,68,67.6,68z"/>
		<path fill="#E3E6E8" d="M59.1,25.1c0-1.2-0.9-2.1-2.1-2.1H19.8c-1.2,0-2.1,0.9-2.1,2.1v6.3h41.4V25.1z"/>
		<path fill="#FFC717" d="M17.6,31.4v39.4c0,1.2,0.9,2.1,2.1,2.1H57c1.2,0,2.1-0.9,2.1-2.1V31.4H17.6z"/>
	</g>
</g>
</svg>
