<?xml version="1.0" encoding="utf-8"?>
<!-- Generator: Adobe Illustrator 18.1.1, SVG Export Plug-In . SVG Version: 6.00 Build 0)  -->
<svg version="1.1" id="Layer_1" xmlns="http://www.w3.org/2000/svg" xmlns:xlink="http://www.w3.org/1999/xlink" x="0px" y="0px"
	 viewBox="0 0 90 90" enable-background="new 0 0 90 90" xml:space="preserve">
<g>
	<circle fill="#FFC717" cx="45" cy="45" r="44.6"/>
	<g>
		<polygon fill="#D62E2F" points="55.2,21.7 50.1,17.1 44.9,21.7 39.8,17.1 34.6,21.6 29.5,17.1 24.3,21.6 19.2,17.1 19.2,24.3 
			60.3,24.3 60.3,17.1 		"/>
		<polygon fill="#D62E2F" points="24.3,68.3 29.4,72.9 34.6,68.3 39.7,72.9 44.9,68.4 49.9,72.9 55.2,68.4 60.3,72.9 60.3,65.7 
			19.2,65.7 19.2,72.9 		"/>
		<path fill="#EC5552" d="M60.3,65.7c-13.7,0-27.4,0-41.1,0c-2.4-13.6-2.4-27.8,0-41.5c13.7,0,27.4,0,41.1,0
			C62.7,37.9,62.7,52.1,60.3,65.7z"/>
		<circle fill="#915037" cx="60.2" cy="60.4" r="12.4"/>
	</g>
</g>
</svg>
