<?xml version="1.0" encoding="utf-8"?>
<!-- Generator: Adobe Illustrator 18.1.1, SVG Export Plug-In . SVG Version: 6.00 Build 0)  -->
<svg version="1.1" id="Layer_1" xmlns="http://www.w3.org/2000/svg" xmlns:xlink="http://www.w3.org/1999/xlink" x="0px" y="0px"
	 viewBox="0 0 90 90" enable-background="new 0 0 90 90" xml:space="preserve">
<g>
	<circle fill="#41B655" cx="45" cy="45" r="44.6"/>
	<g>
		<path fill="#E3E6E8" d="M39.4,66.6l-20-13.8c-3.1-3-3.1-7.7,0-10.8l20-18.8c3.1-3,8.2-3,11.3,0l19.9,18.9c3.1,3,3.1,7.7,0,10.8
			l-20,13.7C47.5,69.5,42.5,69.5,39.4,66.6z"/>
		<path fill="#5D5E61" d="M45,58.4c-4.5,0-8.5,1.8-11,4.4l5.3,3.7c3.1,3,8.2,3,11.3,0l5.3-3.7C53.5,60.2,49.5,58.4,45,58.4z"/>
		<path fill="#C2CACE" d="M35,61.9c0.6-0.5,1.1-0.9,1.8-1.3c-10.5-7.7-15.2-20-15.3-20.1c-0.1-0.1-0.1-0.2-0.2-0.3l-1.6,1.5
			C20.7,44.2,25.4,54.6,35,61.9z"/>
		<path fill="#C2CACE" d="M53.3,60.7c0.6,0.4,1.2,0.8,1.8,1.3c9.6-7.1,14.2-17.5,15.3-20l-1.6-1.5c-0.1,0.1-0.1,0.1-0.1,0.2
			C68.6,40.7,63.9,53,53.3,60.7z"/>
		<path fill="#C2CACE" d="M50.1,59.2c0.8,0.3,1.5,0.6,2.3,0.9c8.5-7.2,10-20.8,10.3-25.6l-2-1.9c0,0.1,0,0.1,0,0.2
			C60.5,33,60.5,51.5,50.1,59.2z"/>
		<path fill="#C2CACE" d="M46.5,58.5c0.8,0.1,1.5,0.2,2.3,0.4c6.7-9.8,6-25.8,5.4-32.3l-2.4-2.3C52.2,27.1,54.6,47.8,46.5,58.5z"/>
		<path fill="#C2CACE" d="M41.1,58.9c0.8-0.1,1.5-0.3,2.3-0.4c-8.1-10.8-5.7-31.4-5.3-34.2l-2.4,2.3C35.2,33.1,34.5,49,41.1,58.9z"
			/>
		<path fill="#C2CACE" d="M37.8,60.1c0.7-0.4,1.5-0.6,2.3-0.9C29.7,51.5,29.7,33,29.7,32.8c0-0.1,0-0.2-0.1-0.4l-2,1.9
			C27.8,39,29.2,52.8,37.8,60.1z"/>
	</g>
</g>
</svg>
