<?xml version="1.0" encoding="utf-8"?>
<!-- Generator: Adobe Illustrator 18.1.1, SVG Export Plug-In . SVG Version: 6.00 Build 0)  -->
<svg version="1.1" id="Layer_1" xmlns="http://www.w3.org/2000/svg" xmlns:xlink="http://www.w3.org/1999/xlink" x="0px" y="0px"
	 viewBox="0 0 90 90" enable-background="new 0 0 90 90" xml:space="preserve">
<g>
	<circle fill="#41B655" cx="45" cy="45" r="44.6"/>
	<g>
		<polygon fill="#E3E6E8" points="67.4,17 22.6,17 22.6,72.8 54.8,72.8 67.4,60.1 		"/>
		<polygon fill="#BAC2C6" points="54.8,72.8 67.4,60.1 54.8,60.1 		"/>
		<path fill="#5D5E61" d="M38.6,32.8H28.1V22.4h10.4L38.6,32.8L38.6,32.8z M30.2,30.7h6.3v-6.3h-6.3V30.7z"/>
		<rect x="42.5" y="26.6" fill="#5D5E61" width="19.3" height="2.1"/>
		<path fill="#5D5E61" d="M38.6,46.5H28.1V36.1h10.4L38.6,46.5L38.6,46.5z M30.2,44.4h6.3v-6.3h-6.3V44.4z"/>
		<rect x="42.5" y="40.2" fill="#5D5E61" width="19.3" height="2.1"/>
		<path fill="#5D5E61" d="M38.6,60.2H28.1V49.8h10.4L38.6,60.2L38.6,60.2z M30.2,58.1h6.3v-6.3h-6.3V58.1z"/>
		<rect x="42.5" y="53.9" fill="#5D5E61" width="19.3" height="2.1"/>
	</g>
</g>
</svg>
