<?xml version="1.0" encoding="utf-8"?>
<!-- Generator: Adobe Illustrator 18.1.1, SVG Export Plug-In . SVG Version: 6.00 Build 0)  -->
<svg version="1.1" id="Layer_1" xmlns="http://www.w3.org/2000/svg" xmlns:xlink="http://www.w3.org/1999/xlink" x="0px" y="0px"
	 viewBox="0 0 128 128" enable-background="new 0 0 128 128" xml:space="preserve">
<g>
	<circle fill="#41B655" cx="64" cy="64" r="63.5"/>
	<g>
		<path fill="#E3E6E8" d="M50,103.3L24.7,78c-0.5-0.5-0.5-1.3,0-1.8l42.8-42.8c0.5-0.5,1.3-0.5,1.8,0l25.4,25.4
			c0.5,0.5,0.5,1.3,0,1.8l-42.8,42.8C51.3,103.8,50.5,103.8,50,103.3z"/>
		
			<rect x="74.1" y="39.1" transform="matrix(0.7071 0.7071 -0.7071 0.7071 55.3677 -47.3737)" fill="#92513B" width="21.6" height="8.1"/>
		<path fill="#E3E6E8" d="M98.3,34l4.5-4.5c1.1-1.1,1.3-2.9,0.3-4.1c-1.1-1.4-3.2-1.5-4.4-0.2L94,29.8c-1.4,1.4-3.5,2.2-5.5,2
			c-2.4-0.2-5,0.6-6.8,2.5l12.1,12.1c1.9-1.9,2.7-4.4,2.5-6.8C96,37.5,96.8,35.4,98.3,34z"/>
		<path fill="#3D82C4" d="M86.3,56.9l-2.2-2.2c-0.6-0.6-1.5-0.6-2.1,0c-0.6,0.6-0.6,1.5,0,2.1l1.1,1.1l-4,4l-1.1-1.1
			c-0.6-0.6-1.5-0.6-2.1,0s-0.6,1.5,0,2.1l1.1,1.1l-4,4L72,67c-0.6-0.6-1.5-0.6-2.1,0s-0.6,1.5,0,2.1l1.1,1.1l-4,4l-1.1-1.1
			c-0.6-0.6-1.5-0.6-2.1,0s-0.6,1.5,0,2.1l1.1,1.1l-4,4l-1.1-1.1c-0.6-0.6-1.5-0.6-2.1,0c-0.6,0.6-0.6,1.5,0,2.1l1.1,1.1l-4,4
			l-1.1-1.1c-0.6-0.6-1.5-0.6-2.1,0c-0.6,0.6-0.6,1.5,0,2.1l1.1,1.1l-4,4l-1.1-1.1c-0.6-0.6-1.5-0.6-2.1,0c-0.6,0.6-0.6,1.5,0,2.1
			l2.2,2.2c0.3,0.3,0.7,0.4,1.1,0.4s0.8-0.1,1.1-0.4l0,0L68,77.3l0,0c0,0,0,0,0,0l6.1-6.1c0,0,0,0,0,0c0,0,0,0,0,0l6.1-6.1l0,0
			c0,0,0,0,0,0l6.1-6.1c0.3-0.3,0.4-0.7,0.4-1.1C86.8,57.6,86.6,57.2,86.3,56.9z"/>
	</g>
</g>
</svg>
