<?xml version="1.0" encoding="utf-8"?>
<!-- Generator: Adobe Illustrator 18.1.1, SVG Export Plug-In . SVG Version: 6.00 Build 0)  -->
<svg version="1.1" id="Layer_1" xmlns="http://www.w3.org/2000/svg" xmlns:xlink="http://www.w3.org/1999/xlink" x="0px" y="0px"
	 viewBox="0 0 90 90" enable-background="new 0 0 90 90" xml:space="preserve">
<g>
	<circle fill="#EF4538" cx="45" cy="45" r="44.6"/>
	<g>
		<path fill="#FAF4A6" d="M58.6,35.8c-5.6,0-10.3,1.7-12.9,4.2c-2.6-2.5-7.4-4.2-12.9-4.2c-8.2,0-15,3.7-15,8.4
			c0,5.3,15.8,15.8,27.9,18.5C58.1,60,73.5,49.9,73.5,44.2C73.5,39.5,66.8,35.8,58.6,35.8z"/>
		<path fill="#753A29" d="M45.6,62.6c-12.2-2.8-27.9-13.2-27.9-18.5v10.2c0,5.3,15.8,15.7,27.9,18.5c12.5-2.6,27.9-12.7,27.9-18.5
			V44.2C73.5,49.9,58.1,60,45.6,62.6z"/>
		<rect x="43.4" y="29.5" fill="#5D5E61" width="4.5" height="20.5"/>
		<path fill="#FFC717" d="M48.9,23.6c0,1.9-1.5,3.4-3.4,3.4c-1.8,0-3.4-1.5-3.4-3.4s2.1-3.1,3.4-6.2C46.3,15.7,48.9,21.7,48.9,23.6z
			"/>
		<path fill="#E3E6E8" d="M45.6,27c-0.4,0-0.7-0.1-1.1-0.2v2.7h2.1v-2.7C46.3,26.9,46,27,45.6,27z"/>
	</g>
</g>
</svg>
