<?xml version="1.0" encoding="utf-8"?>
<!-- Generator: Adobe Illustrator 18.1.1, SVG Export Plug-In . SVG Version: 6.00 Build 0)  -->
<svg version="1.1" id="Layer_1" xmlns="http://www.w3.org/2000/svg" xmlns:xlink="http://www.w3.org/1999/xlink" x="0px" y="0px"
	 viewBox="0 0 90 90" enable-background="new 0 0 90 90" xml:space="preserve">
<g>
	<circle fill="#FFC717" cx="45" cy="45" r="44.6"/>
	<g>
		<path fill="#E3E6E8" d="M68.6,40.3h-3.2c-1,0-1.8-0.8-1.8-1.8v-7c0-2-1.6-3.6-3.6-3.6H21.3c-2,0-3.6,1.6-3.6,3.6v27.1
			c0,2,1.6,3.6,3.6,3.6h38.6c2,0,3.6-1.6,3.6-3.6v-7c0-1,0.8-1.8,1.8-1.8h3.4c2.7,0,4.8-2.2,4.7-4.9C73.4,42.3,71.2,40.3,68.6,40.3z
			"/>
		<circle fill="#5D5E61" cx="69.1" cy="45" r="1.8"/>
		<circle fill="#22A79C" cx="45.6" cy="45" r="6.2"/>
		<path fill="#117160" d="M28.2,45c0-2.4,1.3-4.5,3.4-5.5c-0.8-0.4-1.8-0.7-2.8-0.7c-3.4,0-6.2,2.7-6.2,6.2c0,3.4,2.7,6.2,6.2,6.2
			c1,0,2-0.3,2.8-0.7C29.5,49.5,28.2,47.4,28.2,45z"/>
		<path fill="#117B6B" d="M33.8,45c0-2.4,1.3-4.5,3.4-5.5c-0.8-0.4-1.8-0.7-2.8-0.7c-3.4,0-6.2,2.7-6.2,6.2c0,3.4,2.7,6.2,6.2,6.2
			c1,0,2-0.3,2.8-0.7C35.2,49.5,33.8,47.4,33.8,45z"/>
		<path fill="#168B7D" d="M39.4,45c0-2.4,1.3-4.5,3.4-5.5c-0.8-0.4-1.8-0.7-2.8-0.7c-3.4,0-6.2,2.8-6.2,6.2c0,3.4,2.7,6.2,6.2,6.2
			c1,0,2-0.3,2.8-0.7C40.8,49.5,39.4,47.4,39.4,45z"/>
		<path fill="#C0C5C8" d="M61.7,32.6v19.2h-8.6V36.6c0-7,2.2-13.9,6.5-19.5l0,0l0.5,2.1C61.2,23.6,61.7,28.1,61.7,32.6z"/>
		<path fill="#915037" d="M56.8,51.8v19.6c0,0.8,0.7,1.5,1.5,1.5h1.8c0.8,0,1.5-0.7,1.5-1.5V51.8H56.8z"/>
	</g>
</g>
</svg>
