<?xml version="1.0" encoding="utf-8"?>
<!-- Generator: Adobe Illustrator 18.1.1, SVG Export Plug-In . SVG Version: 6.00 Build 0)  -->
<svg version="1.1" id="Layer_1" xmlns="http://www.w3.org/2000/svg" xmlns:xlink="http://www.w3.org/1999/xlink" x="0px" y="0px"
	 viewBox="0 0 128 128" enable-background="new 0 0 128 128" xml:space="preserve">
<g>
	<circle fill="#41B655" cx="64" cy="64" r="63.5"/>
	<g>
		<path fill="#D62E2F" d="M79.8,24.3c-6.4,0-11.9,4-14.9,10c-3-6-8.5-10-14.9-10c-9.5,0-17.2,9-17.2,20.1
			c0,12.7,18.2,37.6,32.2,44.3C79.3,82.4,97,58.2,97,44.4C97,33.3,89.3,24.3,79.8,24.3z"/>
		<path fill="#753A29" d="M59.9,54.7c5.7-2.9,12.5-0.9,18.9,0c5.4,0.8,10.9,0.7,16.2-0.1c-5.2,10.9-9.4,15-9.8,20
			c-0.2,2.1-0.4,4.5-2.1,5.6c-1.1,0.7-2.7,0.6-3.5,1.6c-0.5,0.6-0.6,1.5-0.7,2.3c-0.2,2.4-0.3,4.8-0.5,7.3c0,0.5-0.1,1-0.4,1.4
			c-0.7,0.8-1.9,0.3-2.8-0.2c-1.9-1.1-3.8-2.1-5.7-3.2c-0.6,2.5,0,5.1,0,7.7c0,2.6-0.9,5.5-3.4,6.4c-2.8,1-5.8-1.4-6.6-4.2
			c-0.9-2.8-0.3-5.8,0-8.7c0.2-2,0.3-4.3-1.3-5.5c-1.5-1.2-2.3-2.1-3.5-3c-2.3-1.7-3.8-4-6-5.6c-1.6-1.2-3.3-2.5-4.2-4.3
			c-1.2-2.5-0.7-5.5,0.3-8.1c0.1-0.4,0.3-0.7,0.5-1c0.4-0.5,1-0.7,1.6-0.9c2.9-1,5.6-2.4,8.1-4.2C56.6,56.9,58.1,55.6,59.9,54.7z"/>
	</g>
</g>
</svg>
