<?xml version="1.0" encoding="utf-8"?>
<!-- Generator: Adobe Illustrator 18.1.1, SVG Export Plug-In . SVG Version: 6.00 Build 0)  -->
<svg version="1.1" id="Layer_1" xmlns="http://www.w3.org/2000/svg" xmlns:xlink="http://www.w3.org/1999/xlink" x="0px" y="0px"
	 viewBox="0 0 90 90" enable-background="new 0 0 90 90" xml:space="preserve">
<g>
	<circle fill="#EF4538" cx="45" cy="45" r="44.6"/>
	<g>
		<path fill="#FCD83A" d="M62,41.7c-9.5,0-17.2-7.7-17.2-17.2c0-2.7,0.6-5.2,1.7-7.5c-0.3,0-0.6,0-0.9,0
			c-15.4,0-27.9,12.5-27.9,27.9s12.5,27.9,27.9,27.9S73.5,60.4,73.5,45c0-2.4-0.3-4.7-0.8-7C69.7,40.4,66,41.7,62,41.7z"/>
		<circle fill="#753A29" cx="31.4" cy="33.3" r="1.3"/>
		<circle fill="#753A29" cx="30.7" cy="54.1" r="1.3"/>
		<circle fill="#753A29" cx="48.9" cy="49.4" r="1.5"/>
		<circle fill="#753A29" cx="48.9" cy="65.8" r="2.4"/>
		<circle fill="#753A29" cx="41" cy="41.7" r="2"/>
	</g>
</g>
</svg>
