<?xml version="1.0" encoding="utf-8"?>
<!-- Generator: Adobe Illustrator 18.1.1, SVG Export Plug-In . SVG Version: 6.00 Build 0)  -->
<svg version="1.1" id="Layer_1" xmlns="http://www.w3.org/2000/svg" xmlns:xlink="http://www.w3.org/1999/xlink" x="0px" y="0px"
	 viewBox="0 0 90 90" enable-background="new 0 0 90 90" xml:space="preserve">
<g>
	<circle fill="#41B655" cx="45" cy="45" r="44.6"/>
	<g>
		<polygon fill="#E3E6E8" points="70.9,72.9 19.1,72.9 17.1,69.4 72.9,69.4 		"/>
		<path fill="#FCD83A" d="M67.1,69.4H22.9V46.6c0-1.3,1.1-2.4,2.4-2.4h39.6c1.3,0,2.4,1.1,2.4,2.4L67.1,69.4L67.1,69.4z"/>
		<path fill="#D62E2F" d="M62.4,44.4l-34.8-0.1c0.8,0.1,1.2,1.1,1.5,1.9c0.7,2.6,1.4,5.2,2.2,7.7c0.1,0.5,0.3,1,0.6,1.4
			c0.4,0.4,0.8,0.7,1.3,0.6c0.6-0.1,0.8-0.7,1.2-1.2c0.6-1.1,1.5-2,2.4-2.7c0.4-0.3,0.8-0.5,1.1-0.4c0.3,0.1,0.4,0.4,0.6,0.6
			c2,3.2,2.5,7.1,4.4,10.5c0.3,0.6,0.9,1.2,1.5,0.9c0.3-0.1,0.5-0.5,0.6-0.8c0.9-3.1-0.4-6.8,1.6-9.4c0.3-0.4,0.7-0.7,1.1-0.6
			c0.4,0.1,0.6,0.4,0.8,0.6c0.5,0.7,0.9,1.5,1.2,2.3c0.4,1.3,0.6,2.8,1.6,3.9c0.6,0.6,1.4,0.8,2.1,0.5c0.8-0.4,1-1.1,1.1-1.8
			c0.1-0.6,0.2-1.2,0.3-1.8c0.3-1.8,2.5-2.7,3.9-1.5c0.4,0.3,0.7,0.7,1,1.1c0.1,0.3,0.4,0.6,0.7,0.5c0.1,0,0.1-0.1,0.1-0.1
			c0.4-0.4,0.5-0.9,0.6-1.5C61.5,51.3,60.5,47.4,62.4,44.4z"/>
		<path fill="#E3E6E8" d="M54.2,32.8L50,26.5L24,43.6C26.4,47.1,50.6,35.2,54.2,32.8z"/>
		<path fill="#753A29" d="M52.6,30.4l13.7-9c1.1-0.7,1.4-2.2,0.6-3.2l0,0c-0.7-1.1-2.2-1.3-3.2-0.6l-13.7,9l0,0L52.6,30.4z"/>
	</g>
</g>
</svg>
