<?xml version="1.0" encoding="utf-8"?>
<!-- Generator: Adobe Illustrator 18.1.1, SVG Export Plug-In . SVG Version: 6.00 Build 0)  -->
<svg version="1.1" id="Layer_1" xmlns="http://www.w3.org/2000/svg" xmlns:xlink="http://www.w3.org/1999/xlink" x="0px" y="0px"
	 viewBox="0 0 90 90" enable-background="new 0 0 90 90" xml:space="preserve">
<g>
	<circle fill="#41B655" cx="45" cy="45" r="44.6"/>
	<g>
		<path fill="#FAF4A6" d="M68.6,72.9H27.4c-2.7,0-4.9-2-4.9-4.4l0,0c0-2.5,2.2-4.4,4.9-4.4h41.2l0,0C67.3,66.8,67.3,70,68.6,72.9
			L68.6,72.9z"/>
		<path fill="#D62E2F" d="M22.6,23.4v45.1c0-2.5,2.1-4.4,4.7-4.4l0,0l0,0h41.3v-47H29.3C25.6,17.1,22.6,19.9,22.6,23.4z"/>
		<path fill="#E3E6E8" d="M60.5,32.3c0-5.3-4.3-9.6-9.6-9.6c-2.3,0-4.5,0.8-6.2,2.3c-1.7-1.4-3.8-2.3-6.2-2.3
			c-5.3,0-9.6,4.3-9.6,9.6c0,3.4,1.8,6.3,4.4,8.1v16.2h23V40.3C58.9,38.6,60.5,35.6,60.5,32.3z"/>
	</g>
</g>
</svg>
