<?xml version="1.0" encoding="utf-8"?>
<!-- Generator: Adobe Illustrator 18.1.1, SVG Export Plug-In . SVG Version: 6.00 Build 0)  -->
<svg version="1.1" id="Layer_1" xmlns="http://www.w3.org/2000/svg" xmlns:xlink="http://www.w3.org/1999/xlink" x="0px" y="0px"
	 viewBox="0 0 90 90" enable-background="new 0 0 90 90" xml:space="preserve">
<g>
	<circle fill="#EF4538" cx="45" cy="45" r="44.6"/>
	<g>
		<path fill="#E3E6E8" d="M59.6,38c0,10.2-3.3,26.2-14,26.2c-10.3,0-14-16.1-14-26.2s6.3-16.2,14-16.2S59.6,27.8,59.6,38z"/>
		<g>
			<path fill="#FDB619" d="M27.5,31.1c0.1-2.8,0.8-14.1,3-14c2.3,0,2.7,11.6,2.7,14.1s-1.3,4.4-2.9,4.4
				C28.8,35.6,27.5,33.5,27.5,31.1z"/>
			<path fill="#FDB619" d="M58,31.1c0.1-2.8,0.8-14.1,3-14c2.3,0,2.7,11.6,2.7,14.1s-1.3,4.4-2.9,4.4C59.2,35.6,57.9,33.5,58,31.1z"
				/>
			<path fill="#FDB619" d="M67.2,55.3c-0.8,3.8-5.1,18.4-9.4,17.5c-4.6-0.9-2.6-16.5-2-19.8s3.7-5.4,6.9-4.8
				C65.8,48.9,67.9,52.1,67.2,55.3z"/>
			<path fill="#FDB619" d="M24,55.3c0.8,3.8,5.1,18.4,9.4,17.5c4.6-0.9,2.6-16.5,2-19.8c-0.6-3.2-3.7-5.4-6.9-4.8S23.3,52.1,24,55.3
				z"/>
		</g>
	</g>
</g>
</svg>
