<?xml version="1.0" encoding="utf-8"?>
<!-- Generator: Adobe Illustrator 18.1.1, SVG Export Plug-In . SVG Version: 6.00 Build 0)  -->
<svg version="1.1" id="Layer_1" xmlns="http://www.w3.org/2000/svg" xmlns:xlink="http://www.w3.org/1999/xlink" x="0px" y="0px"
	 viewBox="0 0 90 90" enable-background="new 0 0 90 90" xml:space="preserve">
<g>
	<circle fill="#388CCB" cx="45" cy="45" r="44.6"/>
	<g>
		<path fill="#FFC717" d="M24.3,60.4c0.8-14,12-25.1,25.5-25.1c2.7,0,5.3,0.4,7.7,1.3c-4.1-3.1-9.1-4.9-14.6-4.9
			c-13.1,0-24,10.5-25.5,23.9c-0.2,1.9,0.9,3.7,2.7,4.5l4.4,1.5c0.1,0.1,0.3,0.1,0.4,0.1C24.5,61.3,24.3,60.9,24.3,60.4z"/>
		<path fill="#D62E2F" d="M49.9,35.3c9.1,0,17.1,5,21.7,12.6h0.1c-0.6-2.5-1.1-5.1-1.1-7.7c0-0.2,0-0.5-0.1-0.6
			c-0.1-0.1-0.4-0.2-0.6-0.3c-0.7-0.1-1.4-0.4-2.1-0.5c-0.6-0.1-1.3-0.6-1.5-1.2c-0.1-0.3-0.3-0.6-0.6-0.7c-0.5-0.3-1.1-0.4-1.8-0.4
			h-2.7c-0.7,0-1.3-0.4-1.7-1c-0.4-0.6-1.1-1-1.8-1.2c-1.1-0.3-2.1-0.3-3.2-0.5c-0.4-0.1-0.7-0.2-0.8-0.5c-0.1-0.3-0.1-0.6-0.1-0.8
			c-0.1-0.7-0.7-1.3-1.4-1.5c-0.7-0.2-1.4-0.1-2.1-0.1c-1.2,0.1-2.3,0.1-3.5-0.1c-0.4,0-0.7-0.1-0.9-0.4c-0.2-0.2-0.2-0.6-0.4-0.8
			c-0.4-0.9-1.5-1.3-2.5-1.2c-1,0.1-1.8,0.6-2.8,0.9c-0.9,0.4-2,0.5-2.8,0c-0.4-0.2-0.8-0.6-1.1-0.9c-0.8-0.5-1.9-0.4-2.7,0
			c-0.8,0.4-1.5,1.1-2.2,1.8c-0.6,0.7-1.6,1.4-2.3,0.8c-0.2-0.2-0.3-0.5-0.4-0.7c-0.6-0.8-1.8-0.8-2.6-0.3c-0.8,0.5-1.3,1.4-1.8,2.2
			c-0.6,0.8-1.2,1.6-2.2,1.8c-0.3,0.1-0.6,0.1-0.9,0.2c-0.3,0.1-0.5,0.4-0.7,0.6c-0.5,0.6-0.9,1.2-1.4,1.8c-0.8,1-1.5,2.1-1.8,3.4
			c-0.2,1.5,0.4,3,1,4.4c0.1,0.3,0.2,0.6,0.1,0.9c-0.1,0.4-0.4,0.6-0.6,0.8c-0.5,0.6-0.5,1.6-0.1,2.4c0.4,0.8,1,1.3,1.6,1.9
			c0.6,0.6,1.3,1.5,0.6,2.2c-0.1,0.1-0.3,0.2-0.4,0.4c-0.6,0.5-0.4,1.5,0.2,2s1.3,0.6,2,0.9c0.2,0.1,0.4,0.1,0.6,0.4
			c0.1,0.2,0.2,0.5,0.2,0.8c0.1,1.2,0.8,2.3,1.8,3.1l0.2-0.1C25.5,46.2,36.4,35.3,49.9,35.3z"/>
		<path fill="#22A79C" d="M23.3,59.7c0.3-0.1,0.5-0.3,0.8-0.4c-1.3-0.6-2-2.1-2.4-3.5c-0.1-0.6-0.4-1.1-0.1-1.7
			c0.1-0.4,0.4-0.6,0.4-1c0.4-1.1-0.6-2-0.7-3.1c-0.1-0.7,0.2-1.3,0.4-2c0.6-2.2-0.1-4.7-1.5-6.5c1.2-0.1,2.4,0.5,3,1.5
			c1.5-1.5-0.1-4.5,1.5-6c0.4,0.2,0.9,0.4,1.3,0.6c-0.3-0.6,0.1-1.5,0.7-1.9c0.6-0.4,1.3-0.6,1.9-1.1c0.9-0.6,1.5-1.6,2.4-2.2
			c0.1,0.5,0.6,0.7,1.1,0.6c0.5-0.1,0.9-0.3,1.3-0.4c1.7-0.5,3.5,0.8,5.2,0.3c0.1,0.8-0.6,1.5-1.4,1.5c1.5-1,3.5-1.3,5.3-0.8
			c1.3,0.3,2.5,0.9,3.8,0.8c1.1-0.1,2-0.6,2.7-1.5c0.1-0.1,0.3-0.4,0.4-0.4c0.2,0,0.4,0.1,0.6,0.3c1.5,1.4,4.1,0.7,5.9,1.7
			c1.3,0.7,2,2.1,3.4,2.6c1.1,0.4,2.3,0.1,3.1,0.8c0.4,0.4,0.6,1,0.8,1.5c0.4,1.5,0.8,3.2,0.2,4.6c-0.3,0.6-0.7,1.1-1.2,1.5
			c-3,2.9-7.2,4.1-11,5.6c-4.1,1.7-7.9,3.9-12.2,5.1C33.9,58,28.4,57.9,23.3,59.7z"/>
		<path fill="#E3E6E8" d="M33.5,38c1.6-0.6,3.6-0.2,5.2-0.9c0.6-0.3,1.3-0.8,1.9-0.7c0.4,0.1,0.8,0.3,1.1,0.5
			c0.8,0.5,1.7,0.7,2.7,0.6c1.1,0,2.1-0.4,3,0c1.1,0.4,1.6,1.7,1.8,2.8c0.3,2.4-0.7,4.8-2.2,6.7c-1.5,1.9-3.5,3.3-5.6,4.5
			c-2,1.2-4.1,2.3-6.3,2.7c-0.9,0.2-1.9,0.2-2.8,0.3c-1.3,0.1-2.6,0.1-3.9,0.3c-0.1,0-0.4,0-0.5-0.1c-0.1-0.1-0.2-0.3-0.3-0.4
			c-0.8-2-1.3-4.1-1.5-6.2c0-0.2,0-0.4,0-0.7c0.1-0.4,0.4-0.6,0.6-0.8c0.8-0.9,1-2.2,1.4-3.4c0.4-1.1,1.3-2.3,2.5-2.4
			c0.3,0,0.6,0,0.8-0.1c0.6-0.3,0.6-1.1,0.8-1.8C32.4,38.5,32.9,38.2,33.5,38z"/>
		<path fill="#FFC717" d="M49.9,35.3c-13.6,0-24.7,11-25.5,25.1c-0.1,1.1,0.9,1.9,2,1.7l45.4-9.7c1-0.2,1.5-1.3,1.1-2.2
			C68.6,41.3,59.9,35.3,49.9,35.3z"/>
		<path fill="#915037" d="M29.3,59.6c-0.6,0-1.1-0.5-1.1-1.1v-0.6c0-0.6,0.5-1.1,1.1-1.1c0.6,0,1.1,0.5,1.1,1.1v0.6
			C30.4,59.1,29.9,59.6,29.3,59.6z"/>
		<path fill="#915037" d="M31.3,54.4c-0.6,0-1.1-0.4-1.1-1.1c0-0.5,0.1-1,0.5-1.4c0.4-0.4,1.1-0.5,1.5-0.1s0.5,1.1,0.1,1.5
			C32.3,53.9,31.9,54.4,31.3,54.4L31.3,54.4z"/>
		<path fill="#915037" d="M35,48.7c-0.3,0-0.5-0.1-0.7-0.3c-0.4-0.4-0.5-1.1-0.1-1.5l0.9-1.1c0.4-0.4,1.1-0.5,1.5-0.1
			c0.4,0.4,0.5,1.1,0.1,1.5l-0.9,1.1C35.6,48.5,35.3,48.7,35,48.7z"/>
		<path fill="#915037" d="M35.9,58.1c-0.1,0-0.1,0-0.2,0c-0.6-0.1-0.9-0.6-0.8-1.3l0.1-0.6c0.1-0.6,0.6-0.9,1.3-0.8
			c0.6,0.1,0.9,0.6,0.8,1.3l-0.1,0.6C36.8,57.9,36.3,58.1,35.9,58.1z"/>
		<path fill="#915037" d="M38.2,53.1c-0.1,0-0.4-0.1-0.5-0.1c-0.5-0.3-0.7-0.9-0.5-1.4l0.1-0.2c0.3-0.5,0.9-0.7,1.4-0.5
			c0.5,0.3,0.7,0.9,0.5,1.4l-0.1,0.2C38.9,52.9,38.5,53.1,38.2,53.1z"/>
		<path fill="#915037" d="M41.6,44.5c-0.3,0-0.5-0.1-0.7-0.3c-0.4-0.4-0.4-1.1,0-1.5l1.3-1.3c0.4-0.4,1.1-0.4,1.5,0
			c0.4,0.4,0.4,1.1,0,1.5l-1.3,1.3C42.2,44.4,41.9,44.5,41.6,44.5z"/>
		<path fill="#915037" d="M43,55.5c-0.5,0-1-0.4-1.1-0.9c-0.1-0.5,0.3-1,0.8-1.1c0.3-0.4,0.8-0.6,1.3-0.4c0.6,0.2,0.8,0.8,0.6,1.3
			C44.3,55,43.7,55.5,43,55.5C43,55.5,43,55.5,43,55.5z"/>
		<path fill="#915037" d="M45,48.3c-0.1,0-0.1,0-0.2,0c-0.6-0.1-0.9-0.7-0.8-1.3l0.2-1.1c0.1-0.6,0.7-0.9,1.3-0.8
			c0.6,0.1,0.9,0.7,0.8,1.3l-0.2,1.1C45.9,48,45.5,48.3,45,48.3z"/>
		<path fill="#915037" d="M50,41.6c-0.2,0-0.4-0.1-0.6-0.2c-0.5-0.4-0.6-1-0.3-1.5c0.4-0.5,0.9-0.9,1.5-1.1c0.6-0.2,1.1,0.1,1.3,0.7
			c0.1,0.6-0.1,1.1-0.7,1.3c-0.1,0.1-0.3,0.1-0.4,0.3C50.6,41.4,50.3,41.6,50,41.6z"/>
		<path fill="#915037" d="M49.1,54.4c-0.3,0-0.5-0.1-0.7-0.3c-0.4-0.4-0.4-1.1,0-1.5c0.5-0.5,1.1-0.8,1.8-0.9
			c0.6-0.1,1.1,0.3,1.3,0.8c0.1,0.6-0.3,1.1-0.8,1.3c-0.3,0.1-0.5,0.2-0.6,0.4C49.7,54.3,49.4,54.4,49.1,54.4z"/>
		<path fill="#915037" d="M50.8,47.5c-0.1,0-0.2,0-0.4-0.1c-0.6-0.2-0.8-0.8-0.6-1.3c0.2-0.8,0.9-1.3,1.7-1.4
			c0.6-0.1,1.1,0.4,1.1,0.9c0.1,0.6-0.4,1.1-0.9,1.1C51.6,47.2,51.2,47.5,50.8,47.5z"/>
		<path fill="#915037" d="M56.3,41.2L56.3,41.2L55,41.1c-0.6-0.1-1-0.6-0.9-1.1s0.6-1,1.1-0.9l1.3,0.1c0.6,0.1,1,0.6,0.9,1.1
			C57.3,40.8,56.8,41.2,56.3,41.2z"/>
		<path fill="#915037" d="M57,48.3c-0.6,0-1.1-0.5-1.1-1.1v-0.6c0-0.6,0.5-1.1,1.1-1.1s1.1,0.5,1.1,1.1v0.6
			C58,47.8,57.6,48.3,57,48.3z"/>
		<path fill="#915037" d="M56.5,53.1c-0.5,0-0.9-0.1-1.3-0.5c-0.4-0.4-0.5-1.1-0.1-1.5s1-0.5,1.5-0.1c0.6,0,1.1,0.4,1.1,1
			c0.1,0.6-0.4,1.1-1,1.1C56.5,53.1,56.5,53.1,56.5,53.1z"/>
		<path fill="#915037" d="M60.7,42.7c-0.1,0-0.1,0-0.3,0l-0.5-0.1c-0.6-0.1-0.9-0.7-0.8-1.3c0.1-0.6,0.7-0.9,1.3-0.8l0.5,0.1
			c0.6,0.1,0.9,0.7,0.8,1.3C61.6,42.4,61.2,42.7,60.7,42.7z"/>
		<path fill="#915037" d="M62.4,51.5h-0.4c-0.6,0-1.1-0.5-1.1-1.1c0-0.6,0.5-1.1,1.1-1.1h0.4c0.6,0,1.1,0.5,1.1,1.1
			C63.5,51.1,63,51.5,62.4,51.5z"/>
		<path fill="#915037" d="M65.4,47.2c-0.4,0-0.8-0.2-0.9-0.6c-0.6-0.1-1-0.6-0.9-1.1c0.1-0.6,0.6-1,1.1-0.9c0.7,0.1,1.3,0.5,1.6,1.1
			c0.3,0.5,0.1,1.1-0.5,1.4C65.7,47.2,65.5,47.2,65.4,47.2z"/>
	</g>
</g>
</svg>
