<?xml version="1.0" encoding="utf-8"?>
<!-- Generator: Adobe Illustrator 18.1.1, SVG Export Plug-In . SVG Version: 6.00 Build 0)  -->
<svg version="1.1" id="Layer_1" xmlns="http://www.w3.org/2000/svg" xmlns:xlink="http://www.w3.org/1999/xlink" x="0px" y="0px"
	 viewBox="0 0 90 90" enable-background="new 0 0 90 90" xml:space="preserve">
<g>
	<circle fill="#EF4538" cx="45" cy="45" r="44.6"/>
	<g>
		<path fill="#22A79C" d="M63.1,57.3c-2.1,0-4-0.5-5.3-1.2c-0.7-0.4-1.6-0.4-2.3,0c-1.3,0.8-3.2,1.2-5.3,1.2c-1.8,0-3.4-0.4-4.7-0.9
			c-0.6-0.3-1.2-0.3-1.8,0c-1.3,0.6-3,0.9-4.7,0.9c-2.1,0-4-0.5-5.3-1.2c-0.7-0.4-1.6-0.4-2.3,0c-1.3,0.8-3.2,1.2-5.3,1.2h-0.1
			c1.6,8.9,9.4,15.6,18.7,15.6s17.1-6.8,18.7-15.6C63.1,57.3,63.1,57.3,63.1,57.3z"/>
		<path fill="#FEEDEF" d="M65.5,49.5c-0.9-0.1-1.7-0.9-1.8-1.9c-1.5-11.3-9.6-20-19.3-20c-9.7,0-17.8,8.6-19.3,20
			c-0.1,1-0.8,1.7-1.8,1.9c-3,0.6-5.1,2-5.1,3.8c0,2.2,3.3,4,7.5,4c2.1,0,4-0.5,5.3-1.2c0.7-0.4,1.6-0.4,2.3,0
			c1.3,0.8,3.2,1.2,5.3,1.2c1.8,0,3.4-0.4,4.7-0.9c0.6-0.3,1.2-0.3,1.8,0c1.3,0.6,3,0.9,4.7,0.9c2.1,0,4-0.5,5.3-1.2
			c0.7-0.4,1.6-0.4,2.3,0c1.3,0.8,3.2,1.2,5.3,1.2c4.1,0,7.5-1.8,7.5-4C70.5,51.5,68.4,50.1,65.5,49.5z"/>
		<path fill="#753A29" d="M44.4,27.6c0.7,0,1.4,0.1,2.1,0.1c0.6-2.8,2.4-7,7.3-7.1c1,0,1.8-0.8,1.8-1.8S54.7,17,53.7,17
			c-7.1,0.1-10.1,6-10.9,10.5C43.4,27.6,43.9,27.6,44.4,27.6z"/>
	</g>
</g>
</svg>
