<?xml version="1.0" encoding="utf-8"?>
<!-- Generator: Adobe Illustrator 18.1.1, SVG Export Plug-In . SVG Version: 6.00 Build 0)  -->
<svg version="1.1" id="Layer_1" xmlns="http://www.w3.org/2000/svg" xmlns:xlink="http://www.w3.org/1999/xlink" x="0px" y="0px"
	 viewBox="0 0 90 90" enable-background="new 0 0 90 90" xml:space="preserve">
<g>
	<circle fill="#41B655" cx="45" cy="45" r="44.6"/>
	<g>
		<path fill="#915037" d="M50.1,22.7c-8.9,0-17,2.4-22.8,6.2V57c5.8,3.9,13.9,6.2,22.8,6.2s17-2.4,22.8-6.2V29
			C67.1,25.1,59.1,22.7,50.1,22.7z"/>
		<path fill="#753A29" d="M67.5,52.8v-4.6c2-0.2,3.7-0.4,5.4-0.7v-1.8c-1.7,0.3-3.5,0.5-5.4,0.7v-6.8c2,0.2,3.7,0.4,5.4,0.7v-1.8
			c-1.7-0.3-3.5-0.5-5.4-0.7v-4.6c2,0.5,3.8,1.1,5.4,1.8V33c-1.7-0.6-3.5-1.2-5.4-1.7v-5.3c-0.6-0.3-1.2-0.5-1.8-0.7V31
			c-4.7-1-10.1-1.5-15.5-1.5c-5.6,0-10.8,0.6-15.5,1.5v-5.6c-0.6,0.2-1.2,0.5-1.8,0.7v5.3c-1.9,0.5-3.7,1.1-5.4,1.7v1.9
			c1.7-0.6,3.5-1.3,5.4-1.8v4.6c-2,0.2-3.7,0.4-5.4,0.7v1.8c1.7-0.3,3.5-0.5,5.4-0.7v6.8c-2-0.2-3.7-0.4-5.4-0.7v1.8
			c1.7,0.3,3.5,0.5,5.4,0.7v4.6c-2-0.5-3.7-1.1-5.4-1.8V53c1.7,0.6,3.5,1.2,5.4,1.7V60c0.6,0.3,1.2,0.5,1.8,0.7v-5.6
			c4.7,1,10.1,1.5,15.5,1.5c5.6,0,10.8-0.6,15.5-1.5v5.6c0.6-0.2,1.2-0.5,1.8-0.7v-5.3c1.9-0.5,3.7-1.1,5.4-1.7v-1.9
			C71.2,51.7,69.4,52.3,67.5,52.8z M65.7,53.2c-4.7,1.1-10,1.5-15.5,1.5s-10.9-0.6-15.5-1.5v-4.9c4.7,0.4,10.1,0.6,15.5,0.6
			c5.6,0,10.8-0.2,15.5-0.6V53.2z M65.7,46.5c-4.7,0.4-10,0.6-15.5,0.6S39.2,47,34.6,46.5v-7.1c4.7-0.4,10-0.6,15.5-0.6
			S61,39,65.7,39.4V46.5z M65.7,37.7c-4.7-0.4-10.1-0.6-15.5-0.6c-5.6,0-10.8,0.2-15.5,0.6v-4.9c4.7-1.1,10-1.5,15.5-1.5
			s10.9,0.6,15.5,1.5V37.7z"/>
		<rect x="25.5" y="48.9" fill="#FFC717" width="1.8" height="2.7"/>
		<path fill="#FFC717" d="M21.2,48.9h-3c-0.6,0-1.1,0.5-1.1,1.1v3.5h2.7v-0.8c0-0.6,0.5-1.1,1.1-1.1h0.4L21.2,48.9L21.2,48.9z"/>
		<rect x="21.2" y="48.1" fill="#92513B" width="4.4" height="4.3"/>
		<polygon fill="#92513B" points="25.5,44.9 24,44.9 24,44.9 22.8,44.9 22.8,44.9 21.2,44.9 21.2,46.2 22.8,46.2 22.8,48.1 24,48.1 
			24,46.2 25.5,46.2 		"/>
		<path fill="#5D5E61" d="M50.1,63.3c-6.9,0-13.3-1.4-18.4-3.8v7.8h36.9v-7.9C63.4,61.8,57,63.3,50.1,63.3z"/>
	</g>
</g>
</svg>
