<?xml version="1.0" encoding="utf-8"?>
<!-- Generator: Adobe Illustrator 18.1.1, SVG Export Plug-In . SVG Version: 6.00 Build 0)  -->
<svg version="1.1" id="Layer_1" xmlns="http://www.w3.org/2000/svg" xmlns:xlink="http://www.w3.org/1999/xlink" x="0px" y="0px"
	 viewBox="0 0 90 90" enable-background="new 0 0 90 90" xml:space="preserve">
<g>
	<circle fill="#FFC717" cx="45" cy="45" r="44.6"/>
	<g>
		<path fill="#92513B" d="M22.4,67h45.3c-1.8-14.7-2-29.4,0-44.1H22.4C24.4,37.7,24.1,52.3,22.4,67z"/>
		<rect x="22.4" y="17.1" fill="#753A29" width="45.3" height="5.9"/>
		<rect x="22.4" y="67" fill="#753A29" width="45.3" height="5.9"/>
		<rect x="25.8" y="17.1" fill="#915037" width="1.7" height="5.9"/>
		<rect x="31" y="17.1" fill="#915037" width="1.7" height="5.9"/>
		<rect x="36.3" y="17.1" fill="#915037" width="1.7" height="5.9"/>
		<rect x="41.6" y="17.1" fill="#915037" width="1.7" height="5.9"/>
		<rect x="46.8" y="17.1" fill="#915037" width="1.7" height="5.9"/>
		<rect x="52" y="17.1" fill="#915037" width="1.7" height="5.9"/>
		<rect x="57.3" y="17.1" fill="#915037" width="1.7" height="5.9"/>
		<rect x="62.6" y="17.1" fill="#915037" width="1.7" height="5.9"/>
		<rect x="25.8" y="67" fill="#915037" width="1.7" height="5.9"/>
		<rect x="31" y="67" fill="#915037" width="1.7" height="5.9"/>
		<rect x="36.3" y="67" fill="#915037" width="1.7" height="5.9"/>
		<rect x="41.6" y="67" fill="#915037" width="1.7" height="5.9"/>
		<rect x="46.8" y="67" fill="#915037" width="1.7" height="5.9"/>
		<rect x="52" y="67" fill="#915037" width="1.7" height="5.9"/>
		<rect x="57.3" y="67" fill="#915037" width="1.7" height="5.9"/>
		<rect x="62.6" y="67" fill="#915037" width="1.7" height="5.9"/>
		<ellipse fill="#E3E6E8" cx="55.3" cy="42.5" rx="2.5" ry="3.1"/>
		<ellipse fill="#E3E6E8" cx="49" cy="36.2" rx="2.5" ry="3.1"/>
		<ellipse fill="#E3E6E8" cx="34.7" cy="42.5" rx="2.5" ry="3.1"/>
		<ellipse fill="#E3E6E8" cx="41" cy="36.2" rx="2.5" ry="3.1"/>
		<ellipse fill="#E3E6E8" cx="55.3" cy="42.5" rx="2.5" ry="3.1"/>
		<ellipse fill="#E3E6E8" cx="49" cy="36.2" rx="2.5" ry="3.1"/>
		<ellipse fill="#E3E6E8" cx="34.7" cy="42.5" rx="2.5" ry="3.1"/>
		<ellipse fill="#E3E6E8" cx="41" cy="36.2" rx="2.5" ry="3.1"/>
		<path fill="#E3E6E8" d="M53.4,54.6c0,4.6-3.7,0.8-8.4,0.8s-8.4,3.9-8.4-0.8s3.7-11.3,8.4-11.3S53.4,50,53.4,54.6z"/>
	</g>
</g>
</svg>
