<?xml version="1.0" encoding="utf-8"?>
<!-- Generator: Adobe Illustrator 18.1.1, SVG Export Plug-In . SVG Version: 6.00 Build 0)  -->
<svg version="1.1" id="Layer_1" xmlns="http://www.w3.org/2000/svg" xmlns:xlink="http://www.w3.org/1999/xlink" x="0px" y="0px"
	 viewBox="0 0 90 90" enable-background="new 0 0 90 90" xml:space="preserve">
<g>
	<circle fill="#FFC717" cx="45" cy="45" r="44.6"/>
	<g>
		<path fill="#92513B" d="M72.9,46.8C72.9,57,60.4,61.6,45,61.6S17.1,57,17.1,46.8S29.6,28.4,45,28.4S72.9,36.6,72.9,46.8z"/>
		<path fill="#FEEDEF" d="M39.7,50.6c-0.1,0.6,0.2,1.1,0.8,1.3c0.1,0,0.1,0,0.2,0c0.5,0,0.9-0.4,1-0.8c4-16.5,19.5-18.4,20.2-18.4
			c0.2,0,0.4-0.1,0.6-0.2c-1-0.5-2-1-3.1-1.4C54.4,32.3,43,36.5,39.7,50.6z"/>
		<path fill="#FEEDEF" d="M27.2,46.9c-0.1,0.6,0.2,1.1,0.8,1.3c0.1,0,0.1,0,0.2,0c0.5,0,0.9-0.4,1-0.8c4-16.5,19.5-18.3,20.2-18.4
			c0.2,0,0.4-0.1,0.6-0.3c-1.6-0.2-3.3-0.3-5-0.3c-0.6,0-1.1,0-1.6,0C37.8,30.6,30,35.5,27.2,46.9z"/>
		<path fill="#F4B1A8" d="M48.3,51c0.1,0.5,0.6,0.8,1,0.8c0.1,0,0.1,0,0.2,0c0.6-0.1,0.9-0.7,0.8-1.3c-3.4-14-14.7-18.3-19.6-19.5
			c-1.1,0.4-2.1,0.9-3.1,1.4c0.1,0.1,0.4,0.2,0.6,0.2C28.3,32.7,44.3,34.5,48.3,51z"/>
		<path fill="#F4B1A8" d="M40.6,29c0.6,0.1,16.2,1.8,20.2,18.4c0.1,0.5,0.6,0.8,1,0.8c0.1,0,0.1,0,0.2,0c0.6-0.1,0.9-0.7,0.8-1.3
			C60,35.5,52.1,30.5,46.5,28.4c-0.6,0-1.1,0-1.6,0c-1.7,0-3.4,0.1-5,0.3C40.1,28.8,40.4,29,40.6,29z"/>
	</g>
</g>
</svg>
