<?xml version="1.0" encoding="utf-8"?>
<!-- Generator: Adobe Illustrator 18.1.1, SVG Export Plug-In . SVG Version: 6.00 Build 0)  -->
<svg version="1.1" id="Layer_1" xmlns="http://www.w3.org/2000/svg" xmlns:xlink="http://www.w3.org/1999/xlink" x="0px" y="0px"
	 viewBox="0 0 90 90" enable-background="new 0 0 90 90" xml:space="preserve">
<g>
	<circle fill="#388CCB" cx="45" cy="45" r="44.6"/>
	<g>
		<path fill="#E3E6E8" d="M66.4,73h-39c-1,0-1.8-0.8-1.8-1.8V24.3h42.6v46.9C68.3,72.2,67.5,73,66.4,73z"/>
		<path fill="#F4B1A8" d="M72.6,32l-4.2-7.7H25.7l-8.4,15.5c-0.4,0.6-0.1,1.4,0.6,1.7l0,0c0.5,0.1,1,0.1,1.5,0.1
			c1-0.2,2-0.6,2.8-1.2c1.1-0.8,2.4-2,3.7-1.5c0.7,0.2,1.1,0.8,1.6,1.3c1.4,1.4,3.7,1.9,5.6,1.2c1.4-0.5,2.5-1.5,3.7-2.3
			c1.2-0.8,2.7-1.5,4.1-1.1c1.3,0.4,2.1,1.4,3.1,2.3c1,0.8,2.3,1.5,3.5,1.1c1.1-0.5,1.5-1.7,2-2.6c1.2-1.9,3.6-3,5.8-2.7
			c2,0.2,3.7,1.3,5.4,2.1c1.8,0.8,3.9,1.3,5.6,0.4c0.9-0.5,1.5-1.3,2.5-1.8c0.4-0.1,0.7-0.2,1.1-0.3C72.2,36.2,73.6,34,72.6,32z"/>
		<path fill="#5D5E61" d="M66.5,17.2h-39c-1,0-1.8,0.8-1.8,1.8v5.3h42.6V19C68.3,18,67.5,17.2,66.5,17.2z"/>
		<polygon fill="#FFC717" points="42.3,62.6 39,57.2 42.3,51.7 48.8,51.7 52,57.2 48.8,62.6 		"/>
		<polygon fill="#FFC717" points="54.6,56 51.3,50.6 54.6,45.1 61,45.1 64.3,50.6 61,56 		"/>
		<polygon fill="#FFC717" points="54.6,69.5 51.3,64 54.6,58.6 61,58.6 64.3,64 61,69.5 		"/>
	</g>
</g>
</svg>
