<?xml version="1.0" encoding="utf-8"?>
<!-- Generator: Adobe Illustrator 18.1.1, SVG Export Plug-In . SVG Version: 6.00 Build 0)  -->
<svg version="1.1" id="Layer_1" xmlns="http://www.w3.org/2000/svg" xmlns:xlink="http://www.w3.org/1999/xlink" x="0px" y="0px"
	 viewBox="0 0 90 90" enable-background="new 0 0 90 90" xml:space="preserve">
<g>
	<circle fill="#FFC717" cx="45" cy="45" r="44.6"/>
	<g>
		<path fill="#ADB7BD" d="M33.5,43.2c-3.5-4.4-5.3-8.7-4.1-9.7c-4.2,3.3-4.8,9.6-1.3,14c3.5,4.4,9.7,5.2,13.9,1.9
			C40.8,50.3,37,47.5,33.5,43.2z"/>
		<g>
			
				<rect x="42" y="27.4" transform="matrix(-0.6227 -0.7825 0.7825 -0.6227 42.6668 90.0948)" fill="#5D5E61" width="2.1" height="14.7"/>
		</g>
		<path fill="#753A29" d="M49.9,31.6l-2.3-2.9l12.9-10.2c0.8-0.6,2-0.5,2.6,0.3l0,0c0.6,0.8,0.5,2-0.3,2.6L49.9,31.6z"/>
		<path fill="#FACDD4" d="M17.1,60.3v3l0,0c2.2,0,4.3,0.8,5.8,2.3l4.3,4c1.6,1.5,3.7,2.3,5.8,2.3h23.8c2.2,0,4.3-0.8,5.8-2.3l4.3-4
			c1.6-1.5,3.7-2.3,5.8-2.3l0,0v-3L17.1,60.3L17.1,60.3z"/>
		
			<ellipse transform="matrix(0.7824 -0.6228 0.6228 0.7824 -18.0222 31.2156)" fill="#E3E6E8" cx="35.7" cy="41.4" rx="2.8" ry="10.1"/>
		<path fill="#915037" d="M43.5,53.6c0.4,2,0.4,4,0.6,6c0,0.2,0.1,0.4,0.1,0.6l0,0H53c-0.7-2.6-1.9-5-3.2-7.4
			c-1.2-2.3-3.2-4.2-5.7-5.1c-3-1.1-5-0.1-6.9-0.6l3.2,2.1C41.8,50.1,43,51.3,43.5,53.6z"/>
	</g>
</g>
</svg>
