<?xml version="1.0" encoding="utf-8"?>
<!-- Generator: Adobe Illustrator 18.1.1, SVG Export Plug-In . SVG Version: 6.00 Build 0)  -->
<svg version="1.1" id="Layer_1" xmlns="http://www.w3.org/2000/svg" xmlns:xlink="http://www.w3.org/1999/xlink" x="0px" y="0px"
	 viewBox="0 0 90 90" enable-background="new 0 0 90 90" xml:space="preserve">
<g>
	<circle fill="#EF4538" cx="45" cy="45" r="44.6"/>
	<g>
		<path fill="#753A29" d="M56.1,39.4l-5-5l16.4-16.3c1.4-1.4,3.6-1.4,5,0l0,0c1.4,1.4,1.4,3.6,0,5L56.1,39.4z"/>
		<circle fill="#E3E6E8" cx="33" cy="57.5" r="15.3"/>
		<path fill="#5D5E61" d="M43.9,46.7c0.5,0.5,0.9,1,1.3,1.5l9.8-9.8l-2.9-2.9l-9.8,9.8C42.9,45.8,43.5,46.2,43.9,46.7z"/>
		<circle fill="#B2BBBF" cx="33.8" cy="46.9" r="0.9"/>
		<circle fill="#B2BBBF" cx="37.1" cy="50.2" r="0.9"/>
		<circle fill="#B2BBBF" cx="40.4" cy="53.5" r="0.9"/>
		<circle fill="#B2BBBF" cx="43.7" cy="56.8" r="0.9"/>
		<circle fill="#B2BBBF" cx="29.5" cy="47.9" r="0.9"/>
		<circle fill="#B2BBBF" cx="32.8" cy="51.2" r="0.9"/>
		<circle fill="#B2BBBF" cx="36.1" cy="54.5" r="0.9"/>
		<circle fill="#B2BBBF" cx="39.4" cy="57.8" r="0.9"/>
		<circle fill="#B2BBBF" cx="42.8" cy="61.1" r="0.9"/>
		<circle fill="#B2BBBF" cx="24.8" cy="49.3" r="0.9"/>
		<circle fill="#B2BBBF" cx="28.1" cy="52.6" r="0.9"/>
		<circle fill="#B2BBBF" cx="31.4" cy="55.9" r="0.9"/>
		<circle fill="#B2BBBF" cx="34.7" cy="59.2" r="0.9"/>
		<circle fill="#B2BBBF" cx="38" cy="62.5" r="0.9"/>
		<circle fill="#B2BBBF" cx="41.3" cy="65.8" r="0.9"/>
		<circle fill="#B2BBBF" cx="23.8" cy="53.6" r="0.9"/>
		<circle fill="#B2BBBF" cx="27.1" cy="56.9" r="0.9"/>
		<circle fill="#B2BBBF" cx="30.4" cy="60.2" r="0.9"/>
		<circle fill="#B2BBBF" cx="33.7" cy="63.5" r="0.9"/>
		<circle fill="#B2BBBF" cx="37.1" cy="66.8" r="0.9"/>
		<circle fill="#B2BBBF" cx="22.4" cy="58.3" r="0.9"/>
		<circle fill="#B2BBBF" cx="25.7" cy="61.6" r="0.9"/>
		<circle fill="#B2BBBF" cx="29" cy="64.9" r="0.9"/>
		<circle fill="#B2BBBF" cx="32.3" cy="68.2" r="0.9"/>
		<circle fill="#B2BBBF" cx="21.4" cy="62.6" r="0.9"/>
		<circle fill="#B2BBBF" cx="24.7" cy="65.9" r="0.9"/>
		<circle fill="#B2BBBF" cx="28" cy="69.2" r="0.9"/>
		<circle fill="#B2BBBF" cx="38.1" cy="45.9" r="0.9"/>
		<circle fill="#B2BBBF" cx="41.4" cy="49.2" r="0.9"/>
		<circle fill="#B2BBBF" cx="44.7" cy="52.5" r="0.9"/>
	</g>
</g>
</svg>
