<?xml version="1.0" encoding="utf-8"?>
<!-- Generator: Adobe Illustrator 18.1.1, SVG Export Plug-In . SVG Version: 6.00 Build 0)  -->
<svg version="1.1" id="Layer_1" xmlns="http://www.w3.org/2000/svg" xmlns:xlink="http://www.w3.org/1999/xlink" x="0px" y="0px"
	 viewBox="0 0 90 90" enable-background="new 0 0 90 90" xml:space="preserve">
<g>
	<circle fill="#FFC717" cx="45" cy="45" r="44.6"/>
	<g>
		<ellipse fill="#D62E2F" cx="45.6" cy="38" rx="27.9" ry="13.9"/>
		<path fill="#E67374" d="M45.6,52c-15.4,0-27.9-6.3-27.9-13.9V52c0,7.7,12.5,13.9,27.9,13.9S73.5,59.6,73.5,52V38
			C73.5,45.8,61,52,45.6,52z"/>
		<path fill="#E3E6E8" d="M46.8,36.4c1.3-6.1,10.8-8.2,16.8-8.9c-1.3-0.6-2.7-1.1-4.2-1.5c-8.9,1.7-14,5.3-14.8,10.5
			c-3.5-2-5.6-4.1-5.8-6.2c-0.3-2.4,1.8-4.6,3.7-6c-1.1,0.1-2.3,0.1-3.4,0.3c-1.8,2-2.5,4-2.3,6c0.3,2.3,1.8,4.4,4.7,6.5
			c-11.6-0.7-16.1-4.6-17.9-7.5c-0.6,0.4-1.2,0.8-1.7,1.2c2,3.2,7,7.5,18.9,8.3c-9.1,3.2-17.7,1.8-23,0.4c0.1,0.8,0.4,1.6,0.8,2.4
			c2.9,0.7,6.5,1.3,10.5,1.3c4.7,0,9.9-0.8,15.3-3.2c-1.3,6.1-10.8,8.2-16.8,8.9c1.3,0.6,2.7,1.1,4.2,1.5c8.9-1.7,14-5.3,14.8-10.5
			c3.6,2,5.6,4.1,5.8,6.1c0.3,2.4-1.8,4.6-3.7,6c1.1-0.1,2.2-0.1,3.4-0.3c1.8-2,2.5-4,2.3-6c-0.3-2.3-1.8-4.4-4.7-6.5
			c11.6,0.7,16.1,4.6,17.9,7.5c0.6-0.4,1.2-0.8,1.7-1.2c-2.1-3.2-7-7.5-19-8.2c9.1-3.2,17.7-1.8,23-0.4c-0.1-0.8-0.4-1.6-0.8-2.4
			C66.3,32.9,56.7,31.9,46.8,36.4z"/>
	</g>
</g>
</svg>
