<?xml version="1.0" encoding="utf-8"?>
<!-- Generator: Adobe Illustrator 18.1.1, SVG Export Plug-In . SVG Version: 6.00 Build 0)  -->
<svg version="1.1" id="Layer_1" xmlns="http://www.w3.org/2000/svg" xmlns:xlink="http://www.w3.org/1999/xlink" x="0px" y="0px"
	 viewBox="0 0 128 128" enable-background="new 0 0 128 128" xml:space="preserve">
<g>
	<circle fill="#388CCB" cx="64" cy="64" r="63.5"/>
	<g>
		<path fill="#41B655" d="M104.4,34.7c-0.1-0.8-0.9-1.4-1.7-1.2c-9.4,1.5-17.7,12.4-19.6,15c0.7,0.8,1.3,1.6,1.9,2.5
			c0.1-0.1,0.2-0.2,0.3-0.3c0.1-0.1,8.8-12.8,17.9-14.2C104,36.2,104.5,35.5,104.4,34.7z"/>
		<path fill="#41B655" d="M104,29.1c-0.6-0.6-1.5-0.7-2.1-0.1c-1,0.9-2.3,1.4-3.7,1.9c-0.6,0.2-1.2,0.5-1.8,0.7
			c-3,1.3-5.5,3.4-7.6,5.3c-2.9,2.6-5.8,5.4-8.5,8.2c-0.1,0.1-0.1,0.1-0.1,0.2c0.4,0.4,0.9,0.8,1.3,1.2c0.3,0.3,0.5,0.5,0.8,0.8
			c0.1-0.1,0.1-0.1,0.2-0.2c2.7-2.8,5.5-5.5,8.3-8c2-1.7,4.3-3.7,6.9-4.8c0.5-0.2,1.1-0.4,1.6-0.7c1.6-0.6,3.2-1.2,4.6-2.5
			C104.5,30.7,104.6,29.7,104,29.1z"/>
		<path fill="#41B655" d="M92.1,23.5c-0.8-0.1-1.6,0.5-1.7,1.3C89.3,33.3,78.7,41.7,77,42.9c0.8,0.5,1.7,1.2,2.5,1.8
			c3.1-2.5,12.8-10.7,13.9-19.6C93.5,24.3,92.9,23.6,92.1,23.5z"/>
		<path fill="#D62E2F" d="M88.3,60.3c1-1-1.1-8.1-6.7-13.7c-5.7-5.7-12.8-7.7-13.7-6.7C67.7,39.9,24,101,24,101
			c-1.5,2,1.1,4.6,3.1,3.1C27.1,104.1,88.2,60.4,88.3,60.3z"/>
		<path fill="#FCD83A" d="M63,57.8c0.2,0.1,0.3,0.1,0.5,0.1c0.6,0,1.2-0.4,1.4-1c0.3-0.8-0.2-1.6-0.9-1.9c-3.3-1.1-4.2-2.7-4.4-3.5
			c-0.6,0.9-1.3,1.8-1.9,2.7C58.4,55.5,60.1,56.8,63,57.8z"/>
		<path fill="#FCD83A" d="M49.5,75.9C49.7,76,49.8,76,50,76c0.6,0,1.2-0.4,1.4-1c0.3-0.8-0.2-1.6-0.9-1.9c-2.8-0.9-3.9-2.2-4.3-3.1
			c-0.6,0.9-1.2,1.7-1.9,2.6C45.3,73.8,46.9,75,49.5,75.9z"/>
		<path fill="#FCD83A" d="M36,93.9c0.2,0.1,0.3,0.1,0.5,0.1c0.6,0,1.2-0.4,1.4-1c0.3-0.8-0.2-1.6-0.9-1.9c-2.2-0.8-3.4-1.8-4-2.6
			c-0.6,0.9-1.2,1.7-1.8,2.5C32.1,92.1,33.6,93.1,36,93.9z"/>
		<path fill="#FCD83A" d="M81,59.6c-0.3-0.8-1.1-1.2-1.9-0.9c-0.8,0.3-1.2,1.1-0.9,1.9c0.8,2.4,1.9,3.9,2.9,4.8
			c0.9-0.6,1.7-1.2,2.5-1.8C82.8,63.1,81.8,61.9,81,59.6z"/>
		<path fill="#FCD83A" d="M63.5,71.6c-0.3-0.8-1.1-1.2-1.9-0.9c-0.8,0.3-1.2,1.1-0.9,1.9c0.9,2.6,2.1,4.2,3.3,5.2
			c0.9-0.6,1.7-1.2,2.6-1.8C65.7,75.4,64.4,74.4,63.5,71.6z"/>
		<path fill="#FCD83A" d="M44.8,84.4c-0.3-0.8-1.1-1.2-1.9-0.9c-0.8,0.3-1.2,1.1-0.9,1.9c1,2.9,2.4,4.6,3.7,5.5
			c0.9-0.6,1.8-1.3,2.7-1.9C47.6,88.6,45.9,87.8,44.8,84.4z"/>
	</g>
</g>
</svg>
