<?xml version="1.0" encoding="utf-8"?>
<!-- Generator: Adobe Illustrator 18.1.1, SVG Export Plug-In . SVG Version: 6.00 Build 0)  -->
<svg version="1.1" id="Layer_1" xmlns="http://www.w3.org/2000/svg" xmlns:xlink="http://www.w3.org/1999/xlink" x="0px" y="0px"
	 viewBox="0 0 128 128" enable-background="new 0 0 128 128" xml:space="preserve">
<g>
	<circle fill="#41B655" cx="64" cy="64" r="63.5"/>
	<g>
		<path fill="#FACDD4" d="M81.4,47.2c0-6-4.9-11.1-11.7-13v-1.7H58.3v1.7c-6.8,1.9-11.7,7-11.7,13c0,1.2,0.2,2.4,0.6,3.5
			c3,9,3.7,18.6,2.5,28l-1.6,13.1c-0.8,6.3,4.1,11.9,10.5,11.9h10.8c6.4,0,11.3-5.6,10.5-11.9l-1.6-13.1c-1.2-9.4-0.5-19,2.5-28
			C81.2,49.6,81.4,48.4,81.4,47.2z"/>
		<rect x="56.3" y="24.3" fill="#5D5E61" width="15.5" height="8.2"/>
	</g>
</g>
</svg>
