<?xml version="1.0" encoding="utf-8"?>
<!-- Generator: Adobe Illustrator 18.1.1, SVG Export Plug-In . SVG Version: 6.00 Build 0)  -->
<svg version="1.1" id="Layer_1" xmlns="http://www.w3.org/2000/svg" xmlns:xlink="http://www.w3.org/1999/xlink" x="0px" y="0px"
	 viewBox="0 0 128 128" enable-background="new 0 0 128 128" xml:space="preserve">
<g>
	<circle fill="#EF4538" cx="64" cy="64" r="63.5"/>
	<g>
		<path fill="#E3E6E8" d="M98.9,97.3c3.1-1.9,4.6-12.4-0.6-21.1C93.1,67.6,83,64.1,80,66c-24.1,9.9-41.6,10.3-51.6,9.1
			c-3.3-0.4-5.4,3.6-3.1,6.1C36.9,93.6,62.9,114,98.5,97.5C98.6,97.4,98.8,97.3,98.9,97.3z"/>
		<path fill="#41B655" d="M94.8,55.1c0.8-3.5-5.5-12.1-15.2-14.5c-9.8-2.4-19.3,2.3-20.1,5.9C49.3,70.5,37.2,83.3,29.3,89.6
			c-2.6,2.1-1.3,6.4,2.1,6.5c16.9,0.6,49.7-3.5,63.2-40.5C94.7,55.4,94.8,55.3,94.8,55.1z"/>
		<path fill="#914F39" d="M77.7,49.6c-0.2,0-0.4,0-0.6-0.1c-1-0.3-1.6-1.4-1.3-2.4c0.3-1,7.8-23.9,26.1-22.7c1.1,0.1,1.9,1,1.8,2.1
			c-0.1,1.1-1,1.9-2.1,1.8c-0.4,0-0.7,0-1.1,0c-14.5,0-21,19.8-21,20C79.3,49,78.5,49.6,77.7,49.6z"/>
	</g>
</g>
</svg>
