<?xml version="1.0" encoding="utf-8"?>
<!-- Generator: Adobe Illustrator 18.1.1, SVG Export Plug-In . SVG Version: 6.00 Build 0)  -->
<svg version="1.1" id="Layer_1" xmlns="http://www.w3.org/2000/svg" xmlns:xlink="http://www.w3.org/1999/xlink" x="0px" y="0px"
	 viewBox="0 0 128 128" enable-background="new 0 0 128 128" xml:space="preserve">
<g>
	<circle fill="#FFC717" cx="64" cy="64" r="63.5"/>
	<g>
		<ellipse fill="#915037" cx="52.1" cy="67.9" rx="27.8" ry="35.8"/>
		<path fill="#753A29" d="M58.2,71.7c-0.8-3.7-2-7.3-3.1-10.9c-2.2-6.6-4.2-12.8-3.7-19.4c0.3-3.8,0.8-6,1.9-9.2c-0.4,0-0.8,0-1.2,0
			c-0.6,0-1.3,0-1.9,0.1c-1,2.9-1.4,5.3-1.7,8.9c-0.6,7.2,1.7,14,3.8,20.6c1.1,3.4,2.3,7,3,10.5c2.2,10.7-0.1,22.9-5.8,31.3
			c0.9,0.1,1.7,0.2,2.6,0.2c0.3,0,0.6,0,0.8,0C58.5,94.7,60.5,82.6,58.2,71.7z"/>
		
			<ellipse transform="matrix(-0.7071 -0.7071 0.7071 -0.7071 82.359 146.7672)" fill="#753A29" cx="71.6" cy="56.3" rx="35.8" ry="27.8"/>
		<path fill="#915037" d="M97.7,80.8c-2.7-10.1-9.7-19.9-19-26c-3.2-2.1-6.6-3.9-10-5.6C62.5,46,56.6,43,52.2,37.9
			c-2.4-2.8-3.7-4.7-5.1-7.7c-0.3,0.3-0.6,0.5-0.8,0.8c-0.5,0.5-0.9,1-1.4,1.5c1.4,2.7,2.7,4.6,5,7.3c4.8,5.6,11.2,8.9,17.4,12
			c3.3,1.7,6.6,3.4,9.7,5.4c9,5.9,16,16,18.1,25.8c0.6-0.5,1.2-1,1.7-1.5C97.2,81.4,97.5,81.1,97.7,80.8z"/>
	</g>
</g>
</svg>
