<?xml version="1.0" encoding="utf-8"?>
<!-- Generator: Adobe Illustrator 18.1.1, SVG Export Plug-In . SVG Version: 6.00 Build 0)  -->
<svg version="1.1" id="Layer_1" xmlns="http://www.w3.org/2000/svg" xmlns:xlink="http://www.w3.org/1999/xlink" x="0px" y="0px"
	 viewBox="0 0 128 128" enable-background="new 0 0 128 128" xml:space="preserve">
<g>
	<circle fill="#388CCB" cx="64" cy="64" r="63.5"/>
	<g>
		<ellipse fill="#E67375" cx="59.1" cy="40.4" rx="31.9" ry="10.5"/>
		<polygon fill="#E67375" points="93,98.1 28.3,98.1 24.3,87.9 97,87.9 		"/>
		<path fill="#F4B1A8" d="M91,40.7c-0.5,5.7-14.6,10.2-31.9,10.2c-17.6,0-31.9-4.7-31.9-10.5l0,0c0,0-1.2,13.8,9.3,27.8
			C40,72.9,43,81.8,43,87.9h32c0-6.2,3-15,6.6-19.8C91.3,55.3,91.1,42.7,91,40.7z"/>
		<path fill="#5D5E61" d="M90.8,44.8c-0.1,0.9-0.2,1.8-0.4,2.9c5.7,0,10.3,5.2,10.3,11.5c0,6.3-4.6,11.5-10.3,11.5
			c-2.9,0-5.6-1.3-7.5-3.6c-0.1-0.1-0.2-0.2-0.3-0.3c-0.3,0.4-0.6,0.9-0.9,1.3c-0.3,0.3-0.5,0.7-0.8,1.1c2.5,2.8,5.9,4.4,9.5,4.4
			c7.3,0,13.3-6.5,13.3-14.4C103.7,51.4,98,45.1,90.8,44.8z"/>
	</g>
</g>
</svg>
