<?xml version="1.0" encoding="utf-8"?>
<!-- Generator: Adobe Illustrator 18.1.1, SVG Export Plug-In . SVG Version: 6.00 Build 0)  -->
<svg version="1.1" id="Layer_1" xmlns="http://www.w3.org/2000/svg" xmlns:xlink="http://www.w3.org/1999/xlink" x="0px" y="0px"
	 viewBox="0 0 128 128" enable-background="new 0 0 128 128" xml:space="preserve">
<g>
	<circle fill="#41B655" cx="64" cy="64" r="63.5"/>
	<g>
		<path fill="#FFC717" d="M24.1,24.1c0,10.1,8.2,18.3,18.3,18.3h0l0,0C42.5,32.4,34.3,24.1,24.1,24.1L24.1,24.1L24.1,24.1z"/>
		<path fill="#FFC717" d="M50.3,23.3c-7.2,7.2-7.2,18.8,0,25.9l0,0l0,0C57.4,42.1,57.4,30.5,50.3,23.3L50.3,23.3L50.3,23.3z"/>
		<path fill="#FFC717" d="M23.3,50.3c7.2-7.2,18.8-7.2,25.9,0l0,0l0,0C42.1,57.4,30.5,57.4,23.3,50.3L23.3,50.3L23.3,50.3z"/>
		<path fill="#FFC717" d="M61.6,34.6c-7.2,7.2-7.2,18.8,0,25.9l0,0l0,0C68.8,53.4,68.8,41.8,61.6,34.6L61.6,34.6L61.6,34.6z"/>
		<path fill="#FFC717" d="M34.6,61.6c7.2-7.2,18.8-7.2,25.9,0l0,0l0,0C53.4,68.8,41.8,68.8,34.6,61.6L34.6,61.6L34.6,61.6z"/>
		<path fill="#FFC717" d="M72.9,46c-7.2,7.2-7.2,18.8,0,25.9l0,0l0,0C80.1,64.7,80.1,53.1,72.9,46L72.9,46L72.9,46z"/>
		<path fill="#FFC717" d="M46,72.9c7.2-7.2,18.8-7.2,25.9,0l0,0l0,0C64.7,80.1,53.1,80.1,46,72.9L46,72.9L46,72.9z"/>
		<path fill="#FFC717" d="M84.2,57.3c-7.2,7.2-7.2,18.8,0,25.9l0,0l0,0C91.4,76.1,91.4,64.4,84.2,57.3L84.2,57.3L84.2,57.3z"/>
		<path fill="#FFC717" d="M57.3,84.2c7.2-7.2,18.8-7.2,25.9,0l0,0l0,0C76.1,91.4,64.4,91.4,57.3,84.2L57.3,84.2L57.3,84.2z"/>
		<path fill="#753A29" d="M102.7,104.7c-0.5,0-1-0.2-1.4-0.6L85.4,88.3c-0.8-0.8-0.8-2,0-2.8c0.8-0.8,2-0.8,2.8,0l15.8,15.8
			c0.8,0.8,0.8,2,0,2.8C103.7,104.5,103.2,104.7,102.7,104.7z"/>
	</g>
</g>
</svg>
