<?xml version="1.0" encoding="utf-8"?>
<!-- Generator: Adobe Illustrator 18.1.1, SVG Export Plug-In . SVG Version: 6.00 Build 0)  -->
<svg version="1.1" id="Layer_1" xmlns="http://www.w3.org/2000/svg" xmlns:xlink="http://www.w3.org/1999/xlink" x="0px" y="0px"
	 viewBox="0 0 128 128" enable-background="new 0 0 128 128" xml:space="preserve">
<g>
	<circle fill="#FFC717" cx="64" cy="64" r="63.5"/>
	<g>
		<path fill="#E3E6E8" d="M71.5,51.4c5.8-0.3,11.7,0.2,17.4,1.5l1.4-15.5H50.5l1.3,15.4C58.4,53.2,65,51.8,71.5,51.4z"/>
		<path fill="#D62E2F" d="M71.5,51.4c-6.6,0.4-13.2,1.8-19.7,1.4l4.5,50.9h28.2l4.4-50.7C83.3,51.6,77.4,51.1,71.5,51.4z"/>
		<path fill="#D62E2F" d="M57.9,60.1c-0.9,0-1.7-0.7-1.7-1.6l-2.5-27.6c-0.1-1.2-0.8-2.2-1.9-2.7c-1.1-0.5-2.3-0.5-3.3,0.1l-8,5.3
			c-0.8,0.5-1.9,0.3-2.4-0.5c-0.5-0.8-0.3-1.9,0.5-2.4l8-5.3c2.1-1.3,4.6-1.4,6.8-0.3c2.2,1.1,3.6,3.2,3.8,5.6l2.5,27.6
			c0.1,1-0.6,1.8-1.6,1.9C58,60.1,57.9,60.1,57.9,60.1z"/>
		<path fill="#F4B1A8" d="M78.2,63.3l-6.7,0.5c-0.6,0-1.2-0.4-1.2-1.1l-0.5-6.7c0-0.6,0.4-1.2,1.1-1.2l6.7-0.5
			c0.6,0,1.2,0.4,1.2,1.1l0.5,6.7C79.3,62.7,78.8,63.3,78.2,63.3z"/>
		<path fill="#F4B1A8" d="M66.6,85.8L60,86.3c-0.6,0-1.2-0.4-1.2-1.1l-0.5-6.7c0-0.6,0.4-1.2,1.1-1.2l6.7-0.5c0.6,0,1.2,0.4,1.2,1.1
			l0.5,6.7C67.7,85.2,67.2,85.8,66.6,85.8z"/>
		<path fill="#F4B1A8" d="M68,100.4l-6.7,0.5c-0.6,0-1.2-0.4-1.2-1.1l-0.5-6.7c0-0.6,0.4-1.2,1.1-1.2l6.7-0.5c0.6,0,1.2,0.4,1.2,1.1
			l0.5,6.7C69.1,99.8,68.7,100.4,68,100.4z"/>
		<path fill="#F4B1A8" d="M71.3,74.6l-6.7,0.5c-0.6,0-1.2-0.4-1.2-1.1l-0.5-6.7c0-0.6,0.4-1.2,1.1-1.2l6.7-0.5
			c0.6,0,1.2,0.4,1.2,1.1l0.5,6.7C72.4,74,72,74.6,71.3,74.6z"/>
		<path fill="#F4B1A8" d="M83.3,78.6l-6.7,0.5c-0.6,0-1.2-0.4-1.2-1.1l-0.5-6.7c0-0.6,0.4-1.2,1.1-1.2l6.7-0.5
			c0.6,0,1.2,0.4,1.2,1.1l0.5,6.7C84.4,78,83.9,78.5,83.3,78.6z"/>
		<path fill="#F4B1A8" d="M80.1,92.9l-6.7,0.5c-0.6,0-1.2-0.4-1.2-1.1l-0.5-6.7c0-0.6,0.4-1.2,1.1-1.2l6.7-0.5
			c0.6,0,1.2,0.4,1.2,1.1l0.5,6.7C81.2,92.3,80.7,92.9,80.1,92.9z"/>
	</g>
</g>
</svg>
