<?xml version="1.0" encoding="utf-8"?>
<!-- Generator: Adobe Illustrator 18.1.1, SVG Export Plug-In . SVG Version: 6.00 Build 0)  -->
<svg version="1.1" id="Layer_1" xmlns="http://www.w3.org/2000/svg" xmlns:xlink="http://www.w3.org/1999/xlink" x="0px" y="0px"
	 viewBox="0 0 128 128" enable-background="new 0 0 128 128" xml:space="preserve">
<g>
	<circle fill="#EF4538" cx="64" cy="64" r="63.5"/>
	<g>
		<path fill="#FCD83A" d="M66.1,24.4L24.3,62l79.4-20.2L66.1,24.4z M68.8,41.2c-1.4,0-2.6-1.2-2.6-2.6c0-1.4,1.2-2.6,2.6-2.6
			c1.4,0,2.6,1.2,2.6,2.6C71.4,40,70.2,41.2,68.8,41.2z"/>
		<path fill="#FFC717" d="M96.7,72.7c0-4.6,2.9-8.5,7-10V41.8L24.3,62v33.1c0.9-0.3,1.8-0.4,2.8-0.4c5.1,0,9.2,3.9,9.5,8.9l67.1-17
			v-3.9C99.6,81.2,96.7,77.3,96.7,72.7z M50.6,69.6c-1.5,0-2.7-1.2-2.7-2.7c0-1.5,1.2-2.7,2.7-2.7c1.5,0,2.7,1.2,2.7,2.7
			C53.3,68.4,52.1,69.6,50.6,69.6z M76.1,59.5c0-1.5,1.2-2.7,2.7-2.7c1.5,0,2.7,1.2,2.7,2.7s-1.2,2.7-2.7,2.7
			C77.3,62.2,76.1,61,76.1,59.5z M80.5,86.2c-1.9,0-3.5-1.6-3.5-3.5c0-1.9,1.6-3.5,3.5-3.5c1.9,0,3.5,1.6,3.5,3.5
			C84,84.6,82.4,86.2,80.5,86.2z"/>
	</g>
</g>
</svg>
