<?xml version="1.0" encoding="utf-8"?>
<!-- Generator: Adobe Illustrator 18.1.1, SVG Export Plug-In . SVG Version: 6.00 Build 0)  -->
<svg version="1.1" id="Layer_1" xmlns="http://www.w3.org/2000/svg" xmlns:xlink="http://www.w3.org/1999/xlink" x="0px" y="0px"
	 viewBox="0 0 128 128" enable-background="new 0 0 128 128" xml:space="preserve">
<g>
	<circle fill="#FFC717" cx="64" cy="64" r="63.5"/>
	<g>
		<path fill="#915037" d="M90.3,61c0,10.2-8.8,18.5-19.7,18.5s-40.5,2.1-40.5-8.1c0-16.3,29.6-28.9,40.5-28.9S90.3,50.8,90.3,61z"/>
		<path fill="#753A29" d="M87.9,46.1c4.6,4.2-1.5,14.8-5,18.5c-3.5,3.8-9.3,4.1-12.9,0.7c-3.6-3.4-3.7-9.1-0.2-12.9
			C73.3,48.7,83.5,42,87.9,46.1z"/>
		<path fill="#565756" d="M95,38.5c0.2-0.8,0-1.6-0.6-2.2c-0.9-0.8-2.3-0.8-3.2,0.1s-0.8,2.3,0.1,3.2c0.1,0.1,0.2,0.1,0.2,0.2
			l-5.1,5.5c0.5,0.2,1,0.5,1.4,0.9c0.4,0.4,0.8,0.9,1,1.4L94,42c0.1,0.1,0.1,0.2,0.2,0.2c0.9,0.8,2.3,0.8,3.2-0.1
			c0.8-0.9,0.8-2.3-0.1-3.2C96.6,38.4,95.7,38.2,95,38.5z"/>
		<polygon fill="#E3E6E8" points="100,92.3 28,92.3 24.3,85.4 103.7,85.4 		"/>
	</g>
</g>
</svg>
