<?xml version="1.0" encoding="utf-8"?>
<!-- Generator: Adobe Illustrator 18.1.1, SVG Export Plug-In . SVG Version: 6.00 Build 0)  -->
<svg version="1.1" id="Layer_1" xmlns="http://www.w3.org/2000/svg" xmlns:xlink="http://www.w3.org/1999/xlink" x="0px" y="0px"
	 viewBox="0 0 128 128" enable-background="new 0 0 128 128" xml:space="preserve">
<g>
	<circle fill="#41B655" cx="64" cy="64" r="63.5"/>
	<g>
		<path fill="#FCD83A" d="M88.4,49.2H39.6c-5,0-9,4-9,9v0.1h66.8v-0.1C97.4,53.2,93.4,49.2,88.4,49.2z"/>
		<ellipse fill="#565756" cx="64" cy="44.3" rx="8.6" ry="2.5"/>
		<path fill="#565756" d="M64,46.8c-2.7,0-5.1-0.4-6.7-0.9v3.3h13.4v-3.3C69.1,46.5,66.7,46.8,64,46.8z"/>
		<path fill="#E3E6E8" d="M92.6,103.7H35.4c-2.6,0-4.8-2.1-4.8-4.8V58.3h66.8v40.7C97.4,101.6,95.3,103.7,92.6,103.7z"/>
		<rect x="24.3" y="63.3" fill="#565756" width="6.3" height="6.9"/>
		<rect x="97.4" y="63.3" fill="#565756" width="6.3" height="6.9"/>
		<path fill="#FCD83A" d="M48.4,38.9c-0.3,0-0.6-0.1-0.8-0.2c-0.7-0.5-0.9-1.4-0.4-2.1c0.6-0.9,1.2-1.9,1.3-2.6
			c0-0.5-0.1-1.1-0.3-1.7c-0.4-1.4-0.9-3.3,0.6-5c0.2-0.2,0.3-0.4,0.5-0.6c0.1-0.1,0.2-0.2,0.3-0.3c-0.2-0.5-0.1-1.1,0.3-1.6
			c0.5-0.6,1.5-0.7,2.1-0.1c0.6,0.6,0.8,1.2,0.8,1.6c0,1.1-0.7,1.9-1.3,2.5c-0.1,0.1-0.3,0.3-0.4,0.4c-0.4,0.5-0.4,1.1,0,2.3
			c0.2,0.8,0.5,1.7,0.4,2.7c-0.1,1.5-1,2.9-1.7,4C49.3,38.7,48.9,38.9,48.4,38.9z"/>
		<path fill="#FCD83A" d="M62.7,38.9c-0.3,0-0.6-0.1-0.8-0.2c-0.7-0.5-0.9-1.4-0.4-2.1c0.6-0.9,1.2-1.9,1.3-2.6
			c0-0.5-0.1-1.1-0.3-1.7C62,30.9,61.5,29,63,27.3c0.2-0.2,0.3-0.4,0.5-0.6c0.1-0.1,0.2-0.2,0.3-0.3c-0.2-0.5-0.1-1.1,0.3-1.6
			c0.5-0.6,1.5-0.7,2.1-0.1c0.6,0.6,0.8,1.2,0.8,1.6c0,1.1-0.7,1.9-1.3,2.5c-0.1,0.1-0.3,0.3-0.4,0.4c-0.4,0.5-0.4,1.1,0,2.3
			c0.2,0.8,0.5,1.7,0.4,2.7c-0.1,1.5-1,2.9-1.7,4C63.6,38.7,63.2,38.9,62.7,38.9z"/>
		<path fill="#FCD83A" d="M76.9,38.9c-0.3,0-0.6-0.1-0.8-0.2c-0.7-0.5-0.9-1.4-0.4-2.1c0.6-0.9,1.2-1.9,1.3-2.6
			c0-0.5-0.1-1.1-0.3-1.7c-0.4-1.4-0.9-3.3,0.6-5.1c0.2-0.2,0.3-0.4,0.5-0.6c0.1-0.1,0.2-0.2,0.3-0.3c-0.2-0.5-0.1-1.1,0.3-1.6
			c0.5-0.6,1.5-0.7,2.1-0.1c0.6,0.6,0.8,1.2,0.8,1.6c0,1.1-0.7,1.9-1.3,2.5c-0.1,0.1-0.3,0.3-0.4,0.4c-0.4,0.5-0.4,1.1,0,2.3
			c0.2,0.8,0.5,1.7,0.4,2.7c-0.1,1.5-1,2.9-1.7,4C77.9,38.7,77.4,38.9,76.9,38.9z"/>
	</g>
</g>
</svg>
