<?xml version="1.0" encoding="utf-8"?>
<!-- Generator: Adobe Illustrator 18.1.1, SVG Export Plug-In . SVG Version: 6.00 Build 0)  -->
<svg version="1.1" id="Layer_1" xmlns="http://www.w3.org/2000/svg" xmlns:xlink="http://www.w3.org/1999/xlink" x="0px" y="0px"
	 viewBox="0 0 128 128" enable-background="new 0 0 128 128" xml:space="preserve">
<g>
	<circle fill="#EF4538" cx="64" cy="64" r="63.5"/>
	<g>
		<path fill="#FFC717" d="M46.7,32c0,1.8-1.5,3.3-3.3,3.3c-1.8,0-3.3-1.5-3.3-3.3c0-1.8,3.3-5.8,3.3-7.7
			C43.3,23.8,46.7,30.2,46.7,32z"/>
		<rect x="41" y="36.9" fill="#E3E6E8" width="4.7" height="11.4"/>
		<rect x="41.8" y="35.4" fill="#5D5E61" width="3" height="1.5"/>
		<path fill="#FFC717" d="M67.3,32c0,1.8-1.5,3.3-3.3,3.3c-1.8,0-3.3-1.5-3.3-3.3c0-1.8,3.3-5.8,3.3-7.7C64,23.8,67.3,30.2,67.3,32z
			"/>
		<rect x="61.7" y="36.9" fill="#22A79C" width="4.7" height="11.4"/>
		<rect x="62.5" y="35.4" fill="#5D5E61" width="3" height="1.5"/>
		<path fill="#FFC717" d="M88,32c0,1.8-1.5,3.3-3.3,3.3c-1.8,0-3.3-1.5-3.3-3.3c0-1.8,3.3-5.8,3.3-7.7C84.7,23.8,88,30.2,88,32z"/>
		<rect x="82.4" y="36.9" fill="#E3E6E8" width="4.7" height="11.4"/>
		<rect x="83.2" y="35.4" fill="#5D5E61" width="3" height="1.5"/>
		<path fill="#FAF4A6" d="M92,58.4c-1,0.6-1.5,1.8-2.5,2.4c-1.5,0.9-3.5-0.1-4.9-1.2c-1.4-1.1-2.8-2.5-4.6-2.5
			c-2.3-0.1-4.1,2.1-5.1,4.2c-0.5,1-1,2.2-2.1,2.4c-1.2,0.3-2.3-1-2.7-2.1c-0.4-1.2-0.6-2.5-1.5-3.4c-1-0.9-2.6-1-3.8-0.5
			c-1.2,0.6-2.1,1.6-2.8,2.8c-0.7,1.2-1.3,2.5-2.3,3.5c-1,1-2.6,1.6-3.8,0.8c-2.1-1.3-1.1-4.9-2.9-6.4c-1.3-1.1-3.3-0.6-4.7,0.4
			c-0.6,0.4-1.2,0.9-1.7,1.5c-0.9,1-1.6,2.3-2.6,3.2c-1,0.9-2.6,1.5-3.8,0.9c-2.6-1.3-1.3-5.9-3.7-7.5c-0.9-0.6-2.1-0.6-3.1-0.2
			v19.3h61V57.9C93.6,57.8,92.7,57.9,92,58.4z"/>
		<path fill="#753A29" d="M33.5,48.3v8.3c1-0.4,2.2-0.4,3.1,0.2c2.4,1.7,1.1,6.2,3.7,7.5c1.2,0.6,2.8,0,3.8-0.9
			c1-0.9,1.7-2.2,2.6-3.2c0.5-0.6,1.1-1,1.7-1.5c1.4-0.9,3.4-1.4,4.7-0.4c1.9,1.6,0.9,5.2,2.9,6.4c1.2,0.7,2.8,0.1,3.8-0.8
			c1-1,1.5-2.3,2.3-3.5c0.7-1.2,1.6-2.2,2.8-2.8c1.2-0.6,2.8-0.5,3.8,0.5c0.9,0.9,1.1,2.2,1.5,3.4c0.4,1.2,1.5,2.4,2.7,2.1
			c1.1-0.2,1.6-1.4,2.1-2.4c1-2.1,2.7-4.3,5.1-4.2c1.8,0.1,3.2,1.4,4.6,2.5c1.4,1.1,3.3,2,4.9,1.2c1-0.6,1.5-1.8,2.5-2.4
			c0.8-0.5,1.6-0.6,2.6-0.5v-9.7H33.5z"/>
		<path fill="#FFC717" d="M81.2,87.9c-2.5-0.5-4.6-2.3-7.1-2.9c-3.7-1-7.6,0.8-11.1,2.3c-3.5,1.6-7.6,3-11.1,1.5
			c-1.5-0.6-2.8-1.7-4.2-2.5c-2.8-1.5-6.3-1.7-9.3-0.5c-2,0.8-3.7,2.2-5.7,2.8c-2.8,0.9-5.6,0.5-8.4-0.6v15.5h79.4V88.4
			c-3.2-0.9-6.4-2.6-9.7-2.5C89.6,85.9,85.5,88.8,81.2,87.9z"/>
		<path fill="#FAD839" d="M24.3,75.9v12.3c2.8,1,5.6,1.5,8.4,0.6c2-0.7,3.8-2,5.7-2.8c3-1.2,6.5-1,9.3,0.5c1.4,0.8,2.7,1.9,4.2,2.5
			c3.6,1.5,7.6,0,11.1-1.5c3.5-1.6,7.3-3.3,11.1-2.3c2.5,0.6,4.6,2.4,7.1,2.9c4.3,0.9,8.4-2,12.7-2.1c3.3,0,6.5,1.6,9.7,2.5V75.9
			H24.3z"/>
	</g>
</g>
</svg>
