<?xml version="1.0" encoding="utf-8"?>
<!-- Generator: Adobe Illustrator 18.1.1, SVG Export Plug-In . SVG Version: 6.00 Build 0)  -->
<svg version="1.1" id="Layer_1" xmlns="http://www.w3.org/2000/svg" xmlns:xlink="http://www.w3.org/1999/xlink" x="0px" y="0px"
	 viewBox="0 0 128 128" enable-background="new 0 0 128 128" xml:space="preserve">
<g>
	<circle fill="#388CCB" cx="64" cy="64" r="63.5"/>
	<g>
		<path fill="#FCD83A" d="M89.5,45.4c-0.9-11.8-10.7-21.1-22.7-21.1c-11,0-20.2,7.8-22.3,18.1c-1.4-0.4-2.8-0.7-4.3-0.7
			c-7.8,0-14.1,6.3-14.1,14.1s6.3,14.1,14.1,14.1c4.7,0,8.8-2.3,11.4-5.8c4,3.6,9.4,5.8,15.2,5.8c3.7,0,7.2-0.9,10.3-2.5
			c2.1,1.6,4.7,2.5,7.5,2.5c7,0,12.7-5.7,12.7-12.7C97.4,51.9,94.1,47.3,89.5,45.4z"/>
		<path fill="#E3E6E8" d="M84.7,69.9c-2.8,0-5.4-0.9-7.5-2.5c-3.1,1.6-6.6,2.5-10.3,2.5c-5.9,0-11.2-2.2-15.2-5.8
			c-2.6,3.5-6.7,5.8-11.4,5.8c-2.7,0-5.3-0.8-7.4-2.1l8.1,35.9h41.8l7.9-35.2C88.8,69.4,86.8,69.9,84.7,69.9z"/>
		<path fill="#A8ACAF" d="M47.2,96c-0.8,0-1.5-0.7-1.5-1.5V77.9c0-0.8,0.7-1.5,1.5-1.5s1.5,0.7,1.5,1.5v16.6
			C48.7,95.3,48,96,47.2,96z"/>
		<path fill="#A8ACAF" d="M56.8,96c-0.8,0-1.5-0.7-1.5-1.5V77.9c0-0.8,0.7-1.5,1.5-1.5s1.5,0.7,1.5,1.5v16.6
			C58.3,95.3,57.7,96,56.8,96z"/>
		<path fill="#A8ACAF" d="M66.5,96c-0.8,0-1.5-0.7-1.5-1.5V77.9c0-0.8,0.7-1.5,1.5-1.5s1.5,0.7,1.5,1.5v16.6
			C68,95.3,67.3,96,66.5,96z"/>
		<path fill="#A8ACAF" d="M76.2,96c-0.8,0-1.5-0.7-1.5-1.5V77.9c0-0.8,0.7-1.5,1.5-1.5s1.5,0.7,1.5,1.5v16.6
			C77.7,95.3,77,96,76.2,96z"/>
		<path fill="#D62E2F" d="M98.8,38c-2.4-2.3-5.5-3.1-8.5-2.6c0.4-3-0.6-6.1-3-8.4c-4-3.8-10.2-3.6-14,0.3c-2.2,2.3-3,8.5-3.3,14.5
			c0.7,0.4,1.4,0.8,2,1.3c1.5,1.1,2.8,2.5,3.5,4.2c0.3,0.8,0.6,1.6,0.9,2.4c1.2,2.6,4.1,4.1,5.9,6.3c6.7-0.4,14.2-1.5,16.7-4.1
			C102.9,48.1,102.8,41.8,98.8,38z"/>
	</g>
</g>
</svg>
