<?xml version="1.0" encoding="utf-8"?>
<!-- Generator: Adobe Illustrator 18.1.1, SVG Export Plug-In . SVG Version: 6.00 Build 0)  -->
<svg version="1.1" id="Layer_1" xmlns="http://www.w3.org/2000/svg" xmlns:xlink="http://www.w3.org/1999/xlink" x="0px" y="0px"
	 viewBox="0 0 128 128" enable-background="new 0 0 128 128" xml:space="preserve">
<g>
	<circle fill="#41B655" cx="64" cy="64" r="63.5"/>
	<g>
		<polygon fill="#D62E2F" points="92.1,40.5 86.4,60.7 41.7,60.7 36,40.5 24.3,40.5 37.4,100.8 90.6,100.8 103.7,40.5 		"/>
		<polygon fill="#FFC717" points="86.4,60.7 92.1,40.5 99.7,40.5 103,29.5 94.4,26.9 84.3,60.7 		"/>
		<polygon fill="#FFC717" points="86.4,60.7 88.7,52.6 86.6,27.1 77.7,27.9 80.4,60.7 		"/>
		<polygon fill="#F7EC5C" points="77,60.7 78.5,27.6 69.5,27.2 68,60.7 		"/>
		<polygon fill="#FFC717" points="58.3,60.7 69.4,30.1 60.9,27 48.8,60.7 		"/>
		<polygon fill="#FBD839" points="55.1,60.7 57.6,27.8 48.6,27.1 46.1,60.7 		"/>
		<polygon fill="#FFC717" points="41.7,60.7 42.1,60.7 50,29.1 41.3,26.9 37,44.1 		"/>
		<polygon fill="#FCD83A" points="36,40.5 38.5,49.5 38.5,27.4 29.6,27.4 29.6,40.5 		"/>
		<polygon fill="none" points="29.6,64.7 29.6,64.9 29.6,64.9 		"/>
		<ellipse fill="#FEEDEF" cx="64" cy="79.1" rx="19.2" ry="8.3"/>
	</g>
</g>
</svg>
