<?xml version="1.0" encoding="utf-8"?>
<!-- Generator: Adobe Illustrator 18.1.1, SVG Export Plug-In . SVG Version: 6.00 Build 0)  -->
<svg version="1.1" id="Layer_1" xmlns="http://www.w3.org/2000/svg" xmlns:xlink="http://www.w3.org/1999/xlink" x="0px" y="0px"
	 viewBox="0 0 128 128" enable-background="new 0 0 128 128" xml:space="preserve">
<g>
	<circle fill="#FFC717" cx="64" cy="64" r="63.5"/>
	<g>
		<path fill="#22A79C" d="M91.3,51.9L91.3,51.9c-0.1-5-4.1-9-9.1-9s-9,4-9.1,9h0c-0.1-5-4.1-9-9.1-9s-9,4-9.1,9h0
			c-0.1-5-4.1-9-9.1-9s-9,4-9.1,9l0,0c0,0,0,0.1,0,0.1l6.4,47.7c0.3,2.2,2.2,3.8,4.4,3.8h33.1c2.2,0,4.1-1.6,4.4-3.8L91.3,51.9
			C91.3,52,91.3,52,91.3,51.9z"/>
		<ellipse fill="#168B7D" cx="64" cy="76.9" rx="16.3" ry="10.2"/>
		<path fill="#FACDD4" d="M45.8,42.9c5,0,9,4,9.1,9h0c0.1-5,4.1-9,9.1-9s9,4,9.1,9h0c0.1-5,4.1-9,9.1-9c2.2,0,4.2,0.8,5.8,2.1
			c-0.4-5.5-4.3-10-9.4-11.4c-1.5-5.4-6.4-9.5-12.3-9.5c-5.8,0-10.6,3.8-12.2,9.1c-0.4,0-0.8-0.1-1.3-0.1c-6.7,0-12.2,5.2-12.7,11.8
			C41.6,43.7,43.6,42.9,45.8,42.9z"/>
	</g>
</g>
</svg>
