<?xml version="1.0" encoding="utf-8"?>
<!-- Generator: Adobe Illustrator 18.1.1, SVG Export Plug-In . SVG Version: 6.00 Build 0)  -->
<svg version="1.1" id="Layer_1" xmlns="http://www.w3.org/2000/svg" xmlns:xlink="http://www.w3.org/1999/xlink" x="0px" y="0px"
	 viewBox="0 0 128 128" enable-background="new 0 0 128 128" xml:space="preserve">
<g>
	<circle fill="#EF4538" cx="64" cy="64" r="63.5"/>
	<g>
		<ellipse fill="none" cx="60.4" cy="67.8" rx="36" ry="12.2"/>
		<ellipse fill="#FAF4A6" cx="60.4" cy="67.8" rx="36" ry="12.2"/>
		<path fill="#FFC717" d="M60.4,80C76,80,89.3,76.7,94.3,72c-5-4.7-18.3-8.1-33.9-8.1c-15.6,0-28.9,3.4-33.9,8.1
			C31.5,76.7,44.7,80,60.4,80z"/>
		<path fill="none" d="M96.4,67.7L96.4,67.7c0,0,0,0.1,0,0.1C96.4,67.7,96.4,67.7,96.4,67.7z"/>
		<path fill="#22A79C" d="M60.4,80c-19.8,0-35.9-5.4-36-12.2c0.1,13.9,5.8,26.2,14.6,33.9c1.3,1.1,2.9,1.7,4.7,1.7h33.7
			c1.7,0,3.4-0.6,4.7-1.7c8.8-7.7,14.5-20,14.6-33.9C96.3,74.6,80.2,80,60.4,80z"/>
		<path fill="none" d="M24.3,67.7L24.3,67.7c0,0,0,0.1,0,0.1C24.3,67.7,24.3,67.7,24.3,67.7z"/>
		<path fill="#E3E6E8" d="M49.6,51c-0.1,0-0.2,0-0.2,0c-1-0.1-1.6-1-1.5-2c0.2-1.4,0.4-2.9,0-4.1c-0.2-0.7-0.6-1.3-1.1-2l-0.1-0.2
			c-1.3-2-2.5-4.5-2-7.1c0.2-1.1,0.7-2,1.1-2.8c0.2-0.5,0.5-0.9,0.6-1.4c0.5-1.4,0.3-3-0.5-4.2c-0.5-0.8-0.3-1.9,0.5-2.4
			c0.8-0.5,1.9-0.3,2.4,0.5c1.4,2.1,1.7,5,0.8,7.4c-0.2,0.6-0.5,1.2-0.8,1.8c-0.3,0.7-0.7,1.3-0.8,1.9c-0.3,1.4,0.6,3,1.5,4.5
			l0.1,0.2c0.5,0.8,1.1,1.7,1.4,2.8c0.6,2,0.4,4,0.1,5.7C51.3,50.4,50.5,51,49.6,51z"/>
		<path fill="#E3E6E8" d="M61.9,51c-0.1,0-0.2,0-0.2,0c-1-0.1-1.6-1-1.5-2c0.2-1.4,0.4-2.9,0-4.1c-0.2-0.7-0.6-1.3-1.1-2l-0.1-0.2
			c-1.3-2-2.5-4.5-2-7.1c0.2-1.1,0.7-2,1.1-2.8c0.2-0.5,0.5-0.9,0.6-1.4c0.5-1.4,0.3-3-0.5-4.2c-0.5-0.8-0.3-1.9,0.5-2.4
			c0.8-0.5,1.9-0.3,2.4,0.5c1.4,2.1,1.7,5,0.8,7.4c-0.2,0.6-0.5,1.2-0.8,1.8c-0.3,0.7-0.7,1.3-0.8,1.9c-0.3,1.4,0.6,3,1.5,4.5L62,41
			c0.5,0.8,1.1,1.7,1.4,2.8c0.6,2,0.4,4,0.1,5.7C63.5,50.4,62.7,51,61.9,51z"/>
		<path fill="#E3E6E8" d="M74.1,51c-0.1,0-0.2,0-0.2,0c-1-0.1-1.6-1-1.5-2c0.2-1.4,0.4-2.9,0-4.1c-0.2-0.7-0.6-1.3-1.1-2l-0.1-0.2
			c-1.3-2-2.5-4.5-2-7.1c0.2-1.1,0.7-2,1.1-2.8c0.2-0.5,0.5-0.9,0.6-1.4c0.5-1.4,0.3-3-0.5-4.2c-0.5-0.8-0.3-1.9,0.5-2.4
			c0.8-0.5,1.9-0.3,2.4,0.5c1.4,2.1,1.7,5,0.8,7.4c-0.2,0.6-0.5,1.2-0.8,1.8c-0.3,0.7-0.7,1.3-0.8,1.9c-0.3,1.4,0.6,3,1.5,4.5
			l0.1,0.2c0.5,0.8,1.1,1.7,1.4,2.8c0.6,2,0.4,4.1,0.1,5.7C75.8,50.4,75,51,74.1,51z"/>
		<path fill="#5D5E61" d="M69.9,64.8c-3.3,3.3-4,8-1.6,10.5c2.5,2.5,7.2,1.8,10.5-1.6c2.8-2.8,3.7-6.5,2.5-9.1L102.8,45
			c1.2-1.1,1.3-3,0.1-4.2c-1.2-1.2-3.1-1.1-4.2,0.1L79,62.3C76.4,61.1,72.7,62,69.9,64.8z"/>
	</g>
</g>
</svg>
