<?xml version="1.0" encoding="utf-8"?>
<!-- Generator: Adobe Illustrator 18.1.1, SVG Export Plug-In . SVG Version: 6.00 Build 0)  -->
<svg version="1.1" id="Layer_1" xmlns="http://www.w3.org/2000/svg" xmlns:xlink="http://www.w3.org/1999/xlink" x="0px" y="0px"
	 viewBox="0 0 128 128" enable-background="new 0 0 128 128" xml:space="preserve">
<g>
	<circle fill="#41B655" cx="64" cy="64" r="63.5"/>
	<g>
		<rect x="37" y="43.4" fill="#915037" width="43.9" height="60.3"/>
		<path fill="#565756" d="M92.5,96.5H80.9v-4h11.5c1.6,0,2.9-1.3,2.9-2.9V57.4c0-1.6-1.3-2.9-2.9-2.9H80.9v-4h11.5
			c3.8,0,6.9,3.1,6.9,6.9v32.3C99.3,93.5,96.3,96.5,92.5,96.5z"/>
		<rect x="43.3" y="52.9" fill="#753A29" width="3" height="41.2"/>
		<rect x="52.8" y="52.9" fill="#753A29" width="3" height="41.2"/>
		<rect x="62.2" y="52.9" fill="#753A29" width="3" height="41.2"/>
		<rect x="71.6" y="52.9" fill="#753A29" width="3" height="41.2"/>
		<path fill="#F7EC5C" d="M81.7,41.6c0-2.1-1.2-3.9-2.9-4.9c0.1-0.4,0.1-0.8,0.1-1.2c0-3.1-2.5-5.6-5.6-5.6c-0.3,0-0.7,0-1,0.1
			c-1-1-2.3-1.5-3.8-1.5c-0.2,0-0.4,0-0.6,0.1c-0.6-2.4-2.8-4.2-5.4-4.2c-2.7,0-4.9,1.9-5.4,4.4c-0.5-0.1-1-0.2-1.5-0.2
			c-2.1,0-4,1.2-4.9,3c-1-0.9-2.3-1.5-3.8-1.5c-2.8,0-5.1,2.1-5.5,4.8c-2.2,0.1-4.1,1.5-4.8,3.5c-0.1,0-0.2,0.1-0.3,0.1
			c-0.7,0.4-1.2,1.1-1.6,1.7c-2.3,3.4-3.5,7.4-4.3,11.4c-2.3,10.9-2.1,22.2,0.3,33c0.2,0.9,0.4,1.8,1.1,2.5c0.8,0.8,2,1.1,3.1,1.3
			c0.7,0.1,1.5,0.2,2.2,0V43.4h0.8v0h43.1v0.9C81.4,43.5,81.7,42.6,81.7,41.6z"/>
	</g>
</g>
</svg>
