<?xml version="1.0" encoding="utf-8"?>
<!-- Generator: Adobe Illustrator 18.1.1, SVG Export Plug-In . SVG Version: 6.00 Build 0)  -->
<svg version="1.1" id="Layer_1" xmlns="http://www.w3.org/2000/svg" xmlns:xlink="http://www.w3.org/1999/xlink" x="0px" y="0px"
	 viewBox="0 0 128 128" enable-background="new 0 0 128 128" xml:space="preserve">
<g>
	<circle fill="#388CCB" cx="64" cy="64" r="63.5"/>
	<g>
		<polygon fill="#E3E6E8" points="78.5,103.7 46.3,103.7 42,45.6 82.8,45.6 		"/>
		<polygon fill="#FBD839" points="82.6,40.1 43.2,40.1 40.2,45.6 84.6,45.6 		"/>
		<path fill="#D62E2F" d="M87.7,25.9c-0.4-1.3-1.8-2-3-1.4l-11.1,5c-0.4,0.2-0.6,0.5-0.7,1l-0.7,9.6c0,0,0,0,0,0h4.3l0.5-6.7
			c0-0.4,0.3-0.8,0.7-1l8.6-3.9C87.4,28,88,27,87.7,25.9z"/>
		<polygon fill="#E67374" points="81.5,63.4 42.3,49.2 42.7,54.5 81.1,68.5 		"/>
		<polygon fill="#E67374" points="43.8,69 80.1,82.2 80.4,77.2 43.4,63.7 		"/>
		<polygon fill="#E67374" points="44.9,83.6 79.1,96 79.4,91 44.5,78.3 		"/>
		<polygon fill="#E67374" points="45.9,98.1 61.2,103.7 75.4,103.7 45.5,92.8 		"/>
	</g>
</g>
</svg>
