<?xml version="1.0" encoding="utf-8"?>
<!-- Generator: Adobe Illustrator 18.1.1, SVG Export Plug-In . SVG Version: 6.00 Build 0)  -->
<svg version="1.1" id="Layer_1" xmlns="http://www.w3.org/2000/svg" xmlns:xlink="http://www.w3.org/1999/xlink" x="0px" y="0px"
	 viewBox="0 0 128 128" enable-background="new 0 0 128 128" xml:space="preserve">
<g>
	<circle fill="#EF4538" cx="64" cy="64" r="63.5"/>
	<g>
		<path fill="#FFC717" d="M82.5,85.3C81.1,70,68.6,58.1,53.4,58.1c-15.2,0-27.7,11.9-29.1,27.2H82.5z"/>
		<path fill="#FFC717" d="M103.6,79.8C100.9,67,92.7,56.8,82,52.5c0.1,0.7,0.1,1.4,0,2c0.5,0.1,1,0.2,1.5,0.3
			c1.1,0.4,4.2,1.8,4.9,6.2c1.1,0.2,2,0.6,2.9,1.2c1.7,1.1,2.9,2.9,3.3,4.8c0.4,1.8,0,3.6-0.9,5.1c1,1.1,2.2,2.6,2.6,4.9
			c0.4,2.3,0,5.4-3.5,8.3h6.3C102,85.3,104.2,82.6,103.6,79.8z"/>
		<path fill="#22A79C" d="M91.4,77.8c-0.2-1.4-1.4-2.3-2.3-3.4c-0.9-1-1.6-2.6-0.8-3.7c0.3-0.5,0.9-0.8,1.2-1.2
			c0.7-1,0.1-2.5-0.9-3.1c-1-0.7-2.3-0.7-3.5-0.4c-0.5,0.1-1.1,0.2-1.5-0.2c-0.3-0.3-0.3-0.9-0.2-1.4c0.3-1.8,0.3-4.3-1.4-4.9
			c-1.1-0.4-2.3,0.2-3.4-0.1c-1.4-0.5-1.7-2.2-1.6-3.7c0.1-1.4,0.4-3-0.4-4.2c-3.7-0.8-8.2,1.2-11-1.5c-0.8-0.7-1.3-1.8-1.9-2.6
			c-1.6-2-4.1-3-6.5-3.9c-1.5-0.6-3.2-1.1-4.8-0.6c-2,0.7-3,2.8-4.3,4.5c-1.3,1.7-3.6,3.2-5.4,2c-0.7-0.5-1.1-1.3-1.7-1.8
			c-1.1-0.9-3-0.8-4,0.3c-0.3,0.4-0.6,0.9-1,1.2c-0.6,0.3-1.2,0.2-1.9,0.2c-2.1,0-3.9,1.5-4.8,3.4c-0.9,1.8-1.1,3.9-1.3,6
			c-2.6,1.5-3.6,5.2-2.2,7.8c6.4-8.2,16.2-13.4,27.2-13.4c17.3,0,31.7,13,34.3,30l0,0C89.4,81.9,91.8,80.1,91.4,77.8z"/>
	</g>
</g>
</svg>
