<?xml version="1.0" encoding="utf-8"?>
<!-- Generator: Adobe Illustrator 18.1.1, SVG Export Plug-In . SVG Version: 6.00 Build 0)  -->
<svg version="1.1" id="Layer_1" xmlns="http://www.w3.org/2000/svg" xmlns:xlink="http://www.w3.org/1999/xlink" x="0px" y="0px"
	 viewBox="0 0 128 128" enable-background="new 0 0 128 128" xml:space="preserve">
<g>
	<circle fill="#FFC717" cx="64" cy="64" r="63.5"/>
	<g>
		<circle fill="#5D5E61" cx="64" cy="64" r="34.5"/>
		<circle fill="#E3E6E8" cx="64" cy="64" r="30.2"/>
		<path fill="#E3E6E8" d="M47.6,94.3L42,100L28,86l5.6-5.6c-0.4-0.8-0.8-1.6-1.2-2.5L24.3,86L42,103.7l8.1-8.1
			C49.3,95.2,48.4,94.8,47.6,94.3z"/>
		<path fill="#E3E6E8" d="M77.9,32.4c0.8,0.4,1.7,0.8,2.5,1.2L86,28l14,14l-5.6,5.6c0.4,0.8,0.8,1.6,1.2,2.5l8.1-8.1L86,24.3
			L77.9,32.4z"/>
		<path fill="#5D5E61" d="M34.4,70.7l22.9,22.9c1.1,0.2,2.2,0.4,3.3,0.6L33.8,67.3C34,68.4,34.1,69.6,34.4,70.7z"/>
		<path fill="#5D5E61" d="M34.1,58.8l35.1,35.1c0.8-0.1,1.5-0.3,2.3-0.5L34.6,56.5C34.4,57.2,34.2,58,34.1,58.8z"/>
		<path fill="#5D5E61" d="M37,50.1L77.9,91c0.6-0.3,1.2-0.6,1.8-1L38,48.3C37.7,48.9,37.4,49.5,37,50.1z"/>
		<path fill="#5D5E61" d="M42.5,42.5c-0.2,0.2-0.5,0.5-0.7,0.7l42.9,42.9c0.2-0.2,0.5-0.4,0.7-0.7c0.2-0.2,0.5-0.5,0.7-0.7
			L43.3,41.9C43,42.1,42.8,42.3,42.5,42.5z"/>
		<path fill="#5D5E61" d="M48.3,38L90,79.7c0.4-0.6,0.7-1.2,1-1.8L50.1,37C49.5,37.3,48.9,37.7,48.3,38z"/>
		<path fill="#5D5E61" d="M56.5,34.6l36.9,36.9c0.2-0.8,0.4-1.5,0.5-2.3L58.8,34.1C58,34.2,57.2,34.4,56.5,34.6z"/>
		<path fill="#5D5E61" d="M70.7,34.4c-1.1-0.2-2.2-0.4-3.3-0.6l26.8,26.8c-0.1-1.1-0.3-2.2-0.6-3.3L70.7,34.4z"/>
		<path fill="#5D5E61" d="M57.3,34.4L34.4,57.3c-0.2,1.1-0.4,2.2-0.6,3.3l26.8-26.8C59.6,34,58.4,34.1,57.3,34.4z"/>
		<path fill="#5D5E61" d="M69.2,34.1L34.1,69.2c0.1,0.8,0.3,1.5,0.5,2.3l36.9-36.9C70.8,34.4,70,34.2,69.2,34.1z"/>
		<path fill="#5D5E61" d="M77.9,37L37,77.9c0.3,0.6,0.6,1.2,1,1.8L79.7,38C79.1,37.7,78.5,37.3,77.9,37z"/>
		<path fill="#5D5E61" d="M85.5,42.5c-0.2-0.2-0.5-0.5-0.7-0.7L41.9,84.7c0.2,0.2,0.4,0.5,0.7,0.7c0.2,0.2,0.5,0.5,0.7,0.7
			l42.9-42.9C85.9,43,85.7,42.8,85.5,42.5z"/>
		<path fill="#5D5E61" d="M90,48.3L48.3,90c0.6,0.4,1.2,0.7,1.8,1L91,50.1C90.7,49.5,90.3,48.9,90,48.3z"/>
		<path fill="#5D5E61" d="M93.4,56.5L56.5,93.4c0.8,0.2,1.5,0.4,2.3,0.5l35.1-35.1C93.8,58,93.6,57.2,93.4,56.5z"/>
		<path fill="#5D5E61" d="M93.6,70.7c0.2-1.1,0.4-2.2,0.6-3.3L67.3,94.2c1.1-0.1,2.2-0.3,3.3-0.6L93.6,70.7z"/>
		
			<rect x="91.1" y="27" transform="matrix(-0.7071 0.7071 -0.7071 -0.7071 184.701 -8.5955)" fill="#753A29" width="6" height="14"/>
		
			<rect x="30.9" y="87.1" transform="matrix(0.7071 -0.7071 0.7071 0.7071 -56.6015 51.5039)" fill="#753A29" width="6" height="14"/>
	</g>
</g>
</svg>
