<?xml version="1.0" encoding="utf-8"?>
<!-- Generator: Adobe Illustrator 18.1.1, SVG Export Plug-In . SVG Version: 6.00 Build 0)  -->
<svg version="1.1" id="Layer_1" xmlns="http://www.w3.org/2000/svg" xmlns:xlink="http://www.w3.org/1999/xlink" x="0px" y="0px"
	 viewBox="0 0 128 128" enable-background="new 0 0 128 128" xml:space="preserve">
<g>
	<circle fill="#388CCB" cx="64" cy="64" r="63.5"/>
	<g>
		<path fill="#E3E6E8" d="M37.9,24.3c-18.2,18.2-18.2,47.6,0,65.8c18.2,18.2,47.6,18.2,65.8,0L37.9,24.3z"/>
		<path fill="#D62E2F" d="M42.8,29.2c-15.5,15.5-15.5,40.6,0,56.1c15.5,15.5,40.6,15.5,56.1,0L42.8,29.2z"/>
		
			<ellipse transform="matrix(0.2814 0.9596 -0.9596 0.2814 81.2242 -6.139)" fill="#5D5E61" cx="44.7" cy="51.2" rx="1.6" ry="2.9"/>
		
			<ellipse transform="matrix(0.2814 0.9596 -0.9596 0.2814 87.8549 7.1205)" fill="#5D5E61" cx="39.2" cy="62.2" rx="1.6" ry="2.9"/>
		
			<ellipse transform="matrix(0.2814 0.9596 -0.9596 0.2814 123.942 -17.265)" fill="#5D5E61" cx="73.5" cy="74.1" rx="1.6" ry="2.9"/>
		
			<ellipse transform="matrix(0.2814 0.9596 -0.9596 0.2814 144.128 -25.1192)" fill="#5D5E61" cx="88.8" cy="83.7" rx="1.6" ry="2.9"/>
		
			<ellipse transform="matrix(0.2814 0.9596 -0.9596 0.2814 101.2363 -9.0132)" fill="#5D5E61" cx="56.6" cy="63.1" rx="1.6" ry="2.9"/>
		
			<ellipse transform="matrix(0.2814 0.9596 -0.9596 0.2814 113.7701 -5.2044)" fill="#5D5E61" cx="60.4" cy="73.4" rx="1.6" ry="2.9"/>
		
			<ellipse transform="matrix(0.2814 0.9596 -0.9596 0.2814 92.1362 -16.4902)" fill="#5D5E61" cx="57.1" cy="53.3" rx="1.6" ry="2.9"/>
		
			<ellipse transform="matrix(0.2814 0.9596 -0.9596 0.2814 141.5562 -10.1185)" fill="#5D5E61" cx="77.5" cy="89.5" rx="1.6" ry="2.9"/>
		
			<ellipse transform="matrix(0.2814 0.9596 -0.9596 0.2814 100.449 8.4818)" fill="#5D5E61" cx="44.6" cy="71.3" rx="1.6" ry="2.9"/>
		
			<ellipse transform="matrix(0.2814 0.9596 -0.9596 0.2814 124.7749 4.988)" fill="#5D5E61" cx="59.1" cy="85.8" rx="1.6" ry="2.9"/>
		
			<ellipse transform="matrix(0.2814 0.9596 -0.9596 0.2814 67.8927 -14.1701)" fill="#5D5E61" cx="43.4" cy="38.2" rx="1.6" ry="2.9"/>
	</g>
</g>
</svg>
