<?xml version="1.0" encoding="utf-8"?>
<!-- Generator: Adobe Illustrator 18.1.1, SVG Export Plug-In . SVG Version: 6.00 Build 0)  -->
<svg version="1.1" id="Layer_1" xmlns="http://www.w3.org/2000/svg" xmlns:xlink="http://www.w3.org/1999/xlink" x="0px" y="0px"
	 viewBox="0 0 128 128" enable-background="new 0 0 128 128" xml:space="preserve">
<g>
	<circle fill="#388CCB" cx="64" cy="64" r="63.5"/>
	<g>
		<path fill="#E3E6E8" d="M82.9,27.7H45.1l-3.4,9.9v62.2c0,2.1,10,3.8,22.3,3.8c12.3,0,22.3-1.7,22.3-3.8V37.5L82.9,27.7z"/>
		<path fill="#D62E2F" d="M84.6,27.7H43.4c-0.8,0-1.4-0.6-1.4-1.4v-0.8c0-0.8,0.6-1.4,1.4-1.4h41.3c0.8,0,1.4,0.6,1.4,1.4v0.8
			C86,27,85.4,27.7,84.6,27.7z"/>
		<ellipse fill="#F4B1A8" cx="64" cy="65.5" rx="12.9" ry="19.4"/>
	</g>
</g>
</svg>
