<?xml version="1.0" encoding="utf-8"?>
<!-- Generator: Adobe Illustrator 18.1.1, SVG Export Plug-In . SVG Version: 6.00 Build 0)  -->
<svg version="1.1" id="Layer_1" xmlns="http://www.w3.org/2000/svg" xmlns:xlink="http://www.w3.org/1999/xlink" x="0px" y="0px"
	 viewBox="0 0 128 128" enable-background="new 0 0 128 128" xml:space="preserve">
<g>
	<circle fill="#EF4538" cx="64" cy="64" r="63.5"/>
	<g>
		<polygon fill="#3D82C4" points="100.3,69.9 27.7,69.9 41.5,88.6 86.5,88.6 		"/>
		<rect x="24.3" y="65.9" fill="none" width="79.4" height="4"/>
		<path fill="#FAF4A6" d="M54.1,67.4c-0.8,0-1.5-0.7-1.5-1.5c0-5.8-4.7-10.5-10.5-10.5c-5.8,0-10.5,4.7-10.5,10.5
			c0,0.8-0.7,1.5-1.5,1.5s-1.5-0.7-1.5-1.5c0-7.4,6-13.4,13.4-13.4c7.4,0,13.4,6,13.4,13.4C55.6,66.7,55,67.4,54.1,67.4z"/>
		<path fill="#FAF4A6" d="M50,67.4c-0.8,0-1.5-0.7-1.5-1.5c0-3.5-2.8-6.3-6.3-6.3c-3.5,0-6.3,2.8-6.3,6.3c0,0.8-0.7,1.5-1.5,1.5
			c-0.8,0-1.5-0.7-1.5-1.5c0-5.1,4.2-9.3,9.3-9.3c5.1,0,9.3,4.2,9.3,9.3C51.4,66.7,50.8,67.4,50,67.4z"/>
		<path fill="#FAF4A6" d="M97.8,67.4c-0.8,0-1.5-0.7-1.5-1.5c0-5.8-4.7-10.5-10.5-10.5c-5.8,0-10.5,4.7-10.5,10.5
			c0,0.8-0.7,1.5-1.5,1.5s-1.5-0.7-1.5-1.5c0-7.4,6-13.4,13.4-13.4c7.4,0,13.4,6,13.4,13.4C99.3,66.7,98.6,67.4,97.8,67.4z"/>
		<path fill="#FAF4A6" d="M93.6,67.4c-0.8,0-1.5-0.7-1.5-1.5c0-3.5-2.8-6.3-6.3-6.3c-3.5,0-6.3,2.8-6.3,6.3c0,0.8-0.7,1.5-1.5,1.5
			s-1.5-0.7-1.5-1.5c0-5.1,4.2-9.3,9.3-9.3c5.1,0,9.3,4.2,9.3,9.3C95.1,66.7,94.4,67.4,93.6,67.4z"/>
		<path fill="#FAF4A6" d="M58.5,67.4c-0.8,0-1.5-0.7-1.5-1.5c0-8.2-6.7-14.9-14.9-14.9s-14.9,6.7-14.9,14.9c0,0.8-0.7,1.5-1.5,1.5
			s-1.5-0.7-1.5-1.5c0-9.8,8-17.8,17.8-17.8S60,56.1,60,65.9C60,66.7,59.3,67.4,58.5,67.4z"/>
		<path fill="#FAF4A6" d="M102.2,67.4c-0.8,0-1.5-0.7-1.5-1.5c0-8.2-6.7-14.9-14.9-14.9S71,57.7,71,65.9c0,0.8-0.7,1.5-1.5,1.5
			S68,66.7,68,65.9c0-9.8,8-17.8,17.8-17.8s17.8,8,17.8,17.8C103.6,66.7,103,67.4,102.2,67.4z"/>
		<path fill="#FAF4A6" d="M73.4,53.2c0.7-0.7,1.5-1.4,2.4-2c-2.1-4.6-6.8-7.9-12.2-7.9c-5.2,0-9.8,3-12,7.4c0.9,0.5,1.7,1.1,2.4,1.8
			c1.6-3.7,5.3-6.3,9.6-6.3C68.1,46.3,71.9,49.2,73.4,53.2z"/>
		<path fill="#FAF4A6" d="M70.1,57.6c0.6-1.2,1.4-2.3,2.3-3.4c-1.1-3.9-4.7-6.7-8.9-6.7c-3.9,0-7.3,2.5-8.6,5.9
			c0.9,0.9,1.7,1.9,2.3,3c0.2-3.3,2.9-6,6.3-6c3.5,0,6.3,2.8,6.3,6.3C69.9,57.1,69.9,57.4,70.1,57.6z"/>
		<path fill="#FAF4A6" d="M77,50.5c0.8-0.5,1.7-0.9,2.7-1.2c-2.9-6-9-10.2-16.1-10.2c-7,0-13,4.1-15.9,9.9c0.9,0.3,1.8,0.7,2.7,1.1
			c2.5-4.8,7.5-8.1,13.2-8.1C69.5,42,74.6,45.5,77,50.5z"/>
		<rect x="24.3" y="65.9" fill="#72B2E1" width="79.4" height="4"/>
	</g>
</g>
</svg>
