<?xml version="1.0" encoding="utf-8"?>
<!-- Generator: Adobe Illustrator 18.1.1, SVG Export Plug-In . SVG Version: 6.00 Build 0)  -->
<svg version="1.1" id="Layer_1" xmlns="http://www.w3.org/2000/svg" xmlns:xlink="http://www.w3.org/1999/xlink" x="0px" y="0px"
	 viewBox="0 0 128 128" enable-background="new 0 0 128 128" xml:space="preserve">
<g>
	<circle fill="#388CCB" cx="64" cy="64" r="63.5"/>
	<g>
		<ellipse fill="#A45C46" cx="51.6" cy="57.1" rx="22.4" ry="12.5"/>
		<path fill="#A45C46" d="M34.9,88.8V60.4l0,0c-7.1-3.3-11.5-7.9-11.5-13v28.5C23.5,81.3,35.5,89.1,34.9,88.8z"/>
		<path fill="#753A29" d="M28.3,65.6c5.2,2.4,11.8,4.2,19.2,5l9-18L28.3,65.6z"/>
		<path fill="#915037" d="M47.5,70.6c-7.4-0.8-14-2.6-19.2-5l0,0v28.5c5.1,2.4,11.6,4.2,18.9,5v-28L47.5,70.6z"/>
		<polygon fill="#915037" points="56.6,52.7 56.6,79.6 47.3,99.1 47.3,71.1 		"/>
		<path fill="#A45C46" d="M63.1,65.8c-3.1,0-6.1-0.2-9-0.5c0,0,0,0,0,0l-0.2,0.5v28c-1.8-0.2,4.1,0.5,9.3,0.5
			c21.9,0,39.7-8.3,39.7-18.4V47.4C102.8,57.6,85.1,65.8,63.1,65.8z"/>
		<path fill="#753A29" d="M63.1,28.9c-21.9,0-40.1,8.3-39.7,18.4c0.4,8.7,12.1,13.3,11.5,13l28.2-13l-9,18c-1.8-0.2,3.9,0.5,9,0.5
			c21.9,0,39.7-8.3,39.7-18.4C102.8,37.2,85.1,28.9,63.1,28.9z"/>
	</g>
</g>
</svg>
