<?xml version="1.0" encoding="utf-8"?>
<!-- Generator: Adobe Illustrator 18.1.1, SVG Export Plug-In . SVG Version: 6.00 Build 0)  -->
<svg version="1.1" id="Layer_1" xmlns="http://www.w3.org/2000/svg" xmlns:xlink="http://www.w3.org/1999/xlink" x="0px" y="0px"
	 viewBox="0 0 128 128" enable-background="new 0 0 128 128" xml:space="preserve">
<g>
	<circle fill="#EF4538" cx="64" cy="64" r="63.5"/>
	<g>
		<path fill="#565756" d="M96.4,58.9c0,17.6-14.9,31.9-33.2,31.9S29.9,76.6,29.9,58.9"/>
		<path fill="#E3E6E8" d="M46.7,43.6c-0.4,0-0.9-0.2-1.1-0.5c-0.5-0.5-0.3-1.3,0.3-1.7c0.2-0.1,0.4-0.6,0.3-1
			c-0.1-0.4-0.2-0.8-0.4-1.3c-0.1-0.2-0.2-0.5-0.3-0.7c-0.5-1.5-0.6-3.1-0.1-4.7c0.2-0.6,0.4-1.2,0.6-1.8c0.2-0.5,0.4-0.9,0.5-1.4
			c0.5-1.6,0.4-3.3,0.3-4.9c0-0.7,0.6-1.2,1.3-1.3c0.8,0,1.4,0.5,1.5,1.1c0.1,1.7,0.2,3.7-0.3,5.6c-0.2,0.6-0.4,1.1-0.6,1.6
			c-0.2,0.5-0.4,1-0.5,1.5c-0.3,1.2-0.3,2.4,0.1,3.5c0.1,0.2,0.2,0.4,0.2,0.6c0.2,0.6,0.4,1.1,0.5,1.8c0.2,1.3-0.4,2.5-1.4,3.2
			C47.3,43.5,47,43.6,46.7,43.6z"/>
		<path fill="#E3E6E8" d="M58.2,43.6c-0.4,0-0.9-0.2-1.1-0.5c-0.5-0.5-0.3-1.3,0.3-1.7c0.2-0.1,0.4-0.6,0.3-1
			c-0.1-0.4-0.2-0.8-0.4-1.3c-0.1-0.2-0.2-0.5-0.3-0.7c-0.5-1.5-0.6-3.1-0.1-4.7c0.2-0.6,0.4-1.2,0.6-1.8c0.2-0.5,0.4-0.9,0.5-1.4
			c0.5-1.6,0.4-3.3,0.3-4.9c0-0.7,0.6-1.2,1.3-1.3c0.8,0,1.4,0.5,1.5,1.1c0.1,1.7,0.2,3.7-0.3,5.6c-0.2,0.6-0.4,1.1-0.6,1.6
			c-0.2,0.5-0.4,1-0.5,1.5c-0.3,1.2-0.3,2.4,0.1,3.5c0.1,0.2,0.2,0.4,0.2,0.6c0.2,0.6,0.4,1.1,0.5,1.8c0.2,1.3-0.4,2.5-1.4,3.2
			C58.8,43.5,58.5,43.6,58.2,43.6z"/>
		<path fill="#E3E6E8" d="M69.7,43.6c-0.4,0-0.9-0.2-1.1-0.5c-0.5-0.5-0.3-1.3,0.3-1.7c0.2-0.1,0.4-0.6,0.3-1
			c-0.1-0.4-0.2-0.8-0.4-1.3c-0.1-0.2-0.2-0.5-0.3-0.7c-0.5-1.5-0.6-3.1-0.1-4.7c0.2-0.6,0.4-1.2,0.6-1.8c0.2-0.5,0.4-0.9,0.5-1.4
			c0.5-1.6,0.4-3.3,0.3-4.9c0-0.7,0.6-1.2,1.3-1.3c0.8,0,1.4,0.5,1.5,1.1c0.1,1.7,0.2,3.7-0.3,5.6c-0.2,0.6-0.4,1.1-0.6,1.6
			c-0.2,0.5-0.4,1-0.5,1.5c-0.3,1.2-0.3,2.4,0.1,3.5c0.1,0.2,0.2,0.4,0.2,0.6c0.2,0.6,0.4,1.1,0.5,1.8c0.2,1.3-0.4,2.5-1.4,3.2
			C70.3,43.5,70,43.6,69.7,43.6z"/>
		<path fill="#E3E6E8" d="M81.1,43.6c-0.4,0-0.9-0.2-1.1-0.5c-0.5-0.5-0.3-1.3,0.3-1.7c0.2-0.1,0.4-0.6,0.3-1
			c-0.1-0.4-0.2-0.8-0.4-1.3c-0.1-0.2-0.2-0.5-0.3-0.7c-0.5-1.5-0.6-3.1-0.1-4.7c0.2-0.6,0.4-1.2,0.6-1.8c0.2-0.5,0.4-0.9,0.5-1.4
			c0.5-1.6,0.4-3.3,0.3-4.9c0-0.7,0.6-1.2,1.3-1.3c0.8,0,1.4,0.5,1.5,1.1c0.1,1.7,0.2,3.7-0.3,5.6c-0.2,0.6-0.4,1.1-0.6,1.6
			c-0.2,0.5-0.4,1-0.5,1.5c-0.3,1.2-0.3,2.4,0.1,3.5c0.1,0.2,0.2,0.4,0.2,0.6c0.2,0.6,0.4,1.1,0.5,1.8c0.2,1.3-0.4,2.5-1.4,3.2
			C81.7,43.5,81.4,43.6,81.1,43.6z"/>
		<ellipse fill="#753A29" cx="63.1" cy="58.9" rx="33.2" ry="12.4"/>
		<path fill="#E3E6E8" d="M63.1,68.3c-18.2,0-30.2-5.6-30.2-9.4c0-3.7,12.1-9.4,30.2-9.4s30.2,5.6,30.2,9.4
			C93.4,62.7,81.3,68.3,63.1,68.3z"/>
		<path fill="#B9B9BC" d="M37.6,54.4v9.1c0.9,0.4,1.8,0.9,2.9,1.3V53.1C39.4,53.5,38.4,53.9,37.6,54.4z"/>
		<path fill="#B9B9BC" d="M45.6,51.5v14.8c0.9,0.2,1.9,0.4,2.9,0.6V50.9C47.5,51.1,46.5,51.3,45.6,51.5z"/>
		<path fill="#B9B9BC" d="M53.7,50.1v17.7c0.9,0.1,1.9,0.2,2.9,0.3V49.8C55.5,49.9,54.6,50,53.7,50.1z"/>
		<path fill="#B9B9BC" d="M63.1,49.5c-0.5,0-1,0-1.4,0v18.7c0.5,0,1,0,1.4,0c0.5,0,1,0,1.4,0V49.6C64.1,49.5,63.6,49.5,63.1,49.5z"
			/>
		<path fill="#B9B9BC" d="M69.8,49.8V68c1-0.1,1.9-0.2,2.9-0.3V50.1C71.7,50,70.7,49.9,69.8,49.8z"/>
		<path fill="#B9B9BC" d="M77.8,50.9V67c1-0.2,2-0.4,2.9-0.6V51.5C79.8,51.3,78.8,51.1,77.8,50.9z"/>
		<path fill="#B9B9BC" d="M85.9,53.1v11.6c1.1-0.4,2-0.8,2.9-1.3v-9.1C87.9,53.9,86.9,53.5,85.9,53.1z"/>
		<path fill="#753A29" d="M96.7,69.8c-0.7,0-1.4-0.1-2-0.3l0.7-2.8c0.5,0.1,0.9,0.2,1.3,0.2c2,0,3.3-1,3.3-1.7
			c0-0.7-1.3-1.7-3.3-1.7c-0.1,0-0.1,0-0.2,0l-0.2,0l-0.2-2.9l0.1,0c0.1,0,0.3,0,0.4,0c3.5,0,6.2,2,6.2,4.6
			C102.8,67.8,100.1,69.8,96.7,69.8z"/>
		<path fill="#753A29" d="M29.6,69.8c-3.5,0-6.2-2-6.2-4.6c0-2.6,2.7-4.6,6.2-4.6c0.1,0,0.3,0,0.4,0l0.1,0L30,63.5l-0.2,0
			c-0.1,0-0.1,0-0.2,0c-2,0-3.3,1-3.3,1.7c0,0.7,1.3,1.7,3.3,1.7c0.4,0,0.9-0.1,1.3-0.2l0.7,2.8C31,69.7,30.3,69.8,29.6,69.8z"/>
		<path fill="#565756" d="M78.3,87.4C77,88,75.7,88.5,74.4,89c0,0,0,0,0.1,0.1l14.7,14.1c0.4,0.4,0.8,0.5,1.3,0.5
			c0.5,0,1-0.2,1.4-0.6c0.7-0.8,0.7-2-0.1-2.8L78.3,87.4z"/>
		<path fill="#565756" d="M48,87.4l-13.5,13c-0.8,0.7-0.8,2-0.1,2.8c0.4,0.4,0.9,0.6,1.4,0.6c0.5,0,0.9-0.2,1.3-0.5L51.9,89
			c0,0,0,0,0.1-0.1C50.6,88.5,49.3,88,48,87.4z"/>
	</g>
</g>
</svg>
