<?xml version="1.0" encoding="utf-8"?>
<!-- Generator: Adobe Illustrator 18.1.1, SVG Export Plug-In . SVG Version: 6.00 Build 0)  -->
<svg version="1.1" id="Layer_1" xmlns="http://www.w3.org/2000/svg" xmlns:xlink="http://www.w3.org/1999/xlink" x="0px" y="0px"
	 viewBox="0 0 128 128" enable-background="new 0 0 128 128" xml:space="preserve">
<g>
	<circle fill="#388CCB" cx="64" cy="64" r="63.5"/>
	<g>
		<path fill="#FCD83A" d="M82.8,52.9c0-4.1-13.1-7.4-29.3-7.4c-16.2,0-29.3,3.3-29.3,7.4c0,1.5,1.8,2.9,4.9,4.1v44.3
			c0,1.4,1.1,2.4,2.5,2.4h43.9c1.4,0,2.5-1.1,2.5-2.4V57C81,55.8,82.8,54.4,82.8,52.9z"/>
		<path fill="#FFC717" d="M74.4,24.3c-10.1,0-19,1.3-24.3,3.3C47,28.7,24.3,51.9,24.3,51.9l0.2,0.1c1.8-3.7,14.1-6.5,29-6.5
			c16.2,0,29.3,3.3,29.3,7.4c0,1.5-1.8,2.9-4.9,4.1v44.3c0,0.3-0.1,0.6-0.2,0.9l21-22.1V35.8c3.1-1.2,4.9-2.6,4.9-4.1
			C103.7,27.6,90.6,24.3,74.4,24.3z"/>
		<ellipse fill="#D62E2F" cx="40.2" cy="65" rx="2.9" ry="2.9"/>
		<ellipse fill="#D62E2F" cx="44.4" cy="90.1" rx="3.5" ry="3.5"/>
		<ellipse fill="#D62E2F" cx="65.1" cy="83.9" rx="2.7" ry="2.7"/>
		<ellipse fill="#D62E2F" cx="64.4" cy="67" rx="2.1" ry="2.1"/>
		<ellipse fill="#D62E2F" cx="50" cy="77.9" rx="2" ry="2"/>
	</g>
</g>
</svg>
