<?xml version="1.0" encoding="utf-8"?>
<!-- Generator: Adobe Illustrator 18.1.1, SVG Export Plug-In . SVG Version: 6.00 Build 0)  -->
<svg version="1.1" id="Layer_1" xmlns="http://www.w3.org/2000/svg" xmlns:xlink="http://www.w3.org/1999/xlink" x="0px" y="0px"
	 viewBox="0 0 128 128" enable-background="new 0 0 128 128" xml:space="preserve">
<g>
	<circle fill="#FFC717" cx="64" cy="64" r="63.5"/>
	<g>
		<path fill="#E67374" d="M103.7,34.4c0-5.6-17.8-10.1-39.7-10.1c-21.9,0-39.7,4.5-39.7,10.1c0,2.1,2.4,4,6.6,5.6v60.4
			c0,1.8,1.5,3.3,3.3,3.3h59.5c1.8,0,3.3-1.5,3.3-3.3V40C101.3,38.4,103.7,36.4,103.7,34.4z"/>
		<circle fill="#FAF4A6" cx="45.9" cy="50.9" r="4"/>
		<circle fill="#FAF4A6" cx="51.6" cy="85.1" r="4.8"/>
		<circle fill="#FAF4A6" cx="79.6" cy="76.7" r="3.7"/>
		<circle fill="#FAF4A6" cx="78.8" cy="53.7" r="2.8"/>
		<circle fill="#FAF4A6" cx="59.1" cy="68.5" r="2.7"/>
	</g>
</g>
</svg>
