<?xml version="1.0" encoding="utf-8"?>
<!-- Generator: Adobe Illustrator 18.1.1, SVG Export Plug-In . SVG Version: 6.00 Build 0)  -->
<svg version="1.1" id="Layer_1" xmlns="http://www.w3.org/2000/svg" xmlns:xlink="http://www.w3.org/1999/xlink" x="0px" y="0px"
	 viewBox="0 0 128 128" enable-background="new 0 0 128 128" xml:space="preserve">
<g>
	<circle fill="#EF4538" cx="64" cy="64" r="63.5"/>
	<g>
		<path fill="#B7BFC4" d="M103.7,59.8c0,13.4-8,18.9-18,18.9s-18-5.5-18-18.9s8-29.5,18-29.5S103.7,46.5,103.7,59.8z"/>
		<path fill="#B7BFC4" d="M60.2,59.8c0,13.4-8,18.9-18,18.9s-18-5.5-18-18.9s8-29.5,18-29.5S60.2,46.5,60.2,59.8z"/>
		<path fill="#E3E6E8" d="M82,78.8c0,13.4-8,18.9-18,18.9s-18-5.5-18-18.9s8-29.5,18-29.5S82,65.4,82,78.8z"/>
	</g>
</g>
</svg>
