<?xml version="1.0" encoding="utf-8"?>
<!-- Generator: Adobe Illustrator 18.1.1, SVG Export Plug-In . SVG Version: 6.00 Build 0)  -->
<svg version="1.1" id="Layer_1" xmlns="http://www.w3.org/2000/svg" xmlns:xlink="http://www.w3.org/1999/xlink" x="0px" y="0px"
	 viewBox="0 0 128 128" enable-background="new 0 0 128 128" xml:space="preserve">
<g>
	<circle fill="#388CCB" cx="64" cy="64" r="63.5"/>
	<g>
		<path fill="#E3E6E8" d="M65.7,32.8l0.2-0.2c2.1-2.1,1.4-5.7-1.4-6.7c-7.3-2.8-15.9-1.4-21.9,4.3c-8.6,8.2-8.4,22,0,30.4l42,42
			c1.7,1.7,4.4,1.7,6,0l0,0c1.7-1.7,1.7-4.4,0-6L48.5,54.5c-4.7-4.7-5.2-12.2-0.9-17.2c3.5-4.1,9-5.2,13.6-3.5
			C62.8,34.3,64.5,34,65.7,32.8z"/>
		<path fill="#D62E2F" d="M89.6,95.7l-2.3-2.3l-8.7,2.3c-0.3,0.1-0.5,0.2-0.7,0.4l2.3,2.3L89,96C89.2,96,89.5,95.8,89.6,95.7z"/>
		<path fill="#D62E2F" d="M80.9,86.9l-2.3-2.3l-8.7,2.3c-0.3,0.1-0.5,0.2-0.7,0.4l2.3,2.3l8.7-2.3C80.4,87.2,80.7,87.1,80.9,86.9z"
			/>
		<path fill="#D62E2F" d="M72.1,78.1l-2.3-2.3l-8.7,2.3c-0.3,0.1-0.5,0.2-0.7,0.4l2.3,2.3l8.7-2.3C71.7,78.4,71.9,78.3,72.1,78.1z"
			/>
		<path fill="#D62E2F" d="M63.3,69.3L61,67l-8.7,2.3c-0.3,0.1-0.5,0.2-0.7,0.4l2.3,2.3l8.7-2.3C62.9,69.6,63.1,69.5,63.3,69.3z"/>
		<path fill="#D62E2F" d="M54.5,60.5l-2.3-2.3l-8.7,2.3c-0.3,0.1-0.5,0.2-0.7,0.4l2.3,2.3l8.7-2.3C54.1,60.8,54.3,60.7,54.5,60.5z"
			/>
		<path fill="#D62E2F" d="M46.3,51.6c-0.5-0.9-0.8-1.8-1.1-2.7l-8.1,2c0,0,0,0-0.1,0c0.3,1,0.6,1.9,1,2.8l8-2
			C46.1,51.7,46.2,51.6,46.3,51.6z"/>
		<path fill="#D62E2F" d="M46.3,39c0.4-0.6,0.8-1.2,1.3-1.7c0.2-0.2,0.3-0.4,0.5-0.6c-0.2-0.2-0.4-0.4-0.6-0.5l-7.7-2.7
			c-0.6,0.8-1,1.7-1.5,2.6c0,0,0.1,0,0.1,0.1L46.3,39z"/>
		<path fill="#D62E2F" d="M53.7,33.4L53.7,33.4c1-0.2,2-0.4,2.9-0.4c0-0.1,0-0.2,0-0.3l-1.8-8.1c-1,0.1-2,0.3-2.9,0.5l0,0L53.7,33.4
			z"/>
	</g>
</g>
</svg>
