<?xml version="1.0" encoding="utf-8"?>
<!-- Generator: Adobe Illustrator 18.1.1, SVG Export Plug-In . SVG Version: 6.00 Build 0)  -->
<svg version="1.1" id="Layer_1" xmlns="http://www.w3.org/2000/svg" xmlns:xlink="http://www.w3.org/1999/xlink" x="0px" y="0px"
	 viewBox="0 0 128 128" enable-background="new 0 0 128 128" xml:space="preserve">
<g>
	<circle fill="#41B655" cx="64" cy="64" r="63.5"/>
	<g>
		<polygon fill="#753A29" points="103.7,69.2 24.3,69.2 38.3,81 38.3,86.7 89.7,86.7 89.7,81 		"/>
		<path fill="#E3E6E8" d="M45.5,64.9c-0.4,0-0.9-0.2-1.2-0.6c-0.5-0.6-0.4-1.6,0.3-2.1c0.2-0.2,0.4-0.7,0.3-1.2
			c-0.1-0.5-0.2-1-0.4-1.6c-0.1-0.3-0.2-0.6-0.3-0.9c-0.5-1.9-0.6-3.9-0.1-5.7c0.2-0.8,0.4-1.5,0.6-2.2c0.2-0.6,0.4-1.2,0.5-1.7
			c0.5-1.9,0.4-4,0.3-6c0-0.8,0.6-1.5,1.4-1.5c0.8,0,1.5,0.6,1.5,1.4c0.1,2.1,0.2,4.6-0.4,6.9c-0.2,0.7-0.4,1.3-0.6,2
			c-0.2,0.7-0.4,1.3-0.6,1.9c-0.3,1.4-0.3,2.9,0.1,4.3c0.1,0.3,0.2,0.5,0.2,0.8c0.2,0.7,0.5,1.4,0.5,2.2c0.2,1.6-0.4,3.1-1.5,3.9
			C46.1,64.8,45.8,64.9,45.5,64.9z"/>
		<path fill="#E3E6E8" d="M57.4,64.9c-0.4,0-0.9-0.2-1.2-0.6c-0.5-0.6-0.4-1.6,0.3-2.1c0.2-0.2,0.4-0.7,0.3-1.2
			c-0.1-0.5-0.2-1-0.4-1.6c-0.1-0.3-0.2-0.6-0.3-0.9c-0.5-1.9-0.6-3.9-0.1-5.7c0.2-0.8,0.4-1.5,0.6-2.2c0.2-0.6,0.4-1.2,0.5-1.7
			c0.5-1.9,0.4-4,0.3-6c0-0.8,0.6-1.5,1.4-1.5c0.8,0,1.5,0.6,1.5,1.4c0.1,2.1,0.2,4.6-0.4,6.9c-0.2,0.7-0.4,1.3-0.6,2
			c-0.2,0.7-0.4,1.3-0.6,1.9c-0.3,1.4-0.3,2.9,0.1,4.3c0.1,0.3,0.2,0.5,0.2,0.8c0.2,0.7,0.5,1.4,0.5,2.2c0.2,1.6-0.4,3.1-1.5,3.9
			C58,64.8,57.7,64.9,57.4,64.9z"/>
		<path fill="#E3E6E8" d="M69.3,64.9c-0.4,0-0.9-0.2-1.2-0.6c-0.5-0.6-0.4-1.6,0.3-2.1c0.2-0.2,0.4-0.7,0.3-1.2
			c-0.1-0.5-0.2-1-0.4-1.6c-0.1-0.3-0.2-0.6-0.3-0.9c-0.5-1.9-0.6-3.9-0.1-5.7c0.2-0.8,0.4-1.5,0.6-2.2c0.2-0.6,0.4-1.2,0.5-1.7
			c0.5-1.9,0.4-4,0.3-6c0-0.8,0.6-1.5,1.4-1.5c0.8,0,1.5,0.6,1.5,1.4c0.1,2.1,0.2,4.6-0.4,6.9c-0.2,0.7-0.4,1.3-0.6,2
			c-0.2,0.7-0.4,1.3-0.6,1.9c-0.3,1.4-0.3,2.9,0.1,4.3c0.1,0.3,0.2,0.5,0.2,0.8c0.2,0.7,0.5,1.4,0.5,2.2c0.2,1.6-0.4,3.1-1.5,3.9
			C69.9,64.8,69.6,64.9,69.3,64.9z"/>
		<path fill="#E3E6E8" d="M81.2,64.9c-0.4,0-0.9-0.2-1.2-0.6c-0.5-0.6-0.4-1.6,0.3-2.1c0.2-0.2,0.4-0.7,0.3-1.2
			c-0.1-0.5-0.2-1-0.4-1.6c-0.1-0.3-0.2-0.6-0.3-0.9c-0.5-1.9-0.6-3.9-0.1-5.7c0.2-0.8,0.4-1.5,0.6-2.2c0.2-0.6,0.4-1.2,0.5-1.7
			c0.5-1.9,0.4-4,0.3-6c0-0.8,0.6-1.5,1.4-1.5c0.8,0,1.5,0.6,1.5,1.4c0.1,2.1,0.2,4.6-0.4,6.9c-0.2,0.7-0.4,1.3-0.6,2
			c-0.2,0.7-0.4,1.3-0.6,1.9c-0.3,1.4-0.3,2.9,0.1,4.3c0.1,0.3,0.2,0.5,0.2,0.8c0.2,0.7,0.5,1.4,0.5,2.2c0.2,1.6-0.4,3.1-1.5,3.9
			C81.8,64.8,81.5,64.9,81.2,64.9z"/>
	</g>
</g>
</svg>
