<?xml version="1.0" encoding="utf-8"?>
<!-- Generator: Adobe Illustrator 18.1.1, SVG Export Plug-In . SVG Version: 6.00 Build 0)  -->
<svg version="1.1" id="Layer_1" xmlns="http://www.w3.org/2000/svg" xmlns:xlink="http://www.w3.org/1999/xlink" x="0px" y="0px"
	 viewBox="0 0 128 128" enable-background="new 0 0 128 128" xml:space="preserve">
<g>
	<circle fill="#388CCB" cx="64" cy="64" r="63.5"/>
	<g>
		<polygon fill="#CACCCD" points="43.4,27.2 24.3,34.7 43.4,42.2 62.5,34.7 		"/>
		<polygon fill="#CACCCD" points="84.6,39.1 65.5,46.6 84.6,54.1 103.7,46.6 		"/>
		<polygon fill="#E67375" points="35.2,34.7 43.4,31.5 51.6,34.7 43.4,37.9 		"/>
		<polygon fill="#E67375" points="76.4,46.6 84.6,43.4 92.8,46.6 84.6,49.9 		"/>
		<path fill="#5D5E61" d="M25,84.1L83.6,83c1,0,1.8,0.8,1.8,1.7c0,1-0.8,1.8-1.7,1.8c0,0,0,0-0.1,0L25,85.5c-0.4,0-0.7-0.3-0.7-0.7
			C24.3,84.4,24.6,84.1,25,84.1z"/>
		<path fill="#565756" d="M79,100.7L28.3,71.3c-0.8-0.5-1.1-1.6-0.6-2.4c0.5-0.8,1.6-1.1,2.4-0.6c0,0,0,0,0.1,0l49.5,31.3
			c0.3,0.2,0.4,0.6,0.2,0.9C79.7,100.8,79.3,100.9,79,100.7z"/>
		<polygon fill="#F7EC5C" points="43.4,42.4 24.3,34.9 24.3,59.9 43.4,67.4 43.4,67.4 43.4,42.4 		"/>
		<polygon fill="#FAF4A6" points="62.5,34.9 43.4,42.4 43.4,67.4 62.5,59.9 		"/>
		<polygon fill="#FAF4A6" points="84.6,54.1 65.5,46.6 65.5,71.6 84.6,79.1 84.6,79.1 84.6,54.1 		"/>
		<polygon fill="#F7EC5C" points="103.7,46.6 84.6,54.1 84.6,79.1 103.7,71.6 		"/>
	</g>
</g>
</svg>
