<?xml version="1.0" encoding="utf-8"?>
<!-- Generator: Adobe Illustrator 18.1.1, SVG Export Plug-In . SVG Version: 6.00 Build 0)  -->
<svg version="1.1" id="Layer_1" xmlns="http://www.w3.org/2000/svg" xmlns:xlink="http://www.w3.org/1999/xlink" x="0px" y="0px"
	 viewBox="0 0 128 128" enable-background="new 0 0 128 128" xml:space="preserve">
<g>
	<circle fill="#FFC717" cx="64" cy="64" r="63.5"/>
	<g>
		<polygon fill="#FAF4A6" points="103.7,81.2 24.3,102.8 24.3,64.5 103.7,42.9 		"/>
		<polygon fill="#22A79C" points="103.7,65.8 24.3,87.4 24.3,79.9 103.7,58.3 		"/>
		<circle fill="#753A29" cx="53.6" cy="40" r="8.5"/>
		<path fill="#D62E2F" d="M62.4,28.4l-4.5,4.3c2.5,1.5,4.2,4.2,4.2,7.3c0,4.7-3.8,8.5-8.5,8.5c-3.3,0-6.1-1.9-7.5-4.6L24.3,64.5
			l79.4-21.6L62.4,28.4z"/>
		<g>
			<path fill="#915037" d="M53.6,36.1C53.6,36.1,53.6,36.1,53.6,36.1c-0.9,0-1.5-0.7-1.5-1.5c0.1-4.1-3.3-8.5-3.3-8.5
				c-0.5-0.6-0.4-1.6,0.2-2.1c0.6-0.5,1.6-0.4,2.1,0.2c0.2,0.2,4.1,5.2,4,10.4C55.1,35.5,54.4,36.1,53.6,36.1z"/>
		</g>
	</g>
</g>
</svg>
